<svg width="24" height="24" viewBox="0 0 24 24" fill="none" xmlns="http://www.w3.org/2000/svg">
<rect width="24" height="24" rx="4" fill="white"/>
<path d="M12 6C12.7682 6 13.505 6.30517 14.0482 6.84838C14.5914 7.39159 14.8966 8.12834 14.8966 8.89655C14.8966 9.66477 14.5914 10.4015 14.0482 10.9447C13.505 11.4879 12.7682 11.7931 12 11.7931C11.2318 11.7931 10.495 11.4879 9.95183 10.9447C9.40862 10.4015 9.10345 9.66477 9.10345 8.89655C9.10345 8.12834 9.40862 7.39159 9.95183 6.84838C10.495 6.30517 11.2318 6 12 6ZM6.2069 8.06897C6.67035 8.06897 7.10069 8.1931 7.47311 8.41655C7.34897 9.6 7.69656 10.7752 8.40828 11.6938C7.99449 12.4883 7.1669 13.0345 6.2069 13.0345C5.54843 13.0345 4.91693 12.7729 4.45133 12.3073C3.98572 11.8417 3.72414 11.2102 3.72414 10.5517C3.72414 9.89326 3.98572 9.26176 4.45133 8.79615C4.91693 8.33054 5.54843 8.06897 6.2069 8.06897ZM17.7931 8.06897C18.4516 8.06897 19.0831 8.33054 19.5487 8.79615C20.0143 9.26176 20.2759 9.89326 20.2759 10.5517C20.2759 11.2102 20.0143 11.8417 19.5487 12.3073C19.0831 12.7729 18.4516 13.0345 17.7931 13.0345C16.8331 13.0345 16.0055 12.4883 15.5917 11.6938C16.3133 10.7623 16.6482 9.58858 16.5269 8.41655C16.8993 8.1931 17.3297 8.06897 17.7931 8.06897ZM6.62069 16.5517C6.62069 14.8386 9.02897 13.4483 12 13.4483C14.971 13.4483 17.3793 14.8386 17.3793 16.5517V18H6.62069V16.5517ZM2.06897 18V16.7586C2.06897 15.6083 3.63311 14.64 5.75173 14.3586C5.26345 14.9214 4.96552 15.6993 4.96552 16.5517V18H2.06897ZM21.931 18H19.0345V16.5517C19.0345 15.6993 18.7366 14.9214 18.2483 14.3586C20.3669 14.64 21.931 15.6083 21.931 16.7586V18Z" fill="#541388"/>
</svg>
