<svg width="212" height="180" viewBox="0 0 212 180" fill="none" xmlns="http://www.w3.org/2000/svg">
<path d="M105.5 180C155.206 180 195.5 139.706 195.5 90C195.5 40.2944 155.206 0 105.5 0C55.7944 0 15.5 40.2944 15.5 90C15.5 139.706 55.7944 180 105.5 180Z" fill="#F0F4FE"/>
<g filter="url(#filter0_dd_243_78585)">
<rect x="12.5" y="24" width="134" height="36" rx="8" fill="white"/>
<rect x="20.5" y="28" width="28" height="28" rx="14" fill="#C2C7D6"/>
<path fill-rule="evenodd" clip-rule="evenodd" d="M37.4167 42.7213V35.75C37.4167 35.2897 37.0436 34.9166 36.5833 34.9166C36.1231 34.9166 35.75 35.2897 35.75 35.75V41.5833H34.9167V34.5C34.9167 34.0397 34.5436 33.6666 34.0833 33.6666C33.6231 33.6666 33.25 34.0397 33.25 34.5V41.5833H32.4167V35.75C32.4167 35.2897 32.0436 34.9166 31.5833 34.9166C31.1231 34.9166 30.75 35.2897 30.75 35.75V42.4629H29.9167V38.25C29.9167 37.7897 29.5436 37.4166 29.0833 37.4166C28.6231 37.4166 28.25 37.7897 28.25 38.25V45.3333C28.25 48.0947 30.4886 50.3333 33.25 50.3333H33.8425C35.678 50.3333 37.3658 49.3277 38.2396 47.7136L41.1303 42.3738C41.3882 41.8974 41.2467 41.3032 40.8017 40.9942C40.3148 40.6561 39.6455 40.7814 39.3138 41.2727L38.1787 42.9544C37.9487 43.295 37.4167 43.1323 37.4167 42.7213ZM32.0095 44.4931C32.2397 44.4929 32.426 44.3062 32.4259 44.0761C32.4257 43.846 32.239 43.6596 32.0088 43.6598C31.7787 43.66 31.5923 43.8467 31.5925 44.0768C31.5927 44.3069 31.7794 44.4933 32.0095 44.4931ZM34.0932 44.908C34.3233 44.9079 34.5097 44.7212 34.5095 44.491C34.5093 44.2609 34.3226 44.0745 34.0925 44.0747C33.8624 44.0749 33.676 44.2616 33.6762 44.4918C33.6764 44.7218 33.8631 44.9083 34.0932 44.908ZM33.2609 46.1588C33.2611 46.3889 33.0747 46.5755 32.8446 46.5758C32.6145 46.576 32.4277 46.3895 32.4276 46.1594C32.4274 45.9293 32.6137 45.7426 32.8439 45.7424C33.074 45.7422 33.2607 45.9286 33.2609 46.1588ZM34.9276 46.1574C35.1577 46.1572 35.3441 45.9705 35.3439 45.7404C35.3437 45.5103 35.157 45.3239 34.9269 45.324C34.6967 45.3243 34.5104 45.5109 34.5105 45.741C34.5107 45.9712 34.6975 46.1576 34.9276 46.1574ZM36.1786 47.4063C36.1788 47.6365 35.9924 47.8232 35.7622 47.8234C35.5321 47.8235 35.3455 47.6372 35.3453 47.407C35.3451 47.1769 35.5315 46.9902 35.7616 46.99C35.9917 46.9898 36.1784 47.1763 36.1786 47.4063ZM36.5939 45.7393C36.824 45.7392 37.0104 45.5525 37.0102 45.3223C37.01 45.0922 36.8233 44.9058 36.5932 44.906C36.3631 44.9062 36.1767 45.0929 36.1769 45.323C36.1771 45.5531 36.3637 45.7395 36.5939 45.7393ZM34.0956 47.8247C34.0958 48.0548 33.9094 48.2415 33.6792 48.2418C33.4492 48.2419 33.2625 48.0555 33.2622 47.8254C33.2621 47.5953 33.4485 47.4086 33.6786 47.4084C33.9087 47.4082 34.0954 47.5946 34.0956 47.8247ZM31.5956 47.8268C31.8257 47.8266 32.0121 47.6399 32.0119 47.4098C32.0118 47.1797 31.825 46.9933 31.5949 46.9935C31.3648 46.9936 31.1784 47.1803 31.1786 47.4105C31.1788 47.6406 31.3655 47.827 31.5956 47.8268ZM31.1772 45.7438C31.1774 45.9739 30.991 46.1606 30.7609 46.1608C30.5308 46.161 30.3441 45.9746 30.3439 45.7445C30.3437 45.5143 30.5301 45.3276 30.7602 45.3275C30.9903 45.3273 31.177 45.5137 31.1772 45.7438Z" fill="white"/>
<rect x="56.5" y="32" width="37" height="6" rx="3" fill="#C2C7D6"/>
<rect x="56.5" y="46" width="63" height="6" rx="3" fill="#F0F4FE"/>
</g>
<g filter="url(#filter1_dd_243_78585)">
<rect x="65.5" y="72" width="134" height="36" rx="8" fill="white"/>
<rect x="73.5" y="76" width="28" height="28" rx="14" fill="#C2C7D6"/>
<path fill-rule="evenodd" clip-rule="evenodd" d="M90.4167 90.7213V83.75C90.4167 83.2897 90.0436 82.9166 89.5833 82.9166C89.1231 82.9166 88.75 83.2897 88.75 83.75V89.5833H87.9167V82.5C87.9167 82.0397 87.5436 81.6666 87.0833 81.6666C86.6231 81.6666 86.25 82.0397 86.25 82.5V89.5833H85.4167V83.75C85.4167 83.2897 85.0436 82.9166 84.5833 82.9166C84.1231 82.9166 83.75 83.2897 83.75 83.75V90.4629H82.9167V86.25C82.9167 85.7897 82.5436 85.4166 82.0833 85.4166C81.6231 85.4166 81.25 85.7897 81.25 86.25V93.3333C81.25 96.0947 83.4886 98.3333 86.25 98.3333H86.8425C88.678 98.3333 90.3658 97.3277 91.2396 95.7136L94.1303 90.3738C94.3882 89.8974 94.2467 89.3032 93.8017 88.9942C93.3148 88.6561 92.6455 88.7814 92.3138 89.2727L91.1787 90.9544C90.9487 91.295 90.4167 91.1323 90.4167 90.7213ZM85.0095 92.4931C85.2397 92.4929 85.426 92.3062 85.4259 92.0761C85.4257 91.846 85.239 91.6596 85.0088 91.6598C84.7787 91.66 84.5923 91.8467 84.5925 92.0768C84.5927 92.3069 84.7794 92.4933 85.0095 92.4931ZM87.0932 92.908C87.3233 92.9079 87.5097 92.7212 87.5095 92.491C87.5093 92.2609 87.3226 92.0745 87.0925 92.0747C86.8624 92.0749 86.676 92.2616 86.6762 92.4918C86.6764 92.7218 86.8631 92.9083 87.0932 92.908ZM86.2609 94.1588C86.2611 94.3889 86.0747 94.5755 85.8446 94.5758C85.6145 94.576 85.4277 94.3895 85.4276 94.1594C85.4274 93.9293 85.6137 93.7426 85.8439 93.7424C86.074 93.7422 86.2607 93.9286 86.2609 94.1588ZM87.9276 94.1574C88.1577 94.1572 88.3441 93.9705 88.3439 93.7404C88.3437 93.5103 88.157 93.3239 87.9269 93.324C87.6967 93.3243 87.5104 93.5109 87.5105 93.741C87.5107 93.9712 87.6975 94.1576 87.9276 94.1574ZM89.1786 95.4063C89.1788 95.6365 88.9924 95.8232 88.7622 95.8234C88.5321 95.8235 88.3455 95.6372 88.3453 95.407C88.3451 95.1769 88.5315 94.9902 88.7616 94.99C88.9917 94.9898 89.1784 95.1763 89.1786 95.4063ZM89.5939 93.7393C89.824 93.7392 90.0104 93.5525 90.0102 93.3223C90.01 93.0922 89.8233 92.9058 89.5932 92.906C89.3631 92.9062 89.1767 93.0929 89.1769 93.323C89.1771 93.5531 89.3637 93.7395 89.5939 93.7393ZM87.0956 95.8247C87.0958 96.0548 86.9094 96.2415 86.6792 96.2418C86.4492 96.2419 86.2625 96.0555 86.2622 95.8254C86.2621 95.5953 86.4485 95.4086 86.6786 95.4084C86.9087 95.4082 87.0954 95.5946 87.0956 95.8247ZM84.5956 95.8268C84.8257 95.8266 85.0121 95.6399 85.0119 95.4098C85.0118 95.1797 84.825 94.9933 84.5949 94.9935C84.3648 94.9936 84.1784 95.1803 84.1786 95.4105C84.1788 95.6406 84.3655 95.827 84.5956 95.8268ZM84.1772 93.7438C84.1774 93.9739 83.991 94.1606 83.7609 94.1608C83.5308 94.161 83.3441 93.9746 83.3439 93.7445C83.3437 93.5143 83.5301 93.3276 83.7602 93.3275C83.9903 93.3273 84.177 93.5137 84.1772 93.7438Z" fill="white"/>
<rect x="109.5" y="80" width="37" height="6" rx="3" fill="#C2C7D6"/>
<rect x="109.5" y="94" width="63" height="6" rx="3" fill="#F0F4FE"/>
</g>
<g filter="url(#filter2_dd_243_78585)">
<rect x="12.5" y="120" width="134" height="36" rx="8" fill="white"/>
<rect x="20.5" y="124" width="27" height="28" rx="13.5" fill="#C2C7D6"/>
<path fill-rule="evenodd" clip-rule="evenodd" d="M36.9167 138.721V131.75C36.9167 131.29 36.5436 130.917 36.0833 130.917C35.6231 130.917 35.25 131.29 35.25 131.75V137.583H34.4167V130.5C34.4167 130.04 34.0436 129.667 33.5833 129.667C33.1231 129.667 32.75 130.04 32.75 130.5V137.583H31.9167V131.75C31.9167 131.29 31.5436 130.917 31.0833 130.917C30.6231 130.917 30.25 131.29 30.25 131.75V138.463H29.4167V134.25C29.4167 133.79 29.0436 133.417 28.5833 133.417C28.1231 133.417 27.75 133.79 27.75 134.25V141.333C27.75 144.095 29.9886 146.333 32.75 146.333H33.3425C35.178 146.333 36.8658 145.328 37.7396 143.714L40.6303 138.374C40.8882 137.897 40.7467 137.303 40.3017 136.994C39.8148 136.656 39.1455 136.781 38.8138 137.273L37.6787 138.954C37.4487 139.295 36.9167 139.132 36.9167 138.721ZM31.5095 140.493C31.7397 140.493 31.926 140.306 31.9259 140.076C31.9257 139.846 31.739 139.66 31.5088 139.66C31.2787 139.66 31.0923 139.847 31.0925 140.077C31.0927 140.307 31.2794 140.493 31.5095 140.493ZM33.5932 140.908C33.8233 140.908 34.0097 140.721 34.0095 140.491C34.0093 140.261 33.8226 140.075 33.5925 140.075C33.3624 140.075 33.176 140.262 33.1762 140.492C33.1764 140.722 33.3631 140.908 33.5932 140.908ZM32.7609 142.159C32.7611 142.389 32.5747 142.576 32.3446 142.576C32.1145 142.576 31.9277 142.39 31.9276 142.159C31.9274 141.929 32.1137 141.743 32.3439 141.742C32.574 141.742 32.7607 141.929 32.7609 142.159ZM34.4276 142.157C34.6577 142.157 34.8441 141.971 34.8439 141.74C34.8437 141.51 34.657 141.324 34.4269 141.324C34.1967 141.324 34.0104 141.511 34.0105 141.741C34.0107 141.971 34.1975 142.158 34.4276 142.157ZM35.6786 143.406C35.6788 143.636 35.4924 143.823 35.2622 143.823C35.0321 143.824 34.8455 143.637 34.8453 143.407C34.8451 143.177 35.0315 142.99 35.2616 142.99C35.4917 142.99 35.6784 143.176 35.6786 143.406ZM36.0939 141.739C36.324 141.739 36.5104 141.552 36.5102 141.322C36.51 141.092 36.3233 140.906 36.0932 140.906C35.8631 140.906 35.6767 141.093 35.6769 141.323C35.6771 141.553 35.8637 141.74 36.0939 141.739ZM33.5956 143.825C33.5958 144.055 33.4094 144.242 33.1792 144.242C32.9492 144.242 32.7625 144.056 32.7622 143.825C32.7621 143.595 32.9485 143.409 33.1786 143.408C33.4087 143.408 33.5954 143.595 33.5956 143.825ZM31.0956 143.827C31.3257 143.827 31.5121 143.64 31.5119 143.41C31.5118 143.18 31.325 142.993 31.0949 142.993C30.8648 142.994 30.6784 143.18 30.6786 143.41C30.6788 143.641 30.8655 143.827 31.0956 143.827ZM30.6772 141.744C30.6774 141.974 30.491 142.161 30.2609 142.161C30.0308 142.161 29.8441 141.975 29.8439 141.744C29.8437 141.514 30.0301 141.328 30.2602 141.327C30.4903 141.327 30.677 141.514 30.6772 141.744Z" fill="white"/>
<rect x="55.5" y="128" width="37" height="6" rx="3" fill="#C2C7D6"/>
<rect x="55.5" y="142" width="63" height="6" rx="3" fill="#F0F4FE"/>
</g>
<defs>
<filter id="filter0_dd_243_78585" x="0.5" y="20" width="158" height="60" filterUnits="userSpaceOnUse" color-interpolation-filters="sRGB">
<feFlood flood-opacity="0" result="BackgroundImageFix"/>
<feColorMatrix in="SourceAlpha" type="matrix" values="0 0 0 0 0 0 0 0 0 0 0 0 0 0 0 0 0 0 127 0" result="hardAlpha"/>
<feOffset dy="8"/>
<feGaussianBlur stdDeviation="6"/>
<feColorMatrix type="matrix" values="0 0 0 0 0.180392 0 0 0 0 0.160784 0 0 0 0 0.305882 0 0 0 0.08 0"/>
<feBlend mode="normal" in2="BackgroundImageFix" result="effect1_dropShadow_243_78585"/>
<feColorMatrix in="SourceAlpha" type="matrix" values="0 0 0 0 0 0 0 0 0 0 0 0 0 0 0 0 0 0 127 0" result="hardAlpha"/>
<feOffset dy="1"/>
<feGaussianBlur stdDeviation="2"/>
<feColorMatrix type="matrix" values="0 0 0 0 0.180392 0 0 0 0 0.160784 0 0 0 0 0.305882 0 0 0 0.02 0"/>
<feBlend mode="normal" in2="effect1_dropShadow_243_78585" result="effect2_dropShadow_243_78585"/>
<feBlend mode="normal" in="SourceGraphic" in2="effect2_dropShadow_243_78585" result="shape"/>
</filter>
<filter id="filter1_dd_243_78585" x="53.5" y="68" width="158" height="60" filterUnits="userSpaceOnUse" color-interpolation-filters="sRGB">
<feFlood flood-opacity="0" result="BackgroundImageFix"/>
<feColorMatrix in="SourceAlpha" type="matrix" values="0 0 0 0 0 0 0 0 0 0 0 0 0 0 0 0 0 0 127 0" result="hardAlpha"/>
<feOffset dy="8"/>
<feGaussianBlur stdDeviation="6"/>
<feColorMatrix type="matrix" values="0 0 0 0 0.180392 0 0 0 0 0.160784 0 0 0 0 0.305882 0 0 0 0.08 0"/>
<feBlend mode="normal" in2="BackgroundImageFix" result="effect1_dropShadow_243_78585"/>
<feColorMatrix in="SourceAlpha" type="matrix" values="0 0 0 0 0 0 0 0 0 0 0 0 0 0 0 0 0 0 127 0" result="hardAlpha"/>
<feOffset dy="1"/>
<feGaussianBlur stdDeviation="2"/>
<feColorMatrix type="matrix" values="0 0 0 0 0.180392 0 0 0 0 0.160784 0 0 0 0 0.305882 0 0 0 0.02 0"/>
<feBlend mode="normal" in2="effect1_dropShadow_243_78585" result="effect2_dropShadow_243_78585"/>
<feBlend mode="normal" in="SourceGraphic" in2="effect2_dropShadow_243_78585" result="shape"/>
</filter>
<filter id="filter2_dd_243_78585" x="0.5" y="116" width="158" height="60" filterUnits="userSpaceOnUse" color-interpolation-filters="sRGB">
<feFlood flood-opacity="0" result="BackgroundImageFix"/>
<feColorMatrix in="SourceAlpha" type="matrix" values="0 0 0 0 0 0 0 0 0 0 0 0 0 0 0 0 0 0 127 0" result="hardAlpha"/>
<feOffset dy="8"/>
<feGaussianBlur stdDeviation="6"/>
<feColorMatrix type="matrix" values="0 0 0 0 0.180392 0 0 0 0 0.160784 0 0 0 0 0.305882 0 0 0 0.08 0"/>
<feBlend mode="normal" in2="BackgroundImageFix" result="effect1_dropShadow_243_78585"/>
<feColorMatrix in="SourceAlpha" type="matrix" values="0 0 0 0 0 0 0 0 0 0 0 0 0 0 0 0 0 0 127 0" result="hardAlpha"/>
<feOffset dy="1"/>
<feGaussianBlur stdDeviation="2"/>
<feColorMatrix type="matrix" values="0 0 0 0 0.180392 0 0 0 0 0.160784 0 0 0 0 0.305882 0 0 0 0.02 0"/>
<feBlend mode="normal" in2="effect1_dropShadow_243_78585" result="effect2_dropShadow_243_78585"/>
<feBlend mode="normal" in="SourceGraphic" in2="effect2_dropShadow_243_78585" result="shape"/>
</filter>
</defs>
</svg>
