<svg width="312" height="207" viewBox="0 0 312 207" fill="none" xmlns="http://www.w3.org/2000/svg">
<path d="M299.804 138.529C297.551 140.994 294.757 142.83 291.726 144.255H291.722C291.437 144.391 291.151 144.523 290.862 144.647H290.859L290.855 144.651L290.852 144.647H290.848C290.848 144.648 290.848 144.648 290.848 144.649C290.847 144.649 290.847 144.649 290.847 144.65C290.847 144.65 290.846 144.65 290.846 144.651C290.845 144.651 290.845 144.651 290.844 144.651H290.84L290.837 144.647C290.833 144.651 290.833 144.651 290.83 144.647L290.826 144.651L290.822 144.647H290.819C290.815 144.651 290.815 144.651 290.811 144.647H290.808C288.778 145.526 286.694 146.273 284.568 146.882C272.068 150.435 258.93 151.122 246.128 148.893C245.883 148.849 245.641 148.805 245.396 148.761V119.045C245.638 118.942 245.883 118.84 246.128 118.741C247.726 118.078 249.344 117.468 250.981 116.913C253.336 116.107 255.724 115.416 258.145 114.839C266.044 112.924 274.194 112.264 282.297 112.883C283.771 112.993 285.241 113.151 286.708 113.359C289.776 113.788 292.995 114.535 295.825 115.832H295.829C296.242 116.026 296.648 116.228 297.05 116.444C299.567 117.81 301.688 119.69 302.982 122.265C303.447 123.19 303.782 124.176 303.977 125.193V125.2C304.05 125.552 304.101 125.907 304.142 126.259C304.603 130.597 302.807 135.239 299.804 138.529Z" fill="#F2F2F2"/>
<path d="M304.142 126.259C304.106 126.268 304.069 126.273 304.032 126.274C297.767 126.548 291.511 126.956 285.263 127.497H285.252C285.227 127.501 285.205 127.501 285.179 127.505C278.765 128.061 272.363 128.759 265.975 129.597C265.705 129.633 265.438 129.67 265.171 129.703C260.753 130.293 256.344 130.947 251.943 131.667C250.001 131.985 248.063 132.317 246.128 132.663C245.883 132.707 245.641 132.747 245.396 132.795V131.685C245.641 131.637 245.886 131.597 246.128 131.553C252.572 130.41 259.038 129.412 265.526 128.56C267.157 128.34 268.79 128.132 270.426 127.937C275.151 127.365 279.884 126.872 284.623 126.457C284.971 126.427 285.315 126.398 285.662 126.369C291.729 125.852 297.805 125.46 303.889 125.193C303.919 125.191 303.948 125.194 303.977 125.2C304.562 125.251 304.687 126.131 304.142 126.259Z" fill="white"/>
<path d="M291.131 143.568C283.327 143.625 275.638 140.31 270.118 134.823C268.56 133.268 267.187 131.538 266.027 129.668C265.655 129.07 264.785 129.729 265.154 130.322C269.441 137.21 276.582 142.116 284.456 143.921C286.692 144.428 288.979 144.673 291.271 144.651C291.971 144.646 291.826 143.562 291.131 143.568V143.568Z" fill="white"/>
<path d="M258.145 114.839C258.112 114.942 258.052 115.035 257.972 115.107C257.892 115.18 257.794 115.23 257.688 115.253C255.9 115.723 254.172 116.399 252.539 117.268C250.155 118.53 247.99 120.169 246.128 122.123C246.029 122.222 245.934 122.321 245.843 122.423C245.689 122.584 245.543 122.749 245.396 122.918V121.32C245.631 121.071 245.876 120.826 246.128 120.591C247.598 119.181 249.227 117.947 250.981 116.913C253.336 116.107 255.724 115.416 258.145 114.839Z" fill="white"/>
<path d="M296.472 115.543C291.507 117.681 287.353 121.35 284.614 126.016C284.559 126.15 284.558 126.3 284.612 126.434C284.667 126.568 284.772 126.675 284.904 126.732C285.038 126.785 285.186 126.784 285.32 126.73C285.453 126.676 285.56 126.573 285.619 126.441C288.233 122.034 292.177 118.572 296.881 116.555C297.527 116.279 297.118 115.266 296.472 115.543L296.472 115.543Z" fill="white"/>
<path d="M311.438 84.4269C310.589 87.6583 308.962 90.5856 306.94 93.2565L306.936 93.2601C306.749 93.5093 306.555 93.7621 306.354 94.0039V94.0075C304.95 95.7405 303.434 97.3792 301.816 98.9133C295.998 104.467 289.427 109.17 282.297 112.883C271.081 118.752 258.544 122.222 246.128 122.42C246.033 122.423 245.938 122.423 245.843 122.423C245.693 122.427 245.543 122.427 245.396 122.427V105.775C245.634 105.321 245.879 104.867 246.128 104.416C249.355 98.5999 253.289 93.2072 257.842 88.3618C257.952 88.2409 258.065 88.12 258.178 88.0027C259.89 86.1928 261.684 84.4697 263.562 82.8332C270.784 76.4716 279.131 71.5198 288.171 68.2333C291.086 67.1855 294.282 66.3465 297.391 66.1816C297.848 66.156 298.301 66.145 298.758 66.1486C301.622 66.1889 304.368 66.8667 306.713 68.5447C307.552 69.1487 308.305 69.8649 308.951 70.6733C309.178 70.9554 309.386 71.2449 309.587 71.5416V71.5453C312.008 75.1724 312.572 80.1147 311.438 84.4269Z" fill="#F2F2F2"/>
<path d="M309.587 71.5413V71.545C309.56 71.5686 309.531 71.5895 309.5 71.6073C304.087 74.7617 298.742 78.031 293.466 81.415C293.459 81.4187 293.455 81.4224 293.448 81.426C293.427 81.4408 293.405 81.4542 293.382 81.4663C287.959 84.9469 282.612 88.5446 277.342 92.2596C277.122 92.4135 276.899 92.5711 276.676 92.7286C273.037 95.3042 269.436 97.9347 265.873 100.62C259.144 105.698 252.562 110.964 246.128 116.418C245.883 116.623 245.641 116.832 245.396 117.041V115.616C245.638 115.407 245.883 115.198 246.128 114.993C248.593 112.908 251.08 110.853 253.589 108.827C254.338 108.222 255.092 107.618 255.845 107.021C262.538 101.683 269.38 96.5437 276.373 91.6038H276.376C277.752 90.6329 279.129 89.6706 280.509 88.7168C284.429 86.013 288.394 83.3739 292.402 80.7995C292.691 80.6127 292.984 80.4258 293.276 80.239C298.407 76.9563 303.605 73.7811 308.87 70.7133C308.896 70.6977 308.923 70.6842 308.951 70.673C309.5 70.4532 310.015 71.1786 309.587 71.5413Z" fill="white"/>
<path d="M306.095 92.9241C299.21 96.6068 290.864 97.2489 283.431 94.9584C281.331 94.3069 279.313 93.4137 277.419 92.2969C276.812 91.9407 276.347 92.9295 276.948 93.2827C283.939 97.3874 292.538 98.4093 300.347 96.3431C302.562 95.752 304.701 94.9048 306.721 93.8184C307.339 93.4882 306.708 92.5961 306.095 92.9241V92.9241Z" fill="white"/>
<path d="M254.583 106.329C254.243 104.411 254.126 102.46 254.235 100.515C254.481 96.0794 255.837 91.7769 258.178 88.0033C259.891 86.1941 261.686 84.4706 263.562 82.833C263.58 82.9401 263.57 83.05 263.532 83.1518C263.494 83.2536 263.431 83.3439 263.348 83.4136C261.983 84.6619 260.766 86.0644 259.723 87.5931C255.997 93.0411 254.542 99.7317 255.67 106.239C255.688 106.312 255.687 106.39 255.667 106.463C255.647 106.536 255.609 106.603 255.555 106.657C255.477 106.726 255.382 106.772 255.281 106.792C255.179 106.812 255.074 106.806 254.975 106.773C254.877 106.739 254.789 106.681 254.72 106.603C254.652 106.525 254.604 106.431 254.583 106.329Z" fill="white"/>
<path d="M297.828 65.6217C294.423 69.8248 292.445 75.007 292.184 80.4139C292.196 80.5579 292.265 80.6911 292.376 80.7845C292.486 80.8779 292.628 80.9241 292.772 80.9129C292.915 80.8976 293.046 80.8278 293.139 80.718C293.232 80.6082 293.279 80.4668 293.27 80.3232C293.542 75.2038 295.429 70.3029 298.66 66.3274C299.104 65.7823 298.272 65.0755 297.828 65.6217Z" fill="white"/>
<path d="M259.956 77.6596V77.6633C259.93 77.9784 259.901 78.2898 259.868 78.6012V78.6085C259.614 80.8253 259.217 83.0232 258.679 85.1886C258.423 86.2511 258.145 87.3062 257.842 88.3614C257.805 88.4969 257.765 88.6325 257.725 88.7644V88.768C256.832 91.8368 255.764 94.852 254.529 97.7991C252.254 103.225 249.44 108.407 246.128 113.267C245.89 113.623 245.645 113.978 245.396 114.33V56.956C245.641 56.9413 245.883 56.9413 246.128 56.9487C246.245 56.9487 246.362 56.9523 246.479 56.9597C247.511 57.014 248.53 57.2125 249.507 57.5495C249.851 57.6631 250.184 57.7913 250.513 57.9342C254.503 59.6855 257.637 63.547 258.998 67.7933C260.018 70.9734 260.223 74.3183 259.956 77.6596Z" fill="#F2F2F2"/>
<path d="M250.513 57.9346C250.504 57.9705 250.491 58.0051 250.473 58.0372C248.992 60.9206 247.543 63.8186 246.128 66.7312C245.883 67.2331 245.638 67.7387 245.396 68.2407V65.7493C245.638 65.251 245.882 64.7528 246.128 64.2545C247.222 62.0343 248.333 59.8239 249.463 57.6232C249.476 57.5975 249.49 57.573 249.507 57.5499C249.844 57.0663 250.677 57.396 250.513 57.9346Z" fill="white"/>
<path d="M260.073 78.2496C260.007 78.3668 259.941 78.484 259.868 78.6013C258.794 80.4761 257.516 82.2258 256.057 83.8184C253.255 86.8637 249.881 89.3251 246.128 91.0616C245.886 91.1788 245.641 91.2888 245.396 91.3913V90.2006C245.641 90.0907 245.886 89.9771 246.128 89.8599C251.561 87.2639 256.073 83.069 259.063 77.8356C259.107 77.7609 259.165 77.6963 259.235 77.6463C259.306 77.5962 259.386 77.5619 259.47 77.5455C259.555 77.5292 259.642 77.5313 259.726 77.5516C259.81 77.572 259.888 77.6101 259.956 77.6634C260.002 77.6942 260.041 77.7337 260.072 77.7799C260.103 77.826 260.125 77.8777 260.136 77.9322C260.146 77.9866 260.146 78.0427 260.136 78.0972C260.125 78.1516 260.103 78.2034 260.073 78.2496Z" fill="white"/>
<path d="M246.128 12.0903V39.9345H245.396V39.6378H0.731435V39.9345H0V12.0903C0.00314092 8.88469 1.27567 5.81131 3.5383 3.54463C5.80094 1.27795 8.86883 0.00314654 12.0687 0H234.059C237.259 0.00314654 240.327 1.27795 242.59 3.54463C244.852 5.81131 246.125 8.88469 246.128 12.0903Z" fill="#080056"/>
<path d="M234.059 0H12.0687C8.86883 0.00314654 5.80094 1.27795 3.5383 3.54463C1.27567 5.81131 0.00314092 8.88469 0 12.0903V171.096C0.00314092 174.301 1.27567 177.375 3.5383 179.641C5.80094 181.908 8.86883 183.183 12.0687 183.186H234.059C237.259 183.183 240.327 181.908 242.59 179.641C244.852 177.375 246.125 174.301 246.128 171.096V12.0903C246.125 8.88469 244.852 5.81131 242.59 3.54463C240.327 1.27795 237.259 0.00314654 234.059 0ZM245.396 171.096C245.393 174.107 244.197 176.993 242.072 179.122C239.946 181.251 237.065 182.449 234.059 182.453H12.0687C9.06303 182.449 6.18158 181.251 4.05627 179.122C1.93095 176.993 0.73527 174.107 0.731435 171.096V12.0903C0.73527 9.07924 1.93095 6.19265 4.05627 4.06353C6.18158 1.93441 9.06303 0.736585 12.0687 0.732743H234.059C237.065 0.736586 239.946 1.93441 242.072 4.06353C244.197 6.19265 245.393 9.07924 245.396 12.0903V171.096Z" fill="#3F3D56"/>
<path d="M49.7382 27.2945C53.7778 27.2945 57.0525 24.0139 57.0525 19.9671C57.0525 15.9203 53.7778 12.6396 49.7382 12.6396C45.6986 12.6396 42.4238 15.9203 42.4238 19.9671C42.4238 24.0139 45.6986 27.2945 49.7382 27.2945Z" fill="white"/>
<path d="M196.391 27.2945C200.43 27.2945 203.705 24.0139 203.705 19.9671C203.705 15.9203 200.43 12.6396 196.391 12.6396C192.351 12.6396 189.076 15.9203 189.076 19.9671C189.076 24.0139 192.351 27.2945 196.391 27.2945Z" fill="white"/>
<path d="M70.8708 101.669H27.3591C25.5157 101.667 23.7484 100.932 22.445 99.6264C21.1415 98.3206 20.4083 96.5502 20.4062 94.7035V74.1015C20.4083 72.2548 21.1415 70.4844 22.445 69.1786C23.7484 67.8728 25.5157 67.1383 27.3591 67.1362H70.8708C72.7141 67.1383 74.4814 67.8728 75.7848 69.1786C77.0883 70.4844 77.8215 72.2548 77.8236 74.1015V94.7035C77.8215 96.5502 77.0883 98.3206 75.7848 99.6264C74.4814 100.932 72.7141 101.667 70.8708 101.669Z" fill="#080056"/>
<path d="M144.89 101.669H101.379C99.5352 101.667 97.768 100.932 96.4645 99.6264C95.1611 98.3206 94.4279 96.5502 94.4258 94.7035V74.1015C94.4279 72.2548 95.1611 70.4844 96.4645 69.1786C97.768 67.8728 99.5352 67.1383 101.379 67.1362H144.89C146.734 67.1383 148.501 67.8728 149.804 69.1786C151.108 70.4844 151.841 72.2548 151.843 74.1015V94.7035C151.841 96.5502 151.108 98.3206 149.804 99.6264C148.501 100.932 146.734 101.667 144.89 101.669Z" fill="#080056"/>
<path d="M144.892 154.9H101.38C99.4811 154.898 97.6603 154.141 96.3173 152.795C94.9743 151.45 94.2189 149.626 94.2168 147.723V127.121C94.2189 125.219 94.9743 123.394 96.3173 122.049C97.6603 120.704 99.4811 119.947 101.38 119.945H144.892C146.791 119.947 148.612 120.704 149.955 122.049C151.298 123.394 152.053 125.219 152.055 127.121V147.723C152.053 149.626 151.298 151.45 149.955 152.795C148.612 154.141 146.791 154.898 144.892 154.9Z" fill="#F2F2F2"/>
<path d="M70.7279 154.9H27.2162C25.317 154.898 23.4962 154.141 22.1532 152.795C20.8103 151.45 20.0549 149.626 20.0527 147.723V127.121C20.0549 125.219 20.8103 123.394 22.1532 122.049C23.4962 120.704 25.317 119.947 27.2162 119.945H70.7279C72.6271 119.947 74.448 120.704 75.7909 122.049C77.1339 123.394 77.8893 125.219 77.8914 127.121V147.723C77.8893 149.626 77.1339 151.45 75.7909 152.795C74.448 154.141 72.6271 154.898 70.7279 154.9Z" fill="#F2F2F2"/>
<path d="M218.912 154.9H175.4C173.501 154.898 171.68 154.141 170.337 152.795C168.994 151.45 168.238 149.626 168.236 147.723V127.121C168.238 125.219 168.994 123.394 170.337 122.049C171.68 120.704 173.501 119.947 175.4 119.945H218.912C220.811 119.947 222.632 120.704 223.975 122.049C225.317 123.394 226.073 125.219 226.075 127.121V147.723C226.073 149.626 225.317 151.45 223.975 152.795C222.632 154.141 220.811 154.898 218.912 154.9Z" fill="#F2F2F2"/>
<path d="M218.912 101.71H175.4C173.501 101.708 171.68 100.951 170.337 99.606C168.994 98.2607 168.238 96.4366 168.236 94.534V73.9317C168.238 72.0291 168.994 70.205 170.337 68.8596C171.68 67.5143 173.501 66.7575 175.4 66.7554H218.912C220.811 66.7575 222.632 67.5143 223.975 68.8596C225.317 70.205 226.073 72.0291 226.075 73.9317V94.5339C226.073 96.4366 225.317 98.2607 223.975 99.606C222.632 100.951 220.811 101.708 218.912 101.71Z" fill="#F2F2F2"/>
<path d="M49.1151 96.2221C55.6314 96.2221 60.9138 90.9302 60.9138 84.4023C60.9138 77.8744 55.6314 72.5825 49.1151 72.5825C42.5989 72.5825 37.3164 77.8744 37.3164 84.4023C37.3164 90.9302 42.5989 96.2221 49.1151 96.2221Z" fill="white"/>
<path d="M47.9453 88.9117C47.6798 88.9122 47.4214 88.8262 47.209 88.6667L47.1959 88.6568L44.4231 86.5301C44.2945 86.4316 44.1865 86.3087 44.1054 86.1684C44.0242 86.028 43.9715 85.8731 43.9502 85.7123C43.9289 85.5516 43.9394 85.3882 43.9811 85.2315C44.0229 85.0748 44.095 84.9279 44.1935 84.7992C44.2919 84.6705 44.4147 84.5624 44.5549 84.4813C44.6951 84.4002 44.8498 84.3475 45.0103 84.3263C45.1708 84.3051 45.3339 84.3158 45.4902 84.3577C45.6466 84.3997 45.7931 84.4722 45.9215 84.5709L47.7175 85.9505L51.9618 80.4055C52.0602 80.2769 52.1829 80.169 52.323 80.0879C52.4631 80.0068 52.6177 79.9542 52.7781 79.933C52.9385 79.9118 53.1015 79.9224 53.2578 79.9643C53.414 80.0062 53.5605 80.0785 53.6889 80.1771L53.6625 80.213L53.6896 80.1777C53.9485 80.377 54.118 80.6712 54.1607 80.9956C54.2035 81.3199 54.116 81.6481 53.9176 81.9079L48.9254 88.4301C48.8099 88.5804 48.6614 88.7021 48.4915 88.7856C48.3215 88.8691 48.1346 88.9123 47.9453 88.9117Z" fill="#080056"/>
<path d="M123.346 96.0527C129.862 96.0527 135.144 90.7608 135.144 84.2329C135.144 77.705 129.862 72.4131 123.346 72.4131C116.829 72.4131 111.547 77.705 111.547 84.2329C111.547 90.7608 116.829 96.0527 123.346 96.0527Z" fill="white"/>
<path d="M122.177 88.7418C121.911 88.7423 121.653 88.6563 121.44 88.4968L121.427 88.4869L118.655 86.3602C118.395 86.1611 118.225 85.867 118.183 85.5425C118.14 85.2181 118.227 84.8898 118.426 84.63C118.625 84.3702 118.918 84.2001 119.242 84.1572C119.566 84.1142 119.894 84.2019 120.153 84.401L121.949 85.7806L126.193 80.2356C126.292 80.107 126.414 79.9991 126.554 79.918C126.695 79.8369 126.849 79.7843 127.01 79.7631C127.17 79.7418 127.333 79.7525 127.489 79.7944C127.646 79.8363 127.792 79.9086 127.92 80.0072L127.894 80.0431L127.921 80.0077C128.18 80.2071 128.349 80.5013 128.392 80.8256C128.435 81.15 128.347 81.4781 128.149 81.738L123.157 88.2602C123.041 88.4105 122.893 88.5322 122.723 88.6157C122.553 88.6992 122.366 88.7424 122.177 88.7418Z" fill="#080056"/>
<path d="M203.088 140.009C203.475 139.584 203.765 139.08 203.937 138.531C204.109 137.982 204.159 137.401 204.082 136.831C204.006 136.261 203.806 135.714 203.497 135.23C203.187 134.745 202.775 134.335 202.289 134.027L195.702 98.792L187.691 101.768L196.685 135.467C196.223 136.318 196.089 137.309 196.308 138.253C196.527 139.196 197.083 140.027 197.873 140.587C198.662 141.147 199.629 141.397 200.59 141.29C201.551 141.184 202.44 140.728 203.088 140.009Z" fill="#A0616A"/>
<path d="M139.166 86.2442C139.186 86.463 139.189 86.683 139.174 86.9022L154.75 98.9117L159.167 97.0947L162.775 103.414L155.268 107.392C154.662 107.714 153.967 107.829 153.29 107.722C152.612 107.614 151.987 107.289 151.51 106.796L135.941 90.7162C135.117 90.9024 134.255 90.8328 133.472 90.5168C132.688 90.2007 132.019 89.6531 131.554 88.9468C131.088 88.2405 130.848 87.4089 130.866 86.5628C130.884 85.7166 131.158 84.896 131.653 84.2099C132.148 83.5239 132.84 83.005 133.636 82.7223C134.432 82.4396 135.295 82.4065 136.111 82.6273C136.927 82.8481 137.656 83.3125 138.201 83.9586C138.747 84.6046 139.084 85.4019 139.166 86.2442H139.166Z" fill="#A0616A"/>
<path d="M175.554 202.548H171.071L168.938 188.887L175.555 188.887L175.554 202.548Z" fill="#A0616A"/>
<path d="M176.697 206.902L162.24 206.902V206.719C162.24 205.978 162.386 205.245 162.669 204.561C162.951 203.877 163.366 203.256 163.888 202.733C164.411 202.209 165.031 201.794 165.714 201.511C166.397 201.227 167.128 201.082 167.867 201.082H167.868L176.698 201.082L176.697 206.902Z" fill="#2F2E41"/>
<path d="M192.378 202.548H187.895L185.762 188.887L192.379 188.887L192.378 202.548Z" fill="#A0616A"/>
<path d="M193.521 206.902L179.064 206.902V206.719C179.064 205.978 179.21 205.245 179.493 204.561C179.776 203.877 180.19 203.256 180.713 202.733C181.235 202.209 181.855 201.794 182.538 201.511C183.221 201.227 183.953 201.082 184.692 201.082H184.692L193.522 201.082L193.521 206.902Z" fill="#2F2E41"/>
<path d="M170.139 199.848C169.73 199.848 169.335 199.696 169.033 199.42C168.73 199.144 168.541 198.764 168.503 198.356L164.596 145.712L164.78 145.697L191.668 143.483L191.676 143.675L193.813 198.209C193.821 198.431 193.785 198.652 193.706 198.859C193.627 199.066 193.507 199.255 193.354 199.415C193.2 199.575 193.016 199.702 192.812 199.788C192.609 199.875 192.39 199.92 192.168 199.92H186.896C186.503 199.922 186.122 199.781 185.823 199.525C185.524 199.268 185.328 198.912 185.27 198.522L178.11 154.467C178.103 154.422 178.08 154.381 178.044 154.352C178.008 154.323 177.962 154.309 177.916 154.313C177.871 154.316 177.828 154.336 177.796 154.37C177.765 154.404 177.747 154.448 177.747 154.494L177.422 197.991C177.419 198.411 177.256 198.814 176.966 199.118C176.676 199.421 176.282 199.603 175.863 199.626L170.228 199.846C170.198 199.847 170.169 199.848 170.139 199.848Z" fill="#2F2E41"/>
<path d="M174.73 79.182C179.691 79.182 183.713 75.1532 183.713 70.1835C183.713 65.2138 179.691 61.1851 174.73 61.1851C169.77 61.1851 165.748 65.2138 165.748 70.1835C165.748 75.1532 169.77 79.182 174.73 79.182Z" fill="#A0616A"/>
<path d="M176.468 149.07C172.542 149.058 168.635 148.523 164.85 147.479C164.485 147.373 164.169 147.144 163.953 146.831C163.738 146.519 163.636 146.141 163.666 145.762C164.876 127.556 165.16 113.427 162.617 103.652C161.533 99.4852 162.025 95.0972 163.967 91.6127C166.889 86.3689 172.26 83.1772 177.989 83.2874C178.262 83.2926 178.539 83.3024 178.818 83.3168C187.512 83.7653 194.287 91.6446 193.92 100.881L192.171 144.908C192.165 145.229 192.064 145.541 191.88 145.805C191.697 146.068 191.44 146.272 191.142 146.389C186.45 148.157 181.48 149.065 176.468 149.07Z" fill="#3F3D56"/>
<path d="M164.095 107.032L157.367 98.7726C157.176 98.5376 157.037 98.264 156.961 97.9705C156.884 97.677 156.872 97.3704 156.925 97.0717C156.977 96.773 157.093 96.4891 157.265 96.2394C157.437 95.9897 157.661 95.7801 157.921 95.6248L167.035 90.1842C168.241 89.2096 169.783 88.7537 171.324 88.9167C172.865 89.0796 174.278 89.8481 175.254 91.0534C176.23 92.2588 176.689 93.8028 176.531 95.3467C176.372 96.8906 175.609 98.3085 174.408 99.2895L167.285 107.12C167.081 107.344 166.831 107.522 166.552 107.64C166.274 107.759 165.973 107.816 165.67 107.808C165.367 107.799 165.07 107.726 164.798 107.592C164.527 107.458 164.287 107.267 164.095 107.032Z" fill="#3F3D56"/>
<path d="M185.262 105.996C184.986 105.872 184.74 105.69 184.54 105.462C184.34 105.234 184.192 104.965 184.105 104.675L181.076 94.5242C180.419 93.1186 180.345 91.5092 180.87 90.0489C181.395 88.5886 182.477 87.3967 183.879 86.7345C185.28 86.0723 186.887 85.994 188.346 86.5167C189.805 87.0393 190.997 88.1204 191.662 89.5226L197.519 98.3846C197.686 98.6375 197.797 98.9235 197.844 99.2232C197.891 99.5229 197.872 99.8292 197.791 100.121C197.709 100.413 197.565 100.684 197.369 100.915C197.173 101.147 196.93 101.333 196.655 101.462L187.017 105.981C186.743 106.11 186.444 106.178 186.141 106.18C185.839 106.183 185.539 106.12 185.262 105.996Z" fill="#3F3D56"/>
<path d="M179.169 77.5672L172.51 76.0405C171.824 75.883 170.998 75.5825 170.903 74.8832C170.775 73.9434 172.125 73.2887 172.001 72.3484C171.88 71.4377 170.65 71.3204 169.773 71.0515C168.957 70.7645 168.283 70.1705 167.896 69.395C167.509 68.6196 167.438 67.7236 167.699 66.8968C166.75 68.2362 164.582 68.351 163.352 67.2658C162.121 66.1806 161.885 64.2116 162.624 62.7455C163.023 62.0254 163.587 61.4099 164.268 60.9489C164.95 60.488 165.73 60.1947 166.546 60.0928C168.187 59.9065 169.845 60.2163 171.309 60.9823C171.406 59.9443 172.7 59.5234 173.741 59.5142C175.903 59.5394 178.003 60.2392 179.75 61.5161C181.496 62.7931 182.802 64.5837 183.485 66.6387C184.762 70.7612 183.908 75.2801 180.334 77.6921L179.169 77.5672Z" fill="#2F2E41"/>
<path d="M246.233 207H106.895C106.798 207 106.705 206.961 106.636 206.893C106.568 206.824 106.529 206.731 106.529 206.633C106.529 206.536 106.568 206.443 106.636 206.374C106.705 206.306 106.798 206.267 106.895 206.267H246.233C246.33 206.267 246.423 206.306 246.492 206.374C246.561 206.443 246.599 206.536 246.599 206.633C246.599 206.731 246.561 206.824 246.492 206.893C246.423 206.961 246.33 207 246.233 207Z" fill="#3F3D56"/>
</svg>
