<svg width="53" height="44" viewBox="0 0 53 44" fill="none" xmlns="http://www.w3.org/2000/svg">
<rect x="1" y="0.5" width="51" height="43" rx="3.5" fill="#080056"/>
<g clip-path="url(#clip0_352_86571)">
<path d="M26.5 12C25.1868 12 23.8864 12.2587 22.6732 12.7612C21.4599 13.2638 20.3575 14.0003 19.4289 14.9289C17.5536 16.8043 16.5 19.3478 16.5 22C16.5 24.6522 17.5536 27.1957 19.4289 29.0711C20.3575 29.9997 21.4599 30.7362 22.6732 31.2388C23.8864 31.7413 25.1868 32 26.5 32C29.1522 32 31.6957 30.9464 33.5711 29.0711C35.4464 27.1957 36.5 24.6522 36.5 22H34.5C34.5 24.1217 33.6571 26.1566 32.1569 27.6569C30.6566 29.1571 28.6217 30 26.5 30C24.3783 30 22.3434 29.1571 20.8431 27.6569C19.3429 26.1566 18.5 24.1217 18.5 22C18.5 19.8783 19.3429 17.8434 20.8431 16.3431C22.3434 14.8429 24.3783 14 26.5 14V12ZM33.28 13C33.1 13.0015 32.9278 13.0733 32.8 13.2L31.58 14.41L34.08 16.91L35.3 15.7C35.56 15.44 35.56 15 35.3 14.75L33.75 13.2C33.62 13.07 33.45 13 33.28 13ZM30.87 15.12L23.5 22.5V25H26L33.37 17.62L30.87 15.12Z" fill="white"/>
</g>
<rect x="1" y="0.5" width="51" height="43" rx="3.5" stroke="#C5C4D4"/>
<defs>
<clipPath id="clip0_352_86571">
<path d="M16.5 16C16.5 13.7909 18.2909 12 20.5 12H32.5C34.7091 12 36.5 13.7909 36.5 16V28C36.5 30.2091 34.7091 32 32.5 32H20.5C18.2909 32 16.5 30.2091 16.5 28V16Z" fill="white"/>
</clipPath>
</defs>
</svg>
