<svg width="20" height="20" viewBox="0 0 20 20" fill="none" xmlns="http://www.w3.org/2000/svg">
<rect width="20" height="20" rx="4" fill="#F0F4FE"/>
<path d="M10 9.57143C9.43168 9.57143 8.88663 9.34567 8.48477 8.9438C8.08291 8.54194 7.85714 7.99689 7.85714 7.42857C7.85714 6.86025 8.08291 6.31521 8.48477 5.91334C8.88663 5.51148 9.43168 5.28572 10 5.28572C10.5683 5.28572 11.1134 5.51148 11.5152 5.91334C11.9171 6.31521 12.1429 6.86025 12.1429 7.42857C12.1429 7.70998 12.0874 7.98863 11.9797 8.24861C11.8721 8.50859 11.7142 8.74482 11.5152 8.9438C11.3162 9.14278 11.08 9.30063 10.82 9.40832C10.5601 9.516 10.2814 9.57143 10 9.57143ZM10 1.42857C8.4087 1.42857 6.88258 2.06071 5.75736 3.18593C4.63214 4.31115 4 5.83727 4 7.42857C4 11.9286 10 18.5714 10 18.5714C10 18.5714 16 11.9286 16 7.42857C16 5.83727 15.3679 4.31115 14.2426 3.18593C13.1174 2.06071 11.5913 1.42857 10 1.42857Z" fill="#114FF5"/>
</svg>
