<svg width="110" height="110" viewBox="0 0 110 110" fill="none" xmlns="http://www.w3.org/2000/svg">
<path d="M93.882 16.1174C72.3937 -5.37139 37.6097 -5.37482 16.1179 16.1174C-5.37103 37.6061 -5.37425 72.3897 16.1179 93.8817C37.6062 115.37 72.3903 115.374 93.882 93.8817C115.371 72.3929 115.374 37.6093 93.882 16.1174ZM91.5838 86.0433C89.0146 83.7459 86.2664 81.7127 83.3697 79.9606C85.2843 73.3469 86.4186 66.069 86.6868 58.5037H102.853C102.122 68.701 98.2042 78.2669 91.5838 86.0433ZM7.1465 58.5037H23.313C23.5811 66.069 24.7154 73.3469 26.63 79.9606C23.7333 81.7127 20.9851 83.7459 18.416 86.0433C11.7956 78.2669 7.87766 68.701 7.1465 58.5037ZM18.4162 23.9558C20.9853 26.2531 23.7335 28.2863 26.6302 30.0384C24.7156 36.6521 23.5813 43.93 23.3132 51.4954H7.1465C7.87766 41.2982 11.7956 31.7323 18.4162 23.9558ZM51.4959 30.7627C45.781 30.354 40.2707 28.9464 35.1622 26.6243C38.1333 18.9737 43.6103 9.79773 51.4959 7.52375V30.7627ZM51.4959 37.7841V51.4956H30.3243C30.5668 45.0959 31.4736 38.9506 32.9816 33.3278C38.7869 35.8656 45.0303 37.3811 51.4959 37.7841ZM51.4959 58.5037V72.2152C45.0303 72.6181 38.7869 74.1337 32.9816 76.6715C31.4736 71.0487 30.5668 64.9034 30.3243 58.5037H51.4959ZM51.4959 79.2365V102.475C43.6107 100.201 38.1337 91.0264 35.1622 83.3749C40.2707 81.0528 45.781 79.6453 51.4959 79.2365ZM58.504 79.2365C64.2189 79.6453 69.7292 81.0528 74.8377 83.3749C71.8665 91.0257 66.3896 100.201 58.504 102.475V79.2365ZM58.504 72.2152V58.5037H79.6757C79.4331 64.9034 78.5264 71.0487 77.0183 76.6715C71.213 74.1337 64.9696 72.6181 58.504 72.2152ZM58.504 51.4956V37.7841C64.9696 37.3811 71.213 35.8656 77.0183 33.3278C78.5264 38.9506 79.4331 45.0959 79.6757 51.4956H58.504ZM58.504 30.7627V7.52396C66.3896 9.79795 71.8667 18.974 74.8377 26.6245C69.7292 28.9464 64.2189 30.354 58.504 30.7627ZM74.2435 11.0224C78.729 12.9866 82.9137 15.65 86.6651 18.9546C84.8795 20.529 82.9953 21.9566 81.0279 23.2332C79.2807 18.9072 77.0488 14.7031 74.2435 11.0224ZM28.9718 23.2332C27.0044 21.9566 25.1205 20.529 23.3347 18.9546C27.086 15.65 31.2707 12.9866 35.7562 11.0224C32.9509 14.7036 30.719 18.9076 28.9718 23.2332ZM28.9721 86.766C30.719 91.0918 32.9514 95.2961 35.7564 98.9768C31.2709 97.0126 27.0862 94.3492 23.3349 91.0446C25.1205 89.4702 27.0046 88.0427 28.9721 86.766ZM81.0279 86.766C82.9953 88.0427 84.8795 89.4702 86.6651 91.0444C82.9137 94.349 78.729 97.0124 74.2435 98.9766C77.0486 95.2963 79.2807 91.092 81.0279 86.766ZM86.687 51.4956C86.4189 43.9302 85.2845 36.6521 83.3699 30.0386C86.2667 28.2865 89.0146 26.2534 91.584 23.956C98.2044 31.7323 102.122 41.2982 102.853 51.4956H86.687Z" fill="#080056"/>
</svg>
