<svg width="227" height="158" viewBox="0 0 227 158" fill="none" xmlns="http://www.w3.org/2000/svg">
<g clip-path="url(#clip0)">
<path d="M189.667 24.2949L172.155 24.4655C171.332 20.4135 168.567 9.78197 171.057 6.8821C171.171 5.79066 171.701 4.78506 172.537 4.07463C173.374 3.36419 174.452 3.00367 175.547 3.06811C178.261 -1.18025 182.782 -0.542383 185.838 2.1109C188.913 3.17191 190.072 5.05687 189.667 7.61483C191.944 9.60815 192.364 12.0333 191.342 14.7939L189.667 24.2949Z" fill="#2F2E41"/>
<path d="M187.981 35.0819L175.347 33.3327L172.82 29.6399C176.301 27.3312 177.533 24.1065 175.93 19.7276L184.677 19.5332C184.267 23.4327 185.557 26.452 189.147 28.2794L187.981 35.0819Z" fill="#FFB9B9"/>
<path d="M172.36 149.031L171.877 155.635C171.855 155.934 171.898 156.234 172.001 156.515C172.105 156.797 172.267 157.052 172.478 157.266C172.689 157.479 172.942 157.645 173.222 157.752C173.502 157.859 173.802 157.905 174.101 157.887L177.493 157.681C177.65 157.672 177.804 157.628 177.942 157.552C178.08 157.477 178.2 157.372 178.293 157.245C178.386 157.118 178.45 156.972 178.481 156.818C178.511 156.663 178.507 156.504 178.469 156.351L176.586 148.82L172.36 149.031Z" fill="#E6E6E6"/>
<path d="M183.342 148.82L181.459 156.351C181.421 156.504 181.417 156.663 181.447 156.818C181.478 156.972 181.542 157.118 181.635 157.245C181.728 157.372 181.848 157.477 181.986 157.552C182.124 157.628 182.277 157.672 182.435 157.681L185.827 157.887C186.126 157.905 186.426 157.859 186.705 157.752C186.985 157.645 187.239 157.479 187.45 157.266C187.66 157.052 187.823 156.797 187.927 156.515C188.03 156.234 188.073 155.934 188.051 155.635L187.568 149.031L183.342 148.82Z" fill="#E6E6E6"/>
<path d="M187.787 149.948L183.209 149.489L178.652 100.775L176.929 149.332L172.432 149.171L164.852 81.9224H193.812L187.787 149.948Z" fill="#080056"/>
<path d="M180.789 22.837C185.62 22.837 189.536 18.9213 189.536 14.0909C189.536 9.26051 185.62 5.34473 180.789 5.34473C175.959 5.34473 172.043 9.26051 172.043 14.0909C172.043 18.9213 175.959 22.837 180.789 22.837Z" fill="#FFB9B9"/>
<path d="M198.088 83.4773L162.713 83.866C167.963 63.8814 171.104 45.3175 165.629 32.5552L174.375 28.2793C178.593 32.678 183.29 32.2245 188.37 27.8906L196.728 30.0286C195.296 46.7643 195.938 64.6883 198.088 83.4773Z" fill="#080056"/>
<path d="M152.995 62.8754L174.959 71.6215L179.869 73.0657C180.089 73.1303 180.319 73.1499 180.547 73.1232C180.774 73.0965 180.994 73.0241 181.192 72.9103C181.391 72.7966 181.565 72.6439 181.703 72.4614C181.841 72.2788 181.941 72.0702 181.996 71.8481C182.094 71.4587 182.05 71.0474 181.873 70.6871C181.696 70.3268 181.397 70.0409 181.029 69.88L175.93 68.3174L160.575 59.3769L163.783 50.9223L157.077 47.3267L152.995 62.8754Z" fill="#FFB9B9"/>
<path d="M153.189 46.9377C157.368 48.5679 160.692 51.3501 163.297 55.1008L171.46 43.2449L165.629 32.5552L153.189 46.9377Z" fill="#080056"/>
<path d="M190.647 12.6736C187.097 11.7589 183.607 11.6333 180.214 12.7935C178.053 13.8402 175.457 13.7437 172.571 12.8813V4.15527L188.154 4.5708L190.647 12.6736Z" fill="#2F2E41"/>
<path d="M174.885 52.6846C174.199 52.6853 173.54 52.9585 173.055 53.4441C172.569 53.9298 172.296 54.5882 172.295 55.275L173.317 76.6786C173.318 77.3654 173.591 78.0238 174.077 78.5094C174.563 78.9951 175.221 79.2682 175.908 79.269H187.599C188.285 79.2682 188.944 78.9951 189.429 78.5094C189.915 78.0238 190.188 77.3654 190.189 76.6786L191.212 55.275C191.211 54.5882 190.938 53.9298 190.452 53.4441C189.966 52.9585 189.308 52.6853 188.621 52.6846H174.885Z" fill="#3F3D56"/>
<path d="M208.055 61.2582L188.911 68.8808L187.466 69.4559C187.42 69.4738 187.374 69.4891 187.326 69.5045L182.487 70.9283C181.868 71.1098 181.012 70.2765 180.511 69.7013C180.263 69.4241 180.122 69.0673 180.115 68.6954C180.107 68.3235 180.233 67.9612 180.47 67.6742C180.537 67.5972 180.61 67.5262 180.69 67.4621C180.876 67.3169 181.096 67.2203 181.329 67.1809L186.163 66.23C186.336 66.196 186.503 66.1338 186.656 66.0459L188.911 64.7321L200.616 57.9172C200.942 57.728 201.189 57.4294 201.315 57.0746C201.441 56.7197 201.437 56.3317 201.304 55.9796L199.069 50.0876C198.932 49.7271 198.931 49.329 199.066 48.9678C199.201 48.6065 199.463 48.3067 199.803 48.1244L203.505 46.1408C203.716 46.0273 203.951 45.9632 204.191 45.9535C204.43 45.9437 204.669 45.9885 204.889 46.0845C205.109 46.1805 205.305 46.3251 205.461 46.5076C205.617 46.69 205.729 46.9055 205.79 47.1377L209.003 59.3768C209.102 59.7521 209.06 60.1506 208.885 60.4972C208.711 60.8437 208.415 61.1144 208.055 61.2582Z" fill="#FFB9B9"/>
<path d="M209.167 44.8001C204.988 46.4303 201.665 49.2124 199.06 52.9632L190.896 41.1073L196.728 30.0288L209.167 44.8001Z" fill="#080056"/>
<path d="M186.61 21.8758C182.784 23.4673 178.772 23.4027 174.596 21.8758C175.811 19.8017 173.995 18.1772 173.062 16.0835L188.655 15.6201C187.463 17.439 185.703 19.588 186.61 21.8758Z" fill="white"/>
<path d="M188.49 15.9661L188.309 15.7854L188.565 15.5297L190.092 13.7476L190.286 13.9137L188.752 15.703L188.49 15.9661Z" fill="white"/>
<path d="M171.993 14.8826L171.83 15.0791L173.363 16.3572L173.527 16.1607L171.993 14.8826Z" fill="white"/>
<path d="M188.931 17.4687L186.246 21.686L186.462 21.8233L189.147 17.606L188.931 17.4687Z" fill="white"/>
<path d="M172.275 17.4682L172.06 17.6055L174.744 21.8232L174.959 21.6859L172.275 17.4682Z" fill="white"/>
<path d="M189.422 64.3706V69.0015L187.81 69.6435C187.759 69.6635 187.707 69.6806 187.653 69.6977L182.252 71.287C181.561 71.4896 180.605 70.5594 180.046 69.9174C179.769 69.608 179.612 69.2097 179.604 68.7946C179.595 68.3794 179.736 67.9751 180 67.6548C180.075 67.5687 180.157 67.4895 180.246 67.4179C180.454 67.2559 180.699 67.1481 180.959 67.1041L186.355 66.0426C186.549 66.0047 186.735 65.9352 186.906 65.8372L189.422 64.3706Z" fill="white"/>
<path d="M191.759 47.8526H190.835C190.835 34.7877 188.145 25.683 185.523 25.683L185.292 24.7593C187.644 24.7593 189.142 28.5486 189.986 31.7275C191.129 36.0371 191.759 41.7638 191.759 47.8526Z" fill="#3F3D56"/>
<path d="M170.512 44.6191H169.588C169.588 32.6538 172.297 25.2207 176.285 25.2207L176.054 26.1444C173.295 26.1444 170.512 31.857 170.512 44.6191Z" fill="#3F3D56"/>
<path d="M191.297 50.3926C192.572 50.3926 193.606 49.3587 193.606 48.0833C193.606 46.8079 192.572 45.7739 191.297 45.7739C190.021 45.7739 188.987 46.8079 188.987 48.0833C188.987 49.3587 190.021 50.3926 191.297 50.3926Z" fill="#3F3D56"/>
<path d="M166.817 50.162H165.893C165.893 46.8512 167.758 44.1577 170.05 44.1577V45.0815C168.267 45.0815 166.817 47.3606 166.817 50.162Z" fill="#3F3D56"/>
<path d="M174.207 50.162H173.283C173.283 47.3606 171.833 45.0815 170.05 45.0815V44.1577C172.342 44.1577 174.207 46.8512 174.207 50.162Z" fill="#3F3D56"/>
<path d="M173.745 51.3167C174.255 51.3167 174.669 50.9032 174.669 50.393C174.669 49.8828 174.255 49.4692 173.745 49.4692C173.235 49.4692 172.821 49.8828 172.821 50.393C172.821 50.9032 173.235 51.3167 173.745 51.3167Z" fill="#3F3D56"/>
<path d="M166.355 51.3167C166.865 51.3167 167.279 50.9032 167.279 50.393C167.279 49.8828 166.865 49.4692 166.355 49.4692C165.845 49.4692 165.431 49.8828 165.431 50.393C165.431 50.9032 165.845 51.3167 166.355 51.3167Z" fill="#3F3D56"/>
<path d="M55.0299 19.35L38.8061 22.0973C38.4053 22.1656 37.9934 22.0829 37.6501 21.8651C37.3068 21.6473 37.0565 21.3099 36.9476 20.9182C35.7755 16.6878 33.3248 11.1691 35.7041 8.3988C35.8253 7.23332 36.3914 6.1595 37.2845 5.40087C38.1776 4.64224 39.3288 4.25725 40.4986 4.32606C43.3969 -0.210512 48.2243 0.470625 51.4871 3.30391C54.7708 4.43691 56.0088 6.44974 55.5759 9.18124C56.9944 10.4229 57.7382 11.8215 57.895 13.3565C57.9693 14.2107 57.8606 15.071 57.5761 15.8799C57.2916 16.6888 56.8379 17.4277 56.2452 18.0473L55.0299 19.35Z" fill="#2F2E41"/>
<path d="M52.5073 32.1217L39.9302 31.3819C41.1628 28.553 41.6551 25.8289 41.1632 23.2441H50.5344C50.5132 25.2287 51.5008 28.6617 52.5073 32.1217Z" fill="#9F616A"/>
<path d="M37.368 148.333L36.8522 155.385C36.8288 155.704 36.874 156.025 36.9847 156.325C37.0953 156.625 37.2689 156.899 37.4938 157.126C37.7188 157.354 37.9897 157.531 38.2887 157.645C38.5876 157.76 38.9075 157.809 39.227 157.79L42.8493 157.57C43.0172 157.56 43.1807 157.513 43.3283 157.432C43.4759 157.352 43.604 157.24 43.7034 157.104C43.8028 156.969 43.8712 156.813 43.9035 156.648C43.9359 156.483 43.9316 156.313 43.8908 156.15L41.8801 148.107L37.368 148.333Z" fill="#E6E6E6"/>
<path d="M49.0952 148.107L47.0845 156.15C47.0437 156.313 47.0393 156.483 47.0717 156.648C47.1041 156.813 47.1725 156.969 47.2719 157.104C47.3713 157.24 47.4993 157.352 47.647 157.432C47.7946 157.513 47.9581 157.56 48.1259 157.57L51.7483 157.79C52.0678 157.809 52.3877 157.76 52.6866 157.645C52.9855 157.531 53.2565 157.354 53.4814 157.126C53.7063 156.899 53.8799 156.625 53.9906 156.325C54.1013 156.025 54.1465 155.704 54.1231 155.385L53.6072 148.333L49.0952 148.107Z" fill="#E6E6E6"/>
<path d="M53.8408 149.313L48.9527 148.822L44.086 96.8037L42.2467 148.654L37.4442 148.482L29.3496 76.6719H60.275L53.8408 149.313Z" fill="#080056"/>
<path d="M46.0963 26.2376C51.2545 26.2376 55.4362 22.0562 55.4362 16.8981C55.4362 11.74 51.2545 7.55859 46.0963 7.55859C40.938 7.55859 36.7563 11.74 36.7563 16.8981C36.7563 22.0562 40.938 26.2376 46.0963 26.2376Z" fill="#9F616A"/>
<path d="M56.6228 12.4368C52.832 11.7766 49.105 11.686 45.482 12.5233C43.1741 13.2788 40.4026 13.2092 37.3203 12.5867V6.28857L53.9604 6.58849L56.6228 12.4368Z" fill="#2F2E41"/>
<path d="M52.3118 24.392C48.2259 26.0915 43.9415 26.0225 39.4821 24.392C40.7797 22.1772 38.84 20.4425 37.8442 18.2067L54.4956 17.7119C53.2222 19.6542 51.3433 21.949 52.3118 24.392Z" fill="white"/>
<path d="M36.6979 16.9314L36.5342 17.1279L38.1719 18.4927L38.3357 18.2962L36.6979 16.9314Z" fill="white"/>
<path d="M54.7976 19.6909L51.9307 24.1943L52.1464 24.3316L55.0133 19.8282L54.7976 19.6909Z" fill="white"/>
<path d="M36.9965 19.6909L36.7808 19.8281L39.647 24.332L39.8627 24.1948L36.9965 19.6909Z" fill="white"/>
<path d="M28.3392 59.4947L21.1875 55.0559L27.2866 37.1935C27.9669 35.3503 29.2698 33.8027 30.9702 32.8184L33.0248 31.6289L33.2035 49.6487L28.3392 59.4947Z" fill="#080056"/>
<path d="M59.2528 68.1693L58.1947 59.107C58.1382 54.3236 58.952 49.699 60.8925 45.4378L61.8789 32.1214L51.0281 27.6826C50.9948 27.9037 50.9665 28.1247 50.9348 28.3458L45.8493 30.8884L40.8896 29.7613L40.917 28.1758L31.0526 32.6146C34.3148 47.78 32.5355 63.5286 26.9258 82.1304L39.9212 85.6837L40.0293 79.4439L51.6111 78.6167C51.7304 80.6411 51.8262 82.6296 51.8819 84.574C58.4171 86.9799 58.6416 86.94 64.596 83.4953C62.2248 78.5099 60.3472 73.3222 59.2528 68.1693Z" fill="#080056"/>
<path d="M75.9355 57.275L69.2771 55.0557L58.6265 42.6574L61.8786 32.1221L76.6753 52.8365L75.9355 57.275Z" fill="#080056"/>
<path d="M55.0676 66.8735C55.1766 67.3516 55.4706 67.7669 55.8854 68.0285C56.3002 68.2901 56.8017 68.3766 57.2801 68.2689L62.9323 66.989L62.1154 63.3813L56.4631 64.6611C55.9847 64.7695 55.5689 65.0634 55.3072 65.4783C55.0455 65.8932 54.9593 66.3951 55.0676 66.8735V66.8735Z" fill="#E6E6E6"/>
<path d="M60.1523 62.6999L63.3583 68.6183C68.7506 67.1144 73.4239 62.3733 77.9083 56.7815L76.6752 52.8359L69.0303 54.8087L60.1523 62.6999Z" fill="#080056"/>
<path d="M18.3516 44.1353L24.5061 45.2342L38.5737 65.2356L31.1004 63.4772L18.3516 44.1353Z" fill="#E6E6E6"/>
<path d="M17.2602 43.8906C17.1664 43.892 17.0748 43.9186 16.9948 43.9676C16.9148 44.0166 16.8494 44.0861 16.8055 44.169C16.7616 44.2519 16.7408 44.3451 16.7452 44.4388C16.7496 44.5324 16.7792 44.6232 16.8307 44.7016L29.9802 64.6517C30.0536 64.7633 30.1669 64.8424 30.2969 64.8729L36.4149 66.3123C36.5181 66.3366 36.6262 66.3289 36.7249 66.2904C36.8236 66.2518 36.9082 66.1841 36.9676 66.0963C37.0269 66.0086 37.0582 65.9048 37.0572 65.7988C37.0562 65.6929 37.0231 65.5897 36.9621 65.503L22.5248 44.9759C22.4856 44.92 22.4358 44.8723 22.3783 44.8356C22.3207 44.7989 22.2564 44.774 22.1892 44.7622L17.3588 43.8995C17.3263 43.8937 17.2933 43.8907 17.2602 43.8906Z" fill="#3F3D56"/>
<path d="M25.4629 58.1547L25.8284 61.8357L31.5953 61.2632C32.0834 61.2148 32.5323 60.9744 32.8432 60.595C33.1542 60.2156 33.3016 59.7282 33.2532 59.2401C33.2047 58.752 32.9643 58.3031 32.5849 57.9922C32.2055 57.6813 31.7181 57.5338 31.2299 57.5823L25.4629 58.1547Z" fill="#E6E6E6"/>
<path d="M20.4482 57.7285C20.4566 58.9836 20.9607 60.1845 21.8507 61.0696C22.7408 61.9547 23.9445 62.4521 25.1997 62.4536H26.148L26.8383 56.7008L21.1223 54.6431L20.4482 57.7285Z" fill="#080056"/>
<path d="M54.0401 18.3485L53.8594 18.1678L54.1324 17.8948L55.7636 15.9912L55.9576 16.1574L54.3198 18.0681L54.0401 18.3485Z" fill="white"/>
<path d="M227 157.489H0V158H227V157.489Z" fill="#3F3D56"/>
<path d="M86.6587 157.233H140.341V92.1227C140.341 88.675 136.945 85.8701 132.771 85.8701H94.229C90.0547 85.8701 86.6587 88.675 86.6587 92.1227V157.233Z" fill="#E6E6E6"/>
<path d="M90.749 154.54H136.251V99.3515C136.251 96.4292 133.373 94.0518 129.835 94.0518H97.1658C93.6275 94.0518 90.749 96.4292 90.749 99.3515V154.54Z" fill="white"/>
<path d="M86.2531 80.8027C84.9262 80.8027 83.8467 81.6944 83.8467 82.7903V88.5273C83.8467 89.6232 84.9262 90.5149 86.2531 90.5149H140.747C142.074 90.5149 143.153 89.6232 143.153 88.5273V82.7903C143.153 81.6944 142.074 80.8027 140.747 80.8027H86.2531Z" fill="#3F3D56"/>
<path d="M97.4413 147.464C96.8183 147.466 96.2214 147.714 95.7809 148.154C95.3404 148.595 95.0922 149.192 95.0903 149.815C95.0922 150.438 95.3404 151.035 95.7809 151.475C96.2214 151.915 96.8183 152.164 97.4413 152.166H101.842V147.464H97.4413Z" fill="#3F3D56"/>
<path d="M105.881 147.464H101.601V152.166H105.881C106.504 152.164 107.101 151.915 107.541 151.475C107.982 151.035 108.23 150.438 108.232 149.815C108.23 149.192 107.982 148.595 107.541 148.154C107.101 147.714 106.504 147.466 105.881 147.464Z" fill="#080056"/>
<path opacity="0.2" d="M107.415 148.04C107.786 148.465 107.99 149.01 107.991 149.574C107.989 150.196 107.741 150.793 107.3 151.234C106.86 151.674 106.263 151.923 105.64 151.924H101.601V152.166H105.881C106.504 152.164 107.101 151.915 107.541 151.475C107.982 151.034 108.23 150.438 108.232 149.815C108.231 149.477 108.158 149.144 108.017 148.838C107.876 148.532 107.671 148.259 107.415 148.04Z" fill="black"/>
<path d="M117.299 112.054C116.87 111.602 116.28 111.338 115.658 111.319C115.035 111.301 114.43 111.53 113.976 111.956C113.524 112.384 113.26 112.974 113.241 113.597C113.223 114.22 113.452 114.824 113.878 115.279L116.896 118.481L120.318 115.256L117.299 112.054Z" fill="#3F3D56"/>
<path d="M123.088 118.195L120.152 115.081L116.73 118.306L119.666 121.42C120.095 121.872 120.685 122.136 121.308 122.154C121.93 122.173 122.535 121.944 122.99 121.518C123.442 121.089 123.706 120.499 123.724 119.877C123.742 119.254 123.514 118.649 123.088 118.195Z" fill="#080056"/>
<path opacity="0.2" d="M123.721 119.706C123.666 120.267 123.41 120.79 123 121.177C122.545 121.603 121.94 121.832 121.318 121.813C120.695 121.795 120.105 121.531 119.676 121.079L116.906 118.14L116.73 118.306L119.666 121.42C120.095 121.872 120.685 122.136 121.308 122.154C121.93 122.173 122.535 121.944 122.99 121.518C123.235 121.286 123.427 121.004 123.553 120.692C123.679 120.379 123.736 120.043 123.721 119.706Z" fill="black"/>
<path d="M104.773 119.467C104.345 119.015 103.754 118.751 103.132 118.732C102.509 118.714 101.904 118.943 101.45 119.369C100.998 119.797 100.734 120.388 100.715 121.01C100.697 121.633 100.926 122.237 101.352 122.692L104.37 125.894L107.792 122.669L104.773 119.467Z" fill="#3F3D56"/>
<path d="M110.562 125.607L107.626 122.493L104.205 125.718L107.14 128.832C107.569 129.285 108.159 129.549 108.782 129.567C109.404 129.585 110.009 129.357 110.464 128.931C110.916 128.502 111.18 127.912 111.198 127.289C111.217 126.667 110.988 126.062 110.562 125.607Z" fill="#080056"/>
<path opacity="0.2" d="M111.195 127.119C111.14 127.68 110.884 128.203 110.474 128.59C110.019 129.016 109.415 129.245 108.792 129.226C108.169 129.208 107.579 128.944 107.15 128.492L104.38 125.553L104.205 125.719L107.14 128.833C107.569 129.285 108.159 129.549 108.782 129.567C109.404 129.586 110.009 129.357 110.464 128.931C110.709 128.699 110.901 128.417 111.027 128.105C111.153 127.792 111.211 127.456 111.195 127.119Z" fill="black"/>
<path d="M117.299 126.369C116.87 125.917 116.28 125.653 115.658 125.634C115.035 125.616 114.43 125.845 113.976 126.271C113.524 126.699 113.26 127.289 113.241 127.912C113.223 128.535 113.452 129.139 113.878 129.594L116.896 132.796L120.318 129.571L117.299 126.369Z" fill="#3F3D56"/>
<path d="M123.088 132.509L120.152 129.395L116.73 132.62L119.666 135.734C120.095 136.186 120.685 136.45 121.308 136.469C121.93 136.487 122.535 136.258 122.99 135.832C123.442 135.404 123.706 134.814 123.724 134.191C123.742 133.568 123.514 132.964 123.088 132.509Z" fill="#080056"/>
<path opacity="0.2" d="M123.721 134.021C123.666 134.582 123.41 135.105 123 135.492C122.545 135.918 121.94 136.147 121.318 136.128C120.695 136.11 120.105 135.846 119.676 135.394L116.906 132.455L116.73 132.62L119.666 135.735C120.095 136.187 120.685 136.451 121.308 136.469C121.93 136.488 122.535 136.259 122.99 135.833C123.235 135.601 123.427 135.319 123.553 135.007C123.679 134.694 123.736 134.358 123.721 134.021Z" fill="black"/>
<path d="M124.94 141.058C125.387 140.624 125.644 140.031 125.655 139.408C125.666 138.785 125.43 138.184 124.998 137.734C124.564 137.288 123.971 137.031 123.348 137.02C122.725 137.009 122.123 137.245 121.674 137.677L118.509 140.734L121.775 144.115L124.94 141.058Z" fill="#3F3D56"/>
<path d="M118.87 146.921L121.948 143.948L118.682 140.566L115.604 143.54C115.157 143.974 114.9 144.567 114.889 145.19C114.878 145.813 115.114 146.414 115.546 146.864C115.98 147.311 116.573 147.567 117.196 147.578C117.819 147.589 118.421 147.353 118.87 146.921Z" fill="#080056"/>
<path opacity="0.2" d="M117.367 147.573C116.805 147.525 116.279 147.275 115.887 146.87C115.455 146.42 115.219 145.819 115.23 145.196C115.241 144.573 115.498 143.98 115.944 143.546L118.849 140.74L118.682 140.566L115.604 143.54C115.157 143.974 114.9 144.567 114.889 145.19C114.878 145.813 115.114 146.414 115.546 146.864C115.78 147.106 116.065 147.295 116.379 147.417C116.693 147.539 117.03 147.593 117.367 147.573Z" fill="black"/>
<path d="M108.069 133.645C108.516 133.211 108.773 132.618 108.783 131.995C108.794 131.372 108.558 130.771 108.127 130.321C107.693 129.874 107.099 129.618 106.476 129.607C105.854 129.596 105.252 129.832 104.802 130.264L101.637 133.321L104.904 136.702L108.069 133.645Z" fill="#3F3D56"/>
<path d="M101.998 139.508L105.077 136.535L101.81 133.153L98.7319 136.127C98.2851 136.561 98.0283 137.154 98.0174 137.777C98.0066 138.4 98.2427 139.001 98.6742 139.451C99.1083 139.897 99.7016 140.154 100.324 140.165C100.947 140.176 101.549 139.94 101.998 139.508Z" fill="#080056"/>
<path opacity="0.2" d="M100.495 140.16C99.933 140.112 99.4074 139.862 99.0152 139.457C98.5837 139.007 98.3476 138.405 98.3584 137.783C98.3692 137.16 98.6261 136.567 99.0729 136.132L101.978 133.327L101.81 133.153L98.7319 136.127C98.2851 136.561 98.0283 137.154 98.0174 137.777C98.0066 138.4 98.2427 139.001 98.6742 139.451C98.9089 139.693 99.193 139.882 99.5072 140.004C99.8215 140.126 100.158 140.18 100.495 140.16Z" fill="black"/>
<path d="M132.098 124.699C132.545 124.265 132.802 123.671 132.813 123.048C132.823 122.426 132.587 121.824 132.156 121.374C131.722 120.928 131.129 120.671 130.506 120.66C129.883 120.649 129.281 120.885 128.832 121.317L125.667 124.374L128.933 127.756L132.098 124.699Z" fill="#3F3D56"/>
<path d="M126.028 130.562L129.106 127.588L125.84 124.207L122.761 127.18C122.314 127.614 122.058 128.207 122.047 128.83C122.036 129.453 122.272 130.055 122.704 130.504C123.138 130.951 123.731 131.207 124.354 131.218C124.977 131.229 125.578 130.993 126.028 130.562Z" fill="#080056"/>
<path opacity="0.2" d="M124.524 131.213C123.962 131.165 123.437 130.915 123.044 130.51C122.613 130.06 122.377 129.459 122.388 128.836C122.399 128.213 122.655 127.62 123.102 127.186L126.007 124.38L125.84 124.207L122.761 127.18C122.314 127.614 122.058 128.207 122.047 128.83C122.036 129.453 122.272 130.055 122.704 130.504C122.938 130.746 123.222 130.935 123.537 131.057C123.851 131.18 124.188 131.233 124.524 131.213Z" fill="black"/>
<path d="M126.757 143.239C126.328 142.787 125.738 142.523 125.116 142.505C124.493 142.487 123.888 142.715 123.434 143.141C122.982 143.57 122.718 144.16 122.699 144.783C122.681 145.405 122.91 146.01 123.336 146.464L126.354 149.666L129.775 146.441L126.757 143.239Z" fill="#3F3D56"/>
<path d="M132.546 149.38L129.61 146.266L126.189 149.491L129.125 152.605C129.553 153.057 130.143 153.321 130.766 153.34C131.389 153.358 131.993 153.129 132.448 152.704C132.9 152.275 133.164 151.685 133.183 151.062C133.201 150.44 132.972 149.835 132.546 149.38Z" fill="#080056"/>
<path opacity="0.2" d="M133.179 150.892C133.124 151.453 132.868 151.976 132.458 152.363C132.004 152.789 131.399 153.018 130.776 152.999C130.154 152.981 129.563 152.717 129.135 152.265L126.364 149.326L126.189 149.492L129.125 152.606C129.553 153.058 130.143 153.322 130.766 153.34C131.389 153.359 131.993 153.13 132.448 152.704C132.693 152.472 132.885 152.19 133.011 151.878C133.138 151.565 133.195 151.229 133.179 150.892Z" fill="black"/>
<path d="M110.141 142.984C109.713 142.532 109.123 142.268 108.5 142.25C107.877 142.231 107.273 142.46 106.818 142.886C106.366 143.315 106.102 143.905 106.084 144.527C106.065 145.15 106.294 145.755 106.72 146.209L109.738 149.411L113.16 146.186L110.141 142.984Z" fill="#3F3D56"/>
<path d="M115.93 149.124L112.994 146.01L109.573 149.235L112.509 152.35C112.937 152.802 113.527 153.066 114.15 153.084C114.773 153.102 115.377 152.874 115.832 152.448C116.284 152.019 116.548 151.429 116.566 150.806C116.585 150.184 116.356 149.579 115.93 149.124Z" fill="#080056"/>
<path opacity="0.2" d="M116.563 150.636C116.508 151.197 116.252 151.72 115.842 152.107C115.387 152.533 114.783 152.762 114.16 152.744C113.537 152.725 112.947 152.461 112.519 152.009L109.748 149.07L109.573 149.236L112.508 152.35C112.937 152.802 113.527 153.066 114.15 153.084C114.773 153.103 115.377 152.874 115.832 152.448C116.077 152.216 116.269 151.935 116.395 151.622C116.521 151.309 116.579 150.973 116.563 150.636Z" fill="black"/>
<path d="M114.819 134.55C114.819 135.332 114.549 136.09 114.055 136.695C113.56 137.301 112.872 137.717 112.106 137.873C111.659 137.963 111.198 137.963 110.75 137.873C109.984 137.717 109.296 137.3 108.802 136.695C108.308 136.09 108.038 135.332 108.038 134.55C108.038 133.769 108.308 133.011 108.802 132.406C109.296 131.801 109.984 131.384 110.75 131.228C111.198 131.138 111.659 131.138 112.106 131.228C112.872 131.384 113.56 131.8 114.055 132.406C114.549 133.011 114.819 133.769 114.819 134.55Z" fill="#080056"/>
<path opacity="0.2" d="M112.106 131.228V137.873C111.659 137.963 111.198 137.963 110.75 137.873V131.228C111.198 131.138 111.659 131.138 112.106 131.228Z" fill="black"/>
<path d="M116.352 121.003C116.352 121.784 116.082 122.542 115.588 123.147C115.094 123.753 114.406 124.169 113.64 124.325C113.192 124.416 112.731 124.416 112.284 124.325C111.518 124.169 110.83 123.752 110.335 123.147C109.841 122.542 109.571 121.784 109.571 121.003C109.571 120.221 109.841 119.464 110.335 118.858C110.83 118.253 111.518 117.837 112.284 117.68C112.731 117.59 113.192 117.59 113.64 117.68C114.406 117.836 115.094 118.253 115.588 118.858C116.082 119.463 116.352 120.221 116.352 121.003Z" fill="#080056"/>
<path opacity="0.2" d="M113.64 117.68V124.325C113.192 124.416 112.731 124.416 112.284 124.325V117.68C112.731 117.59 113.192 117.59 113.64 117.68Z" fill="black"/>
<path d="M116.352 140.429C116.352 141.211 116.082 141.969 115.588 142.574C115.094 143.179 114.406 143.596 113.64 143.752C113.192 143.842 112.731 143.842 112.284 143.752C111.518 143.595 110.83 143.179 110.335 142.574C109.841 141.968 109.571 141.211 109.571 140.429C109.571 139.648 109.841 138.89 110.335 138.285C110.83 137.679 111.518 137.263 112.284 137.107C112.731 137.016 113.192 137.016 113.64 137.107C114.406 137.263 115.094 137.679 115.588 138.285C116.082 138.89 116.352 139.648 116.352 140.429Z" fill="#080056"/>
<path opacity="0.2" d="M113.64 137.107V143.752C113.192 143.842 112.731 143.842 112.284 143.752V137.107C112.731 137.016 113.192 137.016 113.64 137.107Z" fill="black"/>
<path d="M124.788 149.887C124.788 150.669 124.518 151.427 124.024 152.032C123.53 152.637 122.841 153.054 122.075 153.21C121.628 153.3 121.167 153.3 120.719 153.21C119.953 153.053 119.265 152.637 118.771 152.032C118.277 151.426 118.007 150.669 118.007 149.887C118.007 149.106 118.277 148.348 118.771 147.743C119.265 147.137 119.953 146.721 120.719 146.565C121.167 146.474 121.628 146.474 122.075 146.565C122.841 146.721 123.53 147.137 124.024 147.743C124.518 148.348 124.788 149.106 124.788 149.887Z" fill="#080056"/>
<path opacity="0.2" d="M122.076 146.565V153.21C121.628 153.3 121.167 153.3 120.72 153.21V146.565C121.167 146.474 121.628 146.474 122.076 146.565Z" fill="black"/>
<path d="M132.24 132.486C132.803 133.028 133.161 133.748 133.254 134.524C133.347 135.3 133.169 136.085 132.75 136.744C132.505 137.129 132.185 137.461 131.809 137.721C131.165 138.164 130.388 138.37 129.609 138.306C128.83 138.242 128.097 137.91 127.534 137.368C126.972 136.826 126.614 136.106 126.521 135.33C126.428 134.554 126.606 133.769 127.024 133.109C127.27 132.724 127.59 132.392 127.966 132.133C128.61 131.69 129.387 131.483 130.166 131.548C130.945 131.612 131.678 131.943 132.24 132.486Z" fill="#080056"/>
<path opacity="0.2" d="M127.966 132.133L132.75 136.745C132.505 137.13 132.185 137.462 131.809 137.721L127.024 133.11C127.27 132.725 127.59 132.393 127.966 132.133Z" fill="black"/>
<path d="M133.263 139.899C133.826 140.441 134.184 141.161 134.277 141.937C134.37 142.713 134.192 143.498 133.773 144.158C133.527 144.543 133.207 144.875 132.832 145.134C132.187 145.577 131.41 145.783 130.631 145.719C129.852 145.655 129.12 145.323 128.557 144.781C127.994 144.239 127.636 143.519 127.543 142.743C127.45 141.967 127.628 141.182 128.047 140.522C128.292 140.138 128.612 139.806 128.988 139.546C129.632 139.103 130.409 138.896 131.188 138.961C131.967 139.025 132.7 139.357 133.263 139.899Z" fill="#080056"/>
<path opacity="0.2" d="M128.988 139.546L133.773 144.157C133.527 144.542 133.207 144.874 132.832 145.134L128.047 140.522C128.292 140.137 128.612 139.805 128.988 139.546Z" fill="black"/>
<path d="M102.843 141.689C103.406 142.231 103.764 142.951 103.857 143.727C103.95 144.503 103.772 145.287 103.353 145.947C103.107 146.332 102.787 146.664 102.412 146.924C101.768 147.366 100.99 147.573 100.211 147.509C99.4325 147.444 98.6997 147.113 98.137 146.571C97.5742 146.028 97.2161 145.308 97.1232 144.532C97.0303 143.756 97.2082 142.972 97.627 142.312C97.8724 141.927 98.1925 141.595 98.5681 141.336C99.2121 140.893 99.9894 140.686 100.768 140.75C101.547 140.815 102.28 141.146 102.843 141.689Z" fill="#080056"/>
<path opacity="0.2" d="M98.5681 141.335L103.353 145.947C103.107 146.332 102.787 146.664 102.412 146.923L97.627 142.312C97.8724 141.927 98.1924 141.595 98.5681 141.335Z" fill="black"/>
<path opacity="0.2" d="M91.8993 80.8027H90.6211V90.2607H91.8993V80.8027Z" fill="black"/>
<path opacity="0.2" d="M99.3123 80.8027H98.0342V90.2607H99.3123V80.8027Z" fill="black"/>
<path opacity="0.2" d="M106.726 80.8027H105.448V90.2607H106.726V80.8027Z" fill="black"/>
<path opacity="0.2" d="M114.139 80.8027H112.861V90.2607H114.139V80.8027Z" fill="black"/>
<path opacity="0.2" d="M121.553 80.8027H120.274V90.2607H121.553V80.8027Z" fill="black"/>
<path opacity="0.2" d="M128.966 80.8027H127.688V90.2607H128.966V80.8027Z" fill="black"/>
<path opacity="0.2" d="M136.379 80.8027H135.101V90.2607H136.379V80.8027Z" fill="black"/>
</g>
<defs>
<clipPath id="clip0">
<rect width="227" height="158" fill="white"/>
</clipPath>
</defs>
</svg>
