<svg width="125" height="126" viewBox="0 0 125 126" fill="none" xmlns="http://www.w3.org/2000/svg">
<path d="M69.2031 111.656H96.0156V125.062H69.2031V111.656Z" fill="#211F45"/>
<path d="M114.65 77.2243L124.37 40.9381C124.481 40.5611 124.534 40.1692 124.526 39.7762C124.522 38.753 124.168 37.7621 123.521 36.969C122.874 36.176 121.975 35.6289 120.974 35.4192C119.8 35.237 118.601 35.5038 117.615 36.1664C116.63 36.829 115.93 37.8387 115.656 38.9942L108.752 60.2878L108.886 60.4889C110.066 62.5389 110.388 64.9729 109.779 67.259C109.48 68.397 108.956 69.4635 108.239 70.396C107.521 71.3284 106.624 72.1079 105.601 72.6886L92.7981 80.0843C92.2875 80.3515 91.6934 80.411 91.1399 80.2504C90.5864 80.0898 90.1164 79.7216 89.828 79.2227C89.5396 78.7237 89.4551 78.1327 89.5922 77.5729C89.7293 77.0132 90.0774 76.528 90.5637 76.2189L103.367 68.8231C103.877 68.5326 104.326 68.1443 104.686 67.6804C105.046 67.2165 105.312 66.6861 105.467 66.1195C105.761 64.9721 105.601 63.7557 105.02 62.7232C104.726 62.213 104.335 61.7659 103.867 61.4076C103.4 61.0493 102.867 60.7868 102.298 60.6352C101.729 60.4836 101.136 60.446 100.552 60.5244C99.9689 60.6028 99.4067 60.7958 98.898 61.0921L79.1684 72.6439C76.8225 74.0324 74.8769 76.0059 73.5218 78.3713C72.1667 80.7368 71.4486 83.4134 71.4375 86.1395V107.187H93.7812V102.272C93.7858 100.696 94.1202 99.1378 94.7628 97.6986C95.4055 96.2594 96.3421 94.9707 97.5126 93.9151L112.639 80.4865C113.615 79.6196 114.314 78.4852 114.65 77.2243Z" fill="#211F45"/>
<path d="M105.131 56.9586L111.365 37.7206C111.871 35.7896 112.994 34.0767 114.563 32.8425C116.131 31.6084 118.061 30.9204 120.056 30.8834V30.8387C120.053 29.8155 119.698 28.8246 119.051 28.0315C118.404 27.2385 117.505 26.6914 116.504 26.4817C115.33 26.2995 114.131 26.5663 113.145 27.2289C112.16 27.8915 111.46 28.9012 111.186 30.0567L102.137 56.1095C103.175 56.2239 104.187 56.5109 105.131 56.9586Z" fill="#211F45"/>
<path d="M10.3488 77.2021C10.6791 78.4719 11.3789 79.6151 12.3597 80.4866L27.4641 93.9152C28.6415 94.9664 29.5843 96.2539 30.231 97.6937C30.8778 99.1335 31.214 100.693 31.2178 102.272V107.187H53.5616V86.1396C53.5505 83.4135 52.8323 80.7369 51.4773 78.3715C50.1222 76.006 48.1766 74.0325 45.8307 72.644L26.0788 61.0699C25.5697 60.7779 25.0081 60.5891 24.426 60.5142C23.844 60.4393 23.2528 60.4797 22.6864 60.6333C22.12 60.7868 21.5893 61.0504 21.1248 61.409C20.6602 61.7676 20.2709 62.2142 19.9789 62.7233C19.3986 63.7558 19.2385 64.9722 19.5321 66.1196C19.6873 66.6862 19.9527 67.2166 20.313 67.6805C20.6734 68.1444 21.1218 68.5327 21.6324 68.8232L34.4353 76.219C34.9217 76.5281 35.2698 77.0133 35.4069 77.573C35.544 78.1328 35.4595 78.7238 35.1711 79.2228C34.8827 79.7217 34.4127 80.0899 33.8592 80.2505C33.3057 80.4111 32.7116 80.3516 32.201 80.0844L19.398 72.6887C18.3746 72.108 17.4778 71.3286 16.7602 70.3961C16.0427 69.4636 15.5189 68.3971 15.2197 67.2591C14.6115 64.973 14.9328 62.539 16.1135 60.489L16.2475 60.2879L9.388 39.106C9.12244 37.9248 8.41946 36.8879 7.42044 36.2039C6.42142 35.5199 5.20047 35.2396 4.00315 35.4193C3.00578 35.6335 2.11172 36.1825 1.46951 36.9751C0.827297 37.7677 0.475598 38.7562 0.472841 39.7763C0.469383 40.1677 0.514415 40.5579 0.606905 40.9382L10.3488 77.2021Z" fill="#211F45"/>
<path d="M28.9844 111.656H55.7969V125.062H28.9844V111.656Z" fill="#211F45"/>
<path d="M8.47172 26.4817C7.47434 26.696 6.58028 27.245 5.93807 28.0376C5.29586 28.8302 4.94416 29.8186 4.94141 30.8388V30.8834C6.95481 30.9355 8.89651 31.6418 10.4728 32.8955C12.049 34.1493 13.1741 35.8823 13.6778 37.8324L19.867 56.9586C20.8108 56.5109 21.8228 56.2239 22.8611 56.1095L13.8789 30.2131C13.6147 29.0237 12.9106 27.9781 11.9077 27.2861C10.9049 26.594 9.67752 26.3067 8.47172 26.4817Z" fill="#211F45"/>
<path d="M64.7344 24.5156V15.5781H60.2656V24.5156H51.3281V28.9844H60.2656V37.9219H64.7344V28.9844H73.6719V24.5156H64.7344Z" fill="#211F45"/>
<path d="M78.2965 0.38423C75.9494 0.375928 73.6242 0.834947 71.4564 1.73452C69.2886 2.6341 67.3216 3.95623 65.67 5.62384L64.0791 7.21472C63.6601 7.6336 63.0919 7.86891 62.4994 7.86891C61.9069 7.86891 61.3387 7.6336 60.9197 7.21472L59.3333 5.62831C57.6744 3.96583 55.7039 2.64687 53.5346 1.74694C51.3653 0.847013 49.0398 0.383789 46.6912 0.383789C44.3427 0.383789 42.0171 0.847013 39.8478 1.74694C37.6785 2.64687 35.708 3.96583 34.0491 5.62831C30.7022 8.97982 28.8223 13.5227 28.8223 18.2592C28.8223 22.9958 30.7022 27.5386 34.0491 30.8902L62.4994 59.3405L90.9497 30.8902C93.4475 28.389 95.1476 25.2035 95.8351 21.7363C96.5227 18.269 96.1669 14.6758 94.8126 11.4108C93.4584 8.14575 91.1665 5.35555 88.2267 3.39288C85.2869 1.43022 81.8312 0.383216 78.2965 0.38423ZM78.14 31.2186C78.14 31.8112 77.9046 32.3795 77.4856 32.7986C77.0666 33.2176 76.4983 33.453 75.9057 33.453H69.2025V40.1561C69.2025 40.7487 68.9671 41.317 68.5481 41.7361C68.1291 42.1551 67.5608 42.3905 66.9682 42.3905H58.0307C57.4381 42.3905 56.8698 42.1551 56.4507 41.7361C56.0317 41.317 55.7963 40.7487 55.7963 40.1561V33.453H49.0932C48.5006 33.453 47.9323 33.2176 47.5132 32.7986C47.0942 32.3795 46.8588 31.8112 46.8588 31.2186V22.2811C46.8588 21.6885 47.0942 21.1202 47.5132 20.7012C47.9323 20.2821 48.5006 20.0467 49.0932 20.0467H55.7963V13.3436C55.7963 12.751 56.0317 12.1827 56.4507 11.7637C56.8698 11.3446 57.4381 11.1092 58.0307 11.1092H66.9682C67.5608 11.1092 68.1291 11.3446 68.5481 11.7637C68.9671 12.1827 69.2025 12.751 69.2025 13.3436V20.0467H75.9057C76.4983 20.0467 77.0666 20.2821 77.4856 20.7012C77.9046 21.1202 78.14 21.6885 78.14 22.2811V31.2186Z" fill="#211F45"/>
</svg>
