<svg width="180" height="180" viewBox="0 0 180 180" fill="none" xmlns="http://www.w3.org/2000/svg">
<path d="M90 180C139.706 180 180 139.706 180 90C180 40.2944 139.706 0 90 0C40.2944 0 0 40.2944 0 90C0 139.706 40.2944 180 90 180Z" fill="#F0F4FE"/>
<path d="M151.596 90.2913C151.616 103.239 147.516 115.857 139.889 126.32C133.725 134.806 125.487 141.568 115.962 145.96C106.437 150.352 95.9451 152.226 85.489 151.403C75.033 150.581 64.9629 147.089 56.2421 141.262C47.5213 135.435 40.4416 127.468 35.6802 118.123C30.9188 108.777 28.635 98.3665 29.0474 87.8863C29.4597 77.406 32.5544 67.2069 38.0353 58.2645C43.5163 49.3222 51.2001 41.9359 60.3517 36.8121C69.5034 31.6883 79.8167 28.9986 90.3051 29.0001C91.9851 29.0001 93.6491 29.0673 95.2971 29.2017C104.792 29.9627 113.977 32.9382 122.115 37.8897C130.309 42.8798 137.224 49.716 142.308 57.8529C148.392 67.5776 151.611 78.8204 151.596 90.2913Z" fill="#C2C7D6"/>
<g opacity="0.2">
<path opacity="0.2" d="M103.539 119.216C102.766 121.28 104.057 121.366 104.139 122.221C104.22 123.075 104.139 124.712 101.652 127.203C99.1661 129.694 95.0429 129.176 94.1837 130.208C93.3245 131.24 91.8653 135.613 89.8253 137.053C87.7853 138.493 87.4253 137.653 84.5021 138.258C81.5789 138.862 79.3517 142.635 78.4925 144.435C77.6333 146.235 78.6653 149.235 76.6061 149.331C74.5469 149.427 73.6013 144.949 71.7149 142.549C69.8285 140.149 69.1853 138.013 68.6045 135.186C68.0237 132.358 68.9453 126.43 68.6045 124.112C68.2637 121.794 62.0813 117.675 59.8493 114.838C57.6173 112.002 54.5261 106.342 54.6989 104.451C54.9602 102.62 55.8738 100.944 57.2717 99.7329C58.3037 98.9601 57.8717 98.5329 58.0445 97.8417C58.2173 97.1505 59.0765 96.9873 59.2445 96.1281C59.4125 95.2689 58.7309 92.6913 57.8717 92.2641C57.0125 91.8369 56.4317 93.2961 55.8989 93.0369C55.3661 92.7777 53.8397 90.9777 53.2397 90.8049C52.6397 90.6321 52.8077 91.9233 51.9485 90.2913C51.0893 88.6593 50.6621 84.5313 49.9757 83.8497C49.2893 83.1681 48.7757 85.0545 47.1437 83.8497C45.5117 82.6449 44.8253 80.3313 44.1389 80.0097C43.4525 79.6881 42.5069 80.0961 41.8013 78.7185C41.0957 77.3409 42.4205 74.8785 41.8013 75.1137C41.1821 75.3489 39.8477 77.3457 39.5021 75.4593C39.1565 73.5729 41.2205 67.2177 40.8749 63.7857C40.6028 60.1646 41.7764 56.5833 44.1389 53.8257C44.1389 53.8257 44.4797 51.9393 44.8253 50.7345C45.1709 49.5297 52.5533 44.7297 53.4077 43.3569C53.7651 42.5889 53.972 41.7595 54.0173 40.9137C64.5248 33.1579 77.2454 28.9816 90.3053 29.0001C91.9853 29.0001 93.6493 29.0673 95.2973 29.2017L95.4701 29.4273C96.2141 30.3873 97.0157 30.9729 99.1901 31.7745C101.364 32.5761 101.878 33.6081 101.422 34.4625C100.966 35.3169 100.222 35.4945 99.3629 35.5521C98.5037 35.6097 97.7021 35.1489 96.7901 35.7249C95.8781 36.3009 94.9565 39.3873 93.7565 39.5649C92.5565 39.7425 90.4349 36.8145 89.9789 35.9601C89.5229 35.1057 91.0061 33.2673 90.3053 32.4081C89.6045 31.5489 88.3853 31.7217 86.4269 31.5489C84.4685 31.3761 79.9613 32.1249 80.1341 32.8689C80.3069 33.6129 86.7725 32.7537 86.9453 34.2417C87.1181 35.7297 82.1933 38.2449 81.3389 38.0193C80.4845 37.7937 79.3325 36.3009 78.0749 36.1281C76.8173 35.9553 75.7853 36.9873 74.9933 37.0881C74.2013 37.1889 73.2701 36.2289 72.0653 36.4593C70.8605 36.6897 70.5773 37.7169 69.9485 38.1201C69.3197 38.5233 67.8317 38.5185 67.6589 39.4353C67.4861 40.3521 69.5453 40.8753 70.0589 41.4369C70.5725 41.9985 69.4253 43.9569 69.9437 44.3553C70.4621 44.7537 73.6637 41.9553 74.4653 41.2641C75.2669 40.5729 75.9533 37.6017 77.6669 37.6593C79.3805 37.7169 79.9565 40.6353 80.5469 40.9233C81.1373 41.2113 82.3757 40.2369 84.2669 40.6353C86.1581 41.0337 87.4685 45.1569 87.8141 46.3953C88.1597 47.6337 88.9565 48.9153 88.2941 49.4289C87.6317 49.9425 84.5165 49.0881 84.1181 48.2865C83.7197 47.4849 86.1773 46.2801 86.0045 45.9969C85.8317 45.7137 84.4013 45.3105 83.6573 45.7569C82.9133 46.2033 82.5725 47.1393 81.7709 47.3697C80.9693 47.6001 78.8525 45.1953 78.2813 45.8817C77.7101 46.5681 78.8525 48.7617 79.4237 49.2417C79.9949 49.7217 82.1117 50.0385 82.3037 50.6145C82.4957 51.1905 80.8637 52.4433 78.9437 52.3281C77.0237 52.2129 75.3965 50.7249 74.6477 51.3681C73.8989 52.0113 74.3069 53.6529 73.7933 54.2481C73.2797 54.8433 70.4717 54.4209 69.0989 55.9041C67.7261 57.3873 67.0973 59.6241 65.7389 60.8865C64.3805 62.1489 63.7373 60.5409 61.8989 62.3265C60.0605 64.1121 59.7821 68.0481 59.7245 69.4209C59.6669 70.7937 59.7245 71.8833 59.2685 71.7105C58.8125 71.5377 58.1789 70.3377 58.0061 69.5937C57.8333 68.8497 58.4093 67.5873 58.4093 67.1313C58.4093 66.6753 55.7741 64.3281 54.2285 64.0977C52.6829 63.8673 51.3101 65.1297 50.1677 66.0465C49.0253 66.9633 46.9613 66.7905 46.2173 67.5345C45.4733 68.2785 44.9021 74.8593 45.4733 76.4049C46.0445 77.9505 46.7885 77.9505 48.6221 77.1489C50.4557 76.3473 49.4237 74.8017 50.5133 75.1425C51.0009 75.3263 51.4207 75.6546 51.7166 76.0835C52.0126 76.5124 52.1705 77.0214 52.1693 77.5425C52.1693 78.4593 49.9949 80.6337 50.2829 81.2625C50.5709 81.8913 52.4573 81.1473 53.3693 81.4353C54.2813 81.7233 54.7469 82.2945 54.4589 84.6369C54.1709 86.9793 54.3437 88.8177 55.7165 89.5905C57.0893 90.3633 57.8621 88.4721 58.4669 88.7313C59.0717 88.9905 59.9069 90.3633 60.7805 90.2769C61.6541 90.1905 61.2125 89.4177 62.8445 88.9041C64.4765 88.3905 63.8717 88.0449 64.2173 87.0129C64.5629 85.9809 65.5901 85.1265 66.7037 85.6401C67.8173 86.1537 67.0493 86.9265 67.1357 87.7857C67.2221 88.6449 69.1949 88.7457 70.7405 89.2257C72.2861 89.7057 73.1405 89.2257 76.2317 90.2577C79.3229 91.2897 79.4957 94.3761 80.7821 94.8897C82.0685 95.4033 86.3645 94.5489 89.4557 96.7809C92.5469 99.0129 91.6829 103.131 93.2285 104.336C94.7741 105.541 100.524 107.168 102.756 107.595C104.988 108.022 105.334 106.482 107.134 106.909C108.934 107.336 109.971 107.869 110.571 110.341C111.022 112.573 104.312 117.157 103.539 119.216Z" fill="black"/>
<path opacity="0.2" d="M57.4149 75.3249C57.4725 75.8049 58.903 76.0113 60.6214 76.9857C62.3398 77.9601 62.9637 80.8257 63.8805 80.7633C64.7973 80.7009 64.5093 79.3905 64.8405 79.0449C65.1718 78.6993 65.7573 77.9553 64.8405 77.2113C63.9237 76.4673 63.031 74.8689 61.3605 74.6385C59.6901 74.4081 59.4022 73.7217 58.6582 73.7793C58.4692 73.7834 58.2835 73.8289 58.114 73.9124C57.9444 73.9959 57.7952 74.1155 57.6768 74.2627C57.5583 74.41 57.4735 74.5813 57.4283 74.7648C57.3831 74.9483 57.3785 75.1395 57.4149 75.3249Z" fill="black"/>
<path opacity="0.2" d="M66.8565 80.1345C66.6021 80.8353 66.8565 81.3345 68.6901 81.7905C70.5237 82.2465 72.2373 81.3345 71.6661 80.9601C71.0949 80.5857 70.2261 80.7633 70.5765 80.1345C70.9269 79.5057 70.8021 78.5889 69.3141 78.7569C67.8261 78.9249 67.0869 79.5009 66.8565 80.1345Z" fill="black"/>
<path opacity="0.2" d="M73.2653 80.3265C72.6413 80.4177 72.3053 81.5073 72.9245 82.1937C73.5437 82.8801 73.5533 82.7649 74.2973 82.1937C75.0413 81.6225 76.1837 81.3345 75.9005 80.7537C75.6173 80.1729 73.8989 80.2353 73.2653 80.3265Z" fill="black"/>
<path opacity="0.2" d="M78.2484 82.6641C78.5268 81.8097 79.962 82.6641 80.5908 83.5665C81.2196 84.4689 80.9364 85.7985 80.5908 86.7729C80.2452 87.7473 80.0196 88.8897 79.218 88.4289C78.4164 87.9681 79.2756 86.6001 79.1604 85.7985C79.0452 84.9969 78.018 83.3697 78.2484 82.6641Z" fill="black"/>
<path opacity="0.2" d="M102.91 34.9232C102.613 35.6432 104 35.8832 104.801 36.3632C105.603 36.8432 106.241 37.1072 106.688 36.3632C107.134 35.6192 106.515 34.76 105.886 34.5872C105.257 34.4144 103.198 34.2368 102.91 34.9232Z" fill="black"/>
<path opacity="0.2" d="M113.725 41.6193C114.258 42.1761 115.165 42.0753 115.789 42.8769C116.413 43.6785 116.187 45.0513 116.989 45.4545C117.791 45.8577 118.362 45.4545 118.429 44.8785C118.496 44.3025 117.287 42.8769 117.397 42.5937C117.507 42.3105 119.058 42.9921 119.403 43.8513C119.749 44.7105 119.058 45.9105 119.859 46.1409C120.661 46.3713 120.488 45.3393 120.819 45.1089C121.151 44.8785 121.904 44.9937 121.847 44.3073C121.789 43.6209 120.887 42.1329 120.133 41.6193C119.379 41.1057 118.818 40.5297 117.555 40.2465C116.293 39.9633 115.098 40.1889 114.464 40.7265C113.831 41.2641 113.403 41.2737 113.725 41.6193Z" fill="black"/>
<path opacity="0.2" d="M138.488 52.4049C138.451 52.6361 138.336 52.8477 138.162 53.0049C136.962 53.8641 135.531 50.8881 133.871 50.3169C132.21 49.7457 131.471 47.6289 131.125 48.0849C130.779 48.5409 130.895 49.1745 130.381 49.9137C129.867 50.6529 129.123 50.4897 128.778 51.9201C128.432 53.3505 130.381 55.9809 129.925 56.8401C129.469 57.6993 128.893 57.4113 127.976 57.3585C127.059 57.3057 127.232 58.0977 126.032 57.7569C124.832 57.4161 125.859 55.9233 123.973 54.1521C122.087 52.3809 121.453 52.0353 121.856 51.2337C122.259 50.4321 121.683 49.2897 122.543 49.1745C123.402 49.0593 124.083 50.3169 124.659 50.6625C125.235 51.0081 125.975 49.9761 126.032 49.0593C126.09 48.1425 124.026 46.8849 123.282 46.1793C122.538 45.4737 122.48 42.8817 122.768 42.3681C123.056 41.8545 123.915 42.0225 124.141 40.7649C124.275 40.0257 123.104 38.7873 122.115 37.8849C128.395 41.7098 133.94 46.6272 138.488 52.4049Z" fill="black"/>
<path opacity="0.2" d="M147.031 103.712C147.204 101.878 146.287 101.763 147.204 98.3889C148.12 95.0145 146.244 91.4049 145.543 90.6609C144.842 89.9169 143.368 90.1473 142.183 90.8913C140.997 91.6353 141.837 92.2065 141.036 92.4945C140.234 92.7825 139.437 92.3217 138.693 92.3793C137.949 92.4369 137.253 94.3233 135.66 94.2657C134.066 94.2081 133.024 91.9233 131.82 90.2913C130.615 88.6593 128.157 87.6273 127.356 85.6257C126.554 83.6241 128.1 80.5329 127.754 78.1857C127.408 75.8385 125.868 76.3569 125.58 75.0417C125.292 73.7265 125.81 74.3553 126.208 73.0929C126.607 71.8305 125.752 71.1489 126.554 68.9745C127.356 66.8001 128.786 65.7105 128.44 64.7409C128.095 63.7713 127 62.1633 126.952 61.0209C126.904 59.8785 128.042 59.9313 130.216 58.3281C132.391 56.7249 132.962 56.8401 134.623 57.4113C135.814 57.8513 137.039 58.1964 138.285 58.4433C139.245 58.6161 140.575 61.1313 140.973 61.0161C141.372 60.9009 141.453 60.1617 141.607 59.0961C141.716 58.6236 141.963 58.1942 142.317 57.8625C148.78 68.2193 152.004 80.2695 151.576 92.4698C151.149 104.67 147.089 116.465 139.917 126.344C145.725 117.411 146.858 105.541 147.031 103.712Z" fill="black"/>
</g>
<path opacity="0.1" d="M137.786 129.046C131.247 137.058 122.788 143.284 113.195 147.147C103.602 151.009 93.1884 152.382 82.9225 151.136C72.6567 149.891 62.8729 146.069 54.4818 140.025C46.0906 133.981 39.3651 125.913 34.9313 116.57C30.4975 107.228 28.4995 96.9157 29.1234 86.5935C29.7472 76.2713 32.9727 66.2747 38.4994 57.5344C44.0262 48.7941 51.6745 41.5943 60.7324 36.6051C69.7904 31.616 79.9634 28.9997 90.3045 29C91.9845 29 93.6501 29.0672 95.3013 29.2016C95.7573 29.2352 96.2133 29.2784 96.6645 29.3264C88.003 30.2704 79.6801 33.2168 72.3538 37.9324C65.0275 42.648 58.8989 49.0036 54.4527 56.4964C50.0064 63.9892 47.3645 72.4137 46.7359 81.1037C46.1073 89.7937 47.5092 98.5108 50.8307 106.566C54.1522 114.62 59.3023 121.792 65.8736 127.513C72.4449 133.234 80.2571 137.347 88.6925 139.528C97.1279 141.709 105.955 141.897 114.476 140.078C122.996 138.259 130.977 134.482 137.786 129.046Z" fill="black"/>
<path opacity="0.3" d="M151.596 90.2912C151.619 103.239 147.519 115.859 139.889 126.32C134.141 134.218 126.595 140.635 117.876 145.04C125.47 140.698 132.058 134.795 137.206 127.722C144.422 117.788 148.508 105.926 148.941 93.6557C149.375 81.3853 146.136 69.2648 139.639 58.8464C134.522 50.6674 127.566 43.7956 119.326 38.7776C111.146 33.7869 101.91 30.7849 92.3593 30.0128C90.7033 29.8784 89.0233 29.8112 87.3385 29.8112C82.3523 29.8142 77.3848 30.4218 72.5449 31.6208C78.3038 29.8784 84.2882 28.9952 90.3049 29C91.9849 29 93.6505 29.0672 95.3017 29.2016C104.796 29.9598 113.98 32.9356 122.115 37.8896C128.394 41.7129 133.939 46.6288 138.487 52.4048C146.986 63.2038 151.604 76.5489 151.596 90.2912Z" fill="white"/>
<path d="M117.383 67.9809H148.343C148.343 67.9809 146.802 65.9745 145.103 65.7249C145.103 65.7249 141.805 55.8993 136.28 55.8321C131.14 55.7649 129.08 61.8753 129.08 61.8753C129.08 61.8753 126.704 59.1345 124.429 60.3873C122.154 61.6401 120.868 65.2257 120.868 65.2257C120.868 65.2257 118.309 66.6033 117.383 67.9809Z" fill="white"/>
<path d="M89.1092 97.5105H49.9844C49.9844 97.5105 49.9844 95.0097 55.3796 94.5201C55.3796 94.5201 60.3044 83.5857 67.8212 85.0545C72.5012 85.9713 74.8964 92.3985 74.8964 92.3985C74.8964 92.3985 78.434 87.3393 81.266 88.3185C84.098 89.2977 85.7732 94.6833 85.7732 94.6833C85.7732 94.6833 88.6676 96.0945 89.1092 97.5105Z" fill="white"/>
<path d="M126.242 53.4128H99.6211C99.6211 53.4128 102.131 51.0752 103.25 51.0752C104.368 51.0752 107.623 43.2272 111.789 43.5632C115.955 43.8992 118.144 49.7408 118.144 49.7408C118.144 49.7408 123.223 48.152 126.242 53.4128Z" fill="white"/>
<path d="M55.034 108.618H32.2676C32.2676 108.618 33.4004 107.144 34.6676 106.962C34.6676 106.962 37.0964 99.7376 41.1572 99.6848C44.9348 99.6368 46.4372 104.125 46.4372 104.125C46.4372 104.125 48.1844 102.114 49.8596 103.035C51.5348 103.957 52.4756 106.592 52.4756 106.592C52.4756 106.592 54.3524 107.605 55.034 108.618Z" fill="white"/>
<path d="M103.016 127.29H133.985C133.985 127.29 132.444 125.288 130.745 125.038C130.745 125.038 127.448 115.213 121.923 115.141C116.787 115.078 114.723 121.184 114.723 121.184C114.723 121.184 112.323 118.443 110.067 119.696C107.811 120.949 106.505 124.534 106.505 124.534C106.505 124.534 103.942 125.912 103.016 127.29Z" fill="white"/>
</svg>
