<svg width="112" height="114" viewBox="0 0 112 114" fill="none" xmlns="http://www.w3.org/2000/svg">
<path d="M62.0469 101.344H86.2344V113.438H62.0469V101.344Z" fill="#C5C4D4"/>
<path d="M103.045 70.2828L111.813 37.549C111.913 37.2089 111.961 36.8554 111.954 36.5009C111.95 35.5779 111.63 34.684 111.047 33.9686C110.464 33.2532 109.652 32.7597 108.749 32.5704C107.69 32.4061 106.609 32.6468 105.719 33.2445C104.83 33.8422 104.199 34.7531 103.952 35.7954L97.7234 55.0044L97.8444 55.1858C98.9094 57.0351 99.1993 59.2308 98.6506 61.2931C98.3808 62.3196 97.9083 63.2818 97.2609 64.123C96.6136 64.9641 95.8046 65.6673 94.8814 66.1911L83.3319 72.8628C82.8712 73.1038 82.3353 73.1574 81.836 73.0126C81.3367 72.8677 80.9127 72.5356 80.6525 72.0855C80.3923 71.6354 80.3161 71.1022 80.4398 70.5972C80.5635 70.0923 80.8775 69.6547 81.3162 69.3758L92.8658 62.704C93.3264 62.442 93.7308 62.0917 94.0559 61.6732C94.3811 61.2547 94.6205 60.7762 94.7605 60.2651C95.0253 59.2301 94.8809 58.1327 94.3573 57.2014C94.0923 56.7411 93.7389 56.3378 93.3175 56.0145C92.8961 55.6913 92.415 55.4545 91.9018 55.3178C91.3886 55.181 90.8534 55.1471 90.327 55.2178C89.8006 55.2885 89.2934 55.4626 88.8345 55.73L71.0366 66.1508C68.9203 67.4034 67.1651 69.1836 65.9427 71.3175C64.7203 73.4514 64.0725 75.8659 64.0625 78.3251V97.3123H84.2187V92.878C84.2229 91.4561 84.5245 90.0509 85.1042 88.7526C85.684 87.4543 86.5289 86.2917 87.5848 85.3395L101.231 73.2256C102.111 72.4436 102.741 71.4203 103.045 70.2828Z" fill="#C5C4D4"/>
<path d="M94.4583 52.0011L100.082 34.6465C100.538 32.9046 101.551 31.3594 102.967 30.2461C104.382 29.1327 106.122 28.5121 107.923 28.4787V28.4384C107.919 27.5154 107.599 26.6215 107.016 25.9061C106.432 25.1907 105.621 24.6972 104.718 24.5079C103.659 24.3436 102.577 24.5843 101.688 25.182C100.799 25.7797 100.168 26.6906 99.9206 27.7329L91.7573 51.2351C92.694 51.3383 93.6069 51.5972 94.4583 52.0011Z" fill="#C5C4D4"/>
<path d="M8.95513 70.2627C9.25307 71.4082 9.88444 72.4395 10.7692 73.2257L24.3948 85.3396C25.457 86.2879 26.3074 87.4493 26.8909 88.7481C27.4743 90.047 27.7776 91.4542 27.7811 92.878V97.3124H47.9373V78.3252C47.9273 75.866 47.2795 73.4515 46.0571 71.3176C44.8347 69.1837 43.0796 67.4035 40.9633 66.1508L23.1451 55.7099C22.6859 55.4465 22.1793 55.2762 21.6542 55.2086C21.1291 55.141 20.5958 55.1775 20.0849 55.316C19.5739 55.4545 19.0952 55.6923 18.6761 56.0158C18.2571 56.3393 17.9058 56.7422 17.6425 57.2015C17.1189 58.1328 16.9745 59.2301 17.2393 60.2652C17.3794 60.7763 17.6188 61.2548 17.9439 61.6733C18.269 62.0918 18.6734 62.4421 19.134 62.7041L30.6836 69.3758C31.1223 69.6547 31.4363 70.0924 31.56 70.5973C31.6837 71.1023 31.6075 71.6355 31.3473 72.0856C31.0871 72.5357 30.6631 72.8678 30.1638 73.0127C29.6645 73.1575 29.1286 73.1038 28.6679 72.8629L17.1184 66.1912C16.1952 65.6674 15.3862 64.9642 14.7389 64.123C14.0916 63.2819 13.6191 62.3197 13.3492 61.2932C12.8005 59.2308 13.0904 57.0352 14.1554 55.1858L14.2764 55.0044L8.08841 35.8963C7.84885 34.8307 7.21469 33.8953 6.31348 33.2783C5.41227 32.6613 4.31085 32.4084 3.23075 32.5705C2.33102 32.7638 1.52449 33.259 0.945155 33.974C0.365819 34.689 0.048552 35.5807 0.0460653 36.501C0.042946 36.854 0.0835686 37.2061 0.167004 37.5491L8.95513 70.2627Z" fill="#C5C4D4"/>
<path d="M25.7656 101.344H49.9531V113.438H25.7656V101.344Z" fill="#C5C4D4"/>
<path d="M7.26233 24.5078C6.36259 24.7011 5.55606 25.1963 4.97673 25.9114C4.39739 26.6264 4.08012 27.5181 4.07764 28.4383V28.4786C5.89393 28.5255 7.64553 29.1627 9.06747 30.2937C10.4894 31.4247 11.5043 32.988 11.9587 34.7472L17.542 52.001C18.3934 51.5971 19.3063 51.3382 20.243 51.235L12.1401 27.8739C11.9018 26.8009 11.2666 25.8577 10.362 25.2334C9.4573 24.6091 8.35008 24.3499 7.26233 24.5078Z" fill="#C5C4D4"/>
<path d="M58.0156 22.7344V14.6719H53.9844V22.7344H45.9219V26.7656H53.9844V34.8281H58.0156V26.7656H66.0781V22.7344H58.0156Z" fill="#C5C4D4"/>
<path d="M70.2502 0.965425C68.1329 0.957935 66.0354 1.37202 64.0798 2.18352C62.1242 2.99503 60.3498 4.18772 58.8599 5.69207L57.4248 7.12719C57.0468 7.50506 56.5342 7.71734 55.9997 7.71734C55.4653 7.71734 54.9527 7.50506 54.5747 7.12719L53.1436 5.6961C51.6471 4.19638 49.8695 3.00655 47.9126 2.19472C45.9556 1.3829 43.8578 0.965027 41.7392 0.965027C39.6205 0.965027 37.5227 1.3829 35.5658 2.19472C33.6088 3.00655 31.8313 4.19638 30.3348 5.6961C27.3155 8.71949 25.6196 12.8176 25.6196 17.0904C25.6196 21.3632 27.3155 25.4614 30.3348 28.4848L55.9997 54.1497L81.6647 28.4848C83.9179 26.2285 85.4516 23.3548 86.0718 20.227C86.6921 17.0993 86.3711 13.8578 85.1494 10.9124C83.9277 7.96708 81.8602 5.45004 79.2082 3.67953C76.5563 1.90901 73.4389 0.96451 70.2502 0.965425ZM70.1091 28.7811C70.1091 29.3156 69.8967 29.8283 69.5187 30.2063C69.1407 30.5843 68.6281 30.7967 68.0935 30.7967H62.0466V36.8436C62.0466 37.3781 61.8342 37.8908 61.4562 38.2688C61.0782 38.6468 60.5656 38.8592 60.031 38.8592H51.9685C51.4339 38.8592 50.9212 38.6468 50.5432 38.2688C50.1652 37.8908 49.9529 37.3781 49.9529 36.8436V30.7967H43.906C43.3714 30.7967 42.8587 30.5843 42.4807 30.2063C42.1027 29.8283 41.8903 29.3156 41.8903 28.7811V20.7186C41.8903 20.184 42.1027 19.6713 42.4807 19.2933C42.8587 18.9153 43.3714 18.7029 43.906 18.7029H49.9529V12.6561C49.9529 12.1215 50.1652 11.6088 50.5432 11.2308C50.9212 10.8528 51.4339 10.6404 51.9685 10.6404H60.031C60.5656 10.6404 61.0782 10.8528 61.4562 11.2308C61.8342 11.6088 62.0466 12.1215 62.0466 12.6561V18.7029H68.0935C68.6281 18.7029 69.1407 18.9153 69.5187 19.2933C69.8967 19.6713 70.1091 20.184 70.1091 20.7186V28.7811Z" fill="#C5C4D4"/>
</svg>
