<svg width="180" height="180" viewBox="0 0 180 180" fill="none" xmlns="http://www.w3.org/2000/svg">
<path d="M90 180C139.706 180 180 139.706 180 90C180 40.2944 139.706 0 90 0C40.2944 0 0 40.2944 0 90C0 139.706 40.2944 180 90 180Z" fill="#F0F4FE"/>
<path d="M97.2889 86.9355C86.2304 101.723 72.1232 113.962 55.9228 122.823C39.7364 113.956 25.6419 101.718 14.5914 86.9355C0.0408702 67.7441 0.756186 37.5089 21.5701 30.9838C44.6696 23.7783 55.9751 58.5148 55.9751 58.5148C55.9751 58.5148 67.4725 23.6213 90.3451 31.0711C111.107 37.7357 111.892 67.6743 97.2889 86.9355Z" fill="#C2C7D6"/>
<path d="M39.7309 107.592L33.4676 81.4572L29.3676 90.6691H4V87.7206H27.4484L34.2876 72.3151L39.1901 92.6929L46.1164 50.4718L52.2228 83.8649L57.0555 69.9249L64.6623 92.7453L66.3546 87.7032H108V90.6517H68.4657L64.6623 102.062L57.0032 79.0845L51.333 95.4495L46.2735 67.7441L39.7309 107.592Z" fill="white"/>
<path d="M143.881 136.898C139.628 142.586 134.202 147.293 127.971 150.701C121.745 147.291 116.324 142.584 112.074 136.898C106.478 129.517 106.753 117.888 114.758 115.378C123.643 112.607 127.991 125.967 127.991 125.967C127.991 125.967 132.413 112.547 141.21 115.412C149.195 117.975 149.497 129.49 143.881 136.898Z" fill="#C2C7D6"/>
<path d="M121.743 144.843L119.334 134.791L117.757 138.334H108V137.2H117.019L119.649 131.275L121.535 139.113L124.199 122.874L126.547 135.717L128.406 130.356L131.332 139.133L131.983 137.194H148V138.328H132.795L131.332 142.716L128.386 133.879L126.205 140.173L124.259 129.517L121.743 144.843Z" fill="white"/>
</svg>
