<svg width="299" height="213" viewBox="0 0 299 213" fill="none" xmlns="http://www.w3.org/2000/svg">
<g clip-path="url(#clip0)">
<path d="M14.2719 43.3678C16.8944 43.3678 19.0203 41.2396 19.0203 38.6143C19.0203 35.9891 16.8944 33.8608 14.2719 33.8608C11.6494 33.8608 9.52344 35.9891 9.52344 38.6143C9.52344 41.2396 11.6494 43.3678 14.2719 43.3678Z" fill="#E6E6E6"/>
<path d="M28.518 43.3678C31.1405 43.3678 33.2664 41.2396 33.2664 38.6143C33.2664 35.9891 31.1405 33.8608 28.518 33.8608C25.8955 33.8608 23.7695 35.9891 23.7695 38.6143C23.7695 41.2396 25.8955 43.3678 28.518 43.3678Z" fill="#E6E6E6"/>
<path d="M42.7641 43.3678C45.3866 43.3678 47.5125 41.2396 47.5125 38.6143C47.5125 35.9891 45.3866 33.8608 42.7641 33.8608C40.1416 33.8608 38.0156 35.9891 38.0156 38.6143C38.0156 41.2396 40.1416 43.3678 42.7641 43.3678Z" fill="#E6E6E6"/>
<path d="M57.0102 43.3678C59.6327 43.3678 61.7586 41.2396 61.7586 38.6143C61.7586 35.9891 59.6327 33.8608 57.0102 33.8608C54.3877 33.8608 52.2617 35.9891 52.2617 38.6143C52.2617 41.2396 54.3877 43.3678 57.0102 43.3678Z" fill="#E6E6E6"/>
<path d="M71.2563 43.3678C73.8788 43.3678 76.0047 41.2396 76.0047 38.6143C76.0047 35.9891 73.8788 33.8608 71.2563 33.8608C68.6338 33.8608 66.5078 35.9891 66.5078 38.6143C66.5078 41.2396 68.6338 43.3678 71.2563 43.3678Z" fill="#E6E6E6"/>
<path d="M85.4984 43.3678C88.1209 43.3678 90.2469 41.2396 90.2469 38.6143C90.2469 35.9891 88.1209 33.8608 85.4984 33.8608C82.876 33.8608 80.75 35.9891 80.75 38.6143C80.75 41.2396 82.876 43.3678 85.4984 43.3678Z" fill="#E6E6E6"/>
<path d="M99.7445 43.3678C102.367 43.3678 104.493 41.2396 104.493 38.6143C104.493 35.9891 102.367 33.8608 99.7445 33.8608C97.122 33.8608 94.9961 35.9891 94.9961 38.6143C94.9961 41.2396 97.122 43.3678 99.7445 43.3678Z" fill="#E6E6E6"/>
<path d="M110.717 44.4029H3.29955C2.78724 44.4023 2.29609 44.1983 1.93383 43.8357C1.57157 43.473 1.36779 42.9814 1.36719 42.4685V34.7601C1.36779 34.2473 1.57157 33.7556 1.93383 33.3929C2.29609 33.0303 2.78724 32.8263 3.29955 32.8257H110.717C111.229 32.8263 111.721 33.0303 112.083 33.3929C112.445 33.7556 112.649 34.2473 112.649 34.7601V42.4685C112.649 42.9814 112.445 43.473 112.083 43.8357C111.721 44.1983 111.229 44.4023 110.717 44.4029ZM3.29955 33.5995C2.99216 33.5998 2.69745 33.7222 2.48009 33.9398C2.26273 34.1574 2.14047 34.4524 2.14013 34.7601V42.4685C2.14047 42.7762 2.26273 43.0712 2.48009 43.2888C2.69745 43.5064 2.99216 43.6288 3.29955 43.6292H110.717C111.024 43.6288 111.319 43.5064 111.537 43.2888C111.754 43.0712 111.876 42.7762 111.876 42.4685V34.7601C111.876 34.4524 111.754 34.1574 111.537 33.9398C111.319 33.7222 111.024 33.5998 110.717 33.5995L3.29955 33.5995Z" fill="#E6E6E6"/>
<path d="M26.2883 1.11144C26.5826 1.11178 26.8648 1.22898 27.073 1.43734C27.2811 1.6457 27.3982 1.9282 27.3985 2.22286V26.3076C27.3982 26.6022 27.2811 26.8847 27.073 27.0931C26.8648 27.3014 26.5826 27.4186 26.2883 27.419H2.72053C2.42618 27.4186 2.14398 27.3014 1.93584 27.0931C1.7277 26.8847 1.61062 26.6022 1.61028 26.3076V2.22288C1.61062 1.92822 1.7277 1.64572 1.93584 1.43736C2.14398 1.229 2.42618 1.11179 2.72053 1.11146H26.2883V1.11144ZM26.2883 1.59639e-05H2.72053C2.13161 1.59639e-05 1.56681 0.234211 1.15038 0.651083C0.733952 1.06795 0.5 1.63336 0.5 2.2229V26.3076C0.5 26.8971 0.733952 27.4625 1.15038 27.8794C1.56681 28.2962 2.13161 28.5304 2.72053 28.5304H26.2883C26.8772 28.5304 27.442 28.2962 27.8584 27.8794C28.2749 27.4625 28.5088 26.8971 28.5088 26.3076V2.22288C28.5088 1.63334 28.2749 1.06794 27.8584 0.651067C27.442 0.234195 26.8772 9.24906e-07 26.2883 0V1.59639e-05Z" fill="#E6E6E6"/>
<path d="M22.6109 7.442H6.88666C6.81348 7.44245 6.74093 7.42841 6.67318 7.40069C6.60544 7.37296 6.54384 7.3321 6.49193 7.28045C6.44002 7.2288 6.39882 7.16739 6.37071 7.09974C6.3426 7.0321 6.32812 6.95956 6.32812 6.88629C6.32812 6.81303 6.3426 6.74048 6.37071 6.67284C6.39882 6.60519 6.44002 6.54378 6.49193 6.49213C6.54384 6.44048 6.60544 6.39962 6.67318 6.3719C6.74093 6.34417 6.81348 6.33013 6.88666 6.33058H22.6109C22.6841 6.33013 22.7566 6.34417 22.8244 6.3719C22.8921 6.39962 22.9537 6.44048 23.0056 6.49213C23.0575 6.54378 23.0987 6.60519 23.1269 6.67284C23.155 6.74048 23.1694 6.81303 23.1694 6.88629C23.1694 6.95956 23.155 7.0321 23.1269 7.09974C23.0987 7.16739 23.0575 7.2288 23.0056 7.28045C22.9537 7.3321 22.8921 7.37296 22.8244 7.40069C22.7566 7.42841 22.6841 7.44245 22.6109 7.442Z" fill="#080056"/>
<path d="M22.6109 11.378H6.88666C6.81348 11.3785 6.74093 11.3644 6.67318 11.3367C6.60544 11.309 6.54384 11.2681 6.49193 11.2165C6.44002 11.1648 6.39882 11.1034 6.37071 11.0358C6.3426 10.9681 6.32812 10.8956 6.32812 10.8223C6.32812 10.7491 6.3426 10.6765 6.37071 10.6089C6.39882 10.5412 6.44002 10.4798 6.49193 10.4282C6.54384 10.3765 6.60544 10.3357 6.67318 10.3079C6.74093 10.2802 6.81348 10.2662 6.88666 10.2666H22.6109C22.6841 10.2662 22.7566 10.2802 22.8244 10.3079C22.8921 10.3357 22.9537 10.3765 23.0056 10.4282C23.0575 10.4798 23.0987 10.5412 23.1269 10.6089C23.155 10.6765 23.1694 10.7491 23.1694 10.8223C23.1694 10.8956 23.155 10.9681 23.1269 11.0358C23.0987 11.1034 23.0575 11.1648 23.0056 11.2165C22.9537 11.2681 22.8921 11.309 22.8244 11.3367C22.7566 11.3644 22.6841 11.3785 22.6109 11.378Z" fill="#080056"/>
<path d="M22.6109 15.3126H6.88666C6.81348 15.3131 6.74093 15.299 6.67318 15.2713C6.60544 15.2436 6.54384 15.2027 6.49193 15.1511C6.44002 15.0994 6.39882 15.038 6.37071 14.9703C6.3426 14.9027 6.32812 14.8302 6.32812 14.7569C6.32812 14.6836 6.3426 14.6111 6.37071 14.5434C6.39882 14.4758 6.44002 14.4144 6.49193 14.3627C6.54384 14.3111 6.60544 14.2702 6.67318 14.2425C6.74093 14.2148 6.81348 14.2007 6.88666 14.2012H22.6109C22.6841 14.2007 22.7566 14.2148 22.8244 14.2425C22.8921 14.2702 22.9537 14.3111 23.0056 14.3627C23.0575 14.4144 23.0987 14.4758 23.1269 14.5434C23.155 14.6111 23.1694 14.6836 23.1694 14.7569C23.1694 14.8302 23.155 14.9027 23.1269 14.9703C23.0987 15.038 23.0575 15.0994 23.0056 15.1511C22.9537 15.2027 22.8921 15.2436 22.8244 15.2713C22.7566 15.299 22.6841 15.3131 22.6109 15.3126Z" fill="#080056"/>
<path d="M22.6109 19.2482H6.88666C6.81348 19.2486 6.74093 19.2346 6.67318 19.2068C6.60544 19.1791 6.54384 19.1382 6.49193 19.0866C6.44002 19.035 6.39882 18.9735 6.37071 18.9059C6.3426 18.8382 6.32812 18.7657 6.32812 18.6924C6.32812 18.6192 6.3426 18.5466 6.37071 18.479C6.39882 18.4113 6.44002 18.3499 6.49193 18.2983C6.54384 18.2466 6.60544 18.2058 6.67318 18.178C6.74093 18.1503 6.81348 18.1363 6.88666 18.1367H22.6109C22.6841 18.1363 22.7566 18.1503 22.8244 18.178C22.8921 18.2058 22.9537 18.2466 23.0056 18.2983C23.0575 18.3499 23.0987 18.4113 23.1269 18.479C23.155 18.5466 23.1694 18.6192 23.1694 18.6924C23.1694 18.7657 23.155 18.8382 23.1269 18.9059C23.0987 18.9735 23.0575 19.035 23.0056 19.0866C22.9537 19.1382 22.8921 19.1791 22.8244 19.2068C22.7566 19.2346 22.6841 19.2486 22.6109 19.2482Z" fill="#080056"/>
<path d="M22.6114 23.1837H6.88716C6.73993 23.1837 6.59873 23.1252 6.49462 23.0209C6.39051 22.9167 6.33203 22.7754 6.33203 22.628C6.33203 22.4806 6.39051 22.3393 6.49462 22.235C6.59873 22.1308 6.73993 22.0723 6.88716 22.0723H22.6114C22.7586 22.0723 22.8998 22.1308 23.0039 22.235C23.108 22.3393 23.1665 22.4806 23.1665 22.628C23.1665 22.7754 23.108 22.9167 23.0039 23.0209C22.8998 23.1252 22.7586 23.1837 22.6114 23.1837Z" fill="#080056"/>
<path d="M106.784 1.11144C107.079 1.11178 107.361 1.22898 107.569 1.43734C107.777 1.6457 107.894 1.9282 107.895 2.22286V26.3076C107.894 26.6022 107.777 26.8847 107.569 27.0931C107.361 27.3014 107.079 27.4186 106.784 27.419H83.2166C82.9223 27.4186 82.6401 27.3014 82.4319 27.0931C82.2238 26.8847 82.1067 26.6022 82.1064 26.3076V2.22288C82.1067 1.92822 82.2238 1.64572 82.4319 1.43736C82.6401 1.229 82.9223 1.11179 83.2166 1.11146H106.784V1.11144ZM106.784 1.59639e-05H83.2166C82.6277 1.59639e-05 82.0629 0.234211 81.6465 0.651083C81.23 1.06795 80.9961 1.63336 80.9961 2.2229V26.3076C80.9961 26.8971 81.23 27.4625 81.6465 27.8794C82.0629 28.2962 82.6277 28.5304 83.2166 28.5304H106.784C107.373 28.5304 107.938 28.2962 108.355 27.8794C108.771 27.4625 109.005 26.8971 109.005 26.3076V2.22288C109.005 1.63334 108.771 1.06794 108.355 0.651067C107.938 0.234195 107.373 0 106.784 0V1.59639e-05Z" fill="#E6E6E6"/>
<path d="M103.107 7.442H87.3828C87.3096 7.44245 87.237 7.42841 87.1693 7.40069C87.1015 7.37296 87.0399 7.3321 86.988 7.28045C86.9361 7.2288 86.8949 7.16739 86.8668 7.09974C86.8387 7.0321 86.8242 6.95956 86.8242 6.88629C86.8242 6.81303 86.8387 6.74048 86.8668 6.67284C86.8949 6.60519 86.9361 6.54378 86.988 6.49213C87.0399 6.44048 87.1015 6.39962 87.1693 6.3719C87.237 6.34417 87.3096 6.33013 87.3828 6.33058H103.107C103.254 6.33148 103.394 6.39042 103.497 6.49454C103.601 6.59866 103.659 6.7395 103.659 6.88629C103.659 7.03309 103.601 7.17392 103.497 7.27804C103.394 7.38215 103.254 7.4411 103.107 7.442H103.107Z" fill="#080056"/>
<path d="M103.107 11.378H87.3828C87.3096 11.3785 87.237 11.3644 87.1693 11.3367C87.1015 11.309 87.0399 11.2681 86.988 11.2165C86.9361 11.1648 86.8949 11.1034 86.8668 11.0358C86.8387 10.9681 86.8242 10.8956 86.8242 10.8223C86.8242 10.7491 86.8387 10.6765 86.8668 10.6089C86.8949 10.5412 86.9361 10.4798 86.988 10.4282C87.0399 10.3765 87.1015 10.3357 87.1693 10.3079C87.237 10.2802 87.3096 10.2662 87.3828 10.2666H103.107C103.254 10.2675 103.394 10.3265 103.497 10.4306C103.601 10.5347 103.659 10.6755 103.659 10.8223C103.659 10.9691 103.601 11.11 103.497 11.2141C103.394 11.3182 103.254 11.3771 103.107 11.378H103.107Z" fill="#080056"/>
<path d="M103.107 15.3126H87.3828C87.3096 15.3131 87.237 15.299 87.1693 15.2713C87.1015 15.2436 87.0399 15.2027 86.988 15.1511C86.9361 15.0994 86.8949 15.038 86.8668 14.9703C86.8387 14.9027 86.8242 14.8302 86.8242 14.7569C86.8242 14.6836 86.8387 14.6111 86.8668 14.5434C86.8949 14.4758 86.9361 14.4144 86.988 14.3627C87.0399 14.3111 87.1015 14.2702 87.1693 14.2425C87.237 14.2148 87.3096 14.2007 87.3828 14.2012H103.107C103.254 14.2021 103.394 14.261 103.497 14.3651C103.601 14.4693 103.659 14.6101 103.659 14.7569C103.659 14.9037 103.601 15.0445 103.497 15.1486C103.394 15.2528 103.254 15.3117 103.107 15.3126H103.107Z" fill="#080056"/>
<path d="M103.107 19.2482H87.3828C87.3096 19.2486 87.237 19.2346 87.1693 19.2068C87.1015 19.1791 87.0399 19.1382 86.988 19.0866C86.9361 19.035 86.8949 18.9735 86.8668 18.9059C86.8387 18.8382 86.8242 18.7657 86.8242 18.6924C86.8242 18.6192 86.8387 18.5466 86.8668 18.479C86.8949 18.4113 86.9361 18.3499 86.988 18.2983C87.0399 18.2466 87.1015 18.2058 87.1693 18.178C87.237 18.1503 87.3096 18.1363 87.3828 18.1367H103.107C103.254 18.1376 103.394 18.1966 103.497 18.3007C103.601 18.4048 103.659 18.5456 103.659 18.6924C103.659 18.8392 103.601 18.9801 103.497 19.0842C103.394 19.1883 103.254 19.2473 103.107 19.2482H103.107Z" fill="#080056"/>
<path d="M103.107 23.1837H87.3833C87.236 23.1837 87.0948 23.1252 86.9907 23.0209C86.8866 22.9167 86.8281 22.7754 86.8281 22.628C86.8281 22.4806 86.8866 22.3393 86.9907 22.235C87.0948 22.1308 87.236 22.0723 87.3833 22.0723H103.108C103.255 22.0723 103.396 22.1308 103.5 22.235C103.604 22.3393 103.663 22.4806 103.663 22.628C103.663 22.7754 103.604 22.9167 103.5 23.0209C103.396 23.1252 103.255 23.1837 103.108 23.1837H103.107Z" fill="#080056"/>
<path d="M186.886 47.4205C187.18 47.4209 187.462 47.5381 187.671 47.7464C187.879 47.9548 187.996 48.2373 187.996 48.532V72.6166C187.996 72.9113 187.879 73.1938 187.671 73.4021C187.462 73.6105 187.18 73.7277 186.886 73.728H163.318C163.024 73.7277 162.742 73.6105 162.534 73.4021C162.325 73.1938 162.208 72.9113 162.208 72.6166V48.532C162.208 48.2373 162.325 47.9548 162.534 47.7464C162.742 47.5381 163.024 47.4209 163.318 47.4205H186.886V47.4205ZM186.886 46.3091H163.318C162.729 46.3091 162.164 46.5433 161.748 46.9602C161.332 47.3771 161.098 47.9425 161.098 48.532V72.6167C161.098 73.2062 161.332 73.7716 161.748 74.1885C162.164 74.6054 162.729 74.8396 163.318 74.8396H186.886C187.475 74.8396 188.04 74.6054 188.456 74.1885C188.873 73.7716 189.106 73.2062 189.106 72.6167V48.532C189.106 47.9424 188.873 47.377 188.456 46.9602C188.04 46.5433 187.475 46.3091 186.886 46.3091V46.3091Z" fill="#080056"/>
<path d="M183.209 53.7516H167.484C167.411 53.752 167.339 53.738 167.271 53.7103C167.203 53.6825 167.141 53.6417 167.09 53.59C167.038 53.5384 166.996 53.477 166.968 53.4093C166.94 53.3417 166.926 53.2691 166.926 53.1959C166.926 53.1226 166.94 53.0501 166.968 52.9824C166.996 52.9148 167.038 52.8534 167.09 52.8017C167.141 52.7501 167.203 52.7092 167.271 52.6815C167.339 52.6537 167.411 52.6397 167.484 52.6401H183.209C183.355 52.641 183.495 52.7 183.599 52.8041C183.702 52.9082 183.76 53.0491 183.76 53.1959C183.76 53.3427 183.702 53.4835 183.599 53.5876C183.495 53.6917 183.355 53.7507 183.209 53.7516Z" fill="#080056"/>
<path d="M183.209 57.6871H167.485C167.338 57.6871 167.196 57.6286 167.092 57.5244C166.988 57.4201 166.93 57.2788 166.93 57.1314C166.93 56.984 166.988 56.8427 167.092 56.7385C167.196 56.6342 167.338 56.5757 167.485 56.5757H183.209C183.356 56.5757 183.497 56.6342 183.602 56.7385C183.706 56.8427 183.764 56.984 183.764 57.1314C183.764 57.2788 183.706 57.4201 183.602 57.5244C183.497 57.6286 183.356 57.6871 183.209 57.6871Z" fill="#080056"/>
<path d="M183.208 61.6217H167.484C167.411 61.622 167.338 61.6079 167.27 61.5802C167.203 61.5524 167.141 61.5115 167.089 61.4599C167.038 61.4083 166.996 61.3469 166.968 61.2793C166.94 61.2117 166.926 61.1392 166.926 61.066C166.926 60.9927 166.94 60.9203 166.968 60.8527C166.996 60.7851 167.038 60.7237 167.089 60.672C167.141 60.6204 167.203 60.5795 167.27 60.5518C167.338 60.524 167.411 60.5099 167.484 60.5103H183.208C183.355 60.5112 183.495 60.5701 183.598 60.6742C183.702 60.7783 183.76 60.9192 183.76 61.066C183.76 61.2128 183.702 61.3536 183.598 61.4577C183.495 61.5618 183.355 61.6208 183.208 61.6217Z" fill="#080056"/>
<path d="M183.209 65.5572H167.484C167.411 65.5577 167.339 65.5437 167.271 65.5159C167.203 65.4882 167.141 65.4473 167.09 65.3957C167.038 65.344 166.996 65.2826 166.968 65.215C166.94 65.1473 166.926 65.0748 166.926 65.0015C166.926 64.9283 166.94 64.8557 166.968 64.7881C166.996 64.7204 167.038 64.659 167.09 64.6074C167.141 64.5557 167.203 64.5149 167.271 64.4871C167.339 64.4594 167.411 64.4454 167.484 64.4458H183.209C183.355 64.4467 183.495 64.5057 183.599 64.6098C183.702 64.7139 183.76 64.8547 183.76 65.0015C183.76 65.1483 183.702 65.2892 183.599 65.3933C183.495 65.4974 183.355 65.5563 183.209 65.5572Z" fill="#080056"/>
<path d="M183.209 69.4928H167.484C167.411 69.4932 167.339 69.4792 167.271 69.4515C167.203 69.4237 167.141 69.3829 167.09 69.3312C167.038 69.2796 166.996 69.2182 166.968 69.1505C166.94 69.0829 166.926 69.0103 166.926 68.9371C166.926 68.8638 166.94 68.7913 166.968 68.7236C166.996 68.656 167.038 68.5946 167.09 68.5429C167.141 68.4913 167.203 68.4504 167.271 68.4227C167.339 68.3949 167.411 68.3809 167.484 68.3814H183.209C183.355 68.3823 183.495 68.4412 183.599 68.5453C183.702 68.6494 183.76 68.7903 183.76 68.9371C183.76 69.0839 183.702 69.2247 183.599 69.3288C183.495 69.4329 183.355 69.4919 183.209 69.4928Z" fill="#080056"/>
<path d="M66.8432 28.5304H42.6583C42.0043 28.5296 41.3773 28.2692 40.9148 27.8062C40.4523 27.3433 40.1922 26.7156 40.1914 26.0609V8.7369C40.1921 8.08213 40.4523 7.45438 40.9147 6.99136C41.3772 6.52834 42.0043 6.26787 42.6583 6.26709H66.8432C67.4973 6.26781 68.1244 6.52825 68.587 6.99128C69.0495 7.4543 69.3097 8.08209 69.3104 8.7369V26.0609C69.3096 26.7156 69.0494 27.3434 68.5869 27.8063C68.1244 28.2693 67.4973 28.5297 66.8432 28.5304ZM42.6583 7.37853C42.2986 7.37898 41.9538 7.52224 41.6994 7.7769C41.4451 8.03155 41.3021 8.3768 41.3017 8.7369V26.0609C41.3021 26.4209 41.4451 26.7662 41.6995 27.0208C41.9538 27.2754 42.2986 27.4186 42.6583 27.419H66.8432C67.2029 27.4186 67.5478 27.2754 67.8022 27.0208C68.0566 26.7662 68.1997 26.421 68.2001 26.0609V8.7369C68.1997 8.37677 68.0566 8.03152 67.8022 7.77687C67.5478 7.52222 67.2029 7.37897 66.8432 7.37853H42.6583Z" fill="#E6E6E6"/>
<path d="M62.6119 14.0191H46.8877C46.741 14.0182 46.6007 13.9593 46.4973 13.8552C46.394 13.7511 46.3359 13.6102 46.3359 13.4634C46.3359 13.3166 46.394 13.1758 46.4973 13.0717C46.6007 12.9676 46.741 12.9086 46.8877 12.9077H62.6119C62.6851 12.9073 62.7577 12.9213 62.8254 12.949C62.8932 12.9768 62.9547 13.0176 63.0067 13.0693C63.0586 13.1209 63.0998 13.1823 63.1279 13.25C63.156 13.3176 63.1705 13.3902 63.1705 13.4634C63.1705 13.5367 63.156 13.6092 63.1279 13.6769C63.0998 13.7445 63.0586 13.806 63.0067 13.8576C62.9547 13.9092 62.8932 13.9501 62.8254 13.9778C62.7577 14.0056 62.6851 14.0196 62.6119 14.0191Z" fill="#080056"/>
<path d="M62.6119 17.9547H46.8877C46.741 17.9538 46.6007 17.8948 46.4973 17.7907C46.394 17.6866 46.3359 17.5458 46.3359 17.399C46.3359 17.2522 46.394 17.1114 46.4973 17.0072C46.6007 16.9031 46.741 16.8442 46.8877 16.8433H62.6119C62.6851 16.8428 62.7577 16.8569 62.8254 16.8846C62.8932 16.9123 62.9547 16.9532 63.0067 17.0048C63.0586 17.0565 63.0998 17.1179 63.1279 17.1855C63.156 17.2532 63.1705 17.3257 63.1705 17.399C63.1705 17.4723 63.156 17.5448 63.1279 17.6124C63.0998 17.6801 63.0586 17.7415 63.0067 17.7931C62.9547 17.8448 62.8932 17.8857 62.8254 17.9134C62.7577 17.9411 62.6851 17.9551 62.6119 17.9547Z" fill="#080056"/>
<path d="M62.6119 21.8898H46.8877C46.741 21.8889 46.6007 21.8299 46.4973 21.7258C46.394 21.6217 46.3359 21.4808 46.3359 21.334C46.3359 21.1872 46.394 21.0464 46.4973 20.9423C46.6007 20.8382 46.741 20.7792 46.8877 20.7783H62.6119C62.6851 20.7779 62.7577 20.7919 62.8254 20.8196C62.8932 20.8474 62.9547 20.8882 63.0067 20.9399C63.0586 20.9915 63.0998 21.0529 63.1279 21.1206C63.156 21.1882 63.1705 21.2608 63.1705 21.334C63.1705 21.4073 63.156 21.4798 63.1279 21.5475C63.0998 21.6151 63.0586 21.6766 63.0067 21.7282C62.9547 21.7798 62.8932 21.8207 62.8254 21.8484C62.7577 21.8762 62.6851 21.8902 62.6119 21.8898Z" fill="#080056"/>
<path d="M147.093 38.1303L123.865 31.3871C123.237 31.204 122.707 30.779 122.392 30.2054C122.077 29.6318 122.001 28.9565 122.183 28.3274L127.003 11.689C127.186 11.0603 127.61 10.5299 128.183 10.2142C128.756 9.89845 129.431 9.82312 130.059 10.0047L153.287 16.748C153.915 16.931 154.445 17.356 154.76 17.9297C155.076 18.5034 155.151 19.1788 154.97 19.8079L150.15 36.4464C149.967 37.075 149.542 37.6054 148.969 37.921C148.396 38.2367 147.721 38.312 147.093 38.1303ZM129.75 11.0722C129.405 10.9723 129.033 11.0138 128.718 11.1874C128.403 11.3611 128.17 11.6528 128.069 11.9985L123.249 28.637C123.149 28.9829 123.191 29.3544 123.364 29.6698C123.538 29.9853 123.829 30.219 124.174 30.3196L147.402 37.0628C147.748 37.1628 148.119 37.1214 148.434 36.9478C148.749 36.7742 148.983 36.4825 149.083 36.1368L153.903 19.4984C154.003 19.1524 153.962 18.7809 153.788 18.4654C153.615 18.1499 153.323 17.9162 152.978 17.8154L129.75 11.0722Z" fill="#E6E6E6"/>
<path d="M147.068 23.0139L131.966 18.6297C131.825 18.5884 131.706 18.4928 131.635 18.3637C131.564 18.2347 131.547 18.0828 131.588 17.9415C131.629 17.8001 131.725 17.6808 131.853 17.6097C131.982 17.5386 132.134 17.5215 132.275 17.5622L147.377 21.9464C147.519 21.9875 147.638 22.0831 147.709 22.2122C147.78 22.3413 147.797 22.4934 147.756 22.635C147.715 22.7765 147.619 22.896 147.49 22.967C147.361 23.0381 147.209 23.055 147.068 23.0139H147.068Z" fill="#080056"/>
<path d="M145.971 26.7935L130.869 22.4093C130.799 22.389 130.734 22.355 130.677 22.3094C130.62 22.2638 130.573 22.2074 130.538 22.1435C130.502 22.0796 130.48 22.0093 130.472 21.9368C130.464 21.8643 130.47 21.7909 130.491 21.7208C130.511 21.6507 130.545 21.5853 130.59 21.5283C130.636 21.4713 130.692 21.4239 130.756 21.3887C130.82 21.3535 130.89 21.3313 130.963 21.3232C131.035 21.3152 131.108 21.3215 131.178 21.3418L146.281 25.7261C146.422 25.7673 146.541 25.863 146.611 25.992C146.682 26.121 146.699 26.2729 146.658 26.4143C146.617 26.5556 146.522 26.675 146.393 26.7461C146.264 26.8172 146.113 26.8342 145.971 26.7935Z" fill="#080056"/>
<path d="M144.877 30.573L129.774 26.1888C129.633 26.1475 129.514 26.0518 129.444 25.9228C129.373 25.7938 129.356 25.6419 129.397 25.5006C129.438 25.3592 129.533 25.2398 129.662 25.1687C129.791 25.0976 129.942 25.0806 130.084 25.1213L145.186 29.5055C145.327 29.5466 145.446 29.6422 145.517 29.7713C145.588 29.9004 145.605 30.0525 145.564 30.194C145.523 30.3356 145.428 30.455 145.299 30.5261C145.17 30.5972 145.018 30.614 144.877 30.573Z" fill="#080056"/>
<path d="M298.501 211.954H54.8828V213H298.501V211.954Z" fill="#E6E6E6"/>
<path d="M196.331 210.318H156.715L158.058 192.842H194.988L196.331 210.318Z" fill="#E6E6E6"/>
<path d="M199.015 208.302H154.699V212.335H199.015V208.302Z" fill="#E6E6E6"/>
<path d="M252.399 80.2544H100.986C99.9173 80.2544 98.8925 80.6793 98.137 81.4356C97.3815 82.192 96.957 83.2178 96.957 84.2874V176.71H256.427V84.2874C256.427 83.7578 256.323 83.2333 256.121 82.744C255.918 82.2547 255.621 81.8101 255.247 81.4356C254.873 81.0611 254.429 80.7641 253.94 80.5614C253.452 80.3587 252.928 80.2544 252.399 80.2544H252.399Z" fill="#3F3D56"/>
<path d="M96.957 176.71V191.834C96.957 192.363 97.0612 192.888 97.2637 193.377C97.4662 193.866 97.7629 194.311 98.137 194.685C98.5111 195.06 98.9552 195.357 99.444 195.56C99.9328 195.762 100.457 195.867 100.986 195.867H252.399C253.467 195.867 254.492 195.442 255.247 194.685C256.003 193.929 256.427 192.903 256.427 191.834V176.71H96.957Z" fill="#E6E6E6"/>
<path d="M248.703 88.6562H105.012V169.316H248.703V88.6562Z" fill="#E6E6E6"/>
<path d="M176.861 190.153C179.086 190.153 180.889 188.348 180.889 186.12C180.889 183.893 179.086 182.087 176.861 182.087C174.636 182.087 172.832 183.893 172.832 186.12C172.832 188.348 174.636 190.153 176.861 190.153Z" fill="#3F3D56"/>
<path d="M109.495 92.0629C109.917 92.0629 110.26 91.7203 110.26 91.2976C110.26 90.8749 109.917 90.5322 109.495 90.5322C109.073 90.5322 108.73 90.8749 108.73 91.2976C108.73 91.7203 109.073 92.0629 109.495 92.0629Z" fill="white"/>
<path d="M112.397 92.0629C112.82 92.0629 113.162 91.7203 113.162 91.2976C113.162 90.8749 112.82 90.5322 112.397 90.5322C111.975 90.5322 111.633 90.8749 111.633 91.2976C111.633 91.7203 111.975 92.0629 112.397 92.0629Z" fill="white"/>
<path d="M115.296 92.0629C115.718 92.0629 116.06 91.7203 116.06 91.2976C116.06 90.8749 115.718 90.5322 115.296 90.5322C114.874 90.5322 114.531 90.8749 114.531 91.2976C114.531 91.7203 114.874 92.0629 115.296 92.0629Z" fill="white"/>
<path d="M244.565 93.8984H108.73V161.64H244.565V93.8984Z" fill="white"/>
<path d="M117.758 104.202C117.63 104.202 117.508 104.253 117.418 104.343C117.328 104.433 117.277 104.555 117.277 104.683V128.981C117.277 129.109 117.328 129.231 117.418 129.321C117.508 129.411 117.63 129.462 117.758 129.462H145.789C145.916 129.462 146.038 129.411 146.128 129.321C146.218 129.231 146.269 129.109 146.269 128.981V104.683C146.269 104.555 146.218 104.433 146.128 104.343C146.038 104.253 145.916 104.202 145.789 104.202H117.758Z" fill="#E6E6E6"/>
<path d="M162.766 104.28C162.638 104.28 162.516 104.331 162.426 104.421C162.336 104.511 162.285 104.633 162.285 104.761V128.981C162.285 129.109 162.336 129.231 162.426 129.321C162.516 129.411 162.638 129.462 162.766 129.462H190.707C190.835 129.462 190.957 129.411 191.047 129.321C191.137 129.231 191.187 129.109 191.187 128.981V104.761C191.187 104.634 191.137 104.511 191.047 104.421C190.957 104.331 190.835 104.28 190.707 104.28H162.766Z" fill="#E6E6E6"/>
<path d="M207.3 104.026C207.173 104.027 207.051 104.077 206.961 104.167C206.871 104.257 206.82 104.38 206.82 104.507V128.981C206.82 129.109 206.871 129.231 206.961 129.321C207.051 129.411 207.173 129.462 207.3 129.462H235.533C235.66 129.462 235.782 129.411 235.872 129.321C235.962 129.231 236.013 129.109 236.013 128.981V104.507C236.013 104.38 235.962 104.257 235.872 104.167C235.782 104.077 235.66 104.027 235.533 104.026H207.3Z" fill="#E6E6E6"/>
<path d="M118.272 141.49C118.009 141.49 117.757 141.595 117.571 141.782C117.386 141.968 117.281 142.22 117.281 142.484C117.281 142.747 117.386 142.999 117.571 143.186C117.757 143.372 118.009 143.477 118.272 143.477H144.627C144.89 143.477 145.142 143.372 145.328 143.186C145.514 142.999 145.618 142.747 145.618 142.484C145.618 142.22 145.514 141.968 145.328 141.782C145.142 141.595 144.89 141.49 144.627 141.49H118.272Z" fill="#E6E6E6"/>
<path d="M118.272 146.217C118.009 146.218 117.757 146.323 117.571 146.509C117.386 146.695 117.281 146.948 117.281 147.211C117.281 147.475 117.386 147.727 117.571 147.913C117.757 148.1 118.009 148.205 118.272 148.205H130.138C130.401 148.205 130.653 148.1 130.839 147.913C131.025 147.727 131.129 147.475 131.129 147.211C131.129 146.948 131.025 146.695 130.839 146.509C130.653 146.323 130.401 146.218 130.138 146.217H118.272Z" fill="#080056"/>
<path d="M163.76 141.49C163.497 141.49 163.245 141.595 163.06 141.782C162.874 141.968 162.77 142.22 162.77 142.484C162.77 142.747 162.874 142.999 163.06 143.186C163.245 143.372 163.497 143.477 163.76 143.477H190.115C190.378 143.477 190.63 143.372 190.816 143.186C191.002 142.999 191.106 142.747 191.106 142.484C191.106 142.22 191.002 141.968 190.816 141.782C190.63 141.595 190.378 141.49 190.115 141.49H163.76Z" fill="#E6E6E6"/>
<path d="M163.761 146.217C163.498 146.218 163.245 146.323 163.06 146.509C162.874 146.695 162.77 146.948 162.77 147.211C162.77 147.475 162.874 147.727 163.06 147.913C163.245 148.1 163.498 148.205 163.761 148.205H175.627C175.89 148.205 176.142 148.1 176.328 147.913C176.513 147.727 176.618 147.475 176.618 147.211C176.618 146.948 176.513 146.695 176.328 146.509C176.142 146.323 175.89 146.218 175.627 146.217H163.761Z" fill="#080056"/>
<path d="M208.116 141.49C207.853 141.49 207.601 141.595 207.415 141.782C207.229 141.968 207.125 142.22 207.125 142.484C207.125 142.747 207.229 142.999 207.415 143.186C207.601 143.372 207.853 143.477 208.116 143.477H234.471C234.734 143.477 234.986 143.372 235.172 143.186C235.357 142.999 235.462 142.747 235.462 142.484C235.462 142.22 235.357 141.968 235.172 141.782C234.986 141.595 234.734 141.49 234.471 141.49H208.116Z" fill="#E6E6E6"/>
<path d="M118.272 136.607C118.009 136.608 117.757 136.713 117.571 136.899C117.386 137.086 117.281 137.338 117.281 137.601C117.281 137.865 117.386 138.117 117.571 138.303C117.757 138.49 118.009 138.595 118.272 138.595H144.627C144.89 138.595 145.142 138.49 145.328 138.303C145.514 138.117 145.618 137.865 145.618 137.601C145.618 137.338 145.514 137.086 145.328 136.899C145.142 136.713 144.89 136.608 144.627 136.607H118.272Z" fill="#E6E6E6"/>
<path d="M163.76 136.607C163.497 136.608 163.245 136.713 163.06 136.899C162.874 137.086 162.77 137.338 162.77 137.601C162.77 137.865 162.874 138.117 163.06 138.303C163.245 138.49 163.497 138.595 163.76 138.595H190.115C190.378 138.595 190.63 138.49 190.816 138.303C191.002 138.117 191.106 137.865 191.106 137.601C191.106 137.338 191.002 137.086 190.816 136.899C190.63 136.713 190.378 136.608 190.115 136.607H163.76Z" fill="#E6E6E6"/>
<path d="M208.116 136.607C207.853 136.608 207.601 136.713 207.415 136.899C207.229 137.086 207.125 137.338 207.125 137.601C207.125 137.865 207.229 138.117 207.415 138.303C207.601 138.49 207.853 138.595 208.116 138.595H234.471C234.734 138.595 234.986 138.49 235.172 138.303C235.357 138.117 235.462 137.865 235.462 137.601C235.462 137.338 235.357 137.086 235.172 136.899C234.986 136.713 234.734 136.608 234.471 136.607H208.116Z" fill="#E6E6E6"/>
<path d="M208.116 146.217C207.853 146.218 207.601 146.323 207.415 146.509C207.229 146.695 207.125 146.948 207.125 147.211C207.125 147.475 207.229 147.727 207.415 147.913C207.601 148.1 207.853 148.205 208.116 148.205H219.982C220.245 148.205 220.497 148.1 220.683 147.913C220.869 147.727 220.973 147.475 220.973 147.211C220.973 146.948 220.869 146.695 220.683 146.509C220.497 146.323 220.245 146.218 219.982 146.217H208.116Z" fill="#080056"/>
</g>
<defs>
<clipPath id="clip0">
<rect width="298" height="213" fill="white" transform="translate(0.5)"/>
</clipPath>
</defs>
</svg>
