<svg width="217" height="153" viewBox="0 0 217 153" fill="none" xmlns="http://www.w3.org/2000/svg">
<g clip-path="url(#clip0)">
<path opacity="0.1" d="M72.3111 152.914C82.8301 152.914 91.3575 151.544 91.3575 149.855C91.3575 148.165 82.8301 146.796 72.3111 146.796C61.792 146.796 53.2646 148.165 53.2646 149.855C53.2646 151.544 61.792 152.914 72.3111 152.914Z" fill="#0A4269"/>
<path opacity="0.1" d="M175.845 153C188.971 153 199.612 151.63 199.612 149.941C199.612 148.251 188.971 146.882 175.845 146.882C162.719 146.882 152.078 148.251 152.078 149.941C152.078 151.63 162.719 153 175.845 153Z" fill="#0A4269"/>
<path opacity="0.1" d="M3.2054 66.1069H23.0435V93.1459H4.65773C4.60886 93.4235 4.56195 93.703 4.51113 93.9825H23.0435V115.789C23.0102 115.779 22.9809 115.767 22.9496 115.756C22.4258 115.548 21.9058 115.33 21.3859 115.095L21.0536 114.944C20.5323 114.698 20.0111 114.438 19.4898 114.163C19.3081 114.067 19.1263 113.967 18.9464 113.865C16.0527 112.244 13.4239 110.19 11.1512 107.775C11.0847 107.71 11.0222 107.642 10.9557 107.579C10.6391 107.235 10.3283 106.887 10.0272 106.532L9.69494 106.141C9.33919 105.705 8.99516 105.257 8.66091 104.804C8.61205 104.737 8.56513 104.671 8.51431 104.608C7.15492 102.723 6.0262 100.682 5.15226 98.5291C5.1249 98.4646 5.10144 98.3942 5.07603 98.3336C4.80759 97.643 4.56977 96.9458 4.36257 96.2421C4.27266 95.947 4.18665 95.6557 4.11237 95.3488C4.08501 95.2589 4.06155 95.171 4.04005 95.083C2.92979 90.7495 2.79883 86.2479 2.79883 81.7776C2.79883 81.2557 2.79883 80.7318 2.79883 80.2138C2.79883 78.4057 2.82033 76.5859 2.8516 74.7681C2.8516 74.297 2.87115 73.8279 2.88092 73.3549C2.90829 72.1547 2.94738 70.9545 2.99821 69.7544C3.00993 69.4201 3.02557 69.0878 3.04316 68.7555C3.04316 68.564 3.05294 68.3724 3.07248 68.1808C3.1194 67.485 3.15849 66.795 3.2054 66.1069Z" fill="#0A4269"/>
<path opacity="0.1" d="M23.0428 36.0011H12.1611C13.93 33.2325 15.8627 30.572 17.9489 28.0339C19.5655 26.0479 21.2719 24.1128 23.0428 22.248V36.0011Z" fill="#0A4269"/>
<path opacity="0.1" d="M23.0431 36.8379V65.2705H3.26758C3.26758 65.1885 3.28126 65.1044 3.28712 65.0223C3.30472 64.7975 3.32231 64.5727 3.34186 64.3499C3.36336 64.088 3.38681 63.8241 3.41222 63.568C3.43763 63.312 3.465 62.9992 3.49432 62.7158C3.52364 62.4324 3.55101 62.145 3.58424 61.8616C3.61747 61.5782 3.64679 61.2947 3.68197 61.0133C3.71715 60.7318 3.74843 60.4464 3.78557 60.1649C3.81489 59.9304 3.84616 59.6978 3.87744 59.4632C3.9224 59.1329 3.96931 58.8006 4.02013 58.4722C4.02013 58.4233 4.03381 58.3725 4.04163 58.3256C4.3984 55.9217 4.88451 53.5387 5.49787 51.1871C6.1399 48.7203 6.95975 46.3032 7.95099 43.9549C9.0045 41.4982 10.238 39.1226 11.6414 36.8477L23.0431 36.8379Z" fill="#0A4269"/>
<path opacity="0.1" d="M27.7803 66.1048V93.1458H70.1519V66.1048H27.7803ZM27.7803 93.9804V117.202C28.0227 117.253 28.2631 117.302 28.5016 117.343C28.826 117.405 29.1485 117.462 29.4789 117.511C29.5414 117.521 29.6059 117.53 29.6744 117.536C29.8034 117.558 29.9363 117.575 30.0653 117.593C30.3917 117.638 30.7162 117.675 31.0426 117.704C31.1971 117.72 31.3534 117.734 31.5098 117.745L31.8871 117.775C32.0923 117.79 32.2956 117.802 32.4969 117.808C32.622 117.808 32.7471 117.82 32.8761 117.824C32.9739 117.824 33.0716 117.824 33.1732 117.824C33.2749 117.824 33.4195 117.824 33.5427 117.824C33.7108 117.824 33.8789 117.824 34.045 117.824H34.2698C34.4379 117.824 34.606 117.824 34.7722 117.808H34.7839C34.8992 117.808 35.0165 117.808 35.1338 117.792C35.1663 117.794 35.199 117.794 35.2315 117.792C35.3292 117.792 35.427 117.792 35.5208 117.779H35.5892L36.244 117.728C36.4591 117.708 36.676 117.683 36.8949 117.659L37.3406 117.607C39.1537 117.352 40.9467 116.971 42.7062 116.465C46.6586 115.363 50.5249 113.82 54.4753 112.691C59.5829 111.234 65.2261 110.519 70.1616 112.3V93.9804H27.7803ZM70.1519 36.0009V0.0017318C65.5129 -0.0485274 60.8865 0.494051 56.3851 1.61629C45.6558 4.31178 36.029 10.1582 27.7803 17.6251V35.999H29.907V36.8336H27.7803V65.2702H70.1519V36.8356H38.6385V36.0009H70.1519ZM124.576 23.8409C121.922 23.7471 119.283 22.9066 116.896 21.6087C112.332 19.1262 108.686 15.2931 104.613 12.0582C96.1491 5.32039 85.6525 1.25468 74.8841 0.246066V36.0009H135.372L135.522 35.8426L124.576 23.8409ZM130.086 22.8636L135.929 29.2749V21.1826C133.972 21.4249 132.258 22.0016 130.094 22.8558L130.086 22.8636ZM135.929 122.968V93.9804H123.479C123.446 93.8573 123.413 93.7322 123.374 93.6071C123.411 93.7322 123.442 93.8573 123.477 93.9804H74.892V114.944C75.3533 115.286 75.8087 115.646 76.2602 116.012C76.747 116.402 77.2278 116.815 77.7106 117.22L78.1973 117.622C78.4299 117.818 78.6645 118.013 78.901 118.197C79.3701 118.577 79.8438 118.953 80.3221 119.323C80.5586 119.518 80.801 119.694 81.0414 119.878C84.8583 122.796 88.8847 125.43 93.0881 127.757C94.0302 128.278 94.9809 128.787 95.94 129.284C96.5791 129.61 97.2222 129.935 97.8673 130.249C98.8368 130.722 99.8141 131.178 100.799 131.618C109.882 135.695 119.486 138.492 129.338 139.931C131.526 140.254 133.722 140.508 135.927 140.693V122.966H136.122L135.929 122.968ZM74.892 36.8356V65.2702H135.937V36.8356H74.892ZM74.892 66.1048V93.1458H135.937V66.1048H74.892ZM140.675 21.1474V30.1741L148.132 21.9918C145.661 21.593 143.175 21.3083 140.675 21.1376V21.1474ZM140.675 66.1146V93.1458H200.048V66.1048L140.675 66.1146ZM199.831 125.114L200.04 93.9804H140.675V141.004C144.499 141.165 148.329 141.119 152.149 140.867H152.215C154.04 140.752 155.855 140.586 157.663 140.367H157.704C167.346 139.245 176.775 136.729 185.695 132.898L199.831 125.114ZM211.497 70.5576C211.274 70.0318 211.041 69.5099 210.805 68.9938C210.363 68.0165 209.896 67.0665 209.415 66.1166H204.782V93.1458H216.495C216.489 85.4913 214.552 77.6726 211.503 70.5478L211.497 70.5576ZM204.782 93.9902V120.769C208.082 117.607 210.869 113.988 212.877 109.852C215.291 104.872 216.395 99.4789 216.485 93.9863L204.782 93.9902ZM204.782 58.2353V65.2721H208.981C207.711 62.8498 206.311 60.4975 204.788 58.2256L204.782 58.2353ZM164.516 26.4524C164.207 26.3351 163.898 26.2158 163.588 26.1005C160.31 24.89 156.96 23.8834 153.558 23.0864L142.147 35.61L141.928 35.8426L142.074 36.0029H182.689C177.032 32.1093 170.934 28.9001 164.522 26.4426L164.516 26.4524ZM183.879 36.8453H141.507L140.675 37.6077V65.2702H147.974H147.985H200.056V51.8709C195.346 46.1742 189.909 41.1194 183.885 36.8356L183.879 36.8453Z" fill="#0A4269"/>
<path opacity="0.1" d="M23.0431 51.1792V65.2704H3.26758C3.26758 65.1883 3.28126 65.1043 3.28712 65.0222C3.30472 64.7974 3.32231 64.5726 3.34186 64.3498C3.36336 64.0879 3.38681 63.824 3.41222 63.5679C3.43763 63.3118 3.465 62.9991 3.49432 62.7157C3.52364 62.4322 3.55101 62.1449 3.58424 61.8615C3.61747 61.5781 3.64679 61.2946 3.68197 61.0132C3.71715 60.7317 3.74843 60.4463 3.78557 60.1648C3.81489 59.9303 3.84616 59.6977 3.87744 59.4631C3.9224 59.1328 3.96931 58.8005 4.02013 58.4721C4.02013 58.4232 4.03381 58.3724 4.04163 58.3255C4.3984 55.9215 4.88451 53.5386 5.49787 51.187L23.0431 51.1792Z" fill="#0A4269"/>
<path opacity="0.1" d="M3.2054 66.1069H23.0435V93.1459H4.65773C4.60886 93.4235 4.56195 93.703 4.51113 93.9825H23.0435V115.789C23.0102 115.779 22.9809 115.767 22.9496 115.756C22.4258 115.548 21.9058 115.33 21.3859 115.095L21.0536 114.944C20.5323 114.698 20.0111 114.438 19.4898 114.163C19.3081 114.067 19.1263 113.967 18.9464 113.865C16.0527 112.244 13.4239 110.19 11.1512 107.775C11.0847 107.71 11.0222 107.642 10.9557 107.579C10.6391 107.235 10.3283 106.887 10.0272 106.532L9.69494 106.141C9.33919 105.705 8.99516 105.257 8.66091 104.804C8.61205 104.737 8.56513 104.671 8.51431 104.608C7.15492 102.723 6.0262 100.682 5.15226 98.5291C5.1249 98.4646 5.10144 98.3942 5.07603 98.3336C4.80759 97.643 4.56977 96.9458 4.36257 96.2421C4.27266 95.947 4.18665 95.6557 4.11237 95.3488C4.08501 95.2589 4.06155 95.171 4.04005 95.083C2.92979 90.7495 2.79883 86.2479 2.79883 81.7776C2.79883 81.2557 2.79883 80.7318 2.79883 80.2138C2.79883 78.4057 2.82033 76.5859 2.8516 74.7681C2.8516 74.297 2.87115 73.8279 2.88092 73.3549C2.90829 72.1547 2.94738 70.9545 2.99821 69.7544C3.00993 69.4201 3.02557 69.0878 3.04316 68.7555C3.04316 68.564 3.05294 68.3724 3.07248 68.1808C3.1194 67.485 3.15849 66.795 3.2054 66.1069Z" fill="#0A4269"/>
<path opacity="0.1" d="M42.6964 40.9074V65.2705H27.7803V40.9074H29.907V32.6587H38.6366V40.9074H42.6964Z" fill="#0A4269"/>
<path opacity="0.1" d="M42.6955 66.105H27.7812V93.144H42.6955V66.105Z" fill="#0A4269"/>
<path opacity="0.1" d="M27.7803 93.9824H42.6964V116.461C40.9369 116.967 39.1439 117.348 37.3308 117.601L36.8852 117.655C36.6662 117.681 36.4493 117.702 36.2343 117.724C36.0192 117.745 35.7964 117.761 35.5794 117.775H35.511C35.4172 117.775 35.3156 117.786 35.2237 117.788H35.124C35.0067 117.788 34.8894 117.8 34.7722 117.804C34.606 117.814 34.4399 117.816 34.2698 117.818C34.1975 117.818 34.1291 117.818 34.0568 117.818C33.8886 117.818 33.7225 117.818 33.5544 117.818H33.185C33.0853 117.818 32.9895 117.818 32.8859 117.818L32.5086 117.804C32.3132 117.804 32.1021 117.783 31.8988 117.769L31.5235 117.741L31.0563 117.698C30.7279 117.669 30.4015 117.632 30.079 117.587L29.688 117.532L29.4926 117.505C29.1661 117.454 28.8436 117.399 28.5152 117.337C28.2748 117.296 28.0363 117.245 27.794 117.196L27.7803 93.9824Z" fill="#0A4269"/>
<path opacity="0.1" d="M135.936 38.0303H123.637V65.2686H135.936V38.0303Z" fill="#0A4269"/>
<path opacity="0.1" d="M135.938 66.105V93.1459H74.8916V81.4824H107.408V88.3628H123.637V66.105H135.938Z" fill="#0A4269"/>
<path opacity="0.1" d="M136.132 122.974H135.936V140.713C133.734 140.527 131.538 140.273 129.349 139.953C119.493 138.51 109.884 135.706 100.799 131.622C98.1758 130.441 95.606 129.152 93.0897 127.756C88.8864 125.427 84.8594 122.793 81.041 119.876C80.0819 119.141 79.1352 118.389 78.2009 117.621C77.5539 117.087 76.9108 116.54 76.2599 116.008C75.8083 115.642 75.3529 115.283 74.8916 114.939V93.9827H123.475C123.442 93.8576 123.409 93.7325 123.374 93.6094C123.411 93.7325 123.446 93.8576 123.479 93.9827H135.936V122.963C136.003 122.965 136.067 122.97 136.132 122.974Z" fill="#0A4269"/>
<path opacity="0.1" d="M168.012 36.001H159.998V33.5108H163.591V26.0928C163.902 26.2061 164.212 26.3228 164.521 26.4427V33.5108H168.012V36.001Z" fill="#0A4269"/>
<path opacity="0.1" d="M187.32 65.2706H147.977C147.977 65.2706 147.977 65.2706 147.99 65.2803L147.973 65.2706H140.674V38.0322H142.742V58.1653H152.193V46.2418H160V36.8379H168.014V46.2496H175.821V58.1731H187.32V65.2706Z" fill="#0A4269"/>
<path opacity="0.1" d="M140.674 66.105V93.1459H187.32V66.105H140.674ZM199.983 124.976L200.047 103.572H187.32V93.9942H140.674V141.004C144.498 141.165 148.328 141.119 152.148 140.867H152.214C154.039 140.753 155.855 140.586 157.662 140.367H157.703C167.346 139.245 176.774 136.729 185.694 132.898" fill="#0A4269"/>
<path opacity="0.1" d="M205.611 93.9824H216.493C216.397 99.4731 215.294 104.866 212.882 109.847C210.875 113.985 208.086 117.603 204.79 120.763V103.562H205.611V93.9824Z" fill="#0A4269"/>
<path opacity="0.1" d="M216.498 93.1458H205.61V70.5479H211.502C214.551 77.6726 216.488 85.4913 216.498 93.1458Z" fill="#0A4269"/>
<path opacity="0.1" d="M135.938 45.6025H129.349V54.1425H135.938V45.6025Z" fill="#0A4269"/>
<path opacity="0.1" d="M135.938 63.3042H129.349V65.2706H135.938V63.3042Z" fill="#0A4269"/>
<path opacity="0.1" d="M135.938 66.105H129.349V71.8419H135.938V66.105Z" fill="#0A4269"/>
<path opacity="0.1" d="M135.938 81.0054H129.349V89.5453H135.938V81.0054Z" fill="#0A4269"/>
<path opacity="0.1" d="M135.938 98.707H129.349V107.247H135.938V98.707Z" fill="#0A4269"/>
<path opacity="0.1" d="M135.936 122.963C136.002 122.963 136.067 122.963 136.131 122.974H135.936V124.958H129.349V116.409H135.936V122.963Z" fill="#0A4269"/>
<path opacity="0.1" d="M135.936 134.106V140.703C133.734 140.517 131.538 140.263 129.349 139.943V134.106H135.936Z" fill="#0A4269"/>
<path opacity="0.1" d="M103.131 92.5186H74.8916V93.146H103.131V92.5186Z" fill="#0A4269"/>
<path opacity="0.1" d="M103.131 93.981H74.8916V96.3852H103.131V93.981Z" fill="#0A4269"/>
<path opacity="0.1" d="M103.131 104.266H74.8916V108.132H103.131V104.266Z" fill="#0A4269"/>
<path opacity="0.1" d="M103.128 116.014V119.88H81.0399C80.0808 119.148 79.1335 118.396 78.1978 117.624C77.5508 117.091 76.9097 116.543 76.2568 116.014H103.128Z" fill="#0A4269"/>
<path opacity="0.1" d="M103.129 127.759V131.622H100.797C98.1766 130.44 95.6075 129.15 93.0898 127.753L103.129 127.759Z" fill="#0A4269"/>
<path opacity="0.1" d="M157.71 68.7261H152.15V74.2852H157.71V68.7261Z" fill="#0A4269"/>
<path opacity="0.1" d="M37.3443 42.8252H31.7852V48.3843H37.3443V42.8252Z" fill="#0A4269"/>
<path opacity="0.1" d="M37.3443 55.7373H31.7852V61.2964H37.3443V55.7373Z" fill="#0A4269"/>
<path opacity="0.1" d="M37.3443 68.6499H31.7852V74.209H37.3443V68.6499Z" fill="#0A4269"/>
<path opacity="0.1" d="M37.3443 81.561H31.7852V87.1201H37.3443V81.561Z" fill="#0A4269"/>
<path opacity="0.1" d="M37.3443 94.4731H31.7852V100.032H37.3443V94.4731Z" fill="#0A4269"/>
<path opacity="0.1" d="M37.3443 107.386H31.7852V112.945H37.3443V107.386Z" fill="#0A4269"/>
<path opacity="0.1" d="M178.931 68.7261H173.372V74.2852H178.931V68.7261Z" fill="#0A4269"/>
<path opacity="0.1" d="M157.71 82.4385H152.15V87.9975H157.71V82.4385Z" fill="#0A4269"/>
<path opacity="0.1" d="M178.931 82.4385H173.372V87.9975H178.931V82.4385Z" fill="#0A4269"/>
<path opacity="0.1" d="M157.71 96.1484H152.15V101.707H157.71V96.1484Z" fill="#0A4269"/>
<path opacity="0.1" d="M178.931 96.1484H173.372V101.707H178.931V96.1484Z" fill="#0A4269"/>
<path opacity="0.1" d="M157.71 109.86H152.15V115.419H157.71V109.86Z" fill="#0A4269"/>
<path opacity="0.1" d="M178.931 109.86H173.372V115.419H178.931V109.86Z" fill="#0A4269"/>
<path opacity="0.1" d="M157.71 123.572H152.15V129.131H157.71V123.572Z" fill="#0A4269"/>
<path opacity="0.1" d="M178.931 123.572H173.372V129.131H178.931V123.572Z" fill="#0A4269"/>
<path opacity="0.1" d="M152.15 140.867V137.282H157.708V140.357L152.15 140.867Z" fill="#0A4269"/>
<path opacity="0.1" d="M4.01855 58.3213V61.5015H23.0435V58.3213H4.01855ZM5.91459 61.3022H4.36258V58.5168H5.92632L5.91459 61.3022ZM7.80868 61.3022H6.24493V58.5168H7.80868V61.3022ZM9.69885 61.3022H8.13511V58.5168H9.69885V61.3022ZM11.5929 61.3022H10.0311V58.5168H11.5949L11.5929 61.3022ZM13.4851 61.3022H11.9213V58.5168H13.4851V61.3022ZM15.3792 61.3022H13.8154V58.5168H15.3792V61.3022ZM17.2732 61.3022H15.7095V58.5168H17.2732V61.3022ZM19.1654 61.3022H17.6016V58.5168H19.1654V61.3022ZM21.0575 61.3022H19.4938V58.5168H21.0575V61.3022ZM22.9496 61.3022H21.3859V58.5168H22.9496V61.3022Z" fill="#0A4269"/>
<path opacity="0.1" d="M4.01855 67.5752V70.7554H23.0435V67.5752H4.01855ZM5.91459 70.5541H4.36258V67.7765H5.92632L5.91459 70.5541ZM7.80868 70.5541H6.24493V67.7765H7.80868V70.5541ZM9.69885 70.5541H8.13511V67.7765H9.69885V70.5541ZM11.5929 70.5541H10.0311V67.7765H11.5949L11.5929 70.5541ZM13.4851 70.5541H11.9213V67.7765H13.4851V70.5541ZM15.3792 70.5541H13.8154V67.7765H15.3792V70.5541ZM17.2732 70.5541H15.7095V67.7765H17.2732V70.5541ZM19.1654 70.5541H17.6016V67.7765H19.1654V70.5541ZM21.0575 70.5541H19.4938V67.7765H21.0575V70.5541ZM22.9496 70.5541H21.3859V67.7765H22.9496V70.5541Z" fill="#0A4269"/>
<path opacity="0.1" d="M4.01855 76.8325V80.0186H23.0435V76.8325H4.01855ZM5.91459 79.8114H4.36258V77.0319H5.92632L5.91459 79.8114ZM7.80868 79.8114H6.24493V77.0319H7.80868V79.8114ZM9.69885 79.8114H8.13511V77.0319H9.69885V79.8114ZM11.5929 79.8114H10.0311V77.0319H11.5949L11.5929 79.8114ZM13.4851 79.8114H11.9213V77.0319H13.4851V79.8114ZM15.3792 79.8114H13.8154V77.0319H15.3792V79.8114ZM17.2732 79.8114H15.7095V77.0319H17.2732V79.8114ZM19.1654 79.8114H17.6016V77.0319H19.1654V79.8114ZM21.0575 79.8114H19.4938V77.0319H21.0575V79.8114ZM22.9496 79.8114H21.3859V77.0319H22.9496V79.8114Z" fill="#0A4269"/>
<path opacity="0.1" d="M4.01855 86.0894V89.2657H23.0435V86.0894H4.01855ZM5.91459 89.0682H4.36258V86.2868H5.92632L5.91459 89.0682ZM7.80868 89.0682H6.24493V86.2868H7.80868V89.0682ZM9.69885 89.0682H8.13511V86.2868H9.69885V89.0682ZM11.5929 89.0682H10.0311V86.2868H11.5949L11.5929 89.0682ZM13.4851 89.0682H11.9213V86.2868H13.4851V89.0682ZM15.3792 89.0682H13.8154V86.2868H15.3792V89.0682ZM17.2732 89.0682H15.7095V86.2868H17.2732V89.0682ZM19.1654 89.0682H17.6016V86.2868H19.1654V89.0682ZM21.0575 89.0682H19.4938V86.2868H21.0575V89.0682ZM22.9496 89.0682H21.3859V86.2868H22.9496V89.0682Z" fill="#0A4269"/>
<path opacity="0.1" d="M4.10059 95.3452C4.17682 95.6443 4.26282 95.9433 4.35274 96.2385V95.5446H5.91648V98.3241H5.07988C5.10529 98.3886 5.1307 98.459 5.15611 98.5196H23.0434V95.3452H4.10059ZM7.81448 98.3241H6.25073V95.5446H7.81448V98.3241ZM9.70465 98.3241H8.14091V95.5446H9.70465V98.3241ZM11.5987 98.3241H10.0311V95.5446H11.5948L11.5987 98.3241ZM13.4909 98.3241H11.9271V95.5446H13.4909V98.3241ZM15.385 98.3241H13.8212V95.5446H15.385V98.3241ZM17.279 98.3241H15.7153V95.5446H17.279V98.3241ZM19.1712 98.3241H17.6074V95.5446H19.1712V98.3241ZM21.0633 98.3241H19.4996V95.5446H21.0633V98.3241ZM22.9554 98.3241H21.3917V95.5446H22.9554V98.3241Z" fill="#0A4269"/>
<path opacity="0.1" d="M8.51855 104.602C8.56742 104.665 8.61433 104.735 8.66516 104.798H9.69918V106.133C9.8106 106.265 9.92006 106.398 10.0334 106.523V104.79H11.5972V107.579H10.9639C11.0264 107.644 11.087 107.712 11.1593 107.774H23.0496V104.602H8.51855ZM13.4854 107.579H11.9217V104.801H13.4854V107.579ZM15.3795 107.579H13.8157V104.801H15.3795V107.579ZM17.2736 107.579H15.7098V104.801H17.2736V107.579ZM19.1657 107.579H17.602V104.801H19.1657V107.579ZM21.0578 107.579H19.4941V104.801H21.0578V107.579ZM22.95 107.579H21.3862V104.801H22.95V107.579Z" fill="#0A4269"/>
<path opacity="0.1" d="M18.9541 113.857C19.132 113.959 19.3138 114.053 19.4975 114.155V114.057H21.0612V114.936L21.3935 115.091V114.057H22.9573V115.748C22.9873 115.763 23.0187 115.774 23.0511 115.783V113.857H18.9541Z" fill="#0A4269"/>
<path opacity="0.1" d="M147.977 65.2702H147.988H147.977ZM135.936 122.96H136.131H135.936ZM123.373 93.6071C123.41 93.7322 123.442 93.8573 123.477 93.9804C123.446 93.8573 123.412 93.7322 123.373 93.6071ZM147.977 65.2644H147.988H147.977ZM29.9141 35.9951V36.8298H38.6456V35.9951H29.9141ZM135.936 122.96H136.131H135.936ZM123.373 93.6071C123.41 93.7322 123.442 93.8573 123.477 93.9804C123.446 93.8573 123.412 93.7322 123.373 93.6071ZM147.977 65.2644H147.988H147.977ZM135.936 122.955H136.131H135.936ZM123.373 93.6071C123.41 93.7322 123.442 93.8573 123.477 93.9804C123.446 93.8573 123.412 93.7322 123.373 93.6071Z" fill="#0A4269"/>
<path d="M90.7285 74.213C90.7285 74.213 89.9583 74.1055 89.9583 72.9835C89.9583 71.8615 89.4071 69.7661 89.4071 69.7661C89.4071 69.7563 88.9302 66.1167 88.2714 65.5382C87.6127 64.9596 86.7663 61.5623 86.7663 61.5623C86.7663 61.5623 86.6217 59.7191 86.3265 59.3223C86.0314 58.9255 85.6326 57.954 85.0443 56.5682C84.4559 55.1823 82.0028 54.2226 82.0028 54.2226C82.0028 54.2226 77.5676 51.6502 76.3107 50.8116C76.1965 50.7428 76.0897 50.6622 75.9921 50.5712C75.7732 50.2839 74.8193 50.278 74.8193 50.278C74.7196 49.6486 74.6239 48.9254 74.5926 48.2706C74.5926 48.2002 74.5926 48.1298 74.5828 48.0595C75.9843 47.231 77.0399 45.9249 77.5559 44.3808C77.5793 44.3065 77.5989 44.2283 77.6204 44.154C77.7044 44.1264 77.7816 44.0815 77.8473 44.0223C77.9129 43.963 77.9655 43.8907 78.0016 43.81C78.1149 43.5579 78.1169 43.2627 78.2576 43.0281C78.4218 42.7506 78.7346 42.602 78.9808 42.3929C79.6024 41.8651 79.7627 40.9757 79.7334 40.1665C79.7138 39.5117 79.6083 38.851 79.6493 38.2001L79.6611 38.0359C79.6728 37.9382 79.6865 37.8404 79.7041 37.7466C79.7999 37.2619 80.009 36.8045 80.1263 36.3236C80.2436 35.8428 80.2553 35.3013 79.9816 34.8869C79.5809 34.279 78.7463 34.1578 78.0133 34.0953C77.1825 34.0249 76.4398 34.1168 75.9081 33.4268C75.6593 33.0662 75.3793 32.728 75.0715 32.4162C74.962 32.3146 73.8987 31.6656 73.8987 31.6226C72.8608 31.142 71.6845 31.0517 70.5855 31.3685C70.0343 31.5288 69.5143 31.7907 68.9553 31.9217C67.7493 32.2071 66.3614 31.8982 65.3372 32.5882C64.7664 32.9792 64.4243 33.6008 64.1038 34.2067C63.8432 34.7058 63.5786 35.2042 63.3102 35.702C62.8782 36.521 62.4384 37.3537 62.2566 38.2607C62.2184 38.4581 62.1949 38.658 62.1862 38.8588V38.8686C62.1862 38.9409 62.1862 39.0132 62.1862 39.0856V39.1774C62.1862 39.2459 62.1862 39.3123 62.198 39.3729C62.2097 39.4335 62.2077 39.453 62.2136 39.4941C62.2195 39.5351 62.2292 39.627 62.241 39.6896C62.2527 39.7521 62.2761 39.8616 62.2996 39.9476C62.3094 39.9847 62.3231 40.0199 62.3348 40.0551C62.3543 40.1215 62.3778 40.1861 62.4032 40.2506C62.4169 40.2838 62.4306 40.319 62.4462 40.3522C62.4755 40.4206 62.5107 40.4871 62.5459 40.5477C62.5615 40.575 62.5733 40.6004 62.5889 40.6259C62.6434 40.7168 62.7035 40.8042 62.7687 40.8878C63.187 41.4097 63.8028 41.742 64.2582 42.2306C64.2582 42.2502 64.2582 42.2697 64.2582 42.2873C64.2582 42.3421 64.2582 42.3948 64.2582 42.4496C64.2824 43.5394 64.5724 44.6068 65.1032 45.559C65.634 46.5111 66.3893 47.3192 67.3036 47.9129C67.3036 47.9872 67.3134 48.0634 67.3173 48.1377C67.3554 48.7179 67.3482 49.3002 67.2958 49.8793C67.2162 49.7855 67.1165 49.7109 67.0042 49.6608C66.8919 49.6107 66.7697 49.5865 66.6468 49.59C66.5628 49.5859 66.4787 49.5931 66.3966 49.6115L66.379 49.5978V49.6154C65.949 49.7209 65.4193 50.1686 64.913 51.4411C64.913 51.4411 63.3727 53.1768 62.1999 53.1045C61.0271 53.0322 58.058 54.9106 58.058 54.9106C58.058 54.9106 55.1611 56.791 54.5395 58.7066C54.1921 59.7928 53.7755 60.8557 53.2924 61.8888L49.7115 69.2677L49.0508 75.1219C49.0508 75.1219 49.4163 77.7255 49.344 78.1223C49.2717 78.5191 50.8471 82.0981 50.8471 82.0981C50.8471 82.0981 56.0524 91.244 58.1791 91.7132L58.3316 91.6057C58.4226 91.6532 58.5191 91.6893 58.6189 91.7132L59.0568 91.4043C59.0831 91.7485 59.0719 92.0946 59.0236 92.4364C58.7304 93.3395 59.133 99.2328 59.6451 100.388C60.1573 101.543 59.9755 116.69 59.9755 116.69L59.9032 118.027C59.9032 118.027 59.9032 118.07 59.9208 118.144L59.9032 118.461L59.9559 118.488C60.0107 118.912 59.9929 119.343 59.9032 119.761C59.7194 120.347 59.6451 122.005 59.6451 122.005C59.6451 122.005 58.1811 131.364 58.875 133.244C59.5689 135.124 60.1592 137.185 60.1592 137.185C60.1592 137.185 60.8922 139.53 60.1944 139.931C59.4966 140.332 57.5126 141.004 57.9211 141.981C58.2925 142.885 59.7018 145.304 59.911 145.658L59.8934 145.844L59.6061 148.958C59.6526 149.369 59.7641 149.77 59.9364 150.146C60.2511 150.824 60.8629 151.528 62.0259 151.452C62.2214 151.438 62.4482 151.415 62.6671 151.385C64.7957 151.1 67.417 150.15 67.417 150.15C67.2809 150.064 67.1561 149.961 67.0456 149.843C66.9409 149.742 66.858 149.62 66.8019 149.486C66.7458 149.351 66.7176 149.207 66.7191 149.061C66.7504 148.494 65.689 145.793 65.4251 145.128C65.3841 145.033 65.3626 144.978 65.3626 144.978C65.3626 144.978 67.7825 142.449 67.3798 140.207C67.3798 140.207 64.7019 138.643 65.5835 137.785C66.465 136.927 68.0405 134.462 68.0405 134.462C68.0405 134.462 68.1128 125.246 68.0405 123.869C67.9651 122.914 68.0104 121.954 68.1754 121.01C68.2047 120.867 68.2399 120.728 68.277 120.591C69.4962 120.773 70.727 120.867 71.9596 120.871C72.4092 120.871 72.8666 120.871 73.3279 120.844C73.3279 120.974 73.3338 121.115 73.3455 121.266C73.4471 123.549 73.6367 127.552 73.7912 129.04C74.0101 131.172 75.22 136.919 75.22 136.919C75.22 136.919 72.9116 138.401 75.6227 142.052C75.6227 142.052 75.6227 143.375 75.4429 143.567C75.2509 144.193 75.0962 144.83 74.9796 145.474C74.8662 146.163 74.8193 146.858 75.0031 147.22C75.4429 148.084 78.0817 148.014 78.0817 148.014L78.1462 148.002C78.6444 147.95 79.1478 147.998 79.6273 148.143C80.1068 148.288 80.5528 148.526 80.9394 148.844C81.9422 149.65 85.7479 149.296 87.8082 149.04C88.6155 148.938 89.155 148.844 89.155 148.844C89.1811 148.753 89.1904 148.658 89.1823 148.563C89.1608 148.057 88.764 146.946 86.0744 145.955C86.0744 145.955 83.545 144.255 83.5802 142.773H83.5274H83.2342C83.4473 142.761 83.5841 142.773 83.5841 142.773C83.5841 142.773 82.5931 139.157 82.9977 138.864C83.4023 138.571 82.1904 134.563 82.1904 134.563C82.1904 134.563 81.4965 127.839 81.4594 127.368C81.4609 126.964 81.5222 126.562 81.6412 126.176L81.4594 122.489C81.4594 122.489 81.4242 121.264 81.4594 120.865C81.4535 120.519 81.4254 120.174 81.3753 119.831C81.3577 119.694 81.3401 119.552 81.3206 119.411C82.2686 119.17 82.8843 118.948 82.8843 118.948L82.7749 106.115C83.5802 104.551 83.7288 101.121 83.7249 98.6874C83.7249 97.1237 83.6545 95.9665 83.6545 95.9665L84.755 94.1702C84.755 94.1702 85.0091 92.02 84.6064 91.549C84.4285 91.3359 84.5087 91.115 84.6553 90.9333C84.7314 90.8729 84.8118 90.818 84.8957 90.7691C84.8957 90.7691 84.884 90.7515 84.8703 90.7261C84.9471 90.6619 85.0288 90.6037 85.1146 90.5521C85.1146 90.5521 84.7237 89.9461 85.0736 89.6901C85.402 89.9129 85.6952 90.081 85.918 90.2178C85.9024 90.3605 85.8867 90.4426 85.8867 90.4426L85.9805 90.2472C86.1956 90.3684 86.3265 90.4426 86.3265 90.4426C86.3265 90.4426 88.0506 87.0083 88.0134 86.502C87.9763 85.9957 89.1862 83.8632 89.1862 83.8632C89.1862 83.8632 89.3328 82.7432 89.9935 82.2741C90.6542 81.8049 90.5056 78.4058 90.5056 78.4058C90.5056 78.4058 90.6894 76.6348 91.1292 75.9116C91.569 75.1884 90.7285 74.213 90.7285 74.213ZM57.7413 72.7059L57.7745 73.5249C57.5791 73.2102 57.4383 72.9835 57.4383 72.9835L57.7413 72.7059Z" fill="url(#paint0_linear)"/>
<path d="M86.4203 88.9592L85.9981 90.7575C85.9981 90.7575 82.6166 89.0315 82.0067 86.8383C81.3968 84.6452 83.027 83.8125 83.027 83.8125L86.178 85.1475L86.4203 88.9592Z" fill="white"/>
<path opacity="0.1" d="M86.4203 88.9592L85.9981 90.7575C85.9981 90.7575 82.6166 89.0315 82.0067 86.8383C81.3968 84.6452 83.027 83.8125 83.027 83.8125L86.178 85.1475L86.4203 88.9592Z" fill="black"/>
<path d="M67.4416 150.162C67.4416 150.162 64.3141 151.311 62.164 151.456C61.0225 151.532 60.4224 150.832 60.1135 150.158C59.9448 149.783 59.836 149.384 59.791 148.975L60.0705 145.877L60.2191 144.228L64.7872 143.041L65.4342 145.019L65.4948 145.17C65.7547 145.83 66.7966 148.518 66.7653 149.079C66.764 149.223 66.7918 149.365 66.8469 149.498C66.9019 149.63 66.9832 149.751 67.0859 149.851C67.1908 149.969 67.3103 150.074 67.4416 150.162Z" fill="white"/>
<path d="M88.804 148.586C88.8119 148.68 88.8026 148.775 88.7767 148.866C88.7767 148.866 82.0878 149.982 80.7195 148.866C80.3337 148.54 79.8841 148.298 79.3993 148.156C78.9146 148.014 78.4055 147.974 77.9048 148.041C77.9048 148.041 75.3168 148.111 74.8848 147.259C74.705 146.901 74.7519 146.207 74.8633 145.523C74.977 144.882 75.1284 144.248 75.3168 143.625L75.4204 143.543L76.0361 143.049L83.245 142.835H83.2997C83.2645 144.309 85.7469 146 85.7469 146C88.3838 146.977 88.7728 148.082 88.804 148.586Z" fill="white"/>
<path opacity="0.1" d="M88.805 148.586C88.8119 148.68 88.802 148.775 88.7757 148.865C88.7757 148.865 82.0887 149.982 80.7205 148.865C80.3349 148.54 79.8856 148.298 79.4012 148.156C78.9168 148.014 78.4081 147.975 77.9077 148.041C77.9077 148.041 75.3177 148.111 74.8877 147.259C74.7079 146.899 74.7528 146.207 74.8642 145.523C75.8611 145.623 77.4346 145.871 78.0523 146.463C78.9867 147.364 80.57 148.263 81.5414 148.334C82.3018 148.383 86.8503 148.527 88.805 148.586Z" fill="black"/>
<path opacity="0.1" d="M67.4414 150.162C67.4414 150.162 64.3139 151.311 62.1637 151.456C61.0222 151.532 60.4221 150.832 60.1152 150.156C60.9108 150.424 62.0152 150.705 62.5957 150.447C63.2838 150.142 65.7232 149.945 67.0915 149.861C67.1956 149.975 67.3131 150.076 67.4414 150.162Z" fill="black"/>
<path d="M72.0819 57.5395C69.5017 56.5368 66.1826 53.2236 67.0114 51.6755C67.1955 51.2849 67.3049 50.8632 67.3339 50.4324C67.3872 49.8475 67.3951 49.2593 67.3574 48.6732C67.2993 47.7132 67.1837 46.7576 67.0114 45.8115C67.0114 45.8115 75.0667 45.9933 74.5975 47.1798C74.4607 47.5277 74.4392 48.1317 74.4763 48.808C74.5135 49.4843 74.6112 50.2486 74.7129 50.8956C74.8536 51.783 74.9943 52.4594 74.9943 52.4594C74.9943 52.4594 74.5018 53.1493 74.2125 53.1865C73.9232 53.2236 75.784 58.9684 72.0819 57.5395Z" fill="#CF6F80"/>
<path opacity="0.1" d="M65.4887 145.17L65.4281 145.236C63.0199 142.324 60.1075 145.953 60.1075 145.953L60.0645 145.877L60.213 144.228L64.7811 143.041L65.4281 145.019L65.4887 145.17Z" fill="black"/>
<path opacity="0.1" d="M83.3025 143.041C83.3025 143.041 81.5433 143.004 80.6051 143.832C79.6668 144.661 75.132 144.012 75.3274 143.832C75.3853 143.743 75.4203 143.641 75.4291 143.535L76.0448 143.041L83.2537 142.828C83.281 142.959 83.3025 143.041 83.3025 143.041Z" fill="black"/>
<path d="M68.4855 120.17C68.3545 120.493 68.255 120.829 68.1884 121.172C68.0254 122.112 67.9801 123.068 68.0535 124.018C68.1259 125.387 68.0535 134.556 68.0535 134.556C68.0535 134.556 66.5074 137.001 65.6454 137.863C64.7834 138.725 67.4046 140.273 67.4046 140.273C67.7955 142.502 65.4264 145.019 65.4264 145.019C63.0183 142.107 60.1058 145.739 60.1058 145.739C60.1058 145.739 58.5225 143.002 58.1277 142.025C57.7328 141.047 59.6738 140.371 60.356 139.974C61.0382 139.578 60.3228 137.238 60.3228 137.238C60.3228 137.238 59.7461 135.187 59.062 133.317C58.3779 131.446 59.8165 122.134 59.8165 122.134C59.8165 122.134 59.8908 120.48 60.0687 119.904C60.1584 119.488 60.1763 119.059 60.1214 118.637C60.1097 118.494 60.096 118.375 60.0863 118.295C60.0765 118.215 60.0687 118.178 60.0687 118.178L60.096 118.131L61.0734 116.309C61.0734 116.309 68.9546 119.022 68.4855 120.17Z" fill="#0A4269"/>
<path d="M83.302 142.826C83.302 142.826 81.5428 142.789 80.6045 143.608C79.6663 144.427 75.1314 143.788 75.3269 143.608C75.5223 143.428 75.5067 142.097 75.5067 142.097C72.8464 138.465 75.1158 136.991 75.1158 136.991C75.1158 136.991 73.9273 131.274 73.7123 129.153C73.5618 127.672 73.3761 123.69 73.2764 121.417C73.2334 120.439 73.208 119.767 73.208 119.767L75.3816 119.329L75.6611 119.272L80.9036 118.221C80.9036 118.221 81.0482 119.198 81.146 119.998C81.1947 120.339 81.2221 120.683 81.2281 121.028C81.1929 121.419 81.2281 122.642 81.2281 122.642L81.4059 126.311C81.2897 126.696 81.2298 127.096 81.2281 127.498C81.2632 127.965 81.9454 134.654 81.9454 134.654C81.9454 134.654 83.1319 138.645 82.7273 138.932C82.3227 139.22 83.302 142.826 83.302 142.826Z" fill="#0A4269"/>
<path opacity="0.1" d="M74.5988 47.1798C74.462 47.5277 74.4405 48.1317 74.4776 48.808C73.3987 49.4577 72.1583 49.7899 70.899 49.7664C69.6397 49.7429 68.4126 49.3647 67.3587 48.6751C67.3006 47.7145 67.1851 46.7583 67.0127 45.8115C67.0127 45.8115 75.0679 45.9894 74.5988 47.1798Z" fill="black"/>
<path d="M77.7118 42.8604C77.7134 43.5647 77.6025 44.2648 77.3834 44.9343C76.8937 46.4342 75.8895 47.7127 74.5483 48.5439C73.2071 49.375 71.6152 49.7053 70.054 49.4763C68.4929 49.2473 67.0629 48.4738 66.0169 47.2924C64.9709 46.1111 64.3762 44.598 64.3379 43.0206C64.3379 42.9659 64.3379 42.9151 64.3379 42.8604C64.3227 41.9725 64.4845 41.0904 64.8138 40.2657C65.1431 39.441 65.6333 38.6901 66.2558 38.0569C66.8783 37.4236 67.6207 36.9206 68.4397 36.5773C69.2587 36.234 70.1378 36.0571 71.0258 36.0571C71.9139 36.0571 72.793 36.234 73.612 36.5773C74.4309 36.9206 75.1733 37.4236 75.7959 38.0569C76.4184 38.6901 76.9086 39.441 77.2379 40.2657C77.5672 41.0904 77.729 41.9725 77.7138 42.8604H77.7118Z" fill="#CF6F80"/>
<path opacity="0.1" d="M72.0819 57.5398C69.5017 56.537 66.1826 53.2239 67.0114 51.6758C67.1955 51.2851 67.3049 50.8635 67.3339 50.4326L70.866 53.3353L73.0514 55.1277L74.7129 50.8978C74.8536 51.7852 74.9943 52.4616 74.9943 52.4616C74.9943 52.4616 74.5018 53.1516 74.2125 53.1887C73.9232 53.2258 75.784 58.9687 72.0819 57.5398Z" fill="black"/>
<path d="M81.2165 70.3681L78.2669 119.919L74.42 120.171L64.459 91.4394L66.0931 57.3285L66.4371 50.1216L70.8664 53.7592L73.0537 55.5517L74.7641 51.1986L77.9443 53.9703L81.2165 70.3681Z" fill="#0A4269"/>
<path opacity="0.1" d="M68.4862 120.17C68.3551 120.493 68.2556 120.829 68.1891 121.172C65.3899 120.74 62.6714 119.891 60.1241 118.653L60.0713 118.625L60.0889 118.311L60.0987 118.146L61.076 116.325C61.076 116.325 68.9553 119.022 68.4862 120.17Z" fill="black"/>
<path opacity="0.1" d="M75.4266 121.18C74.711 121.302 73.9893 121.384 73.2647 121.426C73.2217 120.449 73.1963 119.777 73.1963 119.777L75.3699 119.339L75.4266 121.18Z" fill="black"/>
<path opacity="0.1" d="M81.1342 120.007C79.7445 120.369 77.5982 120.775 75.6768 120.521L75.6494 119.282L80.8919 118.23C80.8919 118.23 81.0365 119.198 81.1342 120.007Z" fill="black"/>
<path opacity="0.1" d="M75.6422 120.748C67.628 122.116 60.2882 118.193 60.2882 118.193L60.3586 116.864C60.3586 116.864 60.5404 101.796 60.0361 100.64C59.5318 99.4851 59.1389 93.627 59.4243 92.7278C59.7096 91.8287 58.3824 78.3453 58.3824 78.3453L58.1674 72.8723L50.2979 69.6842L53.8163 62.3503C54.2915 61.322 54.7002 60.2643 55.0399 59.1837C55.6517 57.2798 58.4919 55.4092 58.4919 55.4092C58.4919 55.4092 61.4043 53.5406 62.5556 53.6109C63.707 53.6813 65.216 51.9573 65.216 51.9573C66.3301 49.1171 67.3387 50.4033 67.3387 50.4033C67.3387 50.5382 67.3387 50.4033 67.284 50.8236C66.8931 53.9413 73.6055 63.7928 73.7012 63.9668L74.3404 79.5377L74.9874 99.2427L75.6422 120.748Z" fill="black"/>
<path d="M75.4264 120.748C67.4122 122.116 60.0705 118.193 60.0705 118.193L60.1428 116.864C60.1428 116.864 60.3246 101.795 59.8183 100.64C59.312 99.4846 58.9211 93.6265 59.2084 92.7273C59.4958 91.8282 58.1666 78.3449 58.1666 78.3449L57.9496 72.8718L50.0762 69.672L53.5946 62.3381C54.0688 61.3094 54.4775 60.2517 54.8182 59.1715C55.4281 57.2676 58.2702 55.397 58.2702 55.397C58.2702 55.397 61.1827 53.5283 62.332 53.5987C63.4814 53.6691 64.9923 51.9451 64.9923 51.9451C66.1085 49.1049 67.338 50.3911 67.338 50.3911C67.338 50.526 67.2207 50.5866 67.2832 50.8114C68.1433 53.8352 73.3897 63.7806 73.4854 63.9546L74.1324 79.5255L74.7794 99.2305L75.4264 120.748Z" fill="white"/>
<path opacity="0.1" d="M73.2666 64.3986C72.4046 64.039 67.8385 58.8259 67.8385 58.8259V57.6394C67.6723 57.2485 66.6852 57.4869 65.8838 57.7606L66.2278 50.5537L66.6188 50.8782C67.4749 53.9001 73.167 64.2247 73.2666 64.3986Z" fill="black"/>
<path d="M73.4844 63.9665C72.6204 63.6069 68.0543 58.3938 68.0543 58.3938V57.2073C67.8881 56.8163 66.901 57.0548 66.0996 57.3285L66.4456 50.1216L66.8365 50.4461C67.6946 53.468 73.3886 63.7945 73.4844 63.9665Z" fill="white"/>
<path opacity="0.1" d="M60.2875 89.9658C60.395 89.9658 65.8603 89.3911 65.8603 89.3911C65.8603 89.3911 69.1695 95.8982 68.9526 97.4815C68.7356 99.0648 68.3427 100.466 67.0116 100.218C65.6804 99.9698 59.8477 100.414 59.8477 100.414L60.2875 89.9658Z" fill="black"/>
<path d="M60.0707 89.5337C60.1782 89.5337 65.6434 88.959 65.6434 88.959C65.6434 88.959 68.9508 95.4681 68.7357 97.0494C68.5207 98.6307 68.1239 100.034 66.7947 99.7859C65.4656 99.5377 59.6309 99.9814 59.6309 99.9814L60.0707 89.5337Z" fill="white"/>
<path d="M64.1889 86.4785C64.1889 86.4785 69.2046 89.174 69.3121 89.9969C69.4196 90.8199 66.7593 89.6373 66.1846 89.4946C65.8064 89.4034 65.4213 89.3433 65.0333 89.3148L61.2002 89.4184L64.1889 86.4785Z" fill="#CF6F80"/>
<path opacity="0.1" d="M71.8676 64.7352C72.1591 64.7352 72.3954 64.4989 72.3954 64.2075C72.3954 63.916 72.1591 63.6797 71.8676 63.6797C71.5761 63.6797 71.3398 63.916 71.3398 64.2075C71.3398 64.4989 71.5761 64.7352 71.8676 64.7352Z" fill="black"/>
<path d="M71.8676 64.5199C72.1591 64.5199 72.3954 64.2836 72.3954 63.9921C72.3954 63.7006 72.1591 63.4644 71.8676 63.4644C71.5761 63.4644 71.3398 63.7006 71.3398 63.9921C71.3398 64.2836 71.5761 64.5199 71.8676 64.5199Z" fill="#3F3D56"/>
<path opacity="0.1" d="M72.8393 87.5809C73.1308 87.5809 73.3671 87.3446 73.3671 87.0532C73.3671 86.7617 73.1308 86.5254 72.8393 86.5254C72.5478 86.5254 72.3115 86.7617 72.3115 87.0532C72.3115 87.3446 72.5478 87.5809 72.8393 87.5809Z" fill="black"/>
<path d="M72.8393 87.3641C73.1308 87.3641 73.3671 87.1278 73.3671 86.8364C73.3671 86.5449 73.1308 86.3086 72.8393 86.3086C72.5478 86.3086 72.3115 86.5449 72.3115 86.8364C72.3115 87.1278 72.5478 87.3641 72.8393 87.3641Z" fill="#3F3D56"/>
<path opacity="0.1" d="M72.393 76.1576C72.6845 76.1576 72.9208 75.9213 72.9208 75.6298C72.9208 75.3383 72.6845 75.1021 72.393 75.1021C72.1015 75.1021 71.8652 75.3383 71.8652 75.6298C71.8652 75.9213 72.1015 76.1576 72.393 76.1576Z" fill="black"/>
<path d="M72.393 75.9427C72.6845 75.9427 72.9208 75.7064 72.9208 75.415C72.9208 75.1235 72.6845 74.8872 72.393 74.8872C72.1015 74.8872 71.8652 75.1235 71.8652 75.415C71.8652 75.7064 72.1015 75.9427 72.393 75.9427Z" fill="#3F3D56"/>
<path d="M84.5586 89.2054C84.5586 89.2054 84.9183 89.7449 84.5586 89.9971C84.199 90.2492 84.5938 90.8591 84.5938 90.8591C84.5938 90.8591 83.6966 91.3849 84.0915 91.8579C84.4863 92.331 84.2361 94.4674 84.2361 94.4674L83.1571 96.254C83.1571 96.254 83.2216 97.4053 83.2255 98.9612C83.2255 101.389 83.0828 104.802 82.2931 106.358L82.4026 119.124C82.4026 119.124 78.6242 120.504 75.4615 120.083L74.9924 99.5984C74.9924 99.5984 75.6766 87.9818 75.9287 85.7535C76.0763 84.5966 76.1364 83.4303 76.1085 82.2644C76.1085 82.2644 76.001 78.7773 75.6394 77.1588C75.6394 77.1588 75.2485 70.1474 75.2094 68.2064C75.1918 67.2779 75.2407 64.5688 75.2954 61.9925C75.356 59.1758 75.4244 56.5194 75.4244 56.5194L74.7109 50.8743C74.7109 50.8743 75.4244 50.802 75.6394 51.0893C75.7357 51.1793 75.8405 51.2598 75.9522 51.3298C77.1836 52.1625 81.5347 54.7231 81.5347 54.7231C81.5347 54.7231 83.9429 55.6809 84.5195 57.053C85.0962 58.4252 85.4969 59.3986 85.7764 59.7896C86.0559 60.1805 86.2084 62.0179 86.2084 62.0179C86.2084 62.0179 87.0372 65.3995 87.6842 65.9722C88.3312 66.5449 88.8042 70.1884 88.8042 70.1884L83.0867 74.6842C83.0867 74.6842 82.5844 82.1628 82.4769 82.452C82.3694 82.7413 84.5586 89.2054 84.5586 89.2054Z" fill="white"/>
<path d="M84.7766 89.2052C84.7766 89.2052 85.1343 89.7447 84.7766 89.9968C84.4189 90.249 84.8098 90.8589 84.8098 90.8589C84.8098 90.8589 83.9185 91.3905 84.3094 91.8636C84.7003 92.3366 84.4541 94.4731 84.4541 94.4731L83.3751 96.2596C83.3751 96.2596 83.4396 97.4109 83.4454 98.9668C83.4454 101.395 83.3027 104.807 82.5131 106.363L82.6206 119.129C82.6206 119.129 78.8363 120.509 75.6775 120.089L75.2104 99.6041C75.2104 99.6041 75.8945 87.9874 76.1467 85.7591C76.2944 84.6023 76.3539 83.4359 76.3245 82.27C76.3245 82.27 76.217 78.7829 75.8574 77.1644C75.8574 77.1644 75.4664 70.153 75.4254 68.212C75.4078 67.2836 75.4586 64.5744 75.5114 61.9981C75.572 59.1814 75.6404 56.525 75.6404 56.525L74.6982 50.8037C74.6982 50.8037 75.6404 50.8037 75.8574 51.095C75.9528 51.186 76.0576 51.2666 76.1701 51.3354C77.4016 52.1681 81.7546 54.7287 81.7546 54.7287C81.7546 54.7287 84.1609 55.6865 84.7375 57.0587C85.3141 58.4308 85.7148 59.4043 85.9963 59.7952C86.2778 60.1861 86.4263 62.0235 86.4263 62.0235C86.4263 62.0235 87.2551 65.4051 87.9021 65.9778C88.5491 66.5506 89.0163 70.1862 89.0163 70.1862L83.2988 74.682C83.2988 74.682 82.7965 82.1606 82.687 82.4499C82.5776 82.7392 84.7766 89.2052 84.7766 89.2052Z" fill="white"/>
<path opacity="0.1" d="M77.9282 58.1847L78.4442 59.6898L75.7272 62.4263C75.7878 59.6116 75.8562 56.9533 75.8562 56.9533L74.9141 51.2319C74.9141 51.2319 75.8562 51.2319 76.0732 51.5232C76.1683 51.614 76.2732 51.6939 76.3859 51.7616L78.6964 58.4271L77.9282 58.1847Z" fill="black"/>
<path d="M77.7124 57.7526L78.2304 59.2577L75.5133 61.9942C75.5739 59.1775 75.6424 56.5211 75.6424 56.5211L74.6982 50.7998C74.6982 50.7998 75.6424 50.7998 75.8574 51.0911C75.9532 51.1815 76.058 51.2621 76.1701 51.3315L78.4825 57.995L77.7124 57.7526Z" fill="white"/>
<path opacity="0.1" d="M77.7118 42.8604C77.7134 43.5647 77.6025 44.2648 77.3834 44.9343C77.3465 44.94 77.3088 44.9383 77.2725 44.9293C77.2363 44.9202 77.2022 44.9039 77.1723 44.8815C77.1215 43.1223 76.2556 41.4706 75.1903 40.0652C74.8912 39.6408 74.5286 39.2651 74.1152 38.951C73.6973 38.6371 73.1774 38.4901 72.657 38.5386C72.0706 38.6187 71.5526 39.0175 70.9603 39.0683C70.1785 39.1328 69.4787 38.5914 68.7027 38.564C68.3872 38.567 68.076 38.6372 67.7899 38.77C67.5037 38.9028 67.2491 39.0951 67.0432 39.3341C66.6355 39.8164 66.3326 40.3782 66.1538 40.9839C65.8465 41.9023 65.6791 42.8617 65.6573 43.8299C65.6475 44.3772 65.5948 45.0633 65.0865 45.2626C65.1248 44.8601 65.0791 44.4541 64.9522 44.0702C64.8254 43.6862 64.6202 43.3329 64.3496 43.0324L64.3379 43.0206C64.3379 42.9659 64.3379 42.9151 64.3379 42.8604C64.3227 41.9725 64.4845 41.0904 64.8138 40.2657C65.1431 39.441 65.6333 38.6901 66.2558 38.0569C66.8783 37.4236 67.6207 36.9206 68.4397 36.5773C69.2587 36.234 70.1378 36.0571 71.0258 36.0571C71.9139 36.0571 72.793 36.234 73.612 36.5773C74.4309 36.9206 75.1733 37.4236 75.7959 38.0569C76.4184 38.6901 76.9086 39.441 77.2379 40.2657C77.5672 41.0904 77.729 41.9725 77.7138 42.8604H77.7118Z" fill="black"/>
<path d="M73.7946 32.2403C72.7789 31.7625 71.6236 31.6721 70.5459 31.9862C70.0045 32.1464 69.4943 32.4064 68.945 32.5374C67.7722 32.8208 66.4039 32.5139 65.3973 33.2C64.8382 33.5909 64.502 34.2086 64.1893 34.8087L63.4074 36.2982C62.9813 37.1133 62.5513 37.942 62.3734 38.8392C62.1955 39.7364 62.303 40.7411 62.8718 41.4624C63.2862 41.9882 63.898 42.3186 64.3476 42.8131C64.617 43.1139 64.8213 43.4671 64.9477 43.8505C65.0742 44.234 65.1201 44.6394 65.0826 45.0414C65.5928 44.8459 65.6416 44.1579 65.6534 43.6106C65.6751 42.6424 65.8425 41.683 66.1498 40.7646C66.3282 40.1588 66.6312 39.5969 67.0392 39.1148C67.2453 38.8761 67.4999 38.6839 67.7861 38.5511C68.0722 38.4183 68.3833 38.348 68.6987 38.3447C69.4806 38.3721 70.1823 38.9116 70.9564 38.8471C71.5428 38.7982 72.0628 38.3975 72.6531 38.3193C73.1736 38.27 73.6937 38.4172 74.1113 38.7317C74.5245 39.0453 74.8865 39.4212 75.1844 39.8459C76.2516 41.2513 77.1176 42.8991 77.1684 44.6622C77.3893 44.8244 77.7079 44.6133 77.8173 44.3631C77.9268 44.1129 77.9307 43.8197 78.0695 43.5813C78.2298 43.3057 78.5367 43.1591 78.7771 42.9519C79.3869 42.4261 79.5394 41.5406 79.516 40.7372C79.4925 39.9339 79.3361 39.1188 79.4886 38.3291C79.5805 37.8443 79.7877 37.3908 79.901 36.9119C80.0144 36.433 80.0281 35.8955 79.7603 35.4831C79.3694 34.8771 78.5464 34.7579 77.8291 34.7012C77.014 34.6308 76.2849 34.7207 75.7649 34.0347C75.5209 33.6766 75.2462 33.3405 74.944 33.03C74.8404 32.9283 73.7946 32.2833 73.7946 32.2403Z" fill="#512E4E"/>
<path opacity="0.1" d="M52.55 73.4605L50.5074 69.6841L49.8604 75.511C49.8604 75.511 50.22 78.0989 50.1477 78.4957C50.0754 78.8925 51.6215 82.45 51.6215 82.45C51.6215 82.45 56.7291 91.5471 58.8147 92.0162L65.8614 86.981L63.9927 84.608C63.9927 84.608 63.3457 84.3559 63.1835 84.608C63.1835 84.608 59.7139 78.6384 59.3542 78.2065C58.9946 77.7745 59.0649 76.9125 59.0649 76.9125C59.0649 76.9125 58.5254 76.3378 58.7053 75.7983C58.8851 75.2588 57.6634 73.3882 57.6634 73.3882L58.7776 72.3463L52.55 73.4605Z" fill="black"/>
<path d="M50.6142 69.2544L50.0747 69.6844L49.4277 75.5113C49.4277 75.5113 49.7874 78.0993 49.7151 78.4961C49.6427 78.8929 51.1909 82.4504 51.1909 82.4504C51.1909 82.4504 56.2965 91.5474 58.3821 92.0166L65.4307 86.9813L63.5601 84.6083C63.5601 84.6083 62.9131 84.3562 62.7508 84.6083C62.7508 84.6083 59.2813 78.6388 58.9216 78.2068C58.562 77.7748 58.6343 76.9128 58.6343 76.9128C58.6343 76.9128 58.0948 76.3381 58.2746 75.7986C58.4545 75.2592 57.2308 73.3885 57.2308 73.3885L58.345 72.3467L50.6142 69.2544Z" fill="white"/>
<path opacity="0.1" d="M84.0917 92.0809C84.4826 92.5559 84.2363 94.6884 84.2363 94.6884L83.1573 96.475C83.1573 96.475 83.2218 97.6283 83.2258 99.1822L81.4118 99.7491C81.2479 99.8003 81.0741 99.8115 80.9049 99.7819C80.7357 99.7523 80.5761 99.6826 80.4393 99.5787C80.3025 99.4749 80.1926 99.3398 80.1186 99.1848C80.0447 99.0298 80.0089 98.8594 80.0142 98.6877L80.3269 88.5996L84.5589 90.2181C84.1992 90.4683 84.594 91.082 84.594 91.082C84.594 91.082 83.6968 91.6059 84.0917 92.0809Z" fill="black"/>
<path d="M84.3084 91.8636C84.6993 92.3386 84.4531 94.4731 84.4531 94.4731L83.3741 96.2597C83.3741 96.2597 83.4386 97.4109 83.4444 98.9669L81.5973 99.5435C81.4367 99.5934 81.2666 99.6042 81.101 99.5751C80.9354 99.5459 80.7792 99.4776 80.6454 99.3759C80.5115 99.2742 80.4039 99.1419 80.3315 98.9902C80.259 98.8385 80.2239 98.6717 80.229 98.5036L80.5437 88.3843L84.7775 90.0027C84.4159 90.2529 84.8108 90.8648 84.8108 90.8648C84.8108 90.8648 83.9175 91.3906 84.3084 91.8636Z" fill="white"/>
<path d="M85.7097 87.0554C85.7097 87.0554 85.4224 88.8908 84.7031 88.9983C83.9837 89.1058 83.6612 91.9675 82.9438 91.8658C82.2265 91.7642 82.7015 89.2055 82.7269 88.709C82.7523 88.2126 81.945 86.1562 82.549 85.6891C83.153 85.2219 85.0647 85.6891 85.0647 85.6891L85.7097 87.0554Z" fill="#CF6F80"/>
<path opacity="0.1" d="M87.2409 72.9211L88.5975 70.1846C88.5975 70.1846 89.137 72.2702 89.137 73.3844C89.137 74.4985 89.8915 74.608 89.8915 74.608C89.8915 74.608 90.7183 75.5853 90.2824 76.2968C89.8465 77.0083 89.6706 78.7793 89.6706 78.7793C89.6706 78.7793 89.8133 82.1589 89.1663 82.6261C88.5193 83.0932 88.3844 84.2093 88.3844 84.2093C88.3844 84.2093 87.196 86.3302 87.2331 86.8345C87.2703 87.3388 85.5795 90.7536 85.5795 90.7536C85.5795 90.7536 86.4063 86.51 81.588 84.6765C81.588 84.6765 81.5509 83.2359 81.9105 82.8411C82.2702 82.4462 82.8312 82.2664 82.4793 80.2707C82.1275 78.275 82.3777 75.8903 82.3777 75.4114C82.3777 74.9325 83.4567 71.9457 83.4567 71.9457L87.2409 72.9211Z" fill="black"/>
<path d="M87.8278 69.7935L89.0124 70.1844C89.0124 70.1844 89.5538 72.27 89.5538 73.3842C89.5538 74.4984 90.3083 74.6078 90.3083 74.6078C90.3083 74.6078 91.1352 75.5851 90.6993 76.2966C90.2634 77.0082 90.0894 78.7791 90.0894 78.7791C90.0894 78.7791 90.2321 82.1587 89.5851 82.6259C88.9381 83.093 88.7935 84.2092 88.7935 84.2092C88.7935 84.2092 87.607 86.33 87.6441 86.8343C87.6812 87.3386 85.9885 90.7534 85.9885 90.7534C85.9885 90.7534 86.8173 86.5098 81.997 84.6763C81.997 84.6763 81.9618 83.2357 82.3215 82.8409C82.6812 82.446 83.2422 82.2662 82.8903 80.2705C82.5385 78.2748 82.7887 75.8901 82.7887 75.4112C82.7887 74.9323 83.8677 71.9456 83.8677 71.9456L87.8278 69.7935Z" fill="white"/>
<path opacity="0.1" d="M61.6641 140.722C61.6641 140.722 63.5523 139.536 64.7915 140.398C66.0308 141.26 61.6641 140.722 61.6641 140.722Z" fill="black"/>
<path opacity="0.1" d="M76.3359 137.054C76.3359 137.054 78.0072 136.839 79.4107 138.35C80.8141 139.861 76.3359 137.054 76.3359 137.054Z" fill="black"/>
<g opacity="0.1">
<path opacity="0.1" d="M78.7814 42.5242C78.541 42.7314 78.2321 42.8799 78.0718 43.1556C77.935 43.3921 77.9311 43.6833 77.8216 43.9374C77.7122 44.1915 77.3936 44.3987 77.1727 44.2384C77.1219 42.4792 76.254 40.8275 75.1887 39.4202C74.8908 38.9954 74.5288 38.6196 74.1156 38.306C73.6972 37.9915 73.1765 37.8444 72.6554 37.8936C72.069 37.9737 71.553 38.3725 70.9607 38.4213C70.1788 38.4878 69.4771 37.9463 68.7011 37.919C68.3858 37.9221 68.0747 37.9926 67.7888 38.1258C67.503 38.259 67.2489 38.4517 67.0435 38.6911C66.6355 39.1724 66.3325 39.7336 66.1542 40.3389C65.847 41.2573 65.6796 42.2167 65.6577 43.1849C65.6459 43.7302 65.5951 44.4105 65.0908 44.6137C65.1026 44.7582 65.1026 44.9033 65.0908 45.0477C65.599 44.8522 65.6499 44.1642 65.6616 43.6169C65.6834 42.6487 65.8507 41.6892 66.1581 40.7709C66.3365 40.165 66.6394 39.6031 67.0475 39.1211C67.2532 38.8824 67.5074 38.6902 67.7932 38.5574C68.0791 38.4246 68.3899 38.3542 68.705 38.351C69.4869 38.3783 70.1906 38.9178 70.9646 38.8533C71.551 38.8045 72.071 38.4037 72.6593 38.3256C73.1804 38.2764 73.7011 38.4235 74.1195 38.738C74.5327 39.0516 74.8948 39.4274 75.1926 39.8522C76.2579 41.2576 77.1258 42.9054 77.1766 44.6685C77.3975 44.8307 77.7161 44.6196 77.8255 44.3694C77.935 44.1192 77.9389 43.826 78.0757 43.5875C78.236 43.3119 78.5449 43.1653 78.7853 42.9581C79.3952 42.4323 79.5476 41.5469 79.5242 40.7435C79.5242 40.7181 79.5242 40.6927 79.5242 40.6692C79.487 41.3651 79.3013 42.0746 78.7814 42.5242Z" fill="black"/>
<path opacity="0.1" d="M64.3513 42.3851C63.9018 41.8906 63.288 41.5603 62.8755 41.0364C62.5283 40.5727 62.3299 40.0144 62.3067 39.4355C62.2452 40.159 62.4472 40.8802 62.8755 41.4664C63.288 41.9923 63.9018 42.3226 64.3513 42.8171C64.783 43.3009 65.0421 43.914 65.0882 44.5607C65.1182 44.1671 65.0683 43.7716 64.9417 43.3978C64.8151 43.0239 64.6143 42.6795 64.3513 42.3851Z" fill="black"/>
<path opacity="0.1" d="M79.9047 36.4842C79.7894 36.9631 79.5842 37.4185 79.4903 37.9013C79.4348 38.2239 79.4144 38.5517 79.4297 38.8787C79.4363 38.6924 79.4565 38.5068 79.4903 38.3235C79.5842 37.8388 79.7894 37.3853 79.9047 36.9064C79.9719 36.6423 79.9937 36.3686 79.9692 36.0972C79.9571 36.2276 79.9355 36.3569 79.9047 36.4842Z" fill="black"/>
</g>
<path opacity="0.1" d="M26.4448 148.67C36.9639 148.67 45.4912 147.301 45.4912 145.611C45.4912 143.922 36.9639 142.552 26.4448 142.552C15.9258 142.552 7.39844 143.922 7.39844 145.611C7.39844 147.301 15.9258 148.67 26.4448 148.67Z" fill="#0A4269"/>
<path d="M27.0586 87.0103H25.833V114.604H27.0586V87.0103Z" fill="#535461"/>
<path d="M34.7602 114.521L34.684 115.764L34.5745 117.523L34.5296 118.254L34.422 120.013L34.3751 120.744L34.2657 122.503L33.0303 142.455C32.9766 143.313 32.5978 144.119 31.9711 144.708C31.3443 145.297 30.5166 145.625 29.6565 145.625H23.2334C22.3735 145.625 21.5461 145.297 20.9197 144.708C20.2932 144.119 19.9148 143.313 19.8616 142.455L18.6321 122.49L18.5227 120.731L18.4777 119.999L18.3682 118.24L18.3233 117.509L18.2138 115.75L18.1356 114.507C18.1221 114.268 18.1575 114.028 18.2398 113.803C18.3221 113.578 18.4496 113.372 18.6143 113.198C18.779 113.024 18.9776 112.885 19.1978 112.791C19.418 112.696 19.6552 112.648 19.8949 112.648H33.0323C33.271 112.65 33.5068 112.701 33.7251 112.798C33.9434 112.894 34.1396 113.035 34.3015 113.21C34.4634 113.386 34.5876 113.593 34.6665 113.818C34.7454 114.043 34.7773 114.282 34.7602 114.521Z" fill="#3F3D56"/>
<path d="M34.683 115.763L34.5736 117.517H18.3145L18.2051 115.763H34.683Z" fill="#9D9CB5"/>
<path d="M34.5285 118.248L34.421 120.003H18.4688L18.3594 118.248H34.5285Z" fill="#9D9CB5"/>
<path d="M34.3749 120.736L34.2674 122.489H18.6241L18.5146 120.736H34.3749Z" fill="#9D9CB5"/>
<path d="M16.3348 97.3525C23.4713 102.517 26.4503 110.593 26.4503 110.593C26.4503 110.593 17.8497 110.298 10.7112 105.134C3.57268 99.9698 0.599609 91.895 0.599609 91.895C0.599609 91.895 9.19629 92.1882 16.3348 97.3525Z" fill="#0A4269"/>
<path d="M0.59375 91.895C0.59375 91.895 9.52273 96.8501 12.3863 100.953C15.2499 105.056 26.4503 110.593 26.4503 110.593" stroke="#535461" stroke-width="2" stroke-miterlimit="10"/>
<path d="M20.9424 86.9496C24.8263 89.7585 26.4507 94.1545 26.4507 94.1545C26.4507 94.1545 21.7692 93.9942 17.8833 91.1854C13.9974 88.3765 12.377 83.9785 12.377 83.9785C12.377 83.9785 17.0565 84.1388 20.9424 86.9496Z" fill="#0A4269"/>
<path d="M12.377 83.9785C12.377 83.9785 17.2363 86.676 18.7942 88.9082C20.352 91.1404 26.4507 94.1545 26.4507 94.1545" stroke="#535461" stroke-width="2" stroke-miterlimit="10"/>
<path d="M32.0893 93.9319C27.6267 98.8361 26.6826 105.245 26.6826 105.245C26.6826 105.245 32.9747 103.701 37.4334 98.7951C41.892 93.8889 42.84 87.4814 42.84 87.4814C42.84 87.4814 36.5518 89.0276 32.0893 93.9319Z" fill="#0A4269"/>
<path d="M42.8439 87.4834C42.8439 87.4834 37.0307 92.5108 35.553 95.9745C34.0752 99.4382 26.6826 105.245 26.6826 105.245" stroke="#535461" stroke-width="2" stroke-miterlimit="10"/>
<path d="M195.903 92.2054C195.903 92.2054 192.676 76.1498 193.911 74.1521C193.911 74.1521 193.956 72.2952 193.882 69.928C193.882 69.8381 193.882 69.7482 193.882 69.6563C194.099 69.8013 194.326 69.9318 194.56 70.0473C195.698 70.632 197.005 70.8007 198.255 70.5242L197.277 69.4355C197.043 69.1755 196.798 68.894 196.748 68.55C196.697 68.206 196.837 67.8991 196.959 67.5922C197.887 65.2466 197.936 62.297 196.147 60.5065C194.636 59.0014 194.269 57.0585 192.629 55.6844C191.431 54.6777 190.772 53.2019 190.15 51.775C189.625 50.569 189.095 49.3532 188.794 48.0748C188.559 47.076 188.466 46.042 188.143 45.0666C187.82 44.0912 187.216 43.1432 186.272 42.7073C185.936 42.5529 185.563 42.4649 185.256 42.2597C184.853 41.988 184.611 41.5462 184.32 41.1592C182.84 39.2045 177.885 40.3558 175.539 41.1494C174.902 41.3493 174.311 41.6764 173.803 42.1111L173.825 42.0759C173.843 42.0466 173.864 42.0173 173.884 41.988C173.627 42.1956 173.405 42.4431 173.227 42.721C172.885 43.2624 172.742 43.8938 172.457 44.4802C172.113 45.1741 170.199 47.1112 171.022 47.8911C171.08 47.9435 171.146 47.9857 171.217 48.0162C171.526 48.1447 171.866 48.1788 172.195 48.1139L172.16 48.198C171.879 48.8861 171.734 49.6224 171.735 50.3657C171.735 53.5772 174.384 56.1808 177.654 56.1808C178.269 56.1814 178.88 56.0872 179.466 55.9013C179.48 55.9756 179.492 56.0499 179.505 56.1242C179.505 56.1535 179.515 56.1828 179.519 56.2121L179.415 56.3568C179.41 56.3478 179.404 56.3393 179.398 56.3314L176.329 60.6199C175.86 60.9502 173.158 62.9049 173.006 64.3709C172.846 65.9757 172.685 67.8541 172.685 67.8541L172.664 68.2568C172.53 68.3689 172.373 68.4505 172.204 68.4961C172.035 68.5416 171.859 68.55 171.687 68.5207C170.729 68.3643 170.729 72.0391 170.729 72.0391C170.729 72.0391 170.092 72.6255 169.654 72.1173C169.216 71.6091 168.059 73.3311 168.059 73.3311L160.807 73.6439L160.641 73.6537L160.25 72.4437C160.208 72.3161 160.117 72.2102 159.997 72.1491C159.878 72.088 159.739 72.0765 159.611 72.1173C159.58 72.1272 159.551 72.1397 159.523 72.1544L159.495 72.1701L159.444 72.2052L159.419 72.2287C159.405 72.2414 159.392 72.2551 159.38 72.2697L159.356 72.2971L159.345 72.3088C159.3 72.3712 159.27 72.4434 159.257 72.5194C159.245 72.5954 159.251 72.6733 159.274 72.7467L159.611 73.7846C158.211 74.0661 156.78 74.8597 157.947 77.045L152.032 75.9524L153.946 77.5591L163.825 79.5978C163.694 79.8324 163.78 80.1725 164.188 80.6514C165.948 82.7175 169.153 83.2785 170.443 83.4231C170.784 84.1852 171.21 84.9065 171.712 85.5732L171.601 87.6315C171.601 87.6315 168.334 103.32 167.736 104.115C168.038 103.773 168.314 103.409 168.563 103.027C167.615 106.25 166.29 110.661 165.942 111.322C165.383 112.378 164.865 116.649 165.502 116.922C165.697 117.006 166.256 116.965 167.054 116.905V117.258L167.019 130.666C167.019 130.666 167.179 138.889 166.739 139.673C166.299 140.457 166.182 142.1 166.182 142.1C166.182 142.1 164.423 145.343 163.029 146.647C163.02 146.657 163.009 146.666 162.998 146.674L162.955 146.369C162.955 146.369 161.28 148.484 157.574 148.365C157.574 148.365 155.343 149.815 158.651 149.894C161.958 149.972 166.182 149.776 166.182 149.776C166.182 149.776 169.132 145.281 171.603 145.867V149.274H172.359V145.812C172.71 145.581 173.01 145.282 173.242 144.931C173.473 144.581 173.631 144.187 173.706 143.774C173.77 143.348 173.723 142.912 173.568 142.51C173.413 142.108 173.156 141.753 172.822 141.481C172.672 141.345 172.552 141.18 172.469 140.996C172.386 140.811 172.342 140.612 172.339 140.41L172.312 140.433C172.312 140.365 172.294 140.294 172.287 140.222C172.07 138.463 171.798 134.833 172.758 132.147C174.073 128.465 174.472 123.336 173.514 120.282C173.205 119.306 172.951 118.314 172.754 117.309C172.73 117.182 172.709 117.061 172.689 116.948C173.344 117.036 173.992 117.167 174.63 117.339C176.849 117.95 181.702 118.064 185.846 118.031C185.856 118.144 185.868 118.263 185.881 118.382C185.955 119.211 186.11 120.031 186.343 120.83C186.863 122.393 187.101 129.288 187.101 129.288C187.101 129.288 187.772 134.956 187.406 137.263C187.211 138.545 187.015 139.833 186.904 141.127V141.152C186.904 141.152 185.805 144.28 185.002 145.978C184.982 146.021 184.961 146.064 184.941 146.106C184.727 146.125 184.516 146.172 184.314 146.244C184.314 146.244 183.237 148.394 182.164 148.75C181.091 149.106 181.446 150.277 183.876 149.847C186.306 149.417 189.975 149.065 189.975 149.065L190.133 146.872L190.88 145.937L190.684 148.125L191.48 147.968L191.374 145.308L192.596 143.779C192.596 143.779 194.072 142.466 191.878 139.882V139.939C191.855 139.901 191.833 139.862 191.808 139.825V139.813C191.444 139.25 191.155 138.201 191.685 136.338C192.643 132.972 193.2 129.917 193.2 129.917C193.2 129.917 195.338 121.733 192.768 117.861H192.881C192.618 117.316 192.432 116.737 192.328 116.14C192.315 116.07 192.303 115.998 192.293 115.923C194.195 115.814 196.061 115.47 197.584 114.727C197.578 114.719 196.662 95.2977 195.903 92.2054ZM171.757 78.6596V78.6987L171.366 78.7182L171.757 78.6596ZM170.416 78.8453C170.352 78.8595 170.292 78.8883 170.24 78.9293C170.072 79.1671 169.966 79.4434 169.933 79.7327L169.323 79.5959C169.323 79.5959 168.895 79.504 168.28 79.4004L167.988 79.1072C168.79 79.0407 169.622 78.943 170.416 78.8453Z" fill="url(#paint1_linear)"/>
<path d="M190.594 145.336L190.361 148.106L191.141 147.949L191.024 144.945L190.594 145.336Z" fill="#1D2366"/>
<path d="M172.801 132.185C171.861 134.862 172.126 138.477 172.337 140.232C172.416 140.881 172.488 141.276 172.488 141.276C172.488 141.276 171.083 144.477 170.965 144.599C170.848 144.72 166.829 147.173 166.829 147.173L164.02 148.813C164.02 148.813 161.17 147.564 162.537 147.134C162.816 147.022 163.067 146.85 163.274 146.631C164.642 145.332 166.36 142.101 166.36 142.101C166.36 142.101 166.477 140.461 166.907 139.681C167.337 138.901 167.181 130.705 167.181 130.705L167.214 117.345V115.603L172.56 115.642C172.594 116.233 172.671 116.821 172.791 117.401C172.983 118.402 173.232 119.392 173.536 120.365C174.478 123.412 174.087 128.516 172.801 132.185Z" fill="#FFB0B1"/>
<path opacity="0.1" d="M172.488 141.276C172.488 141.276 171.083 144.477 170.965 144.599C170.848 144.72 166.829 147.173 166.829 147.173L164.02 148.813C164.02 148.813 161.17 147.564 162.537 147.134C162.816 147.022 163.067 146.85 163.274 146.632L163.395 147.486L164.331 147.447L172.345 140.236C172.416 140.881 172.488 141.276 172.488 141.276Z" fill="black"/>
<path d="M172.391 140.417L164.332 147.677L163.395 147.716L163.2 146.348C163.2 146.348 161.562 148.455 157.922 148.338C157.922 148.338 155.737 149.782 158.976 149.86C162.215 149.939 166.351 149.743 166.351 149.743C166.351 149.743 169.24 145.247 171.658 145.834V149.229H172.4V145.803C172.746 145.57 173.041 145.27 173.267 144.921C173.493 144.571 173.647 144.18 173.718 143.77C173.782 143.347 173.737 142.915 173.586 142.515C173.435 142.116 173.183 141.761 172.856 141.487C172.71 141.35 172.593 141.184 172.513 141C172.433 140.816 172.391 140.618 172.391 140.417Z" fill="#1D2366"/>
<path d="M191.338 136.36C190.818 138.217 191.101 139.262 191.457 139.823V139.835C191.913 140.528 192.231 141.303 192.391 142.116L192.423 142.292L188.756 147.638L186.766 148.42C186.766 148.42 183.566 147.327 184.15 147.015C184.297 146.938 184.526 146.532 184.788 145.971C185.57 144.28 186.649 141.16 186.649 141.16V141.135C186.762 139.847 186.942 138.563 187.141 137.284C187.499 134.984 186.842 129.337 186.842 129.337C186.842 129.337 186.607 122.47 186.099 120.908C185.87 120.114 185.717 119.3 185.644 118.476C185.538 117.499 185.515 116.694 185.515 116.694C185.515 116.694 187.622 113.762 191.484 116.928C191.793 117.181 192.065 117.476 192.292 117.804C194.96 121.6 192.812 129.962 192.812 129.962C192.812 129.962 192.274 133.004 191.338 136.36Z" fill="#FFB0B1"/>
<path opacity="0.1" d="M192.428 142.293L188.762 147.639L186.772 148.42C186.772 148.42 183.572 147.328 184.156 147.015C184.303 146.939 184.532 146.532 184.794 145.971C186.148 145.959 186.85 147.25 186.85 147.25L188.566 146.976C188.566 146.976 190.83 142.527 191.338 142.255C191.846 141.984 191.416 140.224 191.416 140.224V139.777C191.43 139.792 191.441 139.81 191.457 139.826V139.837C191.913 140.53 192.231 141.305 192.391 142.119L192.428 142.293Z" fill="black"/>
<path d="M186.966 147.365C186.966 147.365 185.989 145.57 184.116 146.233C184.116 146.233 183.063 148.383 182.009 148.731C180.956 149.079 181.308 150.252 183.688 149.824C186.069 149.396 189.658 149.042 189.658 149.042L189.814 146.855L192.234 143.772C192.234 143.772 193.677 142.464 191.531 139.89V140.338C191.531 140.338 191.961 142.097 191.452 142.369C190.944 142.64 188.688 147.091 188.688 147.091L186.966 147.365Z" fill="#1D2366"/>
<path opacity="0.1" d="M172.567 115.639C172.6 116.23 172.678 116.818 172.797 117.398C170.596 117.075 168.554 117.236 167.215 117.341V115.6L172.567 115.639Z" fill="black"/>
<path opacity="0.1" d="M192.508 118.291C192.508 118.291 189.381 118.443 185.651 118.475C185.546 117.497 185.522 116.692 185.522 116.692C185.522 116.692 187.63 113.76 191.492 116.926C191.801 117.179 192.073 117.474 192.299 117.802C192.36 117.969 192.43 118.132 192.508 118.291Z" fill="black"/>
<path d="M192.508 117.939C192.508 117.939 178.809 118.602 174.634 117.431C170.459 116.26 166.321 117.275 165.697 117.003C165.074 116.731 165.58 112.476 166.128 111.422C166.675 110.369 169.677 99.7139 169.677 99.7139L172.566 84.6512L175.61 83.8126L175.825 83.752L181.128 82.2899L185.014 81.2168C185.014 81.2168 192.74 111.383 192.078 113.608C191.837 114.459 191.798 115.356 191.964 116.225C192.066 116.819 192.249 117.396 192.508 117.939Z" fill="#1D2366"/>
<path d="M162.496 74.3496C162.496 74.3496 159.759 77.2816 161.831 78.9157C163.903 80.5498 165.265 79.0721 165.265 79.0721L162.496 74.3496Z" fill="#C7DAF5"/>
<path opacity="0.1" d="M162.496 74.3496C162.496 74.3496 159.759 77.2816 161.831 78.9157C163.903 80.5498 165.265 79.0721 165.265 79.0721L162.496 74.3496Z" fill="black"/>
<path d="M184.605 55.0729C184.605 55.0729 184.285 55.3779 183.802 55.8274C183.114 56.4705 182.095 57.4107 181.192 58.1985C179.941 59.2872 178.909 60.0867 179.279 59.4045C179.648 58.7223 179.578 57.5339 179.394 56.4217C179.38 56.3474 179.369 56.2731 179.355 56.2008C179.203 55.384 179.001 54.5771 178.751 53.7848C178.751 53.7848 180.772 51.1734 181.89 50.1433C182.307 49.7523 182.598 49.5921 182.615 49.8638C182.635 50.2293 182.909 51.0366 183.249 51.8927C183.258 51.9201 183.268 51.9455 183.28 51.9728C183.507 52.5592 183.763 53.1613 183.988 53.6812C184.332 54.4787 184.605 55.0729 184.605 55.0729Z" fill="#FFB0B1"/>
<path opacity="0.1" d="M183.28 51.973C183.09 52.9946 182.629 53.9464 181.946 54.729C181.262 55.5116 180.381 56.0962 179.394 56.4218C179.239 55.5295 179.024 54.6486 178.751 53.785C178.751 53.785 182.557 48.869 182.615 49.8639C182.629 50.2411 182.926 51.0777 183.28 51.973Z" fill="black"/>
<path opacity="0.1" d="M179.015 57.7354L179.507 57.0415C179.507 57.0415 179.834 59.0314 181.034 58.1537C182.234 57.2761 182.293 64.7585 182.293 64.7585L181.004 84.0179L171.696 83.4608L171.96 74.1547L173.014 69.4634L175.619 62.6436L177.169 60.3899L179.015 57.7354Z" fill="black"/>
<path d="M182.293 64.8777L181.12 82.2919L180.997 84.1371L175.807 83.8263L175.612 83.8146L171.702 83.58L171.966 74.2719L173.02 69.5806L175.625 62.7608L177.175 60.507L179.02 57.8428L179.513 57.1509C179.513 57.1509 179.839 59.1407 181.04 58.2631L181.065 58.2455C182.238 57.5027 182.293 64.8777 182.293 64.8777Z" fill="#1D2366"/>
<path d="M173.151 67.9502C173.151 67.9502 172.684 68.9275 171.746 68.7692C170.808 68.6109 170.809 72.2876 170.809 72.2876C170.809 72.2876 170.186 72.874 169.756 72.3658C169.326 71.8576 168.192 73.5757 168.192 73.5757L161.089 73.8885C161.089 73.8885 164.25 75.333 163.63 79.7036C163.63 79.7036 174.361 79.039 174.713 78.0246C175.065 77.0101 173.151 67.9502 173.151 67.9502Z" fill="white"/>
<path opacity="0.03" d="M173.151 67.9502C173.151 67.9502 172.684 68.9275 171.746 68.7692C170.808 68.6109 170.809 72.2876 170.809 72.2876C170.809 72.2876 170.186 72.874 169.756 72.3658C169.326 71.8576 168.192 73.5757 168.192 73.5757L161.089 73.8885C161.089 73.8885 164.25 75.333 163.63 79.7036C163.63 79.7036 174.361 79.039 174.713 78.0246C175.065 77.0101 173.151 67.9502 173.151 67.9502Z" fill="black"/>
<path d="M152.508 76.1855L154.38 77.7845L169.795 81.0234L167.883 79.0726L152.508 76.1855Z" fill="white"/>
<path d="M179.044 58.3511C178.788 58.742 178.055 60.7436 177.443 62.4911C176.933 63.9473 176.507 65.2276 176.507 65.2276C176.507 65.2276 175.512 71.7054 175.004 72.8762C174.495 74.0471 174.771 78.6132 174.771 78.6132L172.877 89.8897C172.877 89.8897 172.019 95.7048 170.694 99.1783C169.386 102.597 167.93 104.2 167.885 104.251C168.471 103.457 171.667 87.8314 171.667 87.8314L172.723 68.1244C172.723 68.1244 172.877 66.2518 173.033 64.651C173.19 63.0501 176.356 60.8648 176.356 60.8648L179.41 56.5234C179.716 56.9339 179.511 57.6493 179.044 58.3511Z" fill="white"/>
<path d="M171.083 83.6778C171.083 83.6778 166.587 83.4823 164.41 80.867C162.232 78.2516 169.443 79.8232 169.443 79.8232L171.318 80.2532L171.083 83.6778Z" fill="#FFB0B1"/>
<path opacity="0.1" d="M192.079 113.609C191.838 114.461 191.799 115.357 191.965 116.227C187.061 116.575 181.815 115.249 181.815 115.249C180.837 116.149 178.263 117.474 178.263 117.474L176.859 100.077C175.962 97.7316 175.61 85.4426 175.61 85.4426C175.61 85.4426 175.69 84.7995 175.806 83.8359C175.806 83.8124 175.806 83.787 175.816 83.7635C176.165 81.072 176.859 76.0191 177.199 75.3369C177.669 74.3987 175.757 71.9026 175.757 71.9026L176.627 64.4846L176.732 63.5894C178.566 62.7704 179.971 60.155 179.971 60.155L181.05 58.2648C182.223 57.5123 182.284 64.8873 182.284 64.8873L181.111 82.3014L184.997 81.2283C184.997 81.2283 192.741 111.385 192.079 113.609Z" fill="black"/>
<path d="M197.112 114.811C191.766 117.466 182.049 115.007 182.049 115.007C181.072 115.906 178.497 117.231 178.497 117.231L177.092 99.8345C176.197 97.4889 175.845 85.1998 175.845 85.1998C175.845 85.1998 176.975 76.0305 177.444 75.0942C177.58 74.8205 177.514 74.414 177.352 73.9761C176.554 71.8921 176.261 69.649 176.496 67.4299L176.871 64.2419L176.975 63.3486C178.81 62.5276 180.215 59.9123 180.215 59.9123L181.193 58.2L182.991 55.0451L183.843 53.5518L183.988 53.6827L185.092 54.6835C185.092 54.6835 185.561 55.0744 186.265 55.6608C187.796 56.9509 190.44 59.2223 191.805 60.612C193.005 61.8357 193.384 66.5953 193.494 70.1782C193.566 72.5375 193.523 74.3866 193.523 74.3866C192.313 76.3784 195.478 92.3696 195.478 92.3696C196.215 95.4599 197.112 114.811 197.112 114.811Z" fill="white"/>
<path opacity="0.03" d="M186.85 59.8738C186.85 59.8738 183.181 66.8579 183.607 69.5123C184.033 72.1668 185.245 75.1711 184.66 75.8729C184.459 76.1387 184.2 76.3545 183.902 76.5034C183.604 76.6522 183.275 76.7301 182.942 76.731C182.356 76.7701 180.792 77.8627 180.792 77.98C180.792 78.0973 179.347 78.0973 178.055 78.6446C176.763 79.1919 174.856 79.5027 174.856 79.5027C174.856 79.5027 171.142 79.3854 170.796 79.7372C170.45 80.0891 170.094 82.1943 170.835 83.8733C171.576 85.5524 172.399 86.8054 173.02 87.034C173.642 87.2627 177.586 85.9414 180.786 85.6286C183.986 85.3159 187.459 82.7807 187.459 82.7807C187.459 82.7807 191.285 81.4124 191.955 79.1117C192.626 76.8111 191.136 64.1663 191.136 64.1663C191.136 64.1663 190.01 58.273 186.85 59.8738Z" fill="black"/>
<path opacity="0.03" d="M186.381 59.2874C186.381 59.2874 182.712 66.2734 183.142 68.9259C183.572 71.5783 184.78 74.5846 184.194 75.2883C183.994 75.5545 183.734 75.7705 183.437 75.9194C183.139 76.0683 182.81 76.146 182.477 76.1464C181.891 76.1855 180.327 77.2782 180.327 77.3954C180.327 77.5127 178.883 77.5127 177.591 78.0581C176.299 78.6034 174.391 78.9162 174.391 78.9162C174.391 78.9162 170.677 78.7989 170.333 79.1507C169.989 79.5026 169.629 81.6097 170.372 83.2868C171.115 84.9639 171.936 86.2188 172.557 86.4475C173.179 86.6762 177.124 85.3549 180.323 85.0441C183.523 84.7333 186.997 82.1942 186.997 82.1942C186.997 82.1942 190.82 80.8259 191.483 78.5272C192.145 76.2285 190.664 63.5798 190.664 63.5798C190.664 63.5798 189.542 57.6884 186.381 59.2874Z" fill="black"/>
<path d="M186.734 59.522C186.734 59.522 183.065 66.508 183.495 69.1605C183.925 71.813 185.133 74.8193 184.549 75.521C184.349 75.7878 184.089 76.0044 183.791 76.1536C183.493 76.3029 183.164 76.3808 182.831 76.3811C182.244 76.4202 180.681 77.5128 180.681 77.6281C180.681 77.7435 179.238 77.7454 177.944 78.2927C176.65 78.84 174.744 79.1508 174.744 79.1508C174.744 79.1508 171.03 79.0335 170.684 79.3854C170.338 79.7372 169.983 81.8444 170.723 83.5215C171.464 85.1986 172.287 86.4535 172.909 86.6822C173.53 86.9109 177.475 85.5895 180.675 85.2768C183.875 84.964 187.348 82.4288 187.348 82.4288C187.348 82.4288 191.173 81.0605 191.844 78.7599C192.514 76.4592 191.035 63.8145 191.035 63.8145C191.035 63.8145 189.893 57.9309 186.734 59.522Z" fill="white"/>
<path opacity="0.1" d="M186.654 78.2589C186.654 78.2589 183.722 77.6725 184.742 78.6499C185.762 79.6272 185.756 80.4833 187.005 80.4442C188.255 80.4052 186.654 78.2589 186.654 78.2589Z" fill="black"/>
<path opacity="0.1" d="M191.609 99.2876C191.609 99.2876 190.284 100.185 192.819 102.253C195.354 104.321 191.609 99.2876 191.609 99.2876Z" fill="black"/>
<path opacity="0.1" d="M189.079 106.663C189.079 106.78 188.61 110.963 190.366 112.009C192.121 113.054 189.079 106.663 189.079 106.663Z" fill="black"/>
<path d="M161.209 73.8789C159.794 73.9278 156.737 74.3598 158.322 77.3172C159.724 79.9345 162.079 78.185 163.405 76.8578C163.081 75.6204 162.296 74.5542 161.209 73.8789Z" fill="#FFB0B1"/>
<path d="M163.423 76.834L163.481 76.7734L163.423 76.834Z" fill="#FFB0B1"/>
<path opacity="0.1" d="M186.265 55.7805C184.764 56.8067 183.505 57.6726 183.259 57.8524C182.587 58.3509 181.304 61.277 180.477 62.7704C179.819 63.9725 177.678 64.2814 176.871 64.3576L176.975 63.4643C178.81 62.6433 180.216 60.028 180.216 60.028L183.843 53.6675L185.092 54.8031C185.092 54.8031 185.562 55.1941 186.265 55.7805Z" fill="black"/>
<path d="M186.265 55.6633C184.764 56.6895 183.505 57.5554 183.259 57.7372C182.587 58.2337 181.304 61.1598 180.477 62.6532C179.819 63.8553 177.678 64.1642 176.871 64.2404L176.975 63.3471C178.81 62.5261 180.216 59.9108 180.216 59.9108L183.843 53.5503L185.092 54.682C185.092 54.682 185.562 55.0691 186.265 55.6633Z" fill="#DCE7FF"/>
<path d="M183.376 50.6828C183.377 51.8562 183.021 53.0021 182.356 53.9686C181.57 55.1114 180.401 55.9346 179.06 56.2889C177.719 56.6433 176.296 56.5052 175.048 55.8999C173.8 55.2945 172.811 54.2619 172.259 52.9894C171.708 51.717 171.631 50.2889 172.042 48.9645C172.453 47.64 173.326 46.5069 174.501 45.7706C175.676 45.0344 177.077 44.7439 178.448 44.9517C179.819 45.1596 181.07 45.8521 181.975 46.9036C182.879 47.9551 183.376 49.2959 183.376 50.6828Z" fill="#FFB0B1"/>
<path opacity="0.1" d="M193.493 70.1807C192.7 69.6924 192.053 68.9979 191.623 68.1713C191.296 67.5262 191.079 66.7815 190.522 66.3241C190.02 65.9136 189.35 65.8139 188.724 65.6302C186.668 65.0223 184.944 63.1458 184.879 61.0035C184.848 59.9949 185.163 58.9882 185.02 57.9894C184.939 57.4241 184.714 56.889 184.367 56.4354C184.195 56.2185 184.006 56.0152 183.802 55.8275C183.529 55.5695 183.241 55.3193 182.991 55.0456C182.833 54.8762 182.696 54.6893 182.581 54.4886C182.488 54.3243 182.412 54.1507 182.356 53.9706C181.965 52.7743 182.321 51.3552 181.891 50.1453L181.867 50.0788C181.705 49.6488 181.374 49.2188 180.915 49.1855C180.456 49.1523 180.063 49.5335 179.625 49.7035C178.708 50.0593 177.719 49.4533 176.955 48.8356C176.191 48.218 175.329 47.5123 174.357 47.6492C173.714 47.741 173.206 48.1789 172.614 48.4056C172.48 48.4574 172.342 48.4973 172.201 48.5249C172.702 47.2749 173.623 46.2384 174.806 45.5937C175.988 44.9489 177.358 44.736 178.68 44.9916C180.003 45.2471 181.195 45.9552 182.051 46.9941C182.908 48.0331 183.377 49.338 183.376 50.6848C183.377 51.0914 183.334 51.497 183.249 51.8947C183.259 51.9221 183.269 51.9475 183.28 51.9748C183.507 52.5613 183.763 53.1633 183.988 53.6832L185.092 54.684C185.092 54.684 185.561 55.075 186.265 55.6614C187.796 56.9514 190.44 59.2228 191.805 60.6125C193.005 61.8401 193.38 66.5978 193.493 70.1807Z" fill="black"/>
<path d="M172.546 44.834C172.825 44.2652 172.964 43.6279 173.298 43.0884C173.789 42.3066 174.645 41.8062 175.525 41.5032C177.821 40.7116 182.675 39.5622 184.125 41.5032C184.411 41.8941 184.647 42.3281 185.042 42.5978C185.343 42.8031 185.707 42.891 186.037 43.0454C186.962 43.4794 187.552 44.4254 187.867 45.391C188.181 46.3567 188.275 47.3926 188.506 48.3876C188.801 49.664 189.319 50.8739 189.835 52.076C190.443 53.4951 191.088 54.967 192.261 55.9697C193.862 57.338 194.215 59.2751 195.701 60.7763C197.46 62.5589 197.403 65.5007 196.496 67.8365C196.377 68.1434 196.242 68.464 196.289 68.7904C196.336 69.1168 196.579 69.4139 196.807 69.6739L197.769 70.7588C195.494 71.308 192.919 70.1196 191.86 68.034C191.534 67.3889 191.317 66.6461 190.758 66.1868C190.257 65.7763 189.585 65.6786 188.961 65.4948C186.905 64.885 185.181 63.0065 185.116 60.8642C185.085 59.8576 185.4 58.8509 185.257 57.854C185.178 57.2849 184.952 56.7462 184.602 56.2903C184.065 55.5886 183.254 55.1175 182.816 54.3356C182.075 53.0279 182.638 51.3293 182.104 49.9259C181.94 49.4959 181.612 49.0658 181.152 49.0326C180.693 48.9994 180.3 49.3805 179.86 49.5506C178.945 49.9063 177.956 49.3023 177.192 48.6827C176.428 48.0631 175.566 47.3594 174.592 47.4982C173.949 47.5881 173.443 48.0259 172.851 48.2546C172.413 48.4227 171.525 48.5732 171.142 48.2038C170.333 47.4591 172.208 45.5298 172.546 44.834Z" fill="#591D4B"/>
<path opacity="0.1" d="M192.403 67.389C192.074 66.7439 191.859 66.0011 191.3 65.5438C190.8 65.1333 190.127 65.0336 189.502 64.8498C187.447 64.2419 185.723 62.3635 185.657 60.2212C185.626 59.2145 185.94 58.2059 185.8 57.209C185.718 56.6436 185.492 56.1086 185.145 55.6551C184.605 54.9533 183.794 54.4823 183.358 53.7004C182.617 52.3947 183.18 50.6961 182.645 49.2907C182.483 48.8626 182.152 48.4326 181.695 48.3974C181.237 48.3622 180.841 48.7473 180.403 48.9173C179.488 49.2731 178.497 48.6671 177.735 48.0494C176.972 47.4318 176.106 46.7261 175.135 46.863C174.492 46.9548 173.984 47.3927 173.393 47.6194C172.955 47.7875 172.066 47.94 171.683 47.5705C170.878 46.7887 172.752 44.8633 173.088 44.1714C173.368 43.6006 173.507 42.9653 173.843 42.4258C173.86 42.3965 173.88 42.3672 173.9 42.3379C173.648 42.5462 173.431 42.7929 173.256 43.0689C172.922 43.6084 172.783 44.2417 172.504 44.8145C172.166 45.5064 170.291 47.4376 171.098 48.2136C171.489 48.585 172.369 48.4326 172.807 48.2645C173.393 48.0358 173.905 47.5979 174.548 47.508C175.526 47.3692 176.386 48.0748 177.148 48.6925C177.911 49.3102 178.907 49.9161 179.818 49.5604C180.256 49.3903 180.639 49.0072 181.108 49.0424C181.577 49.0776 181.89 49.5057 182.06 49.9357C182.594 51.3392 182.031 53.0378 182.772 54.3454C183.21 55.1136 184.021 55.5945 184.558 56.3001C184.908 56.756 185.134 57.2948 185.213 57.8638C185.356 58.8607 185.041 59.8674 185.072 60.874C185.137 63.0242 186.861 64.8948 188.917 65.5047C189.537 65.6884 190.213 65.7861 190.714 66.1966C191.275 66.656 191.496 67.3987 191.816 68.0438C192.876 70.1294 195.45 71.3179 197.725 70.7686L197.272 70.2565C195.299 70.2858 193.304 69.1638 192.403 67.389Z" fill="black"/>
<path opacity="0.1" d="M178.927 58.4683C178.671 58.8592 177.938 60.8608 177.326 62.6083C176.753 62.3854 176.233 60.9644 176.233 60.9644L179.287 56.6211C179.599 57.0511 179.394 57.7646 178.927 58.4683Z" fill="black"/>
<path d="M179.045 58.3506C178.789 58.7415 178.056 60.7431 177.444 62.4906C176.872 62.2697 176.352 60.8467 176.352 60.8467L179.405 56.5054C179.718 56.9334 179.512 57.6489 179.045 58.3506Z" fill="#DCE7FF"/>
<path d="M161.292 78.3199L159.599 72.9817C159.579 72.9192 159.571 72.8534 159.577 72.788C159.582 72.7226 159.601 72.6589 159.631 72.6006C159.661 72.5423 159.702 72.4905 159.753 72.4483C159.803 72.406 159.861 72.3741 159.923 72.3543C160.049 72.315 160.186 72.327 160.303 72.3878C160.42 72.4485 160.509 72.5531 160.549 72.6788L162.242 78.0111L162.074 79.1272L161.292 78.3199Z" fill="#BE8B87"/>
<path opacity="0.1" d="M159.759 72.5126C159.885 72.4727 160.022 72.4844 160.14 72.5452C160.257 72.606 160.346 72.711 160.386 72.8371L162.079 78.1694L161.952 79.006L162.075 79.135L162.243 78.0189L160.541 72.6866C160.5 72.5609 160.412 72.4563 160.295 72.3956C160.178 72.3348 160.041 72.3228 159.915 72.3621C159.809 72.3965 159.718 72.4653 159.655 72.5576C159.689 72.5397 159.723 72.5247 159.759 72.5126Z" fill="white"/>
<path d="M161.292 78.3196L162.242 78.0186L162.103 78.9333L162.074 79.1346L161.796 78.8454L161.292 78.3196Z" fill="#EFC8C4"/>
<path d="M161.797 78.8454C161.813 78.8245 161.834 78.8072 161.857 78.7945C161.871 78.7859 161.887 78.7812 161.903 78.7812C161.92 78.7812 161.936 78.7859 161.949 78.7945C161.963 78.8106 161.974 78.8284 161.983 78.8473C161.995 78.8689 162.013 78.8873 162.034 78.9012C162.055 78.915 162.079 78.924 162.104 78.9275L162.074 79.1229L161.797 78.8454Z" fill="#727A9C"/>
<path d="M159.59 74.8779C159.59 74.8779 162.985 74.8584 162.186 76.3029C161.386 77.7474 160.137 77.9214 160.137 77.9214L159.59 74.8779Z" fill="#FFB0B1"/>
<path d="M138.473 10.0508H138.326C132.494 10.0508 127.335 13.1372 124.368 17.6916C121.401 13.1372 116.242 10.0508 110.41 10.0508H110.263C105.886 10.0925 101.702 11.86 98.6203 14.9693C95.5389 18.0785 93.809 22.2782 93.8066 26.6557C93.8066 32.0917 96.1874 39.8048 100.83 46.1516C109.675 58.2452 124.368 68.8258 124.368 68.8258C124.368 68.8258 139.061 58.2471 147.904 46.1516C152.549 39.8048 154.927 32.0917 154.927 26.6557C154.925 22.2785 153.196 18.0791 150.114 14.97C147.033 11.8608 142.85 10.093 138.473 10.0508ZM136.376 47.082C135.711 47.0795 135.063 46.8762 134.517 46.4987C133.97 46.1213 133.55 45.5874 133.313 44.9671H129.825C129.596 44.9657 129.372 44.8926 129.186 44.758C129 44.6234 128.861 44.4341 128.788 44.2165L127.716 40.9893L124.327 52.8327C124.261 53.0607 124.123 53.2611 123.933 53.4038C123.744 53.5466 123.513 53.624 123.275 53.6243H123.207C122.959 53.6124 122.723 53.5158 122.538 53.3507C122.353 53.1856 122.231 52.9621 122.191 52.7174L118.698 31.7085L116.145 44.1403C116.086 44.3764 115.95 44.5862 115.759 44.736C115.567 44.8859 115.331 44.9672 115.087 44.9671H110.175C110.028 44.9733 109.881 44.9497 109.743 44.8976C109.605 44.8456 109.479 44.7662 109.373 44.6642C109.266 44.5622 109.182 44.4398 109.124 44.3042C109.066 44.1686 109.036 44.0228 109.036 43.8754C109.036 43.728 109.066 43.5822 109.124 43.4466C109.182 43.3111 109.266 43.1886 109.373 43.0866C109.479 42.9846 109.605 42.9052 109.743 42.8532C109.881 42.8011 110.028 42.7775 110.175 42.7837H114.227L117.843 26.0693C117.903 25.8222 118.046 25.6034 118.249 25.4503C118.452 25.2971 118.701 25.2192 118.955 25.2298C119.209 25.2405 119.452 25.3389 119.641 25.5085C119.83 25.678 119.955 25.908 119.993 26.1592L123.561 47.5903L126.598 36.994C126.662 36.7708 126.795 36.5741 126.98 36.4332C127.164 36.2923 127.389 36.2147 127.621 36.2121H127.642C127.872 36.2122 128.096 36.2848 128.282 36.4196C128.468 36.5544 128.606 36.7444 128.678 36.9627L130.615 42.7896H133.27C133.458 42.2162 133.802 41.7061 134.262 41.3156C134.722 40.9251 135.282 40.6694 135.878 40.5767C136.475 40.484 137.085 40.5578 137.642 40.7902C138.199 41.0225 138.682 41.4042 139.035 41.8933C139.389 42.3823 139.601 42.9596 139.648 43.5615C139.694 44.1633 139.574 44.7663 139.299 45.3039C139.024 45.8415 138.607 46.2927 138.092 46.6079C137.577 46.9231 136.985 47.0899 136.381 47.0899L136.376 47.082Z" fill="#0A4269"/>
</g>
<defs>
<linearGradient id="paint0_linear" x1="70.1516" y1="151.462" x2="70.1516" y2="31.1828" gradientUnits="userSpaceOnUse">
<stop stop-color="#808080" stop-opacity="0.25"/>
<stop offset="0.54" stop-color="#808080" stop-opacity="0.12"/>
<stop offset="1" stop-color="#808080" stop-opacity="0.1"/>
</linearGradient>
<linearGradient id="paint1_linear" x1="43632" y1="90751.9" x2="43632" y2="29011.8" gradientUnits="userSpaceOnUse">
<stop stop-color="#808080" stop-opacity="0.25"/>
<stop offset="0.54" stop-color="#808080" stop-opacity="0.12"/>
<stop offset="1" stop-color="#808080" stop-opacity="0.1"/>
</linearGradient>
<clipPath id="clip0">
<rect width="216" height="153" fill="white" transform="translate(0.5)"/>
</clipPath>
</defs>
</svg>
