<svg width="241" height="240" viewBox="0 0 241 240" fill="none" xmlns="http://www.w3.org/2000/svg">
<path d="M44.5448 60.3556C47.4248 62.3188 51.5576 62.122 51.5576 62.122C51.5576 62.122 53.8616 58.69 53.6744 55.2052C53.516 52.3012 51.4184 50.2468 49.3544 50.7124C46.3592 51.3604 48.2072 56.1604 48.2072 56.1604C48.2072 56.1604 45.0536 52.0948 42.9272 54.3028C41.468 55.858 42.14 58.7188 44.5448 60.3556Z" fill="#EBEBEB"/>
<path d="M189.226 80.3471C188.982 83.8271 191.228 87.2975 191.228 87.2975C191.228 87.2975 195.346 87.5615 198.265 85.6463C200.698 84.0479 201.418 81.2015 199.974 79.6415C197.9 77.3999 194.694 81.4127 194.694 81.4127C194.694 81.4127 196.614 76.6415 193.647 75.9215C191.564 75.4223 189.433 77.4431 189.226 80.3471Z" fill="#EBEBEB"/>
<path d="M194.65 57.0778C195.817 59.0746 198.337 60.1306 198.337 60.1306C198.337 60.1306 200.689 58.7386 201.567 56.6026C202.302 54.8218 201.634 52.9978 200.262 52.6858C198.289 52.2346 198.025 55.6282 198.025 55.6282C198.025 55.6282 197.3 52.3018 195.409 53.017C194.089 53.5162 193.681 55.417 194.65 57.0778Z" fill="#EBEBEB"/>
<path d="M202.532 169.704C201.793 167.169 200.929 164.356 202.052 161.817C203.089 159.475 204.932 157.156 207.615 156.753C208.378 156.638 208.882 156.696 208.767 157.574C208.59 158.918 207.481 160.2 206.751 161.28C205.792 162.664 204.966 164.136 204.284 165.676C203.804 166.761 203.458 167.894 203.017 168.993C202.964 169.132 202.911 169.272 202.849 169.406C202.849 169.459 202.806 169.512 202.782 169.564C202.779 169.588 202.779 169.612 202.782 169.636C202.786 169.657 202.786 169.679 202.781 169.7C202.776 169.721 202.766 169.74 202.753 169.756C202.742 169.77 202.729 169.781 202.714 169.79C202.697 169.797 202.678 169.8 202.659 169.799C202.64 169.799 202.622 169.794 202.605 169.786C202.588 169.778 202.572 169.766 202.56 169.752C202.547 169.738 202.538 169.722 202.532 169.704Z" fill="#C2C7D6"/>
<path d="M202.734 169.79C202.201 167.529 201.486 165.129 202.561 162.945C203.082 161.936 203.759 161.016 204.567 160.218C204.927 159.854 206.007 158.754 206.574 158.951C207.63 159.306 204.606 162.916 204.342 163.377C203.424 165.104 202.968 167.038 203.017 168.993C202.964 169.132 202.911 169.271 202.849 169.406C202.785 168.025 202.947 166.644 203.329 165.316C203.876 163.482 205.062 162.239 206.06 160.66C206.276 160.319 207.02 159.263 206.353 159.105C205.911 159.004 204.865 160.065 204.644 160.295C203.878 161.055 203.231 161.925 202.724 162.878C201.61 165.066 202.278 167.466 202.758 169.756C202.751 169.768 202.743 169.78 202.734 169.79Z" fill="white"/>
<path d="M201.327 171.509H201.015C201.003 171.51 200.99 171.507 200.979 171.501C200.968 171.495 200.959 171.486 200.953 171.476C200.935 171.455 200.926 171.428 200.926 171.401C200.926 171.374 200.935 171.348 200.953 171.327C200.962 171.322 200.973 171.319 200.984 171.319C200.995 171.319 201.006 171.322 201.015 171.327H201.159H201.188C202.762 170.444 204.481 169.824 206.05 168.927C207.62 168.029 208.993 167.098 210.562 166.354C211.546 165.874 216.582 163.844 216.514 166.306C216.481 167.396 215.185 168.466 214.398 169.076C213.338 169.882 212.141 170.49 210.865 170.871C207.73 171.84 204.538 171.384 201.327 171.509Z" fill="#C2C7D6"/>
<path d="M208.009 170.601C209.213 170.35 210.374 169.925 211.455 169.338C211.83 169.137 213.625 168.153 213.414 167.514C213.279 167.101 212.43 167.241 212.151 167.274C210.951 167.418 209.862 168.095 208.791 168.604C206.607 169.637 204.349 170.508 202.038 171.21L201.558 171.263C201.433 171.263 201.303 171.292 201.178 171.311H201.049H200.948C200.93 171.331 200.92 171.356 200.92 171.383C200.92 171.41 200.93 171.436 200.948 171.455L201.241 171.426L201.01 171.493H201.265H201.322L201.711 171.388C203.824 171.251 205.927 170.989 208.009 170.601ZM202.546 171.157C203.9 170.749 205.23 170.269 206.535 169.717C207.586 169.285 208.618 168.805 209.641 168.306C210.208 168.002 210.801 167.747 211.412 167.543C211.892 167.404 213.658 167.029 212.799 168.21C212.17 169.065 210.529 169.65 209.574 169.972C208.514 170.324 207.425 170.578 206.319 170.73C205.071 170.927 203.804 171.033 202.546 171.157Z" fill="white"/>
<path d="M194.66 174.657C194.66 174.613 194.626 174.57 194.622 174.565C194.142 172.199 193.143 169.137 194.199 166.804C194.982 165.076 196.882 163.093 198.913 163.065C201.202 163.036 199.345 166.607 198.913 167.538C197.671 169.992 196.292 172.375 194.785 174.676C194.785 174.676 194.785 174.676 194.751 174.714C194.718 174.753 194.684 174.719 194.66 174.657Z" fill="#C2C7D6"/>
<path d="M194.746 174.719C194.794 174.565 194.847 174.412 194.9 174.239C195.476 172.458 196.134 170.697 196.878 168.959C197.06 168.522 198.74 165.301 197.804 165.119C197.233 165.008 196.422 166.137 196.143 166.506C195.646 167.163 195.261 167.898 195.006 168.681C194.43 170.485 194.698 172.429 194.674 174.311C194.679 174.399 194.679 174.487 194.674 174.575V174.628C194.684 174.719 194.718 174.748 194.746 174.719ZM194.91 169.761C195.06 168.931 195.349 168.133 195.764 167.399C196.038 166.919 197.089 165.172 197.756 165.397C198.111 165.512 197.986 165.719 197.9 166.136C197.86 166.329 197.807 166.518 197.742 166.703C197.583 167.159 197.372 167.596 197.175 168.037C196.82 168.81 196.489 169.583 196.172 170.37C195.654 171.657 195.212 172.962 194.77 174.287C194.847 172.77 194.646 171.249 194.9 169.761H194.91Z" fill="white"/>
<path d="M200.554 177.716C197.721 177.779 194.932 176.999 192.543 175.474L192.505 175.436C192.492 175.416 192.486 175.394 192.486 175.371C192.486 175.348 192.492 175.325 192.505 175.306C192.521 175.286 192.544 175.272 192.57 175.267C192.596 175.263 192.622 175.268 192.644 175.282L192.793 175.373C196.071 174.956 199.34 174.586 202.609 174.106C203.377 173.996 208.306 173.372 207.889 175.037C207.634 176.069 205.69 176.621 204.831 176.924C203.454 177.404 202.012 177.671 200.554 177.716Z" fill="#C2C7D6"/>
<path d="M204.601 175.785C204.846 175.641 205.081 175.435 204.822 175.18C204.342 174.7 202.018 175.046 201.37 175.108C198.706 175.363 196.09 175.377 193.426 175.392H192.745L192.519 175.296C192.506 175.314 192.498 175.337 192.498 175.36C192.498 175.384 192.506 175.406 192.519 175.425H192.591L192.894 175.55C194.522 176.204 196.241 176.6 197.991 176.726C199.098 176.803 200.209 176.764 201.308 176.611C202.306 176.491 203.713 176.328 204.601 175.785ZM193.052 175.512L192.903 175.459H193.182C195.246 175.576 197.316 175.562 199.378 175.416C200.425 175.329 201.462 175.18 202.508 175.137C202.95 175.137 204.202 175.022 204.486 175.32C204.769 175.617 204.298 175.732 204.039 175.833C203.78 175.934 203.497 175.996 203.319 176.044C199.927 176.958 196.332 176.771 193.052 175.512Z" fill="white"/>
<path d="M185.78 177.6L185.665 177.12L186.889 176.779C188.535 176.299 190.182 175.819 191.814 175.301C192.75 175.008 193.671 174.701 194.578 174.341L194.67 174.312C194.742 174.278 194.818 174.254 194.895 174.226L195.13 174.13C197.184 173.387 199.109 172.326 200.833 170.986C201.399 170.506 201.951 170.026 202.489 169.546C202.542 169.498 202.59 169.445 202.642 169.402L202.686 169.358C202.738 169.315 202.791 169.262 202.844 169.21L202.964 169.094C204.591 167.534 206.098 165.835 207.634 164.203C208.071 163.723 208.513 163.243 208.959 162.802C208.982 162.771 209.008 162.742 209.036 162.715L209.132 162.61C211.09 160.55 213.068 158.506 214.964 156.398C215.031 156.317 215.142 156.437 215.074 156.514C213.822 157.93 212.602 159.394 211.374 160.834L210.894 161.41L209.934 162.547C209.281 163.301 208.628 164.05 207.961 164.784C206.119 166.934 204.147 168.97 202.057 170.88C201.898 171.014 201.74 171.149 201.577 171.283C201.414 171.418 201.375 171.451 201.274 171.528L200.919 171.811C198.811 173.351 196.449 174.508 193.94 175.229L193.417 175.392L193.172 175.474L193.042 175.512L192.874 175.565L192.75 175.598L192.298 175.738C190.657 176.218 189.006 176.698 187.359 177.139C186.841 177.283 186.313 177.442 185.78 177.6Z" fill="#C2C7D6"/>
<path d="M212.348 156.033C213.745 154.319 216.884 151.78 219.207 153.201C219.651 153.454 219.985 153.862 220.146 154.347C220.307 154.831 220.284 155.358 220.081 155.827C219.601 157.007 218.362 157.795 217.316 158.404C214.522 160.031 211.599 161.38 208.921 163.204C208.921 163.228 208.69 163.358 208.633 163.401C208.575 163.444 208.527 163.348 208.58 163.31L208.839 163.132C209.804 160.718 210.692 158.068 212.348 156.033Z" fill="#C2C7D6"/>
<path d="M208.916 163.224L208.959 163.18C209.563 162.555 210.204 161.967 210.879 161.419C212.305 160.301 213.798 159.27 215.348 158.332C215.938 157.963 218.871 156.244 217.326 155.452C216.673 155.112 215.751 155.419 215.122 155.654C214.111 156.047 213.188 156.636 212.406 157.387C210.831 158.865 209.847 160.79 209.046 162.758L208.935 163.027L208.868 163.094C208.851 163.108 208.837 163.124 208.825 163.142C208.821 163.153 208.821 163.165 208.825 163.176C208.823 163.186 208.824 163.197 208.827 163.207C208.83 163.217 208.835 163.226 208.842 163.235C208.849 163.243 208.857 163.249 208.867 163.254C208.876 163.259 208.886 163.262 208.897 163.262C208.908 163.252 208.915 163.238 208.916 163.224ZM209.137 162.633C209.808 161.002 210.72 159.481 211.844 158.121C212.449 157.425 213.156 156.825 213.942 156.34C214.292 156.127 214.659 155.944 215.041 155.793C215.324 155.678 215.616 155.586 215.914 155.52C216.567 155.376 217.354 155.462 217.513 155.832C217.719 156.283 217.479 156.513 217.033 156.964C216.882 157.116 216.721 157.259 216.553 157.392C216.116 157.723 215.65 158.016 215.19 158.299C214.417 158.779 213.654 159.259 212.905 159.768C212.396 160.108 211.897 160.468 211.417 160.843C210.577 161.485 209.783 162.184 209.041 162.936L209.137 162.633Z" fill="white"/>
<path d="M27.1112 160.863C28.412 162.063 29.636 163.349 30.8408 164.65C31.5272 165.384 32.1992 166.128 32.8904 166.867C33.644 167.679 34.3592 168.581 35.42 168.979C35.466 169 35.5095 169.026 35.5496 169.056C35.5569 169.079 35.5579 169.103 35.5523 169.126C35.5467 169.15 35.5348 169.171 35.5179 169.188C35.501 169.205 35.4798 169.216 35.4566 169.222C35.4334 169.228 35.4091 169.227 35.3864 169.219L35.3144 169.195H35.3C34.9722 169.159 34.6499 169.083 34.34 168.97C33.4666 168.764 32.6059 168.508 31.7624 168.202C30.0286 167.589 28.3775 166.764 26.8472 165.744C25.4837 164.824 24.2475 163.728 23.1704 162.485C22.3112 161.487 21.02 160.013 20.7704 158.669C20.5544 157.45 22.124 157.709 22.8488 157.906C24.5 158.4 25.8728 159.725 27.1112 160.863Z" fill="#C2C7D6"/>
<path d="M23.156 159.969C22.7816 160.492 24.1976 162.076 24.7928 162.786C25.7341 163.897 26.8058 164.889 27.9848 165.743C30.117 167.249 32.4878 168.385 34.9976 169.103L35.3 169.194H35.3288L35.396 169.218C35.4189 169.225 35.4431 169.226 35.4662 169.22C35.4894 169.214 35.5106 169.202 35.5277 169.186C35.5448 169.169 35.5572 169.148 35.5635 169.125C35.5699 169.102 35.5701 169.078 35.564 169.055C35.3624 168.964 35.1704 168.863 34.9832 168.757C34.796 168.652 34.6376 168.57 34.4744 168.469C32.66 167.385 31.0856 165.887 29.54 164.457C27.7256 162.796 23.6552 159.282 23.156 159.969ZM34.7432 168.825C34.9928 168.964 35.252 169.089 35.5064 169.209C35.3048 169.141 35.0984 169.079 34.8968 169.007C32.7058 168.314 30.6182 167.33 28.6904 166.079C27.6107 165.359 26.61 164.527 25.7048 163.597C25.2216 163.099 24.7696 162.572 24.3512 162.018C24.1784 161.783 23.036 160.396 23.3384 160.122C23.5496 159.93 24.86 160.785 24.8888 160.799C25.148 160.967 25.4072 161.149 25.6568 161.337C26.18 161.721 26.6792 162.133 27.1688 162.551C28.2344 163.458 29.2472 164.433 30.2792 165.378C31.6287 166.696 33.1267 167.853 34.7432 168.825Z" fill="white"/>
<path d="M36.9416 155.467C38.1272 157.761 38.3816 160.401 38.4392 162.945C38.4392 164.308 38.4104 165.671 38.396 167.035C38.3176 168.252 38.361 169.474 38.5256 170.683C38.5256 170.735 38.5256 170.788 38.5592 170.841C38.6284 171.173 38.7363 171.495 38.8808 171.801C38.8856 171.812 38.888 171.823 38.888 171.835C38.888 171.846 38.8856 171.858 38.8808 171.868L38.9384 171.959L38.9048 171.988L38.8184 171.911C38.802 171.913 38.7855 171.91 38.7715 171.901C38.7575 171.892 38.747 171.879 38.7416 171.863V171.825L38.66 171.748C36.668 169.915 35.5544 166.804 34.82 164.308C34.0856 161.812 33.7112 159.158 34.3688 156.628C34.5368 155.99 34.82 154.468 35.5928 154.252C36.3656 154.036 36.692 154.982 36.9416 155.467Z" fill="#C2C7D6"/>
<path d="M35.8904 156.96C35.108 157.089 35.276 159.235 35.3 159.758C35.4028 161.341 35.6438 162.912 36.02 164.453C36.5043 166.974 37.3806 169.403 38.6168 171.653L38.6456 171.744L38.7272 171.821C38.7246 171.833 38.7246 171.846 38.7272 171.859C38.7333 171.874 38.744 171.887 38.7578 171.896C38.7716 171.904 38.7878 171.908 38.804 171.907L38.7752 171.787C38.6888 171.47 38.6168 171.153 38.5496 170.827C38.5496 170.774 38.5256 170.721 38.516 170.669C38.1369 168.432 37.9044 166.173 37.82 163.905C37.7284 162.327 37.4906 160.76 37.1096 159.225C37.0136 158.851 36.548 156.845 35.8904 156.96ZM36.5912 158.093C37.6616 160.565 37.628 163.507 37.8056 166.147C37.8828 167.927 38.132 169.695 38.5496 171.427C37.5035 169.346 36.74 167.134 36.2792 164.851C35.9696 163.563 35.734 162.259 35.5736 160.944C35.4782 160.231 35.4381 159.512 35.4536 158.793C35.4585 158.361 35.5133 157.931 35.6168 157.512C35.8856 156.758 36.4088 157.665 36.5912 158.088V158.093Z" fill="white"/>
<path d="M43.1192 175.3C43.1306 175.321 43.1365 175.344 43.1365 175.367C43.1365 175.391 43.1306 175.414 43.1192 175.435H43.172C43.1774 175.434 43.183 175.434 43.1882 175.436C43.1934 175.438 43.1982 175.44 43.2023 175.444C43.2064 175.448 43.2097 175.452 43.2119 175.457C43.2141 175.462 43.2153 175.467 43.2152 175.473C43.2166 175.478 43.2169 175.484 43.2159 175.489C43.2149 175.495 43.2127 175.5 43.2095 175.505C43.2063 175.509 43.2022 175.513 43.1974 175.516C43.1925 175.519 43.1872 175.52 43.1816 175.521C40.1144 176.001 36.7016 176.145 33.6824 175.319C32.4037 174.982 31.1891 174.438 30.0872 173.707C29.3384 173.198 27.8264 172.18 27.74 171.167C27.572 169.132 32.9672 171.244 33.7784 171.566C35.2568 172.147 36.6872 172.857 38.1512 173.486C39.7592 174.153 41.4152 174.705 43.0664 175.257C43.0877 175.266 43.106 175.281 43.1192 175.3Z" fill="#C2C7D6"/>
<path d="M43.1144 175.296C42.9512 175.296 42.788 175.267 42.6344 175.248C39.9508 174.948 37.3297 174.235 34.8632 173.136C33.6408 172.549 32.3706 172.067 31.0664 171.696C30.74 171.619 29.54 171.216 29.732 172.008C29.8328 172.406 31.8104 173.549 32.348 173.798C33.5836 174.364 34.8848 174.774 36.2216 175.018C38.4563 175.463 40.7384 175.624 43.0136 175.498H43.2104C43.2104 175.492 43.2093 175.487 43.2071 175.482C43.2049 175.477 43.2016 175.472 43.1975 175.469C43.1934 175.465 43.1886 175.462 43.1834 175.461C43.1781 175.459 43.1726 175.459 43.1672 175.459H43.1192C43.135 175.435 43.143 175.406 43.1422 175.377C43.1413 175.348 43.1316 175.32 43.1144 175.296ZM37.3544 175.061C36.019 174.878 34.7062 174.556 33.4376 174.101C32.9358 173.914 32.4454 173.697 31.9688 173.453C31.5902 173.262 31.226 173.044 30.8792 172.8C30.0488 172.195 29.8808 171.974 29.9528 171.811C30.0248 171.648 30.1736 171.658 30.8456 171.768C31.2805 171.85 31.7064 171.974 32.1176 172.138C32.6984 172.358 33.2792 172.618 33.8504 172.853C35.0024 173.333 36.1448 173.861 37.3304 174.269C39.0242 174.866 40.7903 175.234 42.5816 175.363C40.8322 175.409 39.0821 175.307 37.3496 175.061H37.3544Z" fill="white"/>
<path d="M42.7976 166.483C43.5265 167.318 44.0668 168.3 44.3816 169.363C45.0824 171.451 45.3416 173.659 45.8792 175.79C45.9656 176.107 46.052 176.424 46.1528 176.75C46.1528 176.784 46.3736 177.134 46.3496 177.115C46.3256 177.096 46.2392 177.004 46.0712 176.832C45.2408 175.958 42.7688 173.28 41.8232 171.465C41.2016 170.342 40.7181 169.148 40.3832 167.908C40.2488 167.318 39.9992 165.988 40.5848 165.532C41.1704 165.076 42.3992 166.08 42.7976 166.483Z" fill="#C2C7D6"/>
<path d="M41.54 167.001C40.7192 167.342 42.4184 170.952 42.6296 171.427C43.4231 173.185 44.4412 174.832 45.6584 176.328C45.7928 176.496 45.932 176.664 46.0712 176.808L46.3448 177.096C46.2854 176.971 46.2197 176.849 46.148 176.731C46.148 176.678 46.1192 176.62 46.1 176.568C46.0232 176.304 45.9464 176.04 45.884 175.785C45.3416 174.345 44.828 172.905 44.2568 171.504C43.8569 170.478 43.3753 169.486 42.8168 168.537C42.692 168.345 41.9 166.848 41.54 167.001ZM42.212 167.745C44.0504 170.385 44.7176 173.558 45.932 176.486C45.932 176.534 45.9704 176.577 45.9896 176.63C45.9416 176.563 45.884 176.5 45.836 176.433C44.8588 175.176 44.0007 173.831 43.2728 172.416C42.8343 171.55 42.448 170.659 42.116 169.747C41.9112 169.255 41.7396 168.75 41.6024 168.235C41.5544 168.009 41.444 167.38 41.6024 167.304C41.7608 167.227 42.092 167.572 42.212 167.745Z" fill="white"/>
<path d="M26.8712 145.766C29.7512 150.595 28.3112 156.806 30.8552 161.765V161.789C30.932 161.942 31.0136 162.091 31.1 162.24C31.1091 162.254 31.1143 162.271 31.1151 162.288C31.1159 162.305 31.1122 162.323 31.1045 162.338C31.0968 162.353 31.0853 162.367 31.0711 162.376C31.0568 162.386 31.0404 162.392 31.0232 162.393C31.008 162.396 30.9923 162.394 30.9784 162.387C30.9646 162.38 30.9534 162.369 30.9464 162.355L30.8888 162.245C28.5944 160.113 26.7368 157.219 25.3688 154.421C24.1832 151.987 23.4008 149.251 23.8088 146.534C23.9048 145.862 24.0584 144.523 24.8696 144.269C25.6808 144.014 26.516 145.166 26.8712 145.766Z" fill="#C2C7D6"/>
<path d="M25.8776 147.538C25.5368 147.648 25.4936 148.152 25.4552 148.426C25.3569 149.109 25.3423 149.802 25.412 150.49C25.5566 151.891 25.9109 153.263 26.4632 154.56C27.3362 156.822 28.484 158.967 29.8808 160.949C30.2024 161.39 30.5432 161.818 30.9032 162.226C30.9464 162.278 30.9944 162.326 31.0376 162.374C31.0542 162.372 31.0699 162.365 31.0834 162.355C31.097 162.345 31.108 162.332 31.1155 162.317C31.123 162.302 31.1268 162.286 31.1266 162.269C31.1264 162.252 31.1222 162.236 31.1144 162.221C31.028 162.077 30.956 161.938 30.8744 161.789C30.8709 161.775 30.8709 161.76 30.8744 161.746C30.2891 160.791 29.7988 159.781 29.4104 158.731C28.8721 157.074 28.4409 155.384 28.1192 153.672C27.956 153.024 27.0392 147.154 25.8776 147.538ZM26.6408 148.526C27.2312 149.789 27.4184 151.224 27.7208 152.578C28.0232 153.931 28.316 155.309 28.6376 156.667C28.8962 157.752 29.2446 158.813 29.6792 159.84C30.0392 160.695 30.4779 161.514 30.9896 162.288C30.4114 161.584 29.8791 160.843 29.396 160.07V160.042C28.5533 158.657 27.7967 157.223 27.1304 155.746C27.1245 155.726 27.1164 155.706 27.1064 155.688C26.4851 154.402 26.0225 153.044 25.7288 151.646C25.5768 150.885 25.5108 150.109 25.532 149.333C25.5752 148.454 25.7 147.749 26.012 147.734C26.1896 147.715 26.468 148.152 26.6408 148.526Z" fill="white"/>
<path d="M27.2312 155.669C28.0232 157.066 28.8488 158.448 29.6792 159.826C30.0696 160.466 30.4616 161.106 30.8552 161.746C30.8517 161.76 30.8517 161.775 30.8552 161.789L31.2776 162.49C32.5544 164.597 33.8168 166.81 35.4248 168.696C36.2874 169.679 37.2386 170.58 38.2664 171.389C38.3768 171.47 38.4824 171.557 38.588 171.643L38.7656 171.778L38.8664 171.85C39.7592 172.541 40.6952 173.189 41.6072 173.818C42.8744 174.691 44.1944 175.474 45.524 176.218C45.5588 176.247 45.5976 176.271 45.6392 176.29L45.8168 176.395L45.9128 176.448L46.0808 176.549C46.508 176.794 46.9352 177.029 47.3576 177.298L47.0888 177.682C45.6926 177.054 44.3448 176.324 43.0568 175.498C43.0294 175.483 43.0036 175.465 42.98 175.445C42.8504 175.373 42.7256 175.291 42.6008 175.21L42.1208 174.907C41.756 174.667 41.3912 174.427 41.036 174.178C38.8909 172.793 36.9171 171.159 35.156 169.31L35.0168 169.152L34.9592 169.085L34.8584 168.97L34.7048 168.787L34.436 168.451L34.3592 168.35C33.0325 166.514 31.8329 164.59 30.7688 162.59C30.5672 162.235 30.3704 161.88 30.1736 161.525L29.8424 160.93L29.3624 160.018V159.989C28.5992 158.549 27.8696 157.109 27.0968 155.693C27.0824 155.664 27.1928 155.602 27.2312 155.669Z" fill="#C2C7D6"/>
<path d="M169.402 86.8368C166.489 93.2256 154.585 116.309 145.767 120.394C139.83 123.144 117.241 117.994 111.922 115.406C109.748 114.35 116.022 96.8832 118.609 96.8736C121.422 96.8736 138.246 102.816 140.089 102.24C141.932 101.664 154.614 89.6496 162.649 83.712C167.458 80.16 171.039 83.2416 169.402 86.8368Z" fill="#AD6359"/>
<path d="M118.321 117.601C114.092 117.088 100.35 111.841 97.8776 110.19C95.4056 108.539 88.6232 103.297 89.684 101.281C90.7448 99.2651 92.8568 100.633 92.8568 100.633C92.8568 100.633 90.0632 97.7531 91.5944 96.0299C92.8232 94.6523 95.8904 96.4283 95.8904 96.4283C95.8904 96.4283 93.0104 93.1163 94.7336 91.5995C96.3224 90.2171 99.1448 92.9675 99.1448 92.9675C99.1448 92.9675 97.004 89.9483 98.7896 88.9115C100.935 87.6635 104.646 92.8859 107.511 94.4891C108.164 94.8539 125.636 98.5739 125.636 98.5739L118.321 117.601Z" fill="#AD6359"/>
<path d="M99.188 92.771C102.366 96.395 103.786 97.8062 108.078 99.5582C108.159 99.5918 108.126 99.7214 108.034 99.6926C103.681 98.363 101.871 96.8126 98.996 92.891C98.8568 92.7038 99.0392 92.603 99.188 92.771Z" fill="#263238"/>
<path d="M95.9336 96.4079C99.1208 100.137 101.146 101.347 105.505 103.512C105.567 103.541 105.505 103.651 105.457 103.622C101.002 101.856 98.4872 100.627 95.7896 96.4799C95.6648 96.2927 95.7896 96.2399 95.9336 96.4079Z" fill="#263238"/>
<path d="M93.0728 100.733C96.4328 104.122 98.5592 105.668 103.057 107.228C103.068 107.23 103.078 107.235 103.087 107.242C103.096 107.249 103.104 107.258 103.11 107.267C103.116 107.277 103.119 107.288 103.121 107.299C103.123 107.311 103.122 107.322 103.119 107.333C103.116 107.344 103.111 107.355 103.105 107.364C103.098 107.373 103.089 107.38 103.079 107.386C103.07 107.392 103.059 107.396 103.047 107.397C103.036 107.399 103.025 107.398 103.014 107.396C98.2664 106.253 95.588 104.343 92.9816 100.848C92.7992 100.608 92.8616 100.522 93.0728 100.733Z" fill="#263238"/>
<path d="M125.636 98.5686C125.636 98.5686 120.874 95.6454 118.686 94.143C116.497 92.6406 110.9 87.5526 108.726 88.2534C106.292 89.0454 109.686 95.031 113.583 97.7382C113.583 97.7382 111.183 105.13 114.793 107.905C115.575 108.509 120.486 109.791 121.513 109.306L125.636 98.5686Z" fill="#AD6359"/>
<path d="M113.881 98.1513C112.844 100.998 112.628 104.986 114.481 107.367C114.534 107.439 114.442 107.526 114.38 107.463C112.042 105.174 112.249 100.561 113.334 98.0745C113.54 97.5945 114.15 97.4409 113.881 98.1513Z" fill="#263238"/>
<path d="M125.636 98.568L118.321 117.6C118.544 118.632 119.078 119.571 119.85 120.292C120.622 121.012 121.596 121.48 122.641 121.632C126.404 122.266 141.716 123.802 146.799 120.528C151.882 117.254 164.314 99.6048 168.879 88.8C173.444 77.9952 163.777 82.344 162.073 83.688C160.369 85.032 140.425 101.386 139.618 101.568C138.812 101.75 132.543 99.0816 129.759 98.4672C126.975 97.8528 125.636 98.568 125.636 98.568Z" fill="#37474F"/>
<path d="M168.884 88.8014C164.329 99.6062 151.902 117.256 146.804 120.529C143.17 122.872 134.324 122.752 128.175 122.262L169.412 82.2734C170.334 83.1134 170.463 85.0382 168.884 88.8014Z" fill="#263238"/>
<path d="M194.847 143.568C194.886 143.52 147.327 132.283 147.327 132.283C147.25 132.072 157.244 93.6576 163.825 84.1488C166.057 80.9232 172.316 79.3248 177.265 84.432C190.623 98.2848 194.804 143.616 194.847 143.568Z" fill="#455A64"/>
<path d="M183.822 89.5491C196.302 106.349 205.234 131.736 198.356 136.44C191.636 141.039 172.071 134.842 160.695 124.44C158.862 122.755 169.767 107.64 172.081 108.946C175.311 110.779 178.993 114.317 179.314 114.331C180.006 114.37 175.244 97.7091 173.876 89.4339C171.97 77.8995 179.137 83.2467 183.822 89.5491Z" fill="#AD6359"/>
<path d="M192.327 126.365C191.779 125.324 191.137 124.336 190.407 123.413C189.719 122.47 188.962 121.58 188.142 120.749C185.486 118.158 182.469 115.966 179.185 114.24C179.142 114.24 179.113 114.269 179.151 114.293C179.689 114.643 185.266 118.695 187.446 120.787C188.267 121.597 189.047 122.448 189.783 123.336C190.21 123.816 190.633 124.344 191.036 124.867C191.439 125.391 191.809 125.933 192.226 126.437C192.236 126.45 192.25 126.459 192.267 126.462C192.283 126.465 192.299 126.461 192.313 126.451C192.326 126.442 192.335 126.427 192.338 126.411C192.341 126.395 192.337 126.378 192.327 126.365Z" fill="#263238"/>
<path d="M173.324 109.71C173.324 109.71 167.694 104.603 163.854 101.435C161.713 99.6682 157.772 96.9658 155.602 96.3898C152.362 95.5258 138.255 93.9898 137.804 97.393C137.401 100.484 142.23 100.235 142.23 100.235C142.23 100.235 136.95 100.009 137.463 103.196C137.977 106.383 144.27 105.481 144.27 105.481C144.27 105.481 138.654 104.852 139.556 108.198C140.338 111.107 147.663 110.814 147.663 110.814C147.663 110.814 141.841 109.503 142.35 112.561C142.911 115.921 153.956 116.881 153.956 116.881C157.753 122.161 161.578 125.564 164.756 127.364C165.514 127.791 173.324 109.71 173.324 109.71Z" fill="#AD6359"/>
<path d="M142.58 105.486L144.063 105.342C145.019 105.226 145.981 105.166 146.943 105.164C147.903 105.164 148.825 105.236 149.77 105.322C150.716 105.409 151.753 105.601 152.746 105.668C152.755 105.666 152.764 105.665 152.773 105.667C152.782 105.668 152.79 105.672 152.797 105.677C152.804 105.682 152.81 105.689 152.814 105.697C152.818 105.705 152.82 105.714 152.82 105.723C152.82 105.732 152.818 105.741 152.814 105.749C152.81 105.757 152.804 105.764 152.797 105.769C152.79 105.775 152.782 105.778 152.773 105.78C152.764 105.782 152.755 105.781 152.746 105.778C151.763 105.704 150.776 105.685 149.79 105.721C148.83 105.721 147.87 105.721 146.91 105.754C145.95 105.788 145.023 105.721 144.082 105.711C143.602 105.711 143.122 105.711 142.671 105.735C142.224 105.774 141.774 105.774 141.327 105.735C141.284 105.735 141.284 105.668 141.327 105.654C141.738 105.555 142.158 105.499 142.58 105.486Z" fill="#263238"/>
<path d="M141.14 100.21C141.946 99.9703 145.575 99.7591 146.511 99.7639C148.315 99.7569 150.115 99.9338 151.882 100.292C151.894 100.295 151.905 100.303 151.912 100.313C151.92 100.323 151.924 100.335 151.924 100.347C151.924 100.359 151.92 100.372 151.912 100.381C151.905 100.391 151.894 100.399 151.882 100.402C150.078 100.402 148.273 100.402 146.468 100.369C145.585 100.369 141.577 100.445 141.154 100.397C141.03 100.388 141.039 100.234 141.14 100.21Z" fill="#263238"/>
<path d="M143.794 110.473C145.472 110.254 147.162 110.145 148.854 110.147C150.577 110.303 152.285 110.588 153.966 111.001C154.028 111.025 154.018 111.121 153.966 111.111C152.247 110.958 150.534 110.775 148.81 110.703C147.97 110.665 144.61 110.703 143.809 110.617C143.727 110.607 143.727 110.492 143.794 110.473Z" fill="#263238"/>
<path d="M174.169 109.397L161.689 129.322C161.689 129.322 163.172 132.548 165.894 133.93C171.658 136.743 177.819 138.656 184.162 139.604C189.649 140.396 195.942 139.829 198.62 137.568C206.727 130.719 192.111 99.1972 185.06 90.2596C178.009 81.322 171.318 77.9092 173.866 92.2804C176.415 106.652 178.234 112.618 178.234 112.618C178.234 112.618 176.324 109.306 174.169 109.397Z" fill="#37474F"/>
<path d="M165.663 129.917C166.014 129.336 166.321 128.731 166.681 128.16C167.041 127.589 167.386 127.051 167.751 126.504C168.495 125.39 169.244 124.286 169.993 123.182C171.49 120.97 173.007 118.757 174.582 116.597C175.033 115.986 175.481 115.373 175.926 114.758C176.33 114.152 176.777 113.576 177.265 113.035C177.272 113.028 177.282 113.024 177.293 113.023C177.303 113.023 177.313 113.026 177.321 113.033C177.329 113.039 177.335 113.048 177.337 113.058C177.339 113.069 177.337 113.079 177.332 113.088C177.03 113.695 176.684 114.279 176.295 114.835L175.22 116.496C174.5 117.619 173.767 118.739 173.022 119.856C171.548 122.04 170.065 124.214 168.553 126.37C168.116 126.994 167.674 127.608 167.223 128.222C166.772 128.837 166.263 129.413 165.783 130.018C165.75 130.08 165.62 130.013 165.663 129.917Z" fill="#263238"/>
<path d="M187.873 126.942C187.578 125.801 187.178 124.689 186.678 123.621C186.226 122.544 185.693 121.502 185.084 120.506C183.1 117.374 180.675 114.545 177.884 112.106C177.881 112.101 177.878 112.098 177.873 112.095C177.869 112.092 177.864 112.09 177.858 112.09C177.853 112.09 177.848 112.09 177.843 112.092C177.838 112.094 177.834 112.097 177.831 112.101C177.827 112.105 177.825 112.109 177.823 112.114C177.822 112.119 177.822 112.125 177.823 112.13C177.824 112.135 177.826 112.14 177.829 112.144C177.832 112.148 177.836 112.151 177.841 112.154C178.282 112.634 182.78 117.842 184.422 120.381C185.046 121.341 185.578 122.373 186.106 123.4C186.409 123.986 186.702 124.576 186.975 125.176C187.249 125.776 187.455 126.386 187.767 126.976C187.791 127.038 187.892 127.01 187.873 126.942Z" fill="#263238"/>
<path d="M173.65 109.984C173.789 109.687 173.975 109.414 174.202 109.178C174.433 109.216 176.242 108.842 177.961 112.086C177.649 111.15 177.481 110.45 177.222 109.494C176.953 108.448 176.69 107.398 176.434 106.346C176.026 104.67 175.633 102.986 175.297 101.286C174.918 100.422 174.591 99.5391 174.27 98.6559C174.266 98.6489 174.266 98.6409 174.269 98.6337C174.272 98.6265 174.277 98.6207 174.284 98.6175C174.291 98.6143 174.299 98.6141 174.306 98.6168C174.313 98.6195 174.319 98.6249 174.322 98.6319C174.601 99.2415 174.884 99.8559 175.143 100.475C175.114 100.317 175.081 100.158 175.052 99.9951C174.841 98.7807 174.625 97.5615 174.466 96.3375C174.469 96.3302 174.474 96.3238 174.48 96.3194C174.487 96.3149 174.495 96.3125 174.502 96.3125C174.51 96.3125 174.518 96.3149 174.524 96.3194C174.531 96.3238 174.536 96.3302 174.538 96.3375C175.599 100.523 176.41 104.766 177.418 108.966C177.702 110.152 178.273 112.691 178.263 112.691C177.531 111.793 176.729 110.955 175.863 110.186C175.405 109.835 174.865 109.609 174.294 109.528C174.106 109.687 173.934 109.864 173.78 110.056C173.713 110.094 173.622 110.051 173.65 109.984Z" fill="#263238"/>
<path d="M163.162 126.691C163.282 126.547 163.393 126.639 163.287 126.792C162.73 127.608 162.279 128.41 161.775 129.216C163.162 131.16 163.825 132.845 167.094 134.323C173.593 137.256 181.542 139.56 188.598 139.666C191.781 139.693 194.944 139.153 197.938 138.072C197.977 138.072 197.972 138.134 197.938 138.13C197.905 138.125 194.43 140.261 188.732 140.419C184.441 140.539 173.766 138.744 166.599 134.962C163.585 133.373 162.351 131.496 161.199 129.394C161.786 128.446 162.442 127.542 163.162 126.691Z" fill="#263238"/>
<path d="M174.02 83.0938C173.65 83.9194 168.447 88.7002 164.55 87.7498C163.278 87.433 164.679 80.4298 164.679 80.4298V79.8922L164.478 72.3226L175.436 68.041C175.436 68.041 174.169 82.7482 174.02 83.0938Z" fill="#AD6359"/>
<path d="M164.458 72.3226L164.665 79.8874V80.4346C164.665 80.4346 164.41 81.7018 164.218 83.1802C169.734 83.4298 172.978 79.8826 174.596 77.3146C174.98 73.0714 175.402 68.041 175.402 68.041L164.458 72.3226Z" fill="#263238"/>
<path d="M154.033 58.4458C148.71 73.7674 157.282 78.6874 160.59 79.8346C163.59 80.8714 173.938 84.0298 180.817 69.3418C187.695 54.6538 182.257 47.3338 175.537 44.593C168.817 41.8522 159.38 43.1242 154.033 58.4458Z" fill="#AD6359"/>
<path d="M158.602 70.3784C158.863 71.0655 159.296 71.6738 159.86 72.1448C160.177 72.3913 160.563 72.5323 160.964 72.548C161.842 72.5768 162.082 71.8328 162.121 71.1512C162.138 70.7878 162.112 70.4237 162.044 70.0664C160.959 70.5331 159.754 70.6424 158.602 70.3784Z" fill="#263238"/>
<path d="M159.86 72.145C160.177 72.3915 160.563 72.5325 160.964 72.5482C161.842 72.577 162.082 71.833 162.121 71.1514C161.238 70.9834 160.196 71.3194 159.86 72.145Z" fill="#FF9CBD"/>
<path d="M157.46 61.3488C155.823 60.8256 154.902 64.1376 156.418 64.6224C157.935 65.1072 158.814 61.7856 157.46 61.3488Z" fill="#263238"/>
<path d="M156.442 59.896C156.814 59.9383 157.187 59.9591 157.561 59.9584C157.951 60.036 158.355 59.9837 158.713 59.8096C158.815 59.7324 158.888 59.6237 158.922 59.5005C158.956 59.3773 158.948 59.2463 158.9 59.128C158.767 58.91 158.579 58.7311 158.355 58.6097C158.131 58.4882 157.878 58.4285 157.623 58.4368C157.105 58.375 156.582 58.5066 156.154 58.8064C156.062 58.8816 155.994 58.9817 155.957 59.0947C155.921 59.2078 155.918 59.3289 155.948 59.4438C155.978 59.5587 156.041 59.6624 156.129 59.7426C156.216 59.8227 156.325 59.876 156.442 59.896Z" fill="#263238"/>
<path d="M167.026 62.136C166.671 61.992 166.369 61.8 166.028 61.6224C165.653 61.4929 165.33 61.2432 165.111 60.912C165.062 60.7937 165.054 60.6625 165.088 60.5391C165.122 60.4157 165.196 60.3071 165.298 60.2304C165.521 60.1112 165.772 60.0529 166.025 60.0613C166.278 60.0698 166.524 60.1446 166.738 60.2784C167.216 60.487 167.599 60.8649 167.814 61.3392C167.856 61.4496 167.866 61.5698 167.842 61.6856C167.818 61.8014 167.76 61.9077 167.677 61.9918C167.594 62.0759 167.489 62.1343 167.373 62.1599C167.258 62.1854 167.137 62.1772 167.026 62.136Z" fill="#263238"/>
<path d="M162.049 73.0236C161.737 73.2252 161.406 73.5036 161.007 73.47C160.606 73.3794 160.229 73.2061 159.898 72.9612C159.892 72.9569 159.884 72.9548 159.876 72.9551C159.868 72.9554 159.861 72.9581 159.855 72.9628C159.848 72.9675 159.844 72.974 159.841 72.9814C159.839 72.9889 159.839 72.9969 159.841 73.0044C159.951 73.249 160.126 73.4591 160.347 73.6121C160.568 73.7651 160.826 73.8553 161.094 73.8732C161.326 73.8625 161.549 73.7828 161.736 73.6442C161.922 73.5057 162.063 73.3147 162.14 73.0956C162.174 73.0332 162.092 72.9948 162.049 73.0236Z" fill="#263238"/>
<path d="M158.617 67.9729C158.617 67.9729 157.969 69.5089 157.767 70.2625C157.767 70.3345 157.926 70.4161 158.175 70.4977C158.175 70.4977 158.175 70.4977 158.204 70.4977C158.819 70.7903 159.504 70.9071 160.182 70.8351C160.859 70.7631 161.504 70.5051 162.044 70.0897C162.056 70.0767 162.064 70.0601 162.066 70.0423C162.068 70.0246 162.064 70.0068 162.054 69.9915C162.045 69.9763 162.031 69.9645 162.014 69.958C161.998 69.9514 161.98 69.9505 161.962 69.9553C160.828 70.3521 159.596 70.374 158.449 70.0177C158.449 69.7969 159.649 67.3969 159.524 67.3873C159.001 67.3345 158.084 67.3249 157.714 67.3153C158.113 66.3073 159.38 63.5089 160.114 61.6705C160.158 61.5553 159.985 61.4737 159.927 61.5697C158.746 63.5594 157.698 65.6246 156.788 67.7521C156.687 67.9297 158.281 68.0209 158.617 67.9729Z" fill="#263238"/>
<path d="M165.183 63.2975C166.863 63.6431 166.047 66.9839 164.487 66.6575C162.927 66.3311 163.772 63.0047 165.183 63.2975Z" fill="#263238"/>
<path d="M180.082 70.4456C175.614 69.9128 174.322 64.2056 176.151 60.1832C176.151 60.1832 164.151 59.5064 165.361 49.9832C164.293 51.1033 162.966 51.9426 161.497 52.4266C160.027 52.9105 158.461 53.0242 156.937 52.7576L154.964 55.9784C153.826 55.4024 153.198 51.74 156.654 49.6184C156.654 49.6184 157.748 44.9624 161.742 42.8072C162.83 42.1774 164.077 41.8755 165.333 41.9377C166.589 41.9998 167.801 42.4234 168.822 43.1576C171.144 42.0691 173.798 41.9262 176.223 42.7592C180.438 44.1608 181.46 48.4136 181.46 48.4136C181.46 48.4136 187.057 50.6312 187.263 54.9464C187.345 56.1687 187.169 57.3947 186.746 58.5443C186.322 59.694 185.661 60.7414 184.806 61.6184C184.806 61.6184 185.953 63.5384 184.542 66.8984C183.639 69.0728 181.422 70.604 180.082 70.4456Z" fill="#263238"/>
<path d="M165.778 49.1953C165.541 49.9418 165.38 50.7106 165.298 51.4897C165.205 52.2549 165.205 53.0286 165.298 53.7937C165.471 55.3085 166.212 56.7013 167.372 57.6913C168.481 58.7425 170.022 59.1697 171.486 59.6113C172.249 59.7313 173.012 59.9089 173.79 59.9857C174.567 60.0625 175.345 60.1057 176.132 60.1921C175.35 60.2305 174.558 60.2353 173.766 60.2593C172.974 60.2833 172.191 60.1009 171.399 60.0241C169.863 59.6689 168.255 59.2273 167.012 58.1041C165.769 57.0165 165.004 55.4839 164.881 53.8369C164.786 52.2389 165.095 50.6428 165.778 49.1953Z" fill="#263238"/>
<path d="M158.698 53.4876C160.066 53.2972 161.391 52.8786 162.62 52.2492C163.219 51.9354 163.773 51.5414 164.266 51.078C164.767 50.5986 165.211 50.064 165.591 49.4844C165.389 50.1779 165.042 50.8208 164.574 51.3708C164.107 51.9335 163.533 52.397 162.884 52.734C162.242 53.076 161.551 53.3142 160.834 53.4396C160.13 53.573 159.408 53.5893 158.698 53.4876Z" fill="#263238"/>
<path d="M177.418 69.7402C177.418 69.7402 182.089 65.7034 184.009 67.489C185.929 69.2746 181.542 75.7402 178.681 76.0522C178.317 76.117 177.943 76.1076 177.582 76.0244C177.222 75.9412 176.882 75.786 176.583 75.5681C176.284 75.3502 176.032 75.0741 175.842 74.7565C175.653 74.4388 175.529 74.086 175.479 73.7194L177.418 69.7402Z" fill="#AD6359"/>
<path d="M182.708 69.3123C182.751 69.3123 182.742 69.3795 182.708 69.3843C180.687 69.6627 179.29 71.1171 178.167 72.7107C178.882 72.1683 179.722 71.9859 180.466 72.8643C180.505 72.9123 180.442 72.9747 180.39 72.9507C180.093 72.7663 179.747 72.6784 179.399 72.699C179.051 72.7196 178.718 72.8478 178.446 73.0659C177.993 73.4333 177.581 73.8485 177.217 74.3043C177.087 74.4435 176.814 74.2803 176.924 74.1075L176.953 74.0691C177.49 71.7219 180.135 68.9091 182.708 69.3123Z" fill="#263238"/>
<path d="M146.65 101.875C146.55 112.358 144.289 151.055 134.737 161.961C128.3 169.31 109.297 178.526 102.097 180.254C98.588 181.094 87.8408 151.526 91.3592 149.947C95.1992 148.223 113.847 142.545 116.012 140.639C118.177 138.734 128.199 114.667 135.558 101.702C139.954 93.9355 146.708 95.9995 146.65 101.875Z" fill="#AD6359"/>
<path d="M103.316 179.634C97.8104 182.802 75.8504 187.54 71.4248 187.794C66.9992 188.049 54.2216 187.876 53.6648 184.511C53.108 181.146 56.8712 180.897 56.8712 180.897C56.8712 180.897 50.9576 179.961 51.2456 176.529C51.476 173.788 56.7272 173.169 56.7272 173.169C56.7272 173.169 50.3048 171.805 51.0248 168.436C51.6824 165.364 57.5192 166.117 57.5192 166.117C57.5192 166.117 52.2392 164.433 53.4632 161.596C54.9032 158.183 64.0232 161.116 68.8712 160.444C69.9752 160.295 94.1624 149.092 94.1624 149.092L103.316 179.634Z" fill="#AD6359"/>
<path d="M57.4088 165.844C64.4504 167.332 67.4072 167.74 74.0984 165.992C74.228 165.954 74.3096 166.141 74.1752 166.189C67.7768 168.503 64.2344 168.268 57.2888 166.165C56.9528 166.079 57.0824 165.776 57.4088 165.844Z" fill="#263238"/>
<path d="M56.7848 173.107C63.932 174.705 67.4312 174.336 74.5736 173.016C74.6744 173.016 74.7176 173.164 74.6168 173.193C67.7144 175.075 63.6104 175.862 56.6744 173.328C56.3624 173.212 56.4584 173.035 56.7848 173.107Z" fill="#263238"/>
<path d="M57.2408 180.834C64.2728 181.881 68.2088 181.794 75.0008 179.644C75.0169 179.638 75.034 179.634 75.0513 179.635C75.0686 179.635 75.0856 179.639 75.1014 179.646C75.1172 179.653 75.1315 179.663 75.1435 179.675C75.1555 179.687 75.1649 179.702 75.1712 179.718C75.1775 179.734 75.1806 179.751 75.1803 179.769C75.1799 179.786 75.1762 179.803 75.1693 179.819C75.1624 179.835 75.1524 179.849 75.14 179.861C75.1276 179.873 75.1129 179.882 75.0968 179.889C68.4056 182.769 63.5 182.893 57.2552 181.05C56.804 180.925 56.7944 180.767 57.2408 180.834Z" fill="#263238"/>
<path d="M94.1768 149.088C94.1768 149.088 85.8776 149.861 81.9176 150.048C77.9576 150.235 66.716 149.155 64.7576 151.934C62.5544 155.059 71.9576 159.158 79.0424 158.909C79.0424 158.909 82.8008 169.886 89.6024 169.949C91.076 169.949 98.0888 167.102 98.8712 165.605L94.1768 149.088Z" fill="#AD6359"/>
<path d="M79.772 159.12C81.0824 163.44 84.3944 168.399 88.7384 169.584C88.7516 169.587 88.7643 169.591 88.7757 169.599C88.7871 169.606 88.797 169.615 88.8048 169.626C88.8126 169.637 88.8181 169.649 88.8212 169.662C88.8242 169.675 88.8246 169.689 88.8224 169.702C88.8202 169.715 88.8154 169.728 88.8083 169.739C88.8012 169.751 88.7919 169.761 88.781 169.768C88.7701 169.776 88.7577 169.782 88.7447 169.785C88.7316 169.788 88.718 169.788 88.7048 169.786C83.8664 169.148 79.9832 163.455 79.0472 159.519C78.8648 158.76 79.4312 158.002 79.772 159.12Z" fill="#263238"/>
<path d="M107.002 142.847L117.289 175.439C117.289 175.439 131.281 169.031 136.234 161.486C141.188 153.94 147.452 122.342 147.121 104.846C146.79 87.3498 136.254 99.129 134.742 101.999C133.23 104.87 115.935 139.243 114.937 139.982C113.938 140.721 107.002 142.847 107.002 142.847Z" fill="#C2C7D6"/>
<path d="M130.412 136.004C130.053 135.201 129.584 134.451 129.02 133.776C129.154 134.645 129.414 135.489 129.793 136.282C130.148 137.089 130.617 137.84 131.185 138.514C131.047 137.645 130.787 136.8 130.412 136.004ZM117.99 161.924C117.636 161.118 117.167 160.368 116.598 159.696C116.901 161.436 117.648 163.068 118.767 164.434C118.632 163.565 118.37 162.721 117.99 161.928V161.924ZM139.374 124.037C138.571 124.398 137.821 124.868 137.146 125.434C138.885 125.132 140.515 124.384 141.879 123.264C141.011 123.404 140.168 123.665 139.374 124.042V124.037ZM117.922 135.13L117.634 135.274C117.471 135.594 117.311 135.892 117.154 136.167C117.51 136.042 117.86 135.903 118.201 135.749C119.008 135.394 119.759 134.926 120.433 134.357C119.563 134.494 118.717 134.756 117.922 135.135V135.13ZM133.138 153.37C132.334 153.732 131.584 154.202 130.906 154.767C131.776 154.627 132.621 154.366 133.417 153.989C134.222 153.635 134.973 153.166 135.644 152.597C134.775 152.736 133.931 152.999 133.138 153.38V153.37ZM142.782 99.0052C141.974 99.3649 141.223 99.8385 140.55 100.412C141.423 100.271 142.272 100.006 143.07 99.6244C143.873 99.2717 144.62 98.8027 145.287 98.2324C144.419 98.3723 143.575 98.6358 142.782 99.0148V99.0052ZM130.354 110.588C130.26 110.985 130.197 111.39 130.167 111.797C130.688 111.084 131.105 110.3 131.406 109.469C131.639 108.837 131.812 108.185 131.924 107.52L130.354 110.588ZM120.908 147.888C120.589 148.706 120.393 149.567 120.327 150.442C120.842 149.729 121.254 148.947 121.551 148.119C121.869 147.299 122.064 146.437 122.132 145.56C121.617 146.275 121.205 147.059 120.908 147.888ZM110.103 152.688L110.29 153.274C110.607 153.341 110.928 153.386 111.25 153.408C110.892 153.127 110.508 152.881 110.103 152.674V152.688ZM124.863 121.575L124.777 121.546C124.671 121.748 124.57 121.949 124.47 122.151L124.623 122.218C125.448 122.53 126.312 122.726 127.191 122.799C126.477 122.279 125.693 121.862 124.863 121.56V121.575ZM141.764 139.532C142.141 139.821 142.546 140.072 142.974 140.28C143.017 140.103 143.05 139.925 143.089 139.748C142.654 139.634 142.211 139.557 141.764 139.517V139.532Z" fill="white"/>
<path d="M98.636 143.049L106.849 140.625L118.062 177.494L110.358 180.364L98.636 143.049Z" fill="#C2C7D6"/>
<path d="M112.844 158.937C113.564 161.497 114.271 164.066 114.966 166.646C115.657 169.204 116.444 171.782 116.958 174.383C116.96 174.406 116.955 174.429 116.942 174.449C116.93 174.468 116.911 174.483 116.889 174.49C116.867 174.498 116.844 174.497 116.822 174.489C116.8 174.481 116.782 174.466 116.77 174.446C115.854 172.046 115.167 169.53 114.414 167.078C113.614 164.476 112.826 161.868 112.052 159.254C110.511 154.089 109.172 148.886 107.9 143.654C107.866 143.524 108.039 143.495 108.078 143.615C109.777 148.694 111.38 153.777 112.844 158.937Z" fill="#263238"/>
<path opacity="0.1" d="M136.234 161.486C131.281 169.031 117.289 175.439 117.289 175.439L113.074 162.091L134.036 103.367C134.372 102.71 134.612 102.239 134.742 101.995C136.254 99.1146 146.79 87.3354 147.121 104.841C147.452 122.347 141.188 153.94 136.234 161.486Z" fill="black"/>
<path d="M121.657 187.809C122.862 189.1 188.631 168.897 188.631 168.897C189.697 167.577 177.294 110.15 159.721 96.4888C155.943 93.556 142.623 94.5688 140.814 95.6584C136.623 98.14 132.894 103.031 130.167 111.758C124.705 129.22 120.606 186.676 121.657 187.809Z" fill="#C2C7D6"/>
<path d="M144.322 140.113C143.501 139.798 142.64 139.598 141.764 139.517C142.469 140.039 143.249 140.452 144.078 140.741C144.902 141.057 145.766 141.257 146.646 141.337C145.935 140.817 145.153 140.405 144.322 140.113ZM164.526 115.829C163.705 115.516 162.846 115.316 161.972 115.234C162.676 115.759 163.456 116.172 164.286 116.458C165.11 116.774 165.974 116.974 166.854 117.053C166.141 116.535 165.357 116.123 164.526 115.829ZM158.055 168.961C157.231 168.645 156.367 168.449 155.487 168.38C156.198 168.899 156.98 169.312 157.81 169.604C158.635 169.919 159.499 170.12 160.378 170.199C159.666 169.68 158.884 169.263 158.055 168.961ZM175.378 146.761C174.559 146.442 173.697 146.245 172.82 146.175C173.533 146.693 174.317 147.106 175.148 147.399C175.967 147.716 176.827 147.917 177.702 147.994C176.992 147.473 176.209 147.061 175.378 146.77V146.761ZM133.618 168.961C132.799 168.646 131.939 168.451 131.065 168.38C131.772 168.899 132.551 169.311 133.378 169.604C134.203 169.921 135.067 170.121 135.946 170.199C135.238 169.679 134.459 169.262 133.633 168.961H133.618ZM174.673 172.892C174.644 172.978 174.61 173.065 174.582 173.156L175.374 172.916C175.655 172.159 175.831 171.368 175.897 170.564C175.384 171.281 174.977 172.069 174.687 172.901L174.673 172.892ZM146.084 158.602C145.766 159.422 145.571 160.284 145.503 161.161C146.021 160.447 146.433 159.663 146.727 158.833C147.04 158.013 147.235 157.153 147.308 156.279C146.796 156.994 146.384 157.776 146.084 158.602ZM155.166 128.991C154.848 129.814 154.652 130.679 154.585 131.559C155.097 130.844 155.509 130.062 155.809 129.236C156.123 128.415 156.319 127.554 156.39 126.677C155.877 127.388 155.465 128.167 155.166 128.991ZM159.793 101.842C159.476 102.666 159.28 103.531 159.212 104.41C159.725 103.694 160.137 102.911 160.436 102.082C160.752 101.264 160.948 100.403 161.017 99.5286C160.505 100.24 160.093 101.019 159.793 101.842ZM131.881 107.069C131.276 108.485 130.71 110.031 130.177 111.725C130.174 111.753 130.174 111.78 130.177 111.807C130.698 111.094 131.115 110.31 131.415 109.479C131.727 108.654 131.923 107.79 131.996 106.911C131.955 106.961 131.916 107.014 131.881 107.069ZM142.782 99.015C141.974 99.3747 141.223 99.8483 140.55 100.421C141.423 100.281 142.272 100.016 143.07 99.6342C143.873 99.2815 144.62 98.8125 145.287 98.2422C144.419 98.3791 143.576 98.6393 142.782 99.015ZM166.302 158.362C165.496 158.716 164.746 159.185 164.074 159.754C164.944 159.621 165.788 159.359 166.58 158.977C167.386 158.622 168.136 158.154 168.807 157.585C167.944 157.724 167.105 157.985 166.316 158.362H166.302ZM133.124 153.38C132.32 153.742 131.569 154.212 130.892 154.777C131.761 154.637 132.607 154.375 133.402 153.999C134.208 153.645 134.958 153.176 135.63 152.607C134.766 152.744 133.927 153.004 133.138 153.38H133.124ZM125.886 179.962C125.082 180.324 124.331 180.794 123.654 181.359C124.523 181.22 125.368 180.958 126.164 180.581C126.97 180.227 127.72 179.758 128.391 179.189C127.528 179.326 126.689 179.587 125.9 179.962H125.886ZM139.359 124.042C138.556 124.403 137.807 124.873 137.132 125.439C138.871 125.137 140.501 124.389 141.865 123.269C141.002 123.408 140.163 123.668 139.374 124.042H139.359ZM173.228 132.413C172.87 131.61 172.402 130.86 171.836 130.186C171.976 131.054 172.238 131.897 172.614 132.692C172.968 133.497 173.437 134.248 174.006 134.919C173.875 134.051 173.618 133.207 173.242 132.413H173.228ZM130.398 136.004C130.038 135.201 129.57 134.451 129.006 133.777C129.14 134.645 129.4 135.489 129.778 136.282C130.133 137.089 130.602 137.841 131.17 138.514C131.037 137.646 130.782 136.801 130.412 136.004H130.398ZM147.442 179.041C147.083 178.238 146.615 177.488 146.05 176.813C146.185 177.682 146.445 178.526 146.823 179.319C147.105 179.943 147.447 180.538 147.846 181.095L148.119 181.013C147.961 180.335 147.734 179.674 147.442 179.041ZM182.679 160.047C182.319 159.247 181.851 158.501 181.287 157.829C181.426 158.699 181.688 159.544 182.065 160.34C182.419 161.145 182.888 161.896 183.457 162.567C183.32 161.697 183.058 160.851 182.679 160.057V160.047ZM161.041 144.884C160.68 144.086 160.212 143.342 159.649 142.671C159.787 143.538 160.047 144.382 160.422 145.177C160.777 145.983 161.248 146.733 161.818 147.404C161.677 146.535 161.416 145.69 161.041 144.893V144.884ZM148.82 113.636C148.466 112.83 147.997 112.08 147.428 111.409C147.562 112.278 147.824 113.122 148.206 113.914C148.564 114.719 149.033 115.47 149.598 116.146C149.465 115.275 149.203 114.429 148.82 113.636Z" fill="white"/>
<path d="M153.572 106.469C155.372 112.762 173.07 158.362 173.041 160.743C173.041 160.743 196.158 175.829 200.444 160.829C203.228 151.076 176.42 110.933 163.278 99.0388C157.239 93.6004 149.804 93.2644 153.572 106.469Z" fill="#D3766A"/>
<path d="M153.572 106.469C155.372 112.762 173.07 158.362 173.041 160.743C173.041 160.743 196.158 175.829 200.444 160.829C203.228 151.076 176.42 110.933 163.278 99.0388C157.239 93.6004 149.804 93.2644 153.572 106.469Z" fill="#C2C7D6"/>
<path d="M164.526 115.829C163.705 115.516 162.846 115.316 161.972 115.234C162.676 115.759 163.456 116.172 164.286 116.458C165.11 116.774 165.974 116.974 166.854 117.053C166.141 116.535 165.357 116.123 164.526 115.829ZM198.471 161.65C197.651 161.336 196.792 161.135 195.918 161.055C196.622 161.579 197.402 161.991 198.231 162.279C198.721 162.456 199.221 162.603 199.729 162.72C199.796 162.586 199.858 162.447 199.916 162.303C199.45 162.052 198.967 161.834 198.471 161.65ZM175.378 146.77C174.559 146.451 173.697 146.254 172.82 146.184C173.533 146.703 174.317 147.115 175.148 147.408C175.967 147.726 176.827 147.926 177.702 148.004C176.993 147.479 176.21 147.064 175.378 146.77ZM187.513 136.887C187.194 137.71 186.998 138.575 186.932 139.455C187.443 138.738 187.855 137.955 188.156 137.127C188.47 136.308 188.666 135.448 188.737 134.573C188.222 135.283 187.81 136.062 187.513 136.887ZM159.793 101.847C159.476 102.67 159.28 103.535 159.212 104.415C159.725 103.699 160.137 102.915 160.436 102.087C160.752 101.268 160.948 100.408 161.017 99.5332C160.505 100.243 160.093 101.02 159.793 101.842V101.847ZM180.817 120.207C180.625 120.279 180.438 120.36 180.25 120.442C179.447 120.801 178.698 121.27 178.023 121.834C178.892 121.7 179.736 121.44 180.529 121.061C180.75 120.956 180.97 120.845 181.186 120.73L180.817 120.207ZM194.708 149.712C193.904 150.073 193.153 150.541 192.476 151.104C193.346 150.971 194.192 150.711 194.986 150.332C195.792 149.978 196.542 149.509 197.214 148.94C196.346 149.075 195.502 149.334 194.708 149.708V149.712ZM173.242 132.432C172.885 131.629 172.416 130.879 171.85 130.205C171.99 131.073 172.252 131.916 172.628 132.711C172.982 133.516 173.451 134.267 174.02 134.938C173.886 134.063 173.624 133.212 173.242 132.413V132.432ZM182.679 160.076C182.319 159.276 181.851 158.53 181.287 157.858C181.426 158.727 181.688 159.573 182.065 160.368C182.419 161.174 182.888 161.924 183.457 162.596C183.323 161.716 183.061 160.86 182.679 160.056V160.076Z" fill="white"/>
<path d="M162.063 130.66C161.132 129.134 160.282 127.545 159.452 125.97C159.448 125.958 159.449 125.945 159.453 125.933C159.458 125.921 159.466 125.911 159.477 125.904C159.488 125.897 159.501 125.895 159.514 125.896C159.527 125.898 159.539 125.904 159.548 125.913C160.23 126.988 160.916 128.073 161.569 129.177C161.473 128.884 161.367 128.591 161.276 128.298C160.566 126.062 159.836 123.825 159.241 121.578C159.24 121.562 159.245 121.547 159.255 121.534C159.264 121.521 159.278 121.511 159.293 121.507C159.308 121.502 159.325 121.503 159.34 121.509C159.355 121.515 159.367 121.526 159.375 121.54C162.438 129.148 169.902 150.412 169.878 150.422C169.854 150.431 170.151 151.545 169.441 150.066C168.927 148.986 163.119 133.766 162.063 130.66Z" fill="#263238"/>
<path d="M161.617 185.827C151.119 190.555 139.186 194.165 127.412 191.741C126.095 191.502 124.898 190.825 124.014 189.821C118.734 188.827 117.596 186.029 117.596 186.029C112.945 183.595 112.191 180.571 112.191 180.571C112.191 180.571 105.985 179.338 106.11 175.464C106.234 171.12 114.922 173.702 120.572 172.2C133.532 168.758 150.946 160.248 154.58 158.885L161.617 185.827Z" fill="#AD6359"/>
<path d="M136.671 178.132C132.831 179.092 129.102 180.09 125.151 180.503C120.831 180.959 116.598 180.671 112.282 180.503C112.259 180.508 112.238 180.521 112.223 180.54C112.207 180.559 112.199 180.582 112.199 180.606C112.199 180.63 112.207 180.654 112.223 180.672C112.238 180.691 112.259 180.704 112.282 180.709C120.044 182.284 129.37 181.233 136.719 178.309C136.892 178.237 136.863 178.079 136.671 178.132Z" fill="#263238"/>
<path d="M139.882 185.645C136.105 186.351 129.462 187.565 117.61 185.914C117.572 185.914 117.553 185.972 117.61 185.981C125.166 188.065 132.442 187.901 139.935 185.823C140.146 185.761 140.132 185.597 139.882 185.645Z" fill="#263238"/>
<path d="M141.534 189.71C135.068 190.67 130.868 190.449 124.042 189.806C124.004 189.806 123.985 189.868 124.042 189.878C131.722 191.418 134.684 191.111 141.61 189.926C141.836 189.887 141.783 189.671 141.534 189.71Z" fill="#263238"/>
<path d="M135.903 167.077C137.41 165.959 136.834 165.157 133.503 165.061C130.172 164.965 116.895 167.408 116.434 162.704C115.974 158 134.751 154.828 140.29 155.413C145.83 155.999 154.58 158.879 154.58 158.879C151.047 160.242 142.796 164.336 135.903 167.077Z" fill="#AD6359"/>
<path d="M122.641 171.629C121.576 171.949 120.488 172.188 119.386 172.344C118.283 172.451 117.173 172.492 116.065 172.469C114.946 172.469 113.833 172.469 112.705 172.493C111.577 172.517 110.487 172.522 109.345 172.618C108.764 172.673 108.194 172.807 107.65 173.016C107.08 173.226 106.573 173.578 106.177 174.039C105.983 174.285 105.84 174.568 105.758 174.871C105.675 175.173 105.655 175.489 105.697 175.8C105.784 176.395 106.015 176.96 106.369 177.447C107.041 178.389 107.936 179.149 108.975 179.659C109.989 180.168 111.078 180.512 112.201 180.677L112.124 180.6C112.23 180.98 112.392 181.342 112.604 181.675C112.808 182.005 113.048 182.31 113.319 182.587C113.08 182.289 112.871 181.967 112.695 181.627C112.517 181.295 112.388 180.94 112.311 180.571V180.509H112.244C111.169 180.269 110.134 179.88 109.167 179.352C108.218 178.826 107.406 178.084 106.796 177.187C106.492 176.761 106.298 176.266 106.23 175.747C106.2 175.505 106.221 175.259 106.291 175.025C106.361 174.791 106.479 174.575 106.638 174.389C107.29 173.621 108.399 173.319 109.45 173.175C111.634 172.992 113.89 173.002 116.108 172.887C117.233 172.868 118.355 172.775 119.468 172.608C120.552 172.375 121.614 172.047 122.641 171.629Z" fill="#263238"/>
<path d="M154.762 158.601C151.791 160.794 148.671 188.548 154.018 187.578C179.166 183.018 195.874 168.489 198.841 164.399C202.734 159.037 199.412 151.439 195.582 149.428C190.028 146.481 157.705 156.431 154.762 158.601Z" fill="#AD6359"/>
<path d="M170.775 152.639L180.346 180.105C180.346 180.105 200.506 168.796 200.665 160.118C200.823 151.439 197.156 147.959 189.572 148.708C181.988 149.457 170.775 152.639 170.775 152.639Z" fill="#C2C7D6"/>
<path d="M182.679 160.056C183.059 160.853 183.321 161.702 183.457 162.576C182.888 161.904 182.419 161.154 182.065 160.348C181.688 159.552 181.426 158.707 181.287 157.838C181.851 158.51 182.319 159.256 182.679 160.056Z" fill="#C2C7D6"/>
<path d="M189.769 171.36C190.562 170.98 191.406 170.718 192.274 170.582C190.91 171.703 189.277 172.451 187.537 172.752C188.21 172.183 188.962 171.715 189.769 171.36Z" fill="#C2C7D6"/>
<path d="M196.297 149.621C195.875 149.882 195.437 150.118 194.986 150.327C194.192 150.706 193.346 150.966 192.476 151.099C193.153 150.536 193.904 150.068 194.708 149.707C195.02 149.568 195.337 149.439 195.668 149.328C195.883 149.413 196.093 149.511 196.297 149.621Z" fill="#C2C7D6"/>
<path d="M200.18 162.456C200.144 162.567 200.102 162.676 200.055 162.783C199.433 162.664 198.821 162.496 198.226 162.279C197.397 161.991 196.617 161.579 195.913 161.055C196.787 161.135 197.646 161.336 198.466 161.65C199.061 161.866 199.635 162.135 200.18 162.456Z" fill="#C2C7D6"/>
<path d="M182.679 160.056C182.319 159.256 181.851 158.51 181.287 157.839C181.426 158.708 181.688 159.553 182.065 160.349C182.419 161.155 182.888 161.905 183.457 162.576C183.321 161.703 183.059 160.854 182.679 160.056ZM195.639 149.328C195.318 149.439 195.001 149.568 194.679 149.707C193.875 150.068 193.124 150.536 192.447 151.099C193.317 150.966 194.163 150.706 194.958 150.327C195.408 150.118 195.846 149.882 196.268 149.621C196.071 149.512 195.867 149.414 195.658 149.328H195.639ZM189.769 171.36C188.962 171.715 188.21 172.184 187.537 172.752C189.277 172.451 190.91 171.704 192.274 170.583C191.406 170.719 190.562 170.981 189.769 171.36ZM198.471 161.659C197.651 161.345 196.792 161.145 195.918 161.064C196.622 161.588 197.402 162.001 198.231 162.288C198.826 162.505 199.438 162.674 200.06 162.792C200.107 162.685 200.149 162.577 200.185 162.466C199.64 162.142 199.066 161.868 198.471 161.65V161.659Z" fill="white"/>
<path d="M163.58 152.348L170.895 150.02L181.666 182.828L174.817 185.554L163.58 152.348Z" fill="#C2C7D6"/>
<path d="M176.626 166.3C177.318 168.591 178.001 170.881 178.676 173.169C179.343 175.449 180.116 177.743 180.596 180.062C180.62 180.167 180.471 180.23 180.428 180.124C179.559 177.993 178.897 175.751 178.172 173.567C177.398 171.247 176.639 168.926 175.897 166.602C174.418 162.004 173.113 157.372 171.874 152.706C171.841 152.591 171.994 152.567 172.033 152.673C173.674 157.185 175.22 161.711 176.626 166.3Z" fill="#263238"/>
<path d="M164.449 154.91C164.108 154.074 163.786 153.23 163.46 152.385L163.417 152.27L163.542 152.226C165.942 151.348 168.366 150.518 170.794 149.706L171.087 149.61L171.198 149.903L172.086 152.255L171.668 152.034C174.601 151.233 177.553 150.518 180.534 149.913C182.022 149.61 183.519 149.337 185.026 149.121C186.531 148.887 188.05 148.75 189.572 148.713C188.06 148.9 186.577 149.193 185.094 149.51C183.61 149.826 182.137 150.158 180.663 150.513C177.716 151.209 174.778 151.953 171.85 152.711L171.538 152.788L171.433 152.49L170.593 150.129L170.991 150.326C168.543 151.07 166.09 151.794 163.618 152.466L163.7 152.308C163.954 153.172 164.209 154.036 164.449 154.91Z" fill="#263238"/>
<path d="M141.246 111.36C146.002 111.749 152.828 103.531 155.079 97.3725C155.233 96.9453 154.014 92.9277 152.761 87.9693C152.012 84.9597 151.249 81.5901 150.778 78.4605C150.682 77.8221 131.895 86.1933 131.895 86.1933C131.895 86.1933 134.814 92.4333 135.606 97.9053C135.667 98.3376 135.686 98.7749 135.663 99.2109C135.663 99.2685 135.663 99.3453 135.663 99.4269C135.639 101.928 136.642 110.981 141.246 111.36Z" fill="#AD6359"/>
<path d="M154.1 93.0756C145.498 97.3956 138.303 94.7796 134.252 92.3364C133.583 90.247 132.796 88.1973 131.895 86.1972C131.895 86.1972 150.682 77.826 150.778 78.4644C151.258 81.594 152.012 84.9636 152.761 87.9732C153.236 89.8596 153.706 91.6068 154.1 93.0756Z" fill="#263238"/>
<path d="M116.895 59.7799C116.122 67.1431 123.702 86.5111 129.519 90.0199C137.948 95.1175 149.804 93.4519 153.639 83.7799C157.359 74.3863 147.039 49.3255 140.727 46.3399C131.425 41.9095 118.028 48.9031 116.895 59.7799Z" fill="#AD6359"/>
<path d="M139.22 69.0097C139.191 68.9665 139.143 69.1153 139.162 69.1681C139.71 70.4593 140.122 72.0481 139.1 72.9169C139.071 72.9457 139.1 73.0081 139.143 72.9841C140.487 72.2257 139.926 70.1473 139.22 69.0097Z" fill="#263238"/>
<path d="M137.506 68.0973C135.346 68.7501 136.806 73.0269 138.812 72.4173C140.818 71.8077 139.321 67.5501 137.506 68.0973Z" fill="#263238"/>
<path d="M146.636 66.1525C146.636 66.0949 146.761 66.1765 146.78 66.2341C147.188 67.5733 147.884 69.0373 149.233 69.0709C149.276 69.0709 149.295 69.1381 149.233 69.1477C147.716 69.4405 146.809 67.4869 146.636 66.1525Z" fill="#263238"/>
<path d="M147.346 64.3623C149.425 63.4743 151.052 67.6935 149.127 68.5143C147.202 69.3351 145.609 65.1063 147.346 64.3623Z" fill="#263238"/>
<path d="M135.15 66.7189C135.649 66.3615 136.13 65.9786 136.59 65.5717C137.146 65.1253 137.631 64.8229 137.852 64.1317C137.893 63.9245 137.864 63.7098 137.77 63.5206C137.676 63.3314 137.523 63.1784 137.334 63.0853C136.498 62.7349 135.682 63.1141 134.991 63.6229C134.279 64.1168 133.776 64.8575 133.58 65.7013C133.378 66.5557 134.449 67.1701 135.15 66.7189Z" fill="#263238"/>
<path d="M148.268 61.6419C147.653 61.7216 147.035 61.7681 146.415 61.7811C145.705 61.8291 145.143 61.9394 144.495 61.565C144.325 61.4399 144.2 61.262 144.141 61.0589C144.082 60.8558 144.092 60.6389 144.169 60.4419C144.548 59.6211 145.407 59.3475 146.262 59.2611C147.119 59.1391 147.991 59.3429 148.705 59.8323C149.463 60.3219 149.094 61.5027 148.268 61.6419Z" fill="#263238"/>
<path d="M141.495 81.3606C141.918 81.5622 142.378 81.879 142.873 81.759C143.363 81.5794 143.811 81.2999 144.188 80.9382C144.196 80.932 144.205 80.9284 144.215 80.9278C144.225 80.9272 144.235 80.9298 144.243 80.935C144.252 80.9403 144.258 80.948 144.262 80.9572C144.266 80.9664 144.267 80.9765 144.265 80.9862C144.165 81.3119 143.978 81.6041 143.724 81.8316C143.47 82.0591 143.159 82.2132 142.825 82.2774C142.531 82.298 142.238 82.2316 141.982 82.0864C141.726 81.9413 141.518 81.7239 141.385 81.4614C141.342 81.3942 141.433 81.3318 141.495 81.3606Z" fill="#263238"/>
<path d="M141.534 76.9155C142.05 77.3217 142.645 77.6166 143.281 77.7818C143.917 77.947 144.581 77.9789 145.23 77.8755C145.8 77.7961 146.356 77.6344 146.881 77.3955C146.984 77.3579 147.083 77.3113 147.178 77.2563L147.452 77.1123C147.518 77.074 147.569 77.0153 147.599 76.9452C147.628 76.875 147.634 76.7972 147.615 76.7235C147.598 76.6769 147.578 76.632 147.553 76.5891L147.51 76.4739C147.188 75.4467 146.55 73.9251 146.55 73.9251C146.986 73.9875 149.18 74.1939 148.95 73.6707C147.178 69.3507 145.21 64.5507 142.532 60.6099C142.515 60.5831 142.488 60.5637 142.457 60.5553C142.427 60.547 142.394 60.5502 142.365 60.5645C142.337 60.5787 142.315 60.603 142.303 60.6326C142.291 60.6623 142.291 60.6952 142.302 60.7251C143.842 64.9491 146.108 68.8851 147.721 73.0899C147.034 73.0659 145.902 72.9795 145.369 73.1715C145.239 73.2627 146.641 76.0851 146.746 76.5555C146.746 76.5555 146.746 76.5555 146.746 76.6083C145.105 77.4147 143.636 77.3379 141.577 76.7523C141.49 76.7139 141.418 76.8387 141.534 76.9155Z" fill="#263238"/>
<path d="M146.098 77.1026C145.79 78.025 145.247 78.8519 144.524 79.5026C144.117 79.8441 143.614 80.0505 143.084 80.093C141.927 80.1746 141.572 79.2146 141.481 78.317C141.437 77.8371 141.449 77.3537 141.519 76.877C142.982 77.4389 144.587 77.5179 146.098 77.1026Z" fill="#263238"/>
<path d="M144.524 79.4968C144.117 79.8383 143.614 80.0447 143.084 80.0872C141.927 80.1688 141.572 79.2087 141.481 78.3112C142.666 78.0376 144.049 78.4264 144.524 79.4968Z" fill="#FF9CBD"/>
<path d="M121.489 77.0158C124.671 80.5918 127.906 71.6494 126.039 66.8734C124.662 63.3502 123.414 59.1166 125.266 56.2798C128.185 51.811 135.078 54.1966 137.166 53.035C139.954 51.4846 139.599 49.5262 141.486 49.0414C143.372 48.5566 145.527 51.4846 145.527 51.4846C145.527 51.4846 140.66 39.9982 126.039 45.691C110.391 51.7918 113.674 68.227 121.489 77.0158Z" fill="#263238"/>
<path d="M125.564 75.7866C125.564 75.7866 119.65 70.2954 117.063 72.5418C114.476 74.7882 119.895 83.4282 123.615 83.9658C124.087 84.0688 124.574 84.0754 125.049 83.9851C125.523 83.8949 125.974 83.7097 126.375 83.4407C126.776 83.1717 127.118 82.8244 127.381 82.4197C127.644 82.015 127.823 81.5613 127.906 81.0858L125.564 75.7866Z" fill="#AD6359"/>
<path d="M118.676 74.9808C118.623 74.9808 118.628 75.0672 118.676 75.0768C121.302 75.5568 123.054 77.5008 124.436 79.6272C123.524 78.888 122.444 78.6096 121.431 79.7232C121.374 79.7808 121.455 79.8672 121.522 79.8384C121.918 79.6119 122.374 79.5134 122.828 79.5564C123.281 79.5994 123.711 79.7817 124.057 80.0784C124.632 80.5799 125.152 81.1415 125.607 81.7536C125.766 81.9456 126.13 81.7536 125.996 81.5136C125.983 81.4988 125.972 81.4827 125.962 81.4656C125.372 78.3696 122.05 74.5776 118.676 74.9808Z" fill="#263238"/>
<path d="M134.857 102.687C134.857 102.648 134.924 102.643 134.924 102.687C135.044 106.291 135.577 114.619 141.826 113.563C144.342 113.136 146.516 111.523 148.306 109.968C150.111 108.389 151.738 106.619 153.159 104.688C154.785 102.602 156.231 100.381 157.479 98.0498C157.527 97.9538 157.695 98.0498 157.642 98.1362C156.37 100.455 155.358 102.835 153.836 105.048C152.38 107.222 150.631 109.185 148.638 110.88C146.718 112.483 144.394 114.111 141.721 114.447C140.603 114.627 139.457 114.434 138.46 113.899C137.462 113.364 136.669 112.516 136.201 111.485C134.934 108.802 134.655 105.562 134.857 102.687Z" fill="#263238"/>
<path d="M49.3592 84.786C45.0392 94.5588 38.2472 105.56 38.7992 116.615C39.2792 125.279 44.2808 132.935 50.2376 138.916C63.356 152.053 85.1672 161.548 102.342 150.133C109.201 145.568 115.023 132.791 109.542 125.173C106.714 121.261 102.447 118.957 98.636 116.154C93.596 112.468 90.764 107.74 90.188 101.495C89.0552 89.3268 92.9624 82.2516 96.2696 70.842C96.8744 68.7252 97.1768 66.522 95.8232 64.0116C94.7022 61.5279 92.9269 59.3958 90.6872 57.8436C88.9332 56.1104 86.7781 54.8375 84.4136 54.138C79.3256 52.7556 72.8936 55.4484 68.0264 56.7876C63.1592 58.1268 60.188 60.4404 58.0328 65.1252C55.052 71.6244 52.2536 78.2388 49.3592 84.786Z" fill="#263238"/>
<path d="M46.3112 88.9951C50.8328 80.2927 55.5176 71.7151 60.1496 63.0751C60.1784 63.0223 60.2648 63.0751 60.236 63.1087C56.6312 70.3087 53.132 77.5903 49.4312 84.7663C45.8024 91.7743 41.588 98.7535 38.5928 106.078C31.8728 122.523 46.2728 135.867 60.6728 140.514C61.3256 140.725 60.9176 141.742 60.26 141.507C47.7464 137.029 34.604 127.069 36.0776 112.16C36.8936 104.005 42.6152 96.1087 46.3112 88.9951Z" fill="#263238"/>
<path d="M95.8136 69.6517C95.8314 69.6203 95.86 69.5964 95.894 69.5845C95.9281 69.5726 95.9653 69.5735 95.9988 69.587C96.0323 69.6005 96.0597 69.6257 96.0759 69.6579C96.0922 69.6901 96.0962 69.7271 96.0872 69.7621C92.972 79.0309 88.4696 89.5477 90.5864 99.4933C91.6263 104.396 94.1284 108.868 97.7624 112.319C100.642 115.036 104.218 116.562 107.526 118.65C120.447 126.81 113.262 145.751 100.249 149.178C99.9752 149.25 99.8408 148.785 100.114 148.698C109.474 145.77 115.844 136.324 112.959 126.455C110.646 118.54 100.906 116.994 95.7992 111.224C85.2152 99.2581 90.4088 82.7701 95.8136 69.6517Z" fill="#263238"/>
<path d="M103.359 176.02C103.652 175.904 101.78 159.839 101.78 159.839C101.78 159.839 108.841 149.696 105.966 141.714C104.526 137.672 90.9224 113.687 84.7256 108.301C78.9128 103.242 69.3032 107.087 65.8088 110.509C54.74 121.362 44.9768 149.029 38.5544 173.869L103.359 176.02Z" fill="#C2C7D6"/>
<path d="M80.8184 106.241C78.4184 106.333 76.0568 106.376 73.7336 106.371C74.4475 106.19 75.1722 106.056 75.9032 105.968C76.892 105.968 77.8888 105.949 78.8936 105.91C79.5439 105.962 80.1881 106.073 80.8184 106.241ZM89.4056 113.758C80.5464 114.501 71.6429 114.555 62.7752 113.921C62.6744 114.046 62.5784 114.171 62.4824 114.301C71.5383 114.959 80.6321 114.903 89.6792 114.133L89.4056 113.758ZM94.7816 121.717C81.3752 123.296 68.3816 122.854 57.62 121.774C57.548 121.894 57.476 122.019 57.4088 122.149C68.252 123.248 81.4424 123.704 95.0168 122.086L94.7816 121.717ZM99.5816 129.632C82.6712 132.08 66.1016 131.149 53.636 129.574L53.4632 129.949C66.0056 131.542 82.7432 132.493 99.7976 130.001L99.5816 129.632ZM103.969 137.523C85.3832 140.686 66.9128 139.568 53.5688 137.792C52.4552 137.645 51.3624 137.485 50.2904 137.312C50.2376 137.437 50.1848 137.566 50.1368 137.691L52.4552 138.022L53.5064 138.166C66.9464 139.952 85.4888 141.046 104.17 137.869L103.969 137.523ZM54.7688 146.163C52.1768 145.817 49.6904 145.438 47.3336 145.04C47.2856 145.165 47.2424 145.289 47.1992 145.419C49.2584 145.769 51.4184 146.101 53.66 146.413L54.7064 146.552C68.4296 148.376 87.5432 149.504 106.647 146.033C106.654 145.901 106.654 145.768 106.647 145.635C87.5672 149.134 68.4776 148.011 54.7688 146.187V146.163ZM55.9784 154.558C51.9272 154.021 48.1352 153.397 44.6936 152.753C44.6504 152.878 44.6072 153.003 44.5688 153.133C47.732 153.728 51.188 154.299 54.8696 154.808L55.916 154.952C68.8184 156.665 86.4776 157.765 104.396 155.009L104.583 154.582C86.6264 157.39 68.9096 156.291 55.9784 154.558ZM102.198 163.477C85.4792 165.617 69.2504 164.552 57.188 162.949C51.6632 162.214 46.628 161.321 42.308 160.433C42.2696 160.558 42.236 160.688 42.1928 160.813C46.268 161.648 50.9624 162.488 56.1128 163.213L57.164 163.352C69.2504 164.96 85.5128 166.025 102.284 163.885L102.198 163.477ZM103.095 171.91C86.4872 173.989 70.3832 172.928 58.3976 171.334C51.356 170.374 45.1064 169.208 40.0904 168.094L39.9896 168.478C44.7896 169.539 50.66 170.667 57.2696 171.584L58.3208 171.728C70.3208 173.326 86.468 174.387 103.114 172.299C103.119 172.189 103.105 172.059 103.095 171.925V171.91Z" fill="white"/>
<path d="M95.4104 154.051C92.2975 154.159 89.2121 154.673 86.2328 155.582C83.2376 156.432 76.6328 159.052 74.9576 159.7C74.9487 159.7 74.9401 159.704 74.9338 159.71C74.9275 159.717 74.924 159.725 74.924 159.734C74.924 159.743 74.9275 159.751 74.9338 159.758C74.9401 159.764 74.9487 159.768 74.9576 159.768C77.1176 159.251 79.246 158.61 81.332 157.848C84.2696 156.849 87.2312 155.928 90.236 155.164C91.9347 154.746 93.6582 154.435 95.396 154.233C95.408 154.234 95.42 154.233 95.4315 154.229C95.4429 154.225 95.4535 154.219 95.4626 154.212C95.4718 154.204 95.4793 154.194 95.4847 154.184C95.4902 154.173 95.4935 154.161 95.4944 154.149C95.4954 154.137 95.4939 154.125 95.4902 154.114C95.4865 154.102 95.4806 154.092 95.4728 154.083C95.465 154.073 95.4555 154.066 95.4448 154.06C95.4341 154.055 95.4224 154.052 95.4104 154.051Z" fill="#263238"/>
<path d="M100.878 155.629C97.6335 155.36 94.3672 155.647 91.22 156.479C91.2126 156.482 91.2063 156.487 91.2018 156.493C91.1974 156.5 91.195 156.507 91.195 156.515C91.195 156.523 91.1974 156.531 91.2018 156.537C91.2063 156.543 91.2126 156.548 91.22 156.551C92.8136 156.359 94.4072 156.172 96.02 156.037C97.6328 155.903 99.2456 155.821 100.858 155.716C100.868 155.714 100.876 155.71 100.883 155.703C100.89 155.697 100.895 155.688 100.897 155.679C100.899 155.67 100.898 155.66 100.895 155.651C100.891 155.643 100.885 155.635 100.878 155.629Z" fill="#263238"/>
<path d="M70.5032 108.479C70.6904 109.833 76.124 121.189 83.2952 120.522C86.3096 120.244 85.2152 108.589 85.2152 108.589L88.9976 96.887L74.9 85.9766C74.9 85.9766 70.436 107.903 70.5032 108.479Z" fill="#C95F50"/>
<path d="M85.2344 108.589C85.2325 108.599 85.2325 108.609 85.2344 108.618C77.1752 105.297 74.0888 99.311 72.932 95.6822C73.94 90.6134 74.9 85.9766 74.9 85.9766L89.0168 96.8822L85.2344 108.589Z" fill="#263238"/>
<path d="M102.606 82.1328C102.034 102.293 89.9096 104.213 85.5656 104.078C81.6248 103.963 68.2184 103.066 66.7016 82.9584C65.1848 62.8512 74.732 56.7696 83.7608 56.5584C92.7896 56.3472 103.177 61.992 102.606 82.1328Z" fill="#C95F50"/>
<path d="M98.9768 78.9641C98.4968 78.8585 98.1032 78.6905 97.652 78.5417C97.1636 78.4603 96.7161 78.2188 96.38 77.8553C96.2965 77.7212 96.2596 77.5633 96.2753 77.4062C96.2909 77.249 96.3581 77.1014 96.4664 76.9865C96.7156 76.7909 97.0126 76.6655 97.3265 76.6233C97.6405 76.5811 97.96 76.6236 98.252 76.7465C98.8822 76.9021 99.4316 77.2872 99.7928 77.8265C99.8668 77.9544 99.9024 78.101 99.8951 78.2486C99.8879 78.3962 99.8383 78.5387 99.7521 78.6588C99.666 78.7789 99.547 78.8716 99.4095 78.9257C99.2719 78.9799 99.1217 78.9932 98.9768 78.9641Z" fill="#263238"/>
<path d="M85.0568 79.3473C85.5135 79.3211 85.9685 79.2714 86.42 79.1985C86.915 79.2153 87.4014 79.0667 87.8024 78.7761C87.9111 78.6603 87.9781 78.5115 87.9929 78.3533C88.0077 78.1951 87.9694 78.0365 87.884 77.9025C87.6786 77.6627 87.4126 77.4823 87.1137 77.3801C86.8149 77.278 86.4941 77.2578 86.1848 77.3217C85.5356 77.3491 84.9204 77.6199 84.4616 78.0801C84.3633 78.1918 84.2998 78.3297 84.2789 78.4769C84.2579 78.6242 84.2804 78.7743 84.3436 78.9089C84.4069 79.0435 84.5081 79.1567 84.6348 79.2346C84.7615 79.3125 84.9082 79.3517 85.0568 79.3473Z" fill="#263238"/>
<path d="M87.7736 83.3694C87.7736 83.3166 87.6584 83.427 87.6584 83.4798C87.6008 84.8526 87.2984 86.4126 86.0264 86.7726C85.988 86.7726 85.988 86.8542 86.0264 86.8494C87.5624 86.7534 87.9368 84.675 87.7736 83.3694Z" fill="#263238"/>
<path d="M86.66 81.8479C84.4712 81.5167 83.9672 85.9135 85.9928 86.2255C88.0184 86.5375 88.4936 82.1263 86.66 81.8479Z" fill="#263238"/>
<path d="M85.7672 81.984C85.3544 82.1904 84.9272 82.584 84.4616 82.5792C83.9192 82.5792 83.564 82.0608 83.2664 81.5808C83.2328 81.528 83.1896 81.5808 83.1848 81.6192C83.0744 82.464 83.3 83.3664 84.188 83.592C84.9992 83.8032 85.6808 83.112 85.988 82.3008C86.0456 82.1472 85.94 81.9024 85.7672 81.984Z" fill="#263238"/>
<path d="M95.8424 83.696C95.8424 83.648 95.9432 83.7776 95.9336 83.8304C95.7224 85.1888 95.7128 86.7776 96.8936 87.3776C96.9272 87.3776 96.9176 87.464 96.8696 87.4544C95.3912 87.056 95.4248 84.9584 95.8424 83.696Z" fill="#263238"/>
<path d="M97.2296 82.4251C99.4424 82.5259 99.0776 86.9419 97.028 86.8459C94.9784 86.7499 95.3768 82.3387 97.2296 82.4251Z" fill="#263238"/>
<path d="M98.1272 82.7886C98.4584 83.0526 98.7656 83.5087 99.1832 83.5711C99.6008 83.6335 100.057 83.1918 100.407 82.7598C100.441 82.7166 100.474 82.7598 100.47 82.8126C100.422 83.6623 100.071 84.5167 99.2456 84.6127C98.4968 84.6991 98.012 83.9263 97.8824 83.0719C97.8584 82.9135 97.9976 82.683 98.1272 82.7886Z" fill="#263238"/>
<path d="M86.708 93.8777C86.9816 94.2473 87.236 94.7321 87.7208 94.8377C88.225 94.9107 88.7389 94.8747 89.228 94.7321C89.2386 94.728 89.2503 94.7279 89.261 94.7316C89.2717 94.7354 89.2807 94.7428 89.2865 94.7526C89.2923 94.7624 89.2944 94.7739 89.2924 94.7851C89.2905 94.7963 89.2847 94.8064 89.276 94.8137C89.0392 95.0485 88.7433 95.2149 88.4197 95.2951C88.096 95.3754 87.7567 95.3666 87.4376 95.2697C87.1722 95.1552 86.9474 94.9635 86.7925 94.7195C86.6375 94.4755 86.5596 94.1906 86.5688 93.9017C86.5592 93.8345 86.6696 93.8201 86.708 93.8777Z" fill="#263238"/>
<path d="M92.9192 89.5291C92.9192 89.5291 92.9912 91.5931 92.9192 92.5579C92.9192 92.6443 92.6696 92.6635 92.3432 92.6491C92.3432 92.6491 92.3144 92.6491 92.3048 92.6491C91.464 92.7148 90.6214 92.5475 89.8694 92.1656C89.1175 91.7837 88.4853 91.202 88.0424 90.4843C88.0271 90.4639 88.0206 90.4383 88.0242 90.4131C88.0278 90.3879 88.0412 90.3652 88.0616 90.3499C88.082 90.3346 88.1076 90.3281 88.1328 90.3317C88.158 90.3353 88.1807 90.3487 88.196 90.3691C89.3672 91.4299 90.7448 91.8091 92.2472 91.9915C92.3432 91.7323 92.0072 88.4539 92.1608 88.4587C92.6888 88.4587 93.6872 88.9387 94.292 89.1787C94.2632 84.8587 93.548 80.5963 93.5864 76.3051C93.5855 76.2735 93.5962 76.2426 93.6165 76.2183C93.6368 76.1941 93.6653 76.1781 93.6966 76.1733C93.7279 76.1686 93.7599 76.1755 93.7864 76.1927C93.813 76.2099 93.8323 76.2362 93.8408 76.2667C94.9112 80.6923 95.0504 85.6507 95.1944 90.1003C95.1896 90.6571 93.2888 89.7307 92.9192 89.5291Z" fill="#263238"/>
<path d="M67.1768 81.829C71.8616 80.869 73.124 76.549 73.124 76.549C90.1736 76.117 95.7992 65.5378 95.7992 65.5378C99.0776 74.4418 102.001 75.9634 102.481 77.3026C102.481 77.3026 103.892 69.5842 101.31 63.6994C99.02 58.4914 93.1496 52.9186 83.9528 54.0994C78.7304 54.7714 74.3528 59.293 74.3528 59.293C74.3528 59.293 68.7128 59.8978 66.404 64.4482C62.5208 72.0754 67.1768 81.829 67.1768 81.829Z" fill="#263238"/>
<path d="M96.0584 64.8477C95.4345 67.0678 94.2664 69.0971 92.66 70.7516C91.054 72.4181 89.1382 73.7551 87.02 74.6877L85.4024 75.3021C84.86 75.4893 84.2936 75.6045 83.7416 75.7821C82.6287 76.0648 81.4958 76.2622 80.3528 76.3724C79.2152 76.4732 78.068 76.454 76.9304 76.4972C75.7928 76.4012 74.6552 76.3244 73.5272 76.1996C74.6648 76.166 75.7976 76.1996 76.9256 76.1612C78.0488 76.046 79.1768 76.0028 80.2856 75.8444C82.5054 75.5472 84.6752 74.9531 86.7368 74.078C88.7929 73.2021 90.6704 71.9558 92.276 70.4012C93.9158 68.8388 95.2051 66.9458 96.0584 64.8477Z" fill="#263238"/>
<path d="M67.8968 80.9367C67.8968 80.9367 63.9128 66.5367 74.3384 59.2887C84.3752 52.3143 93.6488 55.5831 93.6488 55.5831C93.6488 55.5831 83.54 50.0439 71.8904 56.5431C60.2408 63.0423 66.0632 77.7975 67.8968 80.9367Z" fill="#C2C7D6"/>
<path d="M70.1 83.2457C70.1 83.2457 66.452 76.4969 63.4376 77.7257C60.4232 78.9545 62.6648 88.3913 65.8376 90.0137C66.2319 90.2501 66.6699 90.4043 67.1254 90.467C67.5808 90.5297 68.0442 90.4996 68.4877 90.3785C68.9312 90.2575 69.3456 90.0479 69.706 89.7625C70.0664 89.4771 70.3654 89.1217 70.5848 88.7177L70.1 83.2457Z" fill="#C95F50"/>
<path d="M64.1576 80.4141C64.1475 80.4141 64.1377 80.4172 64.1295 80.4231C64.1214 80.429 64.1153 80.4373 64.1121 80.4469C64.1089 80.4564 64.1088 80.4668 64.1118 80.4764C64.1148 80.486 64.1207 80.4944 64.1288 80.5005C66.356 81.7149 67.3352 84.0237 67.9352 86.3661C67.34 85.4061 66.452 84.8397 65.1992 85.5309C65.132 85.5693 65.1992 85.6701 65.2472 85.6653C65.6723 85.5812 66.1131 85.6312 66.5086 85.8083C66.9041 85.9854 67.2348 86.2809 67.4552 86.6541C67.8201 87.2812 68.1162 87.9458 68.3384 88.6365C68.4248 88.8573 68.8184 88.7901 68.7608 88.5405V88.4829C69.14 85.5117 67.316 81.0861 64.1576 80.4141Z" fill="#263238"/>
<path d="M108.174 170.073C108.078 170.466 108.937 173.586 108.447 174.205C107.958 174.825 91.9928 175.674 91.58 173.591C91.1384 171.34 98.4296 169.041 98.2232 168.666C98.2232 168.666 96.1208 165.133 95.4344 158.725C94.868 153.412 95.6216 150.709 98.7128 146.058C103.191 139.338 113.746 142.314 113.881 149.773C113.967 154.679 108.697 159.45 108.222 161.322C107.612 163.713 108.202 169.977 108.174 170.073Z" fill="#263238"/>
<path d="M95.2184 146.082C95.3672 145.77 100.758 146.778 106.614 146.159C113.722 145.405 118.038 143.207 118.263 143.62C119.137 145.199 120.788 151.026 119.391 155.859C117.994 160.693 110.218 162.359 104.905 162.099C99.5912 161.84 91.3016 158.955 94.9832 147.277C94.9544 146.865 95.0355 146.452 95.2184 146.082Z" fill="#455A64"/>
<path d="M118.412 143.913C110.65 148.151 95.852 146.894 95.2184 146.083C95.2184 146.083 96.692 134.764 99.3176 130.396C99.7736 129.638 107.9 128.102 110.319 129.873C114.486 132.921 118.58 143.841 118.412 143.913Z" fill="#455A64"/>
<path d="M105.03 173.072C104.79 173.393 104.353 176.605 103.662 176.979C102.97 177.353 87.9512 171.872 88.388 169.779C88.868 167.537 96.4712 168.277 96.4328 167.859C96.4328 167.859 95.8856 163.784 97.7624 157.621C99.3224 152.509 101.079 150.32 105.745 147.257C112.508 142.808 121.042 149.705 118.225 156.617C116.377 161.168 109.662 163.486 108.486 165.022C107.012 167 105.092 172.99 105.03 173.072Z" fill="#37474F"/>
<path d="M99.26 130.962C99.26 130.607 97.6856 126.916 98.012 126.642C98.3384 126.369 105.654 125.111 106.143 125.682C106.633 126.253 107.828 129.657 107.78 130.506C107.732 131.356 102.428 135.757 100.633 135.412C98.8376 135.066 99.2936 133.746 99.26 130.962Z" fill="#C95F50"/>
<path d="M111.577 122.971C110.089 127.771 106.009 130.075 103.609 130.91C99.8888 132.211 89.4152 133.9 86.1896 127.377C84.0056 122.966 83.7224 112.051 85.7096 108.864C88.4888 104.419 97.2296 101.448 104.281 104.064C109.94 106.161 113.06 118.176 111.577 122.971Z" fill="#C95F50"/>
<path d="M96.1736 115.002C95.8616 114.978 95.5736 114.911 95.2616 114.858C94.9336 114.853 94.6163 114.74 94.3592 114.536C94.2915 114.456 94.2521 114.356 94.2469 114.251C94.2416 114.146 94.271 114.042 94.3304 113.955C94.4744 113.802 94.6567 113.691 94.8584 113.632C95.06 113.573 95.2738 113.568 95.4776 113.619C95.9043 113.659 96.301 113.856 96.5912 114.171C96.6535 114.248 96.6923 114.34 96.7031 114.438C96.7139 114.536 96.6961 114.634 96.652 114.722C96.6078 114.81 96.5391 114.883 96.4542 114.933C96.3693 114.983 96.2718 115.006 96.1736 115.002Z" fill="#263238"/>
<path d="M86.516 116.405C86.8021 116.3 87.0825 116.179 87.356 116.045C87.669 115.957 87.9452 115.77 88.1432 115.512C88.1881 115.418 88.2012 115.312 88.1804 115.209C88.1596 115.107 88.1061 115.015 88.028 114.946C87.8528 114.834 87.6507 114.771 87.4429 114.764C87.2351 114.758 87.0293 114.807 86.8472 114.907C86.4453 115.049 86.1114 115.337 85.9112 115.714C85.8568 115.801 85.832 115.903 85.8403 116.006C85.8487 116.109 85.8897 116.206 85.9575 116.283C86.0253 116.361 86.1161 116.414 86.2167 116.436C86.3173 116.458 86.4222 116.447 86.516 116.405Z" fill="#263238"/>
<path d="M90.26 116.989C90.3512 118.948 90.3848 118.237 90.3896 120.2C89.972 120.306 88.0472 120.68 88.22 120.82C88.959 121.323 89.7357 121.769 90.5432 122.154C90.4088 122.706 89.6312 123.416 89.6792 123.45C92.4824 125.442 94.6232 123.69 95.2952 122.768C95.4296 122.581 95.3624 122.596 95.2952 122.682C94.58 123.388 92.3384 124.655 90.3704 123.296C90.6562 122.938 90.8491 122.514 90.932 122.063C90.932 122.01 89.5928 121.319 89.012 120.916C89.588 120.776 90.308 120.666 90.74 120.57C90.8408 120.57 90.8792 118.996 90.428 116.96C90.4213 116.941 90.4079 116.925 90.3903 116.914C90.3727 116.904 90.352 116.9 90.3318 116.904C90.3116 116.907 90.2934 116.918 90.2802 116.933C90.2671 116.949 90.2599 116.969 90.26 116.989Z" fill="#263238"/>
<path d="M86.972 119.237C86.9243 119.333 86.8592 119.419 86.78 119.491C86.7198 119.557 86.6449 119.607 86.5614 119.638C86.4779 119.669 86.3883 119.679 86.3 119.669C85.7624 119.64 85.508 119.102 85.4456 118.56C85.4456 118.522 85.4456 118.498 85.4888 118.526C85.724 118.79 85.9928 119.064 86.3 119.006C86.5064 118.968 86.66 118.771 86.8136 118.603C86.8437 118.819 86.8968 119.032 86.972 119.237Z" fill="#263238"/>
<path d="M88.868 119.653C88.8702 119.902 88.8038 120.146 88.676 120.359C88.6012 120.474 88.5033 120.572 88.3884 120.648C88.2735 120.723 88.1442 120.773 88.0088 120.796C87.8706 120.815 87.7297 120.803 87.5973 120.758C87.4649 120.714 87.3445 120.64 87.2456 120.541C87.0758 120.365 86.9493 120.151 86.876 119.917C86.8344 119.777 86.8023 119.635 86.78 119.49C86.7276 119.191 86.7456 118.884 86.8328 118.593C86.856 118.811 86.9026 119.027 86.972 119.236C87.0318 119.425 87.1057 119.61 87.1928 119.788C87.3752 120.148 87.644 120.426 87.9464 120.359C88.2488 120.292 88.46 120.023 88.5272 119.62C88.5847 119.202 88.6008 118.779 88.5752 118.357C88.7725 118.761 88.8727 119.204 88.868 119.653Z" fill="#263238"/>
<path d="M96.2456 117.922C96.3164 118.003 96.4029 118.07 96.5 118.118C96.5715 118.161 96.6517 118.188 96.7346 118.196C96.8176 118.204 96.9014 118.194 96.98 118.166C97.4888 117.998 97.5896 117.408 97.5032 116.87C97.5032 116.832 97.4744 116.813 97.4552 116.87C97.3016 117.187 97.1144 117.523 96.8024 117.542C96.5803 117.522 96.3695 117.435 96.1976 117.293C96.2355 117.5 96.2516 117.711 96.2456 117.922Z" fill="#263238"/>
<path d="M94.5272 118.829C94.5925 119.07 94.7218 119.289 94.9016 119.462C95.0048 119.552 95.1254 119.62 95.2559 119.661C95.3863 119.702 95.5239 119.716 95.66 119.702C95.798 119.684 95.93 119.634 96.0457 119.557C96.1614 119.479 96.2577 119.376 96.3272 119.256C96.4366 119.04 96.4957 118.802 96.5 118.56C96.5097 118.414 96.5097 118.268 96.5 118.123C96.4668 117.822 96.3667 117.531 96.2072 117.273C96.2436 117.489 96.2565 117.708 96.2456 117.926C96.2383 118.124 96.2158 118.322 96.1784 118.517C96.1016 118.915 95.9144 119.256 95.6024 119.27C95.2904 119.285 95.0168 119.083 94.8488 118.713C94.6816 118.325 94.553 117.922 94.4648 117.509C94.383 117.948 94.4044 118.399 94.5272 118.829Z" fill="#263238"/>
<path d="M102.346 108.547C101.231 109.352 100.01 109.998 98.7176 110.467C97.303 110.916 95.8151 111.089 94.3352 110.976C91.9784 110.808 89.3528 110.117 87.2744 111.581C87.2744 111.581 87.2744 111.609 87.2744 111.581C90.0488 110.04 93.1976 111.773 96.1544 111.581C98.4248 111.422 101.012 110.448 102.471 108.677C102.567 108.6 102.442 108.48 102.346 108.547Z" fill="#263238"/>
<path d="M108.342 120.656C107.842 119.764 107.125 119.011 106.258 118.468C105.188 117.786 104.132 117.248 103.335 116.24C101.612 114.071 101.319 111.119 101.895 108.512C101.895 108.44 101.79 108.402 101.766 108.474C101.012 110.807 100.892 113.274 102.198 115.492C102.788 116.477 103.613 117.301 104.598 117.892C105.99 118.746 107.281 119.332 108.217 120.724C108.265 120.781 108.38 120.724 108.342 120.656Z" fill="#263238"/>
<path d="M96.02 96.056C94.1864 94.0592 90.668 94.4528 88.7576 96.2C88.7192 96.2336 88.7576 96.3008 88.8056 96.2672C90.5624 94.7984 93.7304 94.5248 95.4344 96.1712C97.3544 98.0096 96.908 100.602 94.9544 102.21C94.9431 102.218 94.9334 102.228 94.9261 102.24C94.9187 102.252 94.9138 102.265 94.9116 102.279C94.9094 102.293 94.9099 102.307 94.9131 102.321C94.9163 102.334 94.9222 102.347 94.9304 102.358C94.9386 102.37 94.9489 102.379 94.9609 102.387C94.9728 102.394 94.986 102.399 94.9998 102.401C95.0137 102.403 95.0278 102.403 95.0414 102.4C95.055 102.396 95.0679 102.391 95.0792 102.382C97.244 100.885 97.8584 98.0576 96.02 96.056Z" fill="#263238"/>
<path d="M105.62 95.1928C105.62 95.1928 105.649 95.1592 105.62 95.1544C103.671 94.8424 100.546 95.1544 99.9128 97.4296C99.2552 99.772 101.094 102.124 103.273 102.786C103.398 102.825 103.542 102.657 103.407 102.57C101.722 101.529 100.047 100.17 100.258 97.948C100.479 95.4808 103.628 94.9624 105.62 95.1928Z" fill="#263238"/>
<path d="M114.034 111.469C112.782 107.706 109.436 105.306 105.985 103.684C109.244 105.469 112.354 107.586 113.578 111.277C114.231 113.24 114.73 115.52 114.207 117.565C113.684 119.61 112.359 121.319 111.13 123.008C111.112 123.037 111.105 123.072 111.111 123.106C111.117 123.139 111.135 123.17 111.161 123.191C111.188 123.213 111.222 123.223 111.256 123.222C111.29 123.22 111.322 123.205 111.346 123.181C112.676 121.573 113.991 119.821 114.572 117.796C115.153 115.77 114.702 113.466 114.034 111.469Z" fill="#263238"/>
<path d="M95.54 101.222C94.3256 102.182 92.804 102.498 91.3448 102.921C89.8856 103.343 88.052 103.967 86.7704 104.913C84.644 106.478 83.2712 109.823 84.1352 112.353C84.1736 112.463 84.3608 112.42 84.3368 112.305C84.0034 110.73 84.2309 109.088 84.98 107.663C85.7438 106.115 87.0485 104.901 88.6472 104.25C89.9287 103.679 91.2449 103.188 92.588 102.782C93.6707 102.501 94.6752 101.977 95.5256 101.25C95.5256 101.25 95.54 101.207 95.54 101.222Z" fill="#263238"/>
<path d="M113.3 126.455C110.602 124.905 112.34 121.526 113.151 119.313C113.156 119.3 113.155 119.287 113.15 119.274C113.145 119.262 113.135 119.252 113.123 119.247C113.111 119.241 113.097 119.241 113.085 119.245C113.072 119.249 113.062 119.258 113.055 119.27C112.138 121.468 109.777 125.351 113.223 126.633C113.247 126.643 113.273 126.643 113.297 126.634C113.321 126.624 113.34 126.606 113.35 126.582C113.361 126.559 113.361 126.532 113.352 126.508C113.342 126.485 113.324 126.465 113.3 126.455Z" fill="#263238"/>
<path d="M111.826 127.296C110.554 125.625 111.044 123.456 111.745 121.665C111.753 121.632 111.749 121.598 111.734 121.567C111.72 121.537 111.695 121.512 111.664 121.499C111.633 121.485 111.598 121.483 111.565 121.492C111.533 121.501 111.505 121.522 111.486 121.55C110.588 123.47 110.367 125.587 111.783 127.31C111.802 127.353 111.86 127.32 111.826 127.296Z" fill="#263238"/>
<path d="M113.19 125.577C111.097 124.223 112.71 121.132 113.372 119.428C113.42 119.298 113.218 119.193 113.146 119.318C112.273 120.815 110.713 124.684 113.146 125.62C113.194 125.63 113.214 125.591 113.19 125.577Z" fill="#263238"/>
<path d="M96.7496 99.3595C96.7525 99.3482 96.7528 99.3363 96.7504 99.3249C96.748 99.3134 96.7431 99.3026 96.7359 99.2934C96.7287 99.2841 96.7195 99.2767 96.709 99.2715C96.6985 99.2664 96.6869 99.2637 96.6752 99.2637C96.6635 99.2637 96.6519 99.2664 96.6414 99.2715C96.6309 99.2767 96.6217 99.2841 96.6145 99.2934C96.6074 99.3026 96.6024 99.3134 96.6 99.3249C96.5976 99.3363 96.5979 99.3482 96.6008 99.3595C96.236 101.097 94.6808 101.059 93.3032 100.612C92.7424 100.384 92.1466 100.252 91.5416 100.224C91.0071 100.25 90.4897 100.42 90.0436 100.715C89.5976 101.011 89.2396 101.422 89.0072 101.904C88.9688 101.971 89.0792 102.038 89.1272 101.976C89.7896 101.112 90.7352 100.488 91.868 100.67C92.828 100.824 93.644 101.4 94.6184 101.424C94.8959 101.436 95.173 101.392 95.4328 101.293C95.6925 101.195 95.9294 101.044 96.129 100.851C96.3285 100.658 96.4865 100.426 96.5932 100.169C96.6999 99.9128 96.7532 99.6373 96.7496 99.3595Z" fill="#C2C7D6"/>
<path d="M104.66 98.2831C103.858 95.4031 100.82 98.0911 100.263 99.7231L100.186 99.6991C100.023 99.6367 99.8456 99.8719 100.014 99.9775C101.478 100.885 105.394 100.966 104.66 98.2831ZM100.34 99.7231C100.988 98.7151 103.441 96.0847 104.18 98.3167C104.919 100.549 101.55 100.121 100.34 99.7279V99.7231Z" fill="#C2C7D6"/>
<path d="M96.8264 100.189C95.2904 100.986 94.4024 100.108 93.0632 99.5076C92.6192 99.3243 92.1401 99.2417 91.6604 99.2658C91.1806 99.2899 90.7122 99.42 90.2888 99.6468V99.69C91.1816 99.6516 92.0216 99.5268 92.8664 99.9204C93.4328 100.18 93.908 100.602 94.4936 100.828C94.9016 100.99 95.3457 101.04 95.7796 100.972C96.2135 100.905 96.6214 100.722 96.9608 100.444C97.0904 100.348 96.98 100.112 96.8264 100.189Z" fill="#C2C7D6"/>
<path d="M95.6168 100.022C96.6536 99.9738 97.6328 99.6234 98.684 99.6282C99.7352 99.633 100.705 99.9594 101.732 100.012C101.924 100.012 101.938 99.777 101.814 99.6858C100.311 98.5866 97.0136 98.529 95.4968 99.5994C95.456 99.6264 95.4249 99.6657 95.4079 99.7115C95.3909 99.7574 95.389 99.8075 95.4024 99.8545C95.4157 99.9015 95.4437 99.9431 95.4823 99.9732C95.5208 100.003 95.5679 100.02 95.6168 100.022Z" fill="#C2C7D6"/>
<path d="M95.7992 100.617C96.6663 100.439 97.543 100.31 98.4248 100.233C99.4268 100.228 100.427 100.31 101.415 100.478C101.497 100.478 101.598 100.396 101.53 100.319C101.05 99.8105 99.764 99.5465 98.9144 99.5177C97.7922 99.4391 96.6721 99.6982 95.6984 100.262C95.54 100.353 95.5976 100.646 95.7992 100.617Z" fill="#C2C7D6"/>
<path d="M103.974 119.904C103.974 119.904 105.663 115.805 107.929 115.459C110.329 115.094 111.289 119.405 109.849 121.397C108.159 123.734 105.106 123.288 105.106 123.288L103.974 119.904Z" fill="#C95F50"/>
<path d="M107.487 118.078C107.795 117.726 108.144 117.413 108.529 117.147C108.572 117.113 108.529 117.041 108.481 117.065C106.839 117.958 105.462 119.945 105.932 121.894C105.932 121.911 105.939 121.927 105.95 121.938C105.962 121.95 105.978 121.957 105.994 121.957C106.011 121.957 106.027 121.95 106.039 121.938C106.05 121.927 106.057 121.911 106.057 121.894L106.129 121.361C106.333 120.846 106.652 120.383 107.06 120.008C107.499 119.642 108.031 119.403 108.596 119.317C108.658 119.317 108.639 119.216 108.596 119.216C108.154 119.241 107.722 119.359 107.329 119.564C106.936 119.768 106.59 120.054 106.316 120.401C106.413 119.944 106.574 119.503 106.796 119.091C106.995 118.73 107.233 118.392 107.506 118.083L107.487 118.078Z" fill="#263238"/>
<path d="M105.591 123.148V123.172C105.591 123.172 105.62 123.153 105.591 123.148Z" fill="#263238"/>
<path d="M84.5768 112.516C84.5768 113.716 84.5768 114.916 84.548 116.092C84.5192 117.268 84.548 118.468 84.4904 119.672C84.0586 117.303 84.088 114.873 84.5768 112.516Z" fill="#263238"/>
<path d="M82.9304 138.345C84.068 139.18 90.5624 144.35 95.5688 144.95C100.902 145.583 105.706 142.881 107.516 141.59C112.47 138.023 108.841 133.094 105.217 133.43C100.897 133.823 97.868 135.546 95.276 135.35C92.1128 135.105 87.2216 132.681 86.4008 132.503C84.668 132.114 81.5096 137.279 82.9304 138.345Z" fill="#C95F50"/>
<path d="M86.8472 132.695C86.6792 131.898 85.4072 130.127 85.3544 129.503C85.3016 128.879 85.5656 127.299 84.6488 127.357C83.732 127.415 83.6408 129.805 83.6264 130.347C83.612 130.89 79.4552 127.256 78.5768 128.226C77.6984 129.195 80.78 131.399 80.6072 131.586C80.4344 131.773 76.9784 129.834 76.3208 130.746C75.6632 131.658 79.556 133.41 79.5176 133.482C79.4792 133.554 77.1176 131.384 76.3688 132.066C75.62 132.747 79.2824 135.167 79.196 135.339C79.1096 135.512 76.652 134.859 76.4408 135.819C76.2296 136.779 80.1176 137.336 80.4488 137.432C80.78 137.528 83.1992 138.743 83.7464 138.517C84.2936 138.291 86.972 133.261 86.8472 132.695Z" fill="#C95F50"/>
<path d="M77.0456 131.941C76.988 131.908 76.9496 131.941 76.9976 131.985C78.0153 132.783 79.1612 133.403 80.3864 133.818C80.3864 133.818 80.4152 133.818 80.3864 133.794C79.8488 133.492 77.6648 132.33 77.0456 131.941Z" fill="#263238"/>
<path d="M107.511 141.599C105.706 142.909 100.897 145.611 95.5688 144.959C91.7 144.479 86.8712 141.181 84.3752 139.544L87.5672 132.824C89.42 133.395 92.8472 135.133 95.276 135.32C97.8632 135.522 100.911 133.799 105.217 133.4C108.846 133.074 112.47 138.008 107.511 141.599Z" fill="#37474F"/>
<path d="M71.8136 121.073C71.3336 127.601 66.4568 175.227 66.9656 177.555C66.9656 177.555 44.0504 197.585 36.836 183.752C32.1416 174.757 50.3288 130.04 60.836 115.75C65.6264 109.184 72.8504 107.379 71.8136 121.073Z" fill="#C95F50"/>
<path d="M43.1288 143.38L70.7336 141.057C71.8191 134.032 72.4843 126.949 72.7256 119.846C73.1576 107.807 67.6232 105.23 57.6392 118.041C51.6259 125.757 46.7402 134.289 43.1288 143.38Z" fill="#C2C7D6"/>
<path d="M70.3976 137.02C68.3336 136.957 66.2456 137.207 64.1576 137.322C62.1944 137.428 60.2216 137.533 58.2584 137.706C54.2008 138.061 50.148 138.501 46.1 139.026C46.028 139.026 46.0328 139.156 46.1 139.151C50.1416 138.946 54.1768 138.687 58.2056 138.373C60.212 138.215 62.2136 138.008 64.2104 137.797C66.2072 137.586 68.3672 137.514 70.4024 137.144C70.4106 137.144 70.4187 137.142 70.4261 137.139C70.4336 137.135 70.4403 137.13 70.4458 137.124C70.4514 137.118 70.4557 137.111 70.4586 137.104C70.4614 137.096 70.4627 137.088 70.4624 137.08C70.4621 137.071 70.4602 137.063 70.4567 137.056C70.4533 137.048 70.4485 137.042 70.4424 137.036C70.4364 137.031 70.4294 137.026 70.4217 137.023C70.414 137.021 70.4058 137.019 70.3976 137.02Z" fill="#263238"/>
<path d="M71.5016 138.301C71.66 137.302 71.7848 136.299 71.8952 135.296C71.8952 135.089 71.9384 134.883 71.9576 134.677C72.3623 133.483 72.7035 132.268 72.98 131.038C72.98 130.995 72.932 130.971 72.9176 131.014C72.5672 131.921 72.2936 132.853 72.0344 133.789C72.2076 132.252 72.3022 130.708 72.3176 129.161C72.3176 129.151 72.3136 129.141 72.3064 129.134C72.2992 129.127 72.2894 129.123 72.2792 129.123C72.269 129.123 72.2593 129.127 72.252 129.134C72.2448 129.141 72.2408 129.151 72.2408 129.161C71.8856 131.153 71.6744 133.169 71.396 135.176C71.2568 136.136 70.7048 140.936 70.6472 140.936C70.3593 140.96 70.0737 141.007 69.7928 141.075C69.6392 141.147 69.74 141.161 69.7928 141.157L71.0312 141.219C71.06 141.185 71.3672 139.15 71.5016 138.301Z" fill="#263238"/>
<path d="M125.574 135.892C126.085 136.435 126.407 137.127 126.494 137.867C126.58 138.607 126.426 139.356 126.054 140.001C126.054 140.001 129.366 139.545 130.854 141.921C131.612 143.136 130.335 145.411 130.335 145.411C130.335 145.411 133.009 145.161 134.175 147.331C135.111 149.064 133.695 151.084 133.695 151.084C133.695 151.084 136.374 152.044 136.762 154.113C137.545 158.323 123.572 167.894 117.884 164.227C115.234 162.513 118.777 160.363 118.777 160.363C118.777 160.363 112.935 162.23 110.89 159.403C108.846 156.576 113.612 154.051 113.612 154.051C113.612 154.051 107.924 155.798 106.1 152.64C104.18 149.361 109.402 147.662 109.402 147.662C109.402 147.662 104.852 147.662 104.002 144.95C102.606 140.443 113.122 140.04 115.71 137.203L112.494 132.033C112.494 132.033 123.577 133.622 125.574 135.892Z" fill="#C95F50"/>
<path d="M133.503 151.425C133.546 151.392 133.609 151.425 133.566 151.488C129.726 155.76 124.22 159.273 118.58 160.493C118.398 160.531 118.254 160.248 118.446 160.166C124.018 157.8 128.775 155.256 133.503 151.425Z" fill="#263238"/>
<path d="M130.402 145.377C130.455 145.334 130.522 145.42 130.474 145.473C126.505 149.846 120.183 153.633 113.521 154.276C113.29 154.276 113.041 154.089 113.324 154.041C117.726 153.283 126.164 148.843 130.402 145.377Z" fill="#263238"/>
<path d="M108.898 147.561C115.263 146.701 120.716 143.884 125.9 140.193C125.967 140.14 126.03 140.241 125.982 140.298C123.937 142.799 120.39 144.81 117.495 146.14C114.831 147.424 111.877 147.99 108.927 147.781C108.807 147.772 108.759 147.575 108.898 147.561Z" fill="#263238"/>
<path d="M85.196 191.04C96.6632 189.993 108.826 187.262 117.884 179.352C118.912 178.5 119.624 177.326 119.905 176.021C124.023 172.55 123.625 169.56 123.625 169.56C126.471 165.153 125.641 162.153 125.641 162.153C125.641 162.153 130.441 158.021 128.42 154.709C126.174 150.989 119.881 157.517 114.226 158.985C101.266 162.345 81.9032 163.531 78.068 164.131L85.196 191.04Z" fill="#C95F50"/>
<path d="M103.129 172.079C106.921 171.013 110.679 170.063 114.308 168.483C118.287 166.755 121.83 164.423 125.497 162.133C125.52 162.12 125.547 162.116 125.572 162.122C125.598 162.128 125.621 162.143 125.636 162.165C125.651 162.186 125.657 162.213 125.654 162.239C125.65 162.265 125.637 162.289 125.617 162.306C119.641 167.49 111.001 171.167 103.172 172.251C102.985 172.28 102.937 172.131 103.129 172.079Z" fill="#263238"/>
<path d="M104.026 180.195C107.66 178.952 114.034 176.725 123.548 169.472C123.577 169.448 123.63 169.472 123.596 169.525C118.047 175.055 111.62 178.477 104.089 180.368C103.854 180.431 103.786 180.282 104.026 180.195Z" fill="#263238"/>
<path d="M104.593 184.549C110.689 182.197 114.236 179.946 119.866 176.029C119.895 176.005 119.943 176.029 119.91 176.082C113.986 181.203 111.27 182.394 104.646 184.77C104.415 184.851 104.353 184.64 104.593 184.549Z" fill="#263238"/>
<path d="M98.3528 162.076C96.4904 161.845 96.596 160.871 99.452 159.143C102.308 157.415 115.062 153.013 113.151 148.693C111.241 144.373 93.3272 150.848 88.82 154.079C84.3128 157.309 78.092 164.159 78.092 164.159C81.8072 163.583 91.004 163.084 98.3528 162.076Z" fill="#C95F50"/>
<path d="M101.588 148.649C103.398 147.951 105.273 147.434 107.185 147.109C108.152 146.935 109.135 146.858 110.118 146.878C110.624 146.891 111.126 146.964 111.615 147.094C112.144 147.222 112.629 147.49 113.017 147.872C113.403 148.292 113.606 148.848 113.583 149.417C113.552 149.955 113.387 150.476 113.103 150.934C112.573 151.785 111.889 152.531 111.087 153.133C109.565 154.323 107.887 155.3 106.1 156.037C106.935 155.557 107.756 155.043 108.538 154.491C109.334 153.962 110.092 153.38 110.809 152.749C111.522 152.149 112.13 151.435 112.609 150.637C112.823 150.263 112.945 149.843 112.964 149.413C112.979 149.007 112.835 148.612 112.561 148.313C111.999 147.733 111.02 147.55 110.108 147.497C109.163 147.451 108.215 147.487 107.276 147.603C106.316 147.704 105.38 147.862 104.434 148.049C103.489 148.237 102.534 148.433 101.588 148.649Z" fill="#263238"/>
<path d="M112.138 159.514C113.223 159.273 114.288 158.952 115.326 158.554C116.339 158.103 117.324 157.594 118.278 157.027C119.238 156.47 120.212 155.928 121.201 155.4C122.199 154.872 123.15 154.334 124.196 153.85C124.729 153.617 125.291 153.456 125.866 153.37C126.467 153.271 127.084 153.327 127.657 153.533C127.95 153.648 128.217 153.821 128.442 154.042C128.666 154.263 128.843 154.527 128.962 154.819C129.177 155.38 129.253 155.984 129.183 156.581C129.065 157.733 128.661 158.836 128.007 159.792C127.375 160.735 126.596 161.569 125.698 162.264L125.727 162.158C125.824 162.541 125.864 162.935 125.847 163.33C125.829 163.717 125.77 164.102 125.67 164.477C125.732 164.098 125.756 163.713 125.742 163.33C125.731 162.953 125.668 162.58 125.554 162.221V162.163L125.602 162.115C126.42 161.377 127.13 160.529 127.714 159.595C128.277 158.668 128.619 157.623 128.713 156.542C128.763 156.026 128.691 155.504 128.502 155.021C128.406 154.8 128.265 154.6 128.089 154.435C127.914 154.27 127.706 154.143 127.479 154.061C126.519 153.715 125.415 153.998 124.431 154.392C122.444 155.304 120.486 156.422 118.494 157.416C117.507 157.952 116.485 158.422 115.436 158.822C114.36 159.153 113.256 159.384 112.138 159.514Z" fill="#263238"/>
<path d="M78.068 164.16C81.7352 164.606 97.8056 187.065 92.6744 188.856C68.54 197.265 46.844 192.835 42.2456 190.737C36.2216 187.982 35.3816 179.75 37.7144 176.097C41.1032 170.788 74.42 163.704 78.068 164.16Z" fill="#C95F50"/>
<path d="M51.0584 169.837C62.7464 165.334 78.116 164.01 78.1448 164C78.38 163.942 78.7016 164.221 78.572 164.254C76.172 164.859 60.0392 167.403 51.212 170.053C51.1352 170.077 50.9816 169.866 51.0584 169.837Z" fill="#263238"/>
<path d="M95.8904 42.9838C96.7208 47.6542 100.83 51.4846 100.83 51.4846C100.83 51.4846 106.345 50.467 109.556 46.9774C112.234 44.0686 112.244 40.0798 109.82 38.4958C106.345 36.2302 103.426 42.5854 103.426 42.5854C103.426 42.5854 104.386 35.659 100.234 35.6974C97.3448 35.7262 95.1992 39.091 95.8904 42.9838Z" fill="#C2C7D6"/>
<path d="M87.428 24.192C88.5944 26.184 91.1144 27.2448 91.1144 27.2448C91.1144 27.2448 93.4664 25.848 94.3448 23.7168C95.0792 21.9312 94.412 20.1072 93.0392 19.7952C91.0664 19.344 90.8024 22.7376 90.8024 22.7376C90.8024 22.7376 90.0776 19.4112 88.1864 20.1312C86.8712 20.64 86.4584 22.5264 87.428 24.192Z" fill="#C2C7D6"/>
</svg>
