<svg width="200" height="200" viewBox="0 0 200 200" fill="none" xmlns="http://www.w3.org/2000/svg">
<path opacity="0.2" d="M111.999 13.9121H23.1992V130.848H111.999V13.9121Z" fill="black"/>
<path d="M109.198 10.7119H20.3984V127.648H109.198V10.7119Z" fill="white" stroke="#263238" stroke-linecap="round" stroke-linejoin="round"/>
<path d="M85.8392 45.836H25.1992V32.208H103.887V45.836H87.3032" stroke="#263238" stroke-linecap="round" stroke-linejoin="round"/>
<path d="M30.1112 61.9561H25.1992V54.9121H68.1512" stroke="#263238" stroke-linecap="round" stroke-linejoin="round"/>
<path d="M70.0134 54.9121H103.885V61.9561H31.4414" stroke="#263238" stroke-linecap="round" stroke-linejoin="round"/>
<path d="M91.5592 76.212H25.1992V69.168H103.887V76.212H93.0232" stroke="#263238" stroke-linecap="round" stroke-linejoin="round"/>
<path d="M45.5432 118.816H25.1992V82.9443H103.887V118.816H47.5352" stroke="#263238" stroke-linecap="round" stroke-linejoin="round"/>
<path d="M103.887 82.9443H25.1992V89.2123H103.887V82.9443Z" fill="#D1D1D1" stroke="#263238" stroke-linecap="round" stroke-linejoin="round"/>
<path d="M62.6032 46.0999V54.9239H25.1992V45.8359" stroke="#263238" stroke-linecap="round" stroke-linejoin="round"/>
<path d="M103.887 37.0439H25.1992V40.9999H103.887V37.0439Z" fill="#D1D1D1" stroke="#263238" stroke-linecap="round" stroke-linejoin="round"/>
<path d="M77.7617 32.5762V37.0642" stroke="#263238" stroke-linecap="round" stroke-linejoin="round"/>
<path d="M87.8795 33.3281H82.5195V35.9481H87.8795V33.3281Z" fill="#D1D1D1" stroke="#263238" stroke-linecap="round" stroke-linejoin="round"/>
<path d="M65.2383 41.124V45.88" stroke="#263238" stroke-linecap="round" stroke-linejoin="round"/>
<path d="M81.6914 41.124V45.88" stroke="#263238" stroke-linecap="round" stroke-linejoin="round"/>
<path d="M39.6758 54.9244V45.9004" stroke="#263238" stroke-linecap="round" stroke-linejoin="round"/>
<path d="M48.8359 54.9244V45.9004" stroke="#263238" stroke-linecap="round" stroke-linejoin="round"/>
<path d="M58.8242 54.9678V61.8318" stroke="#263238" stroke-linecap="round" stroke-linejoin="round"/>
<path d="M77.582 54.8721V76.0921" stroke="#263238" stroke-linecap="round" stroke-linejoin="round"/>
<path d="M25.1992 61.9561V69.176H77.6112" stroke="#263238" stroke-linecap="round" stroke-linejoin="round"/>
<path d="M44.9375 62.0078V68.9518" stroke="#263238" stroke-linecap="round" stroke-linejoin="round"/>
<path d="M99.2734 95.0518H103.925" stroke="#263238" stroke-linecap="round" stroke-linejoin="round"/>
<path d="M25.3047 95.0518H97.5407" stroke="#263238" stroke-linecap="round" stroke-linejoin="round"/>
<path d="M25.3047 100.716H103.925" stroke="#263238" stroke-linecap="round" stroke-linejoin="round"/>
<path d="M49.5312 106.355H103.927" stroke="#263238" stroke-linecap="round" stroke-linejoin="round"/>
<path d="M25.3047 106.355H47.5327" stroke="#263238" stroke-linecap="round" stroke-linejoin="round"/>
<path d="M40.2772 96.6123H37.6172V99.2723H40.2772V96.6123Z" fill="#D1D1D1" stroke="#263238" stroke-linecap="round" stroke-linejoin="round"/>
<path d="M55.5389 96.6123H52.8789V99.2723H55.5389V96.6123Z" fill="#D1D1D1" stroke="#263238" stroke-linecap="round" stroke-linejoin="round"/>
<path d="M44.9959 102.04H42.3359V104.7H44.9959V102.04Z" fill="#D1D1D1" stroke="#263238" stroke-linecap="round" stroke-linejoin="round"/>
<path d="M59.5858 102.04H56.9258V104.7H59.5858V102.04Z" fill="#D1D1D1" stroke="#263238" stroke-linecap="round" stroke-linejoin="round"/>
<path d="M73.5311 102.04H70.8711V104.7H73.5311V102.04Z" fill="#D1D1D1" stroke="#263238" stroke-linecap="round" stroke-linejoin="round"/>
<path d="M87.6912 102.04H85.0312V104.7H87.6912V102.04Z" fill="#D1D1D1" stroke="#263238" stroke-linecap="round" stroke-linejoin="round"/>
<path d="M41.1055 100.764V106.408" stroke="#263238" stroke-linecap="round" stroke-linejoin="round"/>
<path d="M55.375 100.764V106.408" stroke="#263238" stroke-linecap="round" stroke-linejoin="round"/>
<path d="M69.6367 100.764V106.408" stroke="#263238" stroke-linecap="round" stroke-linejoin="round"/>
<path d="M83.9023 100.764V106.408" stroke="#263238" stroke-linecap="round" stroke-linejoin="round"/>
<path d="M25.3047 112.107H103.925" stroke="#263238" stroke-linecap="round" stroke-linejoin="round"/>
<path d="M35.2381 107.792H32.5781V110.452H35.2381V107.792Z" fill="#D1D1D1" stroke="#263238" stroke-linecap="round" stroke-linejoin="round"/>
<path d="M59.5858 107.792H56.9258V110.452H59.5858V107.792Z" fill="#D1D1D1" stroke="#263238" stroke-linecap="round" stroke-linejoin="round"/>
<path d="M73.5311 107.792H70.8711V110.452H73.5311V107.792Z" fill="#D1D1D1" stroke="#263238" stroke-linecap="round" stroke-linejoin="round"/>
<path d="M91.4959 107.792H88.8359V110.452H91.4959V107.792Z" fill="#D1D1D1" stroke="#263238" stroke-linecap="round" stroke-linejoin="round"/>
<path d="M31.3477 106.516V112.1" stroke="#263238" stroke-linecap="round" stroke-linejoin="round"/>
<path d="M55.375 106.516V112.1" stroke="#263238" stroke-linecap="round" stroke-linejoin="round"/>
<path d="M69.6367 106.516V112.1" stroke="#263238" stroke-linecap="round" stroke-linejoin="round"/>
<path d="M87.7109 106.516V112.1" stroke="#263238" stroke-linecap="round" stroke-linejoin="round"/>
<path d="M56.8696 20.1599V21.1279H54.6737V25.2639H53.5977V15.7119H57.3937V16.6799H54.6657V20.1599H56.8696Z" fill="#263238"/>
<path d="M58.1641 18.0201C58.1641 16.5601 58.8841 15.6201 60.3441 15.6201C61.8041 15.6201 62.5401 16.5641 62.5401 18.0201V22.9561C62.5401 24.4041 61.8201 25.3561 60.3441 25.3561C58.8681 25.3561 58.1641 24.4001 58.1641 22.9561V18.0201ZM59.1961 23.0121C59.1961 23.8841 59.5641 24.3921 60.3281 24.3921C61.0921 24.3921 61.4601 23.8841 61.4601 23.0121V17.9641C61.4601 17.1041 61.1081 16.5841 60.3281 16.5841C59.5481 16.5841 59.1961 17.1041 59.1961 17.9641V23.0121Z" fill="#263238"/>
<path d="M65.683 15.7119C67.183 15.7119 67.811 16.4759 67.811 17.8959V18.6719C67.811 19.7239 67.443 20.3799 66.611 20.6399C67.483 20.8959 67.811 21.6079 67.811 22.6399V24.1279C67.7798 24.5205 67.8457 24.9148 68.003 25.2759H66.927C66.775 24.9092 66.7133 24.5114 66.747 24.1159V22.6039C66.747 21.5239 66.243 21.1839 65.355 21.1839H64.607V25.2639H63.543V15.7119H65.683ZM65.411 20.2159C66.255 20.2159 66.759 19.9439 66.759 18.9039V17.9999C66.759 17.1399 66.447 16.6879 65.655 16.6879H64.619V20.2239L65.411 20.2159Z" fill="#263238"/>
<path d="M72.4464 25.2479H71.4264L69.8264 17.6479V25.2479H68.8984V15.7119H70.3984L71.9664 23.3399L73.4824 15.7119H74.9664V25.2639H73.9584V17.5999L72.4464 25.2479Z" fill="#263238"/>
<path d="M49.1328 29.9395H57.7968" stroke="#263238" stroke-miterlimit="10"/>
<path d="M25.4961 29.9395H47.6721" stroke="#263238" stroke-miterlimit="10"/>
<path d="M64.6328 29.9395H83.7288" stroke="#263238" stroke-miterlimit="10"/>
<path d="M88.918 29.9395H104.006" stroke="#263238" stroke-miterlimit="10"/>
<path d="M92.375 165.02L122.063 163.8L138.275 183.504L98.239 186.992L92.375 165.02Z" fill="white" stroke="#263238" stroke-linecap="round" stroke-linejoin="round"/>
<path d="M98.3711 178.589L130.463 176.353L132.579 179.017L99.2631 181.549L98.3711 178.589Z" stroke="#263238" stroke-width="0.5" stroke-linecap="round" stroke-linejoin="round"/>
<path d="M97.4102 175.388L128.166 173.452L129.146 174.688L97.8222 176.752L97.4102 175.388Z" stroke="#263238" stroke-width="0.5" stroke-linecap="round" stroke-linejoin="round"/>
<path d="M96.6289 172.8L126.293 171.092L127.201 172.236L97.0049 174.052L96.6289 172.8Z" stroke="#263238" stroke-width="0.5" stroke-linecap="round" stroke-linejoin="round"/>
<path d="M94.625 166.148L121.441 164.98L125.457 170.04L96.281 171.644L94.625 166.148Z" stroke="#263238" stroke-width="0.5" stroke-linecap="round" stroke-linejoin="round"/>
<path d="M95.9688 170.608L124.701 169.088L125.457 170.04L96.2807 171.644L95.9688 170.608Z" fill="#D1D1D1" stroke="#263238" stroke-width="0.5" stroke-linecap="round" stroke-linejoin="round"/>
<path d="M115.733 177.324L114.777 175.631L129.145 174.688L130.465 176.352" stroke="#263238" stroke-width="0.5" stroke-linecap="round" stroke-linejoin="round"/>
<path d="M98.6797 179.607L131.196 177.271L131.812 178.043L98.9397 180.467L98.6797 179.607Z" fill="#D1D1D1" stroke="#263238" stroke-width="0.5" stroke-linecap="round" stroke-linejoin="round"/>
<path d="M110.823 180.584L110.371 179.62" stroke="#263238" stroke-width="0.5" stroke-linecap="round" stroke-linejoin="round"/>
<path d="M106.105 180.184L108.437 180.012L108.685 180.576L106.337 180.756L106.105 180.184Z" fill="#D1D1D1" stroke="#263238" stroke-width="0.5" stroke-linecap="round" stroke-linejoin="round"/>
<path d="M115.208 178.396L114.684 177.444" stroke="#263238" stroke-width="0.5" stroke-linecap="round" stroke-linejoin="round"/>
<path d="M108.307 178.892L107.875 177.916" stroke="#263238" stroke-width="0.5" stroke-linecap="round" stroke-linejoin="round"/>
<path d="M123.691 175.044L124.879 176.728" stroke="#263238" stroke-width="0.5" stroke-linecap="round" stroke-linejoin="round"/>
<path d="M120.172 175.275L121.276 176.979" stroke="#263238" stroke-width="0.5" stroke-linecap="round" stroke-linejoin="round"/>
<path d="M116.267 175.523L115.527 174.271" stroke="#263238" stroke-width="0.5" stroke-linecap="round" stroke-linejoin="round"/>
<path d="M108.769 176.036L106.977 172.224" stroke="#263238" stroke-width="0.5" stroke-linecap="round" stroke-linejoin="round"/>
<path d="M128.163 173.452L127.199 172.236L107.523 173.42" stroke="#263238" stroke-width="0.5" stroke-linecap="round" stroke-linejoin="round"/>
<path d="M120.816 173.908L120.008 172.708" stroke="#263238" stroke-width="0.5" stroke-linecap="round" stroke-linejoin="round"/>
<path d="M123.984 168.232L95.6719 169.676" stroke="#263238" stroke-width="0.5" stroke-linecap="round" stroke-linejoin="round"/>
<path d="M123.338 167.424L95.4023 168.796" stroke="#263238" stroke-width="0.5" stroke-linecap="round" stroke-linejoin="round"/>
<path d="M122.72 166.64L95.1484 167.944" stroke="#263238" stroke-width="0.5" stroke-linecap="round" stroke-linejoin="round"/>
<path d="M118.422 167.88L119.33 167.836L119.606 168.22L118.69 168.264L118.422 167.88Z" fill="#D1D1D1" stroke="#263238" stroke-width="0.5" stroke-linecap="round" stroke-linejoin="round"/>
<path d="M113.117 168.144L114.049 168.096L114.293 168.488L113.357 168.536L113.117 168.144Z" fill="#D1D1D1" stroke="#263238" stroke-width="0.5" stroke-linecap="round" stroke-linejoin="round"/>
<path d="M116.27 167.184L117.178 167.14L117.438 167.516L116.526 167.56L116.27 167.184Z" fill="#D1D1D1" stroke="#263238" stroke-width="0.5" stroke-linecap="round" stroke-linejoin="round"/>
<path d="M111.234 167.424L112.162 167.38L112.39 167.764L111.458 167.808L111.234 167.424Z" fill="#D1D1D1" stroke="#263238" stroke-width="0.5" stroke-linecap="round" stroke-linejoin="round"/>
<path d="M106.312 167.66L107.26 167.616L107.457 168.004L106.505 168.048L106.312 167.66Z" fill="#D1D1D1" stroke="#263238" stroke-width="0.5" stroke-linecap="round" stroke-linejoin="round"/>
<path d="M101.211 167.904L102.175 167.86L102.343 168.252L101.371 168.3L101.211 167.904Z" fill="#D1D1D1" stroke="#263238" stroke-width="0.5" stroke-linecap="round" stroke-linejoin="round"/>
<path d="M117.986 167.68L117.43 166.884" stroke="#263238" stroke-width="0.5" stroke-linecap="round" stroke-linejoin="round"/>
<path d="M113.043 167.92L112.547 167.112" stroke="#263238" stroke-width="0.5" stroke-linecap="round" stroke-linejoin="round"/>
<path d="M107.994 168.168L107.566 167.348" stroke="#263238" stroke-width="0.5" stroke-linecap="round" stroke-linejoin="round"/>
<path d="M102.837 168.424L102.477 167.588" stroke="#263238" stroke-width="0.5" stroke-linecap="round" stroke-linejoin="round"/>
<path d="M122.106 165.864L94.8984 167.1" stroke="#263238" stroke-width="0.5" stroke-linecap="round" stroke-linejoin="round"/>
<path d="M119 166.236L119.884 166.196L120.152 166.556L119.268 166.6L119 166.236Z" fill="#D1D1D1" stroke="#263238" stroke-width="0.5" stroke-linecap="round" stroke-linejoin="round"/>
<path d="M110.762 166.615L111.674 166.571L111.898 166.943L110.978 166.987L110.762 166.615Z" fill="#D1D1D1" stroke="#263238" stroke-width="0.5" stroke-linecap="round" stroke-linejoin="round"/>
<path d="M105.902 166.836L106.834 166.796L107.03 167.172L106.09 167.216L105.902 166.836Z" fill="#D1D1D1" stroke="#263238" stroke-width="0.5" stroke-linecap="round" stroke-linejoin="round"/>
<path d="M99.5 167.132L100.46 167.088L100.612 167.472L99.648 167.516L99.5 167.132Z" fill="#D1D1D1" stroke="#263238" stroke-width="0.5" stroke-linecap="round" stroke-linejoin="round"/>
<path d="M120.697 166.712L120.125 165.952" stroke="#263238" stroke-width="0.5" stroke-linecap="round" stroke-linejoin="round"/>
<path d="M112.538 167.1L112.066 166.32" stroke="#263238" stroke-width="0.5" stroke-linecap="round" stroke-linejoin="round"/>
<path d="M107.56 167.332L107.148 166.544" stroke="#263238" stroke-width="0.5" stroke-linecap="round" stroke-linejoin="round"/>
<path d="M101.098 167.64L100.77 166.836" stroke="#263238" stroke-width="0.5" stroke-linecap="round" stroke-linejoin="round"/>
<path d="M121.331 182.64L121.199 182.42L122.143 182.344L121.575 181.42L122.027 181.384L123.367 183.552L121.715 183.692L121.583 183.464L122.783 183.364L122.291 182.564L121.331 182.64Z" fill="#263238"/>
<path d="M121.065 183.2C121.269 183.54 121.065 183.788 120.441 183.844C119.817 183.9 119.345 183.704 119.153 183.36L118.513 182.224C118.329 181.9 118.513 181.66 119.149 181.612C119.785 181.564 120.209 181.748 120.397 182.072L121.065 183.2ZM119.941 182.096C119.869 181.99 119.767 181.908 119.648 181.861C119.529 181.813 119.398 181.802 119.273 181.828C118.941 181.852 118.853 181.98 118.965 182.176L119.625 183.332C119.697 183.443 119.801 183.529 119.923 183.58C120.045 183.63 120.18 183.643 120.309 183.616C120.641 183.588 120.733 183.452 120.617 183.252L119.941 182.096Z" fill="#263238"/>
<path d="M118.067 184C117.399 184.056 117.023 183.896 116.847 183.56L116.747 183.38C116.619 183.136 116.699 182.98 117.027 182.88C116.875 182.89 116.722 182.858 116.586 182.787C116.45 182.717 116.336 182.611 116.255 182.48L116.075 182.144C116.03 182.039 115.953 181.951 115.855 181.892L116.323 181.852C116.419 181.915 116.494 182.004 116.539 182.108L116.723 182.448C116.859 182.696 117.123 182.756 117.523 182.724L117.851 182.7L117.343 181.776L117.799 181.736L119.027 183.936L118.067 184ZM117.599 182.932C117.231 182.964 117.043 183.044 117.171 183.288L117.287 183.5C117.395 183.704 117.591 183.796 117.943 183.768L118.403 183.732L117.947 182.904L117.599 182.932Z" fill="#263238"/>
<path d="M113.928 182.031L114.376 181.995L115.976 183.695L115.064 181.935L115.464 181.903L116.624 184.119L115.96 184.175L114.36 182.447L114.58 184.295L113.908 184.351L112.824 182.115L113.264 182.079L114.144 183.863L113.928 182.031Z" fill="#263238"/>
<path d="M132.833 179.487L119.645 180.503" stroke="#263238" stroke-width="0.5" stroke-miterlimit="10"/>
<path d="M116.752 180.728L108.48 181.364" stroke="#263238" stroke-width="0.5" stroke-miterlimit="10"/>
<path d="M106.179 181.544L99.3633 182.068" stroke="#263238" stroke-width="0.5" stroke-miterlimit="10"/>
<path d="M120.001 102.132C117.162 102.972 114.397 104.042 111.733 105.332C107.333 107.468 98.6686 110.668 94.5326 112.268C90.3966 113.868 87.8686 118 87.0686 120C86.2686 122 82.8006 130.532 82.8006 130.532C82.8006 130.532 75.4686 142 73.6006 144.8C71.7326 147.6 69.2006 151.468 69.0686 155.068C68.9366 158.668 70.9326 160.668 75.6006 160.668C80.2686 160.668 82.2686 159.068 84.5326 156.668C86.7966 154.268 94.1326 142.532 95.2006 141.2C96.2686 139.868 99.2006 134.8 99.2006 134.8C99.2006 134.8 100.669 148 100.669 152.132V161.868H142.669C142.669 161.868 144.669 147.2 145.069 146C145.469 144.8 148.533 136.132 148.533 136.132C148.533 136.132 159.601 154 161.449 156.4C163.297 158.8 168.573 163.856 173.741 161.832C178.909 159.808 177.849 154.264 175.049 147.6C172.249 140.936 167.333 129.6 167.333 129.06C167.333 128.52 165.333 120.66 157.201 114.524C149.069 108.388 141.069 106.924 139.201 105.992C137.333 105.06 131.333 102.132 120.001 102.132Z" fill="#C5C4D4" stroke="#263238" stroke-linecap="round" stroke-linejoin="round"/>
<path d="M93.8688 126.132L99.0688 134.268C99.0688 134.268 94.8008 129.868 92.1328 129.2" stroke="#263238" stroke-linecap="round" stroke-linejoin="round"/>
<path d="M99.0696 134.268L96.0016 133.2C96.0016 133.2 93.2016 131.6 90.9336 132.268" stroke="#263238" stroke-linecap="round" stroke-linejoin="round"/>
<path d="M115.016 114.8C115.316 116.996 116.008 119.724 117.6 121.6" stroke="#263238" stroke-linecap="round" stroke-linejoin="round"/>
<path d="M114.798 111.2C114.798 111.2 114.77 111.964 114.842 113.116" stroke="#263238" stroke-linecap="round" stroke-linejoin="round"/>
<path d="M116.262 123.2C116.637 123.584 117.038 123.942 117.462 124.272" stroke="#263238" stroke-linecap="round" stroke-linejoin="round"/>
<path d="M112.535 117.2C113.263 119.174 114.337 121.003 115.707 122.6" stroke="#263238" stroke-linecap="round" stroke-linejoin="round"/>
<path d="M138.87 146.992C137.962 148.468 137.102 149.66 136.402 150.268" stroke="#263238" stroke-linecap="round" stroke-linejoin="round"/>
<path d="M145.602 133.731C145.602 133.731 142.502 140.739 139.602 145.731" stroke="#263238" stroke-linecap="round" stroke-linejoin="round"/>
<path d="M131.966 151.38C131.566 151.864 131.258 152.268 131.066 152.532" stroke="#263238" stroke-linecap="round" stroke-linejoin="round"/>
<path d="M137.069 145.332C137.069 145.332 134.613 148.188 132.801 150.4" stroke="#263238" stroke-linecap="round" stroke-linejoin="round"/>
<path d="M148.535 136.132C148.535 136.132 154.403 126.8 154.671 126" stroke="#263238" stroke-linecap="round" stroke-linejoin="round"/>
<path d="M153.02 132.536C154.764 131.124 157.384 129.336 160 128.8" stroke="#263238" stroke-linecap="round" stroke-linejoin="round"/>
<path d="M150.934 134.4C150.934 134.4 151.41 133.908 152.21 133.2" stroke="#263238" stroke-linecap="round" stroke-linejoin="round"/>
<path d="M158.269 127.332C156.582 128.212 154.976 129.238 153.469 130.4" stroke="#263238" stroke-linecap="round" stroke-linejoin="round"/>
<path d="M160.668 147.068C161.806 146.527 163.061 146.281 164.319 146.35C165.577 146.42 166.797 146.804 167.868 147.468" stroke="#263238" stroke-linecap="round" stroke-linejoin="round"/>
<path d="M161.867 145.332C161.867 145.332 166.531 144.4 169.999 146.532" stroke="#263238" stroke-linecap="round" stroke-linejoin="round"/>
<path d="M74.4023 146.932C75.2064 146.203 76.1599 145.658 77.1963 145.336C78.2327 145.015 79.3268 144.923 80.4023 145.068" stroke="#263238" stroke-linecap="round" stroke-linejoin="round"/>
<path d="M82.6562 145.38C82.984 145.614 83.2991 145.865 83.6003 146.132" stroke="#263238" stroke-linecap="round" stroke-linejoin="round"/>
<path d="M79.0664 143.868C79.8303 143.963 80.5711 144.194 81.2544 144.548" stroke="#263238" stroke-linecap="round" stroke-linejoin="round"/>
<path d="M119.069 105.6C119.069 105.6 117.869 110.668 118.269 114.4C118.669 118.132 122.801 123.868 126.269 125.2C129.737 126.532 136.133 122.668 138.401 120.4C140.669 118.132 140.801 110.932 140.801 110.932C140.801 110.932 137.345 103.468 130.001 101.332C122.657 99.1956 119.069 105.6 119.069 105.6Z" fill="#ABABAB" stroke="#263238" stroke-linecap="round" stroke-linejoin="round"/>
<path d="M146.643 104.556C146.643 104.556 147.339 106.64 145.999 109.276C144.659 111.912 142.071 114.14 141.375 113.912C140.679 113.684 143.539 104.144 143.539 104.144C143.539 104.144 145.439 103.076 146.643 104.556Z" fill="#ABABAB" stroke="#263238" stroke-linecap="round" stroke-linejoin="round"/>
<path d="M117.226 96.9401C117.226 96.9401 115.91 98.6961 116.346 101.624C116.782 104.552 118.542 107.476 119.274 107.476C120.006 107.476 120.298 97.5281 120.298 97.5281C120.298 97.5281 118.834 95.9161 117.226 96.9401Z" fill="#ABABAB" stroke="#263238" stroke-linecap="round" stroke-linejoin="round"/>
<path d="M119.419 100.744C119.419 100.744 118.395 109.672 119.563 113.332C120.731 116.992 123.075 122.696 126.735 124.16C130.395 125.624 138.735 119.332 140.051 116.844C141.367 114.356 145.027 103.82 145.027 103.82C145.99 102.539 146.615 101.037 146.845 99.4508C147.076 97.865 146.905 96.2466 146.347 94.7443C144.443 89.4763 134.199 86.2563 129.947 86.4043C125.695 86.5523 121.459 90.0643 121.167 92.8443C120.875 95.6243 119.419 100.744 119.419 100.744Z" fill="#ABABAB" stroke="#263238" stroke-linecap="round" stroke-linejoin="round"/>
<path d="M128.933 106.16C128.933 106.16 125.713 102.208 122.785 103.528" stroke="#263238" stroke-width="2" stroke-linecap="round" stroke-linejoin="round"/>
<path d="M134.055 107.916C134.055 107.916 138.455 106.892 140.495 108.796" stroke="#263238" stroke-width="2" stroke-linecap="round" stroke-linejoin="round"/>
<path d="M123.227 107.04C123.227 107.04 124.167 109.84 127.983 109.516" stroke="#263238" stroke-linecap="round" stroke-linejoin="round"/>
<path d="M133.762 110.987C133.762 110.987 134.642 112.891 138.738 112.159" stroke="#263238" stroke-linecap="round" stroke-linejoin="round"/>
<path d="M126.547 113.652C126.418 114.245 126.503 114.865 126.787 115.4C127.263 116.116 128.455 117.148 129.331 117.148C130.207 117.148 132.035 116.832 132.511 116.348C132.817 116.035 133.085 115.687 133.311 115.312" stroke="#263238" stroke-linecap="round" stroke-linejoin="round"/>
<path d="M124.562 116.275C124.562 116.275 126.562 118.579 128.222 119.135C129.882 119.691 132.99 118.735 133.866 118.419" stroke="#263238" stroke-linecap="round" stroke-linejoin="round"/>
<path d="M153.544 90.6719C153.408 89.7119 154.092 88.3399 154.228 87.5199C154.364 86.6999 153.268 85.1879 152.312 83.9559C151.573 82.9697 151.185 81.7641 151.212 80.5319C151.212 79.7079 150.256 79.0239 149.432 78.4759C148.43 77.8091 147.51 77.0263 146.692 76.1439C146.144 75.4599 143.816 75.5959 143.404 75.5959C142.992 75.5959 141.212 74.0919 140.116 73.5439C139.02 72.9959 136.828 73.9439 136.828 73.9439C136.828 73.9439 134.224 72.7119 133.676 72.7119C133.128 72.7119 130.796 73.6719 130.796 73.6719C130.024 74.003 129.219 74.2537 128.396 74.4199C128.246 74.3809 128.094 74.3555 127.94 74.3439C127.632 73.9439 124.892 75.5879 124.892 75.5879L122.428 75.9879L121.512 77.4719C120.636 77.5679 118.584 77.8959 118.44 78.8999C118.256 80.1799 118.44 80.7279 117.892 81.4559C117.344 82.1839 115.336 82.0039 115.892 83.6479C116.448 85.2919 117.716 86.5719 116.072 87.4879C114.428 88.4039 113.516 90.0439 114.428 90.9559C115.34 91.8679 116.072 93.1479 115.892 93.8799C115.712 94.6119 115.524 96.2559 116.256 96.6199C116.901 96.9934 117.512 97.4217 118.084 97.8999L118.996 99.8999L119.544 101.18C119.544 101.18 120.456 98.2559 121.188 97.8919C121.92 97.5279 121.188 99.1719 122.652 99.1719C124.116 99.1719 125.572 92.2279 126.652 92.0439C127.732 91.8599 131.052 98.0759 134.328 98.0759C137.604 98.0759 141.652 95.1999 143.3 95.1999C144.948 95.1999 143.664 102.14 143.664 103.6C143.664 105.06 144.028 106.52 144.028 107.072C144.028 107.624 145.856 104.512 147.136 103.78C147.488 103.58 147.912 103.336 148.356 103.056C148.356 103.12 148.336 103.156 148.336 103.156C148.336 103.156 152.86 100.276 153.408 99.3199C153.956 98.3639 153.544 97.5359 153.544 96.7159C153.544 95.8959 154.092 95.2079 154.228 93.9759C154.364 92.7439 153.68 91.6279 153.544 90.6719Z" fill="#263238" stroke="#263238" stroke-linecap="round" stroke-linejoin="round"/>
<path d="M187.037 161.836H10.8008" stroke="#263238" stroke-linecap="round" stroke-linejoin="round"/>
<path d="M167.877 150.176C167.877 150.176 162.881 148.34 159.289 149.776C155.697 151.212 147.265 154.624 141.525 155.7C136.139 156.654 130.665 157.015 125.201 156.776C120.353 156.596 117.661 157.316 116.585 158.212C115.509 159.108 111.561 164.132 111.917 164.672C112.273 165.212 112.673 165.416 114.433 165.032C115.133 164.876 117.125 162.7 117.125 162.7L120.725 161.1C120.725 161.1 116.957 165.228 117.493 165.764C118.029 166.3 118.929 165.584 119.649 165.048C120.369 164.512 121.801 163.252 121.801 163.252L125.033 161.816C125.033 161.816 121.601 164.132 121.601 165.2C121.601 166.268 122.437 165.64 123.861 165.072C124.536 164.646 125.179 164.172 125.785 163.652L128.485 162.892C130.229 163.802 132.171 164.264 134.137 164.236C136.193 164.228 138.178 163.487 139.737 162.148C139.737 162.148 152.301 163.944 158.581 163.404C164.861 162.864 172.757 163.584 175.989 161.252C179.221 158.92 175.093 152.816 174.733 152.276" fill="#ABABAB"/>
<path d="M167.877 150.176C167.877 150.176 162.881 148.34 159.289 149.776C155.697 151.212 147.265 154.624 141.525 155.7C136.139 156.654 130.665 157.015 125.201 156.776C120.353 156.596 117.661 157.316 116.585 158.212C115.509 159.108 111.561 164.132 111.917 164.672C112.273 165.212 112.673 165.416 114.433 165.032C115.133 164.876 117.125 162.7 117.125 162.7L120.725 161.1C120.725 161.1 116.957 165.228 117.493 165.764C118.029 166.3 118.929 165.584 119.649 165.048C120.369 164.512 121.801 163.252 121.801 163.252L125.033 161.816C125.033 161.816 121.601 164.132 121.601 165.2C121.601 166.268 122.437 165.64 123.861 165.072C124.536 164.646 125.179 164.172 125.785 163.652L128.485 162.892C130.229 163.802 132.171 164.264 134.137 164.236C136.193 164.228 138.178 163.487 139.737 162.148C139.737 162.148 152.301 163.944 158.581 163.404C164.861 162.864 172.757 163.584 175.989 161.252C179.221 158.92 175.093 152.816 174.733 152.276" stroke="#263238" stroke-linecap="round" stroke-linejoin="round"/>
<path d="M112.75 165.168C112.75 165.168 113.418 163.244 114.086 162.408C114.754 161.572 117.846 159.568 118.934 158.984C119.365 158.735 119.811 158.512 120.27 158.316" stroke="#263238" stroke-linecap="round" stroke-linejoin="round"/>
<path d="M120.703 161.084L123.859 158.984" stroke="#263238" stroke-linecap="round" stroke-linejoin="round"/>
<path d="M125.012 161.8L127.956 160.32" stroke="#263238" stroke-linecap="round" stroke-linejoin="round"/>
<path d="M167.875 150.176C165.207 149.54 161.439 148.916 159.287 149.776C156.087 151.052 149.095 153.88 143.547 155.252C144.333 156.117 144.788 157.232 144.831 158.4C144.894 159.864 144.693 161.327 144.239 162.72C148.467 163.196 154.707 163.748 158.571 163.416C164.851 162.876 172.747 163.596 175.979 161.264C179.211 158.932 175.083 152.828 174.723 152.288" fill="#C5C4D4"/>
<path d="M167.875 150.176C165.207 149.54 161.439 148.916 159.287 149.776C156.087 151.052 149.095 153.88 143.547 155.252C144.333 156.117 144.788 157.232 144.831 158.4C144.894 159.864 144.693 161.327 144.239 162.72C148.467 163.196 154.707 163.748 158.571 163.416C164.851 162.876 172.747 163.596 175.979 161.264C179.211 158.932 175.083 152.828 174.723 152.288" stroke="#263238" stroke-linecap="round" stroke-linejoin="round"/>
<path d="M73.1191 149.636C73.4551 148.728 75.9191 146.556 79.2351 147.136C82.5511 147.716 86.3151 151.4 88.4671 154.232C90.6191 157.064 92.3351 157.832 92.3351 157.832L89.7991 165.58C89.7991 165.58 88.2391 165.204 85.3111 164.46C82.3831 163.716 75.8311 162.748 72.8191 161.812C69.8071 160.876 68.5231 157.636 69.1791 154.612C69.5137 152.931 70.0861 151.307 70.8791 149.788" fill="#C5C4D4"/>
<path d="M73.1191 149.636C73.4551 148.728 75.9191 146.556 79.2351 147.136C82.5511 147.716 86.3151 151.4 88.4671 154.232C90.6191 157.064 92.3351 157.832 92.3351 157.832L89.7991 165.58C89.7991 165.58 88.2391 165.204 85.3111 164.46C82.3831 163.716 75.8311 162.748 72.8191 161.812C69.8071 160.876 68.5231 157.636 69.1791 154.612C69.5137 152.931 70.0861 151.307 70.8791 149.788" stroke="#263238" stroke-linecap="round" stroke-linejoin="round"/>
<path d="M88.4707 154.232C88.2427 153.936 87.9987 153.632 87.7427 153.32C85.8667 154.068 83.4867 155.448 82.2267 157.88C80.9667 160.312 80.9587 162.32 81.2027 163.6C82.8027 163.904 84.2787 164.192 85.3067 164.452C88.2347 165.196 89.7947 165.572 89.7947 165.572L92.3307 157.824C92.3307 157.824 90.6187 157.068 88.4707 154.232Z" fill="#ABABAB" stroke="#263238" stroke-linecap="round" stroke-linejoin="round"/>
<path d="M87.4332 161.799C87.2652 162.999 86.8972 164.371 88.6332 165.131C90.3692 165.891 92.0972 167.767 93.1892 168.207C94.5101 168.713 95.8908 169.047 97.2972 169.199C98.4092 169.271 99.7812 169.635 101.961 169.027C104.141 168.419 104.081 167.859 104.081 167.859C104.081 167.859 105.441 167.911 106.113 167.579C106.785 167.247 106.313 166.415 105.497 166.087C104.681 165.759 103.681 165.319 103.681 165.319C103.681 165.319 104.921 164.175 104.609 163.891L104.301 163.607C104.301 163.607 105.733 163.775 105.857 163.319C105.981 162.863 105.081 160.847 104.721 159.151C104.361 157.455 103.605 157.683 102.225 157.411C100.845 157.139 98.9652 157.487 96.4852 156.959C94.0052 156.431 90.4132 157.319 88.9932 157.695" fill="#ABABAB"/>
<path d="M87.4332 161.799C87.2652 162.999 86.8972 164.371 88.6332 165.131C90.3692 165.891 92.0972 167.767 93.1892 168.207C94.5101 168.713 95.8908 169.047 97.2972 169.199C98.4092 169.271 99.7812 169.635 101.961 169.027C104.141 168.419 104.081 167.859 104.081 167.859C104.081 167.859 105.441 167.911 106.113 167.579C106.785 167.247 106.313 166.415 105.497 166.087C104.681 165.759 103.681 165.319 103.681 165.319C103.681 165.319 104.921 164.175 104.609 163.891L104.301 163.607C104.301 163.607 105.733 163.775 105.857 163.319C105.981 162.863 105.081 160.847 104.721 159.151C104.361 157.455 103.605 157.683 102.225 157.411C100.845 157.139 98.9652 157.487 96.4852 156.959C94.0052 156.431 90.4132 157.319 88.9932 157.695" stroke="#263238" stroke-linecap="round" stroke-linejoin="round"/>
<path d="M97.1181 150.26L99.3821 158.26L101.19 159.12L98.5101 149.856C98.482 149.758 98.4333 149.667 98.3672 149.589C98.3012 149.511 98.2192 149.448 98.1269 149.404C98.0346 149.36 97.934 149.336 97.8317 149.334C97.7295 149.332 97.6281 149.352 97.5341 149.392C97.3704 149.461 97.2376 149.587 97.161 149.747C97.0843 149.907 97.069 150.09 97.1181 150.26Z" fill="#263238"/>
<path d="M98.401 157.648C98.401 157.648 102.361 159.76 102.633 159.868C102.821 159.944 104.585 162.892 105.145 164.308C105.405 164.956 105.113 165.328 104.505 165.664L103.685 165.332L98.761 162.232L96.957 161.372" fill="#ABABAB"/>
<path d="M98.401 157.648C98.401 157.648 102.361 159.76 102.633 159.868C102.821 159.944 104.585 162.892 105.145 164.308C105.405 164.956 105.113 165.328 104.505 165.664L103.685 165.332L98.761 162.232L96.957 161.372" stroke="#263238" stroke-linecap="round" stroke-linejoin="round"/>
<path d="M95.6367 164.548C95.6367 164.548 99.4927 166.84 100.305 167.26C101.117 167.68 104.081 167.872 104.081 167.872" stroke="#263238" stroke-linecap="round" stroke-linejoin="round"/>
<path d="M94.1914 166.8C94.1914 166.8 97.4274 168.584 98.0634 168.8C98.6994 169.016 100.063 169.392 100.063 169.392" stroke="#263238" stroke-linecap="round" stroke-linejoin="round"/>
<path d="M69.1352 181.667L83.9032 168.083L51.3672 165.983L69.1352 181.667Z" fill="#CCCCCC" stroke="#263238" stroke-linecap="round" stroke-linejoin="round"/>
<path d="M68.5129 178.932L75.1609 172.632L67.4609 172.168L68.5129 178.932Z" fill="#263238" stroke="#263238" stroke-linecap="round" stroke-linejoin="round"/>
<path d="M23.232 143.52L71.94 145.676L69.136 181.668L20 179.296L23.232 143.52Z" fill="#A6A6A6" stroke="#263238" stroke-linecap="round" stroke-linejoin="round"/>
<path d="M20.2148 176.9C23.0948 176.476 27.9548 175.344 36.1628 172.688C55.7028 166.364 58.1628 148.688 71.9388 145.676L23.2308 143.52L20.2148 176.9Z" fill="#263238" stroke="#263238" stroke-linecap="round" stroke-linejoin="round"/>
<path d="M45.6462 164.64C47.7095 164.64 49.3822 163.354 49.3822 161.768C49.3822 160.181 47.7095 158.896 45.6462 158.896C43.5828 158.896 41.9102 160.181 41.9102 161.768C41.9102 163.354 43.5828 164.64 45.6462 164.64Z" fill="white" stroke="#263238" stroke-linecap="round" stroke-linejoin="round"/>
</svg>
