<svg width="290" height="112" viewBox="0 0 290 112" fill="none" xmlns="http://www.w3.org/2000/svg">
<g clip-path="url(#clip0)">
<path d="M265.807 5.13672H63.0352V6.03632H265.807V5.13672Z" fill="#6F6C93"/>
<path d="M91.1059 5.47754H90.2063V34.0683H91.1059V5.47754Z" fill="#6F6C93"/>
<path d="M164.883 56.7299H118.532V5.44824H119.432V55.8303H164.883V56.7299Z" fill="#6F6C93"/>
<path d="M149.896 5.47754H148.996V34.0683H149.896V5.47754Z" fill="#6F6C93"/>
<path d="M164.99 56.3047H164.091V84.8955H164.99V56.3047Z" fill="#6F6C93"/>
<path d="M211.571 5.47754H210.671V34.0683H211.571V5.47754Z" fill="#6F6C93"/>
<path d="M242.408 5.47754H241.509V34.0683H242.408V5.47754Z" fill="#6F6C93"/>
<path d="M99.3053 38.4404H82.2227V45.096H99.3053V38.4404Z" fill="#C5C4D4"/>
<path d="M157.779 38.4404H140.697V45.096H157.779V38.4404Z" fill="#211F45"/>
<path d="M219.851 38.4404H202.769V45.096H219.851V38.4404Z" fill="#6F6C93"/>
<path d="M249.538 38.4404H232.455V45.096H249.538V38.4404Z" fill="#C5C4D4"/>
<path d="M289.57 2.45703H272.488V9.11257H289.57V2.45703Z" fill="#211F45"/>
<path d="M173.072 88.8174H155.99V95.4729H173.072V88.8174Z" fill="#211F45"/>
<path d="M57.2271 0H29.8425V10.6693H57.2271V0Z" fill="#C5C4D4"/>
</g>
<defs>
<clipPath id="clip0">
<rect width="288.771" height="112" fill="white" transform="translate(0.614502)"/>
</clipPath>
</defs>
</svg>
