<svg width="60" height="36" viewBox="0 0 60 36" fill="none" xmlns="http://www.w3.org/2000/svg">
<path d="M50.0049 9.88772C50.3085 9.49357 50.6349 9.15193 50.9981 8.86132C51.914 8.12866 52.9811 7.76229 54.3734 7.76229C55.9265 7.76229 57.3333 8.39252 58.3518 9.41099C59.3703 10.4295 60.0005 11.8363 60.0005 13.3894C60.0005 15.8843 58.8046 18.3105 57.0109 20.7021C55.2963 22.9882 53.0882 25.1964 50.8801 27.4044L50.8802 27.4045C50.3921 27.8926 49.6006 27.8926 49.1124 27.4045L49.1055 27.3973C44.5477 22.8396 39.9922 18.2815 39.9922 13.3894C39.9922 11.8363 40.6225 10.4295 41.6409 9.41101C42.6594 8.39253 44.0662 7.76231 45.6193 7.76231C47.6677 7.76231 48.947 8.47088 50.0049 9.88774L50.0049 9.88772ZM52.5509 10.8047C52.0471 11.2076 51.6118 11.8625 51.1593 12.7531C51.0504 13.0302 50.8426 13.2695 50.5554 13.4132C49.9379 13.7219 49.187 13.4716 48.8783 12.8542L49.9963 12.2951L48.883 12.8518C48.0199 11.1255 47.1945 10.2624 45.6193 10.2624C44.7563 10.2624 43.9744 10.6126 43.4085 11.1786C42.8425 11.7445 42.4923 12.5264 42.4923 13.3894C42.4923 16.9773 46.1169 20.8544 49.9964 24.7516C51.8606 22.8791 53.6639 21.0143 55.0187 19.2079C56.5077 17.2226 57.5004 15.2715 57.5004 13.3894C57.5004 12.5263 57.1502 11.7445 56.5842 11.1786C56.0182 10.6126 55.2365 10.2624 54.3734 10.2624C53.5772 10.2624 53.0028 10.4432 52.5509 10.8047L52.5509 10.8047Z" fill="#FE4D3C"/>
<path d="M42.8458 19.628C43.5362 19.628 44.0959 19.0683 44.0959 18.3779C44.0959 17.6876 43.5362 17.1279 42.8458 17.1279H34.5244L32.3707 15.0376L31.5016 15.9311L32.3722 15.0341C31.9208 14.5961 31.2238 14.567 30.7398 14.9399L28.5491 16.3574L25.1546 0.981818L25.1593 0.980757C25.0105 0.306652 24.3433 -0.119144 23.6692 0.0296485C23.0963 0.156109 22.7029 0.656925 22.6889 1.21818L20.7184 27.0378L17.5769 15.604L16.3758 15.9311L17.5811 15.5999C17.3982 14.9343 16.7103 14.5429 16.0446 14.7258C15.8829 14.7702 15.7375 14.8444 15.6125 14.9409L12.7508 16.7926L10.9425 15.0375L10.0734 15.9311L10.944 15.0341C10.7011 14.7984 10.3871 14.6812 10.0734 14.6812V14.6811H1.25003C0.559688 14.6811 0 15.2408 0 15.9311C0 16.6215 0.559688 17.1811 1.25003 17.1811H9.57152L11.6582 19.2065C12.0609 19.6625 12.7472 19.7679 13.2734 19.4274L12.5944 18.3779L13.2731 19.4228L15.6258 17.9005L20.1867 34.5007C20.2837 35.0492 20.7415 35.4842 21.3226 35.5286C22.0109 35.5811 22.6116 35.0656 22.6641 34.3773L21.4177 34.2822L22.6628 34.375L24.5417 9.75708L26.4798 18.5357C26.5026 18.7161 26.5652 18.8942 26.6706 19.057C27.0457 19.6366 27.8196 19.8024 28.3992 19.4274L27.7201 18.3779L28.3988 19.4228L31.3451 17.5164L33.0882 19.2082C33.3172 19.4657 33.6509 19.6279 34.0225 19.6279H42.8458L42.8458 19.628Z" fill="#FE4D3C"/>
</svg>
