<svg width="142" height="119" viewBox="0 0 142 119" fill="none" xmlns="http://www.w3.org/2000/svg">
<path d="M85.5874 20.5363C92.1069 24.624 96.6784 31.5411 97.5107 39.5703C100.17 40.8126 103.12 41.5271 106.249 41.5271C117.671 41.5271 126.928 32.2696 126.928 20.8495C126.928 9.4277 117.671 0.170227 106.249 0.170227C94.9364 0.173746 85.7599 9.26581 85.5874 20.5363ZM72.0399 62.8768C83.4618 62.8768 92.7193 53.6176 92.7193 42.1975C92.7193 30.7774 83.46 21.52 72.0399 21.52C60.6199 21.52 51.3571 30.7792 51.3571 42.1992C51.3571 53.6193 60.6199 62.8768 72.0399 62.8768ZM80.8118 64.2863H63.2646C48.6649 64.2863 36.7873 76.1656 36.7873 90.7653V112.224L36.8419 112.56L38.32 113.023C52.2528 117.376 64.3574 118.828 74.3204 118.828C93.7803 118.828 105.06 113.28 105.755 112.926L107.136 112.228H107.284V90.7653C107.289 76.1656 95.4115 64.2863 80.8118 64.2863ZM115.024 42.9383H97.6128C97.4245 49.9047 94.4507 56.1778 89.7472 60.6896C102.725 64.5484 112.22 76.5826 112.22 90.797V97.4097C129.411 96.7798 139.318 91.9073 139.971 91.58L141.352 90.8797H141.5V69.4138C141.5 54.8159 129.622 42.9383 115.024 42.9383ZM35.7544 41.5306C39.7998 41.5306 43.5637 40.3499 46.7522 38.3386C47.7657 31.7276 51.3096 25.9507 56.3721 22.0162C56.3932 21.629 56.4302 21.2454 56.4302 20.8548C56.4302 9.43298 47.1709 0.175506 35.7544 0.175506C24.3308 0.175506 15.0751 9.43298 15.0751 20.8548C15.0751 32.2714 24.3308 41.5306 35.7544 41.5306ZM54.3256 60.6896C49.645 56.2007 46.6818 49.961 46.4653 43.0368C45.8195 42.9893 45.1808 42.9383 44.5227 42.9383H26.9773C12.3776 42.9383 0.5 54.8159 0.5 69.4138V90.8762L0.554549 91.207L2.03265 91.6733C13.2099 95.1627 23.1853 96.771 31.8498 97.2778V90.797C31.8533 76.5826 41.3448 64.552 54.3256 60.6896Z" fill="#211F45"/>
</svg>
