<svg width="240" height="240" viewBox="0 0 240 240" fill="none" xmlns="http://www.w3.org/2000/svg">
<path d="M168.902 86.8368C165.989 93.2256 154.085 116.309 145.267 120.394C139.33 123.144 116.741 117.994 111.422 115.406C109.248 114.35 115.522 96.8832 118.109 96.8736C120.922 96.8736 137.746 102.816 139.589 102.24C141.432 101.664 154.114 89.6496 162.149 83.712C166.958 80.16 170.539 83.2416 168.902 86.8368Z" fill="#EB9481"/>
<path d="M117.821 117.6C113.592 117.086 99.8496 111.84 97.3776 110.189C94.9056 108.538 88.1232 103.296 89.184 101.28C90.2448 99.264 92.3568 100.632 92.3568 100.632C92.3568 100.632 89.5632 97.752 91.0944 96.0288C92.3232 94.6512 95.3904 96.4272 95.3904 96.4272C95.3904 96.4272 92.5104 93.1152 94.2336 91.5984C95.8224 90.216 98.6448 92.9664 98.6448 92.9664C98.6448 92.9664 96.504 89.9472 98.2896 88.9104C100.435 87.6624 104.146 92.8848 107.011 94.488C107.664 94.8528 125.136 98.5728 125.136 98.5728L117.821 117.6Z" fill="#EB9481"/>
<path d="M98.6879 92.7696C101.866 96.3936 103.286 97.8048 107.578 99.5568C107.659 99.5904 107.626 99.72 107.534 99.6912C103.181 98.3616 101.371 96.8112 98.4959 92.8896C98.3567 92.7024 98.5391 92.6016 98.6879 92.7696Z" fill="#263238"/>
<path d="M95.4335 96.408C98.6207 100.138 100.646 101.347 105.005 103.512C105.067 103.541 105.005 103.651 104.957 103.622C100.502 101.856 97.9871 100.627 95.2895 96.48C95.1647 96.2928 95.2895 96.24 95.4335 96.408Z" fill="#263238"/>
<path d="M92.5728 100.733C95.9328 104.122 98.0592 105.667 102.557 107.227C102.568 107.23 102.578 107.235 102.587 107.242C102.596 107.249 102.604 107.257 102.61 107.267C102.616 107.277 102.619 107.288 102.621 107.299C102.623 107.31 102.622 107.322 102.619 107.333C102.616 107.344 102.611 107.354 102.605 107.363C102.598 107.372 102.589 107.38 102.579 107.386C102.569 107.392 102.559 107.395 102.547 107.397C102.536 107.399 102.525 107.398 102.514 107.395C97.7664 106.253 95.088 104.342 92.4816 100.848C92.2992 100.608 92.3616 100.522 92.5728 100.733Z" fill="#263238"/>
<path d="M125.136 98.568C125.136 98.568 120.374 95.6448 118.186 94.1424C115.997 92.64 110.4 87.552 108.226 88.2528C105.792 89.0448 109.186 95.0304 113.083 97.7376C113.083 97.7376 110.683 105.13 114.293 107.904C115.075 108.509 119.986 109.79 121.013 109.306L125.136 98.568Z" fill="#EB9481"/>
<path d="M113.381 98.1504C112.344 100.997 112.128 104.986 113.981 107.366C114.034 107.438 113.942 107.525 113.88 107.462C111.542 105.173 111.749 100.56 112.834 98.0736C113.04 97.5936 113.65 97.44 113.381 98.1504Z" fill="#263238"/>
<path d="M125.136 98.568L117.821 117.6C118.044 118.632 118.578 119.571 119.35 120.292C120.122 121.012 121.096 121.48 122.141 121.632C125.904 122.266 141.216 123.802 146.299 120.528C151.382 117.254 163.814 99.6048 168.379 88.8C172.944 77.9952 163.277 82.344 161.573 83.688C159.869 85.032 139.925 101.386 139.118 101.568C138.312 101.75 132.043 99.0816 129.259 98.4672C126.475 97.8528 125.136 98.568 125.136 98.568Z" fill="#37474F"/>
<path d="M168.384 88.8C163.829 99.6048 151.401 117.254 146.304 120.528C142.67 122.87 133.824 122.75 127.675 122.261L168.912 82.272C169.833 83.112 169.963 85.0368 168.384 88.8Z" fill="#263238"/>
<path d="M194.347 143.568C194.385 143.52 146.827 132.283 146.827 132.283C146.75 132.072 156.744 93.6576 163.325 84.1488C165.557 80.9232 171.816 79.3248 176.765 84.432C190.123 98.2848 194.304 143.616 194.347 143.568Z" fill="#455A64"/>
<path d="M183.322 89.5488C195.802 106.349 204.734 131.736 197.856 136.44C191.136 141.038 171.571 134.842 160.195 124.44C158.362 122.755 169.267 107.64 171.581 108.946C174.811 110.779 178.493 114.317 178.814 114.331C179.506 114.37 174.744 97.7088 173.376 89.4336C171.47 77.8992 178.637 83.2464 183.322 89.5488Z" fill="#EB9481"/>
<path d="M191.827 126.365C191.279 125.324 190.637 124.336 189.907 123.413C189.219 122.47 188.462 121.579 187.642 120.749C184.986 118.158 181.969 115.966 178.685 114.24C178.642 114.24 178.613 114.269 178.651 114.293C179.189 114.643 184.766 118.694 186.946 120.787C187.767 121.597 188.547 122.448 189.283 123.336C189.71 123.816 190.133 124.344 190.536 124.867C190.939 125.39 191.309 125.933 191.726 126.437C191.736 126.45 191.75 126.459 191.767 126.462C191.783 126.465 191.8 126.461 191.813 126.451C191.826 126.442 191.835 126.427 191.838 126.411C191.841 126.395 191.837 126.378 191.827 126.365Z" fill="#263238"/>
<path d="M172.824 109.709C172.824 109.709 167.194 104.602 163.354 101.434C161.213 99.6672 157.272 96.9648 155.102 96.3888C151.862 95.5248 137.755 93.9888 137.304 97.392C136.901 100.483 141.73 100.234 141.73 100.234C141.73 100.234 136.45 100.008 136.963 103.195C137.477 106.382 143.77 105.48 143.77 105.48C143.77 105.48 138.154 104.851 139.056 108.197C139.838 111.106 147.163 110.813 147.163 110.813C147.163 110.813 141.341 109.502 141.85 112.56C142.411 115.92 153.456 116.88 153.456 116.88C157.253 122.16 161.078 125.563 164.256 127.363C165.014 127.79 172.824 109.709 172.824 109.709Z" fill="#EB9481"/>
<path d="M142.08 105.485L143.563 105.341C144.519 105.225 145.48 105.165 146.443 105.163C147.403 105.163 148.325 105.235 149.27 105.322C150.216 105.408 151.253 105.6 152.246 105.667C152.255 105.665 152.264 105.664 152.273 105.666C152.282 105.667 152.29 105.671 152.297 105.676C152.304 105.682 152.31 105.689 152.314 105.697C152.318 105.705 152.32 105.713 152.32 105.722C152.32 105.731 152.318 105.74 152.314 105.748C152.31 105.756 152.304 105.763 152.297 105.769C152.29 105.774 152.282 105.778 152.273 105.779C152.264 105.781 152.255 105.78 152.246 105.778C151.263 105.703 150.275 105.684 149.289 105.72C148.329 105.72 147.369 105.72 146.409 105.754C145.449 105.787 144.523 105.72 143.582 105.71C143.102 105.71 142.622 105.71 142.171 105.734C141.724 105.773 141.274 105.773 140.827 105.734C140.784 105.734 140.784 105.667 140.827 105.653C141.238 105.554 141.658 105.498 142.08 105.485Z" fill="#263238"/>
<path d="M140.64 100.21C141.446 99.9696 145.075 99.7584 146.011 99.7632C147.815 99.7562 149.614 99.9331 151.382 100.291C151.394 100.295 151.405 100.302 151.412 100.312C151.419 100.322 151.423 100.334 151.423 100.346C151.423 100.359 151.419 100.371 151.412 100.381C151.405 100.391 151.394 100.398 151.382 100.402C149.577 100.402 147.773 100.402 145.968 100.368C145.085 100.368 141.077 100.445 140.654 100.397C140.53 100.387 140.539 100.234 140.64 100.21Z" fill="#263238"/>
<path d="M143.294 110.472C144.972 110.253 146.662 110.144 148.354 110.146C150.077 110.302 151.785 110.588 153.466 111C153.528 111.024 153.518 111.12 153.466 111.11C151.747 110.957 150.034 110.774 148.31 110.702C147.47 110.664 144.11 110.702 143.309 110.616C143.227 110.606 143.227 110.491 143.294 110.472Z" fill="#263238"/>
<path d="M173.669 109.397L161.189 129.322C161.189 129.322 162.672 132.547 165.394 133.93C171.158 136.742 177.319 138.656 183.662 139.603C189.149 140.395 195.442 139.829 198.12 137.568C206.227 130.718 191.611 99.1967 184.56 90.2591C177.509 81.3215 170.818 77.9088 173.366 92.28C175.915 106.651 177.734 112.618 177.734 112.618C177.734 112.618 175.824 109.306 173.669 109.397Z" fill="#37474F"/>
<path d="M165.163 129.917C165.514 129.336 165.821 128.731 166.181 128.16C166.541 127.589 166.886 127.051 167.251 126.504C167.995 125.39 168.744 124.286 169.493 123.182C170.99 120.97 172.507 118.757 174.082 116.597C174.533 115.986 174.981 115.373 175.426 114.758C175.83 114.152 176.277 113.576 176.765 113.035C176.772 113.028 176.782 113.024 176.793 113.023C176.803 113.023 176.813 113.026 176.821 113.033C176.829 113.039 176.835 113.048 176.837 113.058C176.839 113.068 176.837 113.079 176.832 113.088C176.53 113.695 176.184 114.279 175.795 114.835L174.72 116.496C174 117.619 173.267 118.739 172.522 119.856C171.048 122.04 169.565 124.214 168.053 126.37C167.616 126.994 167.174 127.608 166.723 128.222C166.272 128.837 165.763 129.413 165.283 130.018C165.25 130.08 165.12 130.013 165.163 129.917Z" fill="#263238"/>
<path d="M187.373 126.941C187.078 125.799 186.678 124.687 186.177 123.619C185.725 122.542 185.193 121.501 184.584 120.504C182.6 117.373 180.175 114.543 177.384 112.104C177.381 112.1 177.377 112.096 177.373 112.093C177.369 112.09 177.364 112.089 177.358 112.088C177.353 112.088 177.348 112.089 177.343 112.09C177.338 112.092 177.334 112.095 177.33 112.099C177.327 112.103 177.324 112.108 177.323 112.113C177.322 112.118 177.321 112.123 177.322 112.128C177.323 112.133 177.326 112.138 177.329 112.142C177.332 112.146 177.336 112.15 177.341 112.152C177.782 112.632 182.28 117.84 183.921 120.379C184.545 121.339 185.078 122.371 185.606 123.398C185.909 123.984 186.201 124.574 186.475 125.174C186.749 125.774 186.955 126.384 187.267 126.974C187.291 127.037 187.392 127.008 187.373 126.941Z" fill="#263238"/>
<path d="M173.15 109.982C173.289 109.685 173.475 109.413 173.702 109.176C173.933 109.214 175.742 108.84 177.461 112.085C177.149 111.149 176.981 110.448 176.722 109.493C176.453 108.446 176.19 107.397 175.934 106.344C175.526 104.669 175.133 102.984 174.797 101.285C174.418 100.421 174.091 99.5376 173.77 98.6544C173.766 98.6474 173.766 98.6394 173.769 98.6322C173.772 98.625 173.777 98.6192 173.784 98.616C173.791 98.6128 173.799 98.6126 173.806 98.6153C173.813 98.618 173.819 98.6234 173.822 98.6304C174.101 99.24 174.384 99.8544 174.643 100.474C174.614 100.315 174.581 100.157 174.552 99.9936C174.341 98.7792 174.125 97.56 173.966 96.336C173.969 96.3287 173.974 96.3223 173.981 96.3178C173.987 96.3134 173.995 96.311 174.002 96.311C174.01 96.311 174.018 96.3134 174.024 96.3178C174.031 96.3223 174.036 96.3287 174.038 96.336C175.099 100.522 175.91 104.765 176.918 108.965C177.202 110.15 177.773 112.69 177.763 112.69C177.031 111.792 176.229 110.954 175.363 110.184C174.905 109.834 174.365 109.607 173.794 109.526C173.606 109.686 173.434 109.862 173.28 110.054C173.213 110.093 173.122 110.05 173.15 109.982Z" fill="#263238"/>
<path d="M162.662 126.691C162.782 126.547 162.893 126.638 162.787 126.792C162.23 127.608 161.779 128.41 161.275 129.216C162.662 131.16 163.325 132.845 166.594 134.323C173.093 137.256 181.042 139.56 188.098 139.666C191.281 139.692 194.444 139.153 197.438 138.072C197.477 138.072 197.472 138.134 197.438 138.13C197.405 138.125 193.93 140.261 188.232 140.419C183.941 140.539 173.266 138.744 166.099 134.962C163.085 133.373 161.851 131.496 160.699 129.394C161.286 128.446 161.942 127.542 162.662 126.691Z" fill="#263238"/>
<path d="M173.52 83.0928C173.15 83.9184 167.947 88.6992 164.049 87.7488C162.777 87.432 164.179 80.4288 164.179 80.4288V79.8912L163.977 72.3216L174.936 68.04C174.936 68.04 173.669 82.7472 173.52 83.0928Z" fill="#EB9481"/>
<path d="M163.958 72.3216L164.165 79.8864V80.4336C164.165 80.4336 163.91 81.7008 163.718 83.1792C169.233 83.4288 172.478 79.8816 174.096 77.3136C174.48 73.0704 174.902 68.04 174.902 68.04L163.958 72.3216Z" fill="#263238"/>
<path d="M153.533 58.4448C148.209 73.7664 156.782 78.6864 160.089 79.8336C163.089 80.8704 173.438 84.0288 180.317 69.3408C187.195 54.6528 181.757 47.3328 175.037 44.592C168.317 41.8512 158.88 43.1232 153.533 58.4448Z" fill="#EB9481"/>
<path d="M158.102 70.3775C158.363 71.0646 158.796 71.673 159.36 72.144C159.677 72.3905 160.063 72.5315 160.464 72.5471C161.342 72.5759 161.582 71.8319 161.621 71.1503C161.638 70.787 161.612 70.4229 161.544 70.0656C160.459 70.5323 159.254 70.6415 158.102 70.3775Z" fill="#263238"/>
<path d="M159.36 72.144C159.677 72.3905 160.063 72.5315 160.464 72.5472C161.342 72.576 161.582 71.832 161.621 71.1504C160.737 70.9824 159.696 71.3184 159.36 72.144Z" fill="#FF9CBD"/>
<path d="M156.96 61.3488C155.323 60.8256 154.401 64.1376 155.918 64.6224C157.435 65.1072 158.314 61.7856 156.96 61.3488Z" fill="#263238"/>
<path d="M155.942 59.8944C156.314 59.9367 156.687 59.9575 157.061 59.9568C157.451 60.0344 157.855 59.9821 158.213 59.808C158.315 59.7308 158.388 59.6221 158.422 59.4989C158.456 59.3757 158.448 59.2447 158.4 59.1264C158.267 58.9084 158.079 58.7295 157.855 58.6081C157.631 58.4866 157.378 58.427 157.123 58.4352C156.605 58.3735 156.082 58.5051 155.654 58.8048C155.562 58.88 155.494 58.9801 155.457 59.0931C155.421 59.2062 155.417 59.3273 155.448 59.4422C155.478 59.5571 155.541 59.6608 155.629 59.741C155.716 59.8211 155.825 59.8744 155.942 59.8944Z" fill="#263238"/>
<path d="M166.526 62.136C166.171 61.992 165.869 61.8 165.528 61.6224C165.153 61.4929 164.83 61.2432 164.611 60.912C164.562 60.7937 164.554 60.6625 164.588 60.5391C164.622 60.4157 164.696 60.3071 164.798 60.2304C165.021 60.1112 165.272 60.0529 165.525 60.0613C165.778 60.0698 166.024 60.1446 166.238 60.2784C166.716 60.487 167.099 60.8649 167.314 61.3392C167.356 61.4496 167.366 61.5698 167.342 61.6856C167.318 61.8014 167.26 61.9077 167.177 61.9918C167.094 62.0759 166.989 62.1343 166.873 62.1599C166.758 62.1854 166.637 62.1772 166.526 62.136Z" fill="#263238"/>
<path d="M161.549 73.0224C161.237 73.224 160.906 73.5024 160.507 73.4688C160.106 73.3782 159.728 73.2049 159.398 72.96C159.392 72.9557 159.384 72.9536 159.376 72.9539C159.368 72.9542 159.361 72.9568 159.354 72.9615C159.348 72.9662 159.344 72.9727 159.341 72.9802C159.339 72.9876 159.338 72.9957 159.341 73.0032C159.451 73.2478 159.626 73.4579 159.847 73.6109C160.068 73.7639 160.326 73.8541 160.594 73.872C160.826 73.8613 161.049 73.7816 161.235 73.643C161.422 73.5045 161.563 73.3134 161.64 73.0944C161.674 73.032 161.592 72.9936 161.549 73.0224Z" fill="#263238"/>
<path d="M158.117 67.9728C158.117 67.9728 157.469 69.5088 157.267 70.2624C157.267 70.3344 157.426 70.416 157.675 70.4976C157.675 70.4976 157.675 70.4976 157.704 70.4976C158.319 70.7902 159.004 70.907 159.682 70.835C160.359 70.763 161.004 70.505 161.544 70.0896C161.556 70.0766 161.564 70.06 161.566 70.0422C161.568 70.0245 161.564 70.0066 161.554 69.9914C161.545 69.9762 161.531 69.9644 161.514 69.9578C161.498 69.9513 161.48 69.9504 161.462 69.9552C160.328 70.352 159.096 70.3739 157.949 70.0176C157.949 69.7968 159.149 67.3968 159.024 67.3872C158.501 67.3344 157.584 67.3248 157.214 67.3152C157.613 66.3072 158.88 63.5088 159.614 61.6704C159.658 61.5552 159.485 61.4736 159.427 61.5696C158.246 63.5593 157.198 65.6245 156.288 67.752C156.187 67.9296 157.781 68.0208 158.117 67.9728Z" fill="#263238"/>
<path d="M164.683 63.2976C166.363 63.6432 165.547 66.984 163.987 66.6576C162.427 66.3312 163.272 63.0048 164.683 63.2976Z" fill="#263238"/>
<path d="M179.582 70.4448C175.114 69.912 173.822 64.2048 175.651 60.1824C175.651 60.1824 163.651 59.5056 164.861 49.9824C163.793 51.1025 162.466 51.9418 160.997 52.4258C159.527 52.9097 157.961 53.0234 156.437 52.7568L154.464 55.9776C153.326 55.4016 152.698 51.7392 156.154 49.6176C156.154 49.6176 157.248 44.9616 161.242 42.8064C162.33 42.1766 163.577 41.8747 164.833 41.9369C166.089 41.999 167.301 42.4226 168.322 43.1568C170.644 42.0683 173.298 41.9254 175.723 42.7584C179.938 44.16 180.96 48.4128 180.96 48.4128C180.96 48.4128 186.557 50.6304 186.763 54.9456C186.845 56.168 186.669 57.3939 186.246 58.5435C185.822 59.6932 185.161 60.7406 184.306 61.6176C184.306 61.6176 185.453 63.5376 184.042 66.8976C183.139 69.072 180.922 70.6032 179.582 70.4448Z" fill="#263238"/>
<path d="M165.278 49.1952C165.041 49.9417 164.88 50.7105 164.798 51.4896C164.705 52.2547 164.705 53.0284 164.798 53.7936C164.971 55.3084 165.712 56.7012 166.872 57.6912C167.981 58.7424 169.522 59.1696 170.986 59.6112C171.749 59.7312 172.512 59.9088 173.29 59.9856C174.067 60.0624 174.845 60.1056 175.632 60.192C174.85 60.2304 174.058 60.2352 173.266 60.2592C172.474 60.2832 171.691 60.1008 170.899 60.024C169.363 59.6688 167.755 59.2272 166.512 58.104C165.269 57.0164 164.504 55.4837 164.381 53.8368C164.286 52.2388 164.595 50.6427 165.278 49.1952Z" fill="#263238"/>
<path d="M158.198 53.4864C159.566 53.296 160.891 52.8774 162.12 52.248C162.719 51.9342 163.273 51.5402 163.766 51.0768C164.267 50.5974 164.711 50.0627 165.091 49.4832C164.889 50.1767 164.542 50.8196 164.073 51.3696C163.607 51.9322 163.032 52.3958 162.384 52.7328C161.742 53.0748 161.05 53.313 160.334 53.4384C159.63 53.5718 158.908 53.588 158.198 53.4864Z" fill="#263238"/>
<path d="M176.918 69.7392C176.918 69.7392 181.589 65.7024 183.509 67.488C185.429 69.2736 181.042 75.7392 178.181 76.0512C177.817 76.116 177.443 76.1065 177.082 76.0233C176.722 75.9402 176.382 75.785 176.083 75.5671C175.784 75.3492 175.532 75.0731 175.342 74.7554C175.153 74.4377 175.029 74.085 174.979 73.7184L176.918 69.7392Z" fill="#EB9481"/>
<path d="M182.208 69.312C182.251 69.312 182.241 69.3792 182.208 69.384C180.187 69.6624 178.79 71.1168 177.667 72.7104C178.382 72.168 179.222 71.9856 179.966 72.864C180.005 72.912 179.942 72.9744 179.889 72.9504C179.593 72.766 179.247 72.6781 178.899 72.6987C178.551 72.7193 178.218 72.8475 177.945 73.0656C177.492 73.433 177.081 73.8482 176.717 74.304C176.587 74.4432 176.313 74.28 176.424 74.1072L176.453 74.0688C176.99 71.7216 179.635 68.9088 182.208 69.312Z" fill="#263238"/>
<path d="M146.15 101.875C146.05 112.358 143.789 151.056 134.237 161.962C127.8 169.31 108.797 178.526 101.597 180.254C98.0881 181.094 87.3408 151.526 90.8592 149.947C94.6992 148.224 113.347 142.546 115.512 140.64C117.677 138.734 127.699 114.667 135.058 101.702C139.454 93.936 146.208 96 146.15 101.875Z" fill="#AD6359"/>
<path d="M102.816 179.635C97.3104 182.803 75.3504 187.541 70.9248 187.795C66.4992 188.05 53.7216 187.877 53.1648 184.512C52.608 181.147 56.3712 180.898 56.3712 180.898C56.3712 180.898 50.4576 179.962 50.7456 176.53C50.976 173.789 56.2272 173.17 56.2272 173.17C56.2272 173.17 49.8048 171.806 50.5248 168.437C51.1824 165.365 57.0192 166.118 57.0192 166.118C57.0192 166.118 51.7392 164.434 52.9632 161.597C54.4032 158.184 63.5232 161.117 68.3712 160.445C69.4752 160.296 93.6624 149.093 93.6624 149.093L102.816 179.635Z" fill="#AD6359"/>
<path d="M56.9088 165.845C63.9504 167.333 66.9072 167.741 73.5984 165.994C73.728 165.955 73.8096 166.142 73.6752 166.19C67.2768 168.504 63.7344 168.269 56.7888 166.166C56.4528 166.08 56.5824 165.778 56.9088 165.845Z" fill="#263238"/>
<path d="M56.2849 173.107C63.4321 174.706 66.9313 174.336 74.0737 173.016C74.1745 173.016 74.2177 173.165 74.1169 173.194C67.2145 175.075 63.1105 175.862 56.1745 173.328C55.8625 173.213 55.9585 173.035 56.2849 173.107Z" fill="#263238"/>
<path d="M56.7408 180.835C63.7728 181.882 67.7088 181.795 74.5008 179.645C74.5169 179.638 74.5341 179.635 74.5513 179.636C74.5686 179.636 74.5856 179.64 74.6014 179.647C74.6173 179.654 74.6316 179.664 74.6436 179.676C74.6555 179.688 74.6649 179.703 74.6712 179.719C74.6775 179.735 74.6806 179.752 74.6803 179.77C74.68 179.787 74.6762 179.804 74.6693 179.82C74.6624 179.836 74.6525 179.85 74.64 179.862C74.6276 179.874 74.6129 179.883 74.5968 179.89C67.9056 182.77 63 182.894 56.7552 181.051C56.304 180.926 56.2944 180.768 56.7408 180.835Z" fill="#263238"/>
<path d="M93.6768 149.088C93.6768 149.088 85.3776 149.861 81.4176 150.048C77.4576 150.235 66.216 149.155 64.2576 151.934C62.0544 155.059 71.4576 159.158 78.5424 158.909C78.5424 158.909 82.3008 169.886 89.1024 169.949C90.576 169.949 97.5888 167.102 98.3712 165.605L93.6768 149.088Z" fill="#AD6359"/>
<path d="M79.2721 159.12C80.5825 163.44 83.8945 168.398 88.2385 169.584C88.2517 169.586 88.2644 169.591 88.2758 169.598C88.2872 169.605 88.297 169.614 88.3048 169.625C88.3126 169.636 88.3182 169.649 88.3212 169.662C88.3243 169.675 88.3247 169.688 88.3225 169.702C88.3203 169.715 88.3155 169.727 88.3084 169.739C88.3013 169.75 88.292 169.76 88.2811 169.768C88.2702 169.776 88.2578 169.781 88.2447 169.784C88.2317 169.787 88.2181 169.788 88.2049 169.786C83.3665 169.147 79.4833 163.454 78.5473 159.518C78.3649 158.76 78.9313 158.002 79.2721 159.12Z" fill="#263238"/>
<path d="M106.502 142.848L116.789 175.44C116.789 175.44 130.781 169.032 135.734 161.486C140.688 153.941 146.952 122.342 146.621 104.846C146.29 87.3504 135.754 99.1296 134.242 102C132.73 104.87 115.435 139.243 114.437 139.982C113.438 140.722 106.502 142.848 106.502 142.848Z" fill="#C2C7D6"/>
<path d="M129.912 136.003C129.553 135.2 129.084 134.451 128.52 133.776C128.654 134.644 128.915 135.489 129.293 136.282C129.648 137.088 130.117 137.84 130.685 138.514C130.547 137.644 130.287 136.799 129.912 136.003ZM117.49 161.923C117.136 161.118 116.667 160.367 116.098 159.696C116.401 161.436 117.149 163.067 118.267 164.434C118.132 163.565 117.87 162.721 117.49 161.928V161.923ZM138.874 124.037C138.071 124.398 137.321 124.868 136.646 125.434C138.385 125.131 140.016 124.384 141.379 123.264C140.511 123.403 139.668 123.665 138.874 124.042V124.037ZM117.422 135.13L117.134 135.274C116.971 135.594 116.811 135.891 116.654 136.166C117.01 136.042 117.36 135.902 117.701 135.749C118.508 135.394 119.259 134.925 119.933 134.357C119.063 134.494 118.217 134.756 117.422 135.134V135.13ZM132.638 153.37C131.834 153.732 131.084 154.202 130.406 154.766C131.276 154.627 132.121 154.365 132.917 153.989C133.723 153.635 134.473 153.166 135.144 152.597C134.276 152.735 133.432 152.999 132.638 153.379V153.37ZM142.282 99.0048C141.474 99.3645 140.723 99.8381 140.05 100.411C140.923 100.271 141.772 100.006 142.57 99.624C143.373 99.2713 144.12 98.8023 144.787 98.232C143.919 98.3719 143.075 98.6354 142.282 99.0144V99.0048ZM129.854 110.587C129.76 110.985 129.697 111.389 129.667 111.797C130.188 111.084 130.605 110.3 130.906 109.469C131.139 108.837 131.312 108.184 131.424 107.52L129.854 110.587ZM120.408 147.888C120.089 148.706 119.893 149.566 119.827 150.442C120.342 149.729 120.754 148.946 121.051 148.118C121.369 147.299 121.565 146.437 121.632 145.56C121.117 146.275 120.705 147.059 120.408 147.888ZM109.603 152.688L109.79 153.274C110.107 153.341 110.428 153.386 110.75 153.408C110.393 153.127 110.008 152.881 109.603 152.674V152.688ZM124.363 121.574L124.277 121.546C124.171 121.747 124.07 121.949 123.97 122.15L124.123 122.218C124.948 122.53 125.812 122.725 126.691 122.798C125.977 122.278 125.194 121.862 124.363 121.56V121.574ZM141.264 139.531C141.641 139.821 142.046 140.072 142.474 140.28C142.517 140.102 142.55 139.925 142.589 139.747C142.154 139.633 141.711 139.556 141.264 139.517V139.531Z" fill="white"/>
<path d="M98.136 143.05L106.349 140.626L117.562 177.494L109.858 180.365L98.136 143.05Z" fill="#C2C7D6"/>
<path d="M112.344 158.938C113.064 161.498 113.771 164.067 114.466 166.646C115.157 169.205 115.944 171.782 116.458 174.384C116.46 174.407 116.455 174.43 116.443 174.45C116.43 174.469 116.411 174.484 116.389 174.491C116.367 174.499 116.344 174.498 116.322 174.49C116.3 174.482 116.282 174.466 116.27 174.446C115.354 172.046 114.667 169.531 113.914 167.078C113.114 164.477 112.326 161.869 111.552 159.254C110.011 154.09 108.672 148.886 107.4 143.654C107.366 143.525 107.539 143.496 107.578 143.616C109.277 148.694 110.88 153.778 112.344 158.938Z" fill="#263238"/>
<path opacity="0.1" d="M135.734 161.486C130.781 169.032 116.789 175.44 116.789 175.44L112.574 162.091L133.536 103.368C133.872 102.71 134.112 102.24 134.242 101.995C135.754 99.1152 146.29 87.336 146.621 104.842C146.952 122.347 140.688 153.941 135.734 161.486Z" fill="black"/>
<path d="M121.157 187.81C122.362 189.101 188.131 168.898 188.131 168.898C189.197 167.578 176.794 110.15 159.221 96.4896C155.443 93.5568 142.123 94.5696 140.314 95.6592C136.123 98.1408 132.394 103.032 129.667 111.758C124.205 129.221 120.106 186.677 121.157 187.81Z" fill="#C2C7D6"/>
<path d="M143.822 140.112C143.001 139.797 142.14 139.597 141.264 139.517C141.969 140.039 142.749 140.451 143.578 140.741C144.402 141.056 145.266 141.257 146.146 141.336C145.435 140.817 144.652 140.404 143.822 140.112ZM164.026 115.829C163.205 115.516 162.346 115.316 161.472 115.234C162.176 115.758 162.956 116.171 163.786 116.458C164.61 116.773 165.474 116.973 166.354 117.053C165.641 116.534 164.857 116.122 164.026 115.829ZM157.555 168.96C156.731 168.644 155.867 168.449 154.987 168.379C155.698 168.899 156.48 169.311 157.31 169.603C158.135 169.919 158.999 170.119 159.878 170.198C159.166 169.679 158.384 169.262 157.555 168.96ZM174.878 146.76C174.059 146.441 173.197 146.244 172.32 146.174C173.033 146.693 173.817 147.105 174.648 147.398C175.467 147.716 176.327 147.916 177.202 147.994C176.492 147.473 175.709 147.06 174.878 146.77V146.76ZM133.118 168.96C132.299 168.646 131.439 168.45 130.565 168.379C131.272 168.898 132.051 169.311 132.878 169.603C133.703 169.92 134.567 170.12 135.446 170.198C134.738 169.678 133.959 169.261 133.133 168.96H133.118ZM174.173 172.891C174.144 172.978 174.11 173.064 174.082 173.155L174.874 172.915C175.155 172.159 175.331 171.367 175.397 170.563C174.884 171.281 174.477 172.068 174.187 172.901L174.173 172.891ZM145.584 158.602C145.266 159.421 145.071 160.283 145.003 161.16C145.521 160.447 145.933 159.663 146.227 158.832C146.54 158.012 146.735 157.153 146.808 156.278C146.296 156.993 145.884 157.775 145.584 158.602ZM154.666 128.99C154.348 129.813 154.152 130.679 154.085 131.558C154.597 130.844 155.009 130.062 155.309 129.235C155.623 128.414 155.819 127.553 155.89 126.677C155.377 127.388 154.965 128.166 154.666 128.99ZM159.293 101.842C158.976 102.665 158.78 103.53 158.712 104.41C159.225 103.693 159.637 102.91 159.936 102.082C160.252 101.263 160.448 100.403 160.517 99.528C160.005 100.239 159.593 101.018 159.293 101.842ZM131.381 107.069C130.776 108.485 130.21 110.03 129.677 111.725C129.674 111.752 129.674 111.779 129.677 111.806C130.198 111.093 130.615 110.309 130.915 109.478C131.227 108.654 131.423 107.789 131.496 106.91C131.454 106.961 131.416 107.014 131.381 107.069ZM142.282 99.0144C141.474 99.3741 140.722 99.8477 140.05 100.421C140.923 100.28 141.772 100.015 142.57 99.6336C143.373 99.2809 144.12 98.8119 144.787 98.2416C143.919 98.3784 143.076 98.6387 142.282 99.0144ZM165.802 158.362C164.996 158.716 164.246 159.185 163.574 159.754C164.444 159.62 165.288 159.358 166.08 158.976C166.886 158.622 167.636 158.153 168.307 157.584C167.444 157.723 166.605 157.985 165.816 158.362H165.802ZM132.624 153.379C131.82 153.741 131.069 154.211 130.392 154.776C131.261 154.637 132.106 154.375 132.902 153.998C133.708 153.644 134.458 153.175 135.13 152.606C134.266 152.743 133.427 153.004 132.638 153.379H132.624ZM125.386 179.962C124.582 180.324 123.831 180.794 123.154 181.358C124.023 181.219 124.868 180.957 125.664 180.581C126.47 180.227 127.22 179.758 127.891 179.189C127.028 179.326 126.189 179.586 125.4 179.962H125.386ZM138.859 124.042C138.056 124.403 137.307 124.873 136.632 125.438C138.37 125.136 140.001 124.389 141.365 123.269C140.502 123.408 139.663 123.668 138.874 124.042H138.859ZM172.728 132.413C172.37 131.609 171.902 130.859 171.336 130.186C171.476 131.053 171.738 131.897 172.114 132.691C172.468 133.497 172.937 134.247 173.506 134.918C173.375 134.05 173.117 133.206 172.742 132.413H172.728ZM129.898 136.003C129.538 135.2 129.07 134.451 128.506 133.776C128.64 134.644 128.9 135.489 129.278 136.282C129.633 137.088 130.102 137.84 130.67 138.514C130.537 137.645 130.282 136.8 129.912 136.003H129.898ZM146.942 179.04C146.583 178.237 146.115 177.488 145.55 176.813C145.684 177.681 145.945 178.525 146.323 179.318C146.605 179.943 146.947 180.538 147.346 181.094L147.619 181.013C147.461 180.334 147.234 179.673 146.942 179.04ZM182.179 160.046C181.819 159.247 181.351 158.501 180.787 157.829C180.926 158.698 181.188 159.543 181.565 160.339C181.919 161.145 182.388 161.895 182.957 162.566C182.82 161.696 182.558 160.851 182.179 160.056V160.046ZM160.541 144.883C160.18 144.086 159.711 143.341 159.149 142.67C159.287 143.538 159.547 144.381 159.922 145.176C160.277 145.982 160.748 146.732 161.318 147.403C161.177 146.534 160.916 145.689 160.541 144.893V144.883ZM148.32 113.635C147.966 112.83 147.497 112.079 146.928 111.408C147.061 112.277 147.324 113.122 147.706 113.914C148.064 114.718 148.533 115.47 149.098 116.146C148.965 115.275 148.703 114.428 148.32 113.635Z" fill="white"/>
<path d="M153.072 106.469C154.872 112.762 172.57 158.362 172.541 160.742C172.541 160.742 195.658 175.829 199.944 160.829C202.728 151.075 175.92 110.933 162.778 99.0384C156.739 93.6 149.304 93.264 153.072 106.469Z" fill="#D3766A"/>
<path d="M153.072 106.469C154.872 112.762 172.57 158.362 172.541 160.742C172.541 160.742 195.658 175.829 199.944 160.829C202.728 151.075 175.92 110.933 162.778 99.0384C156.739 93.6 149.304 93.264 153.072 106.469Z" fill="#C2C7D6"/>
<path d="M164.026 115.829C163.205 115.516 162.346 115.316 161.472 115.234C162.175 115.758 162.956 116.171 163.786 116.458C164.61 116.773 165.474 116.973 166.354 117.053C165.641 116.534 164.857 116.122 164.026 115.829ZM197.971 161.65C197.151 161.335 196.292 161.135 195.418 161.054C196.122 161.578 196.902 161.991 197.731 162.278C198.221 162.455 198.721 162.603 199.229 162.72C199.296 162.586 199.358 162.446 199.416 162.302C198.95 162.052 198.467 161.834 197.971 161.65ZM174.878 146.77C174.059 146.451 173.197 146.254 172.32 146.184C173.033 146.702 173.817 147.115 174.648 147.408C175.467 147.725 176.327 147.926 177.202 148.003C176.493 147.479 175.71 147.063 174.878 146.77ZM187.013 136.886C186.694 137.709 186.498 138.574 186.432 139.454C186.943 138.737 187.355 137.954 187.656 137.126C187.97 136.307 188.165 135.447 188.237 134.573C187.722 135.283 187.31 136.061 187.013 136.886ZM159.293 101.846C158.976 102.67 158.78 103.535 158.712 104.414C159.225 103.698 159.637 102.915 159.936 102.086C160.252 101.268 160.448 100.408 160.517 99.5328C160.005 100.243 159.593 101.02 159.293 101.842V101.846ZM180.317 120.206C180.125 120.278 179.938 120.36 179.75 120.442C178.947 120.801 178.198 121.269 177.523 121.834C178.392 121.699 179.236 121.439 180.029 121.061C180.25 120.955 180.47 120.845 180.686 120.73L180.317 120.206ZM194.208 149.712C193.404 150.072 192.653 150.541 191.976 151.104C192.846 150.971 193.692 150.71 194.486 150.331C195.292 149.977 196.042 149.508 196.714 148.939C195.846 149.075 195.002 149.333 194.208 149.707V149.712ZM172.742 132.432C172.385 131.628 171.916 130.878 171.35 130.205C171.49 131.072 171.752 131.916 172.128 132.71C172.482 133.516 172.951 134.266 173.52 134.938C173.386 134.062 173.124 133.212 172.742 132.413V132.432ZM182.179 160.075C181.819 159.276 181.351 158.529 180.787 157.858C180.926 158.727 181.188 159.572 181.565 160.368C181.919 161.174 182.388 161.924 182.957 162.595C182.823 161.715 182.561 160.86 182.179 160.056V160.075Z" fill="white"/>
<path d="M161.563 130.661C160.632 129.134 159.782 127.546 158.952 125.971C158.948 125.959 158.949 125.946 158.953 125.934C158.958 125.921 158.966 125.911 158.977 125.905C158.988 125.898 159.001 125.895 159.014 125.897C159.027 125.899 159.039 125.904 159.048 125.914C159.73 126.989 160.416 128.074 161.069 129.178C160.973 128.885 160.867 128.592 160.776 128.299C160.066 126.062 159.336 123.826 158.741 121.579C158.74 121.563 158.745 121.547 158.754 121.534C158.764 121.521 158.777 121.512 158.793 121.507C158.808 121.503 158.825 121.504 158.84 121.51C158.855 121.516 158.867 121.527 158.875 121.541C161.938 129.149 169.402 150.413 169.378 150.422C169.354 150.432 169.651 151.546 168.941 150.067C168.427 148.987 162.619 133.766 161.563 130.661Z" fill="#263238"/>
<path d="M161.117 185.827C150.619 190.555 138.686 194.165 126.912 191.741C125.595 191.502 124.398 190.825 123.514 189.821C118.234 188.827 117.096 186.029 117.096 186.029C112.445 183.595 111.691 180.571 111.691 180.571C111.691 180.571 105.485 179.338 105.61 175.464C105.734 171.12 114.422 173.702 120.072 172.2C133.032 168.758 150.446 160.248 154.08 158.885L161.117 185.827Z" fill="#AD6359"/>
<path d="M136.171 178.133C132.331 179.093 128.602 180.091 124.651 180.504C120.331 180.96 116.098 180.672 111.782 180.504C111.759 180.509 111.738 180.522 111.723 180.541C111.707 180.56 111.699 180.583 111.699 180.607C111.699 180.631 111.707 180.655 111.723 180.673C111.738 180.692 111.759 180.705 111.782 180.71C119.544 182.285 128.87 181.234 136.219 178.31C136.392 178.238 136.363 178.08 136.171 178.133Z" fill="#263238"/>
<path d="M139.382 185.645C135.605 186.35 128.962 187.565 117.11 185.914C117.072 185.914 117.053 185.971 117.11 185.981C124.666 188.064 131.942 187.901 139.435 185.822C139.646 185.76 139.632 185.597 139.382 185.645Z" fill="#263238"/>
<path d="M141.034 189.71C134.568 190.67 130.368 190.45 123.542 189.806C123.504 189.806 123.485 189.869 123.542 189.878C131.222 191.419 134.184 191.112 141.11 189.926C141.336 189.888 141.283 189.672 141.034 189.71Z" fill="#263238"/>
<path d="M135.403 167.078C136.91 165.96 136.334 165.158 133.003 165.062C129.672 164.966 116.395 167.41 115.934 162.706C115.474 158.002 134.251 154.829 139.79 155.414C145.33 156 154.08 158.88 154.08 158.88C150.547 160.243 142.296 164.338 135.403 167.078Z" fill="#AD6359"/>
<path d="M122.141 171.629C121.076 171.949 119.988 172.188 118.886 172.344C117.783 172.451 116.674 172.492 115.565 172.469C114.446 172.469 113.333 172.469 112.205 172.493C111.077 172.517 109.987 172.522 108.845 172.618C108.265 172.673 107.694 172.807 107.15 173.016C106.58 173.226 106.073 173.578 105.677 174.038C105.483 174.285 105.34 174.568 105.258 174.87C105.175 175.173 105.155 175.489 105.197 175.8C105.284 176.395 105.515 176.96 105.869 177.446C106.541 178.389 107.437 179.149 108.475 179.659C109.489 180.168 110.578 180.511 111.701 180.677L111.624 180.6C111.73 180.98 111.892 181.342 112.104 181.675C112.308 182.005 112.548 182.31 112.819 182.587C112.58 182.288 112.371 181.967 112.195 181.627C112.017 181.295 111.888 180.94 111.811 180.571V180.509H111.744C110.669 180.269 109.634 179.879 108.667 179.352C107.719 178.826 106.906 178.084 106.296 177.187C105.992 176.761 105.798 176.266 105.73 175.747C105.7 175.505 105.721 175.259 105.791 175.025C105.861 174.791 105.979 174.575 106.138 174.389C106.79 173.621 107.899 173.318 108.95 173.174C111.134 172.992 113.39 173.002 115.608 172.886C116.733 172.868 117.855 172.775 118.968 172.608C120.052 172.375 121.114 172.047 122.141 171.629Z" fill="#263238"/>
<path d="M154.262 158.602C151.291 160.795 148.171 188.549 153.518 187.579C178.666 183.019 195.374 168.49 198.341 164.4C202.234 159.038 198.912 151.44 195.082 149.429C189.528 146.482 157.205 156.432 154.262 158.602Z" fill="#AD6359"/>
<path d="M170.275 152.64L179.846 180.106C179.846 180.106 200.006 168.797 200.165 160.118C200.323 151.44 196.656 147.96 189.072 148.709C181.488 149.458 170.275 152.64 170.275 152.64Z" fill="#C2C7D6"/>
<path d="M182.179 160.056C182.559 160.854 182.821 161.703 182.957 162.576C182.388 161.905 181.919 161.154 181.565 160.349C181.188 159.553 180.926 158.708 180.787 157.838C181.351 158.51 181.819 159.256 182.179 160.056Z" fill="#C2C7D6"/>
<path d="M189.269 171.36C190.062 170.981 190.906 170.719 191.774 170.582C190.41 171.703 188.777 172.451 187.037 172.752C187.711 172.184 188.462 171.715 189.269 171.36Z" fill="#C2C7D6"/>
<path d="M195.797 149.621C195.375 149.882 194.937 150.118 194.486 150.326C193.692 150.705 192.846 150.966 191.976 151.099C192.653 150.536 193.404 150.068 194.208 149.707C194.52 149.568 194.837 149.438 195.168 149.328C195.383 149.413 195.593 149.511 195.797 149.621Z" fill="#C2C7D6"/>
<path d="M199.68 162.456C199.644 162.567 199.602 162.676 199.555 162.782C198.933 162.664 198.321 162.496 197.726 162.278C196.897 161.991 196.117 161.578 195.413 161.054C196.287 161.135 197.146 161.335 197.966 161.65C198.561 161.865 199.135 162.135 199.68 162.456Z" fill="#C2C7D6"/>
<path d="M182.179 160.056C181.819 159.256 181.351 158.51 180.787 157.838C180.926 158.708 181.188 159.553 181.565 160.349C181.919 161.154 182.388 161.905 182.957 162.576C182.821 161.703 182.559 160.854 182.179 160.056ZM195.139 149.328C194.818 149.438 194.501 149.568 194.179 149.707C193.375 150.068 192.624 150.536 191.947 151.099C192.817 150.966 193.663 150.705 194.458 150.326C194.908 150.118 195.346 149.882 195.768 149.621C195.57 149.512 195.367 149.414 195.158 149.328H195.139ZM189.269 171.36C188.462 171.715 187.71 172.184 187.037 172.752C188.777 172.451 190.409 171.703 191.774 170.582C190.906 170.719 190.062 170.981 189.269 171.36ZM197.971 161.659C197.151 161.345 196.292 161.145 195.418 161.064C196.122 161.588 196.902 162.001 197.731 162.288C198.326 162.505 198.938 162.674 199.56 162.792C199.607 162.685 199.649 162.576 199.685 162.466C199.14 162.141 198.566 161.868 197.971 161.65V161.659Z" fill="white"/>
<path d="M163.08 152.347L170.395 150.019L181.166 182.827L174.317 185.554L163.08 152.347Z" fill="#C2C7D6"/>
<path d="M176.126 166.301C176.818 168.592 177.501 170.882 178.176 173.17C178.843 175.45 179.616 177.744 180.096 180.062C180.12 180.168 179.971 180.23 179.928 180.125C179.059 177.994 178.397 175.752 177.672 173.568C176.898 171.248 176.139 168.926 175.397 166.603C173.918 162.005 172.613 157.373 171.374 152.707C171.341 152.592 171.494 152.568 171.533 152.674C173.174 157.186 174.72 161.712 176.126 166.301Z" fill="#263238"/>
<path d="M163.949 154.91C163.608 154.075 163.286 153.23 162.96 152.386L162.917 152.27L163.042 152.227C165.442 151.349 167.866 150.518 170.294 149.707L170.587 149.611L170.698 149.904L171.586 152.256L171.168 152.035C174.101 151.234 177.053 150.518 180.034 149.914C181.522 149.611 183.019 149.338 184.526 149.122C186.031 148.887 187.55 148.751 189.072 148.714C187.56 148.901 186.077 149.194 184.594 149.51C183.11 149.827 181.637 150.158 180.163 150.514C177.216 151.21 174.278 151.954 171.35 152.712L171.038 152.789L170.933 152.491L170.093 150.13L170.491 150.326C168.043 151.07 165.59 151.795 163.118 152.467L163.2 152.309C163.454 153.173 163.709 154.037 163.949 154.91Z" fill="#263238"/>
<path d="M140.746 111.36C145.502 111.749 152.328 103.531 154.579 97.3728C154.733 96.9456 153.514 92.928 152.261 87.9696C151.512 84.96 150.749 81.5904 150.278 78.4608C150.182 77.8224 131.395 86.1936 131.395 86.1936C131.395 86.1936 134.314 92.4336 135.106 97.9056C135.167 98.3379 135.187 98.7751 135.163 99.2112C135.163 99.2688 135.163 99.3456 135.163 99.4272C135.139 101.928 136.142 110.981 140.746 111.36Z" fill="#AD6359"/>
<path d="M153.6 93.0768C144.998 97.3968 137.803 94.7808 133.752 92.3376C133.083 90.2482 132.297 88.1985 131.395 86.1984C131.395 86.1984 150.182 77.8272 150.278 78.4656C150.758 81.5952 151.512 84.9648 152.261 87.9744C152.736 89.8608 153.206 91.608 153.6 93.0768Z" fill="#263238"/>
<path d="M116.395 59.7792C115.622 67.1424 123.202 86.5104 129.019 90.0192C137.448 95.1168 149.304 93.4512 153.139 83.7792C156.859 74.3856 146.539 49.3248 140.227 46.3392C130.925 41.9088 117.528 48.9024 116.395 59.7792Z" fill="#AD6359"/>
<path d="M138.72 69.0096C138.691 68.9664 138.643 69.1152 138.662 69.168C139.21 70.4592 139.622 72.048 138.6 72.9168C138.571 72.9456 138.6 73.008 138.643 72.984C139.987 72.2256 139.426 70.1472 138.72 69.0096Z" fill="#263238"/>
<path d="M137.006 68.0976C134.846 68.7504 136.306 73.0272 138.312 72.4176C140.318 71.808 138.821 67.5504 137.006 68.0976Z" fill="#263238"/>
<path d="M146.136 66.1536C146.136 66.096 146.261 66.1776 146.28 66.2352C146.688 67.5744 147.384 69.0384 148.733 69.072C148.776 69.072 148.795 69.1392 148.733 69.1488C147.216 69.4416 146.309 67.488 146.136 66.1536Z" fill="#263238"/>
<path d="M146.847 64.3632C148.925 63.4752 150.552 67.6944 148.627 68.5152C146.703 69.336 145.109 65.1072 146.847 64.3632Z" fill="#263238"/>
<path d="M134.65 66.72C135.149 66.3626 135.63 65.9797 136.09 65.5728C136.646 65.1264 137.131 64.824 137.352 64.1328C137.393 63.9256 137.364 63.7109 137.27 63.5217C137.177 63.3325 137.023 63.1795 136.834 63.0864C135.998 62.736 135.182 63.1152 134.491 63.624C133.779 64.1179 133.277 64.8586 133.08 65.7024C132.878 66.5568 133.949 67.1712 134.65 66.72Z" fill="#263238"/>
<path d="M147.768 61.6415C147.153 61.7213 146.535 61.7678 145.915 61.7808C145.205 61.8288 144.643 61.9391 143.995 61.5647C143.825 61.4396 143.7 61.2617 143.641 61.0586C143.582 60.8555 143.592 60.6386 143.669 60.4415C144.048 59.6207 144.907 59.3472 145.762 59.2608C146.619 59.1388 147.491 59.3426 148.205 59.832C148.963 60.3216 148.594 61.5023 147.768 61.6415Z" fill="#263238"/>
<path d="M140.995 81.36C141.418 81.5616 141.878 81.8784 142.373 81.7584C142.863 81.5788 143.311 81.2993 143.688 80.9376C143.696 80.9314 143.705 80.9277 143.715 80.9271C143.725 80.9266 143.735 80.9291 143.743 80.9344C143.752 80.9396 143.758 80.9474 143.762 80.9565C143.766 80.9657 143.767 80.9759 143.765 80.9856C143.665 81.3112 143.478 81.6035 143.224 81.8309C142.97 82.0584 142.659 82.2125 142.325 82.2768C142.031 82.2973 141.738 82.2309 141.482 82.0858C141.226 81.9406 141.018 81.7232 140.885 81.4608C140.842 81.3936 140.933 81.3312 140.995 81.36Z" fill="#263238"/>
<path d="M141.034 76.9152C141.55 77.3213 142.145 77.6163 142.781 77.7815C143.417 77.9467 144.081 77.9786 144.73 77.8752C145.3 77.7958 145.856 77.6341 146.381 77.3952C146.484 77.3576 146.583 77.311 146.678 77.256L146.952 77.112C147.018 77.0737 147.069 77.015 147.099 76.9449C147.128 76.8747 147.134 76.7969 147.115 76.7232C147.098 76.6766 147.078 76.6317 147.053 76.5888L147.01 76.4736C146.688 75.4464 146.05 73.9248 146.05 73.9248C146.486 73.9872 148.68 74.1936 148.45 73.6704C146.678 69.3504 144.71 64.5504 142.032 60.6096C142.015 60.5828 141.988 60.5634 141.957 60.555C141.927 60.5467 141.894 60.5499 141.865 60.5642C141.837 60.5784 141.815 60.6027 141.803 60.6323C141.791 60.6619 141.791 60.6949 141.802 60.7248C143.342 64.9488 145.608 68.8848 147.221 73.0896C146.534 73.0656 145.402 72.9792 144.869 73.1712C144.739 73.2624 146.141 76.0848 146.246 76.5552C146.246 76.5552 146.246 76.5552 146.246 76.608C144.605 77.4144 143.136 77.3376 141.077 76.752C140.99 76.7136 140.918 76.8384 141.034 76.9152Z" fill="#263238"/>
<path d="M145.598 77.1024C145.29 78.0249 144.747 78.8517 144.024 79.5024C143.617 79.8439 143.114 80.0503 142.584 80.0928C141.427 80.1744 141.072 79.2144 140.981 78.3168C140.937 77.8369 140.949 77.3536 141.019 76.8768C142.482 77.4387 144.087 77.5178 145.598 77.1024Z" fill="#263238"/>
<path d="M144.024 79.4975C143.617 79.8391 143.114 80.0455 142.584 80.0879C141.427 80.1695 141.072 79.2095 140.981 78.3119C142.166 78.0383 143.549 78.4271 144.024 79.4975Z" fill="#FF9CBD"/>
<path d="M120.989 77.016C124.171 80.592 127.406 71.6496 125.539 66.8736C124.162 63.3504 122.914 59.1168 124.766 56.28C127.685 51.8112 134.578 54.1968 136.666 53.0352C139.454 51.4848 139.099 49.5264 140.986 49.0416C142.872 48.5568 145.027 51.4848 145.027 51.4848C145.027 51.4848 140.16 39.9984 125.539 45.6912C109.891 51.792 113.174 68.2272 120.989 77.016Z" fill="#263238"/>
<path d="M125.064 75.7872C125.064 75.7872 119.15 70.296 116.563 72.5424C113.976 74.7888 119.395 83.4288 123.115 83.9664C123.587 84.0694 124.074 84.076 124.549 83.9858C125.023 83.8955 125.474 83.7103 125.875 83.4413C126.276 83.1723 126.618 82.825 126.881 82.4203C127.144 82.0156 127.323 81.5619 127.406 81.0864L125.064 75.7872Z" fill="#AD6359"/>
<path d="M118.176 74.9808C118.123 74.9808 118.128 75.0672 118.176 75.0768C120.802 75.5568 122.554 77.5008 123.936 79.6272C123.024 78.888 121.944 78.6096 120.931 79.7232C120.874 79.7808 120.955 79.8672 121.022 79.8384C121.418 79.6119 121.874 79.5134 122.328 79.5564C122.781 79.5994 123.211 79.7817 123.557 80.0784C124.132 80.5799 124.652 81.1415 125.107 81.7536C125.266 81.9456 125.63 81.7536 125.496 81.5136C125.483 81.4988 125.472 81.4827 125.462 81.4656C124.872 78.3696 121.55 74.5776 118.176 74.9808Z" fill="#263238"/>
<path d="M134.357 102.686C134.357 102.648 134.424 102.643 134.424 102.686C134.544 106.291 135.077 114.619 141.326 113.563C143.842 113.136 146.016 111.523 147.806 109.968C149.611 108.389 151.238 106.619 152.659 104.688C154.285 102.602 155.731 100.381 156.979 98.0496C157.027 97.9536 157.195 98.0496 157.142 98.136C155.87 100.454 154.858 102.835 153.336 105.048C151.88 107.222 150.131 109.185 148.138 110.88C146.218 112.483 143.894 114.11 141.221 114.446C140.103 114.627 138.957 114.434 137.96 113.899C136.962 113.364 136.169 112.516 135.701 111.485C134.434 108.802 134.155 105.562 134.357 102.686Z" fill="#263238"/>
<path d="M48.8592 84.7871C44.5392 94.5599 37.7472 105.562 38.2992 116.616C38.7792 125.28 43.7808 132.936 49.7376 138.917C62.856 152.054 84.6672 161.549 101.842 150.134C108.701 145.57 114.523 132.792 109.042 125.174C106.214 121.262 101.947 118.958 98.136 116.155C93.096 112.469 90.264 107.741 89.688 101.496C88.5552 89.3279 92.4624 82.2527 95.7696 70.8431C96.3744 68.7263 96.6768 66.5231 95.3232 64.0127C94.2023 61.529 92.4269 59.3969 90.1872 57.8447C88.4332 56.1116 86.2782 54.8387 83.9136 54.1391C78.8256 52.7567 72.3936 55.4495 67.5264 56.7887C62.6592 58.1279 59.688 60.4415 57.5328 65.1263C54.552 71.6255 51.7536 78.2399 48.8592 84.7871Z" fill="#263238"/>
<path d="M45.8112 88.9968C50.3328 80.2944 55.0176 71.7168 59.6496 63.0768C59.6784 63.024 59.7648 63.0768 59.736 63.1104C56.1312 70.3104 52.632 77.592 48.9312 84.768C45.3024 91.776 41.088 98.7552 38.0928 106.08C31.3728 122.525 45.7728 135.869 60.1728 140.515C60.8256 140.726 60.4176 141.744 59.76 141.509C47.2464 137.03 34.104 127.07 35.5776 112.162C36.3936 104.006 42.1152 96.1104 45.8112 88.9968Z" fill="#263238"/>
<path d="M95.3137 69.6528C95.3315 69.6214 95.36 69.5975 95.3941 69.5856C95.4282 69.5737 95.4654 69.5746 95.4989 69.5881C95.5323 69.6016 95.5597 69.6268 95.576 69.659C95.5923 69.6912 95.5963 69.7282 95.5873 69.7632C92.4721 79.032 87.9697 89.5488 90.0865 99.4944C91.1264 104.397 93.6284 108.869 97.2625 112.32C100.142 115.037 103.718 116.563 107.026 118.651C119.947 126.811 112.762 145.752 99.7489 149.179C99.4753 149.251 99.3409 148.786 99.6145 148.699C108.974 145.771 115.344 136.325 112.459 126.456C110.146 118.541 100.406 116.995 95.2993 111.226C84.7153 99.2592 89.9089 82.7712 95.3137 69.6528Z" fill="#263238"/>
<path d="M102.859 176.021C103.152 175.906 101.28 159.84 101.28 159.84C101.28 159.84 108.341 149.698 105.466 141.715C104.026 137.674 90.4224 113.688 84.2256 108.302C78.4128 103.243 68.8032 107.088 65.3088 110.51C54.24 121.363 44.4768 149.03 38.0544 173.87L102.859 176.021Z" fill="#C2C7D6"/>
<path d="M80.3183 106.243C77.9183 106.334 75.5567 106.378 73.2335 106.373C73.9474 106.192 74.6721 106.058 75.4031 105.97C76.3919 105.97 77.3887 105.95 78.3935 105.912C79.0438 105.964 79.688 106.075 80.3183 106.243ZM88.9055 113.76C80.0463 114.503 71.1428 114.557 62.2751 113.923C62.1743 114.048 62.0783 114.173 61.9823 114.302C71.0382 114.961 80.132 114.905 89.1791 114.134L88.9055 113.76ZM94.2815 121.718C80.8751 123.298 67.8815 122.856 57.1199 121.776C57.0479 121.896 56.9759 122.021 56.9087 122.15C67.7519 123.25 80.9423 123.706 94.5167 122.088L94.2815 121.718ZM99.0815 129.634C82.1711 132.082 65.6015 131.15 53.1359 129.576L52.9631 129.95C65.5055 131.544 82.2431 132.494 99.2975 130.003L99.0815 129.634ZM103.469 137.525C84.8831 140.688 66.4127 139.57 53.0687 137.794C51.9551 137.646 50.8623 137.486 49.7903 137.314C49.7375 137.438 49.6847 137.568 49.6367 137.693L51.9551 138.024L53.0063 138.168C66.4463 139.954 84.9887 141.048 103.67 137.87L103.469 137.525ZM54.2687 146.165C51.6767 145.819 49.1903 145.44 46.8335 145.042C46.7855 145.166 46.7423 145.291 46.6991 145.421C48.7583 145.771 50.9183 146.102 53.1599 146.414L54.2063 146.554C67.9295 148.378 87.0431 149.506 106.147 146.035C106.154 145.902 106.154 145.769 106.147 145.637C87.0671 149.136 67.9775 148.013 54.2687 146.189V146.165ZM55.4783 154.56C51.4271 154.022 47.6351 153.398 44.1935 152.755C44.1503 152.88 44.1071 153.005 44.0687 153.134C47.2319 153.73 50.6879 154.301 54.3695 154.81L55.4159 154.954C68.3183 156.667 85.9775 157.766 103.896 155.011L104.083 154.584C86.1263 157.392 68.4095 156.293 55.4783 154.56ZM101.698 163.478C84.9791 165.619 68.7503 164.554 56.6879 162.95C51.1631 162.216 46.1279 161.323 41.8079 160.435C41.7695 160.56 41.7359 160.69 41.6927 160.814C45.7679 161.65 50.4623 162.49 55.6127 163.214L56.6639 163.354C68.7503 164.962 85.0127 166.027 101.784 163.886L101.698 163.478ZM102.595 171.912C85.9871 173.99 69.8831 172.93 57.8975 171.336C50.8559 170.376 44.6063 169.21 39.5903 168.096L39.4895 168.48C44.2895 169.541 50.1599 170.669 56.7695 171.586L57.8207 171.73C69.8207 173.328 85.9679 174.389 102.614 172.301C102.619 172.19 102.605 172.061 102.595 171.926V171.912Z" fill="white"/>
<path d="M94.9105 154.051C91.7976 154.159 88.7122 154.674 85.7329 155.582C82.7377 156.432 76.1329 159.053 74.4577 159.701C74.4488 159.701 74.4402 159.704 74.4339 159.711C74.4276 159.717 74.4241 159.725 74.4241 159.734C74.4241 159.743 74.4276 159.752 74.4339 159.758C74.4402 159.764 74.4488 159.768 74.4577 159.768C76.6177 159.251 78.746 158.61 80.8321 157.848C83.7697 156.85 86.7313 155.928 89.7361 155.165C91.4348 154.746 93.1582 154.435 94.8961 154.234C94.9081 154.234 94.9201 154.233 94.9315 154.229C94.9429 154.226 94.9535 154.22 94.9627 154.212C94.9718 154.204 94.9793 154.195 94.9848 154.184C94.9902 154.173 94.9935 154.162 94.9945 154.15C94.9954 154.138 94.994 154.126 94.9903 154.114C94.9866 154.103 94.9807 154.092 94.9729 154.083C94.9651 154.074 94.9555 154.066 94.9448 154.061C94.9341 154.055 94.9224 154.052 94.9105 154.051Z" fill="#263238"/>
<path d="M100.377 155.63C97.1334 155.361 93.867 155.648 90.7199 156.48C90.7125 156.483 90.7062 156.488 90.7017 156.494C90.6972 156.501 90.6948 156.508 90.6948 156.516C90.6948 156.524 90.6972 156.532 90.7017 156.538C90.7062 156.544 90.7125 156.549 90.7199 156.552C92.3135 156.36 93.9071 156.173 95.5199 156.038C97.1327 155.904 98.7455 155.822 100.358 155.717C100.368 155.715 100.376 155.711 100.383 155.704C100.39 155.698 100.395 155.689 100.397 155.68C100.399 155.671 100.398 155.661 100.395 155.652C100.391 155.643 100.385 155.636 100.377 155.63Z" fill="#263238"/>
<path d="M70.0032 108.48C70.1904 109.834 75.624 121.19 82.7952 120.523C85.8096 120.245 84.7152 108.59 84.7152 108.59L88.4976 96.8879L74.4 85.9775C74.4 85.9775 69.936 107.904 70.0032 108.48Z" fill="#F7A9A0"/>
<path d="M84.7343 108.59C84.7323 108.6 84.7323 108.61 84.7343 108.619C76.6751 105.298 73.5887 99.3119 72.4319 95.6831C73.4399 90.6143 74.3999 85.9775 74.3999 85.9775L88.5167 96.8831L84.7343 108.59Z" fill="#263238"/>
<path d="M102.106 82.1328C101.534 102.293 89.4097 104.213 85.0657 104.078C81.1249 103.963 67.7185 103.066 66.2017 82.9584C64.6849 62.8512 74.2321 56.7696 83.2609 56.5584C92.2897 56.3472 102.677 61.992 102.106 82.1328Z" fill="#F7A9A0"/>
<path d="M98.4768 78.9648C97.9968 78.8592 97.6032 78.6912 97.152 78.5424C96.6636 78.461 96.2161 78.2195 95.88 77.856C95.7964 77.7219 95.7596 77.564 95.7752 77.4068C95.7909 77.2497 95.8581 77.1021 95.9664 76.9872C96.2156 76.7915 96.5125 76.6661 96.8265 76.6239C97.1405 76.5817 97.46 76.6243 97.752 76.7472C98.3821 76.9027 98.9316 77.2879 99.2928 77.8272C99.3668 77.9551 99.4023 78.1017 99.3951 78.2493C99.3879 78.3969 99.3383 78.5393 99.2521 78.6594C99.166 78.7795 99.047 78.8722 98.9095 78.9264C98.7719 78.9805 98.6217 78.9939 98.4768 78.9648Z" fill="#263238"/>
<path d="M84.5568 79.3488C85.0135 79.3225 85.4685 79.2729 85.92 79.2C86.415 79.2168 86.9014 79.0682 87.3024 78.7776C87.4111 78.6617 87.4781 78.513 87.4929 78.3548C87.5077 78.1966 87.4694 78.038 87.384 77.904C87.1786 77.6641 86.9126 77.4837 86.6137 77.3816C86.3149 77.2794 85.9941 77.2593 85.6848 77.3232C85.0356 77.3506 84.4204 77.6214 83.9616 78.0816C83.8633 78.1932 83.7998 78.3311 83.7789 78.4784C83.7579 78.6256 83.7804 78.7758 83.8436 78.9104C83.9069 79.045 84.0081 79.1582 84.1348 79.2361C84.2615 79.314 84.4082 79.3532 84.5568 79.3488Z" fill="#263238"/>
<path d="M87.2736 83.3712C87.2736 83.3184 87.1584 83.4288 87.1584 83.4816C87.1008 84.8544 86.7984 86.4144 85.5264 86.7744C85.488 86.7744 85.488 86.856 85.5264 86.8512C87.0624 86.7552 87.4368 84.6768 87.2736 83.3712Z" fill="#263238"/>
<path d="M86.1601 81.8496C83.9713 81.5184 83.4673 85.9152 85.4929 86.2272C87.5185 86.5392 87.9937 82.128 86.1601 81.8496Z" fill="#263238"/>
<path d="M85.2672 81.984C84.8544 82.1904 84.4272 82.584 83.9616 82.5792C83.4192 82.5792 83.064 82.0608 82.7664 81.5808C82.7328 81.528 82.6896 81.5808 82.6848 81.6192C82.5744 82.464 82.8 83.3664 83.688 83.592C84.4992 83.8032 85.1808 83.112 85.488 82.3008C85.5456 82.1472 85.44 81.9024 85.2672 81.984Z" fill="#263238"/>
<path d="M95.3424 83.6975C95.3424 83.6495 95.4432 83.7791 95.4336 83.8319C95.2224 85.1903 95.2128 86.7791 96.3936 87.3791C96.4272 87.3791 96.4176 87.4655 96.3696 87.4559C94.8912 87.0575 94.9248 84.9599 95.3424 83.6975Z" fill="#263238"/>
<path d="M96.7295 82.4256C98.9423 82.5264 98.5775 86.9424 96.5279 86.8464C94.4783 86.7504 94.8767 82.3392 96.7295 82.4256Z" fill="#263238"/>
<path d="M97.6272 82.7904C97.9584 83.0544 98.2656 83.5104 98.6832 83.5728C99.1008 83.6352 99.5568 83.1936 99.9072 82.7616C99.9408 82.7184 99.9744 82.7616 99.9696 82.8144C99.9216 83.664 99.5712 84.5184 98.7456 84.6144C97.9968 84.7008 97.512 83.928 97.3824 83.0736C97.3584 82.9152 97.4976 82.6848 97.6272 82.7904Z" fill="#263238"/>
<path d="M86.208 93.8784C86.4816 94.248 86.736 94.7328 87.2208 94.8384C87.725 94.9114 88.239 94.8754 88.728 94.7328C88.7386 94.7287 88.7503 94.7286 88.761 94.7323C88.7718 94.7361 88.7808 94.7435 88.7865 94.7533C88.7923 94.763 88.7944 94.7746 88.7925 94.7857C88.7906 94.7969 88.7847 94.8071 88.776 94.8144C88.5393 95.0492 88.2434 95.2155 87.9197 95.2958C87.5961 95.3761 87.2567 95.3673 86.9376 95.2704C86.6723 95.1559 86.4475 94.9642 86.2925 94.7202C86.1376 94.4762 86.0596 94.1912 86.0688 93.9024C86.0592 93.8352 86.1696 93.8208 86.208 93.8784Z" fill="#263238"/>
<path d="M92.4192 89.5296C92.4192 89.5296 92.4912 91.5936 92.4192 92.5584C92.4192 92.6448 92.1696 92.664 91.8432 92.6496C91.8432 92.6496 91.8144 92.6496 91.8048 92.6496C90.964 92.7153 90.1214 92.548 89.3694 92.1661C88.6175 91.7842 87.9853 91.2025 87.5424 90.4848C87.5271 90.4644 87.5206 90.4388 87.5242 90.4136C87.5278 90.3884 87.5412 90.3657 87.5616 90.3504C87.582 90.3351 87.6076 90.3286 87.6328 90.3322C87.658 90.3358 87.6807 90.3492 87.696 90.3696C88.8672 91.4304 90.2448 91.8096 91.7472 91.992C91.8432 91.7328 91.5072 88.4544 91.6608 88.4592C92.1888 88.4592 93.1872 88.9392 93.792 89.1792C93.7632 84.8592 93.048 80.5968 93.0864 76.3056C93.0855 76.274 93.0962 76.2431 93.1165 76.2188C93.1368 76.1945 93.1653 76.1785 93.1966 76.1738C93.2279 76.1691 93.2598 76.176 93.2864 76.1932C93.313 76.2104 93.3323 76.2367 93.3408 76.2672C94.4112 80.6928 94.5504 85.6512 94.6944 90.1008C94.6896 90.6576 92.7888 89.7312 92.4192 89.5296Z" fill="#263238"/>
<path d="M66.6767 81.8304C71.3615 80.8704 72.6239 76.5504 72.6239 76.5504C89.6735 76.1184 95.2991 65.5392 95.2991 65.5392C98.5775 74.4431 101.501 75.9648 101.981 77.304C101.981 77.304 103.392 69.5856 100.81 63.7008C98.5199 58.4928 92.6495 52.92 83.4527 54.1008C78.2303 54.7728 73.8527 59.2944 73.8527 59.2944C73.8527 59.2944 68.2127 59.8992 65.9039 64.4496C62.0207 72.0768 66.6767 81.8304 66.6767 81.8304Z" fill="#263238"/>
<path d="M95.5583 64.848C94.9344 67.0681 93.7663 69.0974 92.1599 70.752C90.5539 72.4184 88.6381 73.7554 86.5199 74.688L84.9023 75.3024C84.3599 75.4896 83.7935 75.6048 83.2415 75.7824C82.1286 76.0651 80.9957 76.2625 79.8527 76.3728C78.7151 76.4736 77.5679 76.4544 76.4303 76.4976C75.2927 76.4016 74.1551 76.3248 73.0271 76.2C74.1647 76.1664 75.2975 76.2 76.4255 76.1616C77.5487 76.0464 78.6767 76.0032 79.7855 75.8448C82.0053 75.5475 84.1751 74.9534 86.2367 74.0784C88.2928 73.2025 90.1703 71.9562 91.7759 70.4016C93.4157 68.8391 94.705 66.9461 95.5583 64.848Z" fill="#263238"/>
<path d="M67.3968 80.9376C67.3968 80.9376 63.4128 66.5376 73.8384 59.2896C83.8752 52.3152 93.1488 55.584 93.1488 55.584C93.1488 55.584 83.04 50.0448 71.3904 56.544C59.7408 63.0432 65.5632 77.7984 67.3968 80.9376Z" fill="#C2C7D6"/>
<path d="M69.5999 83.2464C69.5999 83.2464 65.9519 76.4976 62.9375 77.7264C59.9231 78.9552 62.1647 88.392 65.3375 90.0144C65.7318 90.2508 66.1698 90.405 66.6253 90.4677C67.0807 90.5304 67.5441 90.5003 67.9876 90.3792C68.4311 90.2581 68.8455 90.0486 69.2059 89.7632C69.5663 89.4777 69.8652 89.1223 70.0847 88.7184L69.5999 83.2464Z" fill="#F7A9A0"/>
<path d="M63.6576 80.4144C63.6475 80.4144 63.6377 80.4175 63.6295 80.4234C63.6214 80.4293 63.6153 80.4376 63.6121 80.4472C63.6089 80.4567 63.6088 80.4671 63.6118 80.4767C63.6148 80.4863 63.6208 80.4947 63.6288 80.5008C65.856 81.7152 66.8352 84.024 67.4352 86.3664C66.84 85.4064 65.952 84.84 64.6992 85.5312C64.632 85.5696 64.6992 85.6704 64.7472 85.6656C65.1723 85.5815 65.6131 85.6315 66.0086 85.8086C66.4041 85.9857 66.7348 86.2812 66.9552 86.6544C67.3201 87.2815 67.6162 87.9461 67.8384 88.6368C67.9248 88.8576 68.3184 88.7904 68.2608 88.5408V88.4832C68.64 85.512 66.816 81.0864 63.6576 80.4144Z" fill="#263238"/>
<path d="M107.674 170.074C107.578 170.467 108.437 173.587 107.947 174.206C107.458 174.826 91.4929 175.675 91.0801 173.592C90.6385 171.341 97.9297 169.042 97.7233 168.667C97.7233 168.667 95.6209 165.134 94.9345 158.726C94.3681 153.413 95.1217 150.71 98.2129 146.059C102.691 139.339 113.246 142.315 113.381 149.774C113.467 154.68 108.197 159.451 107.722 161.323C107.112 163.714 107.702 169.978 107.674 170.074Z" fill="#263238"/>
<path d="M94.7183 146.083C94.8671 145.771 100.258 146.779 106.114 146.16C113.222 145.406 117.538 143.208 117.763 143.621C118.637 145.2 120.288 151.027 118.891 155.861C117.494 160.694 109.718 162.36 104.405 162.101C99.0911 161.842 90.8015 158.957 94.4831 147.278C94.4543 146.866 94.5355 146.454 94.7183 146.083Z" fill="#455A64"/>
<path d="M117.912 143.914C110.15 148.152 95.3519 146.894 94.7183 146.083C94.7183 146.083 96.1919 134.765 98.8175 130.397C99.2735 129.638 107.4 128.102 109.819 129.874C113.985 132.922 118.08 143.842 117.912 143.914Z" fill="#455A64"/>
<path d="M104.53 173.074C104.29 173.395 103.853 176.606 103.162 176.981C102.47 177.355 87.4512 171.874 87.888 169.781C88.368 167.539 95.9712 168.278 95.9328 167.861C95.9328 167.861 95.3856 163.786 97.2624 157.622C98.8224 152.51 100.579 150.322 105.245 147.259C112.008 142.81 120.542 149.707 117.725 156.619C115.877 161.17 109.162 163.488 107.986 165.024C106.512 167.002 104.592 172.992 104.53 173.074Z" fill="#37474F"/>
<path d="M98.7601 130.963C98.7601 130.608 97.1857 126.917 97.5121 126.643C97.8385 126.37 105.154 125.112 105.643 125.683C106.133 126.254 107.328 129.658 107.28 130.507C107.232 131.357 101.928 135.758 100.133 135.413C98.3377 135.067 98.7937 133.747 98.7601 130.963Z" fill="#F7A9A0"/>
<path d="M111.077 122.971C109.589 127.771 105.509 130.075 103.109 130.91C99.3888 132.211 88.9152 133.901 85.6896 127.378C83.5056 122.966 83.2224 112.051 85.2096 108.864C87.9888 104.419 96.7296 101.448 103.781 104.064C109.44 106.162 112.56 118.176 111.077 122.971Z" fill="#F7A9A0"/>
<path d="M95.6737 115.003C95.3617 114.979 95.0737 114.912 94.7617 114.859C94.4337 114.854 94.1164 114.741 93.8593 114.538C93.7916 114.457 93.7521 114.357 93.7469 114.252C93.7417 114.147 93.7711 114.043 93.8305 113.957C93.9745 113.804 94.1568 113.692 94.3584 113.633C94.5601 113.574 94.7739 113.57 94.9777 113.621C95.4044 113.661 95.8011 113.857 96.0913 114.173C96.1535 114.249 96.1924 114.341 96.2032 114.439C96.214 114.537 96.1962 114.636 96.152 114.724C96.1078 114.811 96.0391 114.885 95.9543 114.934C95.8694 114.984 95.7719 115.008 95.6737 115.003Z" fill="#263238"/>
<path d="M86.0159 116.405C86.302 116.3 86.5824 116.179 86.8559 116.045C87.1689 115.957 87.445 115.77 87.6431 115.512C87.688 115.418 87.7011 115.312 87.6803 115.209C87.6595 115.107 87.606 115.015 87.5279 114.946C87.3527 114.834 87.1506 114.771 86.9428 114.764C86.735 114.758 86.5292 114.807 86.3471 114.907C85.9452 115.049 85.6112 115.337 85.4111 115.714C85.3567 115.801 85.3319 115.903 85.3402 116.006C85.3485 116.109 85.3896 116.206 85.4574 116.283C85.5252 116.361 85.616 116.414 85.7166 116.436C85.8171 116.458 85.9221 116.447 86.0159 116.405Z" fill="#263238"/>
<path d="M89.7599 116.99C89.8511 118.949 89.8847 118.238 89.8895 120.202C89.4719 120.307 87.5471 120.682 87.7199 120.821C88.4589 121.325 89.2356 121.771 90.0431 122.155C89.9087 122.707 89.1311 123.418 89.1791 123.451C91.9823 125.443 94.1231 123.691 94.7951 122.77C94.9295 122.582 94.8623 122.597 94.7951 122.683C94.0799 123.389 91.8383 124.656 89.8703 123.298C90.1561 122.939 90.349 122.515 90.4319 122.064C90.4319 122.011 89.0927 121.32 88.5119 120.917C89.0879 120.778 89.8079 120.667 90.2399 120.571C90.3407 120.571 90.3791 118.997 89.9279 116.962C89.9212 116.942 89.9078 116.926 89.8902 116.916C89.8726 116.905 89.8519 116.901 89.8317 116.905C89.8116 116.908 89.7933 116.919 89.7801 116.934C89.767 116.95 89.7598 116.97 89.7599 116.99Z" fill="#263238"/>
<path d="M86.4719 119.237C86.4243 119.333 86.3592 119.419 86.28 119.491C86.2197 119.557 86.1448 119.607 86.0614 119.638C85.9779 119.669 85.8883 119.679 85.8 119.669C85.2624 119.64 85.008 119.102 84.9456 118.56C84.9456 118.522 84.9456 118.498 84.9888 118.526C85.224 118.79 85.4928 119.064 85.8 119.006C86.0064 118.968 86.16 118.771 86.3136 118.603C86.3436 118.819 86.3967 119.032 86.4719 119.237Z" fill="#263238"/>
<path d="M88.3681 119.654C88.3703 119.903 88.3038 120.147 88.1761 120.36C88.1013 120.475 88.0033 120.573 87.8884 120.649C87.7736 120.724 87.6443 120.774 87.5088 120.797C87.3706 120.816 87.2298 120.803 87.0973 120.759C86.9649 120.715 86.8445 120.641 86.7456 120.542C86.5758 120.366 86.4493 120.152 86.376 119.918C86.3344 119.778 86.3024 119.636 86.28 119.491C86.2276 119.192 86.2457 118.885 86.3328 118.594C86.356 118.812 86.4027 119.028 86.472 119.237C86.5319 119.426 86.6057 119.611 86.6928 119.789C86.8752 120.149 87.144 120.427 87.4464 120.36C87.7488 120.293 87.9601 120.024 88.0273 119.621C88.0848 119.203 88.1009 118.78 88.0753 118.358C88.2725 118.762 88.3728 119.205 88.3681 119.654Z" fill="#263238"/>
<path d="M95.7455 117.922C95.8163 118.004 95.9028 118.07 95.9999 118.118C96.0715 118.161 96.1516 118.188 96.2345 118.196C96.3175 118.204 96.4013 118.194 96.4799 118.166C96.9887 117.998 97.0895 117.408 97.0031 116.87C97.0031 116.832 96.9743 116.813 96.9551 116.87C96.8015 117.187 96.6143 117.523 96.3023 117.542C96.0802 117.522 95.8694 117.435 95.6975 117.293C95.7354 117.5 95.7515 117.711 95.7455 117.922Z" fill="#263238"/>
<path d="M94.0272 118.829C94.0924 119.07 94.2218 119.289 94.4016 119.462C94.5048 119.552 94.6254 119.62 94.7558 119.661C94.8863 119.702 95.0239 119.716 95.16 119.702C95.298 119.684 95.4299 119.634 95.5456 119.557C95.6613 119.48 95.7577 119.377 95.8272 119.256C95.9366 119.04 95.9957 118.802 96 118.56C96.0097 118.415 96.0097 118.269 96 118.123C95.9667 117.822 95.8667 117.531 95.7072 117.274C95.7436 117.489 95.7564 117.708 95.7456 117.926C95.7382 118.125 95.7158 118.322 95.6784 118.517C95.6016 118.915 95.4144 119.256 95.1024 119.27C94.7904 119.285 94.5168 119.083 94.3488 118.714C94.1815 118.326 94.0529 117.922 93.9648 117.509C93.883 117.948 93.9043 118.4 94.0272 118.829Z" fill="#263238"/>
<path d="M101.846 108.547C100.731 109.352 99.5101 109.998 98.2176 110.467C96.803 110.916 95.3151 111.089 93.8352 110.976C91.4784 110.808 88.8528 110.117 86.7744 111.581C86.7744 111.581 86.7744 111.61 86.7744 111.581C89.5488 110.04 92.6976 111.773 95.6544 111.581C97.9248 111.422 100.512 110.448 101.971 108.677C102.067 108.6 101.942 108.48 101.846 108.547Z" fill="#263238"/>
<path d="M107.842 120.658C107.341 119.765 106.625 119.012 105.758 118.469C104.688 117.787 103.632 117.25 102.835 116.242C101.112 114.072 100.819 111.12 101.395 108.514C101.395 108.442 101.29 108.403 101.266 108.475C100.512 110.808 100.392 113.275 101.698 115.493C102.288 116.478 103.112 117.302 104.098 117.893C105.49 118.747 106.781 119.333 107.717 120.725C107.765 120.782 107.88 120.725 107.842 120.658Z" fill="#263238"/>
<path d="M95.52 96.0576C93.6864 94.0608 90.168 94.4544 88.2576 96.2016C88.2192 96.2352 88.2576 96.3024 88.3056 96.2688C90.0624 94.8 93.2304 94.5264 94.9344 96.1728C96.8544 98.0112 96.408 100.603 94.4544 102.211C94.4431 102.219 94.4335 102.23 94.4261 102.242C94.4188 102.254 94.4138 102.267 94.4116 102.281C94.4094 102.294 94.4099 102.309 94.4131 102.322C94.4164 102.336 94.4222 102.349 94.4304 102.36C94.4386 102.371 94.449 102.381 94.4609 102.388C94.4728 102.396 94.486 102.401 94.4999 102.403C94.5137 102.405 94.5278 102.405 94.5414 102.401C94.555 102.398 94.5679 102.392 94.5792 102.384C96.744 100.886 97.3584 98.0592 95.52 96.0576Z" fill="#263238"/>
<path d="M105.12 95.1935C105.12 95.1935 105.149 95.1599 105.12 95.1551C103.171 94.8431 100.046 95.1551 99.4127 97.4303C98.7551 99.7727 100.593 102.125 102.773 102.787C102.897 102.826 103.041 102.658 102.907 102.571C101.222 101.53 99.5471 100.171 99.7583 97.9487C99.9791 95.4815 103.128 94.9631 105.12 95.1935Z" fill="#263238"/>
<path d="M113.534 111.47C112.282 107.707 108.936 105.307 105.485 103.685C108.744 105.47 111.854 107.587 113.078 111.278C113.731 113.242 114.23 115.522 113.707 117.566C113.184 119.611 111.859 121.32 110.63 123.01C110.612 123.038 110.605 123.073 110.611 123.107C110.617 123.141 110.635 123.171 110.661 123.192C110.688 123.214 110.722 123.225 110.756 123.223C110.79 123.221 110.822 123.206 110.846 123.182C112.176 121.574 113.491 119.822 114.072 117.797C114.653 115.771 114.202 113.467 113.534 111.47Z" fill="#263238"/>
<path d="M95.04 101.222C93.8256 102.182 92.304 102.499 90.8448 102.922C89.3856 103.344 87.552 103.968 86.2704 104.914C84.144 106.478 82.7712 109.824 83.6352 112.354C83.6736 112.464 83.8608 112.421 83.8368 112.306C83.5034 110.731 83.7309 109.089 84.48 107.664C85.2438 106.116 86.5485 104.902 88.1472 104.251C89.4287 103.679 90.7449 103.189 92.088 102.782C93.1707 102.501 94.1752 101.978 95.0256 101.251C95.0256 101.251 95.04 101.208 95.04 101.222Z" fill="#263238"/>
<path d="M112.8 126.456C110.102 124.906 111.84 121.526 112.651 119.314C112.656 119.301 112.655 119.287 112.65 119.275C112.645 119.263 112.635 119.253 112.623 119.248C112.611 119.242 112.597 119.241 112.585 119.246C112.572 119.25 112.561 119.259 112.555 119.27C111.638 121.469 109.277 125.352 112.723 126.634C112.747 126.644 112.773 126.644 112.797 126.635C112.821 126.625 112.84 126.607 112.85 126.583C112.86 126.56 112.861 126.533 112.851 126.509C112.842 126.485 112.823 126.466 112.8 126.456Z" fill="#263238"/>
<path d="M111.326 127.296C110.054 125.626 110.544 123.456 111.245 121.666C111.253 121.633 111.249 121.598 111.235 121.568C111.22 121.537 111.195 121.513 111.164 121.499C111.133 121.485 111.098 121.483 111.065 121.492C111.033 121.502 111.005 121.522 110.986 121.55C110.088 123.47 109.867 125.587 111.283 127.31C111.302 127.354 111.36 127.32 111.326 127.296Z" fill="#263238"/>
<path d="M112.69 125.578C110.597 124.224 112.21 121.133 112.872 119.429C112.92 119.299 112.718 119.194 112.646 119.318C111.773 120.816 110.213 124.685 112.646 125.621C112.694 125.63 112.714 125.592 112.69 125.578Z" fill="#263238"/>
<path d="M96.2496 99.36C96.2525 99.3486 96.2528 99.3368 96.2504 99.3253C96.2481 99.3138 96.2431 99.3031 96.2359 99.2938C96.2287 99.2846 96.2195 99.2771 96.209 99.2719C96.1985 99.2668 96.1869 99.2641 96.1752 99.2641C96.1635 99.2641 96.152 99.2668 96.1415 99.2719C96.1309 99.2771 96.1217 99.2846 96.1146 99.2938C96.1074 99.3031 96.1024 99.3138 96.1 99.3253C96.0977 99.3368 96.0979 99.3486 96.1008 99.36C95.736 101.098 94.1808 101.059 92.8032 100.613C92.2424 100.384 91.6467 100.252 91.0416 100.224C90.5072 100.25 89.9897 100.42 89.5437 100.716C89.0977 101.011 88.7396 101.422 88.5072 101.904C88.4688 101.971 88.5792 102.038 88.6272 101.976C89.2896 101.112 90.2352 100.488 91.368 100.67C92.328 100.824 93.144 101.4 94.1184 101.424C94.3959 101.436 94.6731 101.392 94.9328 101.294C95.1926 101.195 95.4295 101.045 95.629 100.851C95.8286 100.658 95.9865 100.426 96.0932 100.17C96.2 99.9133 96.2532 99.6377 96.2496 99.36Z" fill="#C2C7D6"/>
<path d="M104.16 98.2848C103.358 95.4048 100.32 98.0928 99.7632 99.7248L99.6864 99.7008C99.5232 99.6384 99.3456 99.8736 99.5136 99.9792C100.978 100.886 104.894 100.968 104.16 98.2848ZM99.84 99.7248C100.488 98.7168 102.941 96.0864 103.68 98.3184C104.419 100.55 101.05 100.123 99.84 99.7296V99.7248Z" fill="#C2C7D6"/>
<path d="M96.3264 100.19C94.7904 100.987 93.9024 100.109 92.5632 99.5088C92.1192 99.3255 91.6401 99.2429 91.1604 99.267C90.6807 99.291 90.2122 99.4212 89.7888 99.648V99.6912C90.6816 99.6528 91.5216 99.528 92.3664 99.9216C92.9328 100.181 93.408 100.603 93.9936 100.829C94.4017 100.991 94.8457 101.041 95.2796 100.973C95.7135 100.906 96.1214 100.723 96.4608 100.445C96.5904 100.349 96.48 100.114 96.3264 100.19Z" fill="#C2C7D6"/>
<path d="M95.1168 100.022C96.1536 99.9744 97.1328 99.624 98.184 99.6288C99.2352 99.6336 100.205 99.96 101.232 100.013C101.424 100.013 101.438 99.7776 101.314 99.6864C99.8112 98.5872 96.5136 98.5296 94.9968 99.6C94.956 99.627 94.9249 99.6662 94.9079 99.7121C94.8909 99.7579 94.889 99.808 94.9023 99.855C94.9157 99.9021 94.9437 99.9436 94.9822 99.9737C95.0208 100.004 95.0679 100.021 95.1168 100.022Z" fill="#C2C7D6"/>
<path d="M95.2993 100.618C96.1664 100.439 97.043 100.311 97.9249 100.234C98.9269 100.229 99.9274 100.311 100.915 100.478C100.997 100.478 101.098 100.397 101.03 100.32C100.55 99.8112 99.2641 99.5472 98.4145 99.5184C97.2922 99.4398 96.1722 99.699 95.1985 100.262C95.0401 100.354 95.0977 100.646 95.2993 100.618Z" fill="#C2C7D6"/>
<path d="M103.474 119.904C103.474 119.904 105.163 115.805 107.429 115.459C109.829 115.094 110.789 119.405 109.349 121.397C107.659 123.734 104.606 123.288 104.606 123.288L103.474 119.904Z" fill="#F7A9A0"/>
<path d="M106.987 118.08C107.295 117.728 107.644 117.415 108.029 117.149C108.072 117.115 108.029 117.043 107.981 117.067C106.339 117.96 104.962 119.947 105.432 121.896C105.432 121.913 105.439 121.928 105.45 121.94C105.462 121.952 105.478 121.958 105.494 121.958C105.511 121.958 105.527 121.952 105.539 121.94C105.55 121.928 105.557 121.913 105.557 121.896L105.629 121.363C105.833 120.848 106.152 120.385 106.56 120.01C106.999 119.644 107.531 119.405 108.096 119.318C108.158 119.318 108.139 119.218 108.096 119.218C107.654 119.243 107.222 119.361 106.829 119.566C106.436 119.77 106.09 120.055 105.816 120.403C105.913 119.946 106.074 119.505 106.296 119.093C106.495 118.732 106.733 118.394 107.006 118.085L106.987 118.08Z" fill="#263238"/>
<path d="M105.091 123.149V123.173C105.091 123.173 105.12 123.154 105.091 123.149Z" fill="#263238"/>
<path d="M84.0768 112.517C84.0768 113.717 84.0768 114.917 84.048 116.093C84.0192 117.269 84.048 118.469 83.9904 119.674C83.5586 117.305 83.588 114.875 84.0768 112.517Z" fill="#263238"/>
<path d="M82.4304 138.346C83.568 139.181 90.0624 144.35 95.0688 144.95C100.402 145.584 105.206 142.882 107.016 141.59C111.97 138.024 108.341 133.094 104.717 133.43C100.397 133.824 97.368 135.547 94.776 135.35C91.6128 135.106 86.7216 132.682 85.9008 132.504C84.168 132.115 81.0096 137.28 82.4304 138.346Z" fill="#F7A9A0"/>
<path d="M86.3471 132.696C86.1791 131.899 84.9071 130.128 84.8543 129.504C84.8015 128.88 85.0655 127.301 84.1487 127.358C83.2319 127.416 83.1407 129.806 83.1263 130.349C83.1119 130.891 78.9551 127.258 78.0767 128.227C77.1983 129.197 80.2799 131.4 80.1071 131.587C79.9343 131.774 76.4783 129.835 75.8207 130.747C75.1631 131.659 79.0559 133.411 79.0175 133.483C78.9791 133.555 76.6175 131.386 75.8687 132.067C75.1199 132.749 78.7823 135.168 78.6959 135.341C78.6095 135.514 76.1519 134.861 75.9407 135.821C75.7295 136.781 79.6175 137.338 79.9487 137.434C80.2799 137.53 82.6991 138.744 83.2463 138.518C83.7935 138.293 86.4719 133.262 86.3471 132.696Z" fill="#F7A9A0"/>
<path d="M76.5456 131.942C76.488 131.909 76.4496 131.942 76.4976 131.986C77.5153 132.784 78.6612 133.404 79.8864 133.819C79.8864 133.819 79.9152 133.819 79.8864 133.795C79.3488 133.493 77.1648 132.331 76.5456 131.942Z" fill="#263238"/>
<path d="M107.011 141.6C105.206 142.91 100.397 145.613 95.0688 144.96C91.2 144.48 86.3712 141.182 83.8752 139.546L87.0672 132.826C88.92 133.397 92.3472 135.134 94.776 135.322C97.3632 135.523 100.411 133.8 104.717 133.402C108.346 133.075 111.97 138.01 107.011 141.6Z" fill="#37474F"/>
<path d="M71.3135 121.075C70.8335 127.603 65.9567 175.229 66.4655 177.557C66.4655 177.557 43.5503 197.587 36.3359 183.754C31.6415 174.758 49.8287 130.042 60.3359 115.752C65.1263 109.186 72.3503 107.381 71.3135 121.075Z" fill="#F7A9A0"/>
<path d="M42.6287 143.381L70.2335 141.058C71.319 134.033 71.9842 126.95 72.2255 119.846C72.6575 107.808 67.1231 105.23 57.1391 118.042C51.1257 125.758 46.24 134.289 42.6287 143.381Z" fill="#C2C7D6"/>
<path d="M69.8977 137.021C67.8337 136.958 65.7457 137.208 63.6577 137.323C61.6945 137.429 59.7217 137.534 57.7585 137.707C53.7009 138.062 49.6481 138.502 45.6001 139.027C45.5281 139.027 45.5329 139.157 45.6001 139.152C49.6417 138.947 53.6769 138.688 57.7057 138.374C59.7121 138.216 61.7137 138.01 63.7105 137.798C65.7073 137.587 67.8673 137.515 69.9025 137.146C69.9107 137.145 69.9187 137.143 69.9262 137.14C69.9336 137.136 69.9403 137.132 69.9459 137.126C69.9515 137.12 69.9558 137.113 69.9586 137.105C69.9615 137.097 69.9628 137.089 69.9625 137.081C69.9622 137.073 69.9602 137.065 69.9568 137.057C69.9534 137.05 69.9485 137.043 69.9425 137.037C69.9365 137.032 69.9294 137.027 69.9217 137.025C69.914 137.022 69.9059 137.02 69.8977 137.021Z" fill="#263238"/>
<path d="M71.0016 138.302C71.16 137.304 71.2848 136.301 71.3952 135.298C71.3952 135.091 71.4383 134.885 71.4575 134.678C71.8622 133.484 72.2035 132.27 72.4799 131.04C72.4799 130.997 72.4319 130.973 72.4175 131.016C72.0671 131.923 71.7936 132.854 71.5344 133.79C71.7076 132.254 71.8021 130.709 71.8175 129.163C71.8175 129.153 71.8135 129.143 71.8063 129.136C71.7991 129.129 71.7893 129.125 71.7791 129.125C71.769 129.125 71.7592 129.129 71.752 129.136C71.7448 129.143 71.7408 129.153 71.7408 129.163C71.3856 131.155 71.1744 133.171 70.896 135.178C70.7568 136.138 70.2048 140.938 70.1472 140.938C69.8592 140.962 69.5736 141.009 69.2928 141.077C69.1392 141.149 69.24 141.163 69.2928 141.158L70.5312 141.221C70.56 141.187 70.8672 139.152 71.0016 138.302Z" fill="#263238"/>
<path d="M125.074 135.893C125.585 136.435 125.907 137.128 125.994 137.868C126.08 138.608 125.926 139.356 125.554 140.002C125.554 140.002 128.866 139.546 130.354 141.922C131.112 143.136 129.835 145.411 129.835 145.411C129.835 145.411 132.509 145.162 133.675 147.331C134.611 149.064 133.195 151.085 133.195 151.085C133.195 151.085 135.874 152.045 136.262 154.114C137.045 158.323 123.072 167.894 117.384 164.227C114.734 162.514 118.277 160.363 118.277 160.363C118.277 160.363 112.435 162.23 110.39 159.403C108.346 156.576 113.112 154.051 113.112 154.051C113.112 154.051 107.424 155.798 105.6 152.64C103.68 149.362 108.902 147.662 108.902 147.662C108.902 147.662 104.352 147.662 103.502 144.95C102.106 140.443 112.622 140.04 115.21 137.203L111.994 132.034C111.994 132.034 123.077 133.622 125.074 135.893Z" fill="#F7A9A0"/>
<path d="M133.003 151.426C133.046 151.392 133.109 151.426 133.066 151.488C129.226 155.76 123.72 159.274 118.08 160.493C117.898 160.531 117.754 160.248 117.946 160.166C123.518 157.8 128.275 155.256 133.003 151.426Z" fill="#263238"/>
<path d="M129.902 145.378C129.955 145.334 130.022 145.421 129.974 145.474C126.005 149.846 119.683 153.634 113.021 154.277C112.79 154.277 112.541 154.09 112.824 154.042C117.226 153.283 125.664 148.843 129.902 145.378Z" fill="#263238"/>
<path d="M108.398 147.562C114.763 146.702 120.216 143.885 125.4 140.194C125.467 140.141 125.53 140.242 125.482 140.299C123.437 142.8 119.89 144.811 116.995 146.141C114.331 147.425 111.377 147.991 108.427 147.782C108.307 147.773 108.259 147.576 108.398 147.562Z" fill="#263238"/>
<path d="M84.6959 191.04C96.1631 189.994 108.326 187.262 117.384 179.352C118.412 178.5 119.124 177.326 119.405 176.021C123.523 172.55 123.125 169.56 123.125 169.56C125.971 165.154 125.141 162.154 125.141 162.154C125.141 162.154 129.941 158.021 127.92 154.709C125.673 150.989 119.381 157.517 113.726 158.986C100.766 162.346 81.4031 163.531 77.5679 164.131L84.6959 191.04Z" fill="#F7A9A0"/>
<path d="M102.629 172.08C106.421 171.014 110.179 170.064 113.808 168.485C117.787 166.757 121.33 164.424 124.997 162.134C125.02 162.121 125.047 162.117 125.072 162.123C125.098 162.129 125.121 162.144 125.136 162.166C125.151 162.188 125.157 162.214 125.154 162.24C125.15 162.266 125.137 162.29 125.117 162.307C119.141 167.491 110.501 171.168 102.672 172.253C102.485 172.282 102.437 172.133 102.629 172.08Z" fill="#263238"/>
<path d="M103.526 180.197C107.16 178.954 113.534 176.726 123.048 169.474C123.077 169.45 123.129 169.474 123.096 169.526C117.547 175.056 111.12 178.478 103.589 180.37C103.353 180.432 103.286 180.283 103.526 180.197Z" fill="#263238"/>
<path d="M104.093 184.55C110.189 182.198 113.736 179.947 119.366 176.03C119.395 176.006 119.443 176.03 119.41 176.083C113.486 181.205 110.77 182.395 104.146 184.771C103.915 184.853 103.853 184.642 104.093 184.55Z" fill="#263238"/>
<path d="M97.8528 162.077C95.9904 161.846 96.096 160.872 98.952 159.144C101.808 157.416 114.562 153.014 112.651 148.694C110.741 144.374 92.8272 150.85 88.32 154.08C83.8128 157.31 77.592 164.16 77.592 164.16C81.3072 163.584 90.504 163.085 97.8528 162.077Z" fill="#F7A9A0"/>
<path d="M101.088 148.651C102.897 147.952 104.772 147.436 106.685 147.11C107.652 146.937 108.635 146.86 109.617 146.88C110.123 146.893 110.626 146.965 111.115 147.096C111.644 147.224 112.129 147.492 112.517 147.874C112.903 148.294 113.106 148.849 113.083 149.419C113.051 149.957 112.886 150.478 112.603 150.936C112.073 151.787 111.389 152.532 110.587 153.134C109.065 154.325 107.387 155.302 105.6 156.038C106.435 155.558 107.256 155.045 108.038 154.493C108.833 153.964 109.592 153.382 110.309 152.75C111.022 152.151 111.63 151.437 112.109 150.638C112.323 150.265 112.445 149.845 112.464 149.414C112.479 149.009 112.334 148.614 112.061 148.315C111.499 147.734 110.52 147.552 109.608 147.499C108.663 147.453 107.715 147.488 106.776 147.605C105.816 147.706 104.88 147.864 103.934 148.051C102.989 148.238 102.033 148.435 101.088 148.651Z" fill="#263238"/>
<path d="M111.638 159.514C112.723 159.273 113.788 158.952 114.826 158.554C115.839 158.103 116.825 157.594 117.778 157.027C118.738 156.47 119.712 155.928 120.701 155.4C121.699 154.872 122.65 154.334 123.696 153.85C124.229 153.617 124.791 153.455 125.366 153.37C125.967 153.271 126.584 153.327 127.157 153.533C127.45 153.647 127.717 153.821 127.942 154.042C128.166 154.263 128.343 154.527 128.462 154.819C128.677 155.38 128.753 155.984 128.683 156.581C128.565 157.732 128.161 158.836 127.507 159.792C126.875 160.735 126.096 161.569 125.198 162.264L125.227 162.158C125.324 162.541 125.364 162.935 125.347 163.33C125.329 163.717 125.27 164.102 125.17 164.477C125.232 164.098 125.256 163.713 125.242 163.33C125.231 162.953 125.168 162.58 125.054 162.221V162.163L125.102 162.115C125.92 161.377 126.63 160.529 127.214 159.595C127.777 158.668 128.119 157.623 128.213 156.542C128.263 156.026 128.191 155.504 128.002 155.021C127.906 154.8 127.765 154.6 127.589 154.435C127.414 154.27 127.206 154.143 126.979 154.061C126.019 153.715 124.915 153.998 123.931 154.392C121.944 155.304 119.986 156.422 117.994 157.416C117.007 157.952 115.985 158.422 114.936 158.822C113.86 159.153 112.756 159.384 111.638 159.514Z" fill="#263238"/>
<path d="M77.568 164.16C81.2352 164.606 97.3056 187.066 92.1744 188.856C68.04 197.266 46.344 192.835 41.7456 190.738C35.7216 187.982 34.8816 179.75 37.2144 176.098C40.6032 170.789 73.92 163.704 77.568 164.16Z" fill="#F7A9A0"/>
<path d="M50.5583 169.838C62.2463 165.336 77.6159 164.011 77.6447 164.002C77.8799 163.944 78.2015 164.222 78.0719 164.256C75.6719 164.861 59.5391 167.405 50.7119 170.054C50.6351 170.078 50.4815 169.867 50.5583 169.838Z" fill="#263238"/>
<path d="M95.3904 42.984C96.2208 47.6544 100.33 51.4848 100.33 51.4848C100.33 51.4848 105.845 50.4672 109.056 46.9776C111.734 44.0688 111.744 40.08 109.32 38.496C105.845 36.2304 102.926 42.5856 102.926 42.5856C102.926 42.5856 103.886 35.6592 99.7344 35.6976C96.8448 35.7264 94.6992 39.0912 95.3904 42.984Z" fill="#C2C7D6"/>
<path d="M86.9279 24.192C88.0943 26.184 90.6143 27.2448 90.6143 27.2448C90.6143 27.2448 92.9663 25.848 93.8447 23.7168C94.5791 21.9312 93.9119 20.1072 92.5391 19.7952C90.5663 19.344 90.3023 22.7376 90.3023 22.7376C90.3023 22.7376 89.5775 19.4112 87.6863 20.1312C86.3711 20.64 85.9583 22.5264 86.9279 24.192Z" fill="#C2C7D6"/>
</svg>
