<svg width="20" height="21" viewBox="0 0 20 21" fill="none" xmlns="http://www.w3.org/2000/svg">
<path d="M0 4.5C0 2.29086 1.79086 0.5 4 0.5H16C18.2091 0.5 20 2.29086 20 4.5V16.5C20 18.7091 18.2091 20.5 16 20.5H4C1.79086 20.5 0 18.7091 0 16.5V4.5Z" fill="white"/>
<path d="M10.8 8.1H9.2V6.5H10.8V8.1ZM10.8 14.5H9.2V9.7H10.8V14.5ZM10 2.5C8.94943 2.5 7.90914 2.70693 6.93853 3.10896C5.96793 3.511 5.08601 4.10028 4.34315 4.84315C2.84285 6.34344 2 8.37827 2 10.5C2 12.6217 2.84285 14.6566 4.34315 16.1569C5.08601 16.8997 5.96793 17.489 6.93853 17.891C7.90914 18.2931 8.94943 18.5 10 18.5C12.1217 18.5 14.1566 17.6571 15.6569 16.1569C17.1571 14.6566 18 12.6217 18 10.5C18 9.44943 17.7931 8.40914 17.391 7.43853C16.989 6.46793 16.3997 5.58601 15.6569 4.84315C14.914 4.10028 14.0321 3.511 13.0615 3.10896C12.0909 2.70693 11.0506 2.5 10 2.5V2.5Z" fill="#080056"/>
</svg>
