<svg width="194" height="180" viewBox="0 0 194 180" fill="none" xmlns="http://www.w3.org/2000/svg">
<path d="M104 180C153.706 180 194 139.706 194 90C194 40.2944 153.706 0 104 0C54.2944 0 14 40.2944 14 90C14 139.706 54.2944 180 104 180Z" fill="#F0F4FE"/>
<path d="M11.3496 143.805L28.5112 143.728L45.6728 143.699L79.9992 143.648L114.326 143.699L131.487 143.728L148.649 143.805L131.487 143.885L114.326 143.914L79.9992 143.965L45.6728 143.914L28.5112 143.885L11.3496 143.805Z" fill="#263238"/>
<path d="M132.29 60.6401H96.0176V143.808H132.29V60.6401Z" fill="#455A64"/>
<path d="M133.875 58.9536H94.4258V60.64H133.875V58.9536Z" fill="#37474F"/>
<path d="M148.653 58.9536H133.879V60.64H148.653V58.9536Z" fill="#455A64"/>
<path d="M146.859 60.6401H132.289V143.808H146.859V60.6401Z" fill="#37474F"/>
<path d="M128.795 116.992H99.5215V102.358H128.805L128.795 116.992ZM99.6751 116.832H128.641V102.518H99.6719L99.6751 116.832Z" fill="#263238"/>
<path d="M117.296 106.653H108.832V109.533H117.296V106.653Z" fill="#263238"/>
<path d="M118.858 109.399H110.234V106.791H118.858V109.399ZM110.394 109.239H118.698V106.951H110.401L110.394 109.239Z" fill="#263238"/>
<path d="M128.795 135.277H99.5215V120.64H128.805L128.795 135.277ZM99.6751 135.117H128.641V120.803H99.6719L99.6751 135.117Z" fill="#263238"/>
<path d="M117.296 124.938H108.832V127.818H117.296V124.938Z" fill="#263238"/>
<path d="M118.858 127.68H110.234V125.075H118.858V127.68ZM110.401 127.52H118.705V125.235H110.401V127.52Z" fill="#263238"/>
<path d="M128.795 80.4224H99.5215V65.792H128.805L128.795 80.4224ZM99.6751 80.2624H128.641V65.952H99.6719L99.6751 80.2624Z" fill="#263238"/>
<path d="M117.296 70.083H108.832V72.963H117.296V70.083Z" fill="#263238"/>
<path d="M118.858 72.8287H110.234V70.2207H118.858V72.8287ZM110.394 72.6687H118.698V70.3807H110.401L110.394 72.6687Z" fill="#263238"/>
<path d="M116.154 85.645H112.205V87.309H116.154V85.645Z" fill="white"/>
<path d="M116.154 86.0127H112.205V86.1727H116.154V86.0127Z" fill="#C2C7D6"/>
<path d="M116.154 86.7778H112.205V86.9378H116.154V86.7778Z" fill="#C2C7D6"/>
<path d="M128.715 84.1279H103.045V98.6015H128.715V84.1279Z" fill="#263238"/>
<path d="M125.501 79.6895H103.057V95.9583H125.501V79.6895Z" fill="#C2C7D6"/>
<path d="M110.986 78.0034H103.057V79.6898H111.444L110.986 78.0034Z" fill="#C2C7D6"/>
<g opacity="0.3">
<path opacity="0.3" d="M125.501 79.6899H103.057V95.9587H125.501V79.6899Z" fill="black"/>
<path opacity="0.3" d="M110.986 78.0034H103.057V79.6898H111.444L110.986 78.0034Z" fill="black"/>
</g>
<path d="M110.32 78.6626H103.834V79.6418H110.32V78.6626Z" fill="white"/>
<path d="M125.503 95.9586H103.058L102.895 80.6978H125.339L125.503 95.9586Z" fill="#C2C7D6"/>
<path d="M110.807 79.1519H102.877L102.893 80.6975H111.28L110.807 79.1519Z" fill="#C2C7D6"/>
<g opacity="0.1">
<path opacity="0.1" d="M125.501 95.9581H103.056L102.893 80.6973H125.337L125.501 95.9581Z" fill="black"/>
<path opacity="0.1" d="M110.807 79.1519H102.877L102.893 80.6975H111.28L110.807 79.1519Z" fill="black"/>
</g>
<path d="M124.378 78.541H101.934V94.8098H124.378V78.541Z" fill="#C2C7D6"/>
<path d="M109.863 76.8574H101.934V78.5406H110.318L109.863 76.8574Z" fill="#C2C7D6"/>
<g opacity="0.3">
<path opacity="0.3" d="M124.378 78.5405H101.934V94.8093H124.378V78.5405Z" fill="black"/>
<path opacity="0.3" d="M109.863 76.8574H101.934V78.5406H110.318L109.863 76.8574Z" fill="black"/>
</g>
<path d="M109.197 77.5137H102.711V78.4929H109.197V77.5137Z" fill="white"/>
<path d="M124.378 94.8096H101.933L101.77 79.5488H124.214L124.378 94.8096Z" fill="#C2C7D6"/>
<path d="M109.683 78.0063H101.754L101.77 79.5488H110.157L109.683 78.0063Z" fill="#C2C7D6"/>
<g opacity="0.1">
<path opacity="0.1" d="M124.378 94.8096H101.933L101.77 79.5488H124.214L124.378 94.8096Z" fill="black"/>
<path opacity="0.1" d="M109.683 78.0063H101.754L101.77 79.5488H110.157L109.683 78.0063Z" fill="black"/>
</g>
<path d="M114.046 72.7202H91.6016V88.989H114.046V72.7202Z" fill="#C2C7D6"/>
<path d="M99.5312 71.0366H91.6016V72.7198H99.9856L99.5312 71.0366Z" fill="#C2C7D6"/>
<g opacity="0.2">
<path opacity="0.2" d="M114.046 72.7197H91.6016V88.9885H114.046V72.7197Z" fill="black"/>
<path opacity="0.2" d="M99.5312 71.0366H91.6016V72.7198H99.9856L99.5312 71.0366Z" fill="black"/>
</g>
<path d="M98.8673 71.5454H92.3809V72.5246H98.8673V71.5454Z" fill="white"/>
<path d="M92.6203 66.6227L89.9922 82.6714L110.595 86.0452L113.223 69.9965L92.6203 66.6227Z" fill="white"/>
<path d="M94.6895 81.6414L95.7007 75.3694L96.7407 69.1006L95.7295 75.3726L94.6895 81.6414Z" fill="#C7C7C7"/>
<path d="M95.1973 81.7246L96.2085 75.4526L97.2517 69.187L96.2405 75.459L95.1973 81.7246Z" fill="#C7C7C7"/>
<path d="M95.709 81.8081L96.7202 75.5361L97.7634 69.2705L96.7522 75.5425L95.709 81.8081Z" fill="#C7C7C7"/>
<path d="M96.2227 81.8911L97.2339 75.6191L98.2771 69.3535L97.2659 75.6255L96.2227 81.8911Z" fill="#C7C7C7"/>
<path d="M96.7344 81.9778L97.7456 75.7026L98.7888 69.437L97.7776 75.709L96.7344 81.9778Z" fill="#C7C7C7"/>
<path d="M97.2422 82.0608L98.2566 75.7888L99.2966 69.52L98.2854 75.792L97.2422 82.0608Z" fill="#C7C7C7"/>
<path d="M97.7539 82.1438L98.7651 75.8718L99.8083 69.603L98.7971 75.8782L97.7539 82.1438Z" fill="#C7C7C7"/>
<path d="M98.2656 82.2271L99.2768 75.9551L100.32 69.6895L99.3088 75.9615L98.2656 82.2271Z" fill="#C7C7C7"/>
<path d="M98.7793 82.3106L99.7905 76.0386L100.834 69.7729L99.8225 76.045L98.7793 82.3106Z" fill="#C7C7C7"/>
<path d="M99.291 82.3936L100.302 76.1216L101.342 69.856L100.334 76.128L99.291 82.3936Z" fill="#C7C7C7"/>
<path d="M99.7988 82.4803L100.81 76.2083L101.853 69.9395L100.842 76.2115L99.7988 82.4803Z" fill="#C7C7C7"/>
<path d="M100.311 82.5633L101.322 76.2913L102.365 70.0225L101.354 76.2945L100.311 82.5633Z" fill="#C7C7C7"/>
<path d="M100.824 82.6465L101.835 76.3745L102.879 70.1089L101.867 76.3809L100.824 82.6465Z" fill="#C7C7C7"/>
<path d="M101.336 82.7295L102.347 76.4575L103.39 70.1919L102.379 76.4639L101.336 82.7295Z" fill="#C7C7C7"/>
<path d="M101.848 82.813L102.859 76.541L103.899 70.2754L102.888 76.5474L101.848 82.813Z" fill="#C7C7C7"/>
<path d="M100.662 80.278L100.506 81.2285L102.653 81.5802L102.809 80.6296L100.662 80.278Z" fill="#C2C7D6"/>
<path d="M99.81 78.3283L99.6543 79.2788L102.945 79.8177L103.101 78.8671L99.81 78.3283Z" fill="#C2C7D6"/>
<path d="M98.8197 76.3556L98.6641 77.3062L103.237 78.055L103.392 77.1044L98.8197 76.3556Z" fill="#C2C7D6"/>
<path d="M98.5541 74.5011L98.3984 75.4517L103.521 76.2904L103.676 75.3399L98.5541 74.5011Z" fill="#C2C7D6"/>
<path d="M97.8607 72.5744L97.7051 73.5249L103.809 74.5245L103.965 73.574L97.8607 72.5744Z" fill="#C2C7D6"/>
<path d="M97.183 70.6496L97.0273 71.6001L104.098 72.758L104.254 71.8074L97.183 70.6496Z" fill="#C2C7D6"/>
<path d="M94.4004 81.2417L96.4324 81.5617L98.4644 81.8817C99.8191 82.095 101.172 82.3083 102.522 82.5217L102.455 82.5697L102.951 79.5201L103.456 76.4737L103.978 73.4273L104.512 70.3809L104.045 73.4369L103.565 76.4897L103.076 79.5425L102.573 82.5889V82.6497H102.512C101.162 82.4257 99.8084 82.2017 98.458 81.9681L96.4068 81.6001L94.4004 81.2417Z" fill="#C7C7C7"/>
<path d="M103.328 80.2437L103.174 81.1973L103.259 81.2111L103.413 80.2575L103.328 80.2437Z" fill="#C7C7C7"/>
<path d="M103.527 78.9372L103.371 79.8877L103.456 79.9017L103.612 78.9511L103.527 78.9372Z" fill="#C7C7C7"/>
<path d="M103.894 76.7222L103.74 77.6758L103.826 77.6896L103.98 76.736L103.894 76.7222Z" fill="#C7C7C7"/>
<path d="M104.109 75.4084L103.953 76.3589L104.038 76.3728L104.194 75.4223L104.109 75.4084Z" fill="#C7C7C7"/>
<path d="M104.396 73.6452L104.24 74.5957L104.325 74.6097L104.481 73.6591L104.396 73.6452Z" fill="#C7C7C7"/>
<path d="M104.683 71.8825L104.527 72.833L104.613 72.847L104.768 71.8964L104.683 71.8825Z" fill="#C7C7C7"/>
<path d="M100.8 81.1712C100.869 80.7058 100.91 80.2367 100.922 79.7664C100.938 79.2959 100.931 78.8249 100.9 78.3552C100.846 77.4185 100.682 76.4915 100.41 75.5936C100.144 74.6941 99.7458 73.8389 99.2291 73.056L99.1331 72.9088L99.0307 72.7648L98.8195 72.4832C98.6691 72.304 98.5283 72.1152 98.3619 71.9488C98.0441 71.6046 97.7018 71.2838 97.3379 70.9888C98.4954 71.8267 99.4204 72.9456 100.026 74.24C100.231 74.6674 100.402 75.1104 100.538 75.5648C100.81 76.475 100.967 77.4156 101.005 78.3648C101.051 79.3051 100.983 80.2475 100.8 81.1712Z" fill="#263238"/>
<path d="M98.0431 70.8193L98.0559 70.9569L97.3807 71.0145L97.4863 71.6833L97.3487 71.7025L97.2207 70.8897L98.0431 70.8193Z" fill="#263238"/>
<path d="M106.123 83.7921L108.264 70.7183L107.733 70.6314L105.592 83.7052L106.123 83.7921Z" fill="#DBDBDB"/>
<path d="M107.457 84.013L108.662 76.6519L108.132 76.565L106.926 83.9261L107.457 84.013Z" fill="#DBDBDB"/>
<path d="M93.5153 78.7928L94.7207 71.4316L94.1902 71.3448L92.9847 78.7059L93.5153 78.7928Z" fill="#DBDBDB"/>
<path d="M113.985 88.9887H91.5437L89.8125 74.0703H112.254L113.985 88.9887Z" fill="#C2C7D6"/>
<path d="M97.5624 72.5249H89.6328L89.812 74.0705H98.196L97.5624 72.5249Z" fill="#C2C7D6"/>
<path d="M111.134 79.0049H88.6895V95.2737H111.134V79.0049Z" fill="#C2C7D6"/>
<path d="M96.6183 77.3184H88.6855V79.0048H97.0727L96.6183 77.3184Z" fill="#C2C7D6"/>
<g opacity="0.2">
<path opacity="0.2" d="M111.134 79.0049H88.6895V95.2737H111.134V79.0049Z" fill="white"/>
<path opacity="0.2" d="M96.6183 77.3184H88.6855V79.0048H97.0727L96.6183 77.3184Z" fill="white"/>
</g>
<path d="M95.9532 77.9775H89.4668V78.9567H95.9532V77.9775Z" fill="white"/>
<path d="M111.13 95.2735H88.6854L88.5254 80.0127H110.967L111.13 95.2735Z" fill="#C2C7D6"/>
<path d="M96.4355 78.4673H88.5059L88.5251 80.0129H96.9091L96.4355 78.4673Z" fill="#C2C7D6"/>
<g opacity="0.4">
<path opacity="0.4" d="M111.13 95.2735H88.6854L88.5254 80.0127H110.967L111.13 95.2735Z" fill="white"/>
<path opacity="0.4" d="M96.4355 78.4673H88.5059L88.5251 80.0129H96.9091L96.4355 78.4673Z" fill="white"/>
</g>
<path d="M116.35 84.1279H87.2266V98.6015H116.35V84.1279Z" fill="#455A64"/>
<path d="M116.426 98.6815H87.1465V84.0479H116.426V98.6815ZM87.3065 98.5215H116.266V84.2079H87.3065V98.5215Z" fill="#263238"/>
<path d="M104.929 88.3394H96.4648V91.2194H104.929V88.3394Z" fill="#263238"/>
<path d="M106.494 91.0851H97.8535V88.4771H106.494V91.0851ZM98.0263 90.9251H106.346V88.6403H98.0263V90.9251Z" fill="#263238"/>
<path d="M128.714 86.2979H116.41V98.6019H128.714V86.2979Z" fill="#37474F"/>
<path d="M45.1827 128.605H12.7539V143.805H45.1827V128.605Z" fill="#C2C7D6"/>
<path opacity="0.1" d="M45.1827 128.605H12.7539V143.805H45.1827V128.605Z" fill="#020100"/>
<path opacity="0.1" d="M45.1833 128.605H34.4473V143.805H45.1833V128.605Z" fill="#020100"/>
<path opacity="0.1" d="M45.1827 128.605H12.7539V131.946L45.1827 130.275V128.605Z" fill="#020100"/>
<path d="M46.5912 125.722H11.3496V129.533H46.5912V125.722Z" fill="#C2C7D6"/>
<path opacity="0.1" d="M46.5912 125.722H11.3496V129.533H46.5912V125.722Z" fill="#020100"/>
<path opacity="0.1" d="M46.5871 125.722H34.9199V129.533H46.5871V125.722Z" fill="#020100"/>
<path d="M27.3554 131.587H19.8418V133.92H27.3554V131.587Z" fill="#263238"/>
<path d="M38.1747 108.362H17.3203V123.479H38.1747V108.362Z" fill="#C2C7D6"/>
<path d="M24.6899 106.797H17.3203V108.362H25.1123L24.6899 106.797Z" fill="#C2C7D6"/>
<g opacity="0.3">
<path opacity="0.3" d="M38.1747 108.362H17.3203V123.479H38.1747V108.362Z" fill="black"/>
<path opacity="0.3" d="M24.6899 106.797H17.3203V108.362H25.1123L24.6899 106.797Z" fill="black"/>
</g>
<path d="M24.0705 107.408H18.0449V108.32H24.0705V107.408Z" fill="white"/>
<path d="M38.1747 123.479H17.3203L17.1699 109.299H38.0211L38.1747 123.479Z" fill="#C2C7D6"/>
<path d="M24.5207 107.866H17.1543L17.1703 109.299H24.9591L24.5207 107.866Z" fill="#C2C7D6"/>
<g opacity="0.1">
<path opacity="0.1" d="M38.1747 123.479H17.3203L17.1699 109.299H38.0211L38.1747 123.479Z" fill="black"/>
<path opacity="0.1" d="M24.5207 107.866H17.1543L17.1703 109.299H24.9591L24.5207 107.866Z" fill="black"/>
</g>
<path d="M35.4872 109.501H14.6328V124.618H35.4872V109.501Z" fill="#C2C7D6"/>
<path d="M22.0024 107.936H14.6328V109.501H22.4248L22.0024 107.936Z" fill="#C2C7D6"/>
<g opacity="0.2">
<path opacity="0.2" d="M35.4872 109.501H14.6328V124.618H35.4872V109.501Z" fill="white"/>
<path opacity="0.2" d="M22.0024 107.936H14.6328V109.501H22.4248L22.0024 107.936Z" fill="white"/>
</g>
<path d="M21.3811 108.547H15.3555V109.459H21.3811V108.547Z" fill="white"/>
<path d="M35.4872 124.618H14.6328L14.4824 110.438H35.3336L35.4872 124.618Z" fill="#C2C7D6"/>
<path d="M21.8332 109.005H14.4668L14.4828 110.438H22.2748L21.8332 109.005Z" fill="#C2C7D6"/>
<g opacity="0.4">
<path opacity="0.4" d="M35.4872 124.618H14.6328L14.4824 110.438H35.3336L35.4872 124.618Z" fill="white"/>
<path opacity="0.4" d="M21.8332 109.005H14.4668L14.4828 110.438H22.2748L21.8332 109.005Z" fill="white"/>
</g>
<path d="M46.1886 110.519H13.7598V125.719H46.1886V110.519Z" fill="#455A64"/>
<path d="M46.1852 110.519H35.4492V125.719H46.1852V110.519Z" fill="#37474F"/>
<path opacity="0.1" d="M46.1854 110.519H13.7598V113.859L46.1854 112.189V110.519Z" fill="#020100"/>
<path d="M28.3613 113.504H20.8477V115.837H28.3613V113.504Z" fill="#263238"/>
<path d="M53.1173 108.995L18.4941 102.422L17.7833 106.166L52.4064 112.74L53.1173 108.995Z" fill="#455A64"/>
<path d="M52.6135 108.914L41.1797 106.697L40.4556 110.432L51.8894 112.649L52.6135 108.914Z" fill="#37474F"/>
<path d="M107.748 143.696C106.96 143.952 84.4483 143.754 83.5939 143.203C83.2739 142.995 83.1043 139.715 83.0211 135.747C83.0051 134.89 81.3027 121.075 81.3027 121.075L96.3427 121.165L97.5235 135.834C97.5235 135.834 106.109 139.763 106.983 140.467C107.856 141.171 108.538 143.44 107.748 143.696Z" fill="#F7A9A0"/>
<path d="M107.747 143.696C106.959 143.952 84.4473 143.754 83.5929 143.203C83.3465 143.046 83.1929 141.126 83.0938 138.474C86.0057 139.142 102.374 140.486 104.255 140.259C106.073 140.042 101.862 137.875 101.1 137.491C103.571 138.656 106.502 140.07 106.995 140.467C107.859 141.171 108.537 143.44 107.747 143.696Z" fill="#263238"/>
<path d="M65.6255 60.1792C65.6255 60.1792 61.6895 65.8944 63.8559 72.1024C67.5519 82.7072 76.9375 94.64 77.2287 96.0032C77.9071 99.2224 81.5263 132.195 81.5263 132.195L97.7279 132.093C97.7279 132.093 95.5775 104.125 92.7231 94.8864C91.1647 89.8432 82.2591 76.0064 78.4159 69.2864C78.0735 68.6848 78.8831 66.0864 78.8831 66.0864L65.6255 60.1792Z" fill="#263238"/>
<path d="M96.7484 129.28C94.1372 129.229 86.2332 129.011 82.7516 129.28C82.726 129.28 82.726 129.325 82.7516 129.331C83.9452 129.517 94.1372 129.392 96.7484 129.331C96.7547 129.324 96.7582 129.315 96.7582 129.306C96.7582 129.296 96.7547 129.287 96.7484 129.28Z" fill="#37474F"/>
<path d="M62.8229 67.9807C63.9461 69.7919 65.1333 71.5647 66.2821 73.3599C67.4309 75.1551 68.5765 76.9535 69.7061 78.7615C71.9653 82.3754 74.1691 86.0212 76.3173 89.6991C77.3632 91.3954 78.2532 93.183 78.9765 95.0399C79.6396 96.9003 80.1302 98.8177 80.4421 100.768C80.7621 102.723 80.9829 104.697 81.1813 106.669C81.3947 108.768 81.6027 110.868 81.8053 112.969C82.232 117.266 82.6587 121.565 83.0853 125.865C83.1365 126.39 83.1877 126.918 83.2357 127.446C83.2357 127.523 83.1045 127.536 83.0949 127.446C82.6117 123.174 82.2213 118.893 81.7861 114.614C81.5728 112.481 81.3595 110.348 81.1461 108.214C80.9445 106.237 80.7557 104.256 80.4741 102.285C80.214 100.344 79.8097 98.4248 79.2645 96.5439C78.6512 94.5986 77.8248 92.727 76.8005 90.9631C74.7397 87.3023 72.5541 83.7055 70.3653 80.1119C68.1765 76.5183 65.9365 72.8799 63.6261 69.3215C63.3413 68.8799 63.0533 68.4447 62.7557 68.0095C62.7429 67.9775 62.8005 67.9455 62.8229 67.9807Z" fill="#37474F"/>
<path d="M66.7517 143.805C65.9229 143.744 44.6205 134.806 44.0317 133.978C44.0085 133.928 43.9986 133.873 44.0029 133.818C44.0029 133.082 54.2013 114.595 54.2013 114.595L68.1277 120.32L60.2333 132.675C60.2333 132.675 66.7165 139.542 67.2733 140.522C67.8301 141.501 67.5773 143.862 66.7517 143.805Z" fill="#F7A9A0"/>
<path d="M67.2605 140.528C67.7981 141.507 67.5805 143.863 66.7517 143.805C65.9229 143.747 44.6205 134.807 44.0317 133.978C44.0085 133.928 43.9986 133.873 44.0029 133.818C44.0029 133.578 45.0973 131.443 46.5629 128.679C49.5837 122.979 54.2013 114.599 54.2013 114.599L68.1277 120.32L60.2333 132.675C60.2333 132.675 62.0221 134.573 63.7981 136.515C65.4109 138.279 67.0013 140.064 67.2605 140.528Z" fill="#F7A9A0"/>
<path d="M66.7517 143.805C65.9229 143.744 44.6205 134.806 44.0317 133.977C44.0085 133.927 43.9986 133.872 44.0029 133.817C44.0029 133.577 45.0973 131.443 46.5629 128.678C50.2397 132.547 64.7485 139.6 65.2253 139.401C65.7021 139.203 63.9229 136.701 63.8013 136.521C65.4013 138.275 67.0013 140.061 67.2573 140.525C67.7981 141.507 67.5773 143.862 66.7517 143.805Z" fill="#263238"/>
<path d="M62.2885 130.749L47.4277 124.535C47.4277 124.535 66.4741 95.9169 66.6277 93.7953C66.7781 91.9137 58.4485 75.4273 58.1733 70.6465C57.8725 65.4913 60.4133 61.5329 63.1589 59.0913L78.8677 66.0609C78.8677 66.0609 77.4949 68.8673 74.7909 70.3521C74.7909 70.3521 82.8421 89.3889 82.3013 95.2065C81.7605 101.024 62.2885 130.749 62.2885 130.749Z" fill="#263238"/>
<path d="M63.0213 127.779C60.9701 126.861 61.5717 127.094 59.5013 126.202C58.4933 125.763 51.8533 122.902 50.8325 122.682C50.8101 122.682 50.7941 122.717 50.8133 122.73C51.6869 123.299 58.3813 126.035 59.4021 126.448C61.4821 127.299 60.8965 127.03 62.9893 127.853C63.0405 127.862 63.0597 127.798 63.0213 127.779Z" fill="#37474F"/>
<path d="M77.1458 70.5059C75.4195 70.6305 73.7068 70.9003 72.0258 71.3123C72.0122 71.3123 71.9992 71.3177 71.9896 71.3273C71.98 71.3369 71.9746 71.3499 71.9746 71.3635C71.9746 71.377 71.98 71.3901 71.9896 71.3997C71.9992 71.4093 72.0122 71.4147 72.0258 71.4147C73.7346 71.1971 75.4626 71.0147 77.1458 70.7075C77.1695 70.7032 77.1909 70.6908 77.2063 70.6724C77.2217 70.654 77.2302 70.6307 77.2302 70.6067C77.2302 70.5826 77.2217 70.5594 77.2063 70.5409C77.1909 70.5225 77.1695 70.5101 77.1458 70.5059Z" fill="#37474F"/>
<path d="M75.3574 69.5488C75.1581 69.8001 74.9753 70.0641 74.8102 70.3392C74.6617 70.5455 74.5532 70.7777 74.4902 71.024C74.4902 71.072 74.5478 71.0944 74.5798 71.0688C74.7798 70.8923 74.9514 70.6862 75.0886 70.4576C75.2646 70.2144 75.4502 69.9776 75.6198 69.7312C75.6415 69.6964 75.6489 69.6546 75.6406 69.6144C75.6323 69.5743 75.6089 69.5388 75.5752 69.5154C75.5416 69.492 75.5002 69.4825 75.4597 69.4887C75.4191 69.4949 75.3826 69.5164 75.3574 69.5488Z" fill="#37474F"/>
<path d="M78.7418 65.0015C78.7418 64.9727 78.6938 64.9471 78.6842 64.9759C78.3654 65.8304 77.9957 66.6649 77.577 67.4751C77.3882 67.8559 76.1946 69.8975 75.433 69.4495C75.3082 69.3759 75.2794 69.2383 75.321 69.0591C75.4081 68.8292 75.5289 68.6135 75.6794 68.4191C75.9418 67.9967 76.185 67.5647 76.4026 67.1231C76.8169 66.3026 77.1286 65.4342 77.3306 64.5375C77.3306 64.5087 77.289 64.4927 77.2762 64.5215C76.8557 65.7213 76.3288 66.8811 75.7018 67.9871C75.3818 68.5151 74.7418 69.2479 75.4042 69.5871C76.0666 69.9263 77.097 68.6655 77.3242 68.3071C77.9627 67.2841 78.4407 66.1693 78.7418 65.0015Z" fill="#37474F"/>
<path d="M75.0503 70.9727C75.6103 72.1951 76.0999 73.4143 76.6215 74.6335C77.1431 75.8527 77.6071 77.0303 78.0711 78.2431C79.0023 80.6879 79.8375 83.1807 80.5639 85.6959C80.9223 86.9397 81.2497 88.193 81.5463 89.4559C81.8722 90.7173 82.1064 92.0007 82.2471 93.2959C82.3712 94.5879 82.2451 95.8917 81.8759 97.1359C81.4951 98.4159 79.3415 102.653 78.7527 103.84C78.3943 104.563 78.2727 104.464 78.4487 104.099C78.9447 103.059 81.8983 96.7711 81.8407 94.1119C81.7763 92.8287 81.5888 91.5545 81.2807 90.3071C80.9991 89.0271 80.6791 87.7631 80.3207 86.5023C79.6359 84.0223 78.8135 81.5903 77.9655 79.1583C77.4919 77.7983 76.9799 76.4479 76.4967 75.0911C76.0135 73.7343 75.5079 72.4895 74.9703 70.9951C74.9688 70.9899 74.9684 70.9844 74.969 70.979C74.9697 70.9735 74.9714 70.9683 74.9741 70.9636C74.9795 70.954 74.9885 70.9469 74.9991 70.9439C75.0097 70.941 75.0211 70.9423 75.0307 70.9477C75.0403 70.9531 75.0473 70.9621 75.0503 70.9727Z" fill="#37474F"/>
<path d="M63.2068 66.8034C63.4884 66.7042 63.8756 66.8802 64.1668 66.9314C64.5337 66.9984 64.9047 67.0401 65.2772 67.0562C65.6442 67.0744 66.0121 67.0669 66.378 67.0338C66.7469 67.0286 67.1095 66.9376 67.4372 66.7682C67.9746 66.3867 68.4358 65.9081 68.7972 65.357C69.2317 64.7966 69.592 64.1825 69.8692 63.5298C69.8692 63.4914 69.9396 63.5298 69.9268 63.5586C69.8052 63.9298 69.7124 64.3074 69.5588 64.6754C69.4072 65.017 69.2296 65.3465 69.0276 65.661C68.6596 66.253 68.2372 66.8802 67.6132 67.2258C66.9892 67.5714 66.122 67.5458 65.3988 67.5074C64.979 67.4769 64.5619 67.416 64.1508 67.325C63.8564 67.2578 63.3572 67.2034 63.1716 66.941C63.1638 66.93 63.1584 66.9174 63.1559 66.9041C63.1534 66.8908 63.1538 66.8771 63.1572 66.864C63.1605 66.8509 63.1667 66.8387 63.1753 66.8282C63.1839 66.8178 63.1946 66.8093 63.2068 66.8034Z" fill="#37474F"/>
<path d="M52.1599 121.302C54.7839 117.437 57.3599 113.541 59.8879 109.616C62.4159 105.691 64.9109 101.728 67.3727 97.7279C67.9583 96.7679 68.6367 95.8079 69.0207 94.7647C69.4367 93.6127 69.2223 92.4895 68.8703 91.3535C68.2176 89.2748 67.4462 87.2352 66.5599 85.2447C65.6831 83.2415 64.7327 81.2735 63.8015 79.2959C62.8703 77.3183 61.8815 75.3663 61.1967 73.3087C60.5343 71.3439 60.2975 69.3119 60.8479 67.2895C61.3983 65.2671 62.5503 63.4879 63.7535 61.8143C64.0735 61.3727 64.3935 60.9375 64.7135 60.4959C64.7391 60.4639 64.7903 60.4959 64.7647 60.5375C63.4399 62.2815 62.1439 64.1279 61.3567 66.1823C60.9532 67.1962 60.7207 68.27 60.6687 69.3599C60.6423 70.4704 60.7947 71.5779 61.1199 72.6399C61.7279 74.6975 62.7199 76.6495 63.6127 78.5855C64.5055 80.5215 65.4975 82.5311 66.3903 84.5247C67.3052 86.5269 68.1149 88.5756 68.8159 90.6623C69.1199 91.5935 69.4559 92.5823 69.4271 93.5615C69.3919 94.6495 68.8607 95.6223 68.3103 96.5343C65.9199 100.48 63.4431 104.397 60.9311 108.288C58.4191 112.179 55.8463 116.07 53.2511 119.92L52.2623 121.373C52.2079 121.434 52.1215 121.36 52.1599 121.302Z" fill="#37474F"/>
<path d="M91.7442 51.2C91.749 51.3644 91.7115 51.5272 91.6353 51.6729C91.5591 51.8185 91.4467 51.9422 91.309 52.032C91.0848 52.1851 90.8507 52.323 90.6082 52.4448C90.6754 51.5104 90.6402 50.544 90.6082 49.6192C90.5826 48.5344 90.4962 47.472 90.3842 46.4H90.3618C90.4034 47.4848 90.4098 48.5792 90.4258 49.6672C90.4258 50.6272 90.3842 51.5872 90.4034 52.5472C90.1538 52.6624 89.901 52.7616 89.645 52.8672C89.661 52.5472 89.677 52.2016 89.6866 51.8688C89.7186 50.8672 89.6706 49.8784 89.6546 48.88C89.6546 48.8544 89.6258 48.8544 89.6258 48.88C89.6258 49.84 89.5554 50.8352 89.5138 51.808C89.5138 52.1824 89.4818 52.5568 89.4594 52.9312C89.2866 52.9888 89.1106 53.0432 88.9378 53.0944C88.8226 53.1264 88.7074 53.1584 88.5922 53.184C88.6082 52.544 88.5922 51.8656 88.5922 51.2224C88.5922 50.1824 88.5282 49.1488 88.5154 48.1088C88.5154 48.0704 88.4674 48.0704 88.4674 48.1088C88.4674 49.1456 88.4258 50.1856 88.4162 51.2224C88.4162 51.888 88.3746 52.5696 88.3714 53.2448C86.8321 53.5803 85.2426 53.6162 83.6898 53.3504C82.7869 53.202 81.8961 52.9881 81.0242 52.7104C80.813 52.6432 80.2754 52.4544 79.7442 52.2592C79.7442 51.9392 79.7442 51.6192 79.7442 51.328C79.7634 50.6368 79.7442 49.936 79.7826 49.248C79.7826 49.2288 79.7602 49.2256 79.757 49.248C79.7026 49.9424 79.6098 50.6304 79.5746 51.3248C79.5746 51.6032 79.5394 51.8944 79.5266 52.1856L78.9954 51.9808C79.0978 50.6752 79.069 49.344 79.1074 48.0416C79.1074 48.0096 79.0722 48.0096 79.069 48.0416C78.9794 49.3216 78.8194 50.6016 78.7906 51.9008C78.6679 51.8586 78.5508 51.8017 78.4418 51.7312C78.1826 51.4848 78.5346 46.3232 78.5922 45.1168C78.701 42.8768 78.813 40.1792 79.3698 38.0096C79.8466 36.1568 80.8258 33.5072 85.4498 33.5872C88.8354 33.648 90.413 37.1872 90.6914 39.2416C90.8322 40.3008 91.6002 47.2416 91.677 49.4528C91.7058 50.0224 91.7538 50.624 91.7442 51.2Z" fill="#263238"/>
<path d="M78.4228 48.8062C77.8948 53.0526 78.6628 62.995 80.1092 65.0622C81.2132 66.643 88.0004 69.1198 90.9028 69.7598C92.1476 70.0382 93.9429 62.6398 93.0341 62.3134C90.2244 61.3118 85.738 59.4334 84.986 58.9822C84.458 58.6622 83.5972 55.3182 81.4916 48.9374C80.3204 45.4014 78.7204 46.4158 78.4228 48.8062Z" fill="#F7A9A0"/>
<path d="M95.5684 70.2946C95.0692 70.2946 95.0756 70.5698 95.786 71.0978C96.4964 71.6258 99.7668 73.1138 99.1524 74.2082C98.538 75.3026 93.9556 73.1394 92.8388 72.1698C91.722 71.2002 90.25 69.2354 90.25 69.2354C91.226 69.4786 93.6484 69.8434 95.5684 70.2946Z" fill="#F7A9A0"/>
<path d="M92.7995 62.291C95.5227 63.075 98.9595 63.891 101.161 66.2046C101.411 66.4573 101.57 66.7861 101.612 67.139C102.617 68.1598 102.435 68.9406 102.435 68.9406C103.075 70.179 102.784 70.9534 102.784 70.9534C102.784 70.9534 103.948 72.1662 103.334 72.995C102.643 73.923 101.142 72.035 99.6795 71.507C96.3355 70.2878 91.2347 69.491 90.2363 69.235L92.7995 62.291Z" fill="#F7A9A0"/>
<path d="M97.0851 67.7632C98.0724 68.1081 99.0347 68.5208 99.9651 68.9984C100.947 69.5808 101.884 70.2354 102.768 70.9568C102.797 70.9792 102.832 70.9568 102.807 70.9184C101.238 69.3503 99.2689 68.2433 97.1139 67.7184C97.0499 67.7088 97.0339 67.744 97.0851 67.7632Z" fill="#263238"/>
<path d="M97.5268 65.6385C98.458 66.0577 100.087 66.8097 102.426 68.9665C102.426 68.9665 102.448 68.9665 102.426 68.9665C101.142 67.4143 99.4529 66.2488 97.546 65.6001C97.4852 65.5713 97.4628 65.6001 97.5268 65.6385Z" fill="#263238"/>
<path d="M97.7854 64.4994C99.3406 65.2738 100.224 65.9618 101.625 67.1394C101.625 67.1394 101.645 67.1394 101.625 67.1394C100.182 65.6322 99.491 65.2514 97.8014 64.4546C97.7438 64.4162 97.7246 64.4674 97.7854 64.4994Z" fill="#263238"/>
<path d="M89.578 70.2689L92.2212 61.5073C92.2212 61.5073 85.9588 59.0625 85.0948 58.6273C84.7268 58.4481 82.5092 51.2673 81.3892 48.1665C80.65 46.1249 78.6372 45.1937 78.1028 49.3505C77.7828 51.7857 77.994 63.4817 79.6452 65.3505C80.9604 66.8321 89.578 70.2689 89.578 70.2689Z" fill="#C2C7D6"/>
<path d="M88.1094 69.1937C88.199 68.5537 89.015 65.9297 89.2262 65.2833C89.4374 64.6369 90.3686 62.0833 90.5862 61.4049C90.5862 61.3665 90.6534 61.3729 90.6406 61.4049C90.4358 62.0641 89.7062 64.7105 89.5014 65.3601C89.2966 66.0097 88.4518 68.6017 88.1446 69.2001C88.1426 69.2034 88.1396 69.206 88.136 69.2075C88.1325 69.2091 88.1286 69.2096 88.1248 69.2089C88.121 69.2082 88.1175 69.2064 88.1147 69.2037C88.112 69.2009 88.1101 69.1975 88.1094 69.1937Z" fill="#263238"/>
<path opacity="0.1" d="M86.5468 69.0017C83.9292 67.8689 80.438 66.2497 79.6444 65.3505C77.9932 63.4913 77.7884 51.7953 78.102 49.3505C78.5532 45.8305 80.0668 45.9585 80.982 47.3217L86.5468 69.0017Z" fill="#020100"/>
<path d="M78.8828 66.0607L80.2076 59.3823C80.2076 59.3823 82.5596 58.5599 82.518 55.5199C82.518 54.1215 81.846 48.6591 80.278 46.4991C78.7996 44.4767 76.438 44.9695 74.9948 45.6735C72.2012 47.0495 68.2268 50.9183 63.1836 59.0911L78.8828 66.0607Z" fill="#C2C7D6"/>
<path d="M76.3842 57.0977C77.0349 57.3538 77.6578 57.6755 78.2434 58.0577C78.5346 58.2561 78.8162 58.4705 79.0946 58.6977C79.2322 58.8129 79.3762 58.9153 79.517 59.0177C79.6592 59.1325 79.8206 59.2214 79.9938 59.2801C79.9938 59.2801 79.9938 59.3185 79.9938 59.3153C79.8277 59.2863 79.6648 59.2413 79.5074 59.1809C79.3553 59.113 79.2097 59.0316 79.0722 58.9377C78.7746 58.7425 78.4834 58.5249 78.189 58.3265C77.6006 57.9132 76.9918 57.5298 76.365 57.1777C76.3266 57.1585 76.3522 57.0849 76.3842 57.0977Z" fill="#263238"/>
<path d="M74.5413 57.5294C75.1062 57.5836 75.6659 57.6832 76.2149 57.827C76.4881 57.9019 76.7563 57.9938 77.0181 58.1022C77.1461 58.1502 77.2709 58.2046 77.3957 58.2622C77.5205 58.3198 77.6613 58.4126 77.7989 58.4702C77.7989 58.4702 77.7989 58.5118 77.7989 58.5054C77.6677 58.4542 77.5237 58.4382 77.3893 58.3998L76.9829 58.2814L76.1605 58.0478C75.6165 57.8846 75.0757 57.7278 74.5253 57.5934C74.4933 57.5998 74.5093 57.5262 74.5413 57.5294Z" fill="#263238"/>
<path d="M77.721 45.8048C77.673 46.16 78.3962 48.9056 79.9994 49.2832C80.8346 49.4784 81.417 46.8608 81.417 46.8608L81.5354 46.6816L83.1866 44.1824L80.7578 40.9024L80.3962 40.4512C80.3962 40.4512 79.9898 41.168 79.4938 42.0512C79.4714 42.0928 79.4458 42.1344 79.4234 42.1792C79.401 42.224 79.3658 42.2752 79.3402 42.3232C79.2634 42.4544 79.1866 42.592 79.113 42.7296C79.0394 42.8672 79.001 42.9344 78.9466 43.0496C78.8922 43.1648 78.8314 43.2704 78.7738 43.3696C78.3679 44.1564 78.0161 44.97 77.721 45.8048Z" fill="#F7A9A0"/>
<path d="M79.4951 42.0608C79.4796 42.933 79.6542 43.7981 80.0068 44.5961C80.3593 45.3941 80.8814 46.1057 81.5367 46.6816L83.1879 44.1824L80.7591 40.9024L80.3975 40.4512C80.3975 40.4512 80.0007 41.168 79.4951 42.0608Z" fill="#263238"/>
<path d="M88.7509 41.7409C87.1989 46.7649 84.0149 46.4001 82.9333 46.0641C81.9477 45.7601 78.6389 44.5985 79.6661 39.4401C80.6933 34.2817 83.5061 33.4145 85.8005 34.0001C88.0949 34.5857 90.3029 36.7169 88.7509 41.7409Z" fill="#F7A9A0"/>
<path d="M88.0613 41.0816C87.9525 41.024 87.8596 40.9504 87.7572 40.8832C87.6548 40.816 87.5397 40.7584 87.4853 40.624C87.4727 40.5845 87.4738 40.5419 87.4883 40.503C87.5028 40.4641 87.5299 40.4313 87.5653 40.4096C87.6417 40.3772 87.7254 40.366 87.8077 40.3773C87.8899 40.3886 87.9676 40.4218 88.0325 40.4736C88.1837 40.5537 88.2983 40.6889 88.3525 40.8512C88.363 40.8894 88.362 40.9298 88.3497 40.9675C88.3374 41.0051 88.3143 41.0383 88.2832 41.0629C88.2521 41.0875 88.2145 41.1024 88.175 41.1057C88.1356 41.109 88.096 41.1006 88.0613 41.0816Z" fill="#263238"/>
<path d="M84.9383 39.3375C85.055 39.3737 85.1736 39.4036 85.2935 39.4271C85.4127 39.4748 85.5444 39.4815 85.6679 39.4463C85.7048 39.428 85.7346 39.3979 85.7526 39.3608C85.7705 39.3238 85.7756 39.2818 85.7671 39.2414C85.739 39.1634 85.6901 39.0946 85.6259 39.0421C85.5616 38.9897 85.4844 38.9557 85.4023 38.9438C85.241 38.8939 85.067 38.9041 84.9127 38.9726C84.8791 38.9912 84.8514 39.019 84.8331 39.0528C84.8147 39.0866 84.8064 39.1249 84.8091 39.1632C84.8118 39.2016 84.8254 39.2383 84.8483 39.2692C84.8712 39.3001 84.9024 39.3237 84.9383 39.3375Z" fill="#263238"/>
<path d="M85.1351 40.8096C85.1351 40.8096 85.1031 40.8096 85.0999 40.8288C84.9815 41.1488 84.7799 41.5328 84.4407 41.5264C84.4407 41.5264 84.4247 41.5264 84.4407 41.5456C84.8279 41.6384 85.0775 41.1488 85.1351 40.8096Z" fill="#263238"/>
<path d="M84.9734 40.3426C84.455 40.0962 83.9942 41.1554 84.4774 41.3858C84.9606 41.6162 85.4118 40.5538 84.9734 40.3426Z" fill="#263238"/>
<path d="M84.7417 40.32C84.6233 40.3392 84.4857 40.4064 84.3705 40.368C84.2553 40.3296 84.1849 40.1728 84.1465 40.0288C84.1465 40.0288 84.1465 40.0288 84.1241 40.0288C84.0651 40.1186 84.0425 40.2274 84.061 40.3332C84.0794 40.4391 84.1374 40.5339 84.2233 40.5984C84.3212 40.6412 84.4316 40.6459 84.5328 40.6116C84.6341 40.5773 84.7188 40.5064 84.7705 40.4128C84.7993 40.3712 84.7993 40.3008 84.7417 40.32Z" fill="#263238"/>
<path d="M87.0211 41.6704C87.0211 41.6704 87.0403 41.6992 87.0211 41.712C86.8611 42.032 86.7363 42.4288 86.9827 42.672C86.9827 42.672 86.9827 42.6976 86.9827 42.6912C86.6467 42.4736 86.8195 41.952 87.0211 41.6704Z" fill="#263238"/>
<path d="M87.4661 41.4625C88.0101 41.6609 87.5749 42.7425 87.0725 42.5473C86.5701 42.3521 87.0117 41.2961 87.4661 41.4625Z" fill="#263238"/>
<path d="M87.6532 41.5998C87.7204 41.699 87.7684 41.843 87.8772 41.9006C87.986 41.9582 88.146 41.9006 88.2772 41.8206C88.2772 41.8206 88.2964 41.8206 88.2772 41.843C88.1972 42.0478 88.0308 42.227 87.8004 42.163C87.57 42.099 87.5156 41.8718 87.5508 41.6446C87.5668 41.5998 87.6244 41.5646 87.6532 41.5998Z" fill="#263238"/>
<path d="M85.8036 42.8802C85.8036 42.8802 85.6084 43.3858 85.4836 43.6066C85.4836 43.6258 85.4132 43.6066 85.3364 43.5714C85.1271 43.5008 84.9414 43.3738 84.7997 43.2044C84.658 43.035 84.5658 42.8298 84.5332 42.6114C84.5332 42.6046 84.5359 42.5981 84.5407 42.5933C84.5455 42.5885 84.552 42.5858 84.5588 42.5858C84.5656 42.5858 84.5721 42.5885 84.5769 42.5933C84.5817 42.5981 84.5844 42.6046 84.5844 42.6114C84.7592 42.9593 85.0421 43.2412 85.3908 43.4146C85.4388 43.3634 85.6948 42.541 85.73 42.557C85.8926 42.6673 86.04 42.7986 86.1684 42.9474C86.6036 41.9106 86.8692 40.8098 87.3172 39.7826C87.3214 39.7765 87.3275 39.7719 87.3345 39.7695C87.3415 39.7671 87.349 39.7669 87.3561 39.7691C87.3632 39.7712 87.3694 39.7755 87.3739 39.7814C87.3784 39.7872 87.381 39.7944 87.3812 39.8018C87.1345 40.9885 86.769 42.1475 86.29 43.261C86.2324 43.3698 85.8708 42.9506 85.8036 42.8802Z" fill="#263238"/>
<path d="M79.6967 39.4338C80.2375 39.5874 82.5511 38.541 83.4855 35.997C83.4855 35.997 82.4871 38.237 82.2055 38.4994C81.9239 38.7618 83.2647 37.949 84.0455 35.9074C84.5264 36.6032 85.1039 37.2271 85.7607 37.7602C86.6407 38.3714 87.2391 38.5698 87.3351 38.525C87.4311 38.4802 86.1511 37.5266 85.9175 36.9442C85.9175 36.9442 88.0935 39.053 89.2551 39.5618C89.3895 39.6194 90.2599 37.0626 88.8327 35.2098C87.4055 33.357 84.3079 33.4146 83.2583 33.901C83.2583 33.901 81.8279 34.1346 81.0471 34.893C79.7703 36.125 79.1143 39.2674 79.6967 39.4338Z" fill="#263238"/>
<path d="M80.5017 39.7471C80.5017 39.7471 80.0569 37.7951 79.2217 37.8911C78.3865 37.9871 78.2809 40.5215 78.9657 41.1519C79.0489 41.2375 79.1484 41.3055 79.2583 41.3519C79.3682 41.3983 79.4863 41.4222 79.6057 41.4222C79.725 41.4222 79.8431 41.3983 79.953 41.3519C80.063 41.3055 80.1625 41.2375 80.2457 41.1519L80.5017 39.7471Z" fill="#F7A9A0"/>
<path d="M79.2069 38.6177C79.2069 38.6177 79.1845 38.6177 79.2069 38.6369C79.6805 39.1009 79.7637 39.7473 79.7509 40.3777C79.7414 40.3062 79.7162 40.2377 79.6772 40.1771C79.6381 40.1165 79.5862 40.0652 79.525 40.027C79.4639 39.9888 79.3951 39.9646 79.3235 39.956C79.2519 39.9475 79.1793 39.9549 79.1109 39.9777C79.0917 39.9777 79.0949 40.0097 79.1109 40.0129C79.2241 40.0218 79.3318 40.0657 79.4189 40.1385C79.5061 40.2113 79.5684 40.3094 79.5973 40.4193C79.6457 40.6012 79.6736 40.7879 79.6805 40.9761C79.6805 41.0401 79.7893 41.0497 79.7957 40.9761C80.1029 40.2497 79.9525 39.0081 79.2069 38.6177Z" fill="#263238"/>
<path d="M81.4745 46.7774L80.2265 48.8542L77.8553 45.2734L76.8281 46.0126C76.8281 46.0126 78.9753 51.3374 79.0425 51.1326L80.2745 49.2894L81.3817 50.755L81.7401 47.555L81.4745 46.7774Z" fill="#C2C7D6"/>
<path d="M81.7623 47.5871C81.7623 47.5647 81.7335 47.5487 81.7271 47.5711C81.5447 48.2111 81.3111 50.6527 81.3111 50.6527C81.2695 50.5791 80.2903 49.2767 80.2743 49.2927C79.8235 49.834 79.4037 50.4002 79.0167 50.9887C78.7511 50.1503 77.2823 47.0847 76.9271 46.2687C76.9271 46.2636 76.9251 46.2587 76.9215 46.2551C76.9178 46.2515 76.913 46.2495 76.9079 46.2495C76.9028 46.2495 76.8979 46.2515 76.8943 46.2551C76.8907 46.2587 76.8887 46.2636 76.8887 46.2687C77.0935 47.1327 78.9335 51.3055 78.9687 51.3023C79.0039 51.2991 80.1079 49.7023 80.2903 49.3823C80.4343 49.6799 81.3975 50.9823 81.4231 50.9151C81.5991 50.3775 81.6919 48.1695 81.7623 47.5871Z" fill="#263238"/>
<path d="M73.5994 48.1026C72.1498 53.5426 71.1386 63.7282 71.9514 65.5618C72.6682 67.1874 79.1322 70.0898 82.105 71.1362C83.2154 71.5298 85.8042 62.8162 84.6074 62.4162C83.1706 61.9394 78.9786 60.3874 78.8474 60.013C78.7162 59.6386 77.9834 52.701 77.1194 48.3202C76.3066 44.3682 74.1594 46.0482 73.5994 48.1026Z" fill="#F7A9A0"/>
<path d="M88.5854 63.4019C91.1454 64.4291 91.6414 65.0851 94.259 64.8035C95.9774 64.6211 96.819 65.6387 95.3374 66.6403C92.8958 68.2754 89.3182 67.6419 88.1406 67.0659L88.5854 63.4019Z" fill="#F7A9A0"/>
<path d="M80.9883 62.0801C80.9883 62.0801 84.5083 62.1281 87.3275 62.9505C89.2891 63.5233 93.4075 65.2385 94.9179 71.1393C95.2731 72.5409 94.7899 74.7873 93.3755 72.7137C92.3739 71.2385 92.1819 70.0001 91.4555 69.2513C91.4555 69.2513 90.4955 72.0385 89.0843 72.3393C87.8452 72.605 86.5886 72.7815 85.3243 72.8673C85.257 72.6393 85.2036 72.4074 85.1643 72.1729C85.1643 72.1729 83.8139 72.3329 82.1275 71.1393L80.9883 62.0801Z" fill="#F7A9A0"/>
<path d="M89.1094 63.792C89.6886 64.6912 90.879 66.6208 91.3046 68.5376C91.7782 70.6656 92.1142 74.896 90.5366 75.2288C89.3814 75.472 89.1126 73.8688 89.1126 73.8688C89.1126 73.8688 88.8822 75.6448 87.791 75.6384C86.7958 75.6384 86.6614 74.3776 86.6614 74.3776C86.6614 74.3776 86.3414 75.4336 85.3814 75.2416C84.2294 75.0112 85.0998 72.8384 84.1334 71.6C83.919 71.3216 89.1094 63.792 89.1094 63.792Z" fill="#F7A9A0"/>
<path d="M88.9606 68.6624C89.5432 70.3305 89.6046 72.1363 89.1366 73.84C89.1366 73.8816 89.0822 73.8944 89.0854 73.84C89.2491 72.1116 89.2007 70.3696 88.9414 68.6528C88.9414 68.6528 88.9606 68.6528 88.9606 68.6624Z" fill="#263238"/>
<path d="M86.8386 69.1998C87.1042 70.0446 87.3762 72.4958 86.7042 74.3806C86.6882 74.4222 86.6466 74.4318 86.653 74.3806C86.9044 72.6633 86.9591 70.923 86.8162 69.1934C86.8162 69.1934 86.8354 69.1902 86.8386 69.1998Z" fill="#263238"/>
<path d="M89.0391 63.5967C89.8876 63.9679 90.7574 64.2884 91.6439 64.5567C92.0804 64.6974 92.5356 64.7718 92.9943 64.7775C93.4551 64.7551 93.9191 64.7103 94.3895 64.6975C94.8684 64.6555 95.3504 64.7301 95.7943 64.9151C95.9078 64.9763 96.0029 65.0669 96.0695 65.1775C96.1326 65.2918 96.1625 65.4215 96.1559 65.5519C96.1343 65.8003 96.0307 66.0344 95.8615 66.2175C95.5382 66.5638 95.1501 66.8432 94.7191 67.0399C94.2956 67.2387 93.8465 67.3777 93.3847 67.4527C93.8379 67.3522 94.2751 67.1896 94.6839 66.9695C95.0959 66.7665 95.4636 66.4837 95.7655 66.1375C95.9095 65.9714 95.9979 65.7644 96.0183 65.5455C96.023 65.4414 95.9973 65.3383 95.9445 65.2485C95.8917 65.1587 95.8139 65.0863 95.7207 65.0399C95.2982 64.8766 94.8435 64.8142 94.3927 64.8575C93.9319 64.8575 93.4679 64.9023 93.0007 64.9247C92.5264 64.9151 92.0567 64.8309 91.6087 64.6751C90.7251 64.3839 89.8658 64.0233 89.0391 63.5967Z" fill="#263238"/>
<path d="M92.6967 66.4961C93.3704 67.3737 93.9406 68.3261 94.3959 69.3345C94.6237 69.8412 94.8099 70.3656 94.9527 70.9025C95.1139 71.4426 95.1736 72.0079 95.1287 72.5697C95.1078 72.8656 95.0084 73.1506 94.8407 73.3953C94.7421 73.5316 94.5938 73.6235 94.4279 73.6513C94.2643 73.6649 94.1009 73.6232 93.9639 73.5329C93.7219 73.3685 93.5152 73.1574 93.3559 72.9121C93.1978 72.6799 93.0576 72.436 92.9367 72.1825C92.5098 71.1715 91.9812 70.2065 91.3591 69.3025L91.5447 69.2193C91.7023 70.2516 91.774 71.2952 91.7591 72.3393C91.7542 72.8627 91.6931 73.3841 91.5767 73.8945C91.52 74.1505 91.4273 74.3972 91.3015 74.6273C91.1822 74.8629 90.9824 75.048 90.7383 75.1489C90.9719 75.0367 91.1579 74.845 91.2631 74.6081C91.3739 74.3753 91.4536 74.1289 91.4999 73.8753C91.5884 73.3671 91.6291 72.8518 91.6215 72.3361C91.6034 71.3032 91.5082 70.2732 91.3367 69.2545L91.2759 68.8545L91.5223 69.1745C92.1625 70.0761 92.7083 71.0412 93.1511 72.0545C93.2675 72.2978 93.4 72.5329 93.5479 72.7585C93.6874 72.9775 93.8678 73.1676 94.0791 73.3185C94.1736 73.3814 94.2856 73.4128 94.3991 73.4081C94.4531 73.3997 94.5048 73.3803 94.551 73.3511C94.5973 73.322 94.637 73.2836 94.6679 73.2385C94.812 73.0265 94.8981 72.7805 94.9175 72.5249C94.9603 71.9871 94.9105 71.4459 94.7703 70.9249C94.6444 70.3936 94.4753 69.8735 94.2647 69.3697C93.8377 68.3626 93.3125 67.4001 92.6967 66.4961Z" fill="#263238"/>
<path d="M80.7012 72.093L84.4804 62.0802L79.1588 59.8402C78.6756 56.4706 77.7124 49.7346 77.0308 47.453C76.2308 44.7778 74.3204 45.1586 73.4852 47.8786C71.5652 54.0994 70.9252 64.621 71.6004 66.1186C72.5412 68.2402 80.7012 72.093 80.7012 72.093Z" fill="#C2C7D6"/>
<path d="M79.5335 70.2431C79.6519 69.5807 80.5799 66.9727 80.8135 66.3231C81.0471 65.6735 82.0935 63.1231 82.3431 62.4479C82.3431 62.4127 82.4103 62.4191 82.3975 62.4479C82.1639 63.1103 81.3223 65.7599 81.0887 66.4095C80.8551 67.0591 79.9015 69.6511 79.5655 70.2495C79.5559 70.2719 79.5303 70.2623 79.5335 70.2431Z" fill="#263238"/>
<path d="M77.2696 70.3294C76.4504 69.8793 75.644 69.4057 74.8504 68.9086C74.0524 68.4229 73.2851 67.8886 72.5528 67.3086C72.1728 67.0191 71.8421 66.6701 71.5736 66.275C71.385 65.8348 71.2767 65.3645 71.2536 64.8862C71.1843 63.949 71.1789 63.0081 71.2376 62.0702C71.3208 60.1982 71.5576 58.339 71.7816 56.483C72.0056 54.627 72.332 52.7838 72.6904 50.9502C72.4429 52.7977 72.2125 54.6473 71.9992 56.499C71.7752 58.355 71.5928 60.211 71.4744 62.0734C71.4141 63.0013 71.4067 63.9319 71.452 64.8606C71.4623 65.3174 71.5522 65.769 71.7176 66.195C71.9696 66.5767 72.2807 66.9158 72.6392 67.1998C74.0983 68.3626 75.6465 69.409 77.2696 70.3294Z" fill="#263238"/>
<path d="M72.4256 52.5184C72.3837 52.3453 72.359 52.1684 72.352 51.9904C72.3387 51.8128 72.356 51.6342 72.4032 51.4624C72.4032 51.552 72.4032 51.6384 72.4192 51.7248V51.9872C72.4325 52.164 72.4347 52.3414 72.4256 52.5184Z" fill="#263238"/>
<path d="M77.9902 52.6304C78.2238 53.696 78.3646 54.7808 78.5342 55.856C78.7038 56.9312 78.8542 58.016 79.0398 59.088L79.1134 59.488C79.1294 59.552 79.1422 59.6192 79.1582 59.6832L79.187 59.7728C79.187 59.792 79.187 59.7728 79.187 59.792C79.187 59.8112 79.2094 59.792 79.219 59.8144C79.4334 59.9328 79.699 60.0448 79.9422 60.1536L81.4462 60.7936L84.4606 62.0736L84.3582 62.3232L84.4478 62.0704C83.4238 61.696 82.4062 61.3024 81.3918 60.8992C80.8862 60.7008 80.3806 60.4896 79.8782 60.2752C79.6195 60.1712 79.3663 60.0537 79.1198 59.9232C79.1011 59.9127 79.0839 59.8998 79.0686 59.8848C79.0575 59.8709 79.0478 59.8559 79.0398 59.84L79.0046 59.7344C78.9854 59.664 78.9726 59.5968 78.9566 59.5296C78.9289 59.3952 78.9033 59.2608 78.8798 59.1264C78.7006 58.048 78.5598 56.9664 78.4126 55.8848L78.2078 54.2592C78.1438 53.7088 78.0958 53.1648 77.9902 52.6304Z" fill="#263238"/>
<path d="M78.2819 52.9214C78.2995 53.098 78.2995 53.276 78.2819 53.4526C78.2737 53.6314 78.2358 53.8077 78.1699 53.9742C78.1699 53.8846 78.1699 53.7982 78.1859 53.7118V53.4462C78.2066 53.2694 78.2386 53.0941 78.2819 52.9214Z" fill="#263238"/>
</svg>
