<svg width="181" height="180" viewBox="0 0 181 180" fill="none" xmlns="http://www.w3.org/2000/svg">
<path d="M49.3426 28.6632L25.5903 31.9042L27.6457 46.9674L51.398 43.7264L49.3426 28.6632Z" fill="#EBEBEB"/>
<path d="M49.3448 28.6704C48.5096 29.718 47.6528 30.7296 46.8248 31.7628C45.9968 32.796 45.1112 33.7968 44.2508 34.8048C43.3904 35.8128 42.4508 36.9 41.5436 37.9368L41.4608 38.0376C40.6616 38.952 39.8576 39.8676 39.0488 40.7844L38.93 40.914L38.7824 40.8204C37.76 40.1544 36.7448 39.4884 35.726 38.8152C35.6885 38.795 35.6524 38.7721 35.618 38.7468C34.466 37.9872 33.314 37.224 32.1656 36.4464C31.0172 35.6688 29.9696 34.9632 28.8752 34.2108C27.7808 33.4584 26.69 32.6952 25.6064 31.9068C26.7332 32.5548 27.8492 33.2424 28.9652 33.912C30.0812 34.5816 31.2008 35.28 32.3168 35.9784C33.5552 36.7488 34.7936 37.5324 36.032 38.3292C36.9608 38.9196 37.8884 39.5196 38.8148 40.1292C39.5348 39.3048 40.28 38.4804 41.018 37.6668C42.0008 36.5868 42.98 35.4852 43.97 34.4052C44.8556 33.4452 45.746 32.4852 46.6412 31.5252C47.5412 30.5568 48.4304 29.5956 49.3448 28.6704Z" fill="white"/>
<path d="M36.1004 38.6676L36.0752 38.6964C35.9672 38.8188 35.8556 38.9448 35.744 39.0564C35.2184 39.6396 34.664 40.2048 34.1168 40.7592C33.44 41.4396 32.7416 42.0984 32.036 42.7536C31.3304 43.4088 30.6176 44.0388 29.876 44.6616C29.1344 45.2844 28.4 45.9 27.626 46.4616C28.2596 45.7416 28.9292 45.0432 29.606 44.3664C30.2828 43.6896 30.9848 43.0272 31.6868 42.372C32.3888 41.7168 33.1268 41.0796 33.8468 40.4568C34.43 39.96 35.024 39.4668 35.6468 38.9988C35.7872 38.8872 35.9312 38.7828 36.0752 38.6748L36.1004 38.6676Z" fill="white"/>
<path d="M51.2601 43.2576C50.3601 42.8976 49.4781 42.5376 48.6105 42.1164C47.7429 41.6952 46.8789 41.2812 46.0221 40.8528C45.1653 40.4244 44.3193 39.96 43.5021 39.4848C42.8217 39.1032 42.1449 38.7072 41.4861 38.286L41.0613 38.016L41.0325 37.9944H41.0685L41.5689 38.196C42.2889 38.4804 42.9837 38.7972 43.6821 39.1212C44.5569 39.5244 45.4137 39.9528 46.2669 40.3884C47.1201 40.824 47.9697 41.2776 48.7869 41.7528C49.6041 42.228 50.4681 42.7248 51.2601 43.2576Z" fill="white"/>
<path d="M126.58 80.615L122.251 98.9015L151.085 105.728L155.415 87.4418L126.58 80.615Z" fill="#EBEBEB"/>
<path d="M155.408 87.4332C153.968 88.272 152.528 89.0568 151.11 89.8776C149.691 90.6984 148.23 91.4616 146.79 92.2392C145.285 93.0528 143.78 93.8556 142.275 94.6476L142.135 94.7304L138.132 96.84L137.937 96.9336L137.808 96.7608C136.924 95.5416 136.047 94.3176 135.176 93.0888C135.144 93.0492 135.111 93.006 135.082 92.9628C134.089 91.5732 133.099 90.1836 132.12 88.776C131.184 87.4404 130.251 86.0868 129.322 84.7332C128.394 83.3796 127.476 82.0116 126.576 80.622C127.587 81.8712 128.566 83.16 129.56 84.4308C130.554 85.7016 131.533 86.9976 132.505 88.3008C133.587 89.7408 134.667 91.1952 135.745 92.664L138.164 95.958C139.37 95.3352 140.587 94.7052 141.796 94.0968C143.412 93.2736 145.031 92.4576 146.653 91.6488C148.093 90.9288 149.546 90.2172 151.013 89.514C152.492 88.8084 153.947 88.0956 155.408 87.4332Z" fill="white"/>
<path d="M135.691 93.078L135.648 93.0996L135.104 93.3768C134.236 93.816 133.358 94.2264 132.469 94.6152C131.389 95.0976 130.287 95.5476 129.186 95.9904C128.084 96.4332 126.975 96.8436 125.852 97.236C124.729 97.6284 123.606 98.0064 122.454 98.316C123.512 97.7544 124.588 97.2576 125.672 96.7752C126.756 96.2928 127.857 95.8428 128.955 95.4C130.053 94.9572 131.169 94.5432 132.292 94.1508C133.185 93.834 134.092 93.5316 135.003 93.2652L135.64 93.0816L135.691 93.078Z" fill="white"/>
<path d="M151.149 105.12C150.264 104.321 149.421 103.478 148.6 102.625C147.78 101.772 146.973 100.897 146.178 100.015C145.382 99.1332 144.608 98.2332 143.859 97.3152C143.244 96.57 142.639 95.814 142.059 95.0328C141.932 94.8672 141.812 94.7016 141.699 94.536C141.691 94.5222 141.681 94.5089 141.67 94.4964C141.682 94.5091 141.695 94.52 141.71 94.5288L142.196 94.9824C142.894 95.6304 143.56 96.3072 144.223 96.9876C145.051 97.8408 145.846 98.7192 146.642 99.6012C147.438 100.483 148.208 101.383 148.96 102.301C149.713 103.219 150.458 104.144 151.149 105.12Z" fill="white"/>
<path d="M30.2323 117.09L25.5091 117.191L23.1115 117.23C22.3087 117.248 21.5023 117.23 20.6995 117.248H20.5411V117.086L20.5195 113.058V112.878H20.6995L25.4659 112.9C27.0571 112.9 28.6447 112.939 30.2323 112.961H30.3331V113.058C30.3331 113.742 30.3007 114.422 30.2863 115.092L30.2323 117.09ZM30.2323 117.09L30.1819 115.052C30.1819 114.383 30.1423 113.72 30.1351 113.062L30.2323 113.159C28.6447 113.177 27.0571 113.216 25.4659 113.22L20.6995 113.242L20.8795 113.062V117.09L20.7175 116.928C21.5023 116.928 22.2871 116.928 23.0755 116.95L25.4443 116.989L30.2323 117.09Z" fill="#EBEBEB"/>
<path d="M24.9152 122.17L20.192 122.27L17.7944 122.31C16.9916 122.328 16.1852 122.31 15.3824 122.328H15.224V122.166L15.2024 118.138V117.958H15.3824L20.1488 117.979C21.7364 117.979 23.3276 118.019 24.9152 118.04H25.016V118.138C25.016 118.822 24.9872 119.502 24.9692 120.172L24.9152 122.17ZM24.9152 122.17L24.8648 120.132C24.8468 119.462 24.8252 118.8 24.818 118.141L24.9152 118.238C23.3276 118.256 21.7364 118.296 20.1488 118.3L15.3824 118.321L15.5624 118.141L15.5444 122.17L15.3824 122.008C16.1672 122.008 16.952 122.008 17.7404 122.029L20.1092 122.069L24.9152 122.17Z" fill="#EBEBEB"/>
<path d="M102.441 71.8452L97.7181 71.946L95.3205 71.9856C94.5177 71.9856 93.7113 71.9856 92.9085 72.0072H92.7501V71.8452L92.7285 67.8168V67.6368H92.9085L97.6749 67.6584C99.2661 67.6584 100.854 67.7016 102.441 67.7196H102.542V67.8168C102.542 68.5008 102.51 69.1812 102.492 69.8544L102.441 71.8452ZM102.441 71.8452L102.391 69.8112C102.391 69.138 102.351 68.4756 102.344 67.8168L102.441 67.914C100.854 67.9356 99.2661 67.9716 97.6749 67.9752L92.9085 67.9968L93.0885 67.8168L93.0705 71.8452L92.9085 71.6868C93.6933 71.6868 94.4781 71.6868 95.2665 71.7048L97.6353 71.7444L102.441 71.8452Z" fill="#EBEBEB"/>
<path d="M97.1239 76.9248L92.4007 77.0256L90.0031 77.0652C89.2003 77.0832 88.3939 77.0652 87.5911 77.0868H87.4327V76.9248L87.4111 72.8964V72.72H87.5911L92.3575 72.7416C93.9451 72.7416 95.5363 72.7848 97.1239 72.8028H97.2247V72.9C97.2247 73.584 97.1959 74.2644 97.1779 74.934L97.1239 76.9248ZM97.1239 76.9248L97.0735 74.8908C97.0555 74.2176 97.0339 73.5552 97.0267 72.8964L97.1239 72.9936C95.5363 73.0152 93.9451 73.0512 92.3575 73.0548L87.5911 73.0764L87.7711 72.8964V76.9248L87.6091 76.7664C88.3939 76.7664 89.1787 76.7664 89.9671 76.7664L92.3359 76.806L97.1239 76.9248Z" fill="#EBEBEB"/>
<path d="M91.8283 71.8452L87.1015 71.946L84.7039 71.9856C83.9047 71.9856 83.0983 71.9856 82.2955 72.0072H82.1335V71.8452V67.8168V67.6368H82.3135L87.0799 67.6584C88.6675 67.6584 90.2551 67.7016 91.8463 67.7196H91.9399V67.8168C91.9399 68.5008 91.9075 69.1812 91.8931 69.8544L91.8283 71.8452ZM91.8283 71.8452L91.7779 69.8112C91.7599 69.138 91.7347 68.4756 91.7275 67.8168L91.8283 67.914C90.2371 67.9356 88.6495 67.9716 87.0619 67.9752L82.2955 67.9968L82.4755 67.8168L82.4539 71.8452L82.2955 71.6868C83.0803 71.6868 83.8615 71.6868 84.6499 71.7048L87.0187 71.7444L91.8283 71.8452Z" fill="#EBEBEB"/>
<path d="M165.618 122.17L160.891 122.27L158.493 122.31C157.694 122.328 156.888 122.31 156.085 122.328H155.923V122.166L155.905 118.138V117.958H156.085L160.851 117.979C162.439 117.979 164.03 118.019 165.618 118.04H165.715V118.138C165.715 118.822 165.686 119.502 165.668 120.172L165.618 122.17ZM165.618 122.17L165.567 120.132C165.567 119.462 165.524 118.8 165.52 118.141L165.618 118.238C164.03 118.256 162.439 118.296 160.851 118.3L156.085 118.321L156.265 118.141L156.243 122.17L156.085 122.008C156.87 122.008 157.654 122.008 158.439 122.029L160.808 122.069L165.618 122.17Z" fill="#EBEBEB"/>
<path d="M160.301 20.4912L155.574 20.5884L153.176 20.6316C152.377 20.6316 151.571 20.6316 150.768 20.6316H150.62V20.4732V16.4448V16.2612H150.804L155.57 16.2828C157.158 16.2828 158.745 16.3224 160.336 16.3404H160.434V16.4376C160.434 17.118 160.401 17.7984 160.387 18.4716L160.301 20.4912ZM160.301 20.4912L160.25 18.4536C160.232 17.784 160.207 17.1216 160.2 16.4628L160.301 16.56C158.709 16.56 157.122 16.6176 155.534 16.6176L150.768 16.6428L150.948 16.4628L150.926 20.4912L150.768 20.3292C151.553 20.3292 152.334 20.3292 153.122 20.3472L155.491 20.3904L160.301 20.4912Z" fill="#EBEBEB"/>
<path d="M165.618 25.56L160.891 25.6572L158.493 25.7004C157.694 25.7004 156.888 25.7004 156.085 25.7004H155.923V25.56L155.905 21.5316V21.348H156.085L160.851 21.3696C162.439 21.3696 164.03 21.4092 165.618 21.4272H165.715V21.5244C165.715 22.2048 165.686 22.8852 165.668 23.5584L165.618 25.56ZM165.618 25.56L165.567 23.5224C165.567 22.8528 165.524 22.1904 165.52 21.5316L165.618 21.6288C164.03 21.6288 162.439 21.6864 160.851 21.6864L156.085 21.708L156.265 21.5316L156.243 25.56L156.085 25.398C156.87 25.398 157.654 25.398 158.439 25.398L160.808 25.4412L165.618 25.56Z" fill="#EBEBEB"/>
<path d="M24.9152 20.4912L20.192 20.5884L17.78 20.6316C16.9772 20.6316 16.1708 20.6316 15.368 20.6316H15.224V20.4732L15.2024 16.4448V16.2612H15.3824L20.1488 16.2828C21.7364 16.2828 23.3276 16.3224 24.9152 16.3404H25.016V16.4376C25.016 17.118 24.9872 17.7984 24.9692 18.4716L24.9152 20.4912ZM24.9152 20.4912L24.8648 18.4536C24.8468 17.784 24.8252 17.1216 24.818 16.4628L24.9152 16.56C23.3276 16.56 21.7364 16.6176 20.1488 16.6176L15.3824 16.6428L15.5624 16.4628L15.5444 20.4912L15.3824 20.3292C16.1672 20.3292 16.952 20.3292 17.7404 20.3472L20.1092 20.3904L24.9152 20.4912Z" fill="#EBEBEB"/>
<path d="M149.274 46.8756C150.872 47.8362 152.733 48.2663 154.591 48.1042C156.448 47.9421 158.207 47.1962 159.615 45.9733C161.022 44.7504 162.007 43.1133 162.427 41.2966C162.847 39.4799 162.681 37.5768 161.953 35.86C161.226 34.1433 159.973 32.701 158.375 31.7397C156.777 30.7785 154.916 30.3478 153.059 30.5092C151.201 30.6706 149.442 31.4159 148.034 32.6383C146.626 33.8607 145.641 35.4974 145.22 37.314C144.789 39.1317 144.95 41.0395 145.679 42.7594C146.408 44.4793 147.668 45.9214 149.274 46.8756Z" fill="#EBEBEB"/>
<path d="M151.128 38.3292C151.133 38.8612 151.297 39.3795 151.597 39.8186C151.898 40.2577 152.321 40.5978 152.815 40.7959C153.309 40.9941 153.85 41.0413 154.371 40.9317C154.891 40.822 155.368 40.5604 155.74 40.18C156.112 39.7995 156.362 39.3173 156.46 38.7944C156.558 38.2714 156.498 37.7312 156.289 37.2421C156.08 36.753 155.73 36.337 155.284 36.0467C154.838 35.7564 154.316 35.6048 153.784 35.6112C153.072 35.6197 152.392 35.9108 151.894 36.4204C151.395 36.93 151.12 37.6166 151.128 38.3292Z" fill="white"/>
<path d="M149.259 45.7668V46.8756C150.665 47.7219 152.279 48.1594 153.92 48.1391C155.56 48.1187 157.163 47.6413 158.547 46.7604V45.6552C158.502 44.4436 157.986 43.2976 157.107 42.4616C156.229 41.6256 155.059 41.1658 153.847 41.1804C152.635 41.195 151.476 41.6827 150.618 42.5395C149.76 43.3964 149.271 44.5545 149.256 45.7668H149.259Z" fill="white"/>
<path d="M21.6499 82.9656C22.7393 83.6221 23.9903 83.9618 25.2622 83.9465C26.534 83.9313 27.7765 83.5616 28.8499 82.8792C30.1054 82.081 31.0664 80.8952 31.5872 79.5016C32.1081 78.108 32.1604 76.5826 31.7361 75.1566C31.3119 73.7307 30.4343 72.4819 29.2364 71.5996C28.0385 70.7173 26.5857 70.2496 25.098 70.2675C23.6104 70.2853 22.1691 70.7877 20.9927 71.6985C19.8164 72.6093 18.969 73.8788 18.5791 75.3145C18.1893 76.7503 18.2781 78.274 18.8323 79.6547C19.3864 81.0354 20.3756 82.1978 21.6499 82.9656Z" fill="#EBEBEB"/>
<path d="M23.0863 76.3524C23.0913 76.7639 23.2183 77.1647 23.4511 77.504C23.6838 77.8434 24.012 78.1061 24.3941 78.259C24.7762 78.4118 25.195 78.448 25.5976 78.3628C26.0003 78.2776 26.3686 78.075 26.656 77.7805C26.9435 77.486 27.1372 77.1128 27.2126 76.7083C27.288 76.3037 27.2417 75.8859 27.0796 75.5076C26.9176 75.1293 26.647 74.8076 26.3021 74.5831C25.9572 74.3586 25.5534 74.2414 25.1419 74.2464C24.8687 74.2497 24.5987 74.3068 24.3475 74.4144C24.0963 74.522 23.8688 74.6781 23.6779 74.8736C23.487 75.0692 23.3365 75.3004 23.235 75.5542C23.1335 75.8079 23.083 76.0791 23.0863 76.3524Z" fill="white"/>
<path d="M21.6428 82.1088V82.9656C22.7323 83.6221 23.9832 83.9618 25.2551 83.9465C26.527 83.9312 27.7694 83.5616 28.8428 82.8792V82.0224C28.8314 81.0676 28.4411 80.1565 27.7579 79.4895C27.0746 78.8224 26.1544 78.4541 25.1996 78.4656C24.2449 78.477 23.3337 78.8673 22.6667 79.5506C21.9997 80.2338 21.6314 81.154 21.6428 82.1088Z" fill="white"/>
<path d="M59.9576 20.5452C60.6198 20.945 61.3806 21.1518 62.1541 21.1422C62.9276 21.1327 63.6831 20.9072 64.3352 20.4912C65.1003 20.0054 65.6861 19.2834 66.0038 18.4345C66.3214 17.5857 66.3535 16.6565 66.0952 15.7877C65.8369 14.919 65.3023 14.1583 64.5725 13.6209C63.8427 13.0835 62.9576 12.7988 62.0513 12.8099C61.1451 12.8211 60.2672 13.1276 59.5509 13.6828C58.8346 14.2381 58.319 15.0118 58.0822 15.8866C57.8454 16.7614 57.9004 17.6896 58.2389 18.5303C58.5773 19.371 59.1807 20.0784 59.9576 20.5452Z" fill="#EBEBEB"/>
<path d="M60.8323 16.5168C60.8352 16.7674 60.9123 17.0115 61.0539 17.2183C61.1955 17.4251 61.3953 17.5852 61.6279 17.6785C61.8605 17.7718 62.1156 17.794 62.3608 17.7423C62.606 17.6906 62.8304 17.5673 63.0056 17.3881C63.1808 17.2089 63.2989 16.9818 63.345 16.7354C63.3911 16.4891 63.3631 16.2346 63.2646 16.0041C63.1661 15.7737 63.0014 15.5776 62.7915 15.4408C62.5815 15.3039 62.3357 15.2324 62.0851 15.2352C61.7493 15.2399 61.4291 15.3774 61.1943 15.6175C60.9596 15.8577 60.8294 16.181 60.8323 16.5168Z" fill="white"/>
<path d="M59.9504 20.0232V20.5452C60.6126 20.945 61.3734 21.1518 62.1469 21.1422C62.9204 21.1327 63.6758 20.9072 64.328 20.4912V19.9692C64.3208 19.3887 64.0833 18.8348 63.6678 18.4294C63.2522 18.024 62.6927 17.8002 62.1122 17.8074C61.5317 17.8145 60.9778 18.052 60.5724 18.4676C60.1669 18.8831 59.9432 19.4427 59.9504 20.0232Z" fill="white"/>
<path d="M90.4244 169.175C129.857 169.175 161.823 165.606 161.823 161.204C161.823 156.802 129.857 153.234 90.4244 153.234C50.992 153.234 19.0256 156.802 19.0256 161.204C19.0256 165.606 50.992 169.175 90.4244 169.175Z" fill="#EBEBEB"/>
<path d="M135.843 106.517C135.937 104.956 136.158 103.405 136.506 101.88C136.778 100.458 137.344 99.1094 138.169 97.92C138.551 97.3824 139.036 96.9259 139.596 96.5768C140.156 96.2277 140.779 95.9929 141.43 95.886C142.708 95.7312 143.907 96.3 144.861 97.1064C146.046 98.1 146.953 99.4212 147.802 100.706C148.736 102.138 149.585 103.624 150.344 105.156C150.347 105.166 150.347 105.176 150.343 105.186C150.339 105.195 150.332 105.203 150.323 105.208C150.314 105.213 150.304 105.214 150.294 105.212C150.284 105.21 150.275 105.204 150.269 105.196C149.609 103.899 148.849 102.656 147.997 101.477C147.219 100.346 146.343 99.2863 145.38 98.3088C144.501 97.452 143.389 96.6528 142.118 96.6132C141.495 96.6202 140.883 96.7722 140.329 97.0571C139.776 97.3421 139.296 97.7521 138.928 98.2548C138.075 99.3348 137.643 100.706 137.319 102.031C136.984 103.489 136.765 104.971 136.664 106.463C136.416 109.53 136.347 112.615 136.279 115.693C136.24 117.433 136.214 119.173 136.2 120.913L136.178 123.559C136.211 124.411 136.178 125.265 136.077 126.112C136.048 126.284 135.768 126.266 135.739 126.112C135.634 125.31 135.595 124.501 135.62 123.692C135.62 122.857 135.61 122.017 135.591 121.172C135.577 119.545 135.571 117.919 135.573 116.294C135.584 113.04 135.624 109.771 135.843 106.517Z" fill="#263238"/>
<path d="M140.228 104.206C140.39 103.338 140.682 102.208 141.178 101.534C142.064 100.328 143.025 100.854 142.14 102.19C141.484 103.183 141.057 104.309 140.89 105.487C140.89 105.487 142.384 107.618 144.184 108.67C144.109 107.849 143.878 106.589 144.037 105.372C144.397 102.737 145.977 102.884 145.581 104.98C145.295 106.371 145.174 107.79 145.221 109.21C145.823 109.6 146.47 109.916 147.147 110.153C147.043 109.85 146.935 109.483 146.812 109.037C146.175 106.675 147.748 105.941 147.799 107.269C147.901 108.401 148.106 109.522 148.411 110.617C149.275 110.909 149.991 111.107 150.43 111.262C151.565 111.681 152.579 112.373 153.382 113.278C154.205 112.538 154.886 111.657 155.395 110.675C154.844 110.2 153.976 109.498 152.767 108.644C150.502 107.046 151.291 105.026 153.087 106.283C154.383 107.186 155.388 108.868 155.845 109.728C156.456 108.227 156.803 106.631 156.871 105.012C155.092 103.342 150.693 101.016 152.018 101.016C153.213 101.016 155.881 102.766 156.86 103.442C156.836 102.983 156.786 102.525 156.709 102.071C155.035 100.991 149.592 99.2664 150.459 98.7732C151.413 98.2332 155.211 99.9936 156.36 100.548C156.144 99.8024 155.803 99.0989 155.352 98.4672C153.037 95.3676 148.872 94.2984 147.043 94.8888C145.754 95.3064 146.132 98.5788 145.855 98.4672C140.678 96.3828 138.324 97.8552 140.228 104.206ZM152.914 103.846C153.274 103.403 154.981 104.706 154.491 105.422C154.002 106.139 152.45 104.4 152.914 103.846ZM144.04 101.059C144.487 101.344 143.828 102.992 143.137 102.499C142.55 102.067 143.59 100.771 144.04 101.059Z" fill="#35BA83"/>
<path d="M144.717 101.563C144.951 101.102 145.196 100.642 145.462 100.199C145.707 99.7598 145.992 99.3451 146.316 98.9604C146.244 98.8668 146.172 98.7768 146.096 98.6868C146.02 98.5968 146.118 98.6004 146.15 98.6364C146.236 98.7336 146.319 98.8344 146.402 98.9352C146.411 98.9394 146.418 98.9455 146.425 98.9529C146.431 98.9604 146.435 98.9691 146.438 98.9784C146.758 99.36 147.061 99.756 147.349 100.159C147.857 100.275 148.358 100.421 148.85 100.595C149.357 100.764 149.861 100.955 150.355 101.149C150.409 101.171 150.38 101.257 150.329 101.232C149.84 101.016 149.347 100.807 148.839 100.638C148.331 100.469 147.871 100.35 147.399 100.213C147.558 100.436 147.712 100.66 147.864 100.89C148.777 101.178 149.665 101.539 150.52 101.97C151.42 102.395 152.284 102.892 153.145 103.388C153.191 103.417 153.145 103.493 153.098 103.464C152.251 102.971 151.38 102.52 150.488 102.114C149.656 101.725 148.796 101.394 147.968 101.034C150.081 104.332 151.352 108.137 153.044 111.661C153.069 111.715 152.99 111.755 152.968 111.704C152.45 110.47 151.856 109.264 151.291 108.05C150.787 106.97 150.293 105.862 149.786 104.767C149.638 104.45 149.483 104.13 149.329 103.813C149.422 105.574 149.386 107.366 149.689 109.109C149.689 109.12 149.684 109.131 149.676 109.139C149.668 109.147 149.657 109.152 149.645 109.152C149.634 109.152 149.623 109.147 149.615 109.139C149.607 109.131 149.602 109.12 149.602 109.109C149.48 107.226 149.149 105.376 149.159 103.482C149.159 103.482 149.159 103.464 149.159 103.457C148.799 102.737 148.439 102.017 148.007 101.336C147.306 102.985 146.568 104.659 146.244 106.43C146.244 106.484 146.146 106.459 146.161 106.402C146.636 104.627 147.079 102.852 147.932 101.21C147.484 100.459 146.987 99.7371 146.445 99.0504C146.208 99.4896 145.909 99.9036 145.642 100.321C145.376 100.739 145.124 101.142 144.883 101.563C144.362 102.456 143.92 103.392 143.562 104.36C143.54 104.411 143.454 104.386 143.475 104.332C143.846 103.421 144.256 102.478 144.717 101.563Z" fill="#263238"/>
<path d="M128.056 105.577C129.41 104.216 130.987 102.431 133.096 102.434C135.12 102.434 136.606 104.065 137.463 105.746C138.356 107.503 138.68 109.494 138.932 111.431C139.23 113.749 139.409 116.082 139.468 118.418C139.504 119.714 139.501 121.014 139.468 122.31C139.47 123.626 139.37 124.94 139.17 126.241C139.134 126.45 138.81 126.457 138.784 126.241C138.723 125.161 138.766 124.052 138.784 122.958C138.802 121.864 138.784 120.798 138.734 119.718C138.655 117.54 138.496 115.366 138.241 113.202C138.018 111.312 137.838 109.372 137.272 107.546C136.765 105.898 135.807 104.015 134.137 103.291C131.862 102.305 129.637 104.108 128.143 105.631C128.085 105.671 128.017 105.617 128.056 105.577Z" fill="#263238"/>
<path d="M121.13 108.616C121.13 108.893 121.159 109.166 121.177 109.436C121.83 108.95 122.593 108.633 123.398 108.515C125.324 108.31 125.198 109.775 123.916 109.836C123.01 109.847 122.114 110.026 121.274 110.365C121.587 112.907 122.286 114.952 122.394 114.977C124.102 114.88 125.802 114.666 127.48 114.336C127.002 113.314 125.911 111.96 126.465 111.852C127.02 111.744 127.628 112.932 127.938 114.242C129.195 114.002 130.432 113.661 131.635 113.224C130.789 112.504 129.475 111.578 129.982 111.19C130.49 110.801 131.52 112.086 132.142 113.018C132.71 112.789 133.247 112.491 133.741 112.129C132.6 110.452 129.82 110.11 130.184 108.889C130.548 107.669 133.147 109.357 134.317 111.6C135.688 110.16 136.088 108.166 135.944 106.445C134.749 106.304 132.452 106.556 132.618 105.7C132.783 104.843 134.446 105.005 135.804 105.505C135.679 104.825 135.407 104.18 135.008 103.615C133.748 101.999 129.903 104.054 129.903 104.054C129.903 104.054 130.314 100.192 128.848 99.522C128.006 99.1404 126.516 99.144 125.018 100.022C125.857 100.094 126.872 100.357 127.279 100.94C127.801 101.682 126.976 102.089 126.454 101.743C126.094 101.502 125.4 100.739 124.158 100.638C123.628 101.083 123.161 101.599 122.772 102.172C122.628 102.373 122.498 102.582 122.365 102.812C123.074 102.493 123.846 102.335 124.624 102.348C125.402 102.362 126.167 102.547 126.865 102.892C128.532 103.72 127.585 105.451 126.166 104.778C124.748 104.105 123.369 103.446 121.846 103.824C121.312 105.199 121.067 106.67 121.126 108.144C121.868 107.601 122.704 107.199 123.592 106.96C125.248 106.524 125.752 107.514 123.931 107.698C122.944 107.81 121.991 108.122 121.13 108.616ZM123.146 105.955C123.031 105.419 124.208 105.264 124.402 105.7C124.568 106.07 123.261 106.492 123.15 105.955H123.146ZM133.197 108.929C133.309 108.634 134.094 108.968 134.022 109.332C133.928 109.822 133.093 109.22 133.201 108.929H133.197ZM127.65 110.812C128.222 110.581 129.115 112.007 128.492 112.331C127.869 112.655 127.185 110.999 127.653 110.812H127.65Z" fill="#35BA83"/>
<path d="M122.62 114.689C123.484 113.249 124.337 111.809 125.245 110.369C125.666 109.71 126.109 109.062 126.566 108.428L126.361 108.382L126.019 108.313C125.752 108.266 125.486 108.23 125.216 108.202C124.946 108.173 124.712 108.162 124.46 108.158C124.189 108.146 123.918 108.16 123.65 108.202C123.617 108.202 123.61 108.158 123.65 108.158C123.92 108.158 124.197 108.137 124.467 108.13C124.737 108.122 124.989 108.13 125.252 108.151C125.515 108.173 125.741 108.191 125.972 108.227C126.109 108.248 126.242 108.27 126.375 108.299C126.456 108.31 126.537 108.327 126.616 108.349C127.096 107.704 127.576 107.074 128.056 106.459C126.564 105.73 124.972 105.221 123.333 104.951C123.304 104.951 123.315 104.904 123.333 104.908C124.996 105.132 126.613 105.618 128.125 106.348C128.402 106.009 128.679 105.671 128.96 105.336C129.241 105.001 129.604 104.594 129.889 104.195C129.907 104.17 129.943 104.195 129.921 104.22C129.539 104.648 129.179 105.095 128.841 105.559C129.458 105.989 130.045 106.461 130.598 106.97C131.174 107.479 131.734 108.005 132.279 108.547C132.279 108.565 132.279 108.598 132.247 108.576C131.709 108.043 131.15 107.533 130.569 107.046C129.986 106.564 129.37 106.117 128.769 105.638C128.636 105.818 128.503 105.998 128.366 106.168L128.164 106.434V106.452C127.937 106.744 127.714 107.039 127.495 107.33C127.754 107.71 127.977 108.114 128.161 108.536C128.355 108.943 128.521 109.364 128.679 109.786C128.987 110.668 129.228 111.573 129.399 112.493C129.399 112.518 129.359 112.532 129.356 112.493C129.172 111.588 128.91 110.702 128.571 109.843C128.402 109.4 128.211 108.968 128.013 108.54C127.815 108.112 127.617 107.777 127.448 107.381C127.257 107.636 127.063 107.896 126.872 108.158C126.818 108.234 126.767 108.31 126.71 108.385C126.71 108.403 126.71 108.425 126.692 108.425C126.098 109.253 125.533 110.102 124.985 110.945C125.017 111.004 125.042 111.067 125.057 111.132C125.093 111.236 125.126 111.341 125.158 111.445C125.219 111.658 125.27 111.874 125.309 112.09C125.349 112.306 125.374 112.496 125.396 112.705C125.398 112.939 125.415 113.172 125.446 113.404C125.446 113.436 125.399 113.44 125.403 113.404C125.42 113.185 125.404 112.966 125.356 112.752C125.324 112.529 125.284 112.306 125.23 112.086C125.176 111.866 125.133 111.69 125.072 111.496C125.043 111.398 125.011 111.301 124.978 111.204C124.946 111.107 124.935 111.1 124.917 111.046C124.661 111.449 124.406 111.852 124.157 112.259C123.661 113.069 123.167 113.879 122.671 114.685C122.66 114.764 122.595 114.728 122.62 114.689Z" fill="#263238"/>
<path d="M135.933 125.773C135.958 124.956 136.088 124.132 136.174 123.318L136.444 120.866C136.551 119.278 136.762 117.697 137.074 116.136C137.35 114.791 138.02 113.559 139 112.597C139.509 112.091 140.174 111.774 140.887 111.697C141.605 111.678 142.31 111.895 142.892 112.316C143.553 112.805 144.123 113.406 144.577 114.091C145.065 114.771 145.504 115.484 145.891 116.226C145.891 116.255 145.862 116.269 145.844 116.226C145.116 114.988 144.151 113.905 143.004 113.04C142.49 112.62 141.864 112.361 141.204 112.295C140.561 112.295 139.945 112.55 139.49 113.004C138.536 113.836 137.985 115.056 137.658 116.244C137.319 117.683 137.078 119.143 136.938 120.614C136.822 121.478 136.711 122.346 136.599 123.21C136.488 124.074 136.412 124.956 136.239 125.806C136.237 125.826 136.231 125.845 136.221 125.863C136.212 125.881 136.199 125.896 136.183 125.909C136.167 125.922 136.149 125.931 136.13 125.937C136.11 125.943 136.09 125.945 136.07 125.942C136.05 125.94 136.03 125.934 136.013 125.925C135.995 125.915 135.979 125.902 135.967 125.886C135.954 125.87 135.944 125.852 135.939 125.833C135.933 125.814 135.931 125.793 135.933 125.773Z" fill="#263238"/>
<path d="M139.958 119.419C140.211 119.762 140.51 120.069 140.847 120.33C140.714 119.531 140.552 118.112 140.955 117.356C141.578 116.183 142.32 116.77 141.949 117.788C141.577 118.705 141.372 119.68 141.344 120.668C142.196 121.202 143.108 121.633 144.062 121.95C143.96 121.492 143.929 121.021 143.972 120.553C144.098 119.297 145.052 119.322 144.807 120.625C144.714 121.131 144.671 121.645 144.678 122.159C146.062 122.586 147.478 122.908 148.911 123.12C149.643 122.169 150.233 121.118 150.664 119.999C149.646 119.743 147.579 119.686 147.622 118.958C147.68 117.976 149.682 118.732 150.862 119.444C151.131 118.59 151.253 117.697 151.222 116.802C150.303 116.547 149.36 116.391 148.407 116.338C146.305 116.154 146.409 114.962 147.932 114.991C149.055 115.013 150.477 115.711 151.15 116.071C150.711 113.213 148.53 111.391 146.784 111.312C143.828 111.182 144.89 114.84 144.89 114.84C144.89 114.84 142.899 113.44 141.02 113.476C139.141 113.512 137.949 116.64 139.958 119.419ZM147.806 114.12C147.741 113.71 149.055 113.609 149.12 114.12C149.21 114.743 147.874 114.552 147.806 114.12ZM149.93 118.44C149.901 118.17 150.466 118.123 150.596 118.462C150.672 118.667 149.93 118.688 149.93 118.44ZM142.87 118.688C143.313 118.75 143.565 120.334 142.806 120.305C142.212 120.265 142.485 118.62 142.86 118.674L142.87 118.688Z" fill="#35BA83"/>
<path d="M143.475 120.434C143.547 120.236 143.612 120.035 143.673 119.833C143.616 120.038 143.565 120.244 143.529 120.449C143.522 120.488 143.45 120.47 143.475 120.434Z" fill="#263238"/>
<path d="M143.673 119.833L143.716 119.693L143.673 119.833Z" fill="#263238"/>
<path d="M131.019 124.182L131.228 128.556L131.761 139.831H143.392L143.925 128.556L144.13 124.182H131.019Z" fill="#37474F"/>
<path d="M131.019 124.182L131.228 128.556H143.925L144.13 124.182H131.019Z" fill="#263238"/>
<path d="M130.191 125.95H144.955V122.411H130.191V125.95Z" fill="#37474F"/>
<path d="M142.449 139.831H140.408V141.682H142.449V139.831Z" fill="#37474F"/>
<path d="M142.449 139.831H140.408V140.756H142.449V139.831Z" fill="#263238"/>
<path d="M134.742 139.831H132.7V141.682H134.742V139.831Z" fill="#37474F"/>
<path d="M134.742 139.831H132.7V140.756H134.742V139.831Z" fill="#263238"/>
<path d="M14.8892 141.682L33.7928 141.595L52.6964 141.563L90.5 141.505L128.304 141.563L147.207 141.595L166.111 141.682L147.207 141.772L128.304 141.804L90.5 141.862L52.6964 141.804L33.7928 141.772L14.8892 141.682Z" fill="#263238"/>
<path d="M117.622 124.232H63.23V78.2208L90.4208 60.9516L117.622 78.2208V124.232Z" fill="#FE4D3C"/>
<path opacity="0.2" d="M117.622 124.232H63.23V78.2208L90.4208 60.9516L117.622 78.2208V124.232Z" fill="black"/>
<path d="M114.555 58.7628H66.2971V120.712H114.555V58.7628Z" fill="white"/>
<path d="M114.555 120.712L66.3153 120.794H66.2289V120.712L66.1785 58.7628V58.6296H66.3153L114.555 58.6656H114.649V58.7628L114.555 120.712ZM114.555 120.712L114.458 58.7628L114.555 58.8564L66.3153 58.896L66.4485 58.7628L66.3801 120.712L66.2973 120.625L114.555 120.712Z" fill="#DBDBDB"/>
<path d="M112.615 96.984C112.66 98.796 112.695 100.606 112.719 102.413C112.719 104.213 112.773 106.034 112.773 107.845L112.795 113.274L112.773 118.706V118.865H112.615C110.721 118.865 108.828 118.836 106.934 118.814C105.04 118.793 103.147 118.753 101.253 118.706C103.147 118.66 105.04 118.616 106.934 118.598C108.828 118.58 110.721 118.548 112.615 118.548L112.456 118.706L112.435 113.274L112.456 107.845C112.456 106.045 112.492 104.224 112.51 102.413C112.528 100.602 112.568 98.7948 112.615 96.984Z" fill="#FE4D3C"/>
<path d="M68.234 82.4904C68.1884 80.6808 68.1536 78.87 68.1296 77.058C68.1116 75.258 68.0756 73.44 68.0756 71.6292L68.054 66.1968L68.0756 60.768V60.606H68.234C70.1276 60.606 72.0212 60.6348 73.9148 60.6564C75.8084 60.678 77.702 60.7176 79.5956 60.7644C77.702 60.8112 75.8084 60.8544 73.9148 60.8724C72.0212 60.8904 70.1276 60.9228 68.234 60.9228L68.3924 60.7644L68.414 66.1932L68.3924 71.64C68.3924 73.44 68.3564 75.2616 68.3384 77.0688C68.3204 78.876 68.2808 80.6796 68.234 82.4904Z" fill="#FE4D3C"/>
<path d="M90.4531 60.768L95.9935 60.678L101.534 60.6276C103.381 60.606 105.228 60.6276 107.074 60.6024H112.615H112.795V60.7824L112.777 66.2112L112.752 71.64C112.723 75.2616 112.69 78.8796 112.615 82.5012C112.539 78.8796 112.507 75.2616 112.478 71.64L112.46 66.1968L112.442 60.768L112.622 60.948L107.06 60.93C105.213 60.93 103.366 60.93 101.52 60.9048L95.9935 60.84L90.4531 60.768Z" fill="#FE4D3C"/>
<path d="M90.3956 118.706C86.702 118.775 83.0084 118.811 79.3148 118.836C75.6212 118.861 71.9276 118.865 68.234 118.883H68.0576V118.706V112.374L68.0792 106.045L68.1296 99.7128L68.2232 93.384L68.3168 99.7128L68.3672 106.045L68.3888 112.374V118.706L68.2124 118.53C71.906 118.548 75.5996 118.53 79.2932 118.573C82.9868 118.616 86.702 118.638 90.3956 118.706Z" fill="#FE4D3C"/>
<path d="M78.314 66.7116V66.5532H80.8772V66.7116H80.06V72.8028H80.8772V72.9576H78.314V72.8028H79.034V66.7116H78.314Z" fill="#FE4D3C"/>
<path d="M83.8651 72.9576H81.7051V72.81H82.3567V68.5728H81.6367V68.4252H81.8599C82.3262 68.4319 82.792 68.3896 83.2495 68.2992V69.282H83.2999C83.4027 68.9762 83.5985 68.7101 83.8599 68.521C84.1213 68.3319 84.4353 68.2292 84.7579 68.2272C85.9819 68.2272 86.2483 69.0264 86.2483 70.2504V72.81H86.8999V72.9576H84.7219V72.81H85.3735V70.3872C85.3735 69.588 85.3735 68.5044 84.5743 68.5044C83.4511 68.5044 83.2243 69.9048 83.2243 71.0244V72.8064H83.8759L83.8651 72.9576Z" fill="#FE4D3C"/>
<path d="M91.436 69.804C91.436 69.1164 91.2668 68.4072 90.6584 68.4072C90.5972 68.4072 90.5576 68.436 90.5576 68.4936C90.5576 68.5512 90.59 68.5728 90.6476 68.5836C90.7281 68.6026 90.7997 68.6488 90.8502 68.7144C90.9006 68.7799 90.927 68.8609 90.9248 68.9436C90.9231 69.0091 90.908 69.0735 90.8804 69.1329C90.8528 69.1923 90.8133 69.2454 90.7644 69.2889C90.7155 69.3324 90.6581 69.3655 90.5959 69.386C90.5337 69.4064 90.468 69.4139 90.4028 69.408C90.3309 69.41 90.2593 69.3973 90.1924 69.3707C90.1256 69.3441 90.0649 69.3041 90.014 69.2532C89.9631 69.2023 89.9231 69.1416 89.8965 69.0748C89.8699 69.0079 89.8572 68.9363 89.8592 68.8644C89.8614 68.7736 89.882 68.6842 89.9199 68.6016C89.9577 68.519 90.0119 68.445 90.0793 68.384C90.1466 68.3231 90.2257 68.2765 90.3116 68.247C90.3976 68.2176 90.4886 68.206 90.5792 68.2128C91.3964 68.2128 91.6232 68.9328 91.6232 69.75C91.6232 71.3772 90.7376 73.1412 89.7008 73.1412C88.5776 73.1412 87.9008 71.514 87.9008 69.1092V68.5584H87.2024V68.4108H87.4076C87.8739 68.4176 88.3397 68.3754 88.7972 68.2848V68.886C88.7972 70.5204 89.1032 72.6984 90.05 72.6984C90.698 72.72 91.436 71.1648 91.436 69.804Z" fill="#FE4D3C"/>
<path d="M94.0099 72.81H94.6615V72.9576H92.4835V72.81H93.1315V68.5728H92.4331V68.4252H92.6383C93.0987 68.4321 93.5585 68.3898 94.0099 68.2992V72.81ZM93.5383 66.3552C93.6149 66.3548 93.6907 66.3695 93.7615 66.3987C93.8323 66.4279 93.8965 66.4709 93.9505 66.5252C94.0045 66.5795 94.0471 66.644 94.0758 66.715C94.1046 66.7859 94.1189 66.8619 94.1179 66.9384C94.1184 67.0143 94.1037 67.0896 94.0746 67.1597C94.0456 67.2299 94.0028 67.2935 93.9488 67.3468C93.8948 67.4002 93.8306 67.4422 93.7601 67.4703C93.6896 67.4985 93.6142 67.5123 93.5383 67.5108C93.4627 67.5123 93.3876 67.4985 93.3175 67.4703C93.2474 67.442 93.1837 67.3999 93.1303 67.3464C93.0768 67.293 93.0347 67.2293 93.0065 67.1592C92.9782 67.0891 92.9644 67.014 92.9659 66.9384C92.964 66.8622 92.9774 66.7864 93.0053 66.7155C93.0333 66.6446 93.0752 66.58 93.1286 66.5256C93.182 66.4712 93.2458 66.4281 93.3161 66.3988C93.3865 66.3695 93.4621 66.3547 93.5383 66.3552Z" fill="#FE4D3C"/>
<path d="M96.9079 71.9244C96.9079 72.594 96.9079 72.8892 97.1743 72.8892C97.5343 72.8892 97.8943 72.3276 98.0347 71.982L98.1895 72.0432C97.9735 72.594 97.5487 73.1556 96.9583 73.1556C96.1123 73.1556 96.0331 72.5544 96.0331 71.7156V68.58H95.3347V68.4324H95.4031C96.1987 68.4324 96.6343 67.9212 96.7819 67.1328H96.9079V68.4324H98.1031V68.58H96.9079V71.9244Z" fill="#FE4D3C"/>
<path d="M102.686 69.48C102.686 70.6896 101.386 70.7904 100.166 70.7904H99.7016V71.0748C99.7016 72.0612 100.062 72.8748 101.062 72.8748C101.869 72.8748 102.322 72.2556 102.502 71.5356L102.679 71.5572C102.47 72.4824 101.84 73.152 100.836 73.152C99.4172 73.152 98.7476 72.108 98.7476 70.6896C98.7476 69.2712 99.5072 68.2236 100.944 68.2236C101.847 68.2272 102.686 68.5944 102.686 69.48ZM100.054 70.614C101.03 70.614 101.728 70.4556 101.728 69.48C101.728 68.8572 101.484 68.4 100.861 68.4C99.9572 68.4 99.7088 69.444 99.7088 70.3512V70.6284L100.054 70.614Z" fill="#FE4D3C"/>
<path d="M107.762 77.8248H73.2417V78.1452H107.762V77.8248Z" fill="#EBEBEB"/>
<path d="M107.762 79.8984H73.2417V80.2188H107.762V79.8984Z" fill="#EBEBEB"/>
<path d="M107.762 81.9756H73.2417V82.296H107.762V81.9756Z" fill="#EBEBEB"/>
<path d="M107.762 84.0492H73.2417V84.3696H107.762V84.0492Z" fill="#EBEBEB"/>
<path d="M107.762 86.1228H73.2417V86.4432H107.762V86.1228Z" fill="#EBEBEB"/>
<path d="M102.607 88.2H78.3896V88.5204H102.607V88.2Z" fill="#EBEBEB"/>
<path d="M107.762 92.3508H73.2417V92.6712H107.762V92.3508Z" fill="#EBEBEB"/>
<path d="M107.762 94.4244H73.2417V94.7448H107.762V94.4244Z" fill="#EBEBEB"/>
<path d="M107.762 96.5016H73.2417V96.822H107.762V96.5016Z" fill="#EBEBEB"/>
<path d="M107.762 98.5752H73.2417V98.8956H107.762V98.5752Z" fill="#EBEBEB"/>
<path d="M107.762 100.652H73.2417V100.973H107.762V100.652Z" fill="#EBEBEB"/>
<path d="M117.622 89.7372V124.232H63.23V89.7372C65.5628 91.0584 67.8596 92.448 70.1708 93.8052C72.482 95.1624 74.7788 96.5664 77.0648 97.9704C79.6136 99.5232 82.16 101.096 84.704 102.69L84.7832 102.643C84.7616 102.643 84.7436 102.683 84.7184 102.701C86.624 103.886 88.5272 105.076 90.428 106.268C92.3252 105.077 94.226 103.874 96.1304 102.701C96.1052 102.701 96.0908 102.658 96.0656 102.643C96.0917 102.659 96.1195 102.673 96.1484 102.683C98.6852 101.099 101.23 99.5256 103.784 97.9632C106.071 96.5664 108.367 95.1804 110.671 93.8052C112.989 92.448 115.286 91.0584 117.622 89.7372Z" fill="#FE4D3C"/>
<g opacity="0.2">
<path opacity="0.2" d="M117.622 89.7372C115.423 91.2816 113.187 92.7576 110.973 94.2768C108.759 95.796 106.506 97.2504 104.259 98.7228C101.912 100.256 99.5612 101.778 97.2068 103.288L96.9944 103.435C94.9136 104.767 92.8256 106.098 90.7304 107.428L90.4208 107.618L90.1184 107.428C88.0256 106.098 85.94 104.765 83.8616 103.428C83.7896 103.385 83.714 103.338 83.642 103.288C81.2804 101.776 78.9272 100.25 76.5824 98.712C74.3468 97.2504 72.1076 95.7636 69.8756 94.2768C67.6436 92.79 65.426 91.2816 63.23 89.7372C65.5628 91.0584 67.8596 92.448 70.1708 93.8052C72.482 95.1624 74.7788 96.5664 77.0648 97.9704C79.6136 99.5232 82.16 101.096 84.704 102.69C86.6096 103.876 88.5128 105.065 90.4136 106.258C92.3108 105.066 94.2116 103.864 96.116 102.69C96.116 102.69 96.116 102.69 96.134 102.69C98.6708 101.106 101.216 99.5328 103.77 97.9704C106.057 96.5736 108.352 95.1876 110.656 93.8124C112.989 92.448 115.286 91.0584 117.622 89.7372Z" fill="black"/>
<path opacity="0.2" d="M84.7832 102.643C84.7616 102.643 84.7436 102.683 84.7184 102.701C84.434 102.946 84.146 103.19 83.8616 103.421C82.4972 104.573 81.1004 105.674 79.6784 106.744C77.9468 108.068 76.1756 109.332 74.3936 110.592C72.6116 111.852 70.7936 113.051 68.972 114.228C67.1504 115.405 65.2784 116.554 63.3596 117.608C65.0084 116.168 66.7256 114.815 68.4572 113.501C70.1888 112.187 71.9672 110.909 73.742 109.652C75.5168 108.396 77.342 107.186 79.1744 106.009C80.636 105.07 82.1228 104.148 83.642 103.28C84.002 103.075 84.362 102.881 84.722 102.683L84.7832 102.643Z" fill="black"/>
<path opacity="0.2" d="M117.5 117.616C115.581 116.561 113.72 115.409 111.891 114.235C110.062 113.062 108.255 111.83 106.459 110.599C104.662 109.368 102.906 108.079 101.174 106.751C99.7592 105.671 98.3624 104.591 97.0052 103.435L96.1412 102.715C96.116 102.715 96.1016 102.672 96.0764 102.658C96.1025 102.674 96.1303 102.687 96.1592 102.697C96.5192 102.902 96.8792 103.097 97.2176 103.302C98.7404 104.17 100.216 105.102 101.689 106.031C103.525 107.208 105.321 108.432 107.11 109.674C108.9 110.916 110.664 112.194 112.395 113.522C114.127 114.851 115.84 116.168 117.5 117.616Z" fill="black"/>
</g>
<path d="M114.526 56.646C114.4 56.39 114.338 56.107 114.346 55.8216C114.339 55.5363 114.401 55.2534 114.526 54.9972C114.651 55.2538 114.713 55.5364 114.706 55.8216C114.711 56.1066 114.65 56.3889 114.526 56.646Z" fill="#263238"/>
<path d="M113.036 57.2868C112.763 57.1943 112.516 57.0375 112.316 56.8296C112.109 56.6293 111.954 56.3824 111.862 56.1096C112.128 56.2092 112.37 56.3649 112.571 56.5661C112.771 56.7674 112.926 57.0095 113.025 57.276L113.036 57.2868Z" fill="#263238"/>
<path d="M112.438 58.7916C112.18 58.9103 111.899 58.9717 111.614 58.9717C111.329 58.9717 111.048 58.9103 110.79 58.7916C111.046 58.6654 111.329 58.6036 111.614 58.6116C111.899 58.6054 112.182 58.6671 112.438 58.7916Z" fill="#263238"/>
<path d="M113.079 60.2784C112.979 60.5452 112.823 60.7874 112.621 60.9887C112.419 61.1899 112.176 61.3454 111.909 61.4448C112.009 61.1779 112.166 60.9357 112.367 60.7345C112.569 60.5333 112.812 60.3777 113.079 60.2784Z" fill="#263238"/>
<path d="M114.584 60.876C114.708 61.134 114.768 61.4179 114.76 61.704C114.768 61.9893 114.706 62.2722 114.58 62.5284C114.458 62.271 114.396 61.9889 114.4 61.704C114.395 61.4174 114.458 61.1336 114.584 60.876Z" fill="#263238"/>
<path d="M116.06 60.2388C116.326 60.3384 116.568 60.4941 116.768 60.6954C116.969 60.8966 117.124 61.1387 117.223 61.4052C116.957 61.3056 116.715 61.1499 116.514 60.9486C116.314 60.7474 116.159 60.5053 116.06 60.2388Z" fill="#263238"/>
<path d="M116.668 58.734C116.927 58.6153 117.208 58.5538 117.493 58.5538C117.777 58.5538 118.059 58.6153 118.317 58.734C118.061 58.8602 117.778 58.922 117.493 58.914C117.208 58.9184 116.926 58.8568 116.668 58.734Z" fill="#263238"/>
<path d="M116.028 57.24C116.121 56.9673 116.278 56.7206 116.485 56.52C116.685 56.3121 116.932 56.1553 117.205 56.0628C117.105 56.3296 116.948 56.5719 116.747 56.7731C116.545 56.9743 116.302 57.1299 116.035 57.2292L116.028 57.24Z" fill="#263238"/>
<path d="M70.5308 92.0628C70.4058 91.8051 70.3441 91.5212 70.3508 91.2348C70.3468 90.9498 70.4084 90.6678 70.5308 90.4104C70.6571 90.6677 70.7189 90.9519 70.7108 91.2384C70.7149 91.5234 70.6533 91.8054 70.5308 92.0628Z" fill="#263238"/>
<path d="M69.0438 92.7C68.7768 92.6012 68.5342 92.4459 68.3329 92.2445C68.1315 92.0432 67.9762 91.8006 67.8774 91.5336C68.1437 91.6337 68.3855 91.7896 68.5866 91.9908C68.7878 92.1919 68.9437 92.4337 69.0438 92.7Z" fill="#263238"/>
<path d="M68.4428 94.2048C68.1861 94.3293 67.9035 94.391 67.6184 94.3848C67.3333 94.3892 67.0512 94.3276 66.7939 94.2048C67.0501 94.079 67.333 94.0172 67.6184 94.0248C67.9034 94.02 68.1857 94.0816 68.4428 94.2048Z" fill="#263238"/>
<path d="M69.0836 95.6916C68.9835 95.9578 68.8276 96.1996 68.6264 96.4008C68.4253 96.6019 68.1835 96.7578 67.9172 96.858C68.0174 96.5917 68.1733 96.35 68.3744 96.1488C68.5756 95.9476 68.8174 95.7918 69.0836 95.6916Z" fill="#263238"/>
<path d="M70.5885 96.2928C70.7117 96.5499 70.7733 96.8321 70.7685 97.1172C70.7735 97.4027 70.7106 97.6852 70.5849 97.9416C70.4616 97.6846 70.4012 97.4021 70.4085 97.1172C70.4001 96.8318 70.462 96.5487 70.5885 96.2928Z" fill="#263238"/>
<path d="M72.0752 95.652C72.3414 95.7522 72.5832 95.9081 72.7844 96.1092C72.9855 96.3104 73.1414 96.5521 73.2416 96.8184C72.9684 96.7259 72.7215 96.5691 72.5216 96.3612C72.3198 96.1626 72.167 95.9198 72.0752 95.652Z" fill="#263238"/>
<path d="M72.6729 94.1472C72.9313 94.0243 73.2147 93.9627 73.5008 93.9672C73.7863 93.9622 74.0689 94.0251 74.3252 94.1508C74.0672 94.2746 73.7833 94.3351 73.4973 94.3272C73.2119 94.3348 72.929 94.273 72.6729 94.1472Z" fill="#263238"/>
<path d="M72.0356 92.6604C72.1344 92.3933 72.2897 92.1508 72.4911 91.9494C72.6924 91.7481 72.935 91.5927 73.202 91.494C73.1095 91.7672 72.9527 92.0141 72.7448 92.214C72.5463 92.4158 72.3035 92.5686 72.0356 92.6604Z" fill="#263238"/>
<path d="M108.14 118.908C108.082 118.853 108.036 118.787 108.005 118.713C107.974 118.639 107.959 118.56 107.96 118.48C107.959 118.4 107.974 118.321 108.005 118.248C108.036 118.175 108.082 118.109 108.14 118.055C108.197 118.11 108.242 118.176 108.273 118.249C108.304 118.322 108.32 118.4 108.32 118.48C108.32 118.559 108.304 118.638 108.273 118.712C108.242 118.785 108.197 118.852 108.14 118.908Z" fill="#263238"/>
<path d="M107.362 119.236C107.283 119.237 107.204 119.223 107.13 119.193C107.057 119.163 106.99 119.119 106.934 119.063C106.878 119.006 106.834 118.939 106.804 118.866C106.775 118.792 106.76 118.714 106.761 118.634C106.84 118.632 106.919 118.647 106.993 118.677C107.067 118.706 107.134 118.751 107.189 118.807C107.246 118.863 107.29 118.93 107.32 119.004C107.349 119.077 107.364 119.156 107.362 119.236Z" fill="#263238"/>
<path d="M107.06 120.013C107.005 120.07 106.939 120.116 106.866 120.147C106.793 120.178 106.715 120.194 106.635 120.194C106.556 120.194 106.477 120.178 106.404 120.147C106.332 120.116 106.266 120.07 106.21 120.013C106.265 119.955 106.331 119.909 106.404 119.878C106.477 119.847 106.556 119.832 106.635 119.833C106.715 119.833 106.793 119.849 106.866 119.88C106.939 119.911 107.005 119.956 107.06 120.013Z" fill="#263238"/>
<path d="M107.384 120.78C107.385 120.859 107.37 120.938 107.341 121.012C107.311 121.085 107.267 121.152 107.211 121.208C107.156 121.266 107.089 121.311 107.015 121.341C106.941 121.371 106.862 121.386 106.783 121.385C106.78 121.305 106.795 121.226 106.824 121.153C106.854 121.079 106.899 121.012 106.956 120.956C107.011 120.899 107.078 120.854 107.151 120.824C107.225 120.793 107.304 120.779 107.384 120.78Z" fill="#263238"/>
<path d="M108.161 121.09C108.218 121.146 108.263 121.212 108.294 121.286C108.325 121.359 108.341 121.438 108.342 121.518C108.341 121.597 108.325 121.675 108.294 121.748C108.263 121.821 108.218 121.887 108.161 121.943C108.104 121.888 108.058 121.822 108.027 121.749C107.996 121.676 107.981 121.597 107.981 121.518C107.981 121.438 107.997 121.359 108.028 121.285C108.059 121.212 108.104 121.145 108.161 121.09Z" fill="#263238"/>
<path d="M108.928 120.762C109.008 120.76 109.087 120.774 109.16 120.804C109.234 120.834 109.301 120.878 109.357 120.935C109.414 120.99 109.459 121.057 109.489 121.131C109.518 121.204 109.532 121.284 109.529 121.363C109.45 121.364 109.371 121.35 109.298 121.32C109.224 121.29 109.157 121.246 109.101 121.19C109.045 121.134 109.002 121.067 108.972 120.993C108.942 120.92 108.927 120.841 108.928 120.762Z" fill="#263238"/>
<path d="M109.238 119.984C109.293 119.927 109.359 119.882 109.432 119.851C109.505 119.82 109.584 119.804 109.663 119.804C109.698 119.77 109.743 119.746 109.792 119.737C109.841 119.728 109.891 119.733 109.937 119.752C109.983 119.771 110.022 119.804 110.049 119.845C110.077 119.886 110.091 119.935 110.091 119.984C110.091 120.034 110.077 120.082 110.049 120.124C110.022 120.165 109.983 120.197 109.937 120.217C109.891 120.236 109.841 120.241 109.792 120.232C109.743 120.223 109.698 120.199 109.663 120.164C109.503 120.163 109.35 120.098 109.238 119.984Z" fill="#263238"/>
<path d="M108.907 119.218C108.768 119.217 108.633 119.168 108.526 119.08C108.419 118.991 108.346 118.868 108.32 118.732C108.293 118.595 108.315 118.454 108.38 118.332C108.446 118.209 108.552 118.113 108.681 118.06C108.809 118.008 108.952 118.001 109.085 118.041C109.218 118.082 109.333 118.167 109.41 118.283C109.487 118.398 109.522 118.537 109.508 118.675C109.494 118.814 109.433 118.943 109.335 119.041C109.28 119.098 109.213 119.143 109.139 119.174C109.066 119.204 108.987 119.219 108.907 119.218Z" fill="#263238"/>
<path d="M64.3712 163.998C63.5612 164.257 40.5176 163.958 39.6464 163.39C39.3116 163.181 39.1604 159.818 39.092 155.754V155.624C39.092 154.789 39.0668 153.925 39.0632 153.05C39.0632 152.932 39.0632 152.809 39.0632 152.69L40.1828 140.735L55.598 140.89L54.0752 152.734V153.202L53.9816 155.653V155.905C53.9816 155.905 62.7512 159.966 63.644 160.69C64.5368 161.413 65.1776 163.739 64.3712 163.998Z" fill="#EB9481"/>
<path d="M64.3712 163.998C63.5612 164.257 40.5176 163.958 39.6464 163.39C39.3116 163.181 39.1604 159.818 39.092 155.754V155.624C39.092 154.789 39.0668 153.925 39.0632 153.05C39.0632 152.932 39.0632 152.809 39.0632 152.69L54.0752 152.734V153.202L53.9816 155.653V155.905C53.9816 155.905 62.7512 159.966 63.644 160.69C64.5368 161.413 65.1776 163.739 64.3712 163.998Z" fill="#EBEBEB"/>
<path d="M64.3714 163.994C63.9574 164.131 57.697 164.117 51.577 163.994C50.3458 163.969 49.1218 163.944 47.9554 163.912C43.5922 163.793 39.985 163.613 39.6502 163.393C39.3154 163.174 39.1678 159.916 39.0994 155.927C39.0994 155.869 39.0994 155.812 39.0994 155.758C39.0994 155.704 39.0994 155.668 39.0994 155.628L53.953 155.653V155.909C53.953 155.909 62.7226 159.966 63.6118 160.693C64.501 161.42 65.1814 163.739 64.3714 163.994Z" fill="#14171F"/>
<path d="M64.1228 163.102C60.2384 162.954 44.5604 162.742 40.7228 162.886C40.6904 162.886 40.6904 162.907 40.7228 162.907C44.5712 163.138 60.2492 163.231 64.1228 163.163C64.22 163.163 64.22 163.102 64.1228 163.102Z" fill="#263238"/>
<path d="M55.616 155.718C54.0932 155.412 52.2176 155.621 51.0368 156.697C50.99 156.737 51.0368 156.802 51.1016 156.787C52.5683 156.334 54.0793 156.04 55.6088 155.909C55.6311 155.905 55.6516 155.894 55.6666 155.877C55.6817 155.861 55.6904 155.839 55.6913 155.816C55.6921 155.794 55.6851 155.772 55.6713 155.754C55.6576 155.736 55.638 155.723 55.616 155.718Z" fill="#263238"/>
<path d="M56.7105 156.395C55.1877 156.089 53.3157 156.301 52.1313 157.374C52.0845 157.417 52.1313 157.482 52.1961 157.468C53.6629 157.017 55.174 156.726 56.7033 156.6C56.7305 156.601 56.757 156.591 56.7769 156.572C56.7968 156.554 56.8085 156.528 56.8095 156.501C56.8104 156.474 56.8005 156.447 56.782 156.427C56.7634 156.407 56.7377 156.396 56.7105 156.395Z" fill="#263238"/>
<path d="M57.8048 157.075C56.282 156.769 54.41 156.982 53.2256 158.054C53.1824 158.098 53.2256 158.159 53.2904 158.144C54.7574 157.693 56.2684 157.4 57.7976 157.27C57.8234 157.271 57.8485 157.261 57.8674 157.244C57.8863 157.226 57.8975 157.202 57.8984 157.176C57.8994 157.15 57.8901 157.125 57.8725 157.106C57.855 157.087 57.8306 157.076 57.8048 157.075Z" fill="#263238"/>
<path d="M51.577 163.991C50.3458 163.966 49.1218 163.94 47.9554 163.908C43.5922 163.789 39.985 163.609 39.6502 163.39C39.3154 163.17 39.1678 159.912 39.0994 155.923C39.0994 155.866 39.0994 155.808 39.0994 155.754C39.0994 155.7 39.0994 155.664 39.0994 155.624C41.1442 157.05 48.3154 161.824 51.577 163.991Z" fill="#263238"/>
<path d="M54.9754 155.704H38.3757C38.3757 155.704 41.7201 116.939 41.5869 116.28C41.4213 115.412 40.4422 111.488 39.139 106.362C38.7286 104.76 38.2894 103.039 37.8286 101.254C36.5938 96.4332 35.2293 91.1736 34.0413 86.5764C32.2413 79.704 30.8625 74.3652 30.8625 74.3652H44.9313C44.9313 74.3652 46.5802 79.56 48.6358 86.3064C52.0018 97.2936 56.5017 112.421 56.9445 116.096C57.6645 122.04 54.9754 155.704 54.9754 155.704Z" fill="#37474F"/>
<path d="M54.2372 152.87C51.7172 152.82 52.4372 152.798 49.8956 152.773C48.6572 152.773 40.5032 152.69 39.344 152.885C39.3374 152.885 39.331 152.887 39.3262 152.892C39.3215 152.897 39.3188 152.903 39.3188 152.91C39.3188 152.917 39.3215 152.923 39.3262 152.928C39.331 152.933 39.3374 152.935 39.344 152.935C40.5032 153.126 48.6572 153.054 49.8956 153.043C52.4156 153.018 51.6956 153 54.2372 152.946C54.2432 152.948 54.2495 152.948 54.2556 152.947C54.2617 152.946 54.2675 152.944 54.2725 152.94C54.2775 152.936 54.2816 152.932 54.2844 152.926C54.2872 152.921 54.2886 152.914 54.2886 152.908C54.2886 152.902 54.2872 152.896 54.2844 152.89C54.2816 152.885 54.2775 152.88 54.2725 152.876C54.2675 152.873 54.2617 152.87 54.2556 152.869C54.2495 152.868 54.2432 152.869 54.2372 152.87Z" fill="#263238"/>
<path d="M44.7117 113.893C44.1681 111.492 43.3545 109.141 42.6453 106.787C41.2053 102.001 39.7581 97.2192 38.3037 92.4408C37.5837 90.0408 36.8541 87.6504 36.1149 85.2696C35.7549 84.0672 35.3733 82.8576 34.9953 81.6696C34.6173 80.4816 34.2069 79.308 33.8721 78.12C33.7353 77.6376 33.6633 77.904 33.8361 78.516C34.1961 79.7544 34.5309 80.9928 34.8945 82.2276C35.6145 84.6756 36.3345 87.12 37.0545 89.5608C38.4945 94.4256 39.9465 99.2844 41.4105 104.137C42.1305 106.576 42.8625 109.01 43.6065 111.442C43.977 112.601 44.2764 113.781 44.5029 114.977C44.6996 116.227 44.7491 117.495 44.6505 118.757C44.4921 121.295 44.1969 123.829 43.9629 126.364C43.7289 128.898 43.4913 131.443 43.2429 133.981C42.7629 139.021 42.2997 144.073 41.8533 149.137C41.7957 149.778 41.7381 150.419 41.6877 151.06C41.6877 151.276 41.8245 151.301 41.8461 151.096C42.3933 146.099 42.9873 141.044 43.4553 136.04C43.9233 131.036 44.3877 126.083 44.8521 121.104C44.9709 119.855 45.1041 118.602 45.1041 117.346C45.1016 116.184 44.97 115.026 44.7117 113.893Z" fill="#263238"/>
<path d="M43.34 74.3472C42.3644 81.9072 40.5032 96.0696 39.146 106.344C35.9708 93.8916 30.866 74.3472 30.866 74.3472H43.34Z" fill="#263238"/>
<path d="M46.789 164.218C45.979 164.484 22.9354 164.268 22.0642 163.703C21.7294 163.494 21.5638 160.132 21.481 156.067V155.941C21.4594 155.102 21.4486 154.238 21.4414 153.364C21.4414 153.245 21.4414 153.126 21.4414 153.004C21.3874 147.136 21.8014 141.048 21.8014 141.048L36.8674 141.145L36.4498 153V153.468L36.3634 155.92V156.172C36.3634 156.172 45.1402 160.2 46.0186 160.92C46.897 161.64 47.5954 163.958 46.789 164.218Z" fill="#EB9481"/>
<path d="M46.7888 164.218C45.9788 164.484 22.9352 164.268 22.064 163.703C21.7292 163.494 21.5636 160.132 21.4808 156.067V155.941C21.4592 155.102 21.4484 154.238 21.4412 153.364C21.4412 153.245 21.4412 153.126 21.4412 153.004H36.4532V153.472L36.3668 155.923V156.175C36.3668 156.175 45.14 160.2 46.0184 160.92C46.8968 161.64 47.5952 163.958 46.7888 164.218Z" fill="#EBEBEB"/>
<path d="M46.789 164.218C45.979 164.484 22.9354 164.268 22.0642 163.703C21.7294 163.494 21.5638 160.132 21.481 156.067V155.941L36.349 155.912V156.164C36.349 156.164 45.1402 160.2 46.0186 160.92C46.897 161.64 47.5954 163.958 46.789 164.218Z" fill="#14171F"/>
<path d="M46.5368 163.325C42.6524 163.192 26.9744 163.026 23.1368 163.192C23.108 163.192 23.108 163.213 23.1368 163.217C26.9852 163.433 42.6632 163.469 46.5368 163.386C46.616 163.386 46.616 163.325 46.5368 163.325Z" fill="#263238"/>
<path d="M38.0048 155.97C36.4784 155.671 34.6064 155.887 33.4292 156.967C33.3824 157.007 33.4292 157.072 33.4904 157.057C34.9568 156.6 36.4677 156.301 37.9976 156.164C38.0234 156.165 38.0485 156.156 38.0674 156.138C38.0863 156.121 38.0974 156.097 38.0984 156.071C38.0994 156.045 38.09 156.02 38.0725 156.001C38.0549 155.982 38.0306 155.971 38.0048 155.97Z" fill="#263238"/>
<path d="M39.1029 156.647C37.5765 156.344 35.7045 156.564 34.5237 157.64C34.4805 157.684 34.5237 157.748 34.5885 157.734C36.053 157.274 37.563 156.973 39.0921 156.838C39.1146 156.835 39.1354 156.824 39.1509 156.807C39.1663 156.791 39.1755 156.769 39.1768 156.747C39.1781 156.724 39.1714 156.702 39.1579 156.683C39.1444 156.665 39.125 156.652 39.1029 156.647Z" fill="#263238"/>
<path d="M40.1972 157.32C38.6744 157.021 36.8024 157.237 35.6216 158.317C35.5784 158.36 35.6216 158.422 35.6864 158.407C37.1515 157.95 38.6613 157.65 40.19 157.514C40.2158 157.515 40.2409 157.506 40.2598 157.488C40.2787 157.471 40.2899 157.447 40.2908 157.421C40.2918 157.395 40.2825 157.37 40.2649 157.351C40.2474 157.332 40.223 157.321 40.1972 157.32Z" fill="#263238"/>
<path d="M44.4741 74.3472C44.4741 74.3472 44.1501 81.0792 42.6093 86.4072C42.4869 86.85 42.3537 87.282 42.2097 87.6996C40.7971 88.2679 39.4401 88.9656 38.1561 89.784C38.1561 89.784 37.9905 95.184 37.8285 101.236C37.6485 107.989 37.4685 115.517 37.5009 117.115C37.6449 123.091 36.7557 155.948 36.7557 155.948L20.1597 156.013C20.1597 156.013 23.1621 119.322 23.1405 117.133C23.1081 113.616 23.9433 98.0532 24.5805 86.724C24.9765 79.7364 25.3005 74.3472 25.3005 74.3472H44.4741Z" fill="#37474F"/>
<path d="M36.1868 153C33.6668 152.957 34.3868 152.932 31.8452 152.921C30.6032 152.921 22.4492 152.878 21.2936 153.072C21.2684 153.072 21.2684 153.122 21.2936 153.126C22.4528 153.313 30.6032 153.205 31.8452 153.191C34.3652 153.155 33.6452 153.137 36.1868 153.072C36.1963 153.072 36.2055 153.068 36.2122 153.061C36.219 153.055 36.2228 153.046 36.2228 153.036C36.2228 153.026 36.219 153.017 36.2122 153.011C36.2055 153.004 36.1963 153 36.1868 153Z" fill="#263238"/>
<path d="M26.7008 76.752C26.3984 86.0112 26.0744 95.2704 25.6604 104.522C25.2464 113.774 23.0648 147.046 22.5068 152.212C22.5068 152.244 22.5536 152.258 22.5572 152.212C23.7668 143.028 24.44 129.434 25.034 120.193C25.628 110.952 26.0312 101.696 26.348 92.4408C26.5244 87.2064 26.6612 81.972 26.816 76.7376C26.8196 76.68 26.7044 76.68 26.7008 76.752Z" fill="#263238"/>
<path d="M42.8972 87.2964C41.2479 87.9871 39.6616 88.8194 38.156 89.784C38.1438 89.7906 38.1346 89.8017 38.1303 89.8149C38.126 89.8281 38.127 89.8424 38.133 89.8549C38.1391 89.8674 38.1497 89.8771 38.1626 89.882C38.1756 89.8869 38.19 89.8866 38.2028 89.8812C39.8048 89.1036 41.4428 88.3548 42.9944 87.4908C43.0072 87.4844 43.0185 87.4756 43.0279 87.4648C43.0372 87.454 43.0444 87.4415 43.0489 87.428C43.0534 87.4144 43.0552 87.4001 43.0542 87.3859C43.0532 87.3717 43.0494 87.3578 43.043 87.345C43.0366 87.3322 43.0278 87.3209 43.017 87.3115C43.0062 87.3022 42.9937 87.295 42.9802 87.2905C42.9666 87.286 42.9523 87.2842 42.9381 87.2852C42.9239 87.2862 42.91 87.29 42.8972 87.2964Z" fill="#263238"/>
<path d="M42.98 81.5868C42.872 82.1772 42.728 82.7604 42.62 83.3472C42.512 83.934 42.4112 84.4596 42.26 85.0032C42.1397 85.5297 41.8711 86.0106 41.486 86.3892C41.2736 86.5908 41.0324 86.7672 40.8056 86.9508C40.6796 87.0516 40.5464 87.1452 40.4168 87.246C40.4353 87.1676 40.4497 87.0883 40.46 87.0084C40.4996 86.7852 40.5392 86.562 40.5752 86.3388C40.658 85.842 40.7408 85.3452 40.8164 84.8448C40.964 83.8656 41.1008 82.8792 41.306 81.9108C41.3068 81.9032 41.305 81.8956 41.3007 81.8893C41.2965 81.883 41.2902 81.8783 41.2829 81.8762C41.2756 81.874 41.2678 81.8745 41.2608 81.8776C41.2539 81.8806 41.2482 81.886 41.2448 81.8928C41.0036 82.854 40.7336 83.8044 40.5248 84.7728C40.4204 85.248 40.0496 87.5916 40.0316 87.7572C40.0136 87.9228 39.9992 88.0992 39.9956 88.272C39.9722 88.4464 39.9722 88.6232 39.9956 88.7976C39.9956 88.8408 40.0568 88.8336 40.0748 88.7976C40.1468 88.6343 40.1976 88.4626 40.226 88.2864C40.2692 88.1208 40.3052 87.9516 40.3376 87.7788C40.3376 87.7176 40.3376 87.6564 40.3628 87.5952C40.5968 87.4548 40.8092 87.2676 41.0252 87.1128C41.2412 86.958 41.4968 86.778 41.7164 86.5944C42.1225 86.2492 42.4159 85.7903 42.5588 85.2768C42.7006 84.7246 42.7922 84.1607 42.8324 83.592C42.908 82.926 42.962 82.2564 43.0556 81.594C43.0592 81.5652 42.998 81.5472 42.98 81.5868Z" fill="#263238"/>
<path d="M35.3804 56.3508C38.0228 59.9508 46.2704 65.988 49.7192 65.8548C52.214 65.7612 59.9648 57.7836 62.0492 55.17C64.058 52.65 55.8716 47.8332 54.644 49.2804C52.664 51.6204 49.4456 56.8764 48.5024 57.132C47.8436 57.312 43.7072 56.0088 37.4324 53.5788C33.5984 52.0992 33.8 54.2124 35.3804 56.3508Z" fill="#EB9481"/>
<path d="M65.4045 51.6492C64.4253 53.3952 61.0197 56.1852 59.9397 56.5416C58.8597 56.898 53.9277 51.2676 54.1509 50.1228C54.3741 48.978 58.1325 43.3512 60.0297 42.5844C61.9269 41.8176 66.4233 49.8384 65.4045 51.6492Z" fill="#EB9481"/>
<path d="M54.6225 49.0536C54.8336 47.4482 54.8082 45.8204 54.5469 44.2224C54.1869 42.3288 53.3949 39.5424 54.4065 39.3156C56.4801 38.8224 58.4097 45.7272 58.4097 45.7272C58.4097 45.7272 58.7697 48.9132 56.7609 49.5828C56.3903 49.7006 55.9944 49.7135 55.617 49.6201C55.2395 49.5267 54.8953 49.3306 54.6225 49.0536Z" fill="#EB9481"/>
<path d="M57.3513 44.3484C57.3837 45.4284 58.6149 44.7624 58.6149 44.7624C58.6149 44.7624 57.0669 46.1232 57.5349 47.2032C58.0029 48.2832 59.4393 47.4084 59.5437 47.3472C59.4609 47.4228 58.0749 48.708 58.6473 49.7448C59.2197 50.7816 60.5625 49.7448 60.6489 49.6656C60.5913 49.7556 59.8821 50.994 60.4977 51.6852C61.5525 52.8696 63.4533 49.7556 64.7133 49.5036C64.7133 49.5036 65.3829 51.5916 65.4117 51.6636C65.4117 51.6636 67.2801 48.7368 66.8517 47.0556C66.7927 46.8102 66.6518 46.5922 66.4521 46.4377C66.2525 46.2832 66.0061 46.2015 65.7537 46.206C65.7537 46.206 66.4737 45.3312 66.0345 44.4996C65.8149 44.0712 64.9545 44.0424 64.9545 44.0424C65.1041 43.836 65.1936 43.5923 65.2133 43.3381C65.233 43.084 65.1821 42.8294 65.0661 42.6024C64.7277 42.03 63.8997 42.0912 63.8997 42.0912C63.8997 42.0912 64.0941 41.1552 63.5577 40.68C62.4597 39.7116 57.2793 42.0768 57.3513 44.3484Z" fill="#EB9481"/>
<path d="M64.9401 44.0064C64.9617 44.0064 64.9401 43.9668 64.9401 43.9704C62.7732 44.4001 60.8312 45.59 59.4645 47.3256C59.4177 47.3868 59.4393 47.4912 59.4969 47.4228C60.4725 46.2888 63.2157 44.64 64.9401 44.0064Z" fill="#263238"/>
<path d="M60.5912 49.824C61.9412 48.1392 63.698 47.0556 65.66 46.2024C65.6852 46.2024 65.66 46.1592 65.66 46.1592C64.58 46.3176 63.3884 46.9908 62.5064 47.5992C61.673 48.1424 60.9965 48.8946 60.5444 49.7808C60.512 49.8096 60.5624 49.86 60.5912 49.824Z" fill="#263238"/>
<path d="M58.5789 44.7588C58.5285 44.8128 58.6653 44.8272 58.6149 44.8848C58.4025 45.126 57.2505 46.6848 57.6609 47.2464C57.9885 47.6928 58.8165 47.5596 59.1009 47.3832L59.8497 46.9404L59.2989 47.6172C59.0534 47.9163 58.8577 48.253 58.7193 48.6144C58.6455 48.7779 58.6073 48.9552 58.6073 49.1346C58.6073 49.314 58.6455 49.4913 58.7193 49.6548C58.7877 49.8073 58.9069 49.9313 59.0567 50.0056C59.2064 50.0798 59.3774 50.0996 59.5401 50.0616C59.9026 49.9715 60.2368 49.7921 60.5121 49.5396L61.2933 48.8628L60.7785 49.752C60.6338 49.999 60.5224 50.2641 60.4473 50.5404C60.3683 50.7997 60.3683 51.0767 60.4473 51.336C60.486 51.4515 60.5559 51.554 60.6493 51.6322C60.7427 51.7104 60.856 51.7611 60.9765 51.7788C61.2528 51.777 61.5227 51.6958 61.7541 51.5448C62.2623 51.224 62.7439 50.8628 63.1941 50.4648C63.4317 50.274 63.6657 50.0832 63.9141 49.9032C64.1492 49.7089 64.4228 49.5665 64.7169 49.4856C64.4379 49.5974 64.1826 49.7611 63.9645 49.968C63.7377 50.166 63.5181 50.3712 63.2985 50.58C62.8652 51.0105 62.3927 51.3997 61.8873 51.7428C61.6168 51.9335 61.2965 52.0411 60.9657 52.0524C60.7848 52.0382 60.612 51.9713 60.4687 51.8599C60.3254 51.7486 60.2178 51.5978 60.1593 51.426C60.0587 51.1049 60.0587 50.7607 60.1593 50.4396C60.2397 50.1309 60.3608 49.8343 60.5193 49.5576L60.7821 49.77C60.4636 50.0764 60.07 50.2937 59.6409 50.4C59.3974 50.455 59.1423 50.4218 58.9209 50.3064C58.7108 50.1898 58.5403 50.013 58.4313 49.7988C58.3379 49.5917 58.2896 49.3672 58.2896 49.14C58.2896 48.9128 58.3379 48.6883 58.4313 48.4812C58.5886 48.0875 58.81 47.7226 59.0865 47.4012L59.2881 47.6352C58.8993 47.8476 57.9921 48.096 57.3945 47.466C56.7285 46.5444 58.2765 45.018 58.5789 44.7588Z" fill="#263238"/>
<path d="M58.6148 44.7624C58.4056 44.8241 58.1884 44.8545 57.9704 44.8524C57.8829 44.8524 57.7971 44.8294 57.7213 44.7858C57.6455 44.7422 57.5824 44.6795 57.5384 44.604C57.4671 44.4232 57.4496 44.2257 57.488 44.0352C57.5186 43.8133 57.5619 43.5934 57.6176 43.3764C57.4563 43.5503 57.3336 43.7565 57.2576 43.9812C57.157 44.2244 57.157 44.4976 57.2576 44.7408C57.3264 44.8668 57.4336 44.9677 57.5636 45.0288C57.6892 45.0834 57.8275 45.1021 57.9632 45.0828C58.2098 45.0508 58.4389 44.9382 58.6148 44.7624Z" fill="#263238"/>
<path d="M46.436 56.5524L44.4776 65.1384C44.4776 65.1384 39.5276 61.1568 36.3344 57.888C33.1412 54.6192 32.4032 51.7968 36.9176 53.1684C41.432 54.54 46.436 56.5524 46.436 56.5524Z" fill="#C2C7D6"/>
<path opacity="0.1" d="M40.7445 54.4284L39.2361 60.6564L39.5205 60.912L41.0613 54.54L40.7445 54.4284ZM42.3429 54.9972L40.6653 61.92L40.9497 62.1684L42.6561 55.1052L42.3429 54.9972ZM43.9341 55.5876L42.0981 63.1476L42.3825 63.3888L44.2473 55.692L43.9341 55.5876ZM45.5217 56.1924L43.5417 64.3716L43.8261 64.6092L45.8349 56.3292L45.5217 56.1924Z" fill="#030402"/>
<path d="M44.6397 56.4228C44.4489 57.0276 44.3265 57.6576 44.1897 58.2768C44.0529 58.896 43.9269 59.4936 43.8009 60.102C43.5453 61.3332 43.2861 62.5608 43.1277 63.81C43.1277 63.846 43.1673 63.8532 43.1781 63.81C43.5381 62.6004 43.7649 61.3692 44.0169 60.1344C44.1393 59.526 44.2617 58.9176 44.3769 58.3056C44.4921 57.6936 44.6289 57.0564 44.6901 56.4228C44.6901 56.4161 44.6874 56.4097 44.6827 56.405C44.678 56.4002 44.6716 56.3976 44.6649 56.3976C44.6582 56.3976 44.6518 56.4002 44.6471 56.405C44.6423 56.4097 44.6397 56.4161 44.6397 56.4228Z" fill="#263238"/>
<path opacity="0.1" d="M45.3525 61.2972L44.4777 65.1348C44.4777 65.1348 39.5277 61.1568 36.3345 57.888C33.7929 55.2852 32.8065 52.9668 34.7865 52.8192L45.3525 61.2972Z" fill="black"/>
<path d="M23.5796 84.348C23.6372 84.4056 47.9552 82.7424 48.1568 82.476C48.4412 82.116 40.748 57.3948 38.8184 53.766C37.994 52.218 34.0628 51.9948 32.5112 53.4564C28.6196 57.1176 25.9088 68.9364 25.34 72.4968C24.3968 78.3432 23.36 84.132 23.5796 84.348Z" fill="#C2C7D6"/>
<path opacity="0.1" d="M38.8473 53.8164L31.7265 54.3204C31.8273 54.198 31.9245 54.0792 32.0253 53.9604L38.6313 53.4924C38.7038 53.575 38.7666 53.6656 38.8185 53.7624C38.8266 53.7812 38.8362 53.7993 38.8473 53.8164ZM39.4305 55.1304L30.7617 55.7424C30.6897 55.8576 30.6213 55.9764 30.5565 56.1024L39.5565 55.4652C39.5169 55.3428 39.4737 55.2348 39.4305 55.1304ZM40.0677 56.772L29.8185 57.492L29.6565 57.852L40.1901 57.1068C40.1505 56.9916 40.1001 56.88 40.0677 56.772ZM40.6689 58.4208L29.0445 59.2416L28.9041 59.6016L40.7841 58.7592C40.7481 58.6368 40.7085 58.5288 40.6689 58.4208ZM41.2485 60.0696L28.3749 60.9804C28.3317 61.0956 28.2921 61.2108 28.2525 61.3404L41.3637 60.4116C41.3241 60.2856 41.2881 60.1776 41.2485 60.0696ZM41.8137 61.7184L27.7737 62.712C27.7341 62.8236 27.6981 62.9388 27.6621 63.072L41.9181 62.0604C41.9001 61.938 41.8533 61.8264 41.8137 61.7184ZM42.3681 63.36L27.2481 64.44C27.2121 64.5552 27.1797 64.6668 27.1473 64.782L42.4833 63.702C42.4437 63.5868 42.4077 63.4788 42.3681 63.36ZM42.9153 65.0088L26.7585 66.1536C26.7261 66.2688 26.6937 66.384 26.6649 66.5136L43.0269 65.358C42.9801 65.2392 42.9549 65.1312 42.9153 65.0196V65.0088ZM43.4553 66.6612L26.3121 67.8852C26.2833 68.0004 26.2581 68.1156 26.2293 68.2452L43.5633 67.0176L43.4553 66.6612ZM43.9917 68.3136L25.9089 69.5916C25.8837 69.7068 25.8585 69.822 25.8369 69.9336L44.0961 68.6412C44.0601 68.544 44.0241 68.4324 43.9917 68.3244V68.3136ZM44.5209 69.966L25.5525 71.3088C25.5273 71.4276 25.5057 71.5392 25.4877 71.6472L44.6217 70.2936C44.5857 70.2 44.5533 70.0848 44.5209 69.9768V69.966ZM45.0393 71.622L25.2393 73.0224L25.1853 73.3572L45.1293 71.946C45.1077 71.8488 45.0753 71.7408 45.0393 71.64V71.622ZM45.5577 73.2744L24.9801 74.7432L24.9261 75.078L45.6621 73.6092C45.6261 73.4964 45.5913 73.3884 45.5577 73.2852V73.2744ZM46.0653 74.9268L24.6921 76.4388C24.6921 76.5504 24.6561 76.6656 24.6345 76.7772L46.1661 75.2544C46.1337 75.1572 46.0977 75.0492 46.0653 74.9376V74.9268ZM46.5657 76.5828L24.4077 78.1488L24.3537 78.4872L46.6737 76.9068C46.6341 76.8096 46.6017 76.7016 46.5801 76.5936L46.5657 76.5828ZM47.0589 78.2352L24.1305 79.8588L24.0765 80.1972L47.1561 78.5628L47.0589 78.2352ZM47.5377 79.8912L23.8605 81.5688C23.8605 81.684 23.8281 81.7956 23.8101 81.9036L47.6313 80.2188C47.5989 80.1252 47.5701 80.0172 47.5377 79.92V79.8912ZM47.9841 81.5508L23.6229 83.2752C23.6229 83.3976 23.5977 83.5092 23.5869 83.61L48.0669 81.8784C48.0453 81.792 48.0201 81.684 47.9841 81.5616V81.5508Z" fill="#030402"/>
<path d="M31.8704 59.7888C32.3924 64.2924 36.05 78.0516 39.704 79.2792C42.944 80.3592 51.404 78.606 55.256 77.886C56.66 77.6232 54.896 65.7864 53.5208 66.438C51.8648 67.2192 42.9476 68.6916 42.5156 68.4756C42.0836 68.2596 38.948 63.3024 35.1392 57.3156C31.5464 51.6492 31.5464 56.9664 31.8704 59.7888Z" fill="#EB9481"/>
<path d="M52.1709 67.2444C52.1709 67.2444 55.8897 65.0016 58.3917 63.6444C59.7849 62.892 62.2941 61.812 63.5721 61.7256C65.4837 61.5996 73.5621 62.2908 73.4361 64.2456C73.3245 66.0204 66.4593 64.548 66.4593 64.548C66.4593 64.548 73.5153 65.4228 72.9861 67.536C72.4569 69.6492 64.9401 66.96 64.9401 66.96C64.9401 66.96 72.1401 68.04 71.2653 70.1208C70.5921 71.7048 63.6297 69.6456 63.6297 69.6456C63.6297 69.6456 69.8397 70.5996 69.2169 72.2556C68.5293 74.088 61.9845 72.5904 61.9845 72.5904C59.6949 76.5504 57.1029 77.6628 54.9861 77.9184C54.5001 77.976 52.1709 67.2444 52.1709 67.2444Z" fill="#EB9481"/>
<path d="M64.3677 64.1556C69.6165 64.4004 72.1149 66.132 72.0393 66.0996C70.2393 65.3292 67.3125 64.7604 66.4881 64.6128C65.6637 64.4652 65.1849 64.332 64.3605 64.1844C64.3425 64.1808 64.3497 64.152 64.3677 64.1556Z" fill="#263238"/>
<path d="M63.4532 67.068C65.5812 67.0706 67.6916 67.4534 69.6848 68.1984C69.7568 68.2308 69.7244 68.256 69.6452 68.238C68.6012 68.022 64.4972 67.2552 63.4496 67.0896C63.4316 67.0896 63.4388 67.068 63.4532 67.068Z" fill="#263238"/>
<path d="M62.4957 69.5196C64.1446 69.5592 65.7718 69.9046 67.2945 70.5384C67.3701 70.5672 67.3197 70.6032 67.2369 70.5852C65.6493 70.2252 64.4037 69.9156 62.4921 69.5772C62.4597 69.57 62.4597 69.5196 62.4957 69.5196Z" fill="#263238"/>
<path d="M40.3054 64.98L33.4654 70.5168C33.4654 70.5168 32.0254 64.3284 31.5502 59.7852C31.075 55.242 32.2306 52.5636 34.927 56.4372C37.6234 60.3108 40.3054 64.98 40.3054 64.98Z" fill="#C2C7D6"/>
<path opacity="0.1" d="M37.076 59.6844L32.1152 63.7884L32.18 64.17L37.256 59.9688L37.076 59.6844ZM37.9832 61.1244L32.4572 65.6964C32.4788 65.8224 32.504 65.9484 32.5292 66.0564L38.1596 61.398L37.9832 61.1244ZM38.876 62.5644L32.828 67.5684C32.8496 67.6944 32.8748 67.8168 32.9 67.9284L39.0488 62.8416L38.876 62.5644ZM39.7508 64.0224L33.2168 69.4224C33.2456 69.5556 33.2708 69.678 33.296 69.7824L39.92 64.2996L39.7508 64.0224Z" fill="#030402"/>
<path d="M39.1605 63.8208C38.6277 64.1592 38.1273 64.5624 37.6269 64.9512C37.1265 65.34 36.6441 65.7108 36.1581 66.0996C35.1681 66.8808 34.1781 67.6512 33.2565 68.508C33.2512 68.5123 33.2479 68.5185 33.2472 68.5253C33.2465 68.532 33.2486 68.5387 33.2529 68.544C33.2572 68.5492 33.2634 68.5526 33.2701 68.5533C33.2769 68.5539 33.2836 68.5519 33.2889 68.5476C34.3293 67.8276 35.3085 67.0536 36.2913 66.2688C36.7713 65.8824 37.2513 65.4924 37.7313 65.0988C38.2209 64.6992 38.7249 64.3032 39.1713 63.8604C39.1738 63.8573 39.1756 63.8536 39.1764 63.8497C39.1772 63.8458 39.1771 63.8417 39.1761 63.8378C39.175 63.8339 39.173 63.8304 39.1703 63.8274C39.1676 63.8245 39.1642 63.8222 39.1605 63.8208Z" fill="#263238"/>
<path d="M34.3004 69.84C34.0376 70.0884 33.764 70.326 33.494 70.56L33.422 70.6212L33.3968 70.5276C33.2096 69.8472 33.0368 69.1632 32.8712 68.4756C32.7056 67.788 32.558 67.1004 32.4392 66.4056C32.3204 65.7108 32.1872 65.016 32.0792 64.3176C31.9712 63.6192 31.8992 62.9172 31.8416 62.2116C31.9964 62.9028 32.1296 63.594 32.2664 64.2852L32.6768 66.3552L33.4976 70.4988L33.4004 70.4664C33.71 70.2576 34.0016 70.038 34.3004 69.84Z" fill="#263238"/>
<path d="M31.6113 63.4932C31.7553 63.7848 31.8813 64.0728 32.0073 64.3608C32.1333 64.6488 32.2557 64.9368 32.3673 65.25C32.1493 65.0103 31.9718 64.7367 31.8417 64.44C31.7783 64.2918 31.7266 64.139 31.6869 63.9828C31.6396 63.8238 31.6141 63.6591 31.6113 63.4932Z" fill="#263238"/>
<path d="M36.6226 58.9788C36.9826 59.4396 37.3426 59.9184 37.6666 60.4008C37.9906 60.8832 38.3218 61.3764 38.635 61.8732C38.9482 62.37 39.2506 62.874 39.5386 63.3888C39.8281 63.9025 40.0901 64.4312 40.3234 64.9728L40.1362 65.1132L40.2946 64.944V64.9692C39.9886 64.4652 39.6754 63.972 39.355 63.4788L38.4154 61.992C38.1094 61.4952 37.7962 60.9948 37.501 60.4872C37.2058 59.9796 36.8998 59.4972 36.6226 58.9788Z" fill="#263238"/>
<path d="M37.5549 59.724C37.7344 59.9353 37.8702 60.18 37.9545 60.444C38.0455 60.7025 38.0799 60.9775 38.0553 61.2504C37.9977 61.1244 37.9581 60.9984 37.9113 60.8724L37.7817 60.5124C37.7025 60.2388 37.6161 59.994 37.5549 59.724Z" fill="#263238"/>
<path d="M38.0516 57.024C36.8348 57.3192 34.4516 55.3212 33.6164 53.8164C33.5588 53.712 33.71 52.6176 33.8288 51.2964C33.9008 50.4828 33.9584 49.5792 33.9512 48.7476C33.9512 48.5784 34.5308 48.888 34.5308 48.888L35.6108 49.1364L39.1712 49.9716C38.8831 51.0127 38.7224 52.085 38.6924 53.1648C38.6959 53.2785 38.7091 53.3917 38.732 53.5032C38.732 53.5032 38.732 53.5392 38.732 53.5608C38.8472 54.1908 39.2288 56.7324 38.0516 57.024Z" fill="#EB9481"/>
<path d="M38.7285 53.4888C38.7285 53.4888 38.7285 53.5248 38.7285 53.5464C38.5522 53.5725 38.3739 53.5834 38.1957 53.5788C34.6893 53.5284 34.2141 49.0752 34.2141 49.0752L35.6001 49.122L39.1605 49.9572C38.8724 50.9983 38.7117 52.0706 38.6817 53.1504C38.6875 53.2643 38.7032 53.3776 38.7285 53.4888Z" fill="#263238"/>
<path d="M33.0368 43.2C32.5832 45.0792 33.8792 50.3424 35.2616 51.4512C37.2632 53.0568 40.3844 53.0352 41.7092 50.6628C42.9944 48.3624 41.1836 41.5296 39.6572 40.5396C37.4036 39.0924 33.7028 40.4388 33.0368 43.2Z" fill="#EB9481"/>
<path d="M38.1165 46.5948C38.1165 46.5948 38.0913 46.6164 38.0949 46.6308C38.1921 46.9908 38.2425 47.4048 37.9509 47.5992C37.9509 47.5992 37.9509 47.6208 37.9509 47.6172C38.3361 47.4696 38.2641 46.9116 38.1165 46.5948Z" fill="#263238"/>
<path d="M37.7097 46.2996C37.1264 46.3932 37.3496 47.5488 37.8969 47.4624C38.4441 47.376 38.1957 46.2204 37.7097 46.2996Z" fill="#263238"/>
<path d="M40.2656 46.08C40.2656 46.08 40.2944 46.08 40.298 46.1088C40.3592 46.4688 40.4888 46.872 40.8344 46.926V46.944C40.4312 46.9692 40.2656 46.44 40.2656 46.08Z" fill="#263238"/>
<path d="M40.5103 45.6444C41.0755 45.486 41.3527 46.6308 40.8271 46.7784C40.3015 46.926 40.0351 45.7776 40.5103 45.6444Z" fill="#263238"/>
<path d="M37.1481 45.8604C37.2901 45.7858 37.4283 45.7041 37.5621 45.6156C37.7145 45.5448 37.8405 45.4276 37.9221 45.2808C37.9395 45.2287 37.9394 45.1725 37.9218 45.1205C37.9043 45.0685 37.8703 45.0237 37.8249 44.9928C37.7244 44.9468 37.6135 44.9283 37.5035 44.939C37.3935 44.9498 37.2883 44.9894 37.1985 45.054C36.9976 45.1558 36.8422 45.3292 36.7629 45.54C36.7443 45.5915 36.742 45.6475 36.7564 45.7003C36.7707 45.7532 36.801 45.8003 36.8431 45.8353C36.8852 45.8704 36.9371 45.8916 36.9917 45.896C37.0462 45.9005 37.1009 45.8881 37.1481 45.8604Z" fill="#263238"/>
<path d="M40.8418 44.9712C40.6806 44.9719 40.5196 44.9635 40.3594 44.946C40.1872 44.9592 40.0155 44.9162 39.8698 44.8236C39.8299 44.7853 39.8037 44.735 39.7952 44.6803C39.7867 44.6257 39.7965 44.5698 39.823 44.5212C39.8909 44.4343 39.9807 44.3669 40.0831 44.3258C40.1855 44.2847 40.2969 44.2714 40.4062 44.2872C40.6321 44.2869 40.8501 44.3703 41.0182 44.5212C41.0533 44.5579 41.0771 44.6039 41.087 44.6538C41.0968 44.7036 41.0922 44.7552 41.0736 44.8025C41.0551 44.8498 41.0234 44.8908 40.9823 44.9207C40.9412 44.9506 40.8925 44.9681 40.8418 44.9712Z" fill="#263238"/>
<path d="M38.4153 49.8348C38.5123 49.9283 38.6407 49.9823 38.7753 49.986C38.9052 49.9554 39.0276 49.8991 39.1353 49.8204C39.1353 49.8204 39.1605 49.8204 39.1353 49.8204C39.0981 49.9005 39.0401 49.9692 38.9672 50.0193C38.8944 50.0693 38.8095 50.0988 38.7213 50.1048C38.6421 50.1035 38.5651 50.0779 38.5007 50.0316C38.4364 49.9853 38.3877 49.9204 38.3613 49.8456C38.3721 49.8384 38.3973 49.824 38.4153 49.8348Z" fill="#263238"/>
<path d="M39.74 48.8952C39.6277 49.1213 39.4591 49.3147 39.2504 49.4568C39.1338 49.5318 38.9965 49.5683 38.858 49.5612C38.5592 49.5612 38.498 49.284 38.498 49.0464C38.5049 48.9245 38.5255 48.8037 38.5592 48.6864C38.9207 48.8796 39.3343 48.9528 39.74 48.8952Z" fill="#263238"/>
<path d="M39.2612 49.4568C39.1445 49.5318 39.0073 49.5683 38.8688 49.5612C38.57 49.5612 38.5088 49.284 38.5088 49.0464C38.6621 49.0202 38.8197 49.0464 38.9563 49.1209C39.0928 49.1954 39.2002 49.3137 39.2612 49.4568Z" fill="#FF98B9"/>
<path d="M33.5374 47.8008C33.5374 47.8008 31.6546 44.8308 31.7878 43.0884C31.849 42.3 32.9002 41.76 32.9002 41.76C32.811 41.4408 32.8129 41.103 32.9058 40.7849C32.9987 40.4668 33.1788 40.181 33.4258 39.96C34.3366 39.0672 36.5902 39.2148 36.5902 39.2148C36.5902 39.2148 38.005 37.0764 40.0858 37.8684C42.1666 38.6604 40.8742 41.0292 40.8742 41.0292C40.8742 41.0292 41.6518 42.0876 39.8194 42.9696C37.987 43.8516 34.3366 43.0956 34.3366 43.0956C34.5329 44.3595 34.5402 45.6456 34.3582 46.9116C34.3161 47.1209 34.2173 47.3145 34.0725 47.4714C33.9278 47.6282 33.7426 47.7422 33.5374 47.8008Z" fill="#263238"/>
<path d="M36.9538 39.24C36.4897 39.06 35.9928 38.9803 35.4958 39.006C35.0513 39.0065 34.6103 39.0844 34.1926 39.2364C33.8155 39.351 33.477 39.5665 33.2136 39.8597C32.9503 40.1528 32.7722 40.5125 32.6986 40.8996C32.6724 41.1 32.6866 41.3035 32.7404 41.4983C32.7942 41.6931 32.8864 41.8751 33.0118 42.0336C33.0118 42.0336 33.0406 42.0336 33.0118 42.0336C32.5222 41.454 32.7526 40.5288 33.235 40.0248C33.8273 39.4873 34.5952 39.184 35.395 39.1716C35.9071 39.1536 36.4196 39.1971 36.9214 39.3012C36.9254 39.3033 36.9298 39.3046 36.9343 39.3051C36.9388 39.3055 36.9434 39.305 36.9477 39.3037C36.9521 39.3024 36.9561 39.3002 36.9596 39.2973C36.9631 39.2944 36.966 39.2908 36.9682 39.2868C36.9703 39.2828 36.9716 39.2784 36.972 39.2739C36.9725 39.2693 36.972 39.2648 36.9707 39.2604C36.9693 39.2561 36.9671 39.252 36.9642 39.2485C36.9613 39.245 36.9578 39.2421 36.9538 39.24Z" fill="#263238"/>
<path d="M41.5905 38.8224C41.4883 38.5512 41.3215 38.309 41.1044 38.117C40.8873 37.9251 40.6266 37.789 40.3449 37.7208C39.6989 37.541 39.0115 37.5802 38.3901 37.8324C37.7673 38.0917 37.2244 38.5115 36.8169 39.0492C36.8169 39.0492 36.8169 39.078 36.8385 39.0492C37.2049 38.5744 37.6925 38.2072 38.25 37.9861C38.8075 37.765 39.4143 37.6982 40.0065 37.7928C40.2799 37.8114 40.5442 37.8984 40.7752 38.0458C41.0062 38.1933 41.1964 38.3964 41.3283 38.6366C41.4602 38.8768 41.5296 39.1463 41.5302 39.4203C41.5307 39.6944 41.4623 39.9641 41.3313 40.2048C41.0336 40.7699 40.5834 41.2401 40.0317 41.562C40.0317 41.562 40.0317 41.5872 40.0317 41.562C40.556 41.2935 41.0033 40.8958 41.3313 40.4064C41.4833 40.1754 41.5849 39.9149 41.6296 39.642C41.6743 39.3691 41.6609 39.0898 41.5905 38.8224Z" fill="#263238"/>
<path d="M40.2764 43.0452C39.4609 43.3966 38.5794 43.5685 37.6916 43.5492C36.7683 43.5448 35.8484 43.4386 34.9484 43.2324C34.4264 43.1172 33.9044 42.984 33.3896 42.84C33.3896 42.84 33.3644 42.8616 33.3896 42.8652C34.2958 43.2324 35.2382 43.5027 36.2012 43.6716C37.098 43.8206 38.0153 43.7925 38.9012 43.5888C39.3859 43.4728 39.8539 43.2962 40.2944 43.0632C40.2944 43.0632 40.2872 43.0416 40.2764 43.0452Z" fill="#263238"/>
<path d="M37.9076 48.6C37.6142 48.6258 37.3196 48.5688 37.057 48.4355C36.7945 48.3021 36.5747 48.0978 36.4226 47.8457C36.2704 47.5936 36.1921 47.3039 36.1965 47.0094C36.2008 46.715 36.2878 46.4278 36.4473 46.1803C36.6069 45.9328 36.8327 45.7351 37.0991 45.6096C37.3655 45.4842 37.6617 45.436 37.9541 45.4705C38.2465 45.5051 38.5234 45.621 38.7532 45.8051C38.983 45.9892 39.1565 46.2341 39.254 46.512C39.3326 46.7382 39.3587 46.9793 39.3302 47.217C39.3017 47.4548 39.2195 47.6829 39.0898 47.8842C38.96 48.0854 38.7861 48.2545 38.5813 48.3785C38.3764 48.5025 38.146 48.5783 37.9076 48.6ZM37.6484 45.6732C37.5353 45.6829 37.424 45.7071 37.3172 45.7452C36.9906 45.8603 36.7203 46.0955 36.5611 46.403C36.402 46.7104 36.366 47.067 36.4605 47.4C36.555 47.7331 36.7729 48.0176 37.0698 48.1957C37.3667 48.3737 37.7204 48.4319 38.0587 48.3583C38.397 48.2848 38.6945 48.085 38.8907 47.7998C39.087 47.5146 39.1671 47.1653 39.1148 46.823C39.0625 46.4808 38.8817 46.1713 38.6093 45.9577C38.3368 45.7441 37.9932 45.6423 37.6484 45.6732Z" fill="#FE4D3C"/>
<path d="M41.4393 47.8296C40.8417 47.8836 40.2405 47.3184 40.0749 46.512C39.9866 46.1293 40.0219 45.7285 40.1757 45.3672C40.2294 45.2067 40.3239 45.0628 40.4499 44.9497C40.5759 44.8366 40.729 44.758 40.8944 44.7218C41.0598 44.6855 41.2317 44.6927 41.3935 44.7428C41.5552 44.7928 41.7012 44.8839 41.8173 45.0072C42.1026 45.2781 42.2953 45.6321 42.3681 46.0188C42.5445 46.8684 42.1737 47.664 41.5437 47.7972L41.4393 47.8296ZM41.0217 44.928H40.9425C40.8121 44.9611 40.6916 45.0252 40.5914 45.1148C40.4911 45.2044 40.4139 45.3169 40.3665 45.4428C40.2336 45.7642 40.2034 46.1188 40.2801 46.458C40.4349 47.178 40.9785 47.7072 41.5005 47.5992C42.0225 47.4912 42.3141 46.8036 42.1629 46.0692C42.0985 45.727 41.9285 45.4135 41.6769 45.1728C41.5906 45.0888 41.4878 45.0236 41.375 44.9814C41.2622 44.9393 41.1419 44.9211 41.0217 44.928Z" fill="#FE4D3C"/>
<path d="M39.2396 46.6848L39.074 46.5552C39.2684 46.3104 39.7508 45.9324 40.2116 46.2564L40.1 46.44C39.6788 46.1376 39.2576 46.6632 39.2396 46.6848Z" fill="#FE4D3C"/>
<path d="M32.4572 48.51L32.2556 48.456C32.2808 48.3588 32.5256 47.5272 32.9756 47.3544C33.4256 47.1816 36.2156 46.8828 36.3272 46.8684L36.3488 47.0772C35.5424 47.1672 33.3716 47.4372 33.0512 47.5524C32.7308 47.6676 32.54 48.2832 32.4572 48.51Z" fill="#FE4D3C"/>
<path d="M34.4337 47.4804C34.4337 47.4804 33.0945 45.8604 32.3493 46.35C31.6041 46.8396 32.7093 49.2624 33.6525 49.5288C33.771 49.5714 33.8969 49.5896 34.0226 49.5822C34.1483 49.5748 34.2712 49.542 34.3839 49.4859C34.4966 49.4297 34.5967 49.3512 34.6783 49.2553C34.7599 49.1594 34.8212 49.0479 34.8585 48.9276L34.4337 47.4804Z" fill="#EB9481"/>
<path d="M32.684 47.0376C32.684 47.0376 32.666 47.0556 32.684 47.0628C33.3464 47.2716 33.7316 47.8368 34.0196 48.438C33.9773 48.3764 33.9221 48.3248 33.8578 48.2867C33.7935 48.2487 33.7217 48.225 33.6474 48.2175C33.573 48.21 33.4979 48.2187 33.4273 48.2431C33.3567 48.2675 33.2923 48.307 33.2384 48.3588C33.2384 48.3588 33.2384 48.3948 33.26 48.3912C33.3695 48.3461 33.4903 48.3361 33.6057 48.3626C33.7211 48.389 33.8255 48.4506 33.9044 48.5388C34.0411 48.6877 34.1618 48.8506 34.2644 49.0248C34.3004 49.0788 34.4012 49.0248 34.376 48.978C34.2968 48.1428 33.5696 47.0484 32.684 47.0376Z" fill="#263238"/>
<path d="M54.6547 88.1568L54.4675 87.9624L54.9931 87.4656L55.1767 87.6636L54.6547 88.1568Z" fill="#263238"/>
<path d="M57.0199 116.69C56.5303 116.69 56.0407 116.651 55.5799 116.6L55.6087 116.334C56.0767 116.381 56.5555 116.41 57.0487 116.42L57.0199 116.69ZM58.8199 116.662V116.392C59.2879 116.363 59.7703 116.323 60.2599 116.266L60.2923 116.536C59.8027 116.59 59.3167 116.64 58.8415 116.662H58.8199ZM53.7799 116.327C53.2975 116.226 52.8223 116.1 52.3687 115.967L52.4515 115.711C52.8943 115.848 53.3587 115.97 53.8339 116.071L53.7799 116.327ZM62.0851 116.262L62.0383 115.996C62.4991 115.909 62.9743 115.812 63.4423 115.7L63.5071 115.963C63.0283 116.075 62.5495 116.176 62.0815 116.28L62.0851 116.262ZM65.2567 115.499L65.1811 115.24C65.6383 115.106 66.0991 114.959 66.5527 114.804L66.6391 115.06C66.1783 115.2 65.7139 115.362 65.2531 115.499H65.2567ZM50.6695 115.301C50.2298 115.093 49.803 114.858 49.3915 114.599L49.5355 114.372C49.9375 114.626 50.3547 114.854 50.7847 115.056L50.6695 115.301ZM68.3419 114.44L68.2447 114.188C68.6839 114.016 69.1339 113.828 69.5767 113.641L69.6811 113.89C69.2347 114.08 68.7811 114.268 68.3383 114.44H68.3419ZM47.9371 113.494C47.5766 113.165 47.2397 112.811 46.9291 112.435L47.1379 112.262C47.4401 112.63 47.7686 112.975 48.1207 113.296L47.9371 113.494ZM71.3371 113.134L71.2219 112.892C71.6467 112.687 72.0787 112.471 72.5107 112.248L72.6331 112.489C72.1903 112.716 71.7547 112.932 71.3263 113.137L71.3371 113.134ZM74.2171 111.629L74.0839 111.395C74.5039 111.155 74.9179 110.915 75.3259 110.675L75.4663 110.905C75.0559 111.154 74.6383 111.395 74.2171 111.632V111.629ZM45.9103 110.909C45.6791 110.479 45.4805 110.033 45.3163 109.573L45.5719 109.483C45.733 109.929 45.9255 110.364 46.1479 110.783L45.9103 110.909ZM76.9999 109.944L76.8523 109.717C77.2579 109.456 77.6575 109.189 78.0511 108.918L78.2023 109.141C77.8063 109.418 77.4067 109.685 76.9999 109.948V109.944ZM79.6747 108.094L79.5163 107.878C79.9051 107.59 80.2867 107.302 80.6647 107.006L80.8303 107.219C80.4487 107.518 80.0599 107.809 79.6747 108.097V108.094ZM44.8555 107.806C44.7741 107.329 44.7236 106.848 44.7043 106.366H44.9707C44.9915 106.841 45.042 107.315 45.1219 107.784L44.8555 107.806ZM82.2415 106.092L82.0687 105.883C82.4287 105.577 82.8103 105.268 83.1739 104.954L83.3503 105.16C82.9831 105.48 82.6159 105.79 82.2415 106.096V106.092ZM45.0211 104.558L44.7511 104.533C44.7979 104.062 44.8663 103.579 44.9635 103.093L45.2263 103.144C45.1399 103.626 45.0643 104.101 45.0211 104.562V104.558ZM84.7076 103.964L84.5275 103.766C84.8875 103.442 85.2476 103.118 85.5859 102.791L85.7695 102.989C85.4167 103.32 85.0639 103.648 84.7076 103.968V103.964ZM87.0763 101.747L86.8891 101.552L87.9187 100.544L88.1095 100.735L87.0763 101.747ZM45.6763 101.405L45.4171 101.326C45.5575 100.876 45.7159 100.415 45.8959 99.954L46.1443 100.051C45.9571 100.508 45.7987 100.966 45.6619 101.408L45.6763 101.405ZM89.3983 99.4536L89.2039 99.2664C89.5423 98.9244 89.8771 98.5788 90.2119 98.2332L90.4063 98.4204L89.3983 99.4536ZM46.8607 98.406L46.6195 98.2872C46.8247 97.8624 47.0479 97.4268 47.2855 96.9984L47.5231 97.128C47.2711 97.56 47.0515 97.9884 46.8463 98.4096L46.8607 98.406ZM91.6591 97.1208L91.4647 96.9336L92.4619 95.8896L92.6564 96.0768L91.6591 97.1208ZM48.4591 95.5836L48.2323 95.4396C48.4843 95.04 48.7579 94.6368 49.0387 94.2336L49.2583 94.392C48.9487 94.7916 48.6787 95.1912 48.4267 95.5872L48.4591 95.5836ZM93.9199 94.7664L93.722 94.5828L94.7191 93.5352L94.9135 93.7224L93.9199 94.7664ZM50.3311 92.9448L50.1187 92.7792C50.4067 92.4192 50.7127 92.0304 51.0295 91.6524L51.2347 91.8252C50.8999 92.2032 50.5831 92.5812 50.2987 92.9484L50.3311 92.9448ZM96.1628 92.4192L95.9683 92.232C96.2995 91.8864 96.6343 91.5408 96.9727 91.1952L97.1671 91.3824C96.8023 91.7304 96.4567 92.0772 96.1303 92.4228L96.1628 92.4192ZM52.4227 90.4716L52.2247 90.2916C52.5451 89.9316 52.8763 89.5896 53.2183 89.2368L53.4091 89.424C53.0383 89.7768 52.6999 90.1296 52.3903 90.4752L52.4227 90.4716ZM98.4271 90.1116L98.2363 89.9244C98.5747 89.5824 98.9131 89.2404 99.2587 88.8984L99.4459 89.0928L98.4271 90.1116ZM100.735 87.8292L100.548 87.6348C100.89 87.3 101.239 86.9652 101.588 86.634L101.775 86.8284C101.39 87.1488 101.044 87.48 100.702 87.8148L100.735 87.8292ZM103.089 85.5972L102.909 85.3992C103.269 85.0752 103.629 84.7512 103.989 84.4236L104.173 84.6252L103.089 85.5972ZM105.508 83.4372L105.328 83.232C105.688 82.9188 106.048 82.6056 106.408 82.2924L106.585 82.4976C106.2 82.8 105.836 83.106 105.476 83.4192L105.508 83.4372ZM107.989 81.3456L107.82 81.1368C108.18 80.8344 108.565 80.532 108.946 80.2332L109.112 80.442L107.989 81.3456ZM110.538 79.3404L110.372 79.1244C110.754 78.8364 111.139 78.5448 111.531 78.2568L111.69 78.4764C111.268 78.7464 110.883 79.0344 110.505 79.3224L110.538 79.3404ZM113.151 77.4216L112.996 77.1984C113.385 76.9248 113.781 76.6476 114.181 76.374L114.332 76.5936C113.9 76.8528 113.508 77.1264 113.119 77.4L113.151 77.4216ZM115.83 75.5892L115.682 75.366C116.078 75.1032 116.485 74.8404 116.895 74.5776L117.039 74.8044C116.596 75.0492 116.193 75.3084 115.797 75.5712L115.83 75.5892ZM118.569 73.8504L118.425 73.62C118.832 73.3716 119.246 73.1232 119.664 72.8748L119.8 73.1088C119.354 73.3356 118.94 73.584 118.537 73.8324L118.569 73.8504ZM121.359 72.2016L121.226 71.9676C121.644 71.73 122.061 71.496 122.49 71.2476L122.619 71.4816C122.18 71.712 121.741 71.9496 121.327 72.1836L121.359 72.2016ZM124.207 70.6428L124.077 70.4016C124.502 70.1784 124.927 69.9552 125.362 69.7356L125.485 69.9768C125.02 70.1784 124.592 70.4016 124.174 70.6248L124.207 70.6428ZM127.087 69.1668L126.968 68.9256C127.396 68.7132 127.828 68.5044 128.268 68.2956L128.386 68.5368C127.94 68.7276 127.49 68.94 127.062 69.1488L127.087 69.1668ZM130.017 67.7736L129.906 67.5288L131.223 66.9348L131.335 67.1796L130.017 67.7736ZM132.987 66.4596L132.879 66.2112C133.322 66.024 133.765 65.8512 134.215 65.6532L134.316 65.9016L132.987 66.4596Z" fill="#263238"/>
<path d="M136.051 65.16L135.95 64.908L136.62 64.6452L136.72 64.8936L136.051 65.16Z" fill="#263238"/>
<path d="M135.194 60.66L132.814 67.194L137.811 63.2952L156.906 56.3688L135.194 60.66Z" fill="#FE4D3C"/>
<path opacity="0.1" d="M135.194 60.66L132.814 67.194L137.811 63.2952L156.906 56.3688L135.194 60.66Z" fill="black"/>
<path d="M138.448 64.818L132.814 67.194L137.811 63.2952L138.448 64.818Z" fill="#263238"/>
<path d="M137.811 63.2952L156.905 56.3688L141.242 71.6544L137.811 63.2952Z" fill="#FE4D3C"/>
<path d="M135.194 60.66L127.26 55.5372L156.906 56.3688L135.194 60.66Z" fill="#FE4D3C"/>
</svg>
