<svg width="212" height="180" viewBox="0 0 212 180" fill="none" xmlns="http://www.w3.org/2000/svg">
<path d="M105.5 180C155.206 180 195.5 139.706 195.5 90C195.5 40.2944 155.206 0 105.5 0C55.7944 0 15.5 40.2944 15.5 90C15.5 139.706 55.7944 180 105.5 180Z" fill="#F0F4FE"/>
<g filter="url(#filter0_dd_1391_25891)">
<rect x="12.5" y="24" width="134" height="36" rx="8" fill="white"/>
<rect x="20.5" y="28" width="28" height="28" rx="14" fill="#C2C7D6"/>
<path d="M32.7985 46.6106V40.656H35.3504V46.2788C35.2994 46.3809 35.2654 46.5 35.2228 46.6106H32.7985ZM40.0291 43.2079C40.1737 43.2079 40.3098 43.2079 40.4544 43.2335V40.656H37.9024V43.6758C38.5489 43.3781 39.272 43.2079 40.0291 43.2079ZM30.2465 46.6106V40.656H27.6945V46.6106H30.2465ZM42.1557 37.2533L34.0744 33L25.9932 37.2533V38.9546H42.1557V37.2533ZM25.9932 48.3119V50.8639H35.6141C35.1803 50.1153 34.9251 49.2391 34.9251 48.3119H25.9932ZM42.0196 45.7599L38.9658 48.8138L37.6132 47.4612L36.6264 48.448L38.9658 51L43.0064 46.9594L42.0196 45.7599Z" fill="#F6F8F9"/>
<rect x="56.5" y="32" width="37" height="6" rx="3" fill="#C2C7D6"/>
<rect x="56.5" y="46" width="63" height="6" rx="3" fill="#F0F4FE"/>
</g>
<g filter="url(#filter1_dd_1391_25891)">
<rect x="65.5" y="72" width="134" height="36" rx="8" fill="white"/>
<rect x="73.5" y="76" width="28" height="28" rx="14" fill="#C2C7D6"/>
<path d="M85.7987 94.6106V88.656H88.3507V94.2788C88.2996 94.3809 88.2656 94.5 88.2231 94.6106H85.7987ZM93.0293 91.2079C93.1739 91.2079 93.31 91.2079 93.4547 91.2335V88.656H90.9027V91.6758C91.5492 91.3781 92.2722 91.2079 93.0293 91.2079ZM83.2467 94.6106V88.656H80.6947V94.6106H83.2467ZM95.156 85.2533L87.0747 81L78.9934 85.2533V86.9546H95.156V85.2533ZM78.9934 96.3119V98.8639H88.6144C88.1806 98.1153 87.9254 97.2391 87.9254 96.3119H78.9934ZM95.0199 93.7599L91.966 96.8138L90.6134 95.4612L89.6267 96.448L91.966 99L96.0066 94.9594L95.0199 93.7599Z" fill="#F6F8F9"/>
<rect x="109.5" y="80" width="37" height="6" rx="3" fill="#C2C7D6"/>
<rect x="109.5" y="94" width="63" height="6" rx="3" fill="#F0F4FE"/>
</g>
<g filter="url(#filter2_dd_1391_25891)">
<rect x="12.5" y="120" width="134" height="36" rx="8" fill="white"/>
<rect x="20.5" y="124" width="27" height="28" rx="13.5" fill="#C2C7D6"/>
<path d="M32.2985 142.611V136.656H34.8504V142.279C34.7994 142.381 34.7654 142.5 34.7228 142.611H32.2985ZM39.5291 139.208C39.6737 139.208 39.8098 139.208 39.9544 139.233V136.656H37.4024V139.676C38.0489 139.378 38.772 139.208 39.5291 139.208ZM29.7465 142.611V136.656H27.1945V142.611H29.7465ZM41.6557 133.253L33.5744 129L25.4932 133.253V134.955H41.6557V133.253ZM25.4932 144.312V146.864H35.1141C34.6803 146.115 34.4251 145.239 34.4251 144.312H25.4932ZM41.5196 141.76L38.4658 144.814L37.1132 143.461L36.1264 144.448L38.4658 147L42.5064 142.959L41.5196 141.76Z" fill="#F6F8F9"/>
<rect x="55.5" y="128" width="37" height="6" rx="3" fill="#C2C7D6"/>
<rect x="55.5" y="142" width="63" height="6" rx="3" fill="#F0F4FE"/>
</g>
<defs>
<filter id="filter0_dd_1391_25891" x="0.5" y="20" width="158" height="60" filterUnits="userSpaceOnUse" color-interpolation-filters="sRGB">
<feFlood flood-opacity="0" result="BackgroundImageFix"/>
<feColorMatrix in="SourceAlpha" type="matrix" values="0 0 0 0 0 0 0 0 0 0 0 0 0 0 0 0 0 0 127 0" result="hardAlpha"/>
<feOffset dy="8"/>
<feGaussianBlur stdDeviation="6"/>
<feColorMatrix type="matrix" values="0 0 0 0 0.180392 0 0 0 0 0.160784 0 0 0 0 0.305882 0 0 0 0.08 0"/>
<feBlend mode="normal" in2="BackgroundImageFix" result="effect1_dropShadow_1391_25891"/>
<feColorMatrix in="SourceAlpha" type="matrix" values="0 0 0 0 0 0 0 0 0 0 0 0 0 0 0 0 0 0 127 0" result="hardAlpha"/>
<feOffset dy="1"/>
<feGaussianBlur stdDeviation="2"/>
<feColorMatrix type="matrix" values="0 0 0 0 0.180392 0 0 0 0 0.160784 0 0 0 0 0.305882 0 0 0 0.02 0"/>
<feBlend mode="normal" in2="effect1_dropShadow_1391_25891" result="effect2_dropShadow_1391_25891"/>
<feBlend mode="normal" in="SourceGraphic" in2="effect2_dropShadow_1391_25891" result="shape"/>
</filter>
<filter id="filter1_dd_1391_25891" x="53.5" y="68" width="158" height="60" filterUnits="userSpaceOnUse" color-interpolation-filters="sRGB">
<feFlood flood-opacity="0" result="BackgroundImageFix"/>
<feColorMatrix in="SourceAlpha" type="matrix" values="0 0 0 0 0 0 0 0 0 0 0 0 0 0 0 0 0 0 127 0" result="hardAlpha"/>
<feOffset dy="8"/>
<feGaussianBlur stdDeviation="6"/>
<feColorMatrix type="matrix" values="0 0 0 0 0.180392 0 0 0 0 0.160784 0 0 0 0 0.305882 0 0 0 0.08 0"/>
<feBlend mode="normal" in2="BackgroundImageFix" result="effect1_dropShadow_1391_25891"/>
<feColorMatrix in="SourceAlpha" type="matrix" values="0 0 0 0 0 0 0 0 0 0 0 0 0 0 0 0 0 0 127 0" result="hardAlpha"/>
<feOffset dy="1"/>
<feGaussianBlur stdDeviation="2"/>
<feColorMatrix type="matrix" values="0 0 0 0 0.180392 0 0 0 0 0.160784 0 0 0 0 0.305882 0 0 0 0.02 0"/>
<feBlend mode="normal" in2="effect1_dropShadow_1391_25891" result="effect2_dropShadow_1391_25891"/>
<feBlend mode="normal" in="SourceGraphic" in2="effect2_dropShadow_1391_25891" result="shape"/>
</filter>
<filter id="filter2_dd_1391_25891" x="0.5" y="116" width="158" height="60" filterUnits="userSpaceOnUse" color-interpolation-filters="sRGB">
<feFlood flood-opacity="0" result="BackgroundImageFix"/>
<feColorMatrix in="SourceAlpha" type="matrix" values="0 0 0 0 0 0 0 0 0 0 0 0 0 0 0 0 0 0 127 0" result="hardAlpha"/>
<feOffset dy="8"/>
<feGaussianBlur stdDeviation="6"/>
<feColorMatrix type="matrix" values="0 0 0 0 0.180392 0 0 0 0 0.160784 0 0 0 0 0.305882 0 0 0 0.08 0"/>
<feBlend mode="normal" in2="BackgroundImageFix" result="effect1_dropShadow_1391_25891"/>
<feColorMatrix in="SourceAlpha" type="matrix" values="0 0 0 0 0 0 0 0 0 0 0 0 0 0 0 0 0 0 127 0" result="hardAlpha"/>
<feOffset dy="1"/>
<feGaussianBlur stdDeviation="2"/>
<feColorMatrix type="matrix" values="0 0 0 0 0.180392 0 0 0 0 0.160784 0 0 0 0 0.305882 0 0 0 0.02 0"/>
<feBlend mode="normal" in2="effect1_dropShadow_1391_25891" result="effect2_dropShadow_1391_25891"/>
<feBlend mode="normal" in="SourceGraphic" in2="effect2_dropShadow_1391_25891" result="shape"/>
</filter>
</defs>
</svg>
