<svg width="192" height="180" viewBox="0 0 192 180" fill="none" xmlns="http://www.w3.org/2000/svg">
<path d="M102 180C151.706 180 192 139.706 192 90C192 40.2944 151.706 0 102 0C52.2944 0 12 40.2944 12 90C12 139.706 52.2944 180 102 180Z" fill="#F0F4FE"/>
<path d="M93.9712 149.917C94.7168 150.16 116.08 149.962 116.886 149.437C117.206 149.245 117.35 146.128 117.427 142.362V142.243C117.446 141.466 117.459 140.666 117.462 139.856C117.462 139.744 116.486 128.438 116.486 128.438L102.522 128.531L103.568 139.946L103.645 142.218V142.451C103.645 142.451 95.504 146.186 94.6848 146.854C93.8656 147.523 93.2224 149.677 93.9712 149.917Z" fill="#EB9481"/>
<path d="M117.379 144.317C117.29 147.155 117.142 149.28 116.886 149.437C116.08 149.958 94.7167 150.16 93.9679 149.914C93.2191 149.667 93.8591 147.52 94.6815 146.854C95.0015 146.595 96.4095 145.894 98.0191 145.101C97.1807 146.01 96.7583 147.021 99.0015 147.021C102.989 147.018 109.946 146.362 117.379 144.317Z" fill="#263238"/>
<path d="M102.966 142.022H118.352C118.352 142.022 115.254 106.093 115.376 105.466C115.529 104.662 116.438 101.024 117.645 96.272C118.025 94.7872 118.432 93.1904 118.857 91.5392C120.006 87.0592 121.27 82.1824 122.377 77.9328C124.032 71.5616 125.321 66.6144 125.321 66.6144H112.278C112.278 66.6144 110.758 71.4336 108.841 77.6992C105.721 87.8848 101.552 101.904 101.142 105.312C100.48 110.8 102.966 142.022 102.966 142.022Z" fill="#37474F"/>
<path d="M103.648 139.398C106 139.35 105.325 139.331 107.674 139.309C108.822 139.309 116.381 139.232 117.453 139.408C117.458 139.41 117.462 139.413 117.465 139.417C117.468 139.422 117.469 139.427 117.469 139.432C117.469 139.437 117.468 139.442 117.465 139.447C117.462 139.451 117.458 139.454 117.453 139.456C116.381 139.635 108.813 139.568 107.674 139.558C105.325 139.536 106 139.517 103.648 139.469C103.606 139.466 103.606 139.398 103.648 139.398Z" fill="#263238"/>
<path d="M112.48 103.27C112.986 101.03 113.738 98.8673 114.4 96.6817C115.733 92.2465 117.075 87.8145 118.426 83.3857C119.098 81.167 119.774 78.9515 120.454 76.7393C120.8 75.6225 121.142 74.4993 121.491 73.3889C121.84 72.2785 122.224 71.2129 122.534 70.1121C122.659 69.6641 122.726 69.9105 122.566 70.4801C122.246 71.6257 121.926 72.7745 121.587 73.9201C120.926 76.1857 120.259 78.4513 119.587 80.7169C118.252 85.2246 116.907 89.7281 115.552 94.2273C114.874 96.4865 114.194 98.7435 113.514 100.998C113.171 102.072 112.893 103.165 112.682 104.272C112.501 105.431 112.456 106.607 112.547 107.776C112.694 110.131 112.966 112.48 113.187 114.816L113.827 121.875C114.254 126.569 114.681 131.252 115.107 135.926C115.161 136.52 115.211 137.114 115.258 137.709C115.258 137.907 115.133 137.93 115.114 137.738C114.605 133.107 114.058 128.422 113.622 123.786C113.187 119.149 112.755 114.557 112.326 109.939C112.218 108.781 112.093 107.619 112.093 106.454C112.102 105.382 112.232 104.314 112.48 103.27Z" fill="#263238"/>
<path d="M113.757 66.6144C114.662 73.6192 116.387 86.7488 117.645 96.272C120.585 84.7328 125.325 66.6144 125.325 66.6144H113.757Z" fill="#263238"/>
<path d="M110.553 149.917C111.302 150.16 132.665 149.962 133.472 149.437C133.792 149.245 133.936 146.128 134.013 142.362V142.243C134.032 141.466 134.045 140.666 134.048 139.856C134.048 139.744 134.048 139.632 134.048 139.52C134.096 134.08 133.705 128.438 133.705 128.438L119.741 128.531L120.131 139.51L120.147 139.946L120.224 142.218V142.451C120.224 142.451 112.083 146.186 111.264 146.854C110.445 147.523 109.805 149.677 110.553 149.917Z" fill="#EB9481"/>
<path d="M133.965 144.317C133.875 147.155 133.728 149.28 133.472 149.437C132.666 149.958 111.302 150.16 110.554 149.914C109.805 149.667 110.445 147.52 111.267 146.854C111.587 146.595 112.995 145.894 114.605 145.101C113.766 146.01 113.344 147.021 115.587 147.021C119.574 147.018 126.531 146.362 133.965 144.317Z" fill="#263238"/>
<path d="M112.698 66.6144C112.698 66.6144 112.998 72.8544 114.429 77.7952C114.541 78.2016 114.666 78.6048 114.8 78.9888C116.108 79.5135 117.365 80.1562 118.557 80.9088C118.557 80.9088 118.707 85.9264 118.858 91.5264C119.024 97.7824 119.197 104.762 119.162 106.246C119.03 111.786 119.856 142.24 119.856 142.24L135.235 142.301C135.235 142.301 132.454 108.301 132.48 106.272C132.512 103.011 131.737 88.5984 131.139 78.0864C130.926 74.2339 130.445 70.4007 129.702 66.6144H112.698Z" fill="#37474F"/>
<path d="M120.381 139.514C122.733 139.475 122.057 139.453 124.406 139.44C125.555 139.44 133.113 139.398 134.185 139.581C134.19 139.583 134.195 139.586 134.198 139.59C134.201 139.595 134.202 139.6 134.202 139.605C134.202 139.61 134.201 139.615 134.198 139.619C134.195 139.624 134.19 139.627 134.185 139.629C133.11 139.805 125.545 139.706 124.406 139.69C122.054 139.658 122.729 139.642 120.381 139.581C120.374 139.579 120.367 139.574 120.363 139.568C120.358 139.562 120.356 139.555 120.356 139.547C120.356 139.54 120.358 139.532 120.363 139.526C120.367 139.52 120.374 139.516 120.381 139.514Z" fill="#263238"/>
<path d="M129.171 68.8448C129.456 77.4272 129.757 86.0064 130.131 94.5856C130.506 103.165 132.534 134 133.053 138.784C133.053 138.816 133.008 138.829 133.005 138.784C131.885 130.272 131.261 117.664 130.707 109.107C130.154 100.55 129.786 91.9616 129.491 83.3824C129.328 78.5312 129.2 73.68 129.056 68.8256C129.062 68.7712 129.171 68.7776 129.171 68.8448Z" fill="#263238"/>
<path d="M114.16 78.6176C115.69 79.2561 117.161 80.027 118.557 80.9216C118.566 80.9289 118.572 80.9392 118.575 80.9506C118.577 80.9621 118.576 80.9741 118.571 80.9846C118.565 80.9951 118.557 81.0035 118.546 81.0083C118.535 81.0132 118.523 81.0142 118.512 81.0112C117.027 80.2912 115.513 79.5968 114.07 78.7968C114.047 78.785 114.028 78.7641 114.02 78.7389C114.012 78.7137 114.014 78.6862 114.025 78.6624C114.037 78.6387 114.058 78.6206 114.083 78.6122C114.109 78.6038 114.136 78.6057 114.16 78.6176Z" fill="#263238"/>
<path d="M114.073 73.3248C114.176 73.872 114.307 74.4128 114.425 74.9568C114.544 75.5008 114.617 75.9872 114.745 76.4928C114.857 76.9794 115.106 77.4236 115.462 77.7728C115.661 77.9584 115.881 78.1248 116.102 78.2944C116.217 78.3872 116.342 78.4736 116.461 78.5664C116.445 78.496 116.432 78.4224 116.419 78.3488L116.313 77.7248C116.237 77.264 116.163 76.8032 116.093 76.3424C115.952 75.4368 115.824 74.5184 115.635 73.6192C115.635 73.6116 115.638 73.6043 115.644 73.5989C115.649 73.5935 115.656 73.5904 115.664 73.5904C115.672 73.5904 115.679 73.5935 115.684 73.5989C115.69 73.6043 115.693 73.6116 115.693 73.6192C115.917 74.5088 116.166 75.3888 116.365 76.288C116.461 76.7264 116.806 78.8992 116.822 79.0528C116.838 79.2064 116.851 79.3728 116.854 79.5328C116.877 79.6942 116.877 79.8579 116.854 80.0192C116.854 80.0608 116.8 80.0544 116.781 80.0192C116.715 79.8677 116.667 79.7087 116.64 79.5456C116.601 79.392 116.566 79.2256 116.537 79.0752C116.537 79.0176 116.521 78.96 116.512 78.9024C116.297 78.7712 116.099 78.6016 115.901 78.4544C115.702 78.3072 115.462 78.1344 115.261 77.9744C114.883 77.6567 114.61 77.2315 114.48 76.7552C114.348 76.2433 114.263 75.7207 114.224 75.1936C114.153 74.576 114.102 73.9552 114.019 73.3408C114.013 73.3024 114.067 73.2896 114.073 73.3248Z" fill="#263238"/>
<path d="M122.598 33.0721C124.867 34.6209 126 37.6577 126 37.6577C126 37.6577 128.426 40.4769 128.24 42.2849C128.192 42.7969 128.022 43.2899 127.744 43.7221C127.465 44.1544 127.087 44.5132 126.64 44.7681V43.7857C126.64 43.7857 126.253 45.1201 124.285 45.9937C122.317 46.8673 119.485 46.7393 117.93 46.2849C117.011 46.0201 116.177 45.5231 115.507 44.8417L116.294 46.1217C115.61 46.1716 114.925 46.0516 114.298 45.7725C113.672 45.4933 113.124 45.0636 112.704 44.5217C111.123 42.6017 113.965 38.9281 114.131 38.2177C114.298 37.5073 113.773 32.6433 118.973 32.5345C118.97 32.5313 121.034 32.0033 122.598 33.0721Z" fill="#A6A6A6"/>
<path d="M127.337 44.5088C127.856 44.0837 128.231 43.5095 128.413 42.864C128.62 42.2291 128.609 41.543 128.381 40.9152C128.052 40.1897 127.597 39.5287 127.037 38.9632C126.499 38.352 125.913 37.776 125.385 37.152C125.357 37.1168 125.408 37.0752 125.44 37.1008C125.986 37.5428 126.507 38.0161 126.998 38.5184C127.496 38.9688 127.939 39.4757 128.32 40.0288C128.667 40.5375 128.861 41.1349 128.88 41.7504C128.871 42.2555 128.739 42.7508 128.496 43.1936C128.179 43.6974 127.797 44.1568 127.36 44.56C127.36 44.56 127.309 44.5312 127.337 44.5088Z" fill="#A6A6A6"/>
<path d="M111.869 42.4096C112.147 40.5312 113.526 39.1168 114.205 37.3984C114.573 36.4704 114.806 35.4784 115.354 34.6208C115.354 34.5984 115.408 34.6208 115.392 34.6464C114.957 35.4016 114.778 36.2464 114.512 37.0656C114.221 37.8925 113.848 38.688 113.398 39.44C112.621 40.8224 111.686 42.464 112.23 44.0992C112.48 44.8544 113.094 45.6256 113.933 45.7216C113.937 45.7202 113.941 45.7197 113.945 45.7202C113.949 45.7207 113.953 45.7223 113.956 45.7246C113.96 45.727 113.962 45.7301 113.964 45.7338C113.966 45.7374 113.967 45.7415 113.967 45.7456C113.967 45.7498 113.966 45.7538 113.964 45.7575C113.962 45.7611 113.96 45.7643 113.956 45.7666C113.953 45.769 113.949 45.7705 113.945 45.771C113.941 45.7715 113.937 45.7711 113.933 45.7696C113.596 45.7029 113.277 45.568 112.995 45.3731C112.712 45.1783 112.473 44.9277 112.291 44.6368C111.885 43.97 111.735 43.1787 111.869 42.4096Z" fill="#A6A6A6"/>
<path d="M111.885 42.8992C111.706 42.2407 111.737 41.5431 111.971 40.9024C112.25 40.2905 112.655 39.745 113.162 39.3024C113.715 38.7648 114.307 38.2432 114.582 37.504C114.582 37.472 114.64 37.504 114.63 37.5264C114.198 38.7392 113.085 39.4784 112.438 40.5504C111.699 41.7792 111.984 43.3184 112.851 44.3904C113.396 45.0496 114.089 45.5705 114.874 45.9104C114.874 45.9104 114.874 45.936 114.874 45.9296C113.526 45.3696 112.256 44.3648 111.885 42.8992Z" fill="#A6A6A6"/>
<path d="M117.859 52.5088C116.4 56.128 110.608 67.824 106.806 68.6496C104.32 69.2 94.2208 68.2144 92.48 65.8272C91.7248 64.7872 93.0048 57.5392 94.3488 57.8272C95.6928 58.1152 103.782 59.184 104.774 58.8928C105.766 58.6016 113.213 50.0352 115.994 47.9072C120.79 44.24 118.643 50.56 117.859 52.5088Z" fill="#EB9481"/>
<path d="M97.4046 57.3025L97.1902 68.1985C97.1902 68.1985 105.19 69.6577 108.601 68.3361C112.761 66.7361 118.435 53.4944 119.2 51.3248C120.457 47.7632 119.997 45.648 118.057 46.24C117.302 46.464 116.323 47.0976 115.136 48.224C113.891 49.3952 106.781 56.9664 104.502 58.432C103.229 59.2513 97.4046 57.3025 97.4046 57.3025Z" fill="#EBEBEB"/>
<path d="M99.2159 67.7376C99.2959 66.1376 99.3823 59.5328 99.3024 58.1056C99.3024 58.0064 99.2351 57.9872 99.2255 58.0896C98.8703 62.9056 99.1488 66.1504 99.152 67.7312C99.152 67.7728 99.1999 67.7792 99.2159 67.7376Z" fill="#263238"/>
<path d="M100.576 68.6656C103.174 68.9376 106.656 69.0944 108.605 68.3456C112.765 66.7456 118.435 53.504 119.2 51.3344C120.458 47.7728 119.997 45.6608 118.058 46.2496C117.997 46.2496 117.936 46.288 117.875 46.3104L100.576 68.6656Z" fill="#A6A6A6"/>
<path d="M111.785 61.6672L110.262 72.1248C110.262 72.1248 127.305 72.3776 131.539 72.08C131.539 72.08 128.086 52.528 123.539 47.5872C121.261 45.1168 118.592 45.3024 116.889 47.0304C116.457 47.4656 111.315 54.2624 110.774 56.8576C110.304 59.1456 111.785 61.6672 111.785 61.6672Z" fill="#C2C7D6"/>
<path d="M121.651 46.1408C121.651 46.1408 120.173 102.301 121.581 104.717C122.438 106.189 136.637 102.662 136.637 102.662C136.637 102.662 132.966 69.3824 128.752 57.5424C124.841 46.56 121.651 46.1408 121.651 46.1408Z" fill="#EBEBEB"/>
<path d="M132.237 79.6608C130.799 79.8595 129.351 79.9727 127.901 80C125.872 80 123.856 79.8016 123.277 79.792C123.222 79.792 123.197 79.9648 123.232 79.968C124.769 80.1531 126.314 80.2599 127.862 80.288C129.279 80.2781 130.693 80.1443 132.086 79.888C132.086 80.3168 132.086 80.6528 132.086 81.0816C130.656 81.36 127.894 81.8368 123.446 81.264C123.43 81.0848 123.446 80.128 123.417 79.8656C123.417 79.824 123.248 79.8176 123.238 79.8656C123.203 80.1248 123.097 82.4256 123.094 82.8896C123.094 84.0416 123.165 87.296 123.449 87.9264C124.089 89.3536 126.877 89.3568 127.648 89.3632C128.419 89.3696 130.896 89.4464 131.808 88.5376C132.304 88.0544 132.413 85.4176 132.339 83.0976C132.304 82 132.304 79.68 132.237 79.6608ZM127.853 89.0912C125.395 89.0912 124.333 88.5792 123.949 88.0672C123.507 87.4688 123.469 86.4288 123.437 85.28C123.411 84.3776 123.437 81.5488 123.437 81.4912C124.87 81.7824 128.646 82.176 132.077 81.376C132.077 82.7168 132.077 83.7888 132.077 85.1296C132.077 86.0896 132.016 87.728 131.526 88.2944C131.126 88.768 129.629 89.0912 127.853 89.0912Z" fill="#A6A6A6"/>
<path d="M110.515 103.667C109.693 104.07 101.709 99.36 101.709 99.36L111.68 61.4752C110.842 60.1067 110.515 58.4855 110.758 56.8992C111.2 54.3392 116.544 46.9472 117.405 46.5664C116.513 50.3854 115.894 54.2629 115.552 58.1696C114.083 74.1568 111.331 103.261 110.515 103.667Z" fill="#EBEBEB"/>
<path d="M112.454 53.4464C112.928 52.688 113.414 51.936 113.885 51.1744C113.885 51.152 113.866 51.1264 113.85 51.1456C113.374 51.7728 112.906 52.4053 112.445 53.0432C112.598 52.704 112.746 52.3584 112.883 52.0128C112.899 51.9712 112.845 51.9392 112.826 51.9808C112.614 52.4288 112.422 52.8832 112.234 53.3408C111.823 53.911 111.459 54.5135 111.146 55.1424C110.459 56.4481 110.255 57.954 110.57 59.3952C110.665 59.7974 110.807 60.1872 110.992 60.5568C111.12 60.8096 111.53 61.3568 111.526 61.3728C111.261 62.864 111.059 64.3712 110.848 65.872C110.637 67.3728 110.666 69.3056 110.787 68.5568C111.027 67.0464 111.245 65.5328 111.462 64.0192C111.587 63.1616 111.722 62.304 111.821 61.4592C111.678 61.1349 111.513 60.8206 111.328 60.5184C111.174 60.2017 111.049 59.8719 110.954 59.5328C110.757 58.8461 110.696 58.1276 110.774 57.4176C110.941 55.952 111.68 54.6592 112.454 53.4464Z" fill="#263238"/>
<path d="M117.379 46.7328C116.877 47.4944 116.368 48.2464 115.85 48.9952C115.331 49.744 114.816 50.496 114.285 51.2352V51.0592L115.565 52.3969L115.67 52.5088L115.558 52.6176C115.021 53.1392 114.474 53.648 113.926 54.1632L113.974 54.0288C114.17 55.4144 114.384 56.8 114.56 58.1888C114.736 59.5776 114.922 60.9664 115.075 62.3488C114.813 60.9728 114.57 59.5904 114.339 58.2112C114.109 56.832 113.891 55.4432 113.67 54.0512V53.9744L113.728 53.9168C114.266 53.3984 114.806 52.88 115.354 52.368V52.5888L114.099 51.2256L114.022 51.1425L114.09 51.0496C114.624 50.3168 115.184 49.5968 115.731 48.8704C116.278 48.144 116.8 47.44 117.379 46.7328Z" fill="#A6A6A6"/>
<path d="M126.275 49.4976C132.995 55.7888 140.87 66.6912 138.086 69.3632C136.24 71.1392 126.969 59.2864 127.133 59.3184C127.481 59.3824 125.472 55.4432 123.008 50.6785C120.259 45.3505 122.441 45.9009 126.275 49.4976Z" fill="#EB9481"/>
<path d="M123.005 46.752C127.674 49.0656 140.522 64.032 138.842 68.6496C137.162 73.2672 126.554 59.3856 126.662 59.184C126.771 58.9824 124.077 53.7152 122.982 51.5712C121.888 49.4272 120.518 45.52 123.005 46.752Z" fill="#EBEBEB"/>
<path d="M123.638 54.0736C123.898 54.3456 124.15 54.6208 124.394 54.9056C124.438 54.9568 124.48 55.0144 124.522 55.0656C124.451 54.9152 124.378 54.7648 124.304 54.6144C124.026 54.095 123.776 53.5609 123.555 53.0144C123.555 52.9888 123.584 52.9728 123.6 52.9952C123.931 53.5118 124.233 54.0459 124.506 54.5952C124.79 55.1232 125.082 55.6512 125.357 56.1952C125.632 56.7392 125.914 57.264 126.179 57.7952C126.46 58.3191 126.702 58.8624 126.906 59.4208C126.906 59.4528 126.87 59.4688 126.851 59.4432C126.503 58.9333 126.193 58.3985 125.923 57.8432C125.642 57.3088 125.373 56.7712 125.101 56.2432C124.986 56.0192 124.874 55.792 124.765 55.5648L124.634 55.4176C124.512 55.28 124.397 55.1392 124.285 54.9952C124.054 54.7008 123.837 54.3968 123.622 54.0896C123.616 54.0768 123.632 54.064 123.638 54.0736Z" fill="#263238"/>
<path d="M121.677 46.7808C122.025 47.6 122.383 48.4128 122.752 49.2192C123.12 50.0256 123.478 50.8384 123.859 51.6384L123.894 51.4656L122.541 52.624L122.429 52.72L122.515 52.8416C122.931 53.4272 123.36 54.0032 123.795 54.5824L123.773 54.4448C123.398 55.792 123.008 57.136 122.653 58.4896C122.298 59.8432 121.92 61.2 121.581 62.5504C122.016 61.2224 122.429 59.888 122.835 58.5504C123.242 57.2128 123.632 55.8688 124.029 54.528L124.051 54.4544L124.006 54.3904C123.587 53.808 123.171 53.2224 122.742 52.6464L122.72 52.864L124.051 51.68L124.134 51.6064L124.086 51.5072C123.702 50.7104 123.296 49.9264 122.899 49.1328C122.502 48.3392 122.093 47.5616 121.677 46.7808Z" fill="#A6A6A6"/>
<path d="M122.368 48.08C122.477 46.4064 121.11 45.8112 119.856 45.6416C118.368 45.44 117.379 45.5648 116.656 47.008C115.904 48.528 115.514 50.2912 115.219 51.9552C115.209 52.0193 115.174 52.0767 115.121 52.1148C115.069 52.1529 115.003 52.1686 114.939 52.1584C114.875 52.1482 114.818 52.113 114.78 52.0605C114.741 52.008 114.726 51.9425 114.736 51.8784C115.072 49.9584 115.555 46.384 117.462 45.3408C119.219 44.3808 123.027 45.3216 122.838 48.16C122.816 48.48 122.333 48.3936 122.355 48.08H122.368Z" fill="#455A64"/>
<path d="M113.731 52.6464C113.696 52.8668 113.726 53.0928 113.82 53.2958C113.913 53.4987 114.064 53.6693 114.254 53.786C114.445 53.9028 114.665 53.9603 114.889 53.9513C115.112 53.9423 115.327 53.8672 115.507 53.7356C115.688 53.6039 115.825 53.4217 115.901 53.2119C115.978 53.0022 115.99 52.7744 115.937 52.5576C115.884 52.3407 115.768 52.1446 115.603 51.994C115.438 51.8435 115.232 51.7453 115.011 51.712C114.718 51.6686 114.419 51.7423 114.18 51.9171C113.94 52.0919 113.779 52.3538 113.731 52.6464Z" fill="#263238"/>
<path d="M114.176 52.7168C114.155 52.8495 114.173 52.9854 114.23 53.1074C114.286 53.2294 114.377 53.332 114.491 53.4022C114.606 53.4724 114.738 53.5071 114.873 53.5018C115.007 53.4966 115.136 53.4516 115.245 53.3726C115.354 53.2936 115.436 53.1842 115.483 53.0581C115.529 52.9321 115.537 52.7952 115.505 52.6646C115.474 52.5341 115.404 52.4159 115.305 52.3249C115.207 52.2339 115.083 52.1743 114.95 52.1536C114.863 52.1395 114.773 52.1429 114.686 52.1636C114.6 52.1843 114.518 52.2219 114.446 52.2742C114.374 52.3266 114.313 52.3926 114.267 52.4686C114.221 52.5445 114.19 52.6289 114.176 52.7168Z" fill="#EBEBEB"/>
<path d="M120.672 53.3217C119.443 58.0321 119.635 59.1809 120.032 59.7217C120.327 60.0984 120.705 60.4027 121.136 60.6113L121.28 60.2913L121.209 60.4449L121.28 60.2913C120.906 60.1055 120.578 59.8388 120.32 59.5105C120.038 59.1201 119.801 58.0609 121.021 53.3985L120.672 53.3217Z" fill="#C7C7C7"/>
<path d="M120.754 60.1939L120.744 60.2107C120.65 60.3825 120.712 60.5985 120.884 60.6932L121.299 60.9218C121.471 61.0165 121.687 60.954 121.781 60.7822L121.791 60.7654C121.885 60.5936 121.823 60.3775 121.651 60.2828L121.236 60.0543C121.064 59.9596 120.848 60.0221 120.754 60.1939Z" fill="#263238"/>
<path d="M123.747 53.4336C124.685 56.9792 124.915 58.9216 124.467 59.5424C124.21 59.8722 123.882 60.1401 123.507 60.3264L123.651 60.6464C124.082 60.4373 124.458 60.1318 124.752 59.7536C125.286 59.0112 125.094 57.1584 124.086 53.3536L123.747 53.4336Z" fill="#C7C7C7"/>
<path d="M122.988 60.7868C122.966 60.7461 122.951 60.7012 122.946 60.6549C122.941 60.6086 122.945 60.5616 122.957 60.5168C122.97 60.4719 122.992 60.43 123.021 60.3935C123.05 60.3569 123.086 60.3265 123.126 60.3038L123.537 60.0753C123.621 60.0291 123.719 60.0178 123.81 60.0439C123.901 60.07 123.979 60.1313 124.025 60.2144C124.048 60.2551 124.062 60.3 124.067 60.3463C124.073 60.3926 124.069 60.4396 124.056 60.4844C124.043 60.5293 124.022 60.5712 123.993 60.6077C123.964 60.6443 123.928 60.6747 123.887 60.6974L123.47 60.9291C123.429 60.9514 123.384 60.9654 123.338 60.9703C123.292 60.9752 123.245 60.971 123.2 60.9577C123.155 60.9445 123.113 60.9226 123.077 60.8933C123.041 60.864 123.011 60.8278 122.988 60.7868Z" fill="#263238"/>
<path d="M124.192 53.2C124.037 52.4143 123.832 51.6394 123.577 50.88C123.429 50.5439 123.192 50.2542 122.893 50.0416C122.825 50.0416 122.854 49.4368 122.893 48.9504C122.925 48.5184 122.969 48.0192 122.864 47.8784C122.804 47.8155 122.722 47.778 122.635 47.7738C122.548 47.7697 122.462 47.7991 122.397 47.856C122.278 47.984 122.272 48.496 122.259 48.9184C122.243 49.408 122.211 50.0032 122.144 50.0032C121.842 50.2005 121.592 50.4671 121.414 50.7808C121.085 51.5311 120.814 52.3057 120.605 53.0976C120.496 53.6032 120.662 53.664 120.806 53.712C121.011 53.7824 121.126 53.6416 121.299 53.072C121.552 52.1856 121.872 50.6976 122.486 50.7008C123.097 50.7616 123.347 52.336 123.545 53.216C123.67 53.7664 123.785 53.8176 123.997 53.7696C124.137 53.7504 124.291 53.6864 124.192 53.2Z" fill="#263238"/>
<path d="M118.381 53.7792C118.381 53.7792 119.565 52.0064 118.288 51.296C117.011 50.5856 116.131 52.5312 116.131 52.5312L118.381 53.7792Z" fill="#455A64"/>
<path d="M108.883 65.5648L108.829 67.6512L108.806 68.3424L109.386 67.9648L111.133 66.816L118.422 53.696L116.182 52.4448L108.893 65.5648H108.883Z" fill="#455A64"/>
<path d="M108.829 67.6544L108.81 68.3424L109.389 67.9648L108.829 67.6544Z" fill="#37474F"/>
<path d="M115.739 52.7968L118.365 54.2573L118.655 53.7371L116.029 52.2767L115.739 52.7968Z" fill="#263238"/>
<path d="M115.416 53.377L118.042 54.8374L118.331 54.3172L115.705 52.8568L115.416 53.377Z" fill="#263238"/>
<path d="M118.038 54.8384L117.194 54.368L115.021 59.3696L115.344 59.5264L118.038 54.8384Z" fill="#263238"/>
<path d="M138.086 69.3632C135.562 71.8208 125.488 70.5024 119.066 68.5792C117.843 68.2112 121.792 57.3408 123.05 57.8656C124.38 58.4333 125.743 58.9185 127.133 59.3184C127.482 59.3824 140.854 66.6752 138.086 69.3632Z" fill="#EB9481"/>
<path d="M107.862 58.32C107.958 59.5392 110.941 59.056 110.941 59.056C110.525 59.3801 110.238 59.8401 110.128 60.3552C109.974 61.2704 111.344 61.9104 111.344 61.9104C110.985 62.3375 110.762 62.8625 110.704 63.4176C110.646 64.3104 111.936 65.1552 111.936 65.1552C111.822 65.7297 111.919 66.3259 112.208 66.8352C113.033 68.1632 115.437 67.9968 116.947 68.1888C118.633 68.4374 120.296 68.8216 121.92 69.3376L123.782 58.1728C123.782 58.1728 117.04 54.88 115.248 55.1136C113.753 55.3088 107.721 56.4576 107.862 58.32Z" fill="#EB9481"/>
<path d="M110.963 59.0176C112.518 58.4256 114.208 58.2048 115.846 58.0096C115.854 58.0096 115.861 58.0127 115.867 58.0181C115.872 58.0235 115.875 58.0308 115.875 58.0384C115.875 58.0461 115.872 58.0534 115.867 58.0588C115.861 58.0642 115.854 58.0672 115.846 58.0672C114.218 58.2432 112.598 58.8544 110.979 59.0944C110.971 59.0933 110.963 59.0895 110.956 59.0837C110.95 59.0778 110.946 59.0701 110.944 59.0617C110.942 59.0533 110.943 59.0445 110.947 59.0366C110.95 59.0287 110.956 59.0221 110.963 59.0176Z" fill="#263238"/>
<path d="M111.376 61.7856C111.742 61.6839 112.119 61.6311 112.499 61.6288C112.899 61.6032 113.302 61.5808 113.702 61.568C114.505 61.5392 115.302 61.5296 116.115 61.5424C116.15 61.5424 116.16 61.5968 116.115 61.6C115.315 61.6288 114.515 61.6704 113.715 61.7344L112.515 61.84C112.141 61.8996 111.761 61.9179 111.382 61.8944C111.371 61.8912 111.36 61.8845 111.353 61.8751C111.345 61.8658 111.341 61.8543 111.34 61.8423C111.339 61.8303 111.343 61.8184 111.349 61.8083C111.355 61.7981 111.365 61.7902 111.376 61.7856Z" fill="#263238"/>
<path d="M111.968 65.152C112.3 65.0665 112.644 65.0383 112.986 65.0688L114.083 65.0464C114.816 65.0272 115.549 65.008 116.282 64.9632C116.317 64.9632 116.323 65.0176 116.282 65.0208C115.539 65.0688 114.797 65.1264 114.042 65.1712L112.947 65.2256C112.615 65.2733 112.277 65.2613 111.949 65.1904C111.949 65.184 111.952 65.1584 111.968 65.152Z" fill="#263238"/>
<path d="M138.841 68.6496C137.161 73.2576 122.467 69.7216 122.467 69.7216L122.614 57.6288C122.614 57.6288 126.553 59.3856 126.662 59.184C126.771 58.9824 140.521 64.0448 138.841 68.6496Z" fill="#EBEBEB"/>
<path d="M124.605 69.1681C124.71 67.5681 124.893 61.0433 124.835 59.6289C124.835 59.5297 124.768 59.5105 124.758 59.6129C124.336 64.3777 124.563 67.5937 124.544 69.1617C124.544 69.2001 124.605 69.2001 124.605 69.1681Z" fill="#263238"/>
<path d="M122.701 57.6288C123.13 57.7453 123.55 57.8928 123.958 58.0704C124.326 58.2144 124.694 58.3584 125.059 58.5088C125.856 58.8288 126.659 59.1744 127.43 59.5232C128.201 59.872 128.998 60.224 129.773 60.592C130.547 60.96 131.302 61.3728 132.077 61.7408C132.112 61.7568 132.077 61.808 132.048 61.792C131.261 61.4368 130.448 61.152 129.657 60.8L127.325 59.8144L124.989 58.832C124.608 58.672 124.23 58.512 123.849 58.3424C123.434 58.185 123.03 57.9989 122.64 57.7856C122.624 57.7746 122.612 57.7585 122.606 57.7399C122.6 57.7213 122.601 57.7013 122.608 57.6832C122.615 57.665 122.628 57.6498 122.645 57.6399C122.662 57.63 122.681 57.6261 122.701 57.6288Z" fill="#263238"/>
<path d="M122.416 69.4625C122.416 69.3825 122.457 69.3601 122.477 69.4625C122.496 69.5649 122.502 69.5937 122.515 69.6385C123.014 69.7249 124.835 70.1025 125.28 70.1889C126.214 70.3745 127.136 70.6017 128.08 70.7201C129.391 70.8865 130.71 70.9816 132.032 71.0049C132.039 71.0049 132.047 71.0079 132.052 71.0133C132.058 71.0187 132.061 71.026 132.061 71.0337C132.061 71.0413 132.058 71.0486 132.052 71.054C132.047 71.0594 132.039 71.0625 132.032 71.0625C130.709 71.1017 129.385 71.0654 128.067 70.9537C127.107 70.8417 126.147 70.6881 125.206 70.4929C124.733 70.3969 124.262 70.2849 123.792 70.1729C123.337 70.0834 122.892 69.9495 122.464 69.7729C122.448 69.7643 122.435 69.7518 122.426 69.7366C122.417 69.7214 122.413 69.7041 122.413 69.6865L122.416 69.4625Z" fill="#263238"/>
<path d="M99.027 69.3121L111.696 69.5809L106.128 53.2032L93.459 52.9344L99.027 69.3121Z" fill="white"/>
<path d="M98.1598 69.2928L110.825 69.5616L105.261 53.1872L92.5918 52.9152L98.1598 69.2928Z" fill="#37474F"/>
<path d="M103.914 53.1584C103.994 53.4434 104.184 53.685 104.442 53.8304C104.563 53.8976 104.598 53.7408 104.48 53.6768C104.315 53.5821 104.188 53.4327 104.122 53.2544C104.122 53.2224 104.099 53.1904 104.093 53.1616C104.064 53.0569 104.064 52.9464 104.093 52.8416C104.105 52.7985 104.131 52.7605 104.166 52.7328H104.182H104.205C104.234 52.7233 104.265 52.7233 104.294 52.7328C104.349 52.7529 104.399 52.7858 104.438 52.8288C104.487 52.88 104.528 52.9382 104.56 53.0016C104.58 53.0314 104.598 53.0624 104.614 53.0944V53.1168C104.621 53.1268 104.626 53.1375 104.63 53.1488C104.632 53.1562 104.632 53.1638 104.63 53.1712H104.81C104.77 53.0575 104.715 52.9498 104.646 52.8512C104.594 52.7669 104.524 52.6947 104.441 52.6395C104.358 52.5844 104.264 52.5474 104.166 52.5312C104.095 52.5285 104.026 52.5531 103.972 52.6002C103.918 52.6472 103.885 52.713 103.878 52.784C103.857 52.9097 103.869 53.0389 103.914 53.1584Z" fill="#C7C7C7"/>
<path d="M102.922 53.136C103.002 53.4218 103.192 53.6645 103.45 53.8112C103.571 53.8784 103.606 53.7216 103.488 53.6576C103.324 53.5599 103.198 53.41 103.13 53.232C103.13 53.2032 103.107 53.1712 103.101 53.1424C103.072 53.0377 103.072 52.9271 103.101 52.8224C103.11 52.7788 103.135 52.7402 103.171 52.7136H103.194C103.223 52.7041 103.254 52.7041 103.283 52.7136C103.338 52.7337 103.388 52.7666 103.427 52.8096C103.475 52.8613 103.516 52.9195 103.549 52.9824C103.569 53.0122 103.587 53.0432 103.603 53.0752V53.0976C103.61 53.1072 103.616 53.118 103.619 53.1296C103.619 53.1296 103.619 53.1456 103.619 53.152H103.798C103.759 53.0385 103.704 52.9308 103.635 52.832C103.583 52.7468 103.514 52.674 103.431 52.6187C103.348 52.5634 103.254 52.527 103.155 52.512C103.084 52.5084 103.014 52.5328 102.96 52.58C102.906 52.6272 102.873 52.6935 102.867 52.7648C102.853 52.8911 102.872 53.0189 102.922 53.136Z" fill="#C7C7C7"/>
<path d="M101.929 53.1168C102.012 53.4017 102.203 53.643 102.461 53.7888C102.579 53.856 102.614 53.6992 102.496 53.6352C102.331 53.5383 102.205 53.3882 102.137 53.2096C102.137 53.1808 102.118 53.1488 102.112 53.12C102.082 53.0155 102.082 52.9046 102.112 52.8C102.123 52.7564 102.149 52.7179 102.185 52.6912H102.202H102.227C102.255 52.6835 102.285 52.6835 102.314 52.6912C102.369 52.7118 102.419 52.7459 102.458 52.7904C102.507 52.8402 102.548 52.8975 102.579 52.96C102.6 52.9902 102.619 53.0224 102.634 53.056V53.0784C102.635 53.089 102.635 53.0998 102.634 53.1104C102.634 53.1104 102.634 53.1104 102.634 53.1328H102.816C102.774 53.0196 102.718 52.9121 102.65 52.8128C102.597 52.7281 102.527 52.6556 102.444 52.6004C102.362 52.5451 102.268 52.5085 102.169 52.4928C102.098 52.4893 102.028 52.5137 101.974 52.5609C101.921 52.6081 101.887 52.6743 101.881 52.7456C101.866 52.8714 101.883 52.9991 101.929 53.1168Z" fill="#C7C7C7"/>
<path d="M100.941 53.0944C101.021 53.3805 101.21 53.6232 101.469 53.7696C101.587 53.8368 101.622 53.6768 101.504 53.616C101.341 53.5174 101.215 53.3678 101.146 53.1904C101.146 53.1616 101.126 53.1264 101.12 53.0976C101.089 52.9932 101.089 52.8821 101.12 52.7776C101.13 52.7327 101.156 52.6929 101.194 52.6656H101.21H101.235C101.263 52.6564 101.294 52.6564 101.322 52.6656C101.378 52.6838 101.427 52.717 101.466 52.7616C101.516 52.8127 101.558 52.871 101.59 52.9344C101.609 52.9643 101.626 52.9953 101.642 53.0272V53.0496C101.643 53.0603 101.643 53.071 101.642 53.0816C101.642 53.0816 101.642 53.0816 101.642 53.104H101.821C101.78 52.9902 101.724 52.8825 101.654 52.784C101.602 52.6994 101.532 52.627 101.449 52.5718C101.366 52.5166 101.273 52.4799 101.174 52.464C101.103 52.4621 101.034 52.487 100.981 52.5339C100.927 52.5808 100.894 52.6461 100.886 52.7168C100.87 52.8453 100.889 52.9757 100.941 53.0944Z" fill="#C7C7C7"/>
<path d="M99.9488 53.0752C100.029 53.3604 100.219 53.6021 100.477 53.7472C100.595 53.8144 100.63 53.6576 100.515 53.5936C100.353 53.495 100.228 53.3453 100.16 53.168C100.16 53.1392 100.141 53.1072 100.134 53.0784C100.106 52.9737 100.106 52.8632 100.134 52.7584C100.144 52.714 100.17 52.6751 100.208 52.6496H100.234C100.263 52.6421 100.294 52.6421 100.323 52.6496C100.377 52.6702 100.425 52.7031 100.464 52.7456C100.512 52.7979 100.554 52.8559 100.589 52.9184C100.608 52.9472 100.624 52.9792 100.643 53.0144V53.0336C100.644 53.0453 100.644 53.0571 100.643 53.0688C100.643 53.0688 100.643 53.0688 100.643 53.088H100.822C100.782 52.9742 100.726 52.8665 100.656 52.768C100.605 52.6826 100.536 52.6096 100.454 52.5543C100.371 52.4989 100.277 52.4626 100.179 52.448C100.107 52.4444 100.037 52.4687 99.9827 52.5159C99.9284 52.563 99.8945 52.6293 99.888 52.7008C99.8746 52.8288 99.8956 52.9581 99.9488 53.0752Z" fill="#C7C7C7"/>
<path d="M98.9568 53.0528C99.0371 53.3378 99.2269 53.5794 99.4848 53.7248C99.6032 53.792 99.6416 53.6352 99.5232 53.5712C99.3579 53.4753 99.2312 53.3248 99.1648 53.1456C99.1648 53.1168 99.1424 53.0848 99.136 53.056C99.1074 52.9513 99.1074 52.8408 99.136 52.736C99.1486 52.693 99.1743 52.6549 99.2096 52.6272H99.2256H99.248C99.2772 52.6179 99.3085 52.6179 99.3376 52.6272C99.3935 52.6454 99.4433 52.6786 99.4816 52.7232C99.5298 52.7739 99.5707 52.8309 99.6032 52.8928L99.6576 52.9888V53.0112L99.6736 53.0432C99.6736 53.0432 99.6736 53.0432 99.6736 53.0656H99.8528C99.8135 52.9519 99.7586 52.8442 99.6896 52.7456C99.6369 52.6613 99.5668 52.5891 99.4841 52.534C99.4013 52.4788 99.3078 52.4419 99.2096 52.4256C99.138 52.4228 99.0681 52.4474 99.014 52.4944C98.9599 52.5413 98.9257 52.6072 98.9184 52.6784C98.8997 52.8045 98.9129 52.9332 98.9568 53.0528Z" fill="#C7C7C7"/>
<path d="M97.9647 53.0304C98.0448 53.3163 98.2346 53.5589 98.4927 53.7056C98.6143 53.7728 98.6495 53.616 98.5311 53.552C98.3665 53.4553 98.24 53.3051 98.1727 53.1264C98.1727 53.0976 98.1503 53.0656 98.1439 53.0368C98.1153 52.9321 98.1153 52.8216 98.1439 52.7168C98.1556 52.6725 98.1814 52.6332 98.2175 52.6048H98.2335H98.2399C98.269 52.5953 98.3004 52.5953 98.3295 52.6048C98.3844 52.6249 98.4338 52.6578 98.4735 52.7008C98.5225 52.752 98.5635 52.8102 98.5951 52.8736C98.6151 52.9034 98.6333 52.9344 98.6495 52.9664V52.9888C98.6555 52.9992 98.6608 53.0099 98.6655 53.0208C98.6665 53.0283 98.6665 53.0358 98.6655 53.0432H98.8799C98.8399 52.9298 98.785 52.8222 98.7167 52.7232C98.6646 52.6383 98.5947 52.5657 98.5119 52.5105C98.429 52.4552 98.3351 52.4186 98.2367 52.4032C98.1652 52.3997 98.0952 52.4241 98.0415 52.4713C97.9877 52.5185 97.9544 52.5847 97.9487 52.656C97.9204 52.78 97.9259 52.9093 97.9647 53.0304Z" fill="#C7C7C7"/>
<path d="M96.96 53.0112C97.0413 53.2966 97.2323 53.5382 97.4912 53.6832C97.6096 53.7504 97.6448 53.5936 97.5264 53.5296C97.3619 53.4327 97.2355 53.2826 97.168 53.104C97.168 53.0752 97.1456 53.0432 97.1392 53.0144C97.1105 52.9097 97.1105 52.7992 97.1392 52.6944C97.1505 52.6516 97.1751 52.6135 97.2096 52.5856C97.2096 52.5856 97.2096 52.5856 97.2256 52.5856H97.248C97.2773 52.5778 97.3082 52.5778 97.3376 52.5856C97.3927 52.607 97.442 52.641 97.4816 52.6848C97.5298 52.7355 97.5707 52.7926 97.6032 52.8544C97.6232 52.8853 97.6414 52.9174 97.6576 52.9504V52.9728C97.666 52.9817 97.6716 52.9928 97.6736 53.0048C97.6736 53.0048 97.6736 53.0048 97.6736 53.0272H97.8528C97.8135 52.9135 97.7586 52.8058 97.6896 52.7072C97.6378 52.6221 97.568 52.5492 97.4851 52.494C97.4022 52.4387 97.3081 52.4022 97.2096 52.3872C97.1381 52.3837 97.0681 52.4081 97.0144 52.4553C96.9606 52.5025 96.9273 52.5687 96.9216 52.64C96.9033 52.765 96.9165 52.8926 96.96 53.0112Z" fill="#C7C7C7"/>
<path d="M95.9807 52.9888C96.0624 53.274 96.2533 53.5155 96.5119 53.6608C96.6303 53.7312 96.6655 53.5712 96.5471 53.5072C96.3829 53.4115 96.2564 53.2624 96.1887 53.0848C96.1887 53.056 96.1695 53.0208 96.1631 52.992C96.1322 52.8876 96.1322 52.7765 96.1631 52.672C96.1734 52.6271 96.1995 52.5873 96.2367 52.56H96.2623C96.2904 52.5507 96.3207 52.5507 96.3487 52.56C96.4041 52.5793 96.4536 52.6123 96.4927 52.656C96.5425 52.7065 96.5836 52.7649 96.6143 52.8288C96.6355 52.8579 96.6537 52.889 96.6687 52.9216V52.944C96.67 52.9547 96.67 52.9654 96.6687 52.976C96.6687 52.976 96.6687 52.992 96.6687 52.9984H96.8511C96.8093 52.8852 96.7534 52.7777 96.6847 52.6784C96.632 52.5941 96.5619 52.5219 96.4792 52.4667C96.3964 52.4116 96.3029 52.3746 96.2047 52.3584C96.1335 52.3557 96.0639 52.3804 96.0103 52.4274C95.9567 52.4744 95.9232 52.5402 95.9167 52.6112C95.9054 52.7405 95.9274 52.8705 95.9807 52.9888Z" fill="#C7C7C7"/>
<path d="M94.9918 52.9664C95.0308 53.1083 95.0976 53.241 95.1882 53.3569C95.2788 53.4728 95.3915 53.5696 95.5198 53.6416C95.6382 53.7088 95.6734 53.552 95.555 53.488C95.392 53.3894 95.2661 53.2398 95.1966 53.0624C95.1966 53.0336 95.1774 53.0016 95.171 52.9728C95.1408 52.8683 95.1408 52.7574 95.171 52.6528C95.1806 52.6084 95.2069 52.5694 95.2446 52.544H95.2606H95.2862C95.3142 52.5348 95.3445 52.5348 95.3726 52.544C95.4285 52.5622 95.4783 52.5954 95.5166 52.64C95.5658 52.6917 95.6078 52.7498 95.6414 52.8128C95.661 52.8434 95.6781 52.8755 95.6926 52.9088V52.928C95.6939 52.9397 95.6939 52.9515 95.6926 52.9632C95.6926 52.9632 95.6926 52.9632 95.6926 52.9824H95.8718C95.8313 52.8686 95.7753 52.7609 95.7054 52.6624C95.654 52.577 95.5843 52.5039 95.5013 52.4486C95.4183 52.3933 95.3241 52.357 95.2254 52.3424C95.1539 52.3389 95.0839 52.3633 95.0302 52.4105C94.9764 52.4577 94.9431 52.5239 94.9374 52.5952C94.9219 52.7216 94.9407 52.8498 94.9918 52.9664Z" fill="#C7C7C7"/>
<path d="M94 52.9472C94.0799 53.2324 94.2698 53.4741 94.528 53.6192C94.6464 53.6864 94.6816 53.5296 94.5664 53.4656C94.4011 53.3689 94.2736 53.2188 94.2048 53.04C94.2048 53.0112 94.1856 52.9792 94.1792 52.9504C94.1506 52.8457 94.1506 52.7352 94.1792 52.6304C94.1904 52.5867 94.2164 52.5483 94.2528 52.5216H94.2784C94.3077 52.5138 94.3386 52.5138 94.368 52.5216C94.4225 52.5423 94.471 52.5764 94.5088 52.6208C94.5579 52.6714 94.5999 52.7285 94.6336 52.7904C94.6528 52.8192 94.6688 52.8544 94.688 52.8864V52.9088C94.6892 52.9195 94.6892 52.9302 94.688 52.9408C94.6897 52.9482 94.6897 52.9559 94.688 52.9632H94.8672C94.8267 52.8494 94.7707 52.7417 94.7008 52.6432C94.6495 52.5583 94.5803 52.4856 94.4979 52.4303C94.4155 52.375 94.322 52.3385 94.224 52.3232C94.1522 52.3196 94.0818 52.3439 94.0275 52.391C93.9732 52.4382 93.9393 52.5045 93.9328 52.576C93.9219 52.7035 93.9451 52.8316 94 52.9472Z" fill="#C7C7C7"/>
<path d="M93.0078 52.9248C93.0879 53.2107 93.2777 53.4533 93.5358 53.6C93.6542 53.6672 93.6926 53.5072 93.5742 53.4464C93.4096 53.3497 93.2831 53.1995 93.2158 53.0208C93.2158 52.992 93.1934 52.9568 93.187 52.928C93.1578 52.8234 93.1578 52.7127 93.187 52.608C93.1987 52.5637 93.2245 52.5244 93.2606 52.496H93.2766H93.299C93.3281 52.4867 93.3594 52.4867 93.3886 52.496C93.4435 52.5161 93.4929 52.549 93.5326 52.592C93.5816 52.6432 93.6226 52.7014 93.6542 52.7648C93.6734 52.7936 93.6894 52.8256 93.7086 52.8576V52.88V52.912C93.7086 52.912 93.7086 52.912 93.7086 52.9344H93.8878C93.8485 52.8207 93.7936 52.713 93.7246 52.6144C93.6725 52.5295 93.6026 52.4569 93.5198 52.4017C93.4369 52.3464 93.343 52.3098 93.2446 52.2944C93.1728 52.2908 93.1024 52.3151 93.0481 52.3622C92.9939 52.4094 92.9599 52.4756 92.9534 52.5472C92.9386 52.6757 92.9574 52.8058 93.0078 52.9248Z" fill="#C7C7C7"/>
<path d="M93.4047 56.6208C92.8063 58.0192 91.2319 59.7921 91.1391 60.9216C91.1072 61.1987 91.1653 61.4786 91.3047 61.72C91.4442 61.9615 91.6576 62.1516 91.9135 62.2625C91.9135 62.2625 90.8159 62.8672 90.9023 63.904C90.9471 64.4384 91.8399 64.8352 91.8399 64.8352C91.8399 64.8352 90.9791 65.3568 91.1135 66.2752C91.2223 67.0048 92.0991 67.2928 92.0991 67.2928C92.0991 67.2928 91.5071 68.1792 91.8559 68.8928C92.5599 70.3328 98.8959 70.08 99.7855 67.7088C100.198 66.6016 98.6559 66.7488 98.6559 66.7488C98.6559 66.7488 100.826 66.0032 100.806 64.6976C100.787 63.392 98.7935 63.6992 98.7935 63.6992C98.7935 63.6992 100.893 62.9568 100.736 61.6032C100.573 60.1952 98.6303 60.8448 98.6303 60.8448C98.6303 60.8448 100.003 59.8336 99.6447 58.8256C99.0559 57.1584 96.4703 59.3856 95.0655 59.1104L94.2079 56.8448L93.4047 56.6208Z" fill="#EB9481"/>
<path d="M92.2112 58.6656C92.6624 57.2928 90.9312 55.6832 91.1616 54.3072C91.4816 52.4448 93.6384 54.1728 94.208 56.8384L94.2848 58.9824L92.2112 58.6656Z" fill="#EB9481"/>
<path d="M92.2304 67.36C92.2261 67.36 92.222 67.3617 92.219 67.3647C92.216 67.3677 92.2144 67.3718 92.2144 67.376C92.2144 67.3803 92.216 67.3844 92.219 67.3874C92.222 67.3904 92.2261 67.392 92.2304 67.392C94.4157 67.8447 96.687 67.6215 98.7423 66.752C98.8095 66.7232 98.7871 66.6048 98.7103 66.624C96.5974 67.1822 94.4146 67.4302 92.2304 67.36Z" fill="#263238"/>
<path d="M91.8078 64.848C91.7854 64.848 91.7822 64.8896 91.8078 64.8928C93.9806 65.3216 96.7262 65.0465 98.8702 63.7472C98.9438 63.7024 98.9662 63.5872 98.8702 63.632C97.3854 64.4001 93.859 64.944 91.8078 64.848Z" fill="#263238"/>
<path d="M98.7583 60.6944C96.6527 61.8624 94.387 62.2336 92.003 62.2944C91.971 62.2944 91.9742 62.3392 92.003 62.3456C93.1742 62.64 94.6911 62.448 95.8431 62.2016C96.9313 61.9934 97.9456 61.5022 98.7839 60.7776C98.8319 60.7392 98.8031 60.672 98.7583 60.6944Z" fill="#263238"/>
<path d="M121.053 46.6048C120.928 46.9248 119.702 49.072 118.173 49.072C117.213 49.072 117.443 45.7664 117.443 45.7664L117.427 45.5616L117.203 42.6816L120.787 41.0496L121.302 40.8384C121.302 40.8384 121.302 41.6288 121.302 42.6176V42.7584C121.302 42.8128 121.302 42.8672 121.302 42.9184C121.302 43.0656 121.302 43.216 121.302 43.3664C121.302 43.5168 121.302 43.5936 121.302 43.712C121.302 43.8304 121.302 43.9488 121.302 44.0704C121.277 44.9199 121.193 45.7667 121.053 46.6048Z" fill="#EB9481"/>
<path d="M121.309 42.6144C120.915 43.3563 120.366 44.0039 119.698 44.5127C119.03 45.0216 118.259 45.3794 117.44 45.5616L117.216 42.6816L120.8 41.0496L121.315 40.8384C121.315 40.8384 121.305 41.6256 121.309 42.6144Z" fill="#263238"/>
<path d="M113.296 38.5472C112.995 43.6128 115.994 44.3648 117.088 44.4288C118.08 44.4864 121.462 44.5568 122.288 39.552C123.114 34.5472 120.851 32.8032 118.589 32.5504C116.326 32.2976 113.6 33.4816 113.296 38.5472Z" fill="#EB9481"/>
<path d="M114.083 37.3728C114.199 37.3558 114.313 37.3323 114.426 37.3024C114.55 37.2945 114.669 37.2449 114.762 37.1616C114.786 37.1301 114.8 37.0912 114.8 37.0512C114.8 37.0112 114.786 36.9723 114.762 36.9408C114.704 36.8857 114.633 36.847 114.555 36.8284C114.477 36.8099 114.396 36.8122 114.32 36.8352C114.159 36.8586 114.012 36.9406 113.907 37.0656C113.884 37.0956 113.871 37.1318 113.868 37.1695C113.866 37.2073 113.874 37.2449 113.893 37.2777C113.912 37.3105 113.94 37.337 113.974 37.354C114.008 37.3709 114.046 37.3774 114.083 37.3728Z" fill="#A6A6A6"/>
<path d="M117.398 37.3984C117.28 37.3824 117.171 37.3504 117.056 37.3248C116.931 37.3135 116.814 37.2631 116.72 37.1808C116.696 37.1491 116.683 37.1103 116.683 37.0704C116.683 37.0306 116.696 36.9918 116.72 36.96C116.778 36.9052 116.849 36.8669 116.927 36.8489C117.004 36.8309 117.085 36.8339 117.161 36.8576C117.323 36.883 117.469 36.966 117.574 37.0912C117.596 37.1216 117.608 37.1575 117.61 37.1946C117.612 37.2318 117.603 37.2687 117.584 37.301C117.566 37.3333 117.538 37.3596 117.505 37.3768C117.472 37.3941 117.435 37.4016 117.398 37.3984Z" fill="#A6A6A6"/>
<path d="M116.669 38.6752C116.669 38.6752 116.694 38.6944 116.694 38.7072C116.675 39.0528 116.694 39.4528 117.014 39.5744C117.014 39.5744 117.014 39.5968 117.014 39.5936C116.633 39.5296 116.595 39.0016 116.669 38.6752Z" fill="#263238"/>
<path d="M116.986 38.3232C117.542 38.2976 117.555 39.4113 117.04 39.4369C116.525 39.4625 116.522 38.3456 116.986 38.3232Z" fill="#263238"/>
<path d="M117.206 38.3808C117.305 38.4416 117.401 38.5536 117.526 38.5632C117.651 38.5728 117.763 38.4576 117.846 38.3424H117.865C117.865 38.5568 117.792 38.7776 117.565 38.8128C117.337 38.848 117.203 38.656 117.145 38.4416C117.12 38.416 117.168 38.3552 117.206 38.3808Z" fill="#263238"/>
<path d="M114.749 38.64C114.749 38.64 114.72 38.64 114.72 38.672C114.739 39.0176 114.701 39.4144 114.4 39.536V39.5552C114.774 39.4944 114.819 38.9632 114.749 38.64Z" fill="#263238"/>
<path d="M114.432 38.2849C113.875 38.2529 113.853 39.3697 114.368 39.3985C114.883 39.4273 114.899 38.3105 114.432 38.2849Z" fill="#263238"/>
<path d="M114.198 38.3552C114.109 38.4128 114.019 38.5184 113.914 38.5216C113.808 38.5248 113.706 38.4064 113.629 38.288C113.629 38.288 113.629 38.288 113.61 38.288C113.61 38.4992 113.667 38.7232 113.872 38.768C114.077 38.8128 114.192 38.6304 114.253 38.4192C114.262 38.3904 114.24 38.3296 114.198 38.3552Z" fill="#263238"/>
<path d="M115.2 40.1792C115.2 40.1792 115.129 40.6944 115.129 40.9376C115.129 40.96 115.19 40.9696 115.27 40.976C115.48 41.0144 115.695 40.9944 115.894 40.9182C116.093 40.842 116.267 40.7125 116.397 40.544C116.413 40.5216 116.397 40.496 116.358 40.512C116.048 40.7227 115.677 40.8282 115.302 40.8128C115.286 40.7456 115.453 39.9328 115.414 39.9296C115.226 39.9478 115.041 39.9898 114.864 40.0544C114.979 38.976 115.27 37.9264 115.369 36.8544C115.369 36.8473 115.366 36.8405 115.361 36.8351C115.356 36.8297 115.35 36.8259 115.343 36.8242C115.336 36.8224 115.329 36.8229 115.322 36.8254C115.315 36.8279 115.31 36.8325 115.305 36.8384C114.961 37.9558 114.729 39.105 114.614 40.2688C114.601 40.4 115.104 40.2208 115.2 40.1792Z" fill="#263238"/>
<path d="M122.265 39.36C121.433 39.4816 121.123 37.76 121.123 37.76C121.123 37.76 119.43 37.8784 118.704 35.4816C118.803 36.2082 119.112 36.89 119.594 37.4432C119.594 37.4432 116.582 37.3312 115.155 34.9152C115.155 34.9152 115.744 36.1536 116.243 36.576C115.47 36.3946 114.781 35.957 114.288 35.3344C114.288 35.3344 113.862 36.8128 113.485 37.2544C113.485 37.2544 112.794 34.7136 113.805 33.3312C115.93 30.4224 119.721 32.7104 119.721 32.7104C119.721 32.7104 121.795 32.9312 122.601 34.4416C123.84 36.752 122.265 39.36 122.265 39.36Z" fill="#A6A6A6"/>
<path d="M121.437 39.2832C121.437 39.2832 122.502 37.6832 123.232 38.0448C123.962 38.4064 123.19 40.7392 122.355 41.0752C122.251 41.1263 122.138 41.1557 122.022 41.1617C121.907 41.1677 121.791 41.1501 121.682 41.11C121.574 41.0699 121.474 41.0081 121.39 40.9284C121.306 40.8487 121.239 40.7528 121.194 40.6464L121.437 39.2832Z" fill="#EB9481"/>
<path d="M122.995 38.704V38.7264C122.413 38.9824 122.115 39.5392 121.914 40.1152C121.946 40.0551 121.991 40.0028 122.046 39.9618C122.101 39.9208 122.164 39.8922 122.231 39.8779C122.298 39.8636 122.367 39.864 122.434 39.879C122.501 39.894 122.563 39.9233 122.618 39.9648C122.634 39.9648 122.618 40 122.602 39.9968C122.496 39.9672 122.385 39.9706 122.282 40.0067C122.179 40.0427 122.089 40.1097 122.026 40.1984C121.921 40.3479 121.832 40.5077 121.76 40.6752C121.734 40.7296 121.638 40.704 121.658 40.64C121.629 39.8752 122.186 38.8 122.995 38.704Z" fill="#263238"/>
<path d="M71.0557 150.01H39.3438V146.851L42.0862 143.651H71.0557V150.01Z" fill="#263238"/>
<path d="M83.5069 150.01H71.0557V143.651H80.3069L83.5069 146.832V150.01Z" fill="#37474F"/>
<path d="M51.0527 109.718H46.1567V143.651H51.0527V109.718Z" fill="#263238"/>
<path d="M62.0445 109.718H51.0493V143.651H62.0445V109.718Z" fill="#37474F"/>
<path d="M70.8832 134.125H56.6304V136.339H70.8832V134.125Z" fill="#263238"/>
<path d="M76.4801 134.125H70.8833V136.339H76.4801V134.125Z" fill="#37474F"/>
<path d="M85.0493 99.9648H82.8765L85.5069 94.3232H87.6796L85.0493 99.9648Z" fill="#A6A6A6"/>
<path d="M91.7917 91.6H85.4717C85.4717 91.6 85.5997 95.392 82.7805 95.392C82.4025 95.4102 82.0274 95.3191 81.6999 95.1295C81.3724 94.9399 81.1065 94.66 80.9341 94.3232C80.9341 94.3232 81.9709 96.528 83.8845 96.528H88.0637C89.1997 96.5408 91.5677 95.76 91.7917 91.6Z" fill="#A6A6A6"/>
<path d="M80.2847 91.6H86.6079C86.6079 91.6 86.4767 95.392 89.2958 95.392C89.6743 95.4104 90.05 95.3194 90.378 95.1299C90.706 94.9403 90.9725 94.6602 91.1454 94.3232C91.1454 94.3232 90.1086 96.528 88.1951 96.528H84.0127C82.8799 96.5408 80.5119 95.76 80.2847 91.6Z" fill="#C7C7C7"/>
<path d="M76.8734 108.765C76.8741 108.9 76.8346 109.032 76.7601 109.144C76.6856 109.257 76.5794 109.345 76.4549 109.397C76.3304 109.449 76.1933 109.463 76.0608 109.437C75.9284 109.411 75.8067 109.346 75.711 109.251C75.6154 109.156 75.5501 109.034 75.5236 108.902C75.497 108.77 75.5103 108.633 75.5618 108.508C75.6133 108.383 75.7007 108.277 75.8128 108.201C75.925 108.126 76.0569 108.086 76.1918 108.086C76.3721 108.086 76.5449 108.158 76.6727 108.285C76.8004 108.412 76.8726 108.585 76.8734 108.765Z" fill="#C7C7C7"/>
<path d="M76.4416 108.918L75.9424 108.611L82.2528 98.3904H84.0672V98.976H82.5792L76.4416 108.918Z" fill="#A6A6A6"/>
<path d="M55.5647 86.1952C55.5647 86.5344 55.4641 86.866 55.2756 87.1481C55.0871 87.4302 54.8193 87.65 54.5059 87.7798C54.1924 87.9096 53.8476 87.9436 53.5149 87.8774C53.1821 87.8112 52.8765 87.6479 52.6366 87.408C52.3968 87.1681 52.2334 86.8625 52.1672 86.5298C52.1011 86.1971 52.135 85.8522 52.2648 85.5388C52.3947 85.2254 52.6145 84.9575 52.8966 84.769C53.1786 84.5806 53.5102 84.48 53.8495 84.48C54.0747 84.48 54.2978 84.5243 54.5059 84.6105C54.7139 84.6967 54.903 84.8231 55.0623 84.9823C55.2216 85.1416 55.3479 85.3307 55.4341 85.5388C55.5203 85.7469 55.5647 85.9699 55.5647 86.1952Z" fill="#37474F"/>
<path d="M53.8493 87.0816C54.3388 87.0816 54.7357 86.6847 54.7357 86.1952C54.7357 85.7056 54.3388 85.3088 53.8493 85.3088C53.3597 85.3088 52.9629 85.7056 52.9629 86.1952C52.9629 86.6847 53.3597 87.0816 53.8493 87.0816Z" fill="#455A64"/>
<path d="M77.9553 105.251C77.9553 105.591 77.8546 105.922 77.666 106.204C77.4774 106.487 77.2093 106.706 76.8957 106.836C76.5821 106.966 76.2371 107 75.9043 106.933C75.5715 106.867 75.2659 106.703 75.0261 106.463C74.7864 106.223 74.6233 105.917 74.5575 105.584C74.4917 105.251 74.5261 104.906 74.6564 104.593C74.7867 104.279 75.007 104.012 75.2895 103.823C75.572 103.635 75.9039 103.535 76.2433 103.536C76.6976 103.537 77.1331 103.718 77.4541 104.039C77.775 104.361 77.9553 104.797 77.9553 105.251Z" fill="#37474F"/>
<path d="M76.2428 106.138C76.7324 106.138 77.1292 105.741 77.1292 105.251C77.1292 104.762 76.7324 104.365 76.2428 104.365C75.7533 104.365 75.3564 104.762 75.3564 105.251C75.3564 105.741 75.7533 106.138 76.2428 106.138Z" fill="#455A64"/>
<path d="M75.6448 105.494L67.9616 86.8416H53.8496V85.5488H68.8288L76.8384 105.005L75.6448 105.494Z" fill="#455A64"/>
<path d="M76.7166 96.8864H36.147V102.989H76.7166V96.8864Z" fill="#37474F"/>
<path d="M64.5053 96.8864H36.1469L22.3965 62.9408H50.7549L64.5053 96.8864Z" fill="#37474F"/>
<path d="M64.5057 96.8864H43.0209L29.2705 62.9408H50.7553L64.5057 96.8864Z" fill="#455A64"/>
<path d="M54.4574 102.986H76.7134V96.8832H54.4574V102.986Z" fill="#455A64"/>
<path d="M50.7552 49.8784H24.2368V62.9408H50.7552V49.8784Z" fill="#37474F"/>
<path d="M50.7553 49.8784H29.2705V62.9408H50.7553V49.8784Z" fill="#37474F"/>
<path d="M53.44 56.6464C53.44 60.1888 50.0128 62.5984 50.0128 62.5984H30.1729V50.6944H50.0128C50.0128 50.6944 53.44 53.104 53.44 56.6464Z" fill="#455A64"/>
<path d="M30.1953 62.5952V50.6944C30.1953 50.6944 33.6225 53.104 33.6225 56.6464C33.6225 60.1888 30.1953 62.5952 30.1953 62.5952Z" fill="#37474F"/>
<path d="M32.9761 66.6624C34.5089 66.5984 36.0449 66.5664 37.5777 66.5408C39.1105 66.5152 40.6465 66.5184 42.1793 66.5056C43.7121 66.4928 45.2481 66.5056 46.7841 66.5408L49.0849 66.5856C49.8497 66.6112 50.6177 66.6272 51.3857 66.6624C50.6177 66.7008 49.8497 66.7168 49.0849 66.7424L46.7841 66.7872C45.2481 66.8128 43.7153 66.8128 42.1793 66.8224C40.6433 66.832 39.1137 66.8224 37.5777 66.7872C36.0417 66.752 34.5089 66.7296 32.9761 66.6624Z" fill="#37474F"/>
<path d="M36.1597 74.832C37.6925 74.7648 39.2253 74.7328 40.7613 74.7072C42.2973 74.6816 43.8301 74.6848 45.3629 74.672C46.8957 74.6592 48.4317 74.672 49.9645 74.7072L52.2653 74.752C53.0333 74.7808 53.8013 74.7936 54.5693 74.832C53.8013 74.8672 53.0333 74.8832 52.2653 74.9088L49.9645 74.9536C48.4317 74.9792 46.8989 74.9792 45.3629 74.992C43.8269 75.0048 42.2941 74.992 40.7613 74.9536C39.2285 74.9152 37.6797 74.896 36.1597 74.832Z" fill="#37474F"/>
<path d="M39.3149 82.9984C40.8509 82.9312 42.3837 82.9024 43.9197 82.8768C45.4557 82.8512 46.9853 82.8512 48.5213 82.8384C50.0573 82.8256 51.5901 82.8384 53.1229 82.8768L55.4237 82.9184C56.1917 82.9472 56.9597 82.9632 57.7245 82.9984C56.9597 83.0336 56.1917 83.0496 55.4237 83.0784L53.1229 83.12C51.5901 83.1456 50.0541 83.1456 48.5213 83.1584C46.9885 83.1712 45.4525 83.1584 43.9197 83.12C42.3869 83.0816 40.8509 83.0656 39.3149 82.9984Z" fill="#37474F"/>
<path d="M42.4863 91.1648C44.0223 91.1008 45.5551 91.0688 47.0879 91.0432C48.6207 91.0176 50.1567 91.0176 51.6927 91.0048C53.2287 90.992 54.7583 91.0048 56.2943 91.0432L58.5951 91.088C59.3631 91.1136 60.1279 91.1296 60.8959 91.1648C60.1279 91.2032 59.3631 91.216 58.5951 91.2448L56.2943 91.2896C54.7583 91.3152 53.2255 91.312 51.6927 91.3248C50.1599 91.3376 48.6239 91.3248 47.0879 91.2896C45.5519 91.2544 44.0223 91.232 42.4863 91.1648Z" fill="#37474F"/>
<path d="M78.1022 102.986H36.147V107.971H78.1022V102.986Z" fill="#263238"/>
<path d="M18.3135 62.9408H24.2431L42.0767 107.971H36.1471L18.3135 62.9408Z" fill="#263238"/>
<path d="M24.2367 49.8784L18.3135 52.2048V62.9408H24.2367V49.8784Z" fill="#263238"/>
<path d="M64.5055 107.971H40.6719V109.718H64.5055V107.971Z" fill="#A6A6A6"/>
<path d="M70.1054 108.845H51.043V112.125H70.1054V108.845Z" fill="#C7C7C7"/>
<path d="M58.0161 50.1088C60.7233 52.7456 59.6993 56.2752 60.7713 58.2944C61.4273 59.5296 63.7281 60.9344 64.1153 62.3328C64.7553 64.6304 62.7937 65.3184 63.1553 66.5664C63.6481 68.336 65.9745 68.3488 66.2113 71.2096C66.4481 74.0704 63.1297 76.88 55.6801 77.2288C48.2305 77.5776 44.3393 74.608 44.2273 72.1888C44.1153 69.7696 46.6273 69.1232 46.9089 67.3408C47.0881 66.1984 45.6289 65.3056 45.6769 63.1808C45.7249 61.056 47.8337 60.512 48.2369 58.736C48.6401 56.96 47.9745 52.5472 50.7489 50.4896C53.5233 48.432 56.6785 48.8064 58.0161 50.1088Z" fill="#263238"/>
<path d="M57.68 50.1504C58.4444 50.7699 59.0481 51.5646 59.44 52.4672C59.8472 53.4202 60.1404 54.4181 60.3136 55.44C60.4001 56.0487 60.5558 56.6457 60.7776 57.2192C61.0041 57.6969 61.314 58.1303 61.6928 58.4992C62.448 59.2736 63.3664 59.8816 64.032 60.7392C64.672 61.552 65.1296 62.6176 64.7904 63.648C64.608 64.2112 64.2016 64.6528 63.9328 65.1712C63.664 65.6896 63.5488 66.2816 63.9552 66.7296C64.304 67.1104 64.8288 67.3088 65.2352 67.6288C65.6298 67.9446 65.9712 68.3217 66.2464 68.7456C66.5247 69.1648 66.7128 69.6373 66.7988 70.1331C66.8847 70.6289 66.8666 71.1371 66.7456 71.6256C66.1664 73.8976 63.9232 75.0688 61.8784 75.7664L61.0176 76.0512C60.976 76.0512 60.9408 76 60.9888 75.984C63.0432 75.216 65.4336 74.3136 66.3424 72.1248C66.5483 71.6483 66.6415 71.1308 66.6149 70.6124C66.5882 70.094 66.4424 69.5888 66.1888 69.136C65.9332 68.6859 65.5982 68.2858 65.2 67.9552C64.8192 67.6352 64.3648 67.4208 63.9744 67.1136C63.7797 66.9711 63.6261 66.7798 63.5289 66.559C63.4317 66.3382 63.3944 66.0957 63.4208 65.856C63.5176 65.3341 63.7369 64.8428 64.0608 64.4224C64.3997 63.9848 64.5982 63.4549 64.6304 62.9024C64.6051 62.3612 64.4337 61.8371 64.1344 61.3856C63.568 60.464 62.6816 59.8272 61.8944 59.1072C61.0869 58.4331 60.5125 57.5216 60.2528 56.5024C60.1312 55.9648 60.0704 55.4176 59.9744 54.8736C59.8835 54.3719 59.7671 53.8753 59.6256 53.3856C59.36 52.401 58.8815 51.4867 58.224 50.7072C58.0499 50.5075 57.8559 50.3263 57.6448 50.1664C57.6288 50.1696 57.6576 50.1312 57.68 50.1504Z" fill="#263238"/>
<path d="M44.0092 70.4032C44.1242 70.0175 44.3218 69.6615 44.5884 69.36C44.8668 69.04 45.1964 68.7936 45.5004 68.512C45.8089 68.261 46.0407 67.9283 46.1692 67.552C46.2509 67.0866 46.1659 66.6073 45.9292 66.1984C45.7025 65.7697 45.5078 65.3247 45.3468 64.8672C45.2126 64.4134 45.1478 63.9419 45.1548 63.4688C45.1763 62.4946 45.4969 61.5505 46.0732 60.7648C46.3516 60.368 46.662 59.9936 46.9436 59.6C47.2523 59.1697 47.503 58.7006 47.6892 58.2048C48.0924 57.1104 48.2397 55.9424 48.5853 54.8288C48.9436 53.6911 49.4176 52.5931 49.9997 51.552C49.9997 51.5264 50.0509 51.552 50.0381 51.5776C49.5204 52.519 49.1032 53.5122 48.7933 54.5408C48.4956 55.5168 48.3421 56.5216 48.1021 57.5104C47.9943 57.9974 47.8378 58.4723 47.6348 58.928C47.4315 59.3469 47.1905 59.7464 46.9148 60.1216C46.3612 60.9056 45.7948 61.6768 45.5964 62.6336C45.3963 63.5752 45.5017 64.556 45.8972 65.4336C46.2396 66.1952 46.7324 67.0336 46.3356 67.8784C46.0156 68.5888 45.2796 68.9824 44.7804 69.5584C44.5175 69.8757 44.3245 70.2449 44.2142 70.642C44.1039 71.039 44.0788 71.4549 44.1404 71.8624C44.406 73.9616 46.4156 75.12 48.3549 75.3472C48.3651 75.3499 48.3741 75.3559 48.3806 75.3643C48.3871 75.3727 48.3906 75.383 48.3906 75.3936C48.3906 75.4042 48.3871 75.4145 48.3806 75.4229C48.3741 75.4313 48.3651 75.4373 48.3549 75.44C46.6652 75.312 44.8764 74.4544 44.1948 72.8224C43.8546 72.0618 43.789 71.2067 44.0092 70.4032Z" fill="#263238"/>
<path d="M55.0877 66.4384C57.9677 71.2384 62.1821 75.9808 64.1981 76.2016C65.8205 76.3776 76.3262 71.9424 77.1358 71.1584C77.8302 70.4832 74.1117 63.968 73.1101 64.2368C71.4301 64.6912 65.1421 68.864 64.6749 68.7168C64.2077 68.5696 60.7101 65.968 57.0525 63.5648C53.5485 61.2736 53.0813 63.12 55.0877 66.4384Z" fill="#EB9481"/>
<path d="M76.0191 71.8112C76.9215 71.4592 81.2671 69.4816 82.2559 68.6816C83.2447 67.8816 85.9199 65.376 85.3855 64.5568C84.8511 63.7376 84.0063 64.4096 84.0063 64.4096C84.0063 64.4096 84.9663 63.1744 84.3551 62.3968C83.7439 61.6192 82.4671 62.7168 82.4671 62.7168C82.4671 62.7168 83.3631 61.3728 82.6943 60.6432C82.0255 59.9136 80.9279 61.2224 80.9279 61.2224C80.9279 61.2224 81.8047 60.032 81.0015 59.664C80.0415 59.2192 78.6655 61.584 77.5103 62.3936C77.2479 62.576 71.9199 65.6992 71.9199 65.6992L76.0191 71.8112Z" fill="#EB9481"/>
<path d="M81.0238 61.1072C80.0126 62.8512 79.2701 63.4368 77.5037 64.3584C77.4717 64.3776 77.5037 64.432 77.5261 64.416C79.331 63.6704 80.371 63.0688 81.1038 61.1488C81.1454 61.056 81.0718 61.024 81.0238 61.1072Z" fill="#263238"/>
<path d="M82.5598 62.5696C81.3534 64.288 80.5502 64.9344 78.7806 66.0352C78.755 66.0352 78.7806 66.096 78.8062 66.08C80.6334 65.1456 81.6574 64.5216 82.6462 62.6432C82.6654 62.56 82.5982 62.48 82.5598 62.5696Z" fill="#263238"/>
<path d="M83.9135 64.464C82.6335 66.0448 81.7791 66.7904 79.9231 67.6384C79.9186 67.6401 79.9146 67.6426 79.9112 67.6458C79.9077 67.6491 79.905 67.653 79.903 67.6573C79.9011 67.6616 79.9001 67.6662 79.8999 67.671C79.8998 67.6757 79.9006 67.6804 79.9023 67.6848C79.9039 67.6892 79.9065 67.6932 79.9097 67.6967C79.913 67.7001 79.9168 67.7029 79.9212 67.7048C79.9255 67.7067 79.9301 67.7078 79.9348 67.7079C79.9395 67.7081 79.9442 67.7073 79.9487 67.7056C81.9263 67.0272 82.9887 66.1056 83.9583 64.5056C84.0255 64.4 83.9967 64.3648 83.9135 64.464Z" fill="#263238"/>
<path d="M70.0254 65.7792C70.0254 65.7792 71.4782 63.2192 72.1982 62.3264C72.9182 61.4336 76.8062 59.1584 77.347 59.9712C78.0478 61.0176 76.067 62.7808 74.979 63.52C74.979 63.52 76.5982 65.9424 75.4494 67.5168C74.3006 69.0912 70.0254 65.7792 70.0254 65.7792Z" fill="#EB9481"/>
<path d="M77.4397 60.32C77.3885 61.7376 75.9005 62.6112 74.9021 63.4048C74.8863 63.4153 74.8733 63.4295 74.8643 63.4463C74.8553 63.463 74.8506 63.4818 74.8506 63.5008C74.8506 63.5198 74.8553 63.5385 74.8643 63.5552C74.8733 63.572 74.8863 63.5863 74.9021 63.5968C75.5133 64.6592 76.0669 66.3328 75.5197 67.504C75.5159 67.5108 75.5149 67.5188 75.517 67.5263C75.5191 67.5338 75.5241 67.5401 75.5309 67.544C75.5377 67.5478 75.5457 67.5488 75.5532 67.5467C75.5607 67.5446 75.5671 67.5396 75.5709 67.5328C76.3293 66.3584 75.9197 64.6688 75.1741 63.5488C76.2109 62.752 77.6637 61.808 77.4493 60.32C77.4589 60.3136 77.4397 60.3104 77.4397 60.32Z" fill="#263238"/>
<path d="M69.7213 65.7056L74.5596 73.1712C74.5596 73.1712 66.022 77.1488 63.5868 76.2048C61.1516 75.2608 56.246 68.7872 54.3708 65.4048C52.4956 62.0224 54.6908 61.68 57.99 63.9296C61.2892 66.1792 64.598 68.6272 64.6908 68.6208C64.7836 68.6144 69.7213 65.7056 69.7213 65.7056Z" fill="#DBDBDB"/>
<path d="M72.3679 73.6544C71.7279 72.5472 68.9983 68.1088 68.3423 67.1936C68.2943 67.1296 68.2431 67.1456 68.2815 67.2192C70.0799 70.5888 71.6511 72.6272 72.3199 73.68C72.3391 73.7056 72.3839 73.68 72.3679 73.6544Z" fill="#263238"/>
<path d="M53.6129 64.5632C54.2817 66.3392 56.4929 69.5424 56.4929 69.5424L63.1841 67.184C63.1841 67.184 58.4097 63.3024 55.2225 62.208C53.9393 61.7696 52.9345 62.7648 53.6129 64.5632Z" fill="#C2C7D6"/>
<path d="M56.2144 68.6208C57.1744 68.2048 58.1568 67.8048 59.152 67.4464C59.648 67.2672 60.144 67.0976 60.6464 66.9344C61.1488 66.7712 61.664 66.656 62.16 66.4864C62.1888 66.4864 62.2016 66.5216 62.16 66.5312C61.6576 66.6752 61.168 66.8896 60.6688 67.0592C60.1696 67.2288 59.6736 67.4048 59.1776 67.584C58.1888 67.936 57.1968 68.288 56.2144 68.6656C56.1984 68.6752 56.1856 68.6336 56.2144 68.6208Z" fill="#263238"/>
<path opacity="0.1" d="M59.9999 68.3008L56.4799 69.5424C56.4799 69.5424 54.2751 66.3424 53.5999 64.5632C53.3929 64.0836 53.336 63.5525 53.4367 63.04L59.9999 68.3008Z" fill="black"/>
<path d="M102.595 140.755C101.824 141.014 79.7596 141.056 78.9148 140.525C78.5948 140.326 78.4028 137.114 78.2748 133.226C78.246 132.384 78.2236 131.517 78.2076 130.637C78.0786 126.69 77.7346 122.754 77.1772 118.845L91.9356 118.774L92.5596 130.566L92.4988 133.155C92.4988 133.155 100.953 136.918 101.814 137.6C102.675 138.282 103.36 140.496 102.595 140.755Z" fill="#EB9481"/>
<path d="M78.3457 134.973C78.4673 138.035 78.6465 140.358 78.9185 140.525C79.7601 141.056 101.827 141.014 102.598 140.755C103.37 140.496 102.682 138.282 101.827 137.6C101.446 137.299 99.6065 136.406 97.6673 135.498C97.6673 135.498 99.5873 137.05 98.8801 137.27C95.1425 138.432 82.4001 135.843 78.3457 134.973Z" fill="#C2C7D6"/>
<path d="M49.6766 79.2416H57.7022L59.971 83.92C59.971 83.92 80.1534 83.8048 85.571 89.8208C92.1662 97.1808 92.531 129.469 92.531 129.469H78.179C78.179 129.469 76.0158 103.299 74.339 101.117C72.6622 98.9344 53.3566 99.568 48.1182 94.9312C43.251 90.6208 45.6158 78.064 45.2382 79.2512L49.6766 79.2416Z" fill="#EB9481"/>
<path d="M83.3597 147.738C82.5501 147.827 60.9757 143.206 60.2653 142.509C59.9933 142.246 60.4829 139.066 61.1837 135.238C61.3373 134.413 61.5037 133.558 61.6669 132.694C62.7549 127.078 64.0413 121.146 64.0413 121.146L78.4829 124.195L75.7085 135.661L75.1037 138.179C75.1037 138.179 82.5725 143.642 83.2701 144.49C83.9677 145.338 84.1597 147.648 83.3597 147.738Z" fill="#EB9481"/>
<path d="M64.0413 121.146C64.0413 121.146 62.7613 127.078 61.6669 132.694C61.4973 133.562 61.3469 134.413 61.1869 135.238C61.0749 135.83 60.9757 136.403 60.8669 136.96C60.3389 139.981 60.0221 142.288 60.2525 142.509C60.9629 143.206 82.5373 147.827 83.3469 147.738C84.1565 147.648 83.9517 145.338 83.2573 144.493C82.9373 144.118 81.3373 142.854 79.6317 141.558C77.4461 139.901 75.0973 138.182 75.0973 138.182L75.7053 135.664L78.4765 124.198L64.0413 121.146Z" fill="#EB9481"/>
<path d="M60.8801 136.96C60.3521 139.981 60.0353 142.288 60.2657 142.509C60.9761 143.206 82.5505 147.827 83.3601 147.738C84.1697 147.648 83.9649 145.338 83.2705 144.493C82.9505 144.118 81.3505 142.854 79.6449 141.558C79.6449 141.558 81.1969 143.478 80.4545 143.549C76.5633 143.894 64.6593 138.669 60.8801 136.96Z" fill="#C2C7D6"/>
<path d="M76.5056 132.374L62.272 129.635C62.272 129.635 68.0576 102.669 67.0048 101.315C65.2736 99.0752 50.5216 99.4144 44.016 94.9152C38.7328 91.248 43.0784 79.2352 43.0784 79.2352H57.136C57.136 79.2352 58.5216 82.0608 58.864 83.3792C58.864 83.3792 75.52 86.7392 81.0528 92.1632C86.7584 97.76 76.5056 132.374 76.5056 132.374Z" fill="#EB9481"/>
<path d="M82.2398 93.7536C81.7488 92.6551 80.9869 91.6994 80.0255 90.976C79.0488 90.2646 77.9866 89.6787 76.8638 89.232C76.5918 89.1136 76.3134 88.9984 76.0382 88.8832C75.971 88.8544 75.9166 88.9504 75.9838 88.9824C78.0734 90.0448 80.3326 91.1872 81.4942 93.3216C82.6558 95.456 82.5598 98.0896 82.4158 100.464C82.243 103.344 81.9039 106.205 81.4559 109.053C81.0079 111.901 80.4959 114.71 79.8911 117.523C79.2863 120.336 78.6751 123.171 78.0671 125.997C77.9903 126.349 77.9294 126.704 77.8526 127.056C77.8526 127.088 77.8943 127.101 77.9007 127.056C78.6623 124.214 79.4398 121.382 80.099 118.518C80.7582 115.654 81.3439 112.806 81.8367 109.926C82.3295 107.046 82.6911 104.128 82.8927 101.206C83.0783 98.752 83.2638 96.08 82.2398 93.7536Z" fill="#263238"/>
<path d="M64.8895 100.413C65.5295 100.477 65.2735 87.0048 76.8735 89.5328C76.8735 89.5328 77.5775 88.1024 78.5567 87.712C80.7167 86.8512 82.1887 87.6096 82.1887 87.4816C82.1887 87.3536 80.1663 84.8544 68.7487 83.6128C64.8383 83.1872 61.8463 82.9984 60.8863 82.4672C60.2175 82.096 57.9327 79.2416 57.9327 79.2416H43.0687C43.0687 79.2416 40.5535 85.36 41.3887 90.7328C42.2239 96.1056 50.1247 98.928 64.8895 100.413Z" fill="#C2C7D6"/>
<path d="M74.2397 87.44C71.0465 86.8706 67.8001 86.6559 64.5597 86.8C63.6285 86.848 62.7037 86.9376 61.7789 87.024C61.7469 87.024 61.7469 87.0752 61.7789 87.0752C63.3789 86.9888 65.0013 86.9952 66.6077 87.0144C68.2141 87.0336 69.8269 87.104 71.4301 87.232C72.3645 87.3056 73.2957 87.3792 74.2301 87.4816C74.2328 87.4822 74.2356 87.4823 74.2384 87.4818C74.2412 87.4814 74.2438 87.4804 74.2462 87.4789C74.2486 87.4774 74.2506 87.4755 74.2523 87.4732C74.2539 87.4709 74.2551 87.4683 74.2557 87.4656C74.2563 87.4629 74.2564 87.46 74.2559 87.4573C74.2555 87.4545 74.2545 87.4518 74.253 87.4495C74.2515 87.4471 74.2496 87.445 74.2473 87.4434C74.245 87.4418 74.2424 87.4406 74.2397 87.44Z" fill="#263238"/>
<path d="M73.2801 86.256C72.3969 86.256 71.5169 86.256 70.6369 86.304C69.7569 86.352 68.8801 86.464 68.0033 86.5696C67.9994 86.5681 67.9952 86.5677 67.9911 86.5682C67.987 86.5687 67.9831 86.5702 67.9797 86.5726C67.9763 86.5749 67.9736 86.5781 67.9717 86.5817C67.9697 86.5854 67.9688 86.5895 67.9688 86.5936C67.9688 86.5977 67.9697 86.6018 67.9717 86.6054C67.9736 86.6091 67.9763 86.6122 67.9797 86.6146C67.9831 86.617 67.987 86.6185 67.9911 86.619C67.9952 86.6195 67.9994 86.619 68.0033 86.6176C68.8769 86.5312 69.7601 86.4896 70.6369 86.4384C71.5137 86.3872 72.3969 86.3328 73.2769 86.2976C73.3153 86.2944 73.3153 86.256 73.2801 86.256Z" fill="#263238"/>
<path d="M57.9423 79.2416L42.9951 79.312C42.9951 79.312 45.7279 67.696 49.5999 63.44C51.3599 61.4976 53.1199 61.7632 54.6175 62.9728C54.9919 63.2736 59.3599 68.6976 59.7375 71.4016C59.9967 73.2096 58.2687 74.8256 58.2687 74.8256L57.9423 79.2416Z" fill="#C2C7D6"/>
<path d="M57.075 74.7424C56.3219 74.908 55.6016 75.1978 54.9438 75.6C54.6238 75.792 54.2782 75.9904 53.955 76.1984C53.6318 76.4064 53.2766 76.6528 52.9182 76.8384C52.8894 76.8384 52.9182 76.896 52.947 76.8832C53.2894 76.7104 53.6382 76.5632 53.9774 76.3648C54.3166 76.1664 54.643 75.9744 54.979 75.7856C55.6452 75.381 56.352 75.0475 57.0878 74.7904C57.1102 74.7712 57.0974 74.7392 57.075 74.7424Z" fill="#263238"/>
<path d="M57.6864 75.3856C56.7264 75.4144 55.8752 75.8048 55.0176 76.1696C54.9888 76.1696 55.0016 76.2304 55.0176 76.2176C55.8605 75.8338 56.7537 75.5719 57.6704 75.44C57.7216 75.4336 57.7216 75.3856 57.6864 75.3856Z" fill="#263238"/>
<path d="M52.1406 63.0784C52.2078 63.4176 53.7406 65.6384 55.2862 65.6384C55.7854 65.6384 55.859 62.8896 55.859 62.8896L55.9102 62.688L56.6302 59.8784L53.3694 57.6384L52.899 57.3408C52.899 57.3408 52.7518 58.1216 52.579 59.0976C52.579 59.1456 52.563 59.1904 52.5534 59.2384C52.5438 59.2864 52.531 59.344 52.5246 59.3952C52.4958 59.5424 52.4702 59.6896 52.4446 59.84C52.419 59.9904 52.4062 60.0608 52.3902 60.1824C52.3742 60.304 52.355 60.416 52.339 60.5376C52.2141 61.3789 52.1478 62.2279 52.1406 63.0784Z" fill="#EB9481"/>
<path d="M52.5791 59.088C52.8405 59.892 53.274 60.6293 53.8493 61.2488C54.4245 61.8683 55.1279 62.3551 55.9103 62.6752L56.6303 59.8656L53.3695 57.6256L52.8991 57.328C52.8991 57.328 52.7519 58.112 52.5791 59.088Z" fill="#263238"/>
<path d="M60.5153 54.8704C61.6481 59.8368 58.8001 61.0752 57.7281 61.3184C56.7681 61.5392 53.4145 62.1664 51.7761 57.3408C50.1377 52.5152 52.0961 50.4192 54.2881 49.7984C56.4801 49.1776 59.3825 49.9008 60.5153 54.8704Z" fill="#EB9481"/>
<path d="M59.84 54.1216C59.7228 54.128 59.6053 54.128 59.488 54.1216C59.3641 54.1379 59.2382 54.1131 59.1296 54.0512C59.0983 54.0256 59.0767 53.99 59.0686 53.9503C59.0604 53.9107 59.0661 53.8695 59.0848 53.8336C59.13 53.7674 59.1921 53.7146 59.2648 53.6808C59.3375 53.647 59.4179 53.6334 59.4976 53.6416C59.6611 53.6326 59.8221 53.6851 59.9488 53.7888C59.9762 53.8137 59.9957 53.846 60.0051 53.8817C60.0146 53.9175 60.0135 53.9552 60.002 53.9903C59.9905 54.0255 59.9691 54.0566 59.9404 54.0799C59.9116 54.1031 59.8768 54.1176 59.84 54.1216Z" fill="#263238"/>
<path d="M56.56 54.9024C56.6752 54.864 56.7744 54.8096 56.88 54.7616C57.0001 54.7283 57.1058 54.6563 57.1808 54.5568C57.1984 54.5207 57.2035 54.4797 57.1954 54.4404C57.1873 54.401 57.1664 54.3655 57.136 54.3392C57.0673 54.2984 56.9888 54.2768 56.9088 54.2768C56.8289 54.2768 56.7504 54.2984 56.6816 54.3392C56.5252 54.3953 56.3966 54.51 56.3232 54.6592C56.3125 54.6924 56.3111 54.7279 56.319 54.7619C56.327 54.7959 56.344 54.8271 56.3684 54.8521C56.3928 54.8771 56.4235 54.895 56.4572 54.9039C56.491 54.9127 56.5265 54.9122 56.56 54.9024Z" fill="#263238"/>
<path d="M57.5165 55.8496C57.5165 55.8496 57.4941 55.872 57.4973 55.888C57.5869 56.208 57.6317 56.6208 57.3501 56.8032C57.3501 56.8032 57.3501 56.8256 57.3501 56.8224C57.7181 56.6848 57.6541 56.1536 57.5165 55.8496Z" fill="#263238"/>
<path d="M57.1326 55.568C56.579 55.6512 56.787 56.752 57.299 56.672C57.811 56.592 57.5998 55.4976 57.1326 55.568Z" fill="#263238"/>
<path d="M56.9278 55.664C56.8446 55.7472 56.771 55.872 56.6558 55.9072C56.5406 55.9424 56.403 55.8496 56.2942 55.7536C56.2942 55.7536 56.275 55.7536 56.2942 55.7696C56.3294 55.984 56.451 56.1824 56.6846 56.1728C56.9182 56.1632 57.0046 55.9488 57.0046 55.7248C57.0078 55.6832 56.9598 55.632 56.9278 55.664Z" fill="#263238"/>
<path d="M59.3249 55.44C59.3249 55.44 59.3537 55.44 59.3569 55.4656C59.4049 55.808 59.5233 56.1952 59.8529 56.2528V56.272C59.4657 56.2912 59.3185 55.7792 59.3249 55.44Z" fill="#263238"/>
<path d="M59.5648 55.0368C60.1056 54.896 60.3489 55.9968 59.8464 56.1184C59.344 56.24 59.1104 55.152 59.5648 55.0368Z" fill="#263238"/>
<path d="M59.8078 55.056C59.907 55.0944 60.0158 55.1808 60.1278 55.1648C60.2398 55.1488 60.3102 55.0112 60.3614 54.88C60.3614 54.88 60.3614 54.88 60.3806 54.88C60.435 55.088 60.4126 55.3216 60.2206 55.408C60.0286 55.4944 59.8718 55.3344 59.7758 55.136C59.7502 55.12 59.7694 55.04 59.8078 55.056Z" fill="#263238"/>
<path d="M57.9455 58.6656C58.0415 58.7328 58.1375 58.832 58.2655 58.8256C58.3923 58.8051 58.5133 58.7583 58.6207 58.688H58.6399C58.605 58.7659 58.5491 58.8327 58.4785 58.8807C58.4078 58.9287 58.3253 58.9562 58.2399 58.96C58.1662 58.9527 58.0963 58.9235 58.0392 58.8762C57.9822 58.8289 57.9406 58.7655 57.9199 58.6944C57.9199 58.6656 57.9199 58.656 57.9455 58.6656Z" fill="#263238"/>
<path d="M59.1229 57.1488C59.1229 57.1488 59.2957 57.6448 59.3437 57.8848C59.3437 57.9072 59.2925 57.9296 59.2093 57.9488C59.0112 58.0274 58.7953 58.0499 58.5853 58.0138C58.3753 57.9777 58.1793 57.8843 58.0189 57.744C57.9965 57.7248 58.0189 57.6928 58.0477 57.7056C58.3958 57.8515 58.7813 57.8828 59.1485 57.7952C59.1485 57.7248 58.8285 56.9568 58.8637 56.9472C59.0517 56.9219 59.2421 56.9219 59.4301 56.9472C59.1101 55.9104 58.6109 54.9312 58.2973 53.8912C58.2962 53.8837 58.2976 53.8761 58.3011 53.8695C58.3047 53.8629 58.3103 53.8576 58.3171 53.8543C58.3239 53.8511 58.3315 53.8502 58.3389 53.8516C58.3463 53.8531 58.353 53.8568 58.3581 53.8624C58.9179 54.8951 59.3735 55.981 59.7181 57.104C59.7565 57.2512 59.2253 57.1712 59.1229 57.1488Z" fill="#263238"/>
<path d="M59.0143 57.904C58.9177 58.0952 58.7747 58.2592 58.5983 58.3808C58.5025 58.4405 58.3912 58.4705 58.2783 58.4672C58.0223 58.4512 57.9583 58.2304 57.9807 58.032C57.9857 57.9237 58.0029 57.8164 58.0319 57.712C58.3304 57.8794 58.6747 57.9467 59.0143 57.904Z" fill="#263238"/>
<path d="M58.5983 58.3808C58.5025 58.4405 58.3912 58.4706 58.2783 58.4672C58.0223 58.4512 57.9583 58.2304 57.9807 58.032C58.1079 58.0123 58.238 58.036 58.35 58.0993C58.462 58.1626 58.5495 58.2617 58.5983 58.3808Z" fill="#FF9CBD"/>
<path d="M52.0512 57.6448C52.3473 57.444 52.5862 57.1698 52.7444 56.8489C52.9026 56.528 52.9747 56.1715 52.9535 55.8144C53.7648 55.3068 54.4272 54.5936 54.8735 53.7472C54.8543 53.856 54.7199 54.6272 54.6399 55.0272C57.7023 53.984 58.3295 51.4336 58.3295 51.4336C59.012 51.8998 59.5798 52.5146 59.9903 53.232C59.9903 53.232 59.7343 51.296 58.5535 50.1472C57.1103 48.7392 52.9439 48.9056 51.3439 51.2448C49.6255 53.76 52.0512 57.6448 52.0512 57.6448Z" fill="#263238"/>
<path d="M56.9598 54.16C56.4939 54.5098 55.9783 54.7881 55.4302 54.9856C56.2797 54.6147 57.0097 54.0154 57.539 53.2544C57.763 52.93 57.9447 52.5783 58.0798 52.208C58.2436 51.8079 58.3274 51.3795 58.3262 50.9472C58.3247 50.9433 58.3242 50.9391 58.3248 50.935C58.3253 50.9309 58.3268 50.927 58.3291 50.9236C58.3315 50.9203 58.3346 50.9175 58.3383 50.9156C58.342 50.9137 58.346 50.9127 58.3502 50.9127C58.3543 50.9127 58.3584 50.9137 58.362 50.9156C58.3657 50.9175 58.3688 50.9203 58.3712 50.9236C58.3735 50.927 58.375 50.9309 58.3756 50.935C58.3761 50.9391 58.3756 50.9433 58.3742 50.9472C58.4216 51.3748 58.3978 51.8073 58.3038 52.2272C58.1913 52.6377 58.0059 53.0246 57.7566 53.3696C57.5291 53.6689 57.2609 53.9349 56.9598 54.16Z" fill="#263238"/>
<path d="M52.1822 59.1744C52.2617 59.1941 52.3434 59.2038 52.4254 59.2032C52.5062 59.2066 52.5871 59.198 52.6654 59.1776C52.7655 59.1525 52.8592 59.1067 52.9406 59.0432C53.0059 58.9939 53.0641 58.9357 53.1134 58.8704C53.1833 58.7742 53.2344 58.6656 53.2638 58.5504L52.7998 57.2384C52.7998 57.2384 51.4782 55.8176 50.819 56.3072C50.1598 56.7968 51.299 58.9792 52.1822 59.1744Z" fill="#EB9481"/>
<path d="M51.1616 56.9312C51.1616 56.9312 51.1616 56.9504 51.1616 56.9536C51.7824 57.1104 52.1664 57.6128 52.4608 58.1504C52.4187 58.0958 52.3652 58.051 52.3041 58.0192C52.2429 57.9875 52.1755 57.9694 52.1066 57.9664C52.0378 57.9633 51.9691 57.9753 51.9053 58.0016C51.8416 58.0278 51.7844 58.0677 51.7376 58.1184C51.7376 58.1184 51.7376 58.1536 51.76 58.1472C51.8589 58.1003 51.9699 58.0852 52.0776 58.1041C52.1854 58.1231 52.2846 58.175 52.3616 58.2528C52.4912 58.3826 52.606 58.5264 52.704 58.6816C52.7392 58.7296 52.8288 58.6816 52.8 58.6304C52.7072 57.8656 51.9776 56.896 51.1616 56.9312Z" fill="#263238"/>
<path d="M52.2241 58.96C52.2451 59.0188 52.2885 59.067 52.3448 59.0939C52.4012 59.1209 52.4659 59.1245 52.5249 59.104C52.5568 59.0959 52.5867 59.0813 52.6126 59.061C52.6386 59.0408 52.66 59.0153 52.6755 58.9863C52.6911 58.9573 52.7004 58.9254 52.7029 58.8926C52.7055 58.8597 52.7011 58.8268 52.6902 58.7957C52.6792 58.7647 52.6619 58.7362 52.6394 58.7123C52.6168 58.6883 52.5895 58.6692 52.5592 58.6564C52.5289 58.6436 52.4963 58.6372 52.4634 58.6377C52.4305 58.6381 52.398 58.6455 52.3681 58.6592C52.3093 58.6802 52.2611 58.7236 52.2342 58.78C52.2072 58.8363 52.2036 58.901 52.2241 58.96Z" fill="white"/>
<path d="M51.6958 58.6656C51.7026 58.6864 51.7135 58.7056 51.7279 58.7221C51.7423 58.7386 51.7599 58.752 51.7796 58.7616C51.7993 58.7711 51.8208 58.7766 51.8427 58.7777C51.8645 58.7788 51.8864 58.7755 51.907 58.768C51.9494 58.7535 51.9844 58.7228 52.0042 58.6826C52.024 58.6424 52.027 58.596 52.0126 58.5536C51.9981 58.5111 51.9674 58.4762 51.9272 58.4564C51.887 58.4366 51.8406 58.4335 51.7982 58.448C51.7766 58.4547 51.7566 58.4658 51.7396 58.4807C51.7225 58.4956 51.7088 58.5138 51.6991 58.5343C51.6895 58.5547 51.6842 58.5769 51.6836 58.5995C51.6831 58.6222 51.6872 58.6446 51.6958 58.6656Z" fill="white"/>
<path d="M48.5758 64.9056C45.8206 69.8944 42.4446 76.976 43.2574 79.4112C43.8526 81.1936 52.1854 86.7136 54.8414 88.3712C55.8014 88.9664 60.8574 82.7712 59.907 82.0384C58.6718 81.0784 49.9326 76.2144 49.9454 75.4784C49.9454 75.0624 51.171 68.7584 51.5678 65.9744C52.3102 60.768 49.5422 63.1584 48.5758 64.9056Z" fill="#EB9481"/>
<path d="M57.7438 80.8864C57.7438 80.8864 60.9438 81.0656 63.0366 81.2832C64.2014 81.4048 66.179 81.7888 66.995 82.2688C68.2142 82.9888 72.8574 86.7712 71.9646 87.9168C71.155 88.9536 67.5806 85.1968 67.5806 85.1968C67.5806 85.1968 71.523 88.6688 70.3198 89.7376C69.1166 90.8064 65.6414 86.0256 65.6414 86.0256C65.6414 86.0256 69.6126 89.6832 68.2014 90.592C67.1294 91.28 63.7374 87.12 63.7374 87.12C63.7374 87.12 67.1294 90.288 66.0606 91.04C64.8766 91.8688 61.507 88.2304 61.507 88.2304C58.467 89.6864 55.5422 88.9632 54.8414 88.3712C54.5598 88.1376 57.7438 80.8864 57.7438 80.8864Z" fill="#EB9481"/>
<path d="M66.2945 83.92C66.7713 84.3136 67.2545 84.704 67.6993 85.136C68.1441 85.568 68.5665 86.0192 68.9793 86.4896C69.513 87.0951 69.9758 87.7597 70.3585 88.4704C69.5873 87.2576 68.0321 85.6864 67.5905 85.2544C67.1489 84.8224 66.7297 84.368 66.2881 83.9392C66.2657 83.92 66.2817 83.9008 66.2945 83.92Z" fill="#263238"/>
<path d="M64.7037 85.4752C65.2925 86 65.8941 86.5024 66.4605 87.0528C67.0269 87.6032 67.5101 88.1728 68.0349 88.7584C68.0733 88.8032 68.0349 88.8128 67.9933 88.7584C67.4461 88.192 66.8989 87.712 66.3453 87.1584C65.7917 86.6048 65.2605 86.016 64.6909 85.4816L64.7037 85.4752Z" fill="#263238"/>
<path d="M63.0975 86.5728C64.0194 87.3581 64.858 88.2363 65.5999 89.1936C65.6383 89.2384 65.5999 89.2416 65.5487 89.1936C64.7327 88.3072 64.0991 87.5936 63.0719 86.6016C63.0559 86.592 63.0783 86.5568 63.0975 86.5728Z" fill="#263238"/>
<path d="M58.1441 80.72L52.7329 87.44C52.7329 87.44 43.3377 81.8368 42.7873 78.8288C42.1249 75.2352 46.5345 67.808 48.7201 64.5408C50.9057 61.2736 52.4993 62.4832 51.7825 66.5184C51.0657 70.5536 50.0513 75.3728 50.3297 75.6128C50.6081 75.8528 58.1441 80.72 58.1441 80.72Z" fill="#DBDBDB"/>
<path d="M51.4941 85.9072C52.3581 84.9696 55.7533 81.0112 56.4285 80.1056C56.4733 80.0448 56.4285 80 56.3869 80.0576C54.6338 81.9002 52.9874 83.8415 51.4557 85.872C51.4365 85.8944 51.4717 85.9296 51.4941 85.9072Z" fill="#263238"/>
<path d="M44.5249 71.2704L51.7089 70.3712C51.7089 70.3712 52.1313 66.7552 52.0833 64.7232C52.0225 62.032 51.0081 61.4272 48.8833 63.9584C47.4817 65.6544 44.5249 71.2704 44.5249 71.2704Z" fill="#C2C7D6"/>
<path d="M50.998 70.48C51.2284 70.4293 51.4613 70.3909 51.6957 70.3648C51.7373 69.9392 51.7693 69.5104 51.8141 69.0848C51.8365 68.8736 51.8621 68.6592 51.8909 68.4448C51.9197 68.2304 51.9453 67.9424 51.9741 67.7376C51.9741 67.7056 52.0189 67.7056 52.0189 67.7376C52.0189 68.0096 51.9933 68.2112 51.9837 68.448C51.9837 68.6144 51.9645 68.768 51.9517 68.9472C51.9517 68.9056 51.9805 68.864 51.9933 68.8224C52.0637 68.5984 52.1533 68.384 52.2141 68.1568C52.2127 68.1534 52.2122 68.1497 52.2126 68.146C52.213 68.1424 52.2143 68.1389 52.2163 68.1359C52.2184 68.1329 52.2211 68.1304 52.2244 68.1287C52.2276 68.1269 52.2312 68.126 52.2349 68.126C52.2385 68.126 52.2421 68.1269 52.2454 68.1287C52.2486 68.1304 52.2514 68.1329 52.2534 68.1359C52.2555 68.1389 52.2567 68.1424 52.2571 68.146C52.2575 68.1497 52.257 68.1534 52.2557 68.1568C52.1885 68.3808 52.1469 68.6112 52.0829 68.8384C52.0425 69.0122 51.988 69.1823 51.9197 69.3472C51.8941 69.7056 51.9037 70.112 51.8557 70.464C51.5717 70.4917 51.2862 70.4991 51.0013 70.4864L50.998 70.48Z" fill="#263238"/>
<path d="M45.1676 70.496C46.2044 70.2944 47.2412 70.1056 48.2876 69.9648C48.8092 69.8944 50.9116 69.7184 51.4332 69.6448C51.462 69.6448 51.4653 69.6832 51.4332 69.6896C50.7932 69.8272 48.726 70.0896 48.2044 70.16C47.1612 70.2976 46.2076 70.368 45.1676 70.528C45.142 70.5472 45.142 70.5024 45.1676 70.496Z" fill="#263238"/>
<path d="M30.5919 87.9072C31.5374 87.9072 32.3039 87.1407 32.3039 86.1952C32.3039 85.2497 31.5374 84.4832 30.5919 84.4832C29.6464 84.4832 28.8799 85.2497 28.8799 86.1952C28.8799 87.1407 29.6464 87.9072 30.5919 87.9072Z" fill="#37474F"/>
<path d="M30.592 87.0816C31.0815 87.0816 31.4784 86.6847 31.4784 86.1952C31.4784 85.7056 31.0815 85.3088 30.592 85.3088C30.1024 85.3088 29.7056 85.7056 29.7056 86.1952C29.7056 86.6847 30.1024 87.0816 30.592 87.0816Z" fill="#455A64"/>
<path d="M54.6975 105.251C54.6975 105.59 54.5969 105.922 54.4084 106.204C54.2199 106.486 53.9521 106.706 53.6387 106.836C53.3253 106.966 52.9804 107 52.6477 106.933C52.315 106.867 52.0093 106.704 51.7695 106.464C51.5296 106.224 51.3662 105.919 51.3 105.586C51.2339 105.253 51.2678 104.908 51.3977 104.595C51.5275 104.281 51.7473 104.014 52.0294 103.825C52.3114 103.637 52.6431 103.536 52.9823 103.536C53.4372 103.536 53.8735 103.717 54.1951 104.038C54.5168 104.36 54.6975 104.796 54.6975 105.251Z" fill="#37474F"/>
<path d="M52.9821 106.138C53.4717 106.138 53.8685 105.741 53.8685 105.251C53.8685 104.762 53.4717 104.365 52.9821 104.365C52.4926 104.365 52.0957 104.762 52.0957 105.251C52.0957 105.741 52.4926 106.138 52.9821 106.138Z" fill="#455A64"/>
<path d="M52.387 105.494L44.7038 86.8416H30.5918V85.5488H45.571L53.5806 105.005L52.387 105.494Z" fill="#455A64"/>
<path d="M59.1904 99.9648H57.0176L59.648 94.3232H61.8208L59.1904 99.9648Z" fill="#A6A6A6"/>
<path d="M65.9198 91.6H59.6126C59.6126 91.6 59.7406 95.392 56.9214 95.392C56.543 95.4104 56.1673 95.3194 55.8392 95.1299C55.5112 94.9403 55.2448 94.6602 55.0718 94.3232C55.0718 94.3232 56.1118 96.528 58.0222 96.528H62.2046C63.3406 96.5408 65.7054 95.76 65.9198 91.6Z" fill="#A6A6A6"/>
<path d="M54.4253 91.6H60.7453C60.7453 91.6 60.6173 95.392 63.4365 95.392C63.8149 95.4104 64.1906 95.3194 64.5186 95.1299C64.8467 94.9403 65.1131 94.6602 65.2861 94.3232C65.2861 94.3232 64.2461 96.528 62.3357 96.528H58.1533C57.0173 96.5408 54.6525 95.76 54.4253 91.6Z" fill="#C7C7C7"/>
<path d="M50.3325 109.446C50.7089 109.446 51.0141 109.141 51.0141 108.765C51.0141 108.388 50.7089 108.083 50.3325 108.083C49.956 108.083 49.6509 108.388 49.6509 108.765C49.6509 109.141 49.956 109.446 50.3325 109.446Z" fill="#C7C7C7"/>
<path d="M50.579 108.918L50.083 108.611L56.3934 98.3904H58.2078V98.976H56.7198L50.579 108.918Z" fill="#A6A6A6"/>
<path d="M75.8404 50.48C75.7247 51.5361 75.3191 52.5396 74.6686 53.3796C74.0181 54.2196 73.148 54.8633 72.1544 55.2396C71.1608 55.6158 70.0825 55.7099 69.0388 55.5115C67.9951 55.313 67.0265 54.8298 66.2404 54.1152L63.3604 54.5376L64.7972 52.0512C64.4598 51.2395 64.3126 50.3613 64.367 49.484C64.4214 48.6066 64.6759 47.7533 65.111 46.9895C65.546 46.2257 66.1502 45.5716 66.8771 45.0773C67.604 44.583 68.4344 44.2616 69.3046 44.1378C70.1749 44.014 71.062 44.091 71.8979 44.3629C72.7338 44.6349 73.4964 45.0945 74.1272 45.7067C74.7581 46.3189 75.2405 47.0673 75.5374 47.8947C75.8343 48.722 75.938 49.6064 75.8404 50.48Z" fill="white"/>
<path d="M75.8402 50.48C75.7307 51.5391 75.3297 52.5471 74.6818 53.392C74.521 53.6035 74.3468 53.8044 74.1602 53.9936C73.9691 54.1763 73.7672 54.3473 73.5554 54.5056C73.1314 54.8272 72.6638 55.0868 72.1666 55.2768C71.6714 55.4724 71.1511 55.5974 70.621 55.648C70.3547 55.6672 70.0874 55.6672 69.821 55.648C69.5547 55.6437 69.2892 55.617 69.0274 55.568C67.9675 55.3719 66.9827 54.8856 66.1826 54.1632L66.253 54.1824L63.373 54.624L63.165 54.656L63.2706 54.4736L64.701 51.984V52.08C64.3633 51.2567 64.2194 50.3668 64.2805 49.479C64.3415 48.5912 64.6058 47.7294 65.053 46.96C65.5021 46.1931 66.1178 45.5369 66.8546 45.04C67.59 44.552 68.4265 44.2372 69.3011 44.1191C70.1758 44.001 71.0658 44.0829 71.9042 44.3584C72.7354 44.6411 73.493 45.1058 74.1218 45.7184C74.751 46.3295 75.2327 47.0759 75.5305 47.9009C75.8282 48.726 75.9341 49.608 75.8402 50.48ZM75.8402 50.48C75.9335 49.6145 75.8264 48.7391 75.5273 47.9216C75.2282 47.104 74.7451 46.3662 74.1153 45.7652C73.4855 45.1642 72.7259 44.7161 71.8953 44.4555C71.0647 44.1949 70.1853 44.1288 69.325 44.2624C68.4721 44.3884 67.6596 44.7093 66.9506 45.2C66.2478 45.6921 65.6612 46.3322 65.2322 47.0752C64.8075 47.82 64.558 48.6517 64.5026 49.5072C64.4496 50.3609 64.5873 51.2158 64.9058 52.0096L64.9282 52.0608L64.8994 52.1088L63.453 54.5888L63.3506 54.4352L66.2306 54.032H66.2722L66.2978 54.0576C67.066 54.7761 68.0188 55.2669 69.0498 55.4752C69.3072 55.5268 69.5683 55.5578 69.8306 55.568C70.0927 55.5872 70.3558 55.5872 70.6178 55.568C71.141 55.5319 71.6567 55.4242 72.1506 55.248C72.6475 55.0672 73.1153 54.815 73.5394 54.4992C73.7503 54.3421 73.9522 54.1733 74.1442 53.9936C74.3307 53.8066 74.5049 53.6078 74.6658 53.3984C75.3226 52.5546 75.7295 51.5435 75.8402 50.48Z" fill="#263238"/>
<path d="M68.1603 49.888C68.1603 49.9956 68.1284 50.1008 68.0686 50.1902C68.0088 50.2797 67.9239 50.3494 67.8244 50.3906C67.725 50.4318 67.6157 50.4425 67.5101 50.4215C67.4046 50.4006 67.3077 50.3487 67.2316 50.2727C67.1555 50.1966 67.1037 50.0997 67.0827 49.9941C67.0617 49.8886 67.0725 49.7792 67.1137 49.6798C67.1548 49.5804 67.2246 49.4955 67.314 49.4357C67.4035 49.3759 67.5087 49.344 67.6163 49.344C67.7605 49.344 67.8989 49.4013 68.0009 49.5033C68.103 49.6054 68.1603 49.7437 68.1603 49.888Z" fill="#263238"/>
<path d="M70.6754 49.888C70.6754 49.9956 70.6435 50.1008 70.5837 50.1902C70.5239 50.2797 70.439 50.3494 70.3396 50.3906C70.2402 50.4318 70.1308 50.4425 70.0253 50.4215C69.9198 50.4006 69.8228 50.3487 69.7467 50.2727C69.6707 50.1966 69.6188 50.0997 69.5979 49.9941C69.5769 49.8886 69.5876 49.7792 69.6288 49.6798C69.67 49.5804 69.7397 49.4955 69.8292 49.4357C69.9186 49.3759 70.0238 49.344 70.1314 49.344C70.2757 49.344 70.414 49.4013 70.5161 49.5033C70.6181 49.6054 70.6754 49.7437 70.6754 49.888Z" fill="#263238"/>
<path d="M73.1971 49.888C73.2003 49.9957 73.1714 50.1019 73.1141 50.1931C73.0569 50.2843 72.9738 50.3565 72.8755 50.4005C72.7771 50.4444 72.668 50.4582 72.5618 50.4401C72.4556 50.422 72.3572 50.3727 72.2791 50.2986C72.2009 50.2245 72.1465 50.1288 72.1228 50.0238C72.099 49.9187 72.107 49.809 72.1457 49.7084C72.1844 49.6079 72.252 49.5211 72.3401 49.4591C72.4282 49.3971 72.5327 49.3626 72.6403 49.36C72.7841 49.3566 72.9234 49.4102 73.0277 49.5091C73.132 49.6081 73.193 49.7443 73.1971 49.888Z" fill="#263238"/>
</svg>
