<svg width="64" height="64" viewBox="0 0 64 64" fill="none" xmlns="http://www.w3.org/2000/svg">
<path d="M0 4C0 1.79086 1.79086 0 4 0H60C62.2091 0 64 1.79086 64 4V60C64 62.2091 62.2091 64 60 64H4C1.79086 64 0 62.2091 0 60V4Z" fill="white"/>
<path d="M16.6309 14.5951H24.4303C24.6839 14.5951 24.8891 14.3897 24.8891 14.1363C24.8891 13.883 24.6839 13.6776 24.4303 13.6776H16.6309C16.3773 13.6776 16.1721 13.883 16.1721 14.1363C16.1721 14.3897 16.3773 14.5951 16.6309 14.5951Z" fill="#C2C7D6"/>
<path d="M12.043 17.3478H24.4303C24.6839 17.3478 24.8891 17.1424 24.8891 16.889C24.8891 16.6357 24.6839 16.4302 24.4303 16.4302H12.043C11.7894 16.4302 11.5842 16.6357 11.5842 16.889C11.5842 17.1424 11.7894 17.3478 12.043 17.3478Z" fill="#C2C7D6"/>
<path d="M24.4303 19.1829H16.6309C16.3773 19.1829 16.1721 19.3884 16.1721 19.6417C16.1721 19.895 16.3773 20.1005 16.6309 20.1005H24.4303C24.6839 20.1005 24.8891 19.895 24.8891 19.6417C24.8891 19.3884 24.6839 19.1829 24.4303 19.1829Z" fill="#C2C7D6"/>
<path d="M15.2546 38.9108C15.2546 39.1642 15.4598 39.3696 15.7134 39.3696H23.5128C23.7664 39.3696 23.9716 39.1642 23.9716 38.9108C23.9716 38.6575 23.7664 38.452 23.5128 38.452H15.7134C15.4598 38.452 15.2546 38.6575 15.2546 38.9108Z" fill="#C2C7D6"/>
<path d="M11.1255 42.1224H23.5128C23.7664 42.1224 23.9716 41.917 23.9716 41.6636C23.9716 41.4103 23.7664 41.2048 23.5128 41.2048H11.1255C10.8719 41.2048 10.6667 41.4103 10.6667 41.6636C10.6667 41.917 10.8719 42.1224 11.1255 42.1224Z" fill="#C2C7D6"/>
<path d="M23.9716 44.4163C23.9716 44.163 23.7664 43.9575 23.5128 43.9575H15.7134C15.4598 43.9575 15.2546 44.163 15.2546 44.4163C15.2546 44.6696 15.4598 44.8751 15.7134 44.8751H23.5128C23.7664 44.8751 23.9716 44.6696 23.9716 44.4163Z" fill="#C2C7D6"/>
<path d="M31.5945 30.6352C31.6532 30.6468 31.7132 30.6526 31.7728 30.6526C32.2092 30.6526 32.5869 30.3415 32.6711 29.9125C32.7693 29.4158 32.4449 28.9326 31.948 28.8345C31.8898 28.8231 31.8293 28.8173 31.7697 28.8173C31.3337 28.8173 30.956 29.1286 30.8714 29.5576C30.7737 30.0541 31.0981 30.5372 31.5945 30.6352Z" fill="#C2C7D6"/>
<path d="M35.6702 15.9715C35.8095 15.9715 35.9395 15.9099 36.0269 15.8021C36.1864 15.6059 36.1564 15.3162 35.9597 15.1563C35.8557 15.0718 35.7464 15.0541 35.6725 15.0541C35.5331 15.0541 35.4028 15.116 35.3154 15.2237C35.1559 15.42 35.1859 15.7094 35.3821 15.8687C35.4865 15.9538 35.5963 15.9715 35.6702 15.9715Z" fill="#C2C7D6"/>
<path d="M34.7549 38.9409C34.6783 38.921 34.6004 38.9109 34.5233 38.9109C34.1062 38.9109 33.7415 39.1936 33.6362 39.5986C33.5098 40.0875 33.8046 40.5894 34.2939 40.7162C34.3705 40.7362 34.4481 40.746 34.5256 40.746C34.9427 40.746 35.3074 40.4633 35.4127 40.0583C35.5395 39.5693 35.2442 39.0677 34.7549 38.9409Z" fill="#C2C7D6"/>
<path d="M28.5589 25.1476C28.4398 25.1476 28.3273 25.1928 28.2417 25.2753C28.0594 25.4509 28.0536 25.7419 28.2287 25.924C28.3466 26.0463 28.4868 26.0647 28.5598 26.0647C28.679 26.0647 28.7919 26.0192 28.8779 25.9364C29.0598 25.7614 29.0652 25.4702 28.89 25.288C28.7726 25.1657 28.6324 25.1476 28.5589 25.1476Z" fill="#C2C7D6"/>
<path d="M39.3671 19.4883C39.5231 19.6151 39.6883 19.6417 39.7995 19.6417C40.0083 19.6417 40.2032 19.5492 40.3344 19.3877C40.5737 19.0931 40.5289 18.6587 40.2341 18.4191C40.0781 18.2923 39.9124 18.2654 39.8017 18.2654C39.5929 18.2654 39.398 18.3581 39.2668 18.5199C39.027 18.8144 39.0723 19.2486 39.3671 19.4883Z" fill="#C2C7D6"/>
<path d="M33.0278 21.2721C33.2361 21.4413 33.4565 21.4769 33.6044 21.4769C33.8831 21.4769 34.1429 21.3532 34.3181 21.1375C34.4731 20.9471 34.5444 20.7083 34.5188 20.4647C34.4938 20.2208 34.375 20.0015 34.185 19.8469C33.9758 19.6773 33.7554 19.6417 33.6071 19.6417C33.3289 19.6417 33.069 19.7654 32.8938 19.9807C32.5752 20.3731 32.6353 20.9526 33.0278 21.2721Z" fill="#C2C7D6"/>
<path d="M39.6272 37.9707C39.685 37.9857 39.7437 37.9933 39.8015 37.9933C40.1138 37.9933 40.3871 37.7814 40.4659 37.4778C40.5121 37.2997 40.4861 37.1149 40.3933 36.9565C40.3001 36.7981 40.1509 36.6855 39.9727 36.6393C39.9157 36.6246 39.8575 36.6169 39.7993 36.6169C39.4865 36.6169 39.2132 36.8291 39.1344 37.1329C39.0882 37.3107 39.1142 37.4957 39.2074 37.6539C39.3001 37.8121 39.4493 37.9245 39.6272 37.9707Z" fill="#C2C7D6"/>
<path d="M40.2403 27.6337C39.9673 27.8965 39.9589 28.3336 40.2223 28.6074C40.3527 28.7424 40.5288 28.8175 40.7178 28.8175C40.8966 28.8175 41.0664 28.7489 41.1954 28.6248C41.4683 28.3618 41.4768 27.9254 41.2138 27.6523C41.0825 27.5162 40.9065 27.4413 40.7178 27.4413C40.5386 27.4413 40.3693 27.5097 40.2403 27.6337Z" fill="#C2C7D6"/>
<path d="M39.4555 42.1072C39.4945 42.1175 39.5335 42.1224 39.572 42.1224C39.7799 42.1224 39.9623 41.9813 40.0147 41.779C40.0559 41.619 40.0017 41.4925 39.9658 41.4313C39.93 41.3702 39.8458 41.2613 39.6859 41.2198C39.6473 41.2097 39.6083 41.2048 39.5698 41.2048C39.3614 41.2048 39.1795 41.3462 39.1267 41.5487C39.0635 41.7931 39.2109 42.0438 39.4555 42.1072Z" fill="#C2C7D6"/>
<path d="M25.8067 62.309C25.8183 62.309 25.83 62.3085 25.8416 62.3076L31.8789 61.8488C32.0016 61.8394 32.1159 61.7809 32.1952 61.6864C32.2745 61.5919 32.3126 61.4691 32.3005 61.3464C31.7785 56.0584 34.1491 50.2501 40.6219 49.1939C42.5663 48.8769 44.1681 48.1318 45.3818 46.9795C48.3908 44.1241 48.0046 39.8156 47.9866 39.6335C47.9709 39.4755 47.8643 39.332 47.7219 39.2618C47.3419 39.075 45.5924 38.0282 45.0059 37.5212C45.6443 37.3292 47.2599 36.8427 47.5382 36.7582C47.8903 36.6514 48.6228 36.4291 48.7012 35.6298C48.7483 35.1558 48.7846 34.6795 48.8205 34.2031L48.8451 33.8766C48.8545 33.7427 48.8621 33.669 48.8854 33.6251C49.1955 33.4279 50.9146 32.5202 52.0862 31.9129C52.7389 31.5846 53.1409 31.1159 53.2811 30.5197C53.5481 29.3846 52.7076 28.2442 52.6699 28.1942L45.975 19.3502C46.3115 16.9062 46.1242 14.115 45.4785 12.0172C44.4077 8.54004 41.3557 5.76001 38.8571 4.31801C37.8812 3.75527 36.7539 3.35473 35.4103 3.09375C33.3028 2.68447 30.9918 2.6941 28.8556 2.70329L27.8918 2.7062C27.3089 2.7062 26.5477 2.70172 25.8287 2.667C25.7027 2.66252 25.5809 2.70665 25.4903 2.79312C25.3994 2.87981 25.3479 2.99989 25.3479 3.12534V28.0318C25.8 27.6555 26.3596 27.4411 26.9532 27.4411C27.6459 27.4411 28.2919 27.7159 28.7705 28.2142C29.2386 28.6994 29.4891 29.3381 29.4765 30.0121C29.4635 30.6858 29.1893 31.3141 28.7037 31.7816C28.231 32.2371 27.6091 32.4878 26.9532 32.4878C26.356 32.4878 25.8 32.2723 25.3479 31.895V61.8502C25.3479 61.9779 25.4012 62.0997 25.4949 62.1867C25.58 62.2655 25.6915 62.309 25.8067 62.309ZM36.3005 40.289C36.086 41.1154 35.3413 41.6635 34.5254 41.6635C34.3731 41.6635 34.2181 41.6445 34.0635 41.6044C33.0828 41.3499 32.4945 40.3485 32.7481 39.3676C32.9627 38.5416 33.7073 37.9932 34.5232 37.9932C34.6755 37.9932 34.8305 38.0125 34.9851 38.0526C35.9659 38.3068 36.5546 39.3084 36.3005 40.289ZM41.8316 29.2859C41.5197 29.5858 41.1187 29.735 40.7177 29.735C40.2966 29.735 39.8763 29.5704 39.5609 29.2433C38.9458 28.6037 38.9654 27.5876 39.6039 26.9724C39.9153 26.6727 40.3168 26.5237 40.7177 26.5237C41.1389 26.5237 41.5596 26.6884 41.8746 27.0159C42.4897 27.6546 42.47 28.6707 41.8316 29.2859ZM38.5542 17.9416C38.8714 17.5505 39.3342 17.3478 39.801 17.3478C40.1572 17.3478 40.5152 17.4653 40.8132 17.7073C41.5004 18.2667 41.6057 19.2781 41.0461 19.9663C40.7289 20.3568 40.2661 20.5593 39.7993 20.5593C39.4435 20.5593 39.0855 20.4417 38.7876 20.2C38.0998 19.6404 37.9941 18.6303 38.5542 17.9416ZM38.2464 36.9023C38.4341 36.1791 39.0855 35.6993 39.7993 35.6993C39.9328 35.6993 40.0681 35.7161 40.2034 35.751C41.0618 35.9739 41.5771 36.8503 41.3539 37.7083C41.1662 38.431 40.5152 38.9108 39.8015 38.9108C39.668 38.9108 39.5322 38.894 39.3969 38.8588C38.5385 38.6364 38.0237 37.7602 38.2464 36.9023ZM38.2388 41.3181C38.3996 40.6985 38.9578 40.2872 39.5699 40.2872C39.6841 40.2872 39.8006 40.3015 39.9162 40.3315C40.6519 40.5224 41.0936 41.2737 40.9028 42.0094C40.7419 42.6286 40.1832 43.0399 39.5721 43.0399C39.4574 43.0399 39.3414 43.0256 39.2253 42.9953C38.4892 42.8044 38.0483 42.0535 38.2388 41.3181ZM34.603 14.6452C34.8749 14.3103 35.2719 14.1365 35.6724 14.1365C35.9771 14.1365 36.284 14.2373 36.5385 14.4443C37.1281 14.9237 37.2186 15.7906 36.7392 16.3807C36.4672 16.7154 36.0703 16.889 35.6702 16.889C35.3651 16.889 35.0581 16.7882 34.8032 16.5807C34.2136 16.1016 34.1235 15.2353 34.603 14.6452ZM32.1818 19.402C32.5447 18.9555 33.0734 18.7241 33.607 18.7241C34.0138 18.7241 34.4228 18.8585 34.7634 19.1347C35.5501 19.7739 35.6697 20.9298 35.0304 21.7159C34.6675 22.1625 34.1383 22.3944 33.6043 22.3944C33.1979 22.3944 32.7889 22.26 32.4488 21.9838C31.6629 21.3444 31.5429 20.189 32.1818 19.402ZM31.7588 3.64551C31.7279 3.86863 31.5442 4.04291 31.3126 4.04291C31.0733 4.04291 30.8838 3.85832 30.8619 3.6249C31.1683 3.62915 31.4672 3.6361 31.7588 3.64551ZM29.9711 29.3804C30.1432 28.5054 30.9107 27.8997 31.7696 27.8997C31.8869 27.8997 32.0061 27.9108 32.1257 27.9344C33.1199 28.1306 33.7678 29.0948 33.5716 30.0894C33.3995 30.9637 32.6321 31.5702 31.7727 31.5702C31.6553 31.5702 31.5362 31.559 31.417 31.5354C30.4228 31.3395 29.7754 30.3742 29.9711 29.3804ZM28.5599 26.9823C28.1987 26.9823 27.8385 26.8412 27.5679 26.5605C27.0406 26.0134 27.0576 25.1416 27.6051 24.6144C27.8717 24.3577 28.2158 24.23 28.559 24.23C28.9205 24.23 29.2812 24.3712 29.5514 24.6519C30.0782 25.1996 30.0616 26.0703 29.5142 26.5976C29.2471 26.8546 28.9031 26.9823 28.5599 26.9823Z" fill="#C2C7D6"/>
<path d="M27.4313 30.4595C27.5635 30.3323 27.6383 30.1609 27.6419 29.9774C27.645 29.7939 27.5769 29.6201 27.4497 29.4879C27.3179 29.3511 27.1418 29.2762 26.9532 29.2762C26.7745 29.2762 26.6051 29.3445 26.4761 29.4686C26.2032 29.7317 26.1947 30.1685 26.4581 30.442C26.5885 30.5775 26.7646 30.6526 26.9532 30.6526C27.132 30.6526 27.3018 30.5841 27.4313 30.4595Z" fill="#C2C7D6"/>
</svg>
