<svg width="88" height="88" viewBox="0 0 88 88" fill="none" xmlns="http://www.w3.org/2000/svg">
<path d="M70.1161 30.3596H14.2024V72.1931H70.1161V30.3596Z" fill="#C2C7D6"/>
<path d="M33.9588 26.0258H14.2024V30.3589H35.093L33.9588 26.0258Z" fill="#C2C7D6"/>
<g opacity="0.1">
<path opacity="0.1" d="M70.1161 30.3585H14.2024V72.192H70.1161V30.3585Z" fill="black"/>
<path opacity="0.1" d="M33.9588 26.0258H14.2024V30.3589H35.093L33.9588 26.0258Z" fill="black"/>
</g>
<path d="M69.7345 56.538C58.818 53.3139 48.1458 50.1284 37.6382 46.9738C40.2807 34.2241 47.6846 21.7342 48.1882 8.79669C59.0947 11.8355 69.7594 14.8744 80.2721 17.926C77.5822 30.8765 70.1882 43.4846 69.7345 56.538Z" fill="#EBEBEB"/>
<path d="M69.7345 56.5382C58.818 53.3398 48.1383 50.1749 37.6232 47.046L37.5459 47.0229L37.5609 46.9508C40.1934 34.1985 47.5824 21.7036 48.061 8.76088C48.061 8.72228 48.061 8.68111 48.061 8.64252L48.1882 8.67854C59.1022 11.7251 69.7719 14.7794 80.272 17.8439L80.3593 17.8697C80.3593 17.8954 80.3593 17.9237 80.3418 17.952C77.6345 30.8998 70.2181 43.5054 69.7345 56.5382ZM69.7345 56.5382C70.1583 43.4849 77.5298 30.8767 80.1748 17.9005C80.1972 17.9366 80.2197 17.9726 80.2446 18.0086C69.7444 14.9698 59.0822 11.9387 48.1832 8.91269L48.3153 8.83036C47.7843 21.7653 40.3679 34.25 37.7129 46.9946L37.6531 46.9019C48.1508 50.0797 58.8329 53.2909 69.7345 56.5382Z" fill="#DBDBDB"/>
<path d="M68.0066 32.8506C66.3837 37.3252 61.4652 39.8186 56.8758 38.4188C52.2863 37.019 49.8806 32.2922 51.4636 27.8433C53.0466 23.3945 57.7807 20.8625 62.4325 22.234C67.0843 23.6054 69.6495 28.3734 68.0066 32.8506Z" fill="#455A64"/>
<path d="M59.7402 30.3413C57.8581 32.5593 55.9535 34.7722 54.0963 36.9851C52.7535 35.9644 51.77 34.5195 51.2949 32.8695C50.8198 31.2196 50.8791 29.4548 51.4638 27.8428C53.0243 23.4145 57.8107 20.8697 62.4326 22.2335C67.0545 23.5972 69.6446 28.4089 68.0117 32.8501C65.2546 32.0113 62.4974 31.175 59.7402 30.3413Z" fill="#DBDBDB"/>
<path d="M59.7406 30.3415C61.3809 32.6187 63.0038 34.8959 64.6616 37.1808C63.5306 37.9623 62.2473 38.4782 60.9021 38.692C59.5569 38.9059 58.1826 38.8125 56.8762 38.4184C52.2942 37.0315 49.896 32.2636 51.4641 27.843C53.0321 23.4224 57.8111 20.8699 62.4329 22.2336C67.0548 23.5974 69.6449 28.4091 68.0121 32.8502C65.2549 32.0114 62.4978 31.1752 59.7406 30.3415Z" fill="#DBDBDB"/>
<path d="M59.7402 30.3413L51.0673 31.8337C50.8747 30.4901 51.011 29.1181 51.4637 27.8428C53.0243 23.4145 57.8107 20.8697 62.4325 22.2335C67.0544 23.5972 69.6445 28.4089 68.0117 32.8501C65.2545 32.0113 62.4973 31.175 59.7402 30.3413Z" fill="#C2C7D6"/>
<path d="M50.6561 14.4092C55.0885 15.6804 59.4885 16.9523 63.856 18.2251C63.7788 18.5571 63.7015 18.8864 63.6192 19.2158C59.2649 17.9412 54.884 16.6684 50.4766 15.3973C50.5389 15.068 50.6062 14.7386 50.6561 14.4092Z" fill="#DBDBDB"/>
<path d="M49.6567 39.8981C55.4951 41.6769 61.3651 43.4618 67.2666 45.2527C67.1794 45.5821 67.0921 45.9114 67.0174 46.2408C61.0892 44.4447 55.2009 42.6573 49.3525 40.8784C49.4473 40.5516 49.552 40.2249 49.6567 39.8981Z" fill="#DBDBDB"/>
<path d="M48.8938 42.3708C54.7704 44.1548 60.6878 45.9474 66.6458 47.7486C66.571 48.0779 66.4988 48.4099 66.429 48.7392C60.4459 46.9329 54.507 45.1369 48.6121 43.3511C48.7043 43.0244 48.7965 42.6976 48.8938 42.3708Z" fill="#DBDBDB"/>
<path d="M48.2102 44.846C54.1334 46.6386 60.108 48.4398 66.1343 50.2495C66.0744 50.5789 66.0171 50.9108 65.9647 51.2427C59.9069 49.4261 53.9065 47.6207 47.9634 45.8264C48.0432 45.5021 48.1254 45.1728 48.2102 44.846Z" fill="#DBDBDB"/>
<path d="M46.2038 39.9239L44.0798 39.2806L44.4014 38.3028L46.5229 38.9486C46.4157 39.2729 46.3085 39.5996 46.2038 39.9239Z" fill="#C2C7D6"/>
<path d="M45.4485 42.3935L43.3096 41.7451C43.4068 41.4209 43.5065 41.0941 43.6062 40.7673L45.7402 41.4158C45.6404 41.74 45.5432 42.0667 45.4485 42.3935Z" fill="#455A64"/>
<path d="M44.7753 44.8664L42.6289 44.2154C42.7137 43.8886 42.8009 43.5644 42.8907 43.2376L45.0396 43.886C44.9448 44.212 44.8567 44.5387 44.7753 44.8664Z" fill="#DBDBDB"/>
<path d="M69.9688 72.193H14.0552L9.74243 33.8306H65.6561L69.9688 72.193Z" fill="#C2C7D6"/>
<path d="M29.0525 29.8574H9.29614L9.74238 33.8303H30.633L29.0525 29.8574Z" fill="#C2C7D6"/>
<path d="M48.9958 51.2971H61.807C62.1819 50.4704 62.3978 49.5765 62.4426 48.6648V38.0817H49.6315V48.8115C49.6315 49.8742 48.9958 51.2971 48.9958 51.2971Z" fill="#455A64"/>
<path d="M51.1995 41.2007C52.6952 41.072 54.2134 41.0437 55.7191 41.036C57.2249 41.0283 58.7331 41.072 60.2388 41.2007C58.743 41.3268 57.2249 41.3576 55.7191 41.3628C54.2134 41.3679 52.7052 41.3268 51.1995 41.2007Z" fill="white"/>
<path d="M51.1995 42.9426C52.5556 42.8165 53.9093 42.7856 55.2654 42.7779C56.6216 42.7702 57.9752 42.8139 59.3289 42.9426C57.9752 43.0712 56.6191 43.0995 55.2654 43.1072C53.9118 43.115 52.5556 43.0712 51.1995 42.9426Z" fill="white"/>
<path d="M51.1995 44.687C52.3836 44.5584 53.5702 44.5301 54.7544 44.5223C55.9421 44.5156 57.1294 44.5705 58.3118 44.687C57.1251 44.8131 55.941 44.844 54.7544 44.8491C53.5677 44.8543 52.3836 44.8131 51.1995 44.687Z" fill="white"/>
<path d="M51.1995 46.4292C52.6952 46.3031 54.2134 46.2722 55.7191 46.2645C57.2249 46.2568 58.7331 46.3006 60.2388 46.4292C58.743 46.5579 57.2249 46.5861 55.7191 46.5939C54.2134 46.6016 52.7052 46.5579 51.1995 46.4292Z" fill="white"/>
</svg>
