<svg width="212" height="180" viewBox="0 0 212 180" fill="none" xmlns="http://www.w3.org/2000/svg">
<path d="M105.5 180C155.206 180 195.5 139.706 195.5 90C195.5 40.2944 155.206 0 105.5 0C55.7944 0 15.5 40.2944 15.5 90C15.5 139.706 55.7944 180 105.5 180Z" fill="#F0F4FE"/>
<g filter="url(#filter0_dd_322_77207)">
<rect x="12.5" y="24" width="134" height="36" rx="8" fill="white"/>
<rect x="20.5" y="28" width="28" height="28" rx="14" fill="#C2C7D6"/>
<path fill-rule="evenodd" clip-rule="evenodd" d="M32.8333 33.6667C32.143 33.6667 31.5833 34.2263 31.5833 34.9167H29.9167C29.2263 34.9167 28.6667 35.4763 28.6667 36.1667V49.0833C28.6667 49.7737 29.2263 50.3333 29.9167 50.3333H39.0833C39.7737 50.3333 40.3333 49.7737 40.3333 49.0833V36.1667C40.3333 35.4763 39.7737 34.9167 39.0833 34.9167H37.4167C37.4167 34.2263 36.857 33.6667 36.1667 33.6667H32.8333ZM32.4167 34.9167C32.4167 34.6866 32.6032 34.5 32.8333 34.5H36.1667C36.3968 34.5 36.5833 34.6866 36.5833 34.9167V35.75C36.5833 35.9801 36.3968 36.1667 36.1667 36.1667H32.8333C32.6032 36.1667 32.4167 35.9801 32.4167 35.75V34.9167ZM32.4167 38.25V39.5H31.1667V40.3333H32.4167V41.5833H33.25V40.3333H34.5V39.5H33.25V38.25H32.4167ZM31.5833 42.8333C31.3532 42.8333 31.1667 43.0199 31.1667 43.25C31.1667 43.4801 31.3532 43.6667 31.5833 43.6667H37.4167C37.6468 43.6667 37.8333 43.4801 37.8333 43.25C37.8333 43.0199 37.6468 42.8333 37.4167 42.8333H31.5833ZM31.1667 45.3333C31.1667 45.1032 31.3532 44.9167 31.5833 44.9167H37.4167C37.6468 44.9167 37.8333 45.1032 37.8333 45.3333C37.8333 45.5635 37.6468 45.75 37.4167 45.75H31.5833C31.3532 45.75 31.1667 45.5635 31.1667 45.3333ZM31.5833 47C31.3532 47 31.1667 47.1865 31.1667 47.4167C31.1667 47.6468 31.3532 47.8333 31.5833 47.8333H37.4167C37.6468 47.8333 37.8333 47.6468 37.8333 47.4167C37.8333 47.1865 37.6468 47 37.4167 47H31.5833Z" fill="#F6F8F9"/>
<rect x="56.5" y="32" width="37" height="6" rx="3" fill="#C2C7D6"/>
<rect x="56.5" y="46" width="63" height="6" rx="3" fill="#F0F4FE"/>
</g>
<g filter="url(#filter1_dd_322_77207)">
<rect x="65.5" y="72" width="134" height="36" rx="8" fill="white"/>
<rect x="73.5" y="76" width="28" height="28" rx="14" fill="#C2C7D6"/>
<path fill-rule="evenodd" clip-rule="evenodd" d="M85.8333 81.6667C85.143 81.6667 84.5833 82.2263 84.5833 82.9167H82.9167C82.2263 82.9167 81.6667 83.4763 81.6667 84.1667V97.0833C81.6667 97.7737 82.2263 98.3333 82.9167 98.3333H92.0833C92.7737 98.3333 93.3333 97.7737 93.3333 97.0833V84.1667C93.3333 83.4763 92.7737 82.9167 92.0833 82.9167H90.4167C90.4167 82.2263 89.857 81.6667 89.1667 81.6667H85.8333ZM85.4167 82.9167C85.4167 82.6866 85.6032 82.5 85.8333 82.5H89.1667C89.3968 82.5 89.5833 82.6866 89.5833 82.9167V83.75C89.5833 83.9801 89.3968 84.1667 89.1667 84.1667H85.8333C85.6032 84.1667 85.4167 83.9801 85.4167 83.75V82.9167ZM85.4167 86.25V87.5H84.1667V88.3333H85.4167V89.5833H86.25V88.3333H87.5V87.5H86.25V86.25H85.4167ZM84.5833 90.8333C84.3532 90.8333 84.1667 91.0199 84.1667 91.25C84.1667 91.4801 84.3532 91.6667 84.5833 91.6667H90.4167C90.6468 91.6667 90.8333 91.4801 90.8333 91.25C90.8333 91.0199 90.6468 90.8333 90.4167 90.8333H84.5833ZM84.1667 93.3333C84.1667 93.1032 84.3532 92.9167 84.5833 92.9167H90.4167C90.6468 92.9167 90.8333 93.1032 90.8333 93.3333C90.8333 93.5635 90.6468 93.75 90.4167 93.75H84.5833C84.3532 93.75 84.1667 93.5635 84.1667 93.3333ZM84.5833 95C84.3532 95 84.1667 95.1865 84.1667 95.4167C84.1667 95.6468 84.3532 95.8333 84.5833 95.8333H90.4167C90.6468 95.8333 90.8333 95.6468 90.8333 95.4167C90.8333 95.1865 90.6468 95 90.4167 95H84.5833Z" fill="#F6F8F9"/>
<rect x="109.5" y="80" width="37" height="6" rx="3" fill="#C2C7D6"/>
<rect x="109.5" y="94" width="63" height="6" rx="3" fill="#F0F4FE"/>
</g>
<g filter="url(#filter2_dd_322_77207)">
<rect x="12.5" y="120" width="134" height="36" rx="8" fill="white"/>
<rect x="20.5" y="124" width="27" height="28" rx="13.5" fill="#C2C7D6"/>
<path fill-rule="evenodd" clip-rule="evenodd" d="M32.3333 129.667C31.643 129.667 31.0833 130.226 31.0833 130.917H29.4167C28.7263 130.917 28.1667 131.476 28.1667 132.167V145.083C28.1667 145.774 28.7263 146.333 29.4167 146.333H38.5833C39.2737 146.333 39.8333 145.774 39.8333 145.083V132.167C39.8333 131.476 39.2737 130.917 38.5833 130.917H36.9167C36.9167 130.226 36.357 129.667 35.6667 129.667H32.3333ZM31.9167 130.917C31.9167 130.687 32.1032 130.5 32.3333 130.5H35.6667C35.8968 130.5 36.0833 130.687 36.0833 130.917V131.75C36.0833 131.98 35.8968 132.167 35.6667 132.167H32.3333C32.1032 132.167 31.9167 131.98 31.9167 131.75V130.917ZM31.9167 134.25V135.5H30.6667V136.333H31.9167V137.583H32.75V136.333H34V135.5H32.75V134.25H31.9167ZM31.0833 138.833C30.8532 138.833 30.6667 139.02 30.6667 139.25C30.6667 139.48 30.8532 139.667 31.0833 139.667H36.9167C37.1468 139.667 37.3333 139.48 37.3333 139.25C37.3333 139.02 37.1468 138.833 36.9167 138.833H31.0833ZM30.6667 141.333C30.6667 141.103 30.8532 140.917 31.0833 140.917H36.9167C37.1468 140.917 37.3333 141.103 37.3333 141.333C37.3333 141.563 37.1468 141.75 36.9167 141.75H31.0833C30.8532 141.75 30.6667 141.563 30.6667 141.333ZM31.0833 143C30.8532 143 30.6667 143.187 30.6667 143.417C30.6667 143.647 30.8532 143.833 31.0833 143.833H36.9167C37.1468 143.833 37.3333 143.647 37.3333 143.417C37.3333 143.187 37.1468 143 36.9167 143H31.0833Z" fill="#F6F8F9"/>
<rect x="55.5" y="128" width="37" height="6" rx="3" fill="#C2C7D6"/>
<rect x="55.5" y="142" width="63" height="6" rx="3" fill="#F0F4FE"/>
</g>
<defs>
<filter id="filter0_dd_322_77207" x="0.5" y="20" width="158" height="60" filterUnits="userSpaceOnUse" color-interpolation-filters="sRGB">
<feFlood flood-opacity="0" result="BackgroundImageFix"/>
<feColorMatrix in="SourceAlpha" type="matrix" values="0 0 0 0 0 0 0 0 0 0 0 0 0 0 0 0 0 0 127 0" result="hardAlpha"/>
<feOffset dy="8"/>
<feGaussianBlur stdDeviation="6"/>
<feColorMatrix type="matrix" values="0 0 0 0 0.180392 0 0 0 0 0.160784 0 0 0 0 0.305882 0 0 0 0.08 0"/>
<feBlend mode="normal" in2="BackgroundImageFix" result="effect1_dropShadow_322_77207"/>
<feColorMatrix in="SourceAlpha" type="matrix" values="0 0 0 0 0 0 0 0 0 0 0 0 0 0 0 0 0 0 127 0" result="hardAlpha"/>
<feOffset dy="1"/>
<feGaussianBlur stdDeviation="2"/>
<feColorMatrix type="matrix" values="0 0 0 0 0.180392 0 0 0 0 0.160784 0 0 0 0 0.305882 0 0 0 0.02 0"/>
<feBlend mode="normal" in2="effect1_dropShadow_322_77207" result="effect2_dropShadow_322_77207"/>
<feBlend mode="normal" in="SourceGraphic" in2="effect2_dropShadow_322_77207" result="shape"/>
</filter>
<filter id="filter1_dd_322_77207" x="53.5" y="68" width="158" height="60" filterUnits="userSpaceOnUse" color-interpolation-filters="sRGB">
<feFlood flood-opacity="0" result="BackgroundImageFix"/>
<feColorMatrix in="SourceAlpha" type="matrix" values="0 0 0 0 0 0 0 0 0 0 0 0 0 0 0 0 0 0 127 0" result="hardAlpha"/>
<feOffset dy="8"/>
<feGaussianBlur stdDeviation="6"/>
<feColorMatrix type="matrix" values="0 0 0 0 0.180392 0 0 0 0 0.160784 0 0 0 0 0.305882 0 0 0 0.08 0"/>
<feBlend mode="normal" in2="BackgroundImageFix" result="effect1_dropShadow_322_77207"/>
<feColorMatrix in="SourceAlpha" type="matrix" values="0 0 0 0 0 0 0 0 0 0 0 0 0 0 0 0 0 0 127 0" result="hardAlpha"/>
<feOffset dy="1"/>
<feGaussianBlur stdDeviation="2"/>
<feColorMatrix type="matrix" values="0 0 0 0 0.180392 0 0 0 0 0.160784 0 0 0 0 0.305882 0 0 0 0.02 0"/>
<feBlend mode="normal" in2="effect1_dropShadow_322_77207" result="effect2_dropShadow_322_77207"/>
<feBlend mode="normal" in="SourceGraphic" in2="effect2_dropShadow_322_77207" result="shape"/>
</filter>
<filter id="filter2_dd_322_77207" x="0.5" y="116" width="158" height="60" filterUnits="userSpaceOnUse" color-interpolation-filters="sRGB">
<feFlood flood-opacity="0" result="BackgroundImageFix"/>
<feColorMatrix in="SourceAlpha" type="matrix" values="0 0 0 0 0 0 0 0 0 0 0 0 0 0 0 0 0 0 127 0" result="hardAlpha"/>
<feOffset dy="8"/>
<feGaussianBlur stdDeviation="6"/>
<feColorMatrix type="matrix" values="0 0 0 0 0.180392 0 0 0 0 0.160784 0 0 0 0 0.305882 0 0 0 0.08 0"/>
<feBlend mode="normal" in2="BackgroundImageFix" result="effect1_dropShadow_322_77207"/>
<feColorMatrix in="SourceAlpha" type="matrix" values="0 0 0 0 0 0 0 0 0 0 0 0 0 0 0 0 0 0 127 0" result="hardAlpha"/>
<feOffset dy="1"/>
<feGaussianBlur stdDeviation="2"/>
<feColorMatrix type="matrix" values="0 0 0 0 0.180392 0 0 0 0 0.160784 0 0 0 0 0.305882 0 0 0 0.02 0"/>
<feBlend mode="normal" in2="effect1_dropShadow_322_77207" result="effect2_dropShadow_322_77207"/>
<feBlend mode="normal" in="SourceGraphic" in2="effect2_dropShadow_322_77207" result="shape"/>
</filter>
</defs>
</svg>
