<svg width="88" height="88" viewBox="0 0 88 88" fill="none" xmlns="http://www.w3.org/2000/svg">
<path d="M59.6661 41.1746C59.666 42.4773 59.2575 43.7472 58.4981 44.8057C57.7387 45.8642 56.6667 46.658 55.4327 47.0756L46.7397 50.0034L36.1594 53.5776C34.6008 54.09 32.9029 53.9655 31.4356 53.2314C29.9683 52.4973 28.8507 51.213 28.3262 49.6584C27.8018 48.1039 27.913 46.405 28.6358 44.9321C29.3585 43.4592 30.6341 42.3316 32.1846 41.7951L41.7954 38.5635L51.4514 35.3319C52.3856 35.0177 53.381 34.9298 54.3558 35.0755C55.3305 35.2212 56.2568 35.5963 57.0582 36.17C57.8597 36.7436 58.5134 37.4994 58.9657 38.3751C59.418 39.2508 59.6558 40.2214 59.6597 41.207L59.6661 41.1746Z" fill="white"/>
<path d="M59.6664 41.174C59.6663 42.4767 59.2578 43.7465 58.4984 44.805C57.739 45.8635 56.667 46.6573 55.433 47.0749L46.74 50.0027C46.5082 45.7201 44.7548 41.6609 41.7957 38.5564L51.4517 35.3248C52.3859 35.0106 53.3813 34.9227 54.3561 35.0684C55.3308 35.2141 56.2571 35.5892 57.0585 36.1628C57.86 36.7365 58.5137 37.4923 58.966 38.368C59.4183 39.2437 59.6561 40.2142 59.66 41.1998L59.6664 41.174Z" fill="#C2C7D6"/>
<path d="M59.6661 41.1746C59.666 42.4773 59.2575 43.7472 58.4981 44.8057C57.7387 45.8642 56.6667 46.658 55.4327 47.0756L46.7397 50.0034L36.1594 53.5776C34.6008 54.09 32.9029 53.9655 31.4356 53.2314C29.9683 52.4973 28.8507 51.213 28.3262 49.6584C27.8018 48.1039 27.913 46.405 28.6358 44.9321C29.3585 43.4592 30.6341 42.3316 32.1846 41.7951L41.7954 38.5635L51.4514 35.3319C52.3856 35.0177 53.381 34.9298 54.3558 35.0755C55.3305 35.2212 56.2568 35.5963 57.0582 36.17C57.8597 36.7436 58.5134 37.4994 58.9657 38.3751C59.418 39.2508 59.6558 40.2214 59.6597 41.207L59.6661 41.1746Z" stroke="#263238" stroke-linecap="round" stroke-linejoin="round"/>
<path d="M46.74 50.0025C46.5422 45.7119 44.7839 41.6414 41.7957 38.5562" stroke="#263238" stroke-linecap="round" stroke-linejoin="round"/>
<path d="M57.5852 38.8542C57.9933 39.5416 58.1994 40.3301 58.1798 41.1292" stroke="white" stroke-linecap="round" stroke-linejoin="round"/>
<path d="M44.2517 39.4995L52.0076 36.9142C52.7032 36.6757 53.4431 36.5943 54.174 36.6759C54.9049 36.7574 55.6086 37 56.2345 37.3861" stroke="white" stroke-linecap="round" stroke-linejoin="round"/>
</svg>
