<svg width="88" height="88" viewBox="0 0 88 88" fill="none" xmlns="http://www.w3.org/2000/svg">
<path d="M16.3084 59.1359C16.2068 59.0678 16.1278 58.971 16.0814 58.8579C16.0351 58.7447 16.0234 58.6203 16.0479 58.5005L22.2889 30.8791C22.364 30.612 22.5335 30.3812 22.7659 30.2296L59.9019 8.79283C60.0154 8.73279 60.1415 8.70037 60.27 8.69823C60.3984 8.69609 60.5256 8.72428 60.641 8.78051C60.741 8.84904 60.8186 8.94554 60.864 9.05793C60.9094 9.17032 60.9206 9.29361 60.8963 9.41235L54.6535 37.0338C54.5783 37.3013 54.4081 37.5322 54.1748 37.6832L17.0476 59.12C16.9343 59.1806 16.8084 59.2136 16.6799 59.2164C16.5515 59.2192 16.4242 59.1916 16.3084 59.1359Z" fill="#F0F0F0"/>
<path d="M23.0032 31.2869L16.7622 58.9189C16.7094 59.1547 16.8361 59.2498 17.0473 59.1283L54.1833 37.6915C54.4166 37.5405 54.5868 37.3096 54.6621 37.0421L60.896 9.41184C60.9488 9.17424 60.8221 9.08096 60.6109 9.2024L23.4749 30.6392C23.2449 30.7914 23.0775 31.0213 23.0032 31.2869Z" fill="#E6E6E6"/>
<path d="M61.3488 9.18775C61.2331 9.13179 61.1059 9.1039 60.9775 9.10635C60.849 9.1088 60.723 9.14151 60.6096 9.20183L23.4735 30.6386C23.3658 30.7084 23.2792 30.8062 23.2231 30.9216C23.1669 31.037 23.1434 31.1656 23.155 31.2934L28.0425 65.506C28.0664 65.6357 28.1158 65.7593 28.1881 65.8696C28.2603 65.9799 28.3538 66.0747 28.4632 66.1484C28.5784 66.2048 28.7053 66.2329 28.8336 66.2304C28.9618 66.228 29.0876 66.195 29.2006 66.1343L66.3296 44.7028C66.4376 44.6329 66.5244 44.5348 66.5805 44.419C66.6367 44.3033 66.6601 44.1744 66.6481 44.0463L61.7764 9.83015C61.7518 9.69988 61.7013 9.57588 61.6278 9.46552C61.5544 9.35516 61.4595 9.2607 61.3488 9.18775Z" fill="#F0F0F0"/>
<path d="M23.8767 31.7075L28.7572 65.9201C28.7582 65.9711 28.7732 66.0209 28.8008 66.0639C28.8283 66.1068 28.8671 66.1414 28.9131 66.1636C28.959 66.1858 29.0102 66.1949 29.061 66.1898C29.1117 66.1848 29.1601 66.1657 29.2007 66.1348L66.3297 44.7033C66.4377 44.6334 66.5245 44.5353 66.5806 44.4196C66.6368 44.3038 66.6602 44.1749 66.6482 44.0468L61.7766 9.83069C61.7759 9.77952 61.7611 9.72954 61.7337 9.68631C61.7063 9.64308 61.6674 9.60831 61.6215 9.58586C61.5755 9.56342 61.5242 9.55418 61.4732 9.55919C61.4223 9.56419 61.3738 9.58324 61.333 9.61421L24.197 31.051C24.0887 31.1207 24.0016 31.2187 23.9451 31.3344C23.8886 31.4502 23.865 31.5792 23.8767 31.7075Z" fill="#FAFAFA"/>
<path d="M16.7959 58.7636L26.2999 53.2742L26.5762 55.263L22.2185 57.7798C22.2185 57.7798 21.0569 58.1916 20.5957 58.3078C20.1346 58.4239 16.7959 58.7636 16.7959 58.7636Z" fill="#E0E0E0"/>
<path d="M26.5816 55.2643L28.0072 65.2611L22.2239 57.7811L26.5816 55.2643Z" fill="#E6E6E6"/>
<path d="M27.8362 65.5942L22.653 58.8622C22.567 58.7618 22.4582 58.6834 22.3358 58.6335C22.2133 58.5836 22.0807 58.5637 21.949 58.5753L17.102 59.2793C16.829 59.3085 16.5534 59.2584 16.3082 59.135C16.1111 59.0224 16.1445 58.8921 16.3821 58.8464L21.9525 57.7745C22.0831 57.7549 22.2166 57.7693 22.34 57.8165C22.4633 57.8637 22.5724 57.942 22.6565 58.0438L28.5578 65.999C28.7021 66.1944 28.6599 66.2595 28.4628 66.1451C28.2252 65.997 28.0135 65.8109 27.8362 65.5942Z" fill="#E0E0E0"/>
<path d="M60.9049 9.27635C60.9042 9.17718 60.8792 9.0797 60.8319 8.99252C60.7846 8.90534 60.7166 8.83115 60.6338 8.77651C60.518 8.72109 60.3909 8.69351 60.2626 8.69595C60.1342 8.69839 60.0082 8.7308 59.8946 8.79059L22.7586 30.2274C22.6454 30.2983 22.5468 30.3903 22.4682 30.4984C22.381 30.6108 22.317 30.7395 22.2799 30.8768L21.3999 34.7787L22.1145 35.1888L60.0161 13.312L60.8961 9.41187C60.9044 9.3672 60.908 9.32177 60.9066 9.27635H60.9049Z" fill="#C2C7D6"/>
<path opacity="0.2" d="M60.896 9.41184C60.9488 9.17424 60.8221 9.08096 60.6109 9.2024L23.4749 30.6392C23.243 30.7905 23.0736 31.0205 22.9979 31.2869L22.1179 35.1888L60.016 13.312L60.896 9.41184Z" fill="black"/>
<path opacity="0.1" d="M23.1901 30.9098C23.1027 31.0212 23.0392 31.1494 23.0035 31.2865L22.1235 35.1884L21.4089 34.7765L22.2889 30.8746C22.326 30.7372 22.39 30.6086 22.4773 30.4962L23.1901 30.9098Z" fill="black"/>
<path opacity="0.4" d="M60.9047 9.27439C60.8871 9.14239 60.7727 9.09839 60.609 9.20223L23.473 30.6373C23.3589 30.7079 23.2602 30.8007 23.1826 30.9101L22.468 30.4965C22.5466 30.3884 22.6452 30.2964 22.7584 30.2254L59.8944 8.78863C60.008 8.72885 60.134 8.69644 60.2623 8.694C60.3907 8.69155 60.5178 8.71914 60.6336 8.77455C60.7164 8.8292 60.7844 8.90339 60.8317 8.99057C60.8789 9.07774 60.904 9.17523 60.9047 9.27439Z" fill="white"/>
<path d="M61.8131 10.1575L61.7762 9.83015C61.7735 9.81414 61.77 9.79827 61.7656 9.78263C61.7664 9.77797 61.7664 9.77322 61.7656 9.76855C61.7057 9.53172 61.5611 9.32506 61.359 9.18775C61.2434 9.13179 61.1162 9.1039 60.9878 9.10635C60.8593 9.1088 60.7333 9.14151 60.6198 9.20183L23.4838 30.6386C23.3714 30.7083 23.2825 30.81 23.2286 30.9308C23.1737 31.0432 23.1517 31.1689 23.1653 31.2934L23.8693 36.195L24.5838 36.6086L62.4678 14.7335L61.8131 10.1575Z" fill="#C2C7D6"/>
<path opacity="0.1" d="M24.5768 36.6077L23.8622 36.1941L23.1582 31.2925C23.1446 31.1681 23.1666 31.0424 23.2216 30.9299L23.9379 31.3418C23.8816 31.4538 23.859 31.5797 23.8728 31.7043L24.5768 36.6077Z" fill="black"/>
<path opacity="0.4" d="M61.7548 9.76855C61.7447 9.72421 61.7237 9.68312 61.6936 9.64906C61.6634 9.615 61.6252 9.58906 61.5825 9.57363C61.5397 9.55821 61.4937 9.55379 61.4488 9.56079C61.4039 9.56778 61.3614 9.58597 61.3254 9.61367L24.1894 31.0505C24.0765 31.1196 23.9875 31.2215 23.9342 31.3426L23.2319 30.9308C23.2862 30.8099 23.375 30.7076 23.4871 30.6369L60.6231 9.20183C60.7366 9.14151 60.8626 9.1088 60.9911 9.10635C61.1195 9.1039 61.2467 9.13179 61.3623 9.18775C61.5596 9.32706 61.6991 9.5336 61.7548 9.76855Z" fill="white"/>
<path d="M34.4345 60.251L33.991 57.1341C33.9904 57.0935 33.9786 57.0538 33.957 57.0195C33.9354 56.9851 33.9047 56.9573 33.8684 56.9392C33.8321 56.921 33.7915 56.9132 33.7511 56.9165C33.7106 56.9198 33.6718 56.9342 33.639 56.9581L30.4024 58.8272C30.3151 58.883 30.2451 58.9619 30.2001 59.0551C30.155 59.1483 30.1367 59.2522 30.1472 59.3552L30.5889 62.4792C30.5889 62.52 30.6003 62.5601 30.6218 62.5948C30.6432 62.6296 30.674 62.6577 30.7105 62.676C30.7471 62.6942 30.788 62.702 30.8287 62.6983C30.8694 62.6946 30.9082 62.6797 30.9409 62.6552L34.1775 60.7861C34.2664 60.7301 34.3376 60.6502 34.3831 60.5555C34.4285 60.4609 34.4464 60.3553 34.4345 60.251Z" fill="#C2C7D6"/>
<path d="M39.4401 57.3652L38.9948 54.25C38.9948 54.2092 38.9834 54.1691 38.9619 54.1344C38.9405 54.0996 38.9097 54.0715 38.8732 54.0533C38.8366 54.035 38.7957 54.0272 38.755 54.0309C38.7143 54.0346 38.6755 54.0495 38.6428 54.074L35.4062 55.9414C35.3191 55.9973 35.2492 56.0762 35.2041 56.1694C35.1591 56.2626 35.1407 56.3664 35.151 56.4694L35.5962 59.5863C35.5962 59.6272 35.6076 59.6673 35.6291 59.702C35.6506 59.7368 35.6813 59.7649 35.7178 59.7831C35.7544 59.8014 35.7953 59.8091 35.836 59.8055C35.8767 59.8018 35.9156 59.7869 35.9482 59.7623L39.1849 57.8932C39.2722 57.8376 39.3424 57.7587 39.3874 57.6655C39.4325 57.5722 39.4507 57.4683 39.4401 57.3652Z" fill="#EBEBEB"/>
<path d="M44.4457 54.4775L44.0005 51.3623C44.0005 51.3215 43.9891 51.2814 43.9676 51.2467C43.9461 51.2119 43.9154 51.1838 43.8788 51.1656C43.8423 51.1473 43.8014 51.1396 43.7607 51.1432C43.72 51.1469 43.6811 51.1618 43.6485 51.1863L40.4101 53.0572C40.323 53.1132 40.2531 53.1921 40.208 53.2852C40.163 53.3784 40.1446 53.4822 40.1549 53.5852L40.6001 56.7022C40.6001 56.743 40.6115 56.7831 40.633 56.8178C40.6545 56.8526 40.6852 56.8807 40.7218 56.8989C40.7583 56.9172 40.7992 56.925 40.8399 56.9213C40.8806 56.9176 40.9195 56.9027 40.9521 56.8782L44.1888 55.0091C44.277 54.9534 44.3479 54.874 44.3933 54.7801C44.4387 54.6861 44.4569 54.5813 44.4457 54.4775Z" fill="#EBEBEB"/>
<path d="M49.4558 51.5932L49.0105 48.4762C49.0105 48.4354 48.9992 48.3953 48.9777 48.3606C48.9562 48.3258 48.9255 48.2977 48.8889 48.2795C48.8524 48.2612 48.8115 48.2534 48.7708 48.2571C48.7301 48.2608 48.6912 48.2757 48.6585 48.3002L45.4078 50.1729C45.3205 50.2285 45.2503 50.3074 45.2053 50.4006C45.1602 50.4939 45.142 50.5978 45.1526 50.7009L45.5979 53.8161C45.5979 53.8569 45.6093 53.897 45.6308 53.9317C45.6522 53.9665 45.683 53.9946 45.7195 54.0128C45.7561 54.0311 45.797 54.0388 45.8377 54.0352C45.8784 54.0315 45.9172 54.0166 45.9499 53.9921L49.1865 52.1247C49.2768 52.0703 49.3499 51.9916 49.3975 51.8976C49.4451 51.8036 49.4653 51.6981 49.4558 51.5932Z" fill="#EBEBEB"/>
<path d="M54.4566 48.7079L54.0114 45.5839C54.0114 45.543 54 45.503 53.9785 45.4682C53.957 45.4335 53.9263 45.4054 53.8897 45.3871C53.8532 45.3688 53.8123 45.3611 53.7716 45.3648C53.7309 45.3685 53.692 45.3834 53.6594 45.4079L50.4227 47.277C50.3354 47.3327 50.2652 47.4115 50.2201 47.5048C50.1751 47.598 50.1569 47.702 50.1675 47.805L50.6128 50.9202C50.6128 50.9611 50.6242 51.0011 50.6457 51.0359C50.6671 51.0706 50.6979 51.0987 50.7344 51.117C50.771 51.1353 50.8119 51.143 50.8526 51.1393C50.8932 51.1357 50.9321 51.1207 50.9648 51.0962L54.2085 49.2324C54.2937 49.1758 54.3618 49.0971 54.4056 49.0047C54.4493 48.9122 54.4669 48.8096 54.4566 48.7079Z" fill="#EBEBEB"/>
<path d="M59.4618 45.821L59.0165 42.704C59.0165 42.6632 59.0051 42.6231 58.9836 42.5883C58.9621 42.5536 58.9314 42.5255 58.8949 42.5072C58.8583 42.489 58.8174 42.4812 58.7767 42.4849C58.736 42.4886 58.6972 42.5035 58.6645 42.528L55.4278 44.3971C55.3405 44.4528 55.2703 44.5316 55.2253 44.6249C55.1802 44.7181 55.162 44.8221 55.1726 44.9251L55.6162 48.0473C55.6162 48.0882 55.6275 48.1283 55.649 48.163C55.6705 48.1978 55.7012 48.2258 55.7378 48.2441C55.7743 48.2624 55.8152 48.2701 55.8559 48.2665C55.8966 48.2628 55.9355 48.2479 55.9682 48.2233L59.2048 46.3542C59.2932 46.2983 59.3641 46.2186 59.4095 46.1243C59.455 46.0301 59.4731 45.925 59.4618 45.821Z" fill="#EBEBEB"/>
<path d="M64.4673 42.943L64.022 39.8261C64.022 39.7852 64.0106 39.7452 63.9891 39.7104C63.9676 39.6757 63.9369 39.6476 63.9004 39.6293C63.8638 39.611 63.8229 39.6033 63.7822 39.607C63.7415 39.6106 63.7027 39.6256 63.67 39.6501L60.4334 41.5192C60.3461 41.575 60.2761 41.6539 60.2311 41.7471C60.186 41.8403 60.1677 41.9442 60.1782 42.0472L60.6217 45.1641C60.6223 45.2047 60.6341 45.2444 60.6557 45.2787C60.6773 45.3131 60.7079 45.3409 60.7442 45.359C60.7805 45.3772 60.8211 45.385 60.8616 45.3817C60.9021 45.3784 60.9408 45.364 60.9737 45.3401L64.2103 43.471C64.2978 43.4155 64.3682 43.3367 64.4136 43.2434C64.459 43.1502 64.4775 43.0462 64.4673 42.943Z" fill="#EBEBEB"/>
<path d="M33.5654 54.1533L33.1201 51.0398C33.1195 50.9992 33.1077 50.9596 33.0861 50.9252C33.0645 50.8909 33.0339 50.8631 32.9976 50.8449C32.9613 50.8268 32.9207 50.819 32.8802 50.8223C32.8398 50.8256 32.801 50.84 32.7681 50.8638L29.5315 52.7329C29.4443 52.7887 29.3743 52.8676 29.3292 52.9608C29.2842 53.0541 29.2658 53.1579 29.2763 53.2609L29.7198 56.3779C29.7205 56.4185 29.7322 56.4581 29.7538 56.4925C29.7754 56.5269 29.8061 56.5546 29.8424 56.5728C29.8787 56.5909 29.9193 56.5988 29.9597 56.5955C30.0002 56.5921 30.039 56.5778 30.0718 56.5539L33.3085 54.6848C33.396 54.6284 33.4663 54.5489 33.5116 54.4551C33.5569 54.3614 33.5756 54.2569 33.5654 54.1533Z" fill="#C2C7D6"/>
<path d="M38.5705 51.2669L38.1253 48.1499C38.1246 48.1093 38.1129 48.0697 38.0913 48.0353C38.0696 48.001 38.039 47.9732 38.0027 47.9551C37.9664 47.9369 37.9258 47.9291 37.8853 47.9324C37.8449 47.9357 37.8061 47.9501 37.7733 47.9739L34.5366 49.8431C34.4494 49.8989 34.3794 49.9777 34.3343 50.071C34.2893 50.1642 34.271 50.2681 34.2814 50.3711L34.7249 53.488C34.7256 53.5286 34.7373 53.5682 34.759 53.6026C34.7806 53.637 34.8112 53.6647 34.8475 53.6829C34.8838 53.7011 34.9244 53.7089 34.9649 53.7056C35.0053 53.7022 35.0441 53.6879 35.0769 53.664L38.3136 51.7949C38.4006 51.7388 38.4705 51.6599 38.5158 51.5668C38.5611 51.4737 38.58 51.37 38.5705 51.2669Z" fill="#EBEBEB"/>
<path d="M43.5764 48.3792L43.1311 45.2622C43.1305 45.2216 43.1187 45.182 43.0971 45.1476C43.0755 45.1133 43.0449 45.0855 43.0086 45.0674C42.9723 45.0492 42.9317 45.0414 42.8912 45.0447C42.8508 45.048 42.812 45.0624 42.7791 45.0862L39.5425 46.9554C39.4553 47.0112 39.3852 47.0901 39.3402 47.1833C39.2951 47.2765 39.2768 47.3804 39.2873 47.4834L39.7308 50.6003C39.7314 50.6409 39.7432 50.6806 39.7648 50.7149C39.7864 50.7493 39.8171 50.7771 39.8534 50.7952C39.8897 50.8134 39.9303 50.8212 39.9707 50.8179C40.0112 50.8146 40.05 50.8002 40.0828 50.7763L43.3195 48.9072C43.4064 48.8511 43.4764 48.7722 43.5217 48.6791C43.567 48.586 43.5859 48.4823 43.5764 48.3792Z" fill="#EBEBEB"/>
<path d="M48.5764 45.4931L48.1312 42.3761C48.1305 42.3355 48.1188 42.2959 48.0972 42.2615C48.0755 42.2272 48.0449 42.1994 48.0086 42.1813C47.9723 42.1631 47.9317 42.1553 47.8912 42.1586C47.8508 42.1619 47.812 42.1763 47.7792 42.2001L44.5461 44.0728C44.459 44.1287 44.3891 44.2076 44.344 44.3008C44.299 44.394 44.2806 44.4978 44.2909 44.6008L44.7344 47.7177C44.735 47.7583 44.7468 47.798 44.7684 47.8323C44.79 47.8667 44.8206 47.8945 44.8569 47.9126C44.8932 47.9308 44.9338 47.9386 44.9743 47.9353C45.0147 47.9319 45.0535 47.9176 45.0864 47.8937L48.323 46.0246C48.41 45.9679 48.4797 45.8883 48.5244 45.7945C48.5692 45.7007 48.5872 45.5964 48.5764 45.4931Z" fill="#EBEBEB"/>
<path d="M53.5869 42.6073L53.1416 39.4921C53.1416 39.4512 53.1302 39.4112 53.1087 39.3764C53.0873 39.3417 53.0565 39.3136 53.02 39.2953C52.9834 39.2771 52.9425 39.2693 52.9018 39.273C52.8611 39.2767 52.8223 39.2916 52.7896 39.3161L49.5512 41.1835C49.4641 41.2394 49.3942 41.3183 49.3492 41.4115C49.3041 41.5047 49.2857 41.6085 49.296 41.7115L49.7395 44.8284C49.7401 44.869 49.7519 44.9086 49.7735 44.943C49.7951 44.9774 49.8258 45.0051 49.8621 45.0233C49.8984 45.0415 49.939 45.0493 49.9794 45.046C50.0199 45.0426 50.0586 45.0283 50.0915 45.0044L53.3281 43.1318C53.415 43.0763 53.485 42.9981 53.5307 42.9056C53.5763 42.8132 53.5957 42.71 53.5869 42.6073Z" fill="#EBEBEB"/>
<path d="M58.5921 39.7214L58.1468 36.6079C58.1468 36.5671 58.1354 36.527 58.1139 36.4923C58.0925 36.4575 58.0617 36.4294 58.0252 36.4112C57.9886 36.3929 57.9477 36.3852 57.907 36.3888C57.8663 36.3925 57.8275 36.4074 57.7948 36.4319L54.5599 38.3028C54.4726 38.3585 54.4024 38.4373 54.3574 38.5306C54.3123 38.6238 54.2941 38.7278 54.3047 38.8308L54.7482 41.946C54.7489 41.9866 54.7606 42.0263 54.7823 42.0606C54.8039 42.095 54.8345 42.1228 54.8708 42.1409C54.9071 42.1591 54.9477 42.1669 54.9882 42.1636C55.0286 42.1602 55.0674 42.1459 55.1002 42.122L58.3369 40.2529C58.4242 40.1964 58.4943 40.1169 58.5393 40.0231C58.5843 39.9293 58.6026 39.8249 58.5921 39.7214Z" fill="#EBEBEB"/>
<path d="M63.5978 36.8353L63.1525 33.7183C63.1525 33.6774 63.1411 33.6374 63.1196 33.6026C63.0981 33.5679 63.0674 33.5398 63.0309 33.5215C62.9943 33.5032 62.9534 33.4955 62.9127 33.4992C62.872 33.5028 62.8332 33.5178 62.8005 33.5423L59.5621 35.4114C59.4752 35.4674 59.4055 35.5464 59.3608 35.6396C59.316 35.7328 59.298 35.8366 59.3086 35.9394L59.7522 39.0546C59.7528 39.0952 59.7646 39.1348 59.7862 39.1692C59.8078 39.2036 59.8384 39.2313 59.8747 39.2495C59.911 39.2677 59.9516 39.2755 59.9921 39.2722C60.0325 39.2688 60.0713 39.2545 60.1042 39.2306L63.3408 37.3633C63.4276 37.307 63.4974 37.228 63.5427 37.135C63.588 37.042 63.607 36.9383 63.5978 36.8353Z" fill="#EBEBEB"/>
<path d="M32.6938 48.0471L32.2503 44.9301C32.2497 44.8895 32.2379 44.8499 32.2163 44.8155C32.1947 44.7811 32.1641 44.7534 32.1278 44.7352C32.0915 44.717 32.0509 44.7092 32.0104 44.7125C31.9699 44.7159 31.9312 44.7302 31.8983 44.7541L28.6582 46.6391C28.5714 46.6953 28.5017 46.7742 28.4567 46.8673C28.4117 46.9604 28.3931 47.0641 28.403 47.1671L28.8482 50.2823C28.8482 50.3231 28.8596 50.3632 28.8811 50.3979C28.9026 50.4327 28.9333 50.4608 28.9699 50.479C29.0064 50.4973 29.0473 50.505 29.088 50.5014C29.1287 50.4977 29.1676 50.4828 29.2002 50.4583L32.4386 48.5751C32.5257 48.5191 32.5956 48.4402 32.6407 48.347C32.6857 48.2538 32.7041 48.15 32.6938 48.0471Z" fill="#C2C7D6"/>
<path d="M37.6994 45.1672L37.2558 42.0502C37.2552 42.0096 37.2434 41.97 37.2218 41.9356C37.2002 41.9012 37.1696 41.8735 37.1333 41.8553C37.097 41.8372 37.0564 41.8293 37.0159 41.8327C36.9755 41.836 36.9367 41.8504 36.9038 41.8742L33.6672 43.7433C33.5804 43.7995 33.5107 43.8785 33.4657 43.9716C33.4207 44.0647 33.4021 44.1684 33.412 44.2713L33.8573 47.3883C33.8579 47.4289 33.8697 47.4685 33.8913 47.5029C33.9129 47.5372 33.9435 47.565 33.9798 47.5831C34.0161 47.6013 34.0567 47.6091 34.0972 47.6058C34.1377 47.6025 34.1764 47.5881 34.2093 47.5643L37.4459 45.6952C37.5328 45.6391 37.6025 45.5601 37.6472 45.4669C37.692 45.3737 37.71 45.27 37.6994 45.1672Z" fill="#EBEBEB"/>
<path d="M42.7049 42.2811L42.2614 39.1641C42.2607 39.1235 42.249 39.0839 42.2274 39.0495C42.2057 39.0151 42.1751 38.9874 42.1388 38.9692C42.1025 38.9511 42.0619 38.9432 42.0214 38.9465C41.981 38.9499 41.9422 38.9642 41.9094 38.9881L38.6727 40.8572C38.5861 40.9136 38.5165 40.9926 38.4715 41.0856C38.4265 41.1787 38.4079 41.2823 38.4175 41.3852L38.8628 44.5022C38.8634 44.5428 38.8752 44.5824 38.8968 44.6168C38.9184 44.6511 38.9491 44.6789 38.9854 44.6971C39.0217 44.7152 39.0623 44.7231 39.1027 44.7197C39.1432 44.7164 39.1819 44.702 39.2148 44.6782L42.4514 42.8091C42.5383 42.753 42.608 42.6741 42.6527 42.5809C42.6975 42.4877 42.7155 42.3839 42.7049 42.2811Z" fill="#EBEBEB"/>
<path d="M47.71 39.3951L47.2665 36.2781C47.2658 36.2375 47.2541 36.1979 47.2325 36.1635C47.2108 36.1292 47.1802 36.1014 47.1439 36.0832C47.1076 36.0651 47.067 36.0572 47.0265 36.0606C46.9861 36.0639 46.9473 36.0783 46.9145 36.1021L43.6778 37.9712C43.5912 38.0276 43.5216 38.1066 43.4766 38.1997C43.4317 38.2927 43.413 38.3963 43.4226 38.4992L43.8679 41.6162C43.8686 41.6568 43.8803 41.6964 43.9019 41.7308C43.9235 41.7652 43.9542 41.7929 43.9905 41.8111C44.0268 41.8292 44.0674 41.8371 44.1078 41.8337C44.1483 41.8304 44.1871 41.816 44.2199 41.7922L47.4565 39.9231C47.5434 39.8671 47.6131 39.7881 47.6578 39.6949C47.7026 39.6017 47.7206 39.4979 47.71 39.3951Z" fill="#EBEBEB"/>
<path d="M52.7159 36.509L52.2723 33.392C52.2717 33.3514 52.2599 33.3118 52.2383 33.2774C52.2167 33.243 52.1861 33.2153 52.1498 33.1971C52.1135 33.179 52.0729 33.1711 52.0324 33.1745C51.992 33.1778 51.9532 33.1922 51.9203 33.216L48.6837 35.0851C48.5971 35.1415 48.5275 35.2205 48.4825 35.3135C48.4375 35.4066 48.4188 35.5102 48.4285 35.6131L48.8738 38.7301C48.8744 38.7707 48.8862 38.8103 48.9078 38.8447C48.9294 38.879 48.96 38.9068 48.9963 38.925C49.0327 38.9431 49.0732 38.951 49.1137 38.9476C49.1542 38.9443 49.1929 38.9299 49.2258 38.9061L52.4624 37.037C52.5493 36.9809 52.619 36.902 52.6637 36.8088C52.7085 36.7156 52.7265 36.6118 52.7159 36.509Z" fill="#EBEBEB"/>
<path d="M57.7286 33.615L57.285 30.4981C57.2844 30.4575 57.2726 30.4179 57.251 30.3835C57.2294 30.3491 57.1988 30.3214 57.1625 30.3032C57.1262 30.285 57.0856 30.2772 57.0451 30.2805C57.0047 30.2839 56.9659 30.2982 56.933 30.3221L53.6805 32.207C53.5939 32.2634 53.5243 32.3424 53.4793 32.4355C53.4343 32.5285 53.4157 32.6321 53.4253 32.735L53.8706 35.852C53.8712 35.8926 53.883 35.9322 53.9046 35.9666C53.9262 36.001 53.9569 36.0287 53.9932 36.0469C54.0295 36.065 54.0701 36.0729 54.1105 36.0696C54.151 36.0662 54.1898 36.0519 54.2226 36.028L57.4663 34.143C57.555 34.0883 57.6265 34.0098 57.6729 33.9165C57.7192 33.8232 57.7385 33.7188 57.7286 33.615Z" fill="#EBEBEB"/>
<path d="M62.7265 30.7354L62.283 27.6202C62.2823 27.5796 62.2706 27.5399 62.2489 27.5056C62.2273 27.4712 62.1967 27.4434 62.1604 27.4253C62.1241 27.4071 62.0835 27.3993 62.043 27.4026C62.0026 27.4059 61.9638 27.4203 61.9309 27.4442L58.6943 29.3115C58.6075 29.3677 58.5378 29.4467 58.4928 29.5398C58.4478 29.6329 58.4292 29.7366 58.4391 29.8395L58.8844 32.9565C58.885 32.9971 58.8968 33.0367 58.9184 33.0711C58.94 33.1054 58.9706 33.1332 59.0069 33.1514C59.0432 33.1695 59.0838 33.1774 59.1243 33.174C59.1648 33.1707 59.2035 33.1563 59.2364 33.1325L62.4801 31.2598C62.5652 31.2034 62.6332 31.1246 62.6767 31.0321C62.7202 30.9396 62.7374 30.837 62.7265 30.7354Z" fill="#EBEBEB"/>
<path d="M31.8249 41.9535L31.3796 38.8383C31.3796 38.7974 31.3682 38.7574 31.3467 38.7226C31.3252 38.6879 31.2945 38.6598 31.258 38.6415C31.2214 38.6232 31.1805 38.6155 31.1398 38.6192C31.0991 38.6228 31.0603 38.6378 31.0276 38.6623L27.7909 40.5296C27.7039 40.5856 27.6339 40.6645 27.5889 40.7577C27.5439 40.8509 27.5255 40.9547 27.5357 41.0576L27.9845 44.1746C27.9845 44.2155 27.9959 44.2555 28.0174 44.2903C28.0389 44.325 28.0696 44.3531 28.1061 44.3714C28.1427 44.3897 28.1836 44.3974 28.2243 44.3937C28.265 44.39 28.3038 44.3751 28.3365 44.3506L31.5732 42.4815C31.6599 42.4254 31.7293 42.3463 31.7738 42.2531C31.8182 42.1599 31.8359 42.0562 31.8249 41.9535Z" fill="#C2C7D6"/>
<path d="M36.8299 39.0713L36.3847 35.9561C36.3847 35.9152 36.3733 35.8752 36.3518 35.8404C36.3303 35.8057 36.2996 35.7776 36.263 35.7593C36.2265 35.741 36.1856 35.7333 36.1449 35.737C36.1042 35.7406 36.0653 35.7556 36.0327 35.7801L32.796 37.6492C32.7087 37.7049 32.6385 37.7837 32.5934 37.877C32.5484 37.9702 32.5301 38.0742 32.5408 38.1772L32.9861 41.2924C32.9861 41.3333 32.9975 41.3733 33.0189 41.4081C33.0404 41.4428 33.0712 41.4709 33.1077 41.4892C33.1442 41.5075 33.1852 41.5152 33.2258 41.5115C33.2665 41.5078 33.3054 41.4929 33.3381 41.4684L36.5747 39.5993C36.6621 39.5436 36.7322 39.4648 36.7773 39.3715C36.8224 39.2783 36.8406 39.1743 36.8299 39.0713Z" fill="#EBEBEB"/>
<path d="M41.8358 36.183L41.3905 33.0661C41.3905 33.0252 41.3791 32.9852 41.3576 32.9504C41.3362 32.9157 41.3054 32.8876 41.2689 32.8693C41.2323 32.851 41.1914 32.8433 41.1507 32.847C41.1101 32.8506 41.0712 32.8656 41.0385 32.8901L37.8019 34.7592C37.7145 34.8148 37.6444 34.8937 37.5993 34.987C37.5542 35.0802 37.536 35.1842 37.5467 35.2872L37.9919 38.4024C37.9919 38.4432 38.0033 38.4833 38.0248 38.518C38.0463 38.5528 38.077 38.5809 38.1136 38.5992C38.1501 38.6174 38.191 38.6252 38.2317 38.6215C38.2724 38.6178 38.3113 38.6029 38.3439 38.5784L41.5806 36.711C41.6677 36.6551 41.7376 36.5762 41.7826 36.483C41.8276 36.3898 41.846 36.286 41.8358 36.183Z" fill="#EBEBEB"/>
<path d="M46.8409 33.297L46.3956 30.1801C46.3956 30.1392 46.3843 30.0992 46.3628 30.0644C46.3413 30.0297 46.3106 30.0016 46.274 29.9833C46.2375 29.965 46.1966 29.9573 46.1559 29.961C46.1152 29.9646 46.0763 29.9796 46.0436 30.0041L42.807 31.8732C42.7196 31.9288 42.6495 32.0077 42.6044 32.101C42.5594 32.1942 42.5411 32.2982 42.5518 32.4012L42.9953 35.5182C42.9959 35.5587 43.0077 35.5984 43.0293 35.6327C43.0509 35.6671 43.0816 35.6949 43.1179 35.713C43.1542 35.7312 43.1948 35.739 43.2352 35.7357C43.2757 35.7324 43.3145 35.718 43.3473 35.6942L46.584 33.825C46.6713 33.7693 46.7416 33.6905 46.787 33.5973C46.8323 33.5041 46.851 33.4002 46.8409 33.297Z" fill="#EBEBEB"/>
<path d="M51.8468 30.4109L51.4015 27.294C51.4015 27.2531 51.3901 27.2131 51.3687 27.1783C51.3472 27.1436 51.3164 27.1155 51.2799 27.0972C51.2434 27.0789 51.2024 27.0712 51.1618 27.0749C51.1211 27.0785 51.0822 27.0935 51.0495 27.118L47.8129 28.9871C47.7255 29.0427 47.6554 29.1216 47.6103 29.2149C47.5652 29.3081 47.547 29.4121 47.5577 29.5151L48.0012 32.6321C48.0018 32.6726 48.0136 32.7123 48.0352 32.7466C48.0568 32.781 48.0874 32.8088 48.1237 32.8269C48.16 32.8451 48.2006 32.8529 48.2411 32.8496C48.2816 32.8463 48.3203 32.8319 48.3532 32.8081L51.5898 30.9389C51.6774 30.8834 51.7477 30.8046 51.7931 30.7113C51.8385 30.6181 51.8571 30.5141 51.8468 30.4109Z" fill="#EBEBEB"/>
<path d="M56.8484 27.5232L56.4031 24.4063C56.4031 24.3654 56.3917 24.3254 56.3702 24.2906C56.3488 24.2559 56.318 24.2278 56.2815 24.2095C56.2449 24.1912 56.204 24.1835 56.1633 24.1872C56.1226 24.1908 56.0838 24.2058 56.0511 24.2303L52.8145 26.0994C52.7272 26.1552 52.6572 26.2341 52.6122 26.3273C52.5671 26.4205 52.5488 26.5244 52.5593 26.6274L53.0045 29.7426C53.0052 29.7832 53.0169 29.8228 53.0385 29.8572C53.0602 29.8915 53.0908 29.9193 53.1271 29.9375C53.1634 29.9556 53.204 29.9635 53.2445 29.9601C53.2849 29.9568 53.3237 29.9424 53.3565 29.9186L56.5932 28.0495C56.6801 27.9938 56.7499 27.9152 56.795 27.8223C56.84 27.7295 56.8585 27.626 56.8484 27.5232Z" fill="#EBEBEB"/>
<path d="M61.8574 24.6391L61.4121 21.5221C61.4121 21.4813 61.4007 21.4412 61.3793 21.4065C61.3578 21.3717 61.3271 21.3436 61.2905 21.3254C61.254 21.3071 61.2131 21.2993 61.1724 21.303C61.1317 21.3067 61.0928 21.3216 61.0601 21.3461L57.8235 23.2152C57.7363 23.271 57.6663 23.3499 57.6212 23.4431C57.5762 23.5364 57.5578 23.6402 57.5683 23.7432L58.0118 26.8602C58.0124 26.9008 58.0242 26.9404 58.0458 26.9748C58.0674 27.0092 58.0981 27.0369 58.1344 27.0551C58.1707 27.0732 58.2113 27.0811 58.2517 27.0777C58.2922 27.0744 58.331 27.06 58.3638 27.0362L61.6004 25.1671C61.688 25.1115 61.7584 25.0327 61.8037 24.9395C61.8491 24.8463 61.8677 24.7423 61.8574 24.6391Z" fill="#EBEBEB"/>
<path d="M31.0556 36.4456L30.9429 35.6501C30.9429 35.6092 30.9316 35.5691 30.9101 35.5344C30.8886 35.4996 30.8579 35.4716 30.8213 35.4533C30.7848 35.435 30.7439 35.4273 30.7032 35.4309C30.6625 35.4346 30.6236 35.4495 30.5909 35.4741L27.3525 37.3467C27.2653 37.4025 27.1953 37.4814 27.1503 37.5746C27.1052 37.6678 27.0869 37.7717 27.0973 37.8747L27.2082 38.6702C27.2089 38.7108 27.2206 38.7504 27.2422 38.7848C27.2638 38.8192 27.2945 38.8469 27.3308 38.8651C27.3671 38.8832 27.4077 38.8911 27.4481 38.8878C27.4886 38.8844 27.5274 38.8701 27.5602 38.8462L30.8004 36.97C30.8866 36.9141 30.9559 36.8357 31.0009 36.7433C31.0459 36.6509 31.0648 36.5479 31.0556 36.4456Z" fill="#E6E6E6"/>
<path d="M36.0605 33.5595L35.9478 32.7639C35.9478 32.7231 35.9365 32.683 35.915 32.6483C35.8935 32.6135 35.8628 32.5854 35.8262 32.5672C35.7897 32.5489 35.7488 32.5412 35.7081 32.5448C35.6674 32.5485 35.6285 32.5634 35.5958 32.5879L32.3574 34.4606C32.2702 34.5164 32.2002 34.5953 32.1551 34.6885C32.1101 34.7817 32.0918 34.8856 32.1022 34.9886L32.2131 35.7841C32.2137 35.8247 32.2255 35.8643 32.2471 35.8987C32.2687 35.9331 32.2994 35.9608 32.3357 35.979C32.372 35.9971 32.4126 36.005 32.453 36.0017C32.4935 35.9983 32.5323 35.984 32.5651 35.9601L35.8035 34.091C35.8912 34.0347 35.9616 33.9553 36.0069 33.8615C36.0523 33.7677 36.0708 33.6631 36.0605 33.5595Z" fill="#E6E6E6"/>
<path d="M41.0666 30.6718L40.9539 29.8763C40.9533 29.8357 40.9415 29.796 40.9199 29.7617C40.8983 29.7273 40.8677 29.6995 40.8314 29.6814C40.7951 29.6632 40.7545 29.6554 40.714 29.6587C40.6736 29.662 40.6348 29.6764 40.6019 29.7003L37.3635 31.5729C37.2763 31.6287 37.2063 31.7076 37.1612 31.8008C37.1162 31.894 37.0979 31.9979 37.1083 32.1009L37.2192 32.8964C37.2192 32.9373 37.2306 32.9773 37.2521 33.0121C37.2736 33.0468 37.3043 33.0749 37.3408 33.0932C37.3774 33.1115 37.4183 33.1192 37.459 33.1155C37.4997 33.1119 37.5385 33.0969 37.5712 33.0724L40.8096 31.2033C40.8973 31.147 40.9677 31.0676 41.013 30.9738C41.0584 30.88 41.0769 30.7755 41.0666 30.6718Z" fill="#E6E6E6"/>
<path d="M46.0715 27.7874L45.9588 26.9901C45.9582 26.9496 45.9464 26.9099 45.9248 26.8756C45.9032 26.8412 45.8726 26.8134 45.8363 26.7953C45.8 26.7771 45.7594 26.7693 45.7189 26.7726C45.6784 26.7759 45.6397 26.7903 45.6068 26.8141L42.3684 28.6868C42.2812 28.7426 42.2112 28.8215 42.1661 28.9147C42.1211 29.0079 42.1028 29.1118 42.1132 29.2148L42.2241 30.0103C42.2241 30.0512 42.2355 30.0912 42.257 30.126C42.2784 30.1607 42.3092 30.1888 42.3457 30.2071C42.3823 30.2254 42.4232 30.2331 42.4639 30.2294C42.5045 30.2258 42.5434 30.2108 42.5761 30.1863L45.8145 28.3189C45.9019 28.2624 45.9721 28.1829 46.0174 28.0892C46.0627 27.9954 46.0814 27.8911 46.0715 27.7874Z" fill="#E6E6E6"/>
<path d="M51.0772 24.9013L50.9646 24.104C50.9639 24.0634 50.9522 24.0238 50.9306 23.9894C50.9089 23.9551 50.8783 23.9273 50.842 23.9092C50.8057 23.891 50.7651 23.8832 50.7246 23.8865C50.6842 23.8898 50.6454 23.9042 50.6126 23.928L47.3742 25.8007C47.2871 25.8566 47.2172 25.9355 47.1722 26.0287C47.1271 26.1219 47.1087 26.2257 47.119 26.3287L47.2299 27.1242C47.2299 27.165 47.2412 27.2051 47.2627 27.2398C47.2842 27.2746 47.3149 27.3027 47.3515 27.321C47.388 27.3392 47.4289 27.347 47.4696 27.3433C47.5103 27.3396 47.5492 27.3247 47.5819 27.3002L50.8202 25.4328C50.9076 25.3763 50.9778 25.2968 51.0231 25.203C51.0684 25.1093 51.0872 25.0049 51.0772 24.9013Z" fill="#E6E6E6"/>
<path d="M56.0831 22.0155L55.9704 21.22C55.9704 21.1791 55.9591 21.1391 55.9376 21.1043C55.9161 21.0696 55.8854 21.0415 55.8488 21.0232C55.8123 21.005 55.7714 20.9972 55.7307 21.0009C55.69 21.0046 55.6511 21.0195 55.6184 21.044L52.38 22.9149C52.293 22.9708 52.2231 23.0497 52.178 23.1429C52.133 23.2361 52.1146 23.3399 52.1248 23.4429L52.2357 24.2402C52.2364 24.2807 52.2481 24.3204 52.2697 24.3547C52.2913 24.3891 52.322 24.4169 52.3583 24.435C52.3946 24.4532 52.4352 24.461 52.4756 24.4577C52.5161 24.4544 52.5549 24.44 52.5877 24.4162L55.8261 22.547C55.9137 22.4906 55.984 22.4111 56.0293 22.3174C56.0746 22.2236 56.0932 22.1192 56.0831 22.0155Z" fill="#E6E6E6"/>
<path d="M61.0863 19.1278L60.9755 18.3323C60.9755 18.2914 60.9641 18.2514 60.9426 18.2166C60.9211 18.1819 60.8904 18.1538 60.8538 18.1355C60.8173 18.1173 60.7764 18.1095 60.7357 18.1132C60.695 18.1169 60.6562 18.1318 60.6235 18.1563L57.3868 20.0254C57.2995 20.0811 57.2293 20.1599 57.1843 20.2532C57.1392 20.3464 57.121 20.4504 57.1316 20.5534L57.2425 21.3489C57.2431 21.3895 57.2549 21.4292 57.2765 21.4635C57.2981 21.4979 57.3288 21.5257 57.3651 21.5438C57.4014 21.562 57.442 21.5698 57.4824 21.5665C57.5229 21.5632 57.5617 21.5488 57.5945 21.5249L60.8329 19.6558C60.9197 19.5997 60.9892 19.5207 61.0339 19.4275C61.0786 19.3343 61.0968 19.2306 61.0863 19.1278Z" fill="#E6E6E6"/>
<path opacity="0.2" d="M27.2806 31.7464C27.2647 31.5139 27.3127 31.2814 27.4194 31.0741C27.5261 30.8669 27.6875 30.6928 27.886 30.5707C28.2803 30.3437 28.6481 30.5003 28.7097 30.9227C28.726 31.1555 28.678 31.3883 28.5709 31.5957C28.4638 31.8031 28.3018 31.977 28.1025 32.0984C27.71 32.3255 27.3422 32.1688 27.2806 31.7464Z" fill="black"/>
<path opacity="0.2" d="M32.2907 28.8637C32.2744 28.6311 32.3222 28.3985 32.429 28.1912C32.5357 27.9839 32.6973 27.8099 32.8962 27.6881C33.2904 27.4593 33.6582 27.6159 33.7198 28.0401C33.736 28.2726 33.688 28.5051 33.5809 28.7122C33.4738 28.9192 33.3118 29.0928 33.1126 29.214C32.7184 29.434 32.3506 29.2773 32.2907 28.8637Z" fill="black"/>
<path opacity="0.2" d="M37.2907 25.9679C37.2744 25.7353 37.3222 25.5026 37.429 25.2953C37.5357 25.088 37.6973 24.914 37.8962 24.7922C38.2904 24.5634 38.66 24.72 38.7198 25.1442C38.736 25.3765 38.6881 25.6089 38.5814 25.8159C38.4746 26.0229 38.3131 26.1966 38.1144 26.3181C37.7202 26.5451 37.3506 26.3885 37.2907 25.9679Z" fill="black"/>
<path opacity="0.2" d="M47.2988 20.1904C47.2825 19.9578 47.3303 19.7251 47.437 19.5178C47.5438 19.3105 47.7054 19.1365 47.9042 19.0147C48.2984 18.7877 48.6663 18.9443 48.7261 19.3667C48.7432 19.5994 48.6958 19.8323 48.5889 20.0398C48.4821 20.2472 48.3201 20.4211 48.1207 20.5424C47.7265 20.7676 47.3586 20.6128 47.2988 20.1904Z" fill="black"/>
<path opacity="0.2" d="M52.308 17.2999C52.2912 17.0672 52.3389 16.8345 52.4457 16.6271C52.5525 16.4197 52.7143 16.2457 52.9134 16.1242C53.3076 15.8954 53.6755 16.0521 53.7371 16.4762C53.7534 16.709 53.7054 16.9418 53.5983 17.1492C53.4912 17.3565 53.3292 17.5305 53.1299 17.6519C52.7356 17.8772 52.3678 17.7205 52.308 17.2999Z" fill="black"/>
<path opacity="0.2" d="M57.3078 14.4118C57.2915 14.1792 57.3393 13.9466 57.4461 13.7393C57.5528 13.532 57.7144 13.358 57.9132 13.2362C58.3075 13.0074 58.6771 13.164 58.7369 13.5882C58.7531 13.8205 58.7052 14.0528 58.5985 14.2598C58.4917 14.4668 58.3302 14.6405 58.1315 14.7621C57.7285 14.9891 57.3764 14.8325 57.3078 14.4118Z" fill="black"/>
<path d="M26.7631 26.9903C26.2351 26.6823 25.7177 26.6383 25.3234 26.8653C24.9292 27.0924 24.7109 27.557 24.7109 28.1748C24.7144 28.4637 24.757 28.7509 24.8377 29.0284L25.1509 28.8524C25.0947 28.632 25.0651 28.4057 25.0629 28.1783C25.0629 27.6925 25.2178 27.3352 25.4994 27.1733C25.615 27.1088 25.7455 27.076 25.8778 27.0783C26.1274 27.0902 26.3698 27.1659 26.5818 27.2983C27.5181 27.8404 28.2802 29.1604 28.2802 30.241C28.2807 30.318 28.2766 30.395 28.2679 30.4716C28.2636 30.6248 28.2231 30.7749 28.1497 30.9095C28.0762 31.0441 27.972 31.1594 27.8455 31.246C27.6841 31.3331 27.498 31.3629 27.3175 31.3304C27.282 31.4442 27.2671 31.5634 27.2735 31.6824C27.3393 31.6929 27.4058 31.6982 27.4724 31.6983C27.6662 31.7007 27.8571 31.6508 28.025 31.554C28.1821 31.4554 28.3153 31.3231 28.4149 31.1666C28.5144 31.0101 28.5779 30.8334 28.6005 30.6493C28.6243 30.5157 28.636 30.3802 28.6357 30.2445C28.6375 29.0389 27.7962 27.5869 26.7631 26.9903Z" fill="#F5F5F5"/>
<path d="M31.7721 24.1003C31.2441 23.7923 30.7267 23.7483 30.3325 23.9753C29.9382 24.2024 29.72 24.667 29.72 25.2848C29.7234 25.5737 29.766 25.8609 29.8467 26.1384L30.16 25.9624C30.1037 25.742 30.0742 25.5157 30.072 25.2883C30.072 24.8025 30.2269 24.4452 30.5085 24.2833C30.624 24.2188 30.7545 24.186 30.8869 24.1883C31.1365 24.2002 31.3789 24.2759 31.5909 24.4083C32.5272 24.9504 33.2893 26.2704 33.2893 27.351C33.2898 27.428 33.2857 27.505 33.2769 27.5816C33.2726 27.7348 33.2321 27.8849 33.1587 28.0195C33.0853 28.154 32.981 28.2694 32.8545 28.356C32.6932 28.4431 32.507 28.4729 32.3265 28.4404C32.291 28.5542 32.2761 28.6734 32.2825 28.7924C32.3483 28.8029 32.4148 28.8082 32.4814 28.8083C32.6752 28.8107 32.8662 28.7608 33.0341 28.664C33.1912 28.5654 33.3244 28.4331 33.4239 28.2766C33.5235 28.1201 33.5869 27.9434 33.6096 27.7593C33.6333 27.6257 33.6451 27.4902 33.6448 27.3545C33.6465 26.1542 32.8053 24.6969 31.7721 24.1003Z" fill="#F5F5F5"/>
<path d="M36.7721 21.2122C36.2441 20.9042 35.7267 20.8602 35.3324 21.0873C34.9382 21.3143 34.72 21.7789 34.72 22.3967C34.7234 22.6856 34.766 22.9728 34.8467 23.2503L35.16 23.0743C35.1037 22.8539 35.0742 22.6276 35.072 22.4002C35.072 21.9144 35.2268 21.5572 35.5084 21.3953C35.624 21.3307 35.7545 21.2979 35.8868 21.3002C36.1365 21.3121 36.3789 21.3879 36.5908 21.5202C37.5272 22.0623 38.2892 23.3823 38.2892 24.4629C38.2898 24.54 38.2857 24.617 38.2769 24.6935C38.2726 24.8467 38.2321 24.9968 38.1587 25.1314C38.0853 25.266 37.981 25.3813 37.8545 25.4679C37.6932 25.555 37.507 25.5848 37.3265 25.5524C37.291 25.6661 37.2761 25.7853 37.2825 25.9044C37.3483 25.9148 37.4148 25.9201 37.4814 25.9202C37.6752 25.9226 37.8661 25.8728 38.034 25.7759C38.1912 25.6773 38.3244 25.545 38.4239 25.3885C38.5235 25.232 38.5869 25.0553 38.6096 24.8712C38.6333 24.7376 38.6451 24.6022 38.6448 24.4664C38.6465 23.2661 37.8052 21.8088 36.7721 21.2122Z" fill="#F5F5F5"/>
<path d="M46.7812 15.444C46.2532 15.136 45.7357 15.092 45.3415 15.3191C44.9472 15.5461 44.729 16.0107 44.729 16.6285C44.7324 16.9175 44.7751 17.2046 44.8557 17.4821L45.169 17.3061C45.1128 17.0857 45.0832 16.8594 45.081 16.632C45.081 16.1463 45.2359 15.789 45.5175 15.6271C45.633 15.5625 45.7636 15.5298 45.8959 15.532C46.1455 15.5439 46.3879 15.6197 46.5999 15.752C47.5362 16.2941 48.2983 17.6141 48.2983 18.6947C48.2988 18.7718 48.2947 18.8488 48.286 18.9253C48.2817 19.0786 48.2411 19.2286 48.1677 19.3632C48.0943 19.4978 47.9901 19.6131 47.8636 19.6997C47.7022 19.7868 47.5161 19.8166 47.3356 19.7842C47.3 19.898 47.2851 20.0172 47.2916 20.1362C47.3573 20.1466 47.4238 20.1519 47.4904 20.152C47.6843 20.1544 47.8752 20.1046 48.0431 20.0077C48.2002 19.9092 48.3334 19.7768 48.433 19.6203C48.5325 19.4639 48.5959 19.2871 48.6186 19.1031C48.6423 18.9694 48.6541 18.834 48.6538 18.6983C48.6556 17.4979 47.8143 16.0407 46.7812 15.444Z" fill="#F5F5F5"/>
<path d="M51.79 12.5521C51.262 12.2441 50.7445 12.2001 50.3503 12.4271C49.956 12.6541 49.7378 13.1188 49.7378 13.7365C49.7412 14.0255 49.7839 14.3126 49.8645 14.5901L50.1778 14.4141C50.1215 14.1938 50.092 13.9675 50.0898 13.7401C50.0898 13.2543 50.2447 12.897 50.5263 12.7351C50.6418 12.6706 50.7724 12.6378 50.9047 12.6401C51.1543 12.652 51.3967 12.7277 51.6087 12.8601C52.545 13.4021 53.3071 14.7221 53.3071 15.8028C53.3076 15.8798 53.3035 15.9568 53.2948 16.0333C53.2904 16.1866 53.2499 16.3366 53.1765 16.4712C53.1031 16.6058 52.9989 16.7211 52.8724 16.8077C52.711 16.8949 52.5248 16.9247 52.3444 16.8922C52.3088 17.006 52.2939 17.1252 52.3004 17.2442C52.3661 17.2547 52.4326 17.26 52.4992 17.2601C52.6931 17.2625 52.884 17.2126 53.0519 17.1157C53.209 17.0172 53.3422 16.8849 53.4417 16.7284C53.5413 16.5719 53.6047 16.3952 53.6274 16.2111C53.6511 16.0775 53.6629 15.942 53.6626 15.8063C53.6644 14.6077 52.8231 13.1487 51.79 12.5521Z" fill="#F5F5F5"/>
<path d="M56.79 9.66399C56.262 9.35599 55.7446 9.31199 55.3503 9.53903C54.9561 9.76607 54.7361 10.2307 54.7361 10.8485C54.7395 11.1374 54.7821 11.4246 54.8628 11.7021L55.1761 11.5261C55.1198 11.3057 55.0903 11.0794 55.0881 10.852C55.0881 10.3662 55.243 10.009 55.5246 9.84703C55.6401 9.78251 55.7707 9.74972 55.903 9.75199C56.1526 9.7639 56.395 9.83965 56.607 9.97199C57.5433 10.5141 58.3054 11.8341 58.3054 12.9147C58.3059 12.9917 58.3018 13.0687 58.293 13.1453C58.2887 13.2985 58.2482 13.4486 58.1748 13.5832C58.1014 13.7178 57.9972 13.8331 57.8706 13.9197C57.7093 14.0068 57.5231 14.0366 57.3426 14.0042C57.3071 14.1179 57.2922 14.2371 57.2986 14.3562C57.3644 14.3666 57.4309 14.3719 57.4975 14.372C57.6914 14.3744 57.8823 14.3246 58.0502 14.2277C58.2073 14.1291 58.3405 13.9968 58.44 13.8403C58.5396 13.6838 58.603 13.5071 58.6257 13.323C58.6494 13.1894 58.6612 13.0539 58.6609 12.9182C58.6644 11.7179 57.8231 10.2606 56.79 9.66399Z" fill="#F5F5F5"/>
</svg>
