<svg width="80" height="80" viewBox="0 0 80 80" fill="none" xmlns="http://www.w3.org/2000/svg">
<path d="M11.9844 27.625H68.1875V68.5312H11.9844V27.625Z" fill="#F2F2F2"/>
<path d="M63.2031 30.0312H72.6562V65.7812H63.2031V30.0312Z" fill="#B8C3DE"/>
<path d="M16.7969 65.0938H7.34375V31.4062H16.7969V65.0938Z" fill="#B8C3DE"/>
<path d="M60.4473 27.0186H75.4416V30.4266C75.4416 31.9322 74.2213 33.1525 72.7157 33.1525H63.1737C61.6675 33.1525 60.4473 31.9322 60.4473 30.4266V27.0186Z" fill="#7B858F"/>
<path d="M63.1737 63.1416H72.7157C74.2213 63.1416 75.4416 64.3625 75.4416 65.8681V69.2761H60.4473V65.8681C60.4473 64.3625 61.6675 63.1416 63.1737 63.1416Z" fill="#7B858F"/>
<path d="M16.8265 33.1525H7.28445C5.77887 33.1525 4.55859 31.9322 4.55859 30.4266V27.0186H19.5529V30.4266C19.5529 31.9322 18.3326 33.1525 16.8265 33.1525Z" fill="#7B858F"/>
<path d="M19.5529 69.2761H4.55859V65.8681C4.55859 64.3625 5.77887 63.1416 7.28445 63.1416H16.8265C18.3326 63.1416 19.5529 64.3625 19.5529 65.8681V69.2761Z" fill="#7B858F"/>
<path d="M3.21875 20.4062H78.1562V26.2629C78.1562 27.015 77.5461 27.625 76.7937 27.625H4.58134C3.8289 27.625 3.21875 27.015 3.21875 26.2629V20.4062Z" fill="#0A4269"/>
<path d="M4.58134 68.5312H76.7937C77.5461 68.5312 78.1562 69.147 78.1562 69.9064V76.7812H3.21875V69.9064C3.21875 69.147 3.8289 68.5312 4.58134 68.5312Z" fill="#0A4269"/>
<path d="M78.168 22.2969H1.83198C1.07919 22.2969 0.468751 21.6854 0.468751 20.9312V13.7442C0.468148 13.1472 0.854798 12.619 1.42301 12.4402L38.7882 0.825076C39.5778 0.579141 40.4222 0.579141 41.2118 0.825076L78.577 12.4402C79.1452 12.619 79.5319 13.1472 79.5312 13.7442V20.9312C79.5312 21.6854 78.9208 22.2969 78.168 22.2969Z" fill="#0A4269"/>
<path d="M5.96875 16.7969V16.724L39.5916 6.20211C39.8542 6.12013 40.1349 6.12013 40.3976 6.20211L74.0312 16.724V16.7969H5.96875Z" fill="#0A4269"/>
<path d="M1.83198 74.0312H78.168C78.9208 74.0312 79.5312 74.647 79.5312 75.4062V78.1562C79.5312 78.9155 78.9208 79.5312 78.168 79.5312H1.83198C1.07919 79.5312 0.46875 78.9155 0.46875 78.1562V75.4062C0.46875 74.647 1.07919 74.0312 1.83198 74.0312Z" fill="#0A4269"/>
<path d="M55 47.0003C55 55.2846 48.2845 62 40 62C31.7155 62 25 55.2846 25 47.0003C25 38.716 31.7155 32 40 32C48.2845 32 55 38.716 55 47.0003Z" fill="#B8C3DE"/>
<path d="M46.3274 45.6903H45.2855V40.9091H42.5305V45.6903H40.044L36.7649 40.9091H34.3359V45.6903H33.2876V46.9688H34.3359V48.4517H33.2876V49.7301H34.3359V54H37.1037V49.7301H39.9418L42.8949 54H45.2855V49.7301H46.3274V48.4517H45.2855V46.9688H46.3274V45.6903ZM38.0369 46.9688L39.0597 48.4517H37.1037V46.9688H38.0369ZM42.5305 46.9688V48.4517H41.9425L40.9261 46.9688H42.5305Z" fill="white"/>
</svg>
