<svg width="240" height="240" viewBox="0 0 240 240" fill="none" xmlns="http://www.w3.org/2000/svg">
<path d="M161.626 219.638C191.977 219.638 216.581 216.209 216.581 211.978C216.581 207.747 191.977 204.317 161.626 204.317C131.275 204.317 106.67 207.747 106.67 211.978C106.67 216.209 131.275 219.638 161.626 219.638Z" fill="#EBEBEB"/>
<path d="M220.79 201.173L195.595 201.293L170.395 201.331L120 201.413L69.6047 201.331L44.4095 201.293L19.2095 201.173L44.4095 201.058L69.6047 201.014L120 200.933L170.395 201.014L195.595 201.058L220.79 201.173Z" fill="#263238"/>
<path d="M154.646 152.962C154.646 152.962 156.96 150.495 160.032 151.2C163.104 151.906 163.781 156.442 167.021 157.541C170.261 158.64 174.288 156.581 176.89 158.357C179.491 160.133 178.901 164.563 180.048 165.298C181.195 166.032 169.584 166.411 169.584 166.411C169.584 166.411 156.307 156.394 154.757 153.312" fill="#C2C7D6"/>
<path opacity="0.2" d="M154.646 152.962C154.646 152.962 156.96 150.495 160.032 151.2C163.104 151.906 163.781 156.442 167.021 157.541C170.261 158.64 174.288 156.581 176.89 158.357C179.491 160.133 178.901 164.563 180.048 165.298C181.195 166.032 169.584 166.411 169.584 166.411C169.584 166.411 156.307 156.394 154.757 153.312" fill="black"/>
<path d="M186.83 206.294C185.635 207.197 179.846 205.286 178.32 205.536C176.794 205.786 169.589 208.742 161.52 209.222C153.451 209.702 148.738 206.885 147.461 206.616C146.184 206.347 141.01 207.61 139.522 206.4C138.034 205.19 140.626 200.237 140.626 200.237C139.802 199.165 139.2 197.939 138.854 196.632C138.192 194.381 137.894 191.107 139.123 186.883C141.696 178.19 155.285 172.603 157.541 171.264C159.797 169.925 161.789 165.307 157.848 160.061L157.474 159.581C157.219 159.226 156.994 158.89 156.773 158.568C156.761 158.545 156.747 158.524 156.73 158.506C154.061 154.464 154.656 152.99 154.656 152.99C155.233 153.963 156.061 154.761 157.054 155.303C158.046 155.844 159.166 156.108 160.296 156.067C164.386 156.067 169.824 153.758 172.474 155.002C175.123 156.245 173.237 161.213 173.784 162.629C174.331 164.045 175.037 163.829 177.965 163.445C180.893 163.061 185.362 166.325 181.387 166.574C177.413 166.824 171.763 168.178 173.179 171.955C173.414 172.537 173.752 173.072 174.178 173.534L174.226 173.587C174.249 173.617 174.274 173.644 174.302 173.669L174.35 173.726C175.742 175.238 177.994 176.774 180.235 178.526H180.259C180.806 178.958 181.354 179.405 181.886 179.875C183.71 181.469 185.366 183.259 186.346 185.376C190.536 194.448 185.251 199.675 185.597 199.92C185.942 200.165 188.021 205.392 186.83 206.294Z" fill="#C2C7D6"/>
<g opacity="0.2">
<path opacity="0.2" d="M147.456 206.616C147.04 206.641 146.624 206.574 146.237 206.419C145.857 206.273 145.496 206.082 145.162 205.848C144.661 205.505 144.222 205.078 143.866 204.586C143.749 204.418 143.644 204.241 143.554 204.058C143.741 204.136 143.922 204.228 144.096 204.331C144.274 204.427 144.437 204.533 144.605 204.639C144.931 204.84 145.243 205.061 145.565 205.272L146.496 205.93L147.456 206.616Z" fill="black"/>
<path opacity="0.2" d="M178.282 205.536L179.28 204.903L180.24 204.298C180.567 204.101 180.888 203.899 181.229 203.712C181.402 203.621 181.57 203.525 181.752 203.439C181.932 203.345 182.118 203.263 182.309 203.194C182.209 203.374 182.095 203.546 181.968 203.707C181.84 203.863 181.704 204.012 181.56 204.154C181.268 204.436 180.946 204.686 180.6 204.898C180.253 205.109 179.882 205.279 179.496 205.407C179.105 205.534 178.691 205.578 178.282 205.536Z" fill="black"/>
<path opacity="0.2" d="M160.09 171.802C159.722 172.221 159.31 172.599 158.861 172.93C158.42 173.261 157.958 173.564 157.478 173.837C156.998 174.109 156.501 174.349 155.99 174.557C155.475 174.769 154.939 174.93 154.392 175.037C154.82 174.689 155.269 174.369 155.736 174.077C156.216 173.784 156.662 173.501 157.133 173.237C157.603 172.973 158.093 172.714 158.573 172.474C159.066 172.222 159.572 171.997 160.09 171.802Z" fill="black"/>
<path opacity="0.2" d="M161.549 171.84C161.468 172.213 161.332 172.573 161.146 172.906C160.97 173.236 160.761 173.548 160.522 173.837C160.284 174.13 160.013 174.396 159.715 174.629C159.411 174.872 159.06 175.048 158.683 175.147C158.904 174.821 159.111 174.528 159.322 174.24C159.533 173.952 159.754 173.669 159.984 173.39C160.215 173.112 160.464 172.843 160.704 172.584C160.961 172.309 161.244 172.06 161.549 171.84Z" fill="black"/>
<path opacity="0.2" d="M168.48 172.267C168.682 172.795 168.883 173.295 169.109 173.779C169.544 174.748 170.076 175.669 170.698 176.53C170.995 176.976 171.351 177.379 171.682 177.845C171.163 177.608 170.689 177.283 170.28 176.885C169.864 176.492 169.51 176.039 169.229 175.541C168.94 175.045 168.725 174.51 168.591 173.952C168.447 173.403 168.409 172.831 168.48 172.267Z" fill="black"/>
<path opacity="0.2" d="M175.781 176.731C175.371 176.606 174.983 176.42 174.629 176.179C174.273 175.949 173.942 175.684 173.64 175.387C173.337 175.088 173.07 174.755 172.843 174.394C172.607 174.027 172.444 173.618 172.363 173.189C172.69 173.487 172.973 173.77 173.266 174.048C173.558 174.327 173.842 174.605 174.125 174.888C174.408 175.171 174.696 175.459 174.97 175.762C175.263 176.065 175.534 176.389 175.781 176.731Z" fill="black"/>
<path opacity="0.2" d="M170.851 173.419C171.221 173.899 171.562 174.351 171.907 174.807L172.935 176.175L173.976 177.528C174.322 178.008 174.687 178.431 175.023 178.93C174.501 178.65 174.017 178.304 173.583 177.903C172.705 177.106 171.983 176.154 171.451 175.095C171.175 174.567 170.973 174.003 170.851 173.419Z" fill="black"/>
<path opacity="0.2" d="M169.176 169.848C169.414 169.443 169.698 169.066 170.021 168.725C170.341 168.376 170.689 168.055 171.062 167.765C171.439 167.479 171.842 167.232 172.267 167.026C172.694 166.817 173.154 166.684 173.626 166.632C173.213 166.862 172.824 167.112 172.445 167.342C172.066 167.573 171.706 167.866 171.346 168.139C170.621 168.696 169.92 169.282 169.176 169.848Z" fill="black"/>
<path opacity="0.2" d="M163.81 169.287C163.706 168.627 163.522 167.982 163.262 167.367C163.134 167.065 162.986 166.772 162.821 166.488C162.658 166.2 162.466 165.927 162.283 165.619C162.601 165.784 162.884 166.007 163.118 166.277C163.357 166.546 163.55 166.853 163.69 167.184C163.834 167.514 163.92 167.867 163.944 168.226C163.982 168.585 163.936 168.948 163.81 169.287Z" fill="black"/>
<path opacity="0.2" d="M165.283 169.738C165.125 169.301 164.99 168.855 164.88 168.403L164.693 167.76C164.626 167.544 164.544 167.338 164.462 167.093C164.688 167.21 164.88 167.384 165.019 167.597C165.158 167.807 165.263 168.037 165.331 168.279C165.393 168.519 165.423 168.765 165.422 169.013C165.421 169.261 165.374 169.507 165.283 169.738Z" fill="black"/>
</g>
<path d="M156.259 170.424C157.493 171.567 159.168 172.282 160.733 172.824C165.168 174.346 169.978 174.341 174.586 173.847C176.261 173.669 175.622 171.115 173.957 171.293C169.824 171.739 165.47 171.672 161.477 170.309C160.562 170.01 159.684 169.607 158.861 169.109C158.621 168.96 158.381 168.792 158.16 168.629C157.939 168.466 158.381 168.84 158.16 168.629C156.926 167.486 155.011 169.282 156.24 170.438L156.259 170.424Z" fill="#455A64"/>
<path d="M157.92 168.763C159.015 169.69 160.285 170.387 161.655 170.813C165.298 172.119 169.335 172.2 173.122 171.821C174.783 171.653 174.874 169.027 173.194 169.195C169.671 169.546 165.994 169.531 162.634 168.37C161.863 168.116 161.124 167.774 160.431 167.352C160.224 167.223 160.027 167.083 159.826 166.944C159.624 166.805 160.056 167.155 159.85 166.944C158.616 165.792 156.706 167.592 157.93 168.754L157.92 168.763Z" fill="#455A64"/>
<g opacity="0.2">
<path opacity="0.2" d="M159.485 180.437C159.64 180.441 159.787 180.504 159.897 180.614C160.006 180.724 160.068 180.872 160.071 181.027L160.023 181.963C161.656 182.158 163.202 182.807 164.487 183.835C164.707 184.013 164.832 184.157 164.818 184.392C164.797 184.557 164.713 184.707 164.583 184.811C164.452 184.914 164.287 184.962 164.122 184.944C163.953 184.941 163.792 184.874 163.671 184.757C162.599 183.85 161.299 183.255 159.912 183.039L159.576 189.591C163.416 190.551 164.995 191.957 164.856 194.247C164.731 196.728 162.365 198.365 159.163 198.298L159.072 200.122C159.047 200.272 158.968 200.407 158.85 200.503C158.731 200.598 158.582 200.646 158.43 200.639C158.278 200.631 158.134 200.568 158.026 200.461C157.918 200.354 157.853 200.211 157.843 200.059L157.939 198.211C155.836 197.969 153.863 197.07 152.299 195.643C152.222 195.589 152.159 195.517 152.115 195.434C152.071 195.35 152.047 195.258 152.045 195.163C152.065 195.004 152.146 194.858 152.269 194.756C152.393 194.653 152.552 194.602 152.712 194.611C152.882 194.616 153.044 194.683 153.168 194.799C154.493 196.102 156.203 196.944 158.045 197.199L158.386 190.531C154.589 189.571 153.072 188.194 153.192 185.851C153.312 183.509 155.655 181.805 158.775 181.896L158.823 181.003C158.826 180.922 158.846 180.842 158.882 180.768C158.918 180.694 158.968 180.629 159.03 180.576C159.093 180.523 159.165 180.483 159.243 180.459C159.321 180.435 159.404 180.428 159.485 180.437ZM158.467 189.298L158.794 182.909C156.312 182.832 154.603 184.104 154.517 185.789C154.435 187.378 155.203 188.405 158.467 189.298ZM159.519 190.781L159.187 197.242C161.746 197.323 163.479 196.051 163.57 194.275C163.651 192.663 162.807 191.631 159.519 190.781Z" fill="black"/>
</g>
<path d="M202.315 213.154C192.288 216.565 181.592 217.535 171.115 215.986C172.558 213.72 173.912 211.418 175.176 209.079C182.8 209.821 190.497 209.075 197.837 206.88C199.219 209.015 200.712 211.106 202.315 213.154Z" fill="#C2C7D6"/>
<g opacity="0.1">
<path opacity="0.1" d="M190.642 212.352C190.944 213.696 189.336 215.102 186.994 215.323C184.651 215.544 182.885 214.454 183.072 213.077C183.259 211.699 184.915 210.518 186.773 210.331C188.63 210.144 190.344 211.003 190.642 212.352Z" fill="black"/>
<path opacity="0.1" d="M180.562 212.952C180.49 213.269 179.957 213.523 179.376 213.509C178.795 213.494 178.416 213.221 178.512 212.909C178.608 212.597 179.146 212.357 179.693 212.366C180.24 212.376 180.634 212.64 180.562 212.952Z" fill="black"/>
<path opacity="0.1" d="M195.024 211.339C195.154 211.637 194.808 211.978 194.251 212.098C193.694 212.218 193.162 212.064 193.066 211.762C192.97 211.459 193.315 211.128 193.843 211.013C194.371 210.898 194.88 211.042 195.024 211.339Z" fill="black"/>
</g>
<g opacity="0.1">
<path opacity="0.1" d="M175.877 209.141C174.696 211.499 173.43 213.826 172.08 216.12L171.12 215.986C172.569 213.72 173.925 211.418 175.185 209.078L175.877 209.141Z" fill="black"/>
<path opacity="0.1" d="M202.315 213.154L201.422 213.451C199.902 211.362 198.488 209.229 197.179 207.053L197.837 206.861C199.219 209.008 200.712 211.106 202.315 213.154Z" fill="black"/>
<path opacity="0.1" d="M202.013 212.765L202.315 213.154C192.288 216.564 181.592 217.535 171.115 215.986L171.389 215.558C181.674 217.047 192.166 216.09 202.013 212.765Z" fill="black"/>
<path opacity="0.1" d="M197.837 206.88C197.923 207.015 198.009 207.149 198.1 207.283C190.601 209.551 182.727 210.317 174.931 209.539L175.171 209.098C182.798 209.835 190.497 209.082 197.837 206.88Z" fill="black"/>
<path opacity="0.1" d="M174.446 215.923C173.741 215.856 173.04 215.779 172.334 215.688C172.521 215.366 172.709 215.05 172.891 214.728C174.005 214.862 174.72 215.381 174.446 215.923Z" fill="black"/>
<path opacity="0.1" d="M200.515 212.16C200.717 212.453 200.928 212.746 201.134 213.039C200.486 213.25 199.833 213.447 199.181 213.639C198.878 213.154 199.483 212.506 200.515 212.16Z" fill="black"/>
<path opacity="0.1" d="M195.936 207.874C196.416 207.744 196.934 207.61 197.429 207.466L197.985 208.368C197.126 208.622 196.2 208.392 195.936 207.874Z" fill="black"/>
<path opacity="0.1" d="M175.152 210.566C175.32 210.24 175.488 209.914 175.632 209.606C176.165 209.654 176.697 209.693 177.225 209.722C177.019 210.24 176.078 210.658 175.152 210.566Z" fill="black"/>
</g>
<path d="M186.835 210.941C186.926 210.941 187.008 210.97 187.008 211.027V211.2C187.444 211.17 187.883 211.224 188.299 211.359C188.366 211.383 188.409 211.402 188.414 211.445C188.419 211.488 188.337 211.56 188.237 211.575C188.193 211.586 188.146 211.586 188.102 211.575C187.749 211.453 187.376 211.398 187.003 211.411C187.027 211.815 187.046 212.213 187.07 212.616C188.227 212.616 188.741 212.813 188.793 213.231C188.846 213.648 188.184 214.095 187.171 214.215V214.551C187.171 214.603 187.085 214.661 186.979 214.671C186.873 214.68 186.777 214.642 186.777 214.584V214.248C186.161 214.292 185.543 214.197 184.968 213.97C184.915 213.946 184.881 213.922 184.886 213.883C184.891 213.845 184.982 213.768 185.088 213.763C185.134 213.752 185.181 213.752 185.227 213.763C185.718 213.976 186.253 214.068 186.787 214.032C186.787 213.624 186.753 213.216 186.739 212.803C185.597 212.765 185.131 212.554 185.145 212.122C185.16 211.69 185.798 211.315 186.662 211.219C186.662 211.162 186.662 211.109 186.662 211.056C186.662 211.003 186.744 210.951 186.835 210.941ZM186.744 212.592L186.701 211.416C186.005 211.488 185.544 211.771 185.539 212.083C185.534 212.395 185.76 212.544 186.744 212.592ZM187.089 212.823C187.089 213.216 187.133 213.61 187.152 214.008C187.953 213.922 188.448 213.605 188.409 213.283C188.371 212.962 188.088 212.847 187.089 212.823Z" fill="#C2C7D6"/>
<path d="M207.12 214.56C197.664 212.696 187.941 212.637 178.464 214.387C179.049 211.68 179.741 208.976 180.537 206.275C189.069 205.062 197.736 205.166 206.237 206.583C206.601 209.248 206.896 211.907 207.12 214.56Z" fill="#C2C7D6"/>
<g opacity="0.1">
<path opacity="0.1" d="M196.925 209.511C196.877 210.951 195.067 212.002 192.883 211.987C190.699 211.973 189.043 210.893 189.235 209.439C189.427 207.984 191.237 206.755 193.286 206.779C195.336 206.803 196.968 208.071 196.925 209.511Z" fill="black"/>
<path opacity="0.1" d="M186.72 209.41C186.662 209.746 186.154 210.048 185.582 210.101C185.011 210.154 184.622 209.919 184.666 209.583C184.709 209.247 185.242 208.925 185.803 208.882C186.365 208.839 186.768 209.074 186.72 209.41Z" fill="black"/>
<path opacity="0.1" d="M201.518 209.731C201.518 210.067 201.077 210.283 200.51 210.211C199.944 210.139 199.474 209.842 199.469 209.511C199.464 209.179 199.915 208.949 200.477 209.007C201.038 209.064 201.504 209.4 201.518 209.731Z" fill="black"/>
</g>
<g opacity="0.1">
<path opacity="0.1" d="M181.315 206.179C180.547 208.861 179.885 211.549 179.328 214.243L178.464 214.397C179.043 211.69 179.734 208.986 180.537 206.285L181.315 206.179Z" fill="black"/>
<path opacity="0.1" d="M207.12 214.56L206.261 214.397C206.059 211.754 205.793 209.107 205.464 206.458L206.237 206.583C206.601 209.248 206.896 211.907 207.12 214.56Z" fill="black"/>
<path opacity="0.1" d="M207.077 214.08L207.12 214.56C197.664 212.696 187.941 212.637 178.464 214.387L178.579 213.874C188.008 212.168 197.673 212.238 207.077 214.08Z" fill="black"/>
<path opacity="0.1" d="M206.237 206.592C206.237 206.76 206.285 206.928 206.304 207.072C197.732 205.627 188.987 205.526 180.384 206.775L180.533 206.266C189.067 205.058 197.736 205.168 206.237 206.592Z" fill="black"/>
<path opacity="0.1" d="M181.334 213.437C180.701 213.528 180.067 213.624 179.414 213.735L179.659 212.611C180.72 212.443 181.44 212.823 181.334 213.437Z" fill="black"/>
<path opacity="0.1" d="M206.131 212.803C206.165 213.168 206.193 213.538 206.222 213.907C205.593 213.792 204.96 213.682 204.326 213.581C204.288 212.981 205.094 212.64 206.131 212.803Z" fill="black"/>
<path opacity="0.1" d="M203.798 206.707L205.526 206.966L205.656 208.07C204.691 207.912 203.856 207.312 203.798 206.707Z" fill="black"/>
<path opacity="0.1" d="M180.864 207.806C180.965 207.432 181.066 207.058 181.171 206.683L182.899 206.467C182.741 207.082 181.834 207.667 180.864 207.806Z" fill="black"/>
</g>
<path d="M193.277 207.418C193.373 207.418 193.454 207.471 193.45 207.528V207.706C193.91 207.728 194.362 207.845 194.774 208.051C194.842 208.085 194.88 208.109 194.875 208.157C194.87 208.205 194.779 208.267 194.674 208.263C194.625 208.265 194.577 208.253 194.534 208.229C194.189 208.048 193.81 207.94 193.421 207.912C193.387 208.335 193.354 208.752 193.325 209.17C194.491 209.328 194.971 209.607 194.947 210.048C194.923 210.49 194.203 210.835 193.219 210.84C193.219 210.955 193.219 211.075 193.195 211.191C193.171 211.306 193.099 211.296 192.994 211.296C192.888 211.296 192.811 211.248 192.811 211.186L192.84 210.831C192.24 210.815 191.65 210.67 191.112 210.403C191.059 210.403 191.03 210.351 191.035 210.312C191.04 210.274 191.136 210.197 191.242 210.197C191.288 210.194 191.335 210.204 191.376 210.226C191.838 210.473 192.35 210.611 192.874 210.629C192.902 210.202 192.936 209.779 192.97 209.352C191.827 209.199 191.371 208.963 191.419 208.512C191.467 208.061 192.168 207.701 193.09 207.696V207.523C193.094 207.466 193.181 207.418 193.277 207.418ZM192.974 209.122L193.075 207.898C192.336 207.898 191.827 208.167 191.798 208.488C191.77 208.81 192 208.978 192.96 209.122H192.974ZM193.291 209.4L193.205 210.639C193.987 210.639 194.515 210.394 194.534 210.053C194.554 209.712 194.294 209.544 193.291 209.4Z" fill="#C2C7D6"/>
<path d="M196.642 91.0081C186.333 85.0694 174.357 82.6893 162.562 84.2353C163.797 81.0434 165.295 77.9592 167.04 75.0145C178.092 74.5503 189.071 77.016 198.864 82.1617C198.154 85.1185 197.413 88.0673 196.642 91.0081Z" fill="#C2C7D6"/>
<g opacity="0.1">
<path opacity="0.1" d="M186.72 82.0225C186.182 83.5921 183.739 84.2161 181.109 83.6689C178.478 83.1217 176.707 81.5905 177.326 79.9969C177.945 78.4033 180.638 77.4145 183.177 77.9953C185.717 78.5761 187.238 80.4625 186.72 82.0225Z" fill="black"/>
<path opacity="0.1" d="M174.149 79.4737C173.99 79.8433 173.275 80.0977 172.541 80.0593C171.806 80.0209 171.336 79.7041 171.504 79.3297C171.672 78.9553 172.406 78.6721 173.131 78.7153C173.856 78.7585 174.312 79.1041 174.149 79.4737Z" fill="black"/>
<path opacity="0.1" d="M192.081 83.7457C191.971 84.1105 191.371 84.1921 190.723 83.9377C190.075 83.6833 189.629 83.1985 189.763 82.8337C189.897 82.4689 190.493 82.3537 191.136 82.6129C191.779 82.8721 192.187 83.3761 192.081 83.7457Z" fill="black"/>
</g>
<g opacity="0.1">
<path opacity="0.1" d="M168.086 74.9807C166.376 77.8964 164.905 80.9464 163.69 84.1007C163.312 84.1391 162.933 84.1823 162.552 84.2303C163.791 81.0397 165.292 77.9572 167.04 75.0143L168.086 74.9807Z" fill="black"/>
<path opacity="0.1" d="M196.642 91.008L195.758 90.528C196.526 87.6 197.278 84.6688 198.014 81.7344C198.298 81.8784 198.586 82.0272 198.869 82.1808C198.155 85.1248 197.413 88.0672 196.642 91.008Z" fill="black"/>
<path opacity="0.1" d="M196.8 90.4559C196.752 90.6383 196.704 90.8255 196.651 91.0079C186.344 85.0679 174.367 82.6877 162.571 84.2352L162.802 83.6495C174.573 82.168 186.506 84.5571 196.8 90.4559Z" fill="black"/>
<path opacity="0.1" d="M198.869 82.1568C198.826 82.344 198.778 82.5312 198.734 82.7184C188.889 77.5199 177.83 75.0568 166.709 75.5856L167.045 75.0144C178.097 74.5508 189.075 77.0147 198.869 82.1568Z" fill="black"/>
<path opacity="0.1" d="M166.406 83.3281C165.581 83.3761 164.75 83.4385 163.915 83.5249C164.083 83.0977 164.261 82.6705 164.443 82.2433C165.816 82.1233 166.68 82.6369 166.406 83.3281Z" fill="black"/>
<path opacity="0.1" d="M196.224 88.7329C196.118 89.1409 196.008 89.5489 195.902 89.9569C195.262 89.5921 194.598 89.2417 193.91 88.9057C194.083 88.2385 195.134 88.1377 196.224 88.7329Z" fill="black"/>
<path opacity="0.1" d="M195.941 81.3215C196.594 81.6287 197.237 81.9407 197.861 82.2815C197.76 82.6895 197.654 83.0975 197.554 83.5055C196.507 82.9439 195.768 81.9887 195.941 81.3215Z" fill="black"/>
<path opacity="0.1" d="M167.064 76.8C167.29 76.3824 167.544 75.9648 167.76 75.5472C168.533 75.5472 169.301 75.5184 170.069 75.5472C169.69 76.2 168.36 76.7472 167.064 76.8Z" fill="black"/>
</g>
<path d="M182.947 78.7201C183.067 78.7489 183.144 78.8257 183.12 78.8881L183.048 79.0849C183.598 79.2232 184.115 79.4732 184.565 79.8193C184.632 79.8769 184.67 79.9153 184.651 79.9633C184.632 80.0113 184.497 80.0593 184.368 80.0257C184.31 80.015 184.257 79.9884 184.214 79.9489C183.837 79.6517 183.405 79.4315 182.942 79.3009C182.769 79.7809 182.597 80.2129 182.429 80.6689C183.811 81.1489 184.296 81.5953 184.137 82.0705C183.979 82.5457 183 82.7377 181.805 82.4977C181.757 82.6225 181.713 82.7521 181.67 82.8817C181.627 83.0113 181.526 82.9729 181.401 82.9489C181.277 82.9249 181.19 82.8481 181.209 82.7809C181.229 82.7137 181.301 82.5217 181.344 82.3921C180.627 82.2299 179.949 81.93 179.347 81.5089C179.289 81.4657 179.261 81.4273 179.28 81.3841C179.299 81.3409 179.443 81.2833 179.568 81.3025C179.626 81.3104 179.68 81.3336 179.726 81.3697C180.235 81.7548 180.819 82.0294 181.44 82.1761C181.603 81.7089 181.771 81.2433 181.944 80.7793C180.585 80.2993 180.086 79.9585 180.283 79.4641C180.48 78.9697 181.459 78.7393 182.606 78.9841L182.678 78.7969C182.702 78.7201 182.822 78.6721 182.947 78.7201ZM182.035 80.5297C182.198 80.0881 182.366 79.6417 182.539 79.1953C181.627 79.0081 180.912 79.1953 180.773 79.5361C180.633 79.8769 180.873 80.0977 182.035 80.5057V80.5297ZM182.337 80.9185C182.174 81.3697 182.014 81.8209 181.857 82.2721C182.817 82.4689 183.518 82.3441 183.648 81.9697C183.777 81.5953 183.518 81.3121 182.337 80.8945V80.9185Z" fill="#C2C7D6"/>
<path d="M213.6 107.362C203.04 110.63 192.437 96.3648 181.853 99.6336C183.513 96.4174 185.375 93.3089 187.426 90.3264C196.037 91.7664 204.648 100.79 213.264 98.424C213.376 101.403 213.488 104.382 213.6 107.362Z" fill="#C2C7D6"/>
<g opacity="0.1">
<path opacity="0.1" d="M203.04 101.688C202.709 103.258 200.496 103.608 198.11 102.355C195.725 101.103 194.309 99.0531 194.957 97.6803C195.605 96.3075 197.808 96.0867 199.886 97.1427C201.965 98.1987 203.376 100.138 203.04 101.688Z" fill="black"/>
<path opacity="0.1" d="M192.36 96.2786C192.187 96.5954 191.558 96.6434 190.953 96.4226C190.349 96.2018 189.993 95.7842 190.205 95.4626C190.416 95.141 191.025 95.0402 191.611 95.2754C192.197 95.5106 192.533 95.9666 192.36 96.2786Z" fill="black"/>
<path opacity="0.1" d="M207.912 103.027C207.878 103.411 207.36 103.637 206.755 103.507C206.15 103.378 205.699 102.893 205.757 102.523C205.814 102.154 206.328 101.995 206.913 102.139C207.499 102.283 207.945 102.643 207.912 103.027Z" fill="black"/>
</g>
<g opacity="0.1">
<path opacity="0.1" d="M188.203 90.48C186.238 93.3418 184.44 96.3148 182.818 99.384C182.496 99.456 182.174 99.5376 181.858 99.6336C183.519 96.4186 185.378 93.3101 187.426 90.3264C187.68 90.3744 187.944 90.4224 188.203 90.48Z" fill="black"/>
<path opacity="0.1" d="M213.6 107.362C213.278 107.458 212.957 107.544 212.64 107.611L212.482 98.6065C212.741 98.5537 213 98.4961 213.264 98.4241C213.376 101.403 213.488 104.382 213.6 107.362Z" fill="black"/>
<path opacity="0.1" d="M213.6 106.795C213.6 106.987 213.6 107.174 213.6 107.362C203.016 110.63 192.437 96.3648 181.853 99.6336C181.973 99.4128 182.088 99.1872 182.203 98.9664C192.662 96.1104 203.122 110.006 213.6 106.795Z" fill="black"/>
<path opacity="0.1" d="M213.264 98.424C213.264 98.6112 213.264 98.7984 213.264 98.9856C204.528 101.386 195.792 92.112 187.051 90.8256L187.402 90.312C196.037 91.7904 204.648 100.8 213.264 98.424Z" fill="black"/>
<path opacity="0.1" d="M185.28 98.5775C184.575 98.5707 183.872 98.6285 183.177 98.7503C183.427 98.2703 183.657 97.8383 183.926 97.3919C185.035 97.2815 185.64 97.9199 185.28 98.5775Z" fill="black"/>
<path opacity="0.1" d="M212.606 105.792C212.606 106.21 212.606 106.627 212.63 107.045C211.939 107.189 211.235 107.268 210.528 107.28C210.547 106.584 211.474 106.027 212.606 105.792Z" fill="black"/>
<path opacity="0.1" d="M210.72 99.36C211.312 99.3365 211.901 99.2675 212.482 99.1536C212.482 99.5712 212.482 99.9887 212.482 100.406C211.512 100.627 210.72 100.066 210.72 99.36Z" fill="black"/>
<path opacity="0.1" d="M187.118 92.1024C187.368 91.7185 187.618 91.344 187.867 90.9792C188.448 91.0944 189.034 91.2433 189.619 91.4209C189.235 91.992 188.117 92.2416 187.118 92.1024Z" fill="black"/>
</g>
<path d="M199.714 97.8048C199.81 97.8576 199.882 97.9488 199.862 98.0064L199.8 98.1888C200.282 98.4529 200.718 98.7933 201.091 99.1969C201.154 99.2641 201.182 99.3073 201.168 99.3553C201.154 99.4033 201.043 99.4273 200.933 99.3553C200.881 99.3313 200.836 99.297 200.798 99.2544C200.487 98.9031 200.121 98.6048 199.714 98.3712L199.296 99.6337C200.482 100.406 200.928 100.915 200.798 101.376C200.669 101.837 199.814 101.856 198.754 101.318L198.634 101.669C198.634 101.726 198.504 101.726 198.394 101.669C198.283 101.611 198.206 101.515 198.225 101.458L198.35 101.102C197.693 100.743 197.108 100.266 196.622 99.696C196.574 99.6384 196.55 99.5953 196.565 99.5569C196.579 99.5185 196.709 99.4993 196.819 99.5569C196.87 99.583 196.916 99.6188 196.953 99.6625C197.365 100.168 197.868 100.592 198.437 100.91C198.581 100.488 198.729 100.061 198.878 99.6337C197.712 98.8609 197.309 98.3568 197.482 97.92C197.654 97.4832 198.48 97.5024 199.43 97.9728L199.488 97.8C199.507 97.7616 199.613 97.7568 199.714 97.8048ZM198.955 99.4272C199.094 99.0192 199.238 98.6112 199.377 98.1984C198.614 97.824 198.019 97.8144 197.894 98.1312C197.769 98.448 197.966 98.7504 198.955 99.4272ZM199.219 99.9072L198.802 101.15C199.646 101.573 200.27 101.578 200.371 101.227C200.472 100.877 200.237 100.555 199.2 99.8832L199.219 99.9072Z" fill="#C2C7D6"/>
<path d="M144.571 177.571C135.173 182.021 125.779 175.416 116.381 179.866C117.209 176.938 118.04 174.09 118.872 171.322C126.518 169.143 134.165 172.992 141.811 170.957C142.733 173.251 143.654 175.464 144.571 177.571Z" fill="#C2C7D6"/>
<g opacity="0.1">
<path opacity="0.1" d="M133.997 175.363C134.16 176.803 132.557 177.835 130.449 177.581C128.342 177.326 126.705 176.045 126.816 174.634C126.926 173.222 128.515 172.186 130.358 172.406C132.201 172.627 133.833 173.928 133.997 175.363Z" fill="black"/>
<path opacity="0.1" d="M124.459 174.365C124.411 174.691 123.936 174.95 123.398 174.97C122.861 174.989 122.481 174.754 122.544 174.422C122.632 174.219 122.78 174.048 122.97 173.933C123.159 173.818 123.379 173.764 123.6 173.779C124.123 173.76 124.507 174.034 124.459 174.365Z" fill="black"/>
<path opacity="0.1" d="M138.269 175.258C138.345 175.584 137.966 175.877 137.433 175.891C136.901 175.906 136.411 175.637 136.354 175.306C136.296 174.974 136.67 174.72 137.189 174.71C137.707 174.701 138.192 174.936 138.269 175.258Z" fill="black"/>
</g>
<g opacity="0.1">
<path opacity="0.1" d="M119.568 171.139C118.79 173.859 118.013 176.643 117.235 179.491C116.952 179.607 116.664 179.731 116.381 179.866C117.209 176.938 118.04 174.09 118.872 171.322C119.102 171.255 119.337 171.197 119.568 171.139Z" fill="black"/>
<path opacity="0.1" d="M144.571 177.571C144.288 177.706 144 177.831 143.717 177.946C142.848 175.757 141.984 173.477 141.115 171.125L141.811 170.957C142.733 173.251 143.654 175.464 144.571 177.571Z" fill="black"/>
<path opacity="0.1" d="M144.398 177.173L144.571 177.571C135.173 182.021 125.779 175.416 116.381 179.866L116.539 179.314C125.827 175.037 135.11 181.44 144.398 177.173Z" fill="black"/>
<path opacity="0.1" d="M141.811 170.957L141.984 171.389C134.227 173.544 126.47 169.555 118.718 171.845C118.766 171.672 118.819 171.495 118.872 171.322C126.518 169.143 134.165 172.992 141.811 170.957Z" fill="black"/>
<path opacity="0.1" d="M119.246 178.349C118.613 178.511 117.991 178.713 117.384 178.954C117.489 178.56 117.6 178.167 117.705 177.773C118.709 177.403 119.4 177.73 119.246 178.349Z" fill="black"/>
<path opacity="0.1" d="M143.193 176.607L143.553 177.533C142.943 177.77 142.32 177.97 141.686 178.133C141.513 177.6 142.19 176.971 143.193 176.607Z" fill="black"/>
<path opacity="0.1" d="M139.718 171.84C140.241 171.768 140.76 171.672 141.283 171.552L141.643 172.512C140.755 172.771 139.891 172.416 139.718 171.84Z" fill="black"/>
<path opacity="0.1" d="M119.097 172.8L119.419 171.658C119.937 171.528 120.456 171.427 120.979 171.351C120.825 171.951 120 172.555 119.097 172.8Z" fill="black"/>
</g>
<path d="M130.411 173.045C130.502 173.045 130.574 173.112 130.579 173.17V173.347C131.017 173.421 131.439 173.574 131.822 173.799C131.889 173.837 131.923 173.871 131.928 173.914C131.933 173.957 131.851 174.019 131.75 174.005C131.705 174.003 131.662 173.988 131.625 173.962C131.302 173.762 130.944 173.623 130.569 173.554L130.598 174.802C131.697 175.071 132.173 175.373 132.201 175.815C132.23 176.256 131.587 176.559 130.651 176.467V176.813C130.651 176.875 130.574 176.914 130.473 176.899C130.373 176.885 130.291 176.832 130.291 176.775C130.291 176.717 130.291 176.539 130.291 176.419C129.697 176.331 129.126 176.122 128.616 175.805C128.563 175.771 128.534 175.743 128.539 175.704C128.544 175.666 128.63 175.599 128.726 175.608C128.773 175.613 128.817 175.63 128.856 175.656C129.29 175.946 129.781 176.139 130.296 176.223C130.296 175.8 130.296 175.373 130.296 174.951C129.221 174.682 128.779 174.389 128.793 173.947C128.808 173.506 129.417 173.218 130.262 173.304V173.131C130.248 173.074 130.32 173.035 130.411 173.045ZM130.286 174.725V173.506C129.614 173.439 129.168 173.645 129.163 173.986C129.158 174.327 129.36 174.48 130.286 174.72V174.725ZM130.608 175.032L130.637 176.266C131.381 176.343 131.851 176.131 131.832 175.786C131.813 175.44 131.553 175.267 130.608 175.032Z" fill="#C2C7D6"/>
<path d="M164.553 146.362C155.808 148.099 147.062 133.512 138.317 136.085C139.867 133.325 141.724 130.749 143.851 128.405C150.974 130.987 158.093 140.256 165.211 138.154C164.997 140.899 164.777 143.635 164.553 146.362Z" fill="#C2C7D6"/>
<g opacity="0.1">
<path opacity="0.1" d="M156.283 140.266C155.832 141.523 153.883 141.47 151.891 140.04C149.899 138.61 148.891 136.728 149.601 135.72C150.312 134.712 152.275 134.894 153.993 136.075C155.712 137.256 156.734 139.018 156.283 140.266Z" fill="black"/>
<path opacity="0.1" d="M147.475 134.146C147.293 134.376 146.741 134.328 146.241 134.059C145.742 133.79 145.493 133.392 145.694 133.147C145.896 132.902 146.443 132.907 146.928 133.19C147.413 133.474 147.657 133.92 147.475 134.146Z" fill="black"/>
<path opacity="0.1" d="M160.32 141.97C160.253 142.296 159.792 142.45 159.293 142.239C158.793 142.027 158.453 141.595 158.539 141.279C158.625 140.962 159.081 140.904 159.566 141.082C160.051 141.259 160.401 141.643 160.32 141.97Z" fill="black"/>
</g>
<g opacity="0.1">
<path opacity="0.1" d="M144.48 128.64C142.432 130.855 140.625 133.282 139.09 135.879C138.823 135.927 138.558 135.99 138.298 136.066C139.848 133.306 141.704 130.73 143.832 128.386C144.067 128.482 144.283 128.568 144.48 128.64Z" fill="black"/>
<path opacity="0.1" d="M164.554 146.362C164.29 146.414 164.024 146.453 163.757 146.477C164.026 143.77 164.294 141.05 164.563 138.317C164.781 138.275 164.997 138.222 165.211 138.158C164.997 140.901 164.778 143.635 164.554 146.362Z" fill="black"/>
<path opacity="0.1" d="M164.597 145.848L164.554 146.362C155.808 148.099 147.062 133.512 138.317 136.085C138.432 135.883 138.547 135.682 138.662 135.49C147.307 133.387 155.952 147.614 164.597 145.848Z" fill="black"/>
<path opacity="0.1" d="M165.211 138.154L165.173 138.672C157.949 140.76 150.725 131.179 143.506 128.789L143.851 128.405C150.974 130.983 158.093 140.256 165.211 138.154Z" fill="black"/>
<path opacity="0.1" d="M141.187 135.307C140.609 135.254 140.026 135.265 139.45 135.341C139.699 134.938 139.93 134.544 140.199 134.165C141.12 134.146 141.6 134.746 141.187 135.307Z" fill="black"/>
<path opacity="0.1" d="M163.925 144.835L163.81 145.968C163.231 146.021 162.649 146.011 162.072 145.939C162.158 145.33 162.989 144.96 163.925 144.835Z" fill="black"/>
<path opacity="0.1" d="M163.061 138.965C163.544 138.965 164.026 138.92 164.501 138.831C164.462 139.21 164.424 139.589 164.39 139.968C163.574 140.112 162.974 139.579 163.061 138.965Z" fill="black"/>
<path opacity="0.1" d="M143.41 129.874L144.158 129.024C144.638 129.211 145.118 129.432 145.598 129.672C145.219 130.08 144.235 130.133 143.41 129.874Z" fill="black"/>
</g>
<path d="M153.773 136.574C153.854 136.632 153.902 136.718 153.878 136.766L153.811 136.906C154.203 137.191 154.549 137.534 154.838 137.923C154.882 137.99 154.906 138.034 154.891 138.067C154.877 138.101 154.771 138.106 154.68 138.067C154.638 138.04 154.602 138.004 154.574 137.962C154.332 137.626 154.043 137.327 153.715 137.074L153.211 138.034C154.171 138.854 154.512 139.339 154.354 139.694C154.195 140.05 153.442 139.93 152.563 139.32L152.424 139.589C152.4 139.637 152.304 139.618 152.208 139.55C152.112 139.483 152.059 139.397 152.083 139.349L152.227 139.08C151.691 138.681 151.227 138.194 150.854 137.64C150.816 137.587 150.802 137.549 150.821 137.515C150.84 137.482 150.95 137.491 151.042 137.558C151.086 137.587 151.123 137.625 151.152 137.669C151.466 138.153 151.863 138.578 152.323 138.926C152.496 138.605 152.674 138.283 152.846 137.966C151.886 137.146 151.598 136.666 151.795 136.339C151.992 136.013 152.717 136.162 153.504 136.694L153.576 136.565C153.6 136.507 153.686 136.522 153.773 136.574ZM152.938 137.784L153.418 136.848C152.789 136.421 152.261 136.315 152.122 136.555C151.982 136.795 152.16 137.074 152.938 137.784ZM153.12 138.197L152.64 139.157C153.336 139.637 153.883 139.747 154.008 139.474C154.133 139.2 153.946 138.912 153.12 138.197Z" fill="#C2C7D6"/>
<path d="M197.981 124.162C187.166 119.299 176.381 132.946 165.542 128.083C166.384 125.523 167.224 122.854 168.062 120.077C176.861 121.862 185.659 113.304 194.462 114.341C195.633 117.427 196.8 120.686 197.981 124.162Z" fill="#C2C7D6"/>
<g opacity="0.1">
<path opacity="0.1" d="M185.645 120.298C185.894 121.858 184.118 123.83 181.68 124.843C179.241 125.856 177.317 125.189 177.384 123.504C177.451 121.819 179.217 119.866 181.344 118.987C183.47 118.109 185.39 118.718 185.645 120.298Z" fill="black"/>
<path opacity="0.1" d="M174.657 124.119C174.619 124.507 174.086 124.949 173.472 125.079C172.857 125.208 172.397 124.935 172.459 124.546C172.521 124.157 173.049 123.787 173.645 123.672C174.24 123.557 174.72 123.725 174.657 124.119Z" fill="black"/>
<path opacity="0.1" d="M190.56 118.781C190.661 119.15 190.243 119.515 189.6 119.64C188.957 119.765 188.414 119.611 188.333 119.251C188.251 118.891 188.669 118.469 189.269 118.334C189.869 118.2 190.449 118.416 190.56 118.781Z" fill="black"/>
</g>
<g opacity="0.1">
<path opacity="0.1" d="M168.864 120.211C168.083 123.05 167.304 125.805 166.526 128.477C166.195 128.362 165.869 128.232 165.542 128.083C166.384 125.523 167.224 122.854 168.062 120.077C168.331 120.13 168.595 120.173 168.864 120.211Z" fill="black"/>
<path opacity="0.1" d="M197.981 124.162C197.649 124.013 197.323 123.883 197.021 123.768C195.907 120.408 194.793 117.278 193.661 114.274C193.925 114.274 194.193 114.307 194.457 114.341C195.633 117.427 196.8 120.686 197.981 124.162Z" fill="black"/>
<path opacity="0.1" d="M197.76 123.509C197.837 123.725 197.909 123.941 197.981 124.162C187.171 119.299 176.357 132.946 165.547 128.083L165.706 127.603C176.386 132.226 187.07 118.949 197.76 123.509Z" fill="black"/>
<path opacity="0.1" d="M194.457 114.341C194.534 114.533 194.606 114.73 194.678 114.926C185.755 113.707 176.832 122.539 167.904 120.595L168.062 120.077C176.861 121.867 185.659 113.304 194.457 114.341Z" fill="black"/>
<path opacity="0.1" d="M168.821 128.472C168.09 128.379 167.371 128.218 166.67 127.992C166.781 127.622 166.891 127.248 166.997 126.874C168.153 127.2 168.96 127.805 168.821 128.472Z" fill="black"/>
<path opacity="0.1" d="M196.32 121.771C196.478 122.222 196.632 122.678 196.8 123.139C196.101 122.913 195.383 122.753 194.654 122.659C194.4 121.954 195.168 121.44 196.32 121.771Z" fill="black"/>
<path opacity="0.1" d="M192.072 114.835C192.67 114.799 193.269 114.799 193.867 114.835C194.025 115.258 194.179 115.68 194.347 116.107C193.31 115.997 192.297 115.498 192.072 114.835Z" fill="black"/>
<path opacity="0.1" d="M168.394 121.92C168.499 121.531 168.61 121.138 168.715 120.744C169.308 120.829 169.906 120.874 170.506 120.879C170.357 121.555 169.411 122.103 168.394 121.92Z" fill="black"/>
</g>
<path d="M181.44 119.683C181.541 119.645 181.632 119.683 181.637 119.731C181.642 119.779 181.637 119.866 181.637 119.933C182.095 119.753 182.586 119.676 183.077 119.707C183.154 119.707 183.197 119.707 183.202 119.775C183.206 119.842 183.115 119.938 183.005 119.986C182.956 120 182.905 120 182.856 119.986C182.44 119.956 182.021 120.011 181.627 120.149L181.718 121.56C182.986 121.21 183.547 121.282 183.6 121.767C183.653 122.251 182.928 122.967 181.853 123.427C181.853 123.557 181.853 123.687 181.877 123.821C181.901 123.955 181.79 123.979 181.675 124.027C181.56 124.075 181.464 124.056 181.459 123.989C181.454 123.922 181.459 123.725 181.459 123.591C180.841 123.838 180.173 123.934 179.51 123.869C179.453 123.869 179.419 123.84 179.419 123.797C179.419 123.754 179.52 123.629 179.63 123.586C179.678 123.562 179.732 123.553 179.784 123.562C180.344 123.633 180.913 123.563 181.44 123.36C181.411 122.88 181.387 122.4 181.358 121.92C180.11 122.256 179.597 122.17 179.587 121.656C179.578 121.143 180.274 120.471 181.243 120.063C181.243 119.995 181.243 119.933 181.243 119.871C181.243 119.808 181.325 119.727 181.44 119.683ZM181.368 121.675L181.296 120.298C180.523 120.619 180.019 121.119 180.024 121.488C180.029 121.858 180.293 121.949 181.358 121.675H181.368ZM181.752 121.834L181.838 123.226C182.698 122.866 183.226 122.357 183.192 121.978C183.158 121.599 182.837 121.541 181.742 121.834H181.752Z" fill="#C2C7D6"/>
<path d="M204.413 160.176C195.062 150.653 185.717 162.293 176.366 152.77C178.061 151.81 179.75 150.158 181.445 148.066C189.053 150.706 196.661 144.398 204.273 151.973C204.318 154.706 204.365 157.44 204.413 160.176Z" fill="#C2C7D6"/>
<g opacity="0.1">
<path opacity="0.1" d="M195.163 152.213C194.837 153.691 192.859 154.963 190.752 155.232C188.645 155.501 187.416 154.344 188.016 152.789C188.616 151.234 190.589 149.779 192.427 149.597C194.266 149.415 195.485 150.72 195.163 152.213Z" fill="black"/>
<path opacity="0.1" d="M185.726 152.702C185.59 152.903 185.401 153.062 185.18 153.162C184.959 153.262 184.714 153.299 184.473 153.269C183.936 153.221 183.648 152.89 183.821 152.573C183.972 152.39 184.166 152.248 184.385 152.158C184.604 152.069 184.842 152.035 185.078 152.059C185.592 152.078 185.885 152.357 185.726 152.702Z" fill="black"/>
<path opacity="0.1" d="M199.469 152.774C199.43 153.106 198.989 153.216 198.432 153.082C197.875 152.947 197.505 152.602 197.563 152.261C197.621 151.92 198.077 151.723 198.595 151.867C199.113 152.011 199.507 152.438 199.469 152.774Z" fill="black"/>
</g>
<g opacity="0.1">
<path opacity="0.1" d="M182.131 148.282C180.75 150.265 179.095 152.043 177.216 153.562C176.934 153.312 176.651 153.043 176.366 152.755C178.056 151.795 179.75 150.144 181.44 148.051C181.67 148.141 181.901 148.218 182.131 148.282Z" fill="black"/>
<path opacity="0.1" d="M204.413 160.176C204.129 159.888 203.846 159.619 203.563 159.365V151.32C203.793 151.526 204.043 151.742 204.259 151.973C204.313 154.706 204.365 157.44 204.413 160.176Z" fill="black"/>
<path opacity="0.1" d="M204.403 159.658C204.403 159.831 204.403 160.003 204.403 160.176C195.053 150.653 185.707 162.293 176.357 152.77L176.678 152.583C185.923 161.52 195.163 150.24 204.403 159.658Z" fill="black"/>
<path opacity="0.1" d="M204.269 151.968C204.269 152.141 204.269 152.314 204.269 152.486C196.55 144.806 188.832 151.392 181.114 148.459L181.43 148.066C189.053 150.72 196.661 144.398 204.269 151.968Z" fill="black"/>
<path opacity="0.1" d="M179.381 154.651C178.725 154.268 178.104 153.83 177.523 153.341C177.754 153.158 178.003 152.966 178.21 152.76C179.208 153.485 179.731 154.219 179.381 154.651Z" fill="black"/>
<path opacity="0.1" d="M203.568 157.742V158.88C202.988 158.365 202.366 157.897 201.71 157.483C201.734 156.869 202.56 156.854 203.568 157.742Z" fill="black"/>
<path opacity="0.1" d="M202.027 150.624C202.569 150.99 203.087 151.391 203.577 151.824V152.947C202.694 152.16 201.998 151.229 202.027 150.624Z" fill="black"/>
<path opacity="0.1" d="M181.142 149.582C181.368 149.294 181.598 149.002 181.824 148.699C182.332 148.855 182.85 148.977 183.374 149.064C183.024 149.63 182.026 149.928 181.142 149.582Z" fill="black"/>
</g>
<path d="M192.259 150.283C192.346 150.283 192.408 150.322 192.389 150.384L192.331 150.576C192.724 150.552 193.116 150.636 193.464 150.821C193.517 150.85 193.546 150.879 193.531 150.927C193.517 150.975 193.416 151.047 193.32 151.056C193.28 151.06 193.24 151.052 193.205 151.032C192.913 150.866 192.58 150.786 192.245 150.802C192.11 151.253 191.976 151.704 191.846 152.16C192.888 152.203 193.286 152.458 193.157 152.923C193.027 153.389 192.269 153.84 191.333 153.965C191.294 154.09 191.261 154.219 191.222 154.344C191.201 154.383 191.17 154.416 191.132 154.44C191.094 154.463 191.051 154.477 191.006 154.479C190.91 154.479 190.843 154.445 190.862 154.383L190.978 153.999C190.453 154.057 189.923 153.957 189.456 153.711C189.418 153.687 189.398 153.663 189.413 153.619C189.436 153.579 189.469 153.545 189.508 153.52C189.547 153.495 189.592 153.48 189.638 153.475C189.678 153.464 189.719 153.464 189.758 153.475C190.149 153.706 190.603 153.805 191.054 153.759L191.472 152.371C190.45 152.328 190.094 152.112 190.258 151.623C190.421 151.133 191.155 150.663 191.995 150.581L192.053 150.394C192.075 150.359 192.105 150.33 192.141 150.311C192.177 150.292 192.218 150.282 192.259 150.283ZM191.554 152.16C191.688 151.719 191.822 151.277 191.952 150.835C191.685 150.839 191.423 150.911 191.192 151.045C190.961 151.178 190.768 151.369 190.632 151.599C190.526 151.915 190.685 152.093 191.554 152.16ZM191.784 152.424C191.654 152.871 191.52 153.317 191.39 153.768C192.134 153.677 192.691 153.355 192.792 152.991C192.893 152.626 192.682 152.453 191.784 152.405V152.424Z" fill="#C2C7D6"/>
<path d="M133.142 211.68C123.475 207.691 113.808 216.422 104.141 212.434C105.139 210.25 106.137 207.931 107.136 205.507C115.003 206.832 122.87 201.47 130.733 203.141C131.533 205.906 132.336 208.752 133.142 211.68Z" fill="#C2C7D6"/>
<g opacity="0.1">
<path opacity="0.1" d="M122.472 207.36C122.558 208.8 120.859 210.327 118.68 210.874C116.5 211.421 114.892 210.571 115.089 209.069C115.286 207.567 116.981 206.021 118.877 205.541C120.773 205.061 122.4 205.92 122.472 207.36Z" fill="black"/>
<path opacity="0.1" d="M112.67 209.323C112.572 209.539 112.414 209.722 112.215 209.852C112.016 209.981 111.784 210.051 111.547 210.053C110.995 210.101 110.616 209.842 110.702 209.506C110.789 209.17 111.288 208.867 111.821 208.815C112.353 208.762 112.737 208.978 112.67 209.323Z" fill="black"/>
<path opacity="0.1" d="M126.878 206.635C126.936 206.971 126.533 207.25 125.981 207.293C125.429 207.336 124.949 207.125 124.906 206.813C124.862 206.501 125.266 206.16 125.798 206.112C126.331 206.064 126.816 206.304 126.878 206.635Z" fill="black"/>
</g>
<g opacity="0.1">
<path opacity="0.1" d="M107.851 205.603C106.891 208.085 105.965 210.475 105.019 212.75C104.726 212.65 104.433 212.544 104.141 212.424C105.139 210.242 106.137 207.933 107.136 205.498C107.376 205.541 107.611 205.574 107.851 205.603Z" fill="black"/>
<path opacity="0.1" d="M133.142 211.68C132.845 211.56 132.552 211.45 132.259 211.354C131.517 208.503 130.769 205.72 130.017 203.007C130.257 203.045 130.497 203.088 130.733 203.141C131.533 205.906 132.336 208.752 133.142 211.68Z" fill="black"/>
<path opacity="0.1" d="M132.989 211.119C133.037 211.306 133.089 211.488 133.137 211.671C123.475 207.682 113.808 216.413 104.141 212.424L104.328 212.007C113.885 215.794 123.437 207.307 132.989 211.119Z" fill="black"/>
<path opacity="0.1" d="M130.733 203.131C130.786 203.304 130.834 203.477 130.886 203.654C122.909 201.869 114.926 207.408 106.949 205.954L107.136 205.498C115.003 206.823 122.88 201.461 130.733 203.131Z" fill="black"/>
<path opacity="0.1" d="M107.117 212.789C106.466 212.674 105.825 212.513 105.197 212.309C105.331 211.992 105.461 211.67 105.59 211.349C106.622 211.651 107.309 212.213 107.117 212.789Z" fill="black"/>
<path opacity="0.1" d="M131.808 209.626C131.913 210.019 132.014 210.413 132.12 210.806C131.492 210.601 130.85 210.441 130.2 210.326C130.08 209.717 130.776 209.323 131.808 209.626Z" fill="black"/>
<path opacity="0.1" d="M128.553 203.328C129.092 203.36 129.629 203.421 130.161 203.511C130.262 203.89 130.368 204.269 130.473 204.653C129.557 204.48 128.697 203.933 128.553 203.328Z" fill="black"/>
<path opacity="0.1" d="M107.28 207.096C107.409 206.755 107.539 206.414 107.673 206.069C108.204 206.139 108.737 206.181 109.272 206.194C109.085 206.789 108.192 207.245 107.28 207.096Z" fill="black"/>
</g>
<path d="M118.896 206.189C118.987 206.189 119.064 206.189 119.059 206.261V206.443C119.475 206.349 119.906 206.349 120.322 206.443C120.389 206.443 120.422 206.477 120.422 206.525C120.422 206.573 120.336 206.659 120.235 206.683C120.195 206.698 120.151 206.698 120.11 206.683C119.76 206.593 119.395 206.581 119.04 206.65L118.997 207.936C120.12 207.807 120.595 207.936 120.6 208.416C120.605 208.896 119.923 209.376 118.958 209.655V210.01C118.958 210.072 118.872 210.139 118.771 210.168C118.67 210.197 118.584 210.168 118.589 210.101V209.741C118.028 209.872 117.444 209.86 116.89 209.707C116.837 209.707 116.813 209.674 116.813 209.631C116.813 209.587 116.914 209.491 117.014 209.467C117.059 209.457 117.105 209.457 117.149 209.467C117.615 209.613 118.112 209.635 118.589 209.53L118.642 208.215C117.538 208.339 117.101 208.215 117.139 207.735C117.178 207.255 117.83 206.775 118.694 206.535V206.357C118.723 206.285 118.805 206.213 118.896 206.189ZM118.67 207.979C118.67 207.557 118.704 207.139 118.718 206.722C118.027 206.899 117.552 207.279 117.528 207.615C117.504 207.951 117.73 208.066 118.67 207.979ZM118.987 208.176L118.944 209.443C119.712 209.247 120.211 208.863 120.211 208.517C120.211 208.171 119.952 208.075 118.987 208.176Z" fill="#C2C7D6"/>
<path d="M101.285 207.576L68.6111 207.552L72.2255 202.306L98.8127 202.315L101.285 207.576Z" fill="#C2C7D6"/>
<g opacity="0.1">
<path opacity="0.1" d="M89.3806 205.003C89.4334 205.987 87.4606 206.784 85.027 206.779C82.5934 206.775 80.7934 205.983 81.0622 204.999C81.331 204.015 83.275 203.218 85.4158 203.218C87.5566 203.218 89.3278 204 89.3806 205.003Z" fill="black"/>
<path opacity="0.1" d="M78.3406 204.883C78.259 205.109 77.683 205.291 77.059 205.291C76.435 205.291 76.0174 205.104 76.123 204.878C76.2286 204.653 76.8046 204.47 77.4046 204.47C78.0046 204.47 78.427 204.658 78.3406 204.883Z" fill="black"/>
<path opacity="0.1" d="M94.3486 204.893C94.4062 205.119 93.9454 205.301 93.3214 205.301C92.6974 205.301 92.1646 205.114 92.1262 204.888C92.0878 204.663 92.5534 204.48 93.1534 204.48C93.7534 204.48 94.291 204.663 94.3486 204.893Z" fill="black"/>
</g>
<g opacity="0.1">
<path opacity="0.1" d="M73.0271 202.306L69.5999 207.552H68.6111L72.2255 202.306H73.0271Z" fill="black"/>
<path opacity="0.1" d="M101.285 207.576L100.296 207.571L98.0063 202.315H98.8128L101.285 207.576Z" fill="black"/>
<path opacity="0.1" d="M101.131 207.245L101.285 207.576L68.6111 207.552L68.8415 207.221L101.131 207.245Z" fill="black"/>
<path opacity="0.1" d="M98.8127 202.315L98.9663 202.646L71.9951 202.637L72.2255 202.306L98.8127 202.315Z" fill="black"/>
<path opacity="0.1" d="M72 207.221H69.8352L70.3152 206.491C71.4576 206.491 72.2112 206.818 72 207.221Z" fill="black"/>
<path opacity="0.1" d="M99.84 206.51L100.157 207.245H97.9919C97.8431 206.837 98.6687 206.51 99.84 206.51Z" fill="black"/>
<path opacity="0.1" d="M96.3406 202.646H98.1502L98.4718 203.376C97.4398 203.376 96.4798 203.04 96.3406 202.646Z" fill="black"/>
<path opacity="0.1" d="M72.3359 203.366L72.8159 202.637H74.6207C74.3999 203.04 73.3631 203.366 72.3359 203.366Z" fill="black"/>
</g>
<path d="M85.4112 203.655C85.5168 203.655 85.5984 203.688 85.5936 203.731V203.851C86.0713 203.863 86.5455 203.935 87.0048 204.067C87.0768 204.091 87.12 204.111 87.1152 204.139C87.1104 204.168 87.0192 204.216 86.904 204.216C86.8549 204.217 86.806 204.209 86.76 204.192C86.3718 204.075 85.97 204.009 85.5648 203.995L85.4784 204.855C86.736 204.951 87.264 205.128 87.2592 205.431C87.2544 205.733 86.4672 205.983 85.3824 205.997L85.3584 206.237C85.3584 206.275 85.2528 206.309 85.1376 206.309C85.0224 206.309 84.9312 206.275 84.936 206.237L84.9648 205.992C84.3135 205.989 83.6664 205.889 83.0448 205.695C82.9872 205.695 82.9584 205.656 82.9632 205.627C82.968 205.599 83.0832 205.551 83.1936 205.551C83.2427 205.541 83.2932 205.541 83.3424 205.551C83.8704 205.727 84.4225 205.821 84.9792 205.829L85.08 204.955C83.8416 204.855 83.3568 204.687 83.4096 204.379C83.4624 204.072 84.216 203.832 85.1904 203.823V203.707C85.2192 203.688 85.3104 203.655 85.4112 203.655ZM85.104 204.821L85.2 203.986C84.4224 203.986 83.8752 204.168 83.8416 204.389C83.808 204.61 84.048 204.725 85.104 204.821ZM85.4544 205.008L85.368 205.858C86.232 205.858 86.808 205.675 86.808 205.44C86.808 205.205 86.5344 205.099 85.44 205.008H85.4544Z" fill="#C2C7D6"/>
<path d="M101.285 211.07H68.6111V207.552L101.285 207.576V211.07Z" fill="#C2C7D6"/>
<path opacity="0.2" d="M101.285 211.07H68.6111V207.552L101.285 207.576V211.07Z" fill="black"/>
<path d="M88.8814 207.557H81.019V211.071H88.8814V207.557Z" fill="#EBEBEB"/>
<path d="M81.019 207.557H88.8814L87.8879 202.306H82.5214L81.019 207.557Z" fill="#EBEBEB"/>
<path d="M103.152 202.992L70.4783 202.963L74.0879 197.722L100.68 197.731L103.152 202.992Z" fill="#C2C7D6"/>
<g opacity="0.1">
<path opacity="0.1" d="M91.2479 200.419C91.3007 201.379 89.3519 202.2 86.8943 202.195C84.4367 202.191 82.6607 201.399 82.9247 200.415C83.1887 199.431 85.1423 198.634 87.2783 198.634C89.4143 198.634 91.1999 199.435 91.2479 200.419Z" fill="black"/>
<path opacity="0.1" d="M80.2078 200.3C80.1214 200.525 79.5502 200.708 78.9262 200.708C78.3022 200.708 77.8846 200.52 77.9662 200.295C78.0478 200.069 78.643 199.887 79.2478 199.887C79.8526 199.887 80.2942 200.069 80.2078 200.3Z" fill="black"/>
<path opacity="0.1" d="M96.2158 200.304C96.2686 200.53 95.8126 200.717 95.1886 200.717C94.5646 200.717 94.0318 200.53 93.9934 200.304C93.955 200.079 94.4158 199.896 95.0206 199.896C95.6254 199.896 96.1582 200.079 96.2158 200.304Z" fill="black"/>
</g>
<g opacity="0.1">
<path opacity="0.1" d="M74.8943 197.722L71.4671 202.968L70.4783 202.963L74.0879 197.722H74.8943Z" fill="black"/>
<path opacity="0.1" d="M103.152 202.992L102.158 202.987L99.8735 197.731H100.68L103.152 202.992Z" fill="black"/>
<path opacity="0.1" d="M102.993 202.661L103.147 202.987L70.4783 202.963L70.7039 202.637L102.993 202.661Z" fill="black"/>
<path opacity="0.1" d="M100.68 197.731L100.834 198.062L73.8623 198.053L74.0879 197.722L100.68 197.731Z" fill="black"/>
<path opacity="0.1" d="M73.8431 202.637H71.6831L72.1631 201.907C73.3247 201.907 74.0783 202.234 73.8431 202.637Z" fill="black"/>
<path opacity="0.1" d="M101.697 201.927L102.014 202.661H99.8398C99.7102 202.253 100.536 201.927 101.697 201.927Z" fill="black"/>
<path opacity="0.1" d="M98.2078 198.062H100.017L100.334 198.792C99.3022 198.792 98.3518 198.466 98.2078 198.062Z" fill="black"/>
<path opacity="0.1" d="M74.2031 198.783L74.6831 198.053H76.4879C76.2527 198.456 75.2303 198.783 74.2031 198.783Z" fill="black"/>
</g>
<path d="M87.2782 199.071C87.379 199.071 87.4654 199.104 87.4606 199.147V199.267C87.9402 199.276 88.4164 199.349 88.8766 199.483C88.9486 199.507 88.987 199.522 88.987 199.555C88.987 199.589 88.8862 199.632 88.771 199.632C88.7234 199.641 88.6747 199.641 88.627 199.632C88.2395 199.512 87.8373 199.446 87.4318 199.435L87.3454 200.295C88.6078 200.391 89.1358 200.568 89.1262 200.871C89.1166 201.173 88.339 201.423 87.2494 201.437L87.2254 201.677C87.2254 201.715 87.1246 201.749 87.0094 201.749C86.8942 201.749 86.803 201.715 86.8078 201.677L86.8318 201.432C86.1808 201.427 85.5339 201.327 84.9118 201.135C84.8542 201.135 84.8206 201.096 84.8302 201.067C84.8398 201.039 84.9454 200.991 85.0558 200.991C85.1065 200.989 85.157 200.997 85.2046 201.015C85.7329 201.19 86.2848 201.284 86.8414 201.293L86.9422 200.419C85.7038 200.319 85.219 200.146 85.2766 199.839C85.3342 199.531 86.0782 199.296 87.0574 199.287V199.167C87.0814 199.104 87.1726 199.071 87.2782 199.071ZM86.971 200.237L87.067 199.402C86.2846 199.402 85.7422 199.584 85.7038 199.805C85.6654 200.026 85.9198 200.16 86.971 200.237ZM87.3166 200.424L87.2302 201.274C88.099 201.274 88.6702 201.091 88.6702 200.856C88.6702 200.621 88.4014 200.515 87.3166 200.424Z" fill="#C2C7D6"/>
<path d="M103.147 206.486H70.4783V202.968L103.152 202.992L103.147 206.486Z" fill="#C2C7D6"/>
<path opacity="0.2" d="M103.147 206.486H70.4783V202.968L103.152 202.992L103.147 206.486Z" fill="black"/>
<path d="M90.744 202.973H82.8816V206.486H90.744V202.973Z" fill="#EBEBEB"/>
<path d="M82.8816 202.973H90.744L89.7552 197.722H84.384L82.8816 202.973Z" fill="#EBEBEB"/>
<path d="M102.72 198.61L70.0464 198.586L73.6608 193.339L100.248 193.349L102.72 198.61Z" fill="#C2C7D6"/>
<g opacity="0.1">
<path opacity="0.1" d="M90.816 196.037C90.8688 196.997 88.92 197.818 86.4624 197.818C84.0048 197.818 82.2288 197.016 82.4976 196.032C82.7664 195.048 84.7104 194.251 86.8464 194.251C88.9824 194.251 90.7632 195.053 90.816 196.037Z" fill="black"/>
<path opacity="0.1" d="M79.7759 195.917C79.6895 196.142 79.1183 196.325 78.4943 196.325C77.8703 196.325 77.4527 196.142 77.5583 195.912C77.6639 195.682 78.2399 195.504 78.8399 195.504C79.4399 195.504 79.8623 195.691 79.7759 195.917Z" fill="black"/>
<path opacity="0.1" d="M95.784 195.926C95.8416 196.152 95.3808 196.334 94.7568 196.334C94.1328 196.334 93.6 196.147 93.5616 195.922C93.5232 195.696 93.984 195.514 94.5888 195.514C95.1936 195.514 95.7264 195.696 95.784 195.926Z" fill="black"/>
</g>
<g opacity="0.1">
<path opacity="0.1" d="M74.4624 193.339L71.0352 198.586H70.0464L73.656 193.339H74.4624Z" fill="black"/>
<path opacity="0.1" d="M102.72 198.61H101.731L99.4417 193.349H100.248L102.72 198.61Z" fill="black"/>
<path opacity="0.1" d="M102.566 198.279L102.72 198.61L70.0464 198.586L70.2768 198.255L102.566 198.279Z" fill="black"/>
<path opacity="0.1" d="M100.248 193.349L100.402 193.68L73.4304 193.671L73.656 193.339L100.248 193.349Z" fill="black"/>
<path opacity="0.1" d="M73.4399 198.24H71.2751L71.7551 197.51C72.8927 197.525 73.6463 197.851 73.4399 198.24Z" fill="black"/>
<path opacity="0.1" d="M101.28 197.544L101.597 198.279H99.432C99.2784 197.871 100.104 197.544 101.28 197.544Z" fill="black"/>
<path opacity="0.1" d="M97.7759 193.68H99.5855L99.9023 194.41C98.8799 194.4 97.9199 194.083 97.7759 193.68Z" fill="black"/>
<path opacity="0.1" d="M73.7712 194.4L74.2512 193.671H76.056C75.84 194.074 74.7984 194.4 73.7712 194.4Z" fill="black"/>
</g>
<path d="M86.8464 194.688C86.952 194.688 87.0336 194.722 87.0288 194.765V194.885C87.5065 194.896 87.9807 194.969 88.44 195.101C88.512 195.125 88.5504 195.144 88.5504 195.173C88.5504 195.202 88.4496 195.25 88.3392 195.25C88.2914 195.256 88.243 195.256 88.1952 195.25C87.8056 195.131 87.4022 195.063 86.9952 195.048L86.9136 195.907C88.1712 196.008 88.6992 196.181 88.6944 196.483C88.6896 196.786 87.9024 197.04 86.8176 197.05V197.29C86.8176 197.328 86.712 197.362 86.5968 197.362C86.4816 197.362 86.3904 197.328 86.3952 197.29L86.424 197.045C85.7728 197.042 85.1256 196.941 84.504 196.747C84.4464 196.747 84.4176 196.709 84.4224 196.68C84.4272 196.651 84.5376 196.603 84.6528 196.608C84.702 196.599 84.7524 196.599 84.8016 196.608C85.3296 196.784 85.8817 196.878 86.4384 196.886L86.5344 196.013C85.3008 195.912 84.816 195.744 84.8688 195.437C84.9216 195.13 85.6752 194.89 86.6496 194.88V194.765C86.6544 194.722 86.7456 194.688 86.8464 194.688ZM86.5392 195.854L86.6352 195.019C85.8528 195.019 85.3104 195.202 85.272 195.422C85.2336 195.643 85.4832 195.763 86.5392 195.84V195.854ZM86.8848 196.046L86.8032 196.891C87.6672 196.891 88.2432 196.709 88.2432 196.474C88.2432 196.238 87.9696 196.133 86.88 196.046H86.8848Z" fill="#C2C7D6"/>
<path d="M102.72 202.104H70.0464V198.586L102.72 198.61V202.104Z" fill="#C2C7D6"/>
<path opacity="0.2" d="M102.72 202.104H70.0464V198.586L102.72 198.61V202.104Z" fill="black"/>
<path d="M90.3167 198.591H82.4543V202.104H90.3167V198.591Z" fill="#EBEBEB"/>
<path d="M82.4543 198.591H90.3167L89.3231 193.339H83.9567L82.4543 198.591Z" fill="#EBEBEB"/>
<path d="M83.6111 213.639L50.9375 213.615L54.5471 208.368L81.1391 208.378L83.6111 213.639Z" fill="#C2C7D6"/>
<g opacity="0.1">
<path opacity="0.1" d="M71.7074 211.066C71.7602 212.026 69.8114 212.846 67.3538 212.842C64.8962 212.837 63.1202 212.045 63.3842 211.061C63.6482 210.077 65.6018 209.28 67.7378 209.28C69.8738 209.28 71.6546 210.082 71.7074 211.066Z" fill="black"/>
<path opacity="0.1" d="M60.6673 210.946C60.5809 211.171 60.0097 211.354 59.3857 211.354C58.7617 211.354 58.3441 211.166 58.4257 210.941C58.5073 210.715 59.1025 210.533 59.7073 210.533C60.3121 210.533 60.7537 210.72 60.6673 210.946Z" fill="black"/>
<path opacity="0.1" d="M76.6753 210.955C76.7281 211.181 76.2721 211.363 75.6481 211.363C75.0241 211.363 74.4913 211.176 74.4529 210.95C74.4145 210.725 74.8753 210.542 75.4801 210.542C76.0849 210.542 76.6177 210.72 76.6753 210.955Z" fill="black"/>
</g>
<g opacity="0.1">
<path opacity="0.1" d="M55.3535 208.368L51.9263 213.615H50.9375L54.5471 208.368H55.3535Z" fill="black"/>
<path opacity="0.1" d="M83.6112 213.638H82.6176L80.3328 208.378H81.1392L83.6112 213.638Z" fill="black"/>
<path opacity="0.1" d="M83.4527 213.307L83.6111 213.639L50.9375 213.615L51.1631 213.283L83.4527 213.307Z" fill="black"/>
<path opacity="0.1" d="M81.1341 208.378L81.2925 208.709L54.3213 208.699L54.5469 208.368L81.1341 208.378Z" fill="black"/>
<path opacity="0.1" d="M54.3021 213.283H52.1421L52.6221 212.554C53.7837 212.554 54.5373 212.88 54.3021 213.283Z" fill="black"/>
<path opacity="0.1" d="M82.1566 212.573L82.4734 213.307H80.3134C80.1598 212.899 80.995 212.573 82.1566 212.573Z" fill="black"/>
<path opacity="0.1" d="M78.667 208.709H80.4766L80.7934 209.439C79.7614 209.439 78.811 209.112 78.667 208.709Z" fill="black"/>
<path opacity="0.1" d="M54.6621 209.429L55.1421 208.699H56.9469C56.7117 209.103 55.6797 209.429 54.6621 209.429Z" fill="black"/>
</g>
<path d="M67.7375 209.717C67.8383 209.717 67.9247 209.75 67.9199 209.794V209.914C68.3992 209.925 68.8751 209.997 69.3359 210.13C69.4079 210.154 69.4463 210.173 69.4463 210.202C69.4463 210.23 69.3455 210.278 69.2303 210.278C69.1812 210.279 69.1325 210.271 69.0863 210.254C68.6982 210.137 68.2964 210.071 67.8911 210.058L67.8047 210.917C69.0671 211.013 69.5951 211.19 69.5855 211.493C69.5759 211.795 68.7983 212.045 67.7087 212.059L67.6847 212.299C67.6847 212.338 67.5839 212.371 67.4687 212.371C67.3535 212.371 67.2623 212.338 67.2671 212.299V212.054C66.6238 212.049 65.9849 211.949 65.3711 211.757C65.3135 211.757 65.2799 211.718 65.2895 211.69C65.2991 211.661 65.4047 211.613 65.5151 211.613C65.5657 211.611 65.6162 211.619 65.6639 211.637C66.1921 211.812 66.7441 211.906 67.3007 211.915L67.4015 211.042C66.1631 210.941 65.6783 210.773 65.7359 210.466C65.7935 210.158 66.5375 209.918 67.5167 209.909V209.794C67.5407 209.76 67.6319 209.717 67.7375 209.717ZM67.4303 210.883L67.5263 210.048C66.7439 210.048 66.2015 210.23 66.1631 210.451C66.1247 210.672 66.3743 210.787 67.4303 210.883ZM67.7759 211.075L67.6799 211.92C68.5487 211.92 69.1199 211.738 69.1199 211.502C69.1199 211.267 68.8607 211.162 67.7759 211.075Z" fill="#C2C7D6"/>
<path d="M83.6111 217.133H50.9375V213.615L83.6111 213.638V217.133Z" fill="#C2C7D6"/>
<path opacity="0.2" d="M83.6111 217.133H50.9375V213.615L83.6111 213.638V217.133Z" fill="black"/>
<path d="M71.2032 213.619H63.3408V217.133H71.2032V213.619Z" fill="#EBEBEB"/>
<path d="M63.3408 213.619H71.2032L70.2144 208.368H64.8432L63.3408 213.619Z" fill="#EBEBEB"/>
<path d="M149.429 167.05L146.673 167.563L146.059 170.467L145.445 167.563L142.689 167.05L145.435 166.382L146.059 163.637L146.688 166.382L149.429 167.05Z" fill="#C2C7D6"/>
<path d="M128.621 47.3663L125.866 47.8751L125.251 50.7791L124.632 47.8751L121.877 47.3615L124.622 46.6943L125.251 43.9487L125.88 46.6943L128.621 47.3663Z" fill="#C2C7D6"/>
<path d="M49.4301 139.891L46.6797 140.4L46.0605 143.304L45.4461 140.4L42.6909 139.891L45.4365 139.219L46.0605 136.478L46.6893 139.219L49.4301 139.891Z" fill="#C2C7D6"/>
<path d="M142.747 139.723L139.992 140.232L139.373 143.141L138.758 140.232L136.003 139.723L138.749 139.051L139.373 136.31L140.002 139.051L142.747 139.723Z" fill="#C2C7D6"/>
<path d="M189.811 108.614L188.27 108.902L187.925 110.525L187.579 108.902L186.043 108.614L187.574 108.24L187.925 106.709L188.275 108.24L189.811 108.614Z" fill="#C2C7D6"/>
<path d="M38.9423 99.5951L37.4015 99.8831L37.0559 101.505L36.7151 99.8831L35.1743 99.5951L36.7055 99.2207L37.0559 97.6895L37.4111 99.2207L38.9423 99.5951Z" fill="#C2C7D6"/>
<path d="M148.752 55.2335L147.211 55.5215L146.87 57.1439L146.525 55.5215L144.984 55.2335L146.515 54.8591L146.87 53.3279L147.221 54.8591L148.752 55.2335Z" fill="#C2C7D6"/>
<path d="M180.922 137.817L179.386 138.101L179.04 139.723L178.694 138.101L177.154 137.817L178.69 137.438L179.04 135.907L179.39 137.438L180.922 137.817Z" fill="#C2C7D6"/>
<path d="M205.469 148.699L203.933 148.982L203.587 150.605L203.241 148.982L201.701 148.699L203.237 148.325L203.587 146.789L203.937 148.325L205.469 148.699Z" fill="#C2C7D6"/>
<path d="M162.466 76.2815L160.925 76.5647L160.579 78.1871L160.238 76.5647L158.698 76.2767L160.229 75.9023L160.579 74.3711L160.93 75.9023L162.466 76.2815Z" fill="#C2C7D6"/>
<path d="M118.224 79.8431L116.683 80.1311L116.338 81.7535L115.992 80.1311L114.451 79.8431L115.987 79.4687L116.338 77.9375L116.688 79.4687L118.224 79.8431Z" fill="#C2C7D6"/>
<path d="M62.1215 68.5631L60.5807 68.8511L60.2351 70.4735L59.8943 68.8511L58.3535 68.5631L59.8847 68.1887L60.2351 66.6575L60.5855 68.1887L62.1215 68.5631Z" fill="#C2C7D6"/>
<path d="M85.728 150.038L84.192 150.322L83.8464 151.949L83.5008 150.322L81.96 150.038L83.496 149.664L83.8464 148.128L84.1968 149.664L85.728 150.038Z" fill="#C2C7D6"/>
<path d="M152.587 144.168C152.469 144.168 152.355 144.215 152.271 144.299C152.188 144.382 152.141 144.496 152.141 144.614C152.141 144.733 152.188 144.846 152.271 144.93C152.355 145.014 152.469 145.061 152.587 145.061C152.705 145.061 152.819 145.014 152.903 144.93C152.986 144.846 153.033 144.733 153.033 144.614C153.033 144.496 152.986 144.382 152.903 144.299C152.819 144.215 152.705 144.168 152.587 144.168Z" fill="#C2C7D6"/>
<path d="M159.321 84.48C159.203 84.48 159.089 84.527 159.006 84.6107C158.922 84.6944 158.875 84.808 158.875 84.9264C158.875 85.0448 158.922 85.1583 159.006 85.242C159.089 85.3258 159.203 85.3728 159.321 85.3728C159.44 85.3728 159.553 85.3258 159.637 85.242C159.721 85.1583 159.768 85.0448 159.768 84.9264C159.768 84.808 159.721 84.6944 159.637 84.6107C159.553 84.527 159.44 84.48 159.321 84.48Z" fill="#C2C7D6"/>
<path d="M97.4783 51.7246C97.3685 51.736 97.2668 51.7877 97.1929 51.8697C97.119 51.9517 97.0781 52.0582 97.0781 52.1686C97.0781 52.279 97.119 52.3855 97.1929 52.4675C97.2668 52.5495 97.3685 52.6012 97.4783 52.6126C97.5881 52.6012 97.6898 52.5495 97.7637 52.4675C97.8376 52.3855 97.8785 52.279 97.8785 52.1686C97.8785 52.0582 97.8376 51.9517 97.7637 51.8697C97.6898 51.7877 97.5881 51.736 97.4783 51.7246Z" fill="#C2C7D6"/>
<path d="M56.1886 75.3887C56.0702 75.3887 55.9567 75.4357 55.8729 75.5194C55.7892 75.6031 55.7422 75.7167 55.7422 75.8351C55.7422 75.9535 55.7892 76.067 55.8729 76.1507C55.9567 76.2344 56.0702 76.2815 56.1886 76.2815C56.307 76.2815 56.4205 76.2344 56.5042 76.1507C56.588 76.067 56.635 75.9535 56.635 75.8351C56.635 75.7167 56.588 75.6031 56.5042 75.5194C56.4205 75.4357 56.307 75.3887 56.1886 75.3887Z" fill="#C2C7D6"/>
<path d="M58.0797 124.8C57.9613 124.8 57.8478 124.847 57.764 124.931C57.6803 125.014 57.6333 125.128 57.6333 125.246C57.6333 125.365 57.6803 125.478 57.764 125.562C57.8478 125.646 57.9613 125.693 58.0797 125.693C58.1981 125.693 58.3116 125.646 58.3954 125.562C58.4791 125.478 58.5261 125.365 58.5261 125.246C58.5261 125.128 58.4791 125.014 58.3954 124.931C58.3116 124.847 58.1981 124.8 58.0797 124.8Z" fill="#C2C7D6"/>
<path d="M42.12 119.87C42.036 119.87 41.9554 119.904 41.896 119.963C41.8366 120.023 41.8032 120.103 41.8032 120.187C41.8032 120.271 41.8366 120.352 41.896 120.411C41.9554 120.471 42.036 120.504 42.12 120.504C42.204 120.504 42.2846 120.471 42.344 120.411C42.4034 120.352 42.4368 120.271 42.4368 120.187C42.4368 120.103 42.4034 120.023 42.344 119.963C42.2846 119.904 42.204 119.87 42.12 119.87Z" fill="#C2C7D6"/>
<path d="M110.453 64.0703C110.369 64.0703 110.288 64.1037 110.229 64.1631C110.169 64.2225 110.136 64.3031 110.136 64.3871C110.136 64.4711 110.169 64.5517 110.229 64.6111C110.288 64.6705 110.369 64.7039 110.453 64.7039C110.537 64.7039 110.617 64.6705 110.677 64.6111C110.736 64.5517 110.77 64.4711 110.77 64.3871C110.77 64.3031 110.736 64.2225 110.677 64.1631C110.617 64.1037 110.537 64.0703 110.453 64.0703Z" fill="#C2C7D6"/>
<path d="M114.043 97.1038C113.966 97.1133 113.896 97.1505 113.845 97.2084C113.793 97.2663 113.765 97.3409 113.765 97.4182C113.765 97.4954 113.793 97.5701 113.845 97.628C113.896 97.6859 113.966 97.7231 114.043 97.7326C114.12 97.7231 114.19 97.6859 114.241 97.628C114.293 97.5701 114.321 97.4954 114.321 97.4182C114.321 97.3409 114.293 97.2663 114.241 97.2084C114.19 97.1505 114.12 97.1133 114.043 97.1038Z" fill="#C2C7D6"/>
<path d="M74.0016 159.744C73.9176 159.744 73.837 159.777 73.7776 159.837C73.7182 159.896 73.6848 159.977 73.6848 160.061C73.6848 160.145 73.7182 160.225 73.7776 160.285C73.837 160.344 73.9176 160.378 74.0016 160.378C74.0856 160.378 74.1662 160.344 74.2256 160.285C74.285 160.225 74.3184 160.145 74.3184 160.061C74.3184 159.977 74.285 159.896 74.2256 159.837C74.1662 159.777 74.0856 159.744 74.0016 159.744Z" fill="#C2C7D6"/>
<path d="M123.912 153.869C123.696 153.885 123.494 153.982 123.346 154.141C123.199 154.3 123.117 154.509 123.117 154.725C123.117 154.942 123.199 155.151 123.346 155.31C123.494 155.469 123.696 155.566 123.912 155.582C124.128 155.566 124.33 155.469 124.478 155.31C124.625 155.151 124.707 154.942 124.707 154.725C124.707 154.509 124.625 154.3 124.478 154.141C124.33 153.982 124.128 153.885 123.912 153.869Z" fill="#C2C7D6"/>
<path d="M204.413 93.4558C204.186 93.4558 203.969 93.5458 203.809 93.7061C203.648 93.8663 203.558 94.0836 203.558 94.3102C203.558 94.5368 203.648 94.7541 203.809 94.9144C203.969 95.0746 204.186 95.1646 204.413 95.1646C204.639 95.1646 204.857 95.0746 205.017 94.9144C205.177 94.7541 205.267 94.5368 205.267 94.3102C205.267 94.0836 205.177 93.8663 205.017 93.7061C204.857 93.5458 204.639 93.4558 204.413 93.4558Z" fill="#C2C7D6"/>
<path d="M134.299 41.3279C134.073 41.3279 133.855 41.4179 133.695 41.5781C133.535 41.7384 133.445 41.9557 133.445 42.1823C133.445 42.4089 133.535 42.6262 133.695 42.7864C133.855 42.9467 134.073 43.0367 134.299 43.0367C134.526 43.0367 134.743 42.9467 134.903 42.7864C135.064 42.6262 135.154 42.4089 135.154 42.1823C135.154 41.9557 135.064 41.7384 134.903 41.5781C134.743 41.4179 134.526 41.3279 134.299 41.3279Z" fill="#C2C7D6"/>
<path d="M123.082 75.427C122.865 75.4432 122.663 75.5405 122.516 75.6994C122.369 75.8583 122.287 76.067 122.287 76.2838C122.287 76.5006 122.369 76.7093 122.516 76.8682C122.663 77.0271 122.865 77.1244 123.082 77.1406C123.298 77.1244 123.5 77.0271 123.647 76.8682C123.795 76.7093 123.877 76.5006 123.877 76.2838C123.877 76.067 123.795 75.8583 123.647 75.6994C123.5 75.5405 123.298 75.4432 123.082 75.427Z" fill="#C2C7D6"/>
<path d="M101.582 160.277C101.366 160.293 101.164 160.39 101.017 160.549C100.869 160.708 100.787 160.917 100.787 161.133C100.787 161.35 100.869 161.559 101.017 161.718C101.164 161.877 101.366 161.974 101.582 161.99C101.799 161.974 102.001 161.877 102.148 161.718C102.295 161.559 102.377 161.35 102.377 161.133C102.377 160.917 102.295 160.708 102.148 160.549C102.001 160.39 101.799 160.293 101.582 160.277Z" fill="#C2C7D6"/>
</svg>
