<svg width="152" height="144" viewBox="0 0 152 144" fill="none" xmlns="http://www.w3.org/2000/svg">
<path d="M113.839 117.645L73.1535 93.3335L52.8125 105.487L93.4982 129.798L113.839 117.645Z" fill="#B8C3DE"/>
<path opacity="0.4" d="M54.9531 105.487L93.4983 128.527L111.699 117.652L73.1536 94.6123L54.9531 105.487ZM56.0253 105.487L73.1536 95.2497L110.623 117.645L93.4983 127.882L56.0253 105.487Z" fill="#2B2B2B"/>
<g opacity="0.4">
<path opacity="0.4" d="M84.0863 117.859C81.3114 117.859 78.4659 117.199 76.2734 115.889C74.1403 114.611 72.916 112.871 72.916 111.113C72.916 109.5 73.9177 108.014 75.7392 106.923C79.6271 104.6 86.1935 104.746 90.3745 107.246C92.5113 108.521 93.7356 110.26 93.7356 112.019C93.7356 113.632 92.7302 115.121 90.9124 116.208C89.0946 117.295 86.6164 117.859 84.0863 117.859ZM82.5653 105.644C80.1131 105.644 77.724 106.174 75.921 107.25C74.2182 108.267 73.2796 109.642 73.2796 111.113C73.2796 112.733 74.437 114.353 76.4589 115.563C80.5397 118.001 86.9429 118.144 90.7269 115.882C92.4334 114.864 93.372 113.493 93.372 112.019C93.372 110.398 92.2108 108.778 90.1927 107.572C88.0521 106.29 85.2735 105.644 82.5653 105.644Z" fill="#2B2B2B"/>
</g>
<g opacity="0.2">
<path opacity="0.2" d="M84.082 116.504C81.448 116.504 78.8437 115.847 76.9332 114.707C75.2192 113.682 74.2324 112.372 74.2324 111.113C74.2324 110.007 75.0004 108.939 76.399 108.106C77.9905 107.154 80.1793 106.631 82.5647 106.631C85.1987 106.631 87.8067 107.284 89.7173 108.425C91.4312 109.45 92.418 110.763 92.418 112.019C92.418 113.125 91.6464 114.192 90.2515 115.026C88.66 115.978 86.4675 116.504 84.082 116.504Z" fill="#2B2B2B"/>
</g>
<path opacity="0.2" d="M91.3533 125.632L80.1719 118.896L81.0659 119.015C81.8658 119.12 82.6711 119.172 83.4773 119.173C86.2009 119.123 88.873 118.396 91.268 117.053C93.2453 115.87 95.2449 113.754 95.2449 111.677C95.239 110.959 95.0847 110.251 94.7923 109.6L94.5512 109.062L106.794 116.419L105.451 117.226C105.357 117.266 105.276 117.331 105.214 117.414C105.152 117.497 105.112 117.595 105.098 117.698C105.112 117.803 105.152 117.902 105.214 117.986C105.275 118.07 105.357 118.136 105.451 118.178L106.797 118.981L95.6419 125.605L94.4807 124.91C94.1764 124.751 93.8403 124.668 93.4994 124.668C93.1586 124.668 92.8225 124.751 92.5182 124.91L91.3533 125.632Z" fill="#2B2B2B"/>
<path d="M96.2615 120.932C95.6145 120.94 94.9761 120.777 94.4066 120.459C94.1746 120.35 93.9746 120.179 93.8267 119.964C93.6789 119.749 93.5884 119.497 93.5645 119.234C93.579 119.003 93.6535 118.78 93.7802 118.589C93.9068 118.397 94.0809 118.245 94.2842 118.148C94.8329 117.873 95.4363 117.737 96.0455 117.75C96.6546 117.763 97.2523 117.924 97.7899 118.22C98.0229 118.329 98.2238 118.5 98.3724 118.715C98.521 118.93 98.6118 119.182 98.6358 119.445C98.6211 119.677 98.5466 119.901 98.42 120.093C98.2934 120.284 98.1193 120.438 97.9161 120.536C97.4062 120.812 96.8366 120.948 96.2615 120.932Z" fill="#B8C3DE"/>
<path opacity="0.2" d="M72.1487 114.031L59.9062 106.735L61.2529 105.933C61.4792 105.798 61.6239 105.629 61.6016 105.456C61.5892 105.352 61.5504 105.253 61.4892 105.17C61.4279 105.086 61.3464 105.021 61.2529 104.98L59.9062 104.174L71.0357 97.6113L72.1969 98.3064C72.5018 98.461 72.8368 98.5414 73.1763 98.5414C73.5158 98.5414 73.8508 98.461 74.1557 98.3064L75.3169 97.6113L86.4946 104.27L85.5894 104.151C84.7886 104.043 83.9819 103.989 83.1743 103.99C80.5255 103.99 77.361 104.819 75.2983 106.052C72.7237 107.588 71.4179 109.239 71.4179 110.955C71.4279 111.821 71.5874 112.678 71.889 113.486L72.1487 114.031Z" fill="#2B2B2B"/>
<path d="M70.6637 105.69C70.0171 105.699 69.379 105.538 68.8087 105.222C68.5765 105.112 68.3761 104.941 68.2277 104.727C68.0792 104.512 67.9879 104.26 67.9629 103.997C67.9768 103.765 68.051 103.541 68.1777 103.349C68.3044 103.157 68.4788 103.004 68.6826 102.906C69.2322 102.633 69.8362 102.497 70.4458 102.51C71.0554 102.523 71.6535 102.684 72.1921 102.979C72.4234 103.09 72.6229 103.261 72.7706 103.476C72.9183 103.691 73.0092 103.942 73.0342 104.204C73.0203 104.436 72.9461 104.66 72.8194 104.852C72.6927 105.044 72.5183 105.197 72.3145 105.295C71.8063 105.572 71.2377 105.708 70.6637 105.69Z" fill="#B8C3DE"/>
<path d="M113.839 117.645V122.763L93.498 134.921V129.798L113.839 117.645Z" fill="#B8C3DE"/>
<g opacity="0.1">
<path opacity="0.1" d="M113.839 117.645V122.763L93.498 134.921V129.798L113.839 117.645Z" fill="#2B2B2B"/>
</g>
<g opacity="0.1">
<path opacity="0.1" d="M93.4979 130.942L99.9196 127.241L93.4941 131.254L93.4979 130.942Z" fill="#2B2B2B"/>
<path opacity="0.1" d="M113.838 120.075L111.697 121.484L113.838 120.332V120.075Z" fill="#2B2B2B"/>
<path opacity="0.1" d="M113.837 121.296L103.131 127.882L113.837 121.673V121.296Z" fill="#2B2B2B"/>
<path opacity="0.1" d="M93.4941 132.159L104.201 125.961L93.4941 132.562V132.159Z" fill="#2B2B2B"/>
</g>
<path d="M93.4982 134.92L52.8125 110.606V105.487L93.4982 129.798V134.92Z" fill="#B8C3DE"/>
<g opacity="0.2">
<path opacity="0.2" d="M93.4982 134.92L52.8125 110.606V105.487L93.4982 129.798V134.92Z" fill="#2B2B2B"/>
</g>
<g style="mix-blend-mode:multiply" opacity="0.3">
<g style="mix-blend-mode:multiply" opacity="0.3">
<path d="M93.4978 130.943L91.3535 129.798L93.4941 131.254L93.4978 130.943Z" fill="#2B2B2B"/>
</g>
</g>
<g style="mix-blend-mode:multiply" opacity="0.3">
<g style="mix-blend-mode:multiply" opacity="0.3">
<path d="M93.4946 132.16L82.7324 125.932L93.4946 132.563V132.16Z" fill="#2B2B2B"/>
</g>
</g>
<g style="mix-blend-mode:multiply" opacity="0.3">
<g style="mix-blend-mode:multiply" opacity="0.3">
<path d="M52.8125 107.899L60.3064 112.526L52.8125 108.198V107.899Z" fill="#2B2B2B"/>
</g>
</g>
<g style="mix-blend-mode:multiply" opacity="0.3">
<g style="mix-blend-mode:multiply" opacity="0.3">
<path d="M52.8125 109.185L57.0937 111.888L52.8125 109.469V109.185Z" fill="#2B2B2B"/>
</g>
</g>
<path d="M97.0395 106.755L75.9899 119.338L69.5645 115.502L90.6141 102.918L97.0395 106.755Z" fill="#455A64"/>
<path d="M69.5645 115.502V121.07L75.9899 124.906V119.338L69.5645 115.502Z" fill="#263238"/>
<path d="M75.9902 124.906L76.3655 124.683L75.9902 124.457V124.906Z" fill="#E0E0E0"/>
<path d="M97.0434 106.754V107.607L96.3301 107.181L97.0434 106.754Z" fill="#E0E0E0"/>
<g style="mix-blend-mode:multiply" opacity="0.3">
<g style="mix-blend-mode:multiply" opacity="0.3">
<path d="M76.3655 124.679V119.564L75.9902 119.338V124.457L76.3655 124.679Z" fill="#2B2B2B"/>
</g>
</g>
<g style="mix-blend-mode:multiply" opacity="0.2">
<g style="mix-blend-mode:multiply" opacity="0.2">
<path d="M76.3649 119.564L96.7059 107.407L96.3275 107.18L75.9902 119.338L76.3649 119.564Z" fill="#2B2B2B"/>
</g>
</g>
<path d="M96.3473 106.344L75.294 118.923L74.7598 118.605L95.8131 106.025L96.3473 106.344Z" fill="#FAFAFA"/>
<path d="M91.8512 103.656L70.7979 116.235L70.2637 115.917L91.3132 103.337L91.8512 103.656Z" fill="#FAFAFA"/>
<path d="M75.2948 118.923V124.491L74.7598 124.172V118.604L75.2948 118.923Z" fill="#E0E0E0"/>
<path d="M70.7985 116.235V121.803L70.2598 121.485L70.2635 115.917L70.7985 116.235Z" fill="#E0E0E0"/>
<path d="M93.6032 7.521L80.2812 15.4852L93.6069 23.4455L106.933 15.4852L93.6032 7.521Z" fill="#B8C3DE"/>
<path opacity="0.3" d="M93.6032 7.521L80.2812 15.4852L93.6069 23.4455L106.933 15.4852L93.6032 7.521Z" fill="#2B2B2B"/>
<path d="M106.931 15.458V61.4996L93.6055 69.4599V23.449L106.931 15.458Z" fill="#B8C3DE"/>
<path opacity="0.4" d="M106.931 15.458V61.4996L93.6055 69.4599V23.449L106.931 15.458Z" fill="#2B2B2B"/>
<path d="M93.6069 23.4495V69.4604L80.2812 61.4962V15.4854L93.6069 23.4495Z" fill="#B8C3DE"/>
<path opacity="0.55" d="M93.6069 23.4495V69.4604L80.2812 61.4962V15.4854L93.6069 23.4495Z" fill="#2B2B2B"/>
<path d="M68.4333 47.3379L55.1113 55.2982L68.437 63.2624L81.759 55.3021L68.4333 47.3379Z" fill="#B8C3DE"/>
<path opacity="0.3" d="M68.4333 47.3379L55.1113 55.2982L68.437 63.2624L81.759 55.3021L68.4333 47.3379Z" fill="white"/>
<path d="M81.7652 55.3022V76.5374L68.4395 84.5016V63.2626L81.7652 55.3022Z" fill="#B8C3DE"/>
<path d="M68.437 63.2625V84.5015L55.1113 76.5374V55.2983L68.437 63.2625Z" fill="#B8C3DE"/>
<path opacity="0.1" d="M68.437 63.2625V84.5015L55.1113 76.5374V55.2983L68.437 63.2625Z" fill="#2B2B2B"/>
<path d="M43.2671 35.8369L29.9414 43.8011L43.2671 51.7614L56.5891 43.7972L43.2671 35.8369Z" fill="#B8C3DE"/>
<path opacity="0.7" d="M43.2671 35.8369L29.9414 43.8011L43.2671 51.7614L56.5891 43.7972L43.2671 35.8369Z" fill="white"/>
<path d="M56.5933 43.8013V91.5977L43.2676 99.5465V51.7616L56.5933 43.8013Z" fill="#B8C3DE"/>
<path opacity="0.6" d="M56.5933 43.8013V91.5977L43.2676 99.5465V51.7616L56.5933 43.8013Z" fill="white"/>
<path d="M43.2671 51.7616V99.5465L29.9414 91.5824V43.8013L43.2671 51.7616Z" fill="#B8C3DE"/>
<path opacity="0.4" d="M43.2671 51.7616V99.5465L29.9414 91.5824V43.8013L43.2671 51.7616Z" fill="white"/>
<path d="M18.0954 61.4927L4.77344 69.4607L18.0992 77.4248L31.4212 69.4645L18.0954 61.4927Z" fill="#455A64"/>
<path d="M31.4251 69.4336V106.62L18.0994 114.584L18.0957 77.4285L31.4251 69.4336Z" fill="#37474F"/>
<path d="M18.0954 77.4285L18.0991 114.584L4.77344 106.62V69.4336L18.0954 77.4285Z" fill="#263238"/>
<path d="M132.106 64.295L127.547 61.561L136.369 53.7734L140.928 56.4998L132.106 64.295Z" fill="#35BA83"/>
<path opacity="0.3" d="M132.106 64.295L127.547 61.561L136.369 53.7734L140.928 56.4998L132.106 64.295Z" fill="#2B2B2B"/>
<path d="M134.906 66.0921C132.576 64.3833 128.522 65.6735 125.094 66.7948C124.27 67.079 123.525 67.3362 122.849 67.5628C122.633 68.0823 122.519 68.6408 122.512 69.2063C122.512 71.9558 124.764 71.207 129.661 69.5366C131.313 68.9513 133.004 68.4906 134.721 68.158C134.869 69.5596 135.808 70.846 139.469 68.8339L134.906 66.0921Z" fill="#35BA83"/>
<path opacity="0.3" d="M134.906 66.0921C132.576 64.3833 128.522 65.6735 125.094 66.7948C124.27 67.079 123.525 67.3362 122.849 67.5628C122.633 68.0823 122.519 68.6408 122.512 69.2063C122.512 71.9558 124.764 71.207 129.661 69.5366C131.313 68.9513 133.004 68.4906 134.721 68.158C134.869 69.5596 135.808 70.846 139.469 68.8339L134.906 66.0921Z" fill="#2B2B2B"/>
<path d="M123.608 101.896L119.049 99.1699V93.5942L123.608 96.3283V101.896Z" fill="#35BA83"/>
<path opacity="0.3" d="M123.608 101.896L119.049 99.1699V93.5942L123.608 96.3283V101.896Z" fill="#2B2B2B"/>
<path d="M131.334 80.7338C131.334 82.9495 129.724 84.9271 127.342 86.3633C123.54 88.6481 122.063 86.7857 121.737 84.9655L120.936 84.4855C121.585 84.2783 122.208 83.9908 122.79 83.6292C124.593 82.5425 125.951 81.1409 126.5 79.5665C129.309 78.6142 131.334 78.2417 131.334 80.7338Z" fill="#35BA83"/>
<path opacity="0.3" d="M131.334 80.7338C131.334 82.9495 129.724 84.9271 127.342 86.3633C123.54 88.6481 122.063 86.7857 121.737 84.9655L120.936 84.4855C121.585 84.2783 122.208 83.9908 122.79 83.6292C124.593 82.5425 125.951 81.1409 126.5 79.5665C129.309 78.6142 131.334 78.2417 131.334 80.7338Z" fill="#2B2B2B"/>
<path d="M114.378 94.3968C113.874 94.0933 113.295 93.9479 112.712 93.9782C112.619 93.6979 112.538 93.4061 112.467 93.0951L107.904 90.3687C108.361 92.4154 109.266 93.6941 110.46 94.4007L115.012 97.1232C115.012 97.1232 115.78 95.3491 114.378 94.3968Z" fill="#35BA83"/>
<path opacity="0.3" d="M114.378 94.3968C113.874 94.0933 113.295 93.9479 112.712 93.9782C112.619 93.6979 112.538 93.4061 112.467 93.0951L107.904 90.3687C108.361 92.4154 109.266 93.6941 110.46 94.4007L115.012 97.1232C115.012 97.1232 115.78 95.3491 114.378 94.3968Z" fill="#2B2B2B"/>
<path d="M129.661 69.5252C124.764 71.1956 122.512 71.9444 122.512 69.1949C122.519 68.6294 122.634 68.0709 122.85 67.5514C119.511 68.6189 117.953 68.7533 117.953 66.4685C117.953 64.7904 119.047 62.7207 122.067 60.9005C125.291 58.9805 127.094 59.4183 127.546 61.561L136.368 53.7735C136.331 53.6544 136.287 53.5508 136.246 53.4356C136.795 53.3106 137.323 53.1009 137.811 52.8135L134.172 50.5748C134.057 50.498 133.942 50.425 133.823 50.3597L133.768 50.3252C132.691 49.7893 131.488 49.5866 130.303 49.7415C128.727 49.9247 127.189 50.3613 125.743 51.0356V50.9396L130.303 48.2132L125.743 45.4829L122.649 47.3453L118.465 49.8644V55.4324C112.284 60.0903 108.422 66.1844 108.422 72.7585C108.422 75.7537 109.205 77.4548 110.466 78.3226L110.526 78.361C110.635 78.431 110.748 78.4951 110.863 78.553L114.681 80.7802C114.785 80.1756 114.704 79.5523 114.447 78.9985C115.658 78.8364 116.853 78.5666 118.019 78.1921C122.66 76.7405 126.778 74.4596 126.778 78.0193C126.778 78.5534 126.684 79.0829 126.5 79.5821C129.316 78.6298 131.341 78.2573 131.341 80.7341C131.341 82.9498 129.731 84.9274 127.35 86.3636C123.547 88.6484 122.071 86.786 121.744 84.9658L120.943 84.4858L117.185 82.2356L107.91 90.3687L112.473 93.0951C112.621 93.7922 112.857 94.4661 113.174 95.0996C114.955 95.1303 116.999 94.5236 119.054 93.5943V95.8484L123.614 96.4244L126.266 94.827V89.2589C132.51 84.4897 136.825 78.0653 136.825 71.3568C136.858 70.212 136.683 69.0709 136.309 67.993C134.235 68.0391 131.82 68.8186 129.661 69.5252Z" fill="#35BA83"/>
<path opacity="0.4" d="M129.661 69.5252C124.764 71.1956 122.512 71.9444 122.512 69.1949C122.519 68.6294 122.634 68.0709 122.85 67.5514C119.511 68.6189 117.953 68.7533 117.953 66.4685C117.953 64.7904 119.047 62.7207 122.067 60.9005C125.291 58.9805 127.094 59.4183 127.546 61.561L136.368 53.7735C136.331 53.6544 136.287 53.5508 136.246 53.4356C136.795 53.3106 137.323 53.1009 137.811 52.8135L134.172 50.5748C134.057 50.498 133.942 50.425 133.823 50.3597L133.768 50.3252C132.691 49.7893 131.488 49.5866 130.303 49.7415C128.727 49.9247 127.189 50.3613 125.743 51.0356V50.9396L130.303 48.2132L125.743 45.4829L122.649 47.3453L118.465 49.8644V55.4324C112.284 60.0903 108.422 66.1844 108.422 72.7585C108.422 75.7537 109.205 77.4548 110.466 78.3226L110.526 78.361C110.635 78.431 110.748 78.4951 110.863 78.553L114.681 80.7802C114.785 80.1756 114.704 79.5523 114.447 78.9985C115.658 78.8364 116.853 78.5666 118.019 78.1921C122.66 76.7405 126.778 74.4596 126.778 78.0193C126.778 78.5534 126.684 79.0829 126.5 79.5821C129.316 78.6298 131.341 78.2573 131.341 80.7341C131.341 82.9498 129.731 84.9274 127.35 86.3636C123.547 88.6484 122.071 86.786 121.744 84.9658L120.943 84.4858L117.185 82.2356L107.91 90.3687L112.473 93.0951C112.621 93.7922 112.857 94.4661 113.174 95.0996C114.955 95.1303 116.999 94.5236 119.054 93.5943V95.8484L123.614 96.4244L126.266 94.827V89.2589C132.51 84.4897 136.825 78.0653 136.825 71.3568C136.858 70.212 136.683 69.0709 136.309 67.993C134.235 68.0391 131.82 68.8186 129.661 69.5252Z" fill="white"/>
<path d="M136.296 67.9927C134.23 68.0388 131.815 68.8183 129.656 69.5287C124.759 71.1991 122.507 71.9479 122.507 69.1985C122.514 68.633 122.629 68.0745 122.845 67.555C123.368 66.2686 124.536 64.89 126.629 63.6305C129.849 61.7105 131.652 62.1521 132.101 64.2987L140.923 56.5035C140.077 53.8692 138.355 52.4983 135.799 52.4407C134.267 52.3985 132.427 52.8247 130.298 53.7694V48.2129L125.738 50.9547L123.023 52.5905V58.1585C116.842 62.8203 112.976 68.9105 112.976 75.4846C112.939 76.7053 113.125 77.9222 113.525 79.0711C114.891 82.6001 118.63 82.1163 122.57 80.9182C123.95 80.4881 125.293 79.9812 126.488 79.5819C129.303 78.6295 131.329 78.2571 131.329 80.7339C131.329 82.9496 129.719 84.9272 127.337 86.3633C123.535 88.6481 122.058 86.7857 121.732 84.9655L112.457 93.0948C112.605 93.7919 112.841 94.4658 113.158 95.0993C114.364 97.4417 116.523 98.0868 119.038 97.7451C120.614 97.4916 122.148 97.0148 123.598 96.3281V101.896L130.81 97.5876V91.9889C137.057 87.2273 141.368 80.803 141.368 74.0868C141.379 69.2523 139.168 67.9236 136.296 67.9927Z" fill="#35BA83"/>
<path d="M123.03 58.1473L118.467 55.417V49.8452L123.03 52.5754V58.1473Z" fill="#35BA83"/>
<path opacity="0.3" d="M123.03 58.1473L118.467 55.417V49.8452L123.03 52.5754V58.1473Z" fill="#2B2B2B"/>
<path d="M118.467 49.8451C119.238 50.279 120.014 50.7091 120.778 51.1545C121.542 51.6 122.314 52.0416 123.074 52.4947H122.985C123.59 52.1107 124.191 51.7536 124.799 51.3965L126.625 50.3097L128.461 49.2422C129.073 48.8851 129.689 48.5434 130.316 48.1978C129.719 48.5818 129.125 48.9658 128.524 49.3498L126.721 50.471L124.907 51.5769C124.306 51.9609 123.694 52.3027 123.086 52.6675L123.041 52.6944L122.997 52.6675C122.236 52.2105 121.479 51.7497 120.73 51.2774C119.98 50.8051 119.231 50.3213 118.467 49.8451Z" fill="white"/>
<path d="M123.03 58.1475L122.934 52.5757H123.127L123.03 58.1475Z" fill="white"/>
<path d="M123.029 58.1431L122.228 58.7997C121.968 58.9994 121.667 59.2682 121.326 59.5677C120.985 59.8672 120.603 60.2243 120.213 60.616C119.824 61.0077 119.386 61.4608 118.933 61.9216C118.481 62.3824 118.047 62.92 117.616 63.4883C117.397 63.7648 117.171 64.0451 116.963 64.3485C116.756 64.6519 116.529 64.9399 116.336 65.2586C116.144 65.5773 115.932 65.8922 115.739 66.2186L115.19 67.2131L114.693 68.2384C114.533 68.584 114.404 68.9411 114.259 69.2867C113.995 69.9718 113.774 70.6734 113.595 71.3872C113.554 71.56 113.502 71.7328 113.469 71.9056C113.435 72.0784 113.402 72.2474 113.372 72.4202C113.299 72.7481 113.245 73.0802 113.209 73.4147C113.172 73.745 113.12 74.0599 113.105 74.3709C113.09 74.6819 113.076 74.9776 113.064 75.2656C113.046 75.7894 113.058 76.3138 113.098 76.8362C113.13 77.2387 113.185 77.6388 113.265 78.0343C113.335 78.3607 113.406 78.6141 113.461 78.8023C113.517 78.9904 113.55 79.0634 113.55 79.0634L113.454 78.8061C113.368 78.5607 113.295 78.3108 113.235 78.0573C113.144 77.6624 113.074 77.2624 113.027 76.8592C112.969 76.3354 112.944 75.8082 112.953 75.281C112.953 74.9891 112.972 74.6896 112.979 74.3747C112.986 74.0599 113.038 73.745 113.064 73.4147C113.09 73.0845 113.153 72.7466 113.213 72.4048C113.267 72.0527 113.34 71.7039 113.432 71.3603C113.607 70.6376 113.826 69.9271 114.088 69.233C114.233 68.8797 114.363 68.5226 114.522 68.1731C114.682 67.8237 114.853 67.4819 115.016 67.1325L115.58 66.1303C115.773 65.8039 115.984 65.489 116.184 65.1703C116.385 64.8515 116.615 64.5559 116.826 64.2525C117.038 63.9491 117.264 63.6688 117.487 63.3923C117.921 62.8202 118.399 62.3248 118.833 61.8563C119.267 61.3879 119.712 60.9424 120.139 60.5661C120.566 60.1898 120.94 59.8327 121.3 59.5447C121.66 59.2567 121.961 58.9917 122.224 58.7997L123.029 58.1431Z" fill="white"/>
<path d="M136.294 67.9931H136.12C136.009 67.9931 135.845 68.0123 135.638 68.0353C135.064 68.1078 134.495 68.2103 133.931 68.3425C133.23 68.5 132.425 68.7265 131.564 68.9992C130.704 69.2718 129.795 69.5675 128.886 69.8824L127.52 70.3278C127.068 70.4699 126.623 70.6082 126.185 70.7118C125.767 70.8329 125.342 70.9252 124.912 70.9883C124.526 71.059 124.131 71.0733 123.74 71.0306C123.4 71.0025 123.083 70.8386 122.857 70.5736L122.727 70.3931C122.694 70.3278 122.675 70.2626 122.649 70.2011C122.601 70.0904 122.57 69.9725 122.557 69.8517C122.524 69.6876 122.509 69.5201 122.512 69.3525C122.512 69.2334 122.512 69.172 122.512 69.172C122.512 69.172 122.512 69.2334 122.512 69.3486C122.518 69.5156 122.541 69.6816 122.579 69.844C122.599 69.9614 122.635 70.0752 122.687 70.1819C122.716 70.2395 122.738 70.301 122.772 70.3624L122.902 70.5275C123.126 70.7604 123.427 70.8975 123.744 70.9115C124.125 70.9451 124.509 70.9206 124.883 70.8386C125.083 70.804 125.287 70.7618 125.499 70.708C125.71 70.6542 125.918 70.6005 126.137 70.539C126.567 70.42 127.009 70.2779 127.457 70.132L128.819 69.675C129.728 69.3678 130.644 69.0721 131.509 68.8149C132.373 68.5576 133.193 68.3579 133.901 68.2158C134.471 68.1017 135.047 68.0261 135.626 67.9893C135.838 67.9893 135.997 67.9893 136.112 67.9893L136.294 67.9931Z" fill="white"/>
<path d="M131.338 80.7344V80.8995C131.336 81.0548 131.326 81.2099 131.308 81.3641C131.282 81.6043 131.238 81.8419 131.174 82.0745C131.094 82.3786 130.983 82.6733 130.844 82.9539C130.681 83.286 130.491 83.6033 130.276 83.9024C130.035 84.2353 129.769 84.5473 129.479 84.8355C128.844 85.4572 128.142 86.0009 127.387 86.456L126.8 86.7747C126.607 86.8822 126.396 86.9629 126.196 87.0589C125.796 87.2281 125.381 87.3567 124.957 87.4429C124.556 87.5217 124.144 87.5217 123.744 87.4429C123.558 87.4026 123.376 87.3434 123.202 87.2662C123.044 87.184 122.895 87.0849 122.757 86.9705C122.515 86.7745 122.313 86.5304 122.163 86.2525C122.048 86.0411 121.954 85.8186 121.881 85.5881C121.836 85.4393 121.799 85.288 121.77 85.135L121.74 84.9737L121.781 85.135C121.817 85.2849 121.861 85.4324 121.915 85.5766C121.996 85.7994 122.099 86.0129 122.223 86.2141C122.383 86.4719 122.586 86.6982 122.823 86.8822C122.957 86.987 123.101 87.0759 123.254 87.1472C123.42 87.2172 123.593 87.2675 123.77 87.297C124.154 87.3594 124.545 87.3529 124.927 87.2778C125.338 87.1915 125.739 87.0628 126.125 86.8938C126.318 86.7978 126.518 86.7209 126.711 86.6096L127.294 86.2832C127.671 86.0585 128.036 85.8137 128.388 85.5498C128.73 85.2937 129.056 85.0153 129.364 84.7165C129.917 84.1951 130.384 83.5843 130.748 82.9078C130.895 82.6365 131.019 82.3526 131.119 82.0592C131.193 81.8341 131.249 81.6028 131.286 81.368C131.313 81.2158 131.33 81.0618 131.338 80.9072V80.7344Z" fill="white"/>
<path d="M107.904 90.3685L110.212 91.6818L112.508 93.0181H112.412L114.723 90.9752L117.045 88.9515C117.821 88.2719 118.603 87.6075 119.383 86.9394C120.162 86.2712 120.952 85.6184 121.738 84.9541C120.978 85.6491 120.225 86.3519 119.46 87.0354C118.696 87.7189 117.932 88.4101 117.16 89.0859L114.845 91.125L112.519 93.1487L112.475 93.1871L112.423 93.1563L110.16 91.7663L107.904 90.3685Z" fill="white"/>
<path d="M130.82 91.9892L131.525 91.4055C131.751 91.2212 132.026 90.9985 132.323 90.722C132.62 90.4455 132.976 90.1575 133.328 89.8043C133.681 89.451 134.089 89.09 134.475 88.6523L135.083 88.0148L135.691 87.3236C135.903 87.0932 136.103 86.8475 136.303 86.594C136.504 86.3406 136.712 86.091 136.908 85.826C137.279 85.2923 137.695 84.7547 138.043 84.1863C138.392 83.618 138.741 83.0343 139.067 82.466C139.394 81.8977 139.665 81.314 139.898 80.7111C140.132 80.1083 140.336 79.5591 140.54 79.01C140.618 78.7297 140.696 78.4609 140.77 78.1959C140.807 78.0654 140.844 77.9348 140.878 77.8119C140.911 77.6891 140.933 77.5585 140.959 77.4279C141.059 76.9326 141.163 76.4795 141.208 76.0686C141.252 75.6577 141.319 75.3006 141.327 75.0049C141.36 74.4135 141.379 74.0718 141.379 74.0718C141.379 74.0718 141.379 74.4135 141.36 75.0087C141.349 75.3659 141.321 75.7222 141.275 76.0763C141.233 76.5398 141.164 77.0003 141.067 77.4548C141.041 77.5777 141.019 77.7083 140.993 77.8388C140.967 77.9694 140.926 78.0961 140.893 78.2228C140.822 78.4878 140.752 78.7643 140.677 79.0484C140.481 79.5975 140.306 80.2004 140.054 80.7726C139.802 81.3447 139.524 81.9515 139.227 82.5505C138.93 83.1495 138.585 83.7294 138.207 84.29C137.828 84.8507 137.465 85.3998 137.053 85.9335C136.853 86.1985 136.641 86.4481 136.437 86.7015C136.233 86.955 136.029 87.2007 135.817 87.4311L135.183 88.1492L134.56 88.779C134.163 89.1937 133.755 89.547 133.388 89.8926C133.02 90.2382 132.646 90.5185 132.352 90.7834C132.059 91.0484 131.763 91.2596 131.533 91.4363L130.82 91.9892Z" fill="white"/>
<path d="M119.049 97.7488C119.442 97.6797 119.828 97.5875 120.214 97.48C120.6 97.3725 120.978 97.2611 121.353 97.1305C122.095 96.8656 122.837 96.5737 123.579 96.2397L123.712 96.1782V96.3318C123.712 96.7926 123.712 97.2573 123.712 97.7219V99.1158C123.712 100.041 123.675 100.971 123.634 101.9C123.597 100.971 123.571 100.043 123.556 99.1158V97.7219C123.556 97.2573 123.556 96.7926 123.556 96.3318L123.69 96.4201C122.955 96.748 122.204 97.0326 121.438 97.2726C120.659 97.5139 119.859 97.6734 119.049 97.7488Z" fill="white"/>
<path d="M126.65 63.6267C126.895 63.4846 127.129 63.331 127.392 63.2004C127.656 63.0699 127.886 62.9393 128.134 62.8164C128.255 62.7572 128.379 62.7047 128.505 62.659C128.636 62.6038 128.77 62.5576 128.906 62.5208C129.04 62.4862 129.173 62.4363 129.31 62.4132C129.448 62.3902 129.589 62.3556 129.73 62.348C129.87 62.3384 130.012 62.3384 130.152 62.348C130.296 62.3524 130.439 62.3704 130.579 62.4017C130.72 62.4296 130.857 62.4747 130.987 62.5361C131.118 62.5983 131.242 62.6742 131.358 62.7627C131.472 62.8549 131.576 62.9605 131.666 63.0776C131.758 63.1965 131.838 63.3252 131.904 63.4616C131.971 63.5922 132.028 63.7283 132.074 63.8686C132.122 64.0107 132.152 64.1528 132.193 64.2949L132.048 64.2449L134.252 62.2904L136.478 60.3473L138.704 58.4273L140.93 56.5073L138.759 58.5003L136.574 60.4702L134.374 62.4286L132.148 64.3717L132.044 64.4638L132.007 64.3217C131.97 64.1873 131.941 64.0491 131.896 63.9147C131.855 63.7818 131.801 63.6532 131.737 63.5307C131.679 63.4065 131.607 63.2903 131.521 63.1851C131.44 63.0755 131.347 62.9763 131.243 62.8894C131.139 62.804 131.026 62.7318 130.906 62.6744C130.788 62.6127 130.663 62.5675 130.535 62.54C130.405 62.5058 130.272 62.4853 130.138 62.4785C130.002 62.4689 129.865 62.4689 129.73 62.4785C129.592 62.4785 129.459 62.5169 129.321 62.5361C129.184 62.5553 129.054 62.5976 128.921 62.6283C128.787 62.659 128.654 62.7089 128.524 62.7512C128.391 62.7905 128.261 62.8379 128.134 62.8932C127.875 62.9931 127.619 63.1083 127.37 63.2312C127.122 63.3541 126.884 63.4961 126.65 63.6267Z" fill="white"/>
</svg>
