<svg width="152" height="147" viewBox="0 0 152 147" fill="none" xmlns="http://www.w3.org/2000/svg">
<g clip-path="url(#clip0)">
<path d="M96.3611 33.0598H55.6732C54.7459 33.0609 53.857 33.4288 53.2014 34.0827C52.5458 34.7365 52.1769 35.6231 52.1758 36.5478V126.735L51.7095 126.877L41.7281 129.925C41.2551 130.069 40.7441 130.02 40.3074 129.788C39.8707 129.557 39.544 129.162 39.3989 128.691L9.70883 31.9692C9.56434 31.4975 9.61359 30.9878 9.84574 30.5522C10.0779 30.1166 10.474 29.7907 10.9469 29.6463L26.3282 24.9491L70.9192 11.3368L86.3004 6.63965C86.5345 6.5678 86.7805 6.54269 87.0243 6.56576C87.2682 6.58883 87.505 6.65963 87.7214 6.7741C87.9377 6.88857 88.1293 7.04447 88.2852 7.23287C88.441 7.42127 88.5581 7.63848 88.6297 7.87206L96.2189 32.5948L96.3611 33.0598Z" fill="#F2F2F2"/>
<path d="M105.24 32.5958L96.0935 2.79928C95.9413 2.30281 95.6925 1.84112 95.3614 1.44057C95.0302 1.04003 94.6232 0.7085 94.1635 0.464914C93.7038 0.221328 93.2005 0.0704629 92.6823 0.0209457C92.1641 -0.0285714 91.6413 0.0242295 91.1436 0.176326L69.5184 6.77788L24.9298 20.3926L3.30463 26.9965C2.30004 27.3041 1.45888 27.9967 0.965789 28.9222C0.472698 29.8478 0.367958 30.9306 0.674565 31.9331L31.9361 133.765C32.1852 134.575 32.6877 135.283 33.37 135.786C34.0524 136.29 34.8785 136.562 35.7273 136.563C36.1201 136.563 36.5107 136.504 36.886 136.388L51.71 131.863L52.1763 131.719V131.233L51.71 131.375L36.7484 135.944C35.8617 136.214 34.904 136.122 34.0853 135.688C33.2666 135.254 32.6539 134.514 32.3814 133.631L1.12232 31.7959C0.987343 31.358 0.940301 30.8979 0.983883 30.4419C1.02747 29.9858 1.16081 29.5428 1.3763 29.1383C1.59179 28.7337 1.88518 28.3755 2.23967 28.0842C2.59416 27.7929 3.00278 27.5742 3.44215 27.4406L25.0673 20.8367L69.656 7.22434L91.2812 0.620465C91.6145 0.519034 91.9609 0.467317 92.3094 0.466993C93.0571 0.468668 93.7847 0.709095 94.3855 1.15306C94.9864 1.59702 95.4289 2.22119 95.6482 2.93415L104.753 32.5958L104.897 33.0609H105.382L105.24 32.5958Z" fill="#3F3D56"/>
<path d="M29.1039 29.7223C28.6545 29.722 28.217 29.578 27.8557 29.3116C27.4943 29.0451 27.2281 28.6702 27.0961 28.2418L24.093 18.4588C24.0123 18.1961 23.9843 17.92 24.0105 17.6464C24.0368 17.3728 24.1169 17.1071 24.2462 16.8644C24.3755 16.6217 24.5515 16.4067 24.764 16.2318C24.9766 16.057 25.2217 15.9256 25.4852 15.8451L66.5063 3.32015C67.0385 3.1582 67.6133 3.21343 68.1047 3.47372C68.596 3.73402 68.9638 4.17811 69.1272 4.70852L72.1303 14.4916C72.2926 15.0223 72.2371 15.5956 71.9762 16.0856C71.7152 16.5756 71.27 16.9424 70.7382 17.1054L29.7169 29.6304C29.5183 29.6912 29.3117 29.7222 29.1039 29.7223Z" fill="#080056"/>
<path d="M44.8355 10.4533C47.4108 10.4533 49.4986 8.37119 49.4986 5.80273C49.4986 3.23426 47.4108 1.15211 44.8355 1.15211C42.2601 1.15211 40.1724 3.23426 40.1724 5.80273C40.1724 8.37119 42.2601 10.4533 44.8355 10.4533Z" fill="#080056"/>
<path d="M44.8356 8.74765C46.4664 8.74765 47.7885 7.42917 47.7885 5.80273C47.7885 4.1763 46.4664 2.85782 44.8356 2.85782C43.2048 2.85782 41.8828 4.1763 41.8828 5.80273C41.8828 7.42917 43.2048 8.74765 44.8356 8.74765Z" fill="white"/>
<path d="M141.008 135.373H62.2015C61.6761 135.373 61.1724 135.164 60.8009 134.794C60.4293 134.423 60.2203 133.921 60.2197 133.397V39.2219C60.2203 38.6979 60.4293 38.1955 60.8008 37.8249C61.1724 37.4544 61.6761 37.2459 62.2015 37.2454H141.008C141.534 37.246 142.037 37.4544 142.409 37.8249C142.78 38.1955 142.989 38.6979 142.99 39.2219V133.397C142.989 133.921 142.78 134.423 142.409 134.794C142.037 135.164 141.534 135.373 141.008 135.373Z" fill="#E6E6E6"/>
<path d="M104.752 32.5948H55.6731C54.6224 32.5962 53.615 33.0132 52.872 33.7542C52.129 34.4952 51.711 35.4998 51.7095 36.5478V131.374L52.1758 131.232V36.5478C52.1769 35.6231 52.5457 34.7365 53.2014 34.0827C53.857 33.4288 54.7459 33.0609 55.6731 33.0598H104.897L104.752 32.5948ZM147.536 32.5948H55.6731C54.6224 32.5962 53.615 33.0132 52.872 33.7542C52.129 34.4952 51.711 35.4998 51.7095 36.5478V143.047C51.711 144.095 52.129 145.1 52.872 145.841C53.615 146.582 54.6223 146.999 55.6731 147H147.536C148.587 146.999 149.594 146.582 150.338 145.841C151.081 145.1 151.499 144.095 151.5 143.047V36.5478C151.499 35.4998 151.081 34.4952 150.338 33.7542C149.594 33.0132 148.587 32.5962 147.536 32.5948ZM151.034 143.047C151.033 143.972 150.664 144.858 150.008 145.512C149.353 146.166 148.464 146.534 147.536 146.535H55.6731C54.7459 146.534 53.857 146.166 53.2014 145.512C52.5457 144.858 52.1769 143.972 52.1758 143.047V36.5478C52.1769 35.6231 52.5457 34.7365 53.2014 34.0827C53.857 33.4288 54.7459 33.0609 55.6731 33.0598H147.536C148.464 33.0609 149.353 33.4288 150.008 34.0827C150.664 34.7365 151.033 35.6231 151.034 36.5478V143.047Z" fill="#3F3D56"/>
<path d="M123.055 42.8261H80.1541C79.5977 42.8255 79.0643 42.6048 78.671 42.2125C78.2776 41.8201 78.0563 41.2882 78.0557 40.7333V30.502C78.0563 29.9471 78.2776 29.4152 78.671 29.0228C79.0644 28.6305 79.5977 28.4098 80.1541 28.4092H123.055C123.611 28.4098 124.144 28.6305 124.538 29.0228C124.931 29.4152 125.152 29.9471 125.153 30.502V40.7333C125.152 41.2882 124.931 41.8201 124.538 42.2125C124.144 42.6048 123.611 42.8255 123.055 42.8261Z" fill="#080056"/>
<path d="M101.605 29.1068C104.18 29.1068 106.268 27.0246 106.268 24.4562C106.268 21.8877 104.18 19.8055 101.605 19.8055C99.0292 19.8055 96.9414 21.8877 96.9414 24.4562C96.9414 27.0246 99.0292 29.1068 101.605 29.1068Z" fill="#080056"/>
<path d="M101.604 27.2888C103.173 27.2888 104.445 26.0206 104.445 24.4562C104.445 22.8917 103.173 21.6235 101.604 21.6235C100.036 21.6235 98.7642 22.8917 98.7642 24.4562C98.7642 26.0206 100.036 27.2888 101.604 27.2888Z" fill="white"/>
</g>
<defs>
<clipPath id="clip0">
<rect width="151" height="147" fill="white" transform="translate(0.5)"/>
</clipPath>
</defs>
</svg>
