<svg width="181" height="181" viewBox="0 0 181 181" fill="none" xmlns="http://www.w3.org/2000/svg">
<g clip-path="url(#clip0_420_31655)">
<path d="M90.5 180.5C140.206 180.5 180.5 140.206 180.5 90.5C180.5 40.7944 140.206 0.5 90.5 0.5C40.7944 0.5 0.5 40.7944 0.5 90.5C0.5 140.206 40.7944 180.5 90.5 180.5Z" fill="#F0F4FE"/>
<path d="M192.483 34.6152H32.625V147.208H192.483V34.6152Z" fill="white"/>
<path d="M192.469 147.208C192.442 147.244 32.5799 147.253 32.5444 147.279C32.5089 147.306 32.5444 34.6377 32.5 34.6155V34.5H32.611C32.611 34.5 192.5 34.5799 192.5 34.5666C192.5 34.5533 192.469 147.173 192.469 147.208ZM192.469 147.208C192.469 147.208 192.362 34.3978 192.469 34.6643L32.6244 34.7265L32.7398 34.6155C32.7398 34.6155 32.7709 147.497 32.6244 147.137L192.482 147.208H192.469Z" fill="#263238"/>
<path d="M192.483 34.6152H32.625V38.6835H192.483V34.6152Z" fill="#263238"/>
<path d="M40.7742 36.6449C40.775 36.8077 40.7275 36.9672 40.6375 37.103C40.5476 37.2388 40.4193 37.3448 40.269 37.4075C40.1187 37.4703 39.9531 37.4869 39.7933 37.4554C39.6335 37.4238 39.4867 37.3455 39.3715 37.2303C39.2563 37.1151 39.178 36.9683 39.1464 36.8085C39.1149 36.6487 39.1315 36.4831 39.1943 36.3328C39.257 36.1825 39.363 36.0542 39.4988 35.9643C39.6346 35.8743 39.7941 35.8268 39.9569 35.8276C40.0643 35.8276 40.1705 35.8488 40.2697 35.8899C40.3688 35.9309 40.4589 35.9911 40.5348 36.067C40.6107 36.1429 40.6709 36.233 40.7119 36.3321C40.753 36.4313 40.7742 36.5375 40.7742 36.6449Z" fill="#C2C7D6"/>
<path d="M44.1277 36.6453C44.1285 36.808 44.0811 36.9673 43.9914 37.103C43.9016 37.2387 43.7736 37.3447 43.6235 37.4075C43.4735 37.4704 43.3081 37.4873 43.1485 37.4561C42.9888 37.4249 42.842 37.347 42.7266 37.2323C42.6113 37.1176 42.5326 36.9712 42.5005 36.8117C42.4684 36.6521 42.4844 36.4867 42.5465 36.3363C42.6085 36.1859 42.7139 36.0573 42.8491 35.9669C42.9843 35.8764 43.1433 35.8281 43.306 35.8281C43.5232 35.8281 43.7315 35.914 43.8854 36.0671C44.0394 36.2203 44.1265 36.4281 44.1277 36.6453Z" fill="white"/>
<path d="M47.4675 36.6449C47.4684 36.8077 47.4208 36.9672 47.3309 37.103C47.2409 37.2388 47.1127 37.3448 46.9624 37.4075C46.812 37.4703 46.6465 37.4869 46.4867 37.4554C46.3269 37.4238 46.1801 37.3455 46.0649 37.2303C45.9497 37.1151 45.8714 36.9683 45.8398 36.8085C45.8082 36.6487 45.8249 36.4831 45.8876 36.3328C45.9504 36.1825 46.0564 36.0542 46.1922 35.9643C46.328 35.8743 46.4874 35.8268 46.6503 35.8276C46.8667 35.8288 47.0739 35.9153 47.2269 36.0683C47.3799 36.2213 47.4663 36.4285 47.4675 36.6449Z" fill="#455A64"/>
<path d="M192.438 38.6792H32.625V51.9988H192.438V38.6792Z" fill="#C2C7D6"/>
<path d="M43.5023 49.063C43.5072 49.1 43.5041 49.1376 43.4932 49.1733C43.4824 49.2089 43.4641 49.2419 43.4395 49.2699C43.4149 49.2979 43.3846 49.3204 43.3506 49.3358C43.3167 49.3512 43.2798 49.3591 43.2425 49.3591C43.2052 49.3591 43.1684 49.3512 43.1344 49.3358C43.1004 49.3204 43.0701 49.2979 43.0455 49.2699C43.021 49.2419 43.0026 49.2089 42.9918 49.1733C42.9809 49.1376 42.9778 49.1 42.9827 49.063V46.3005C42.9809 46.2576 42.9897 46.2149 43.0083 46.1762C43.0269 46.1375 43.0547 46.1039 43.0893 46.0784C43.145 46.0395 43.2137 46.0238 43.2808 46.0346C43.348 46.0453 43.4083 46.0818 43.449 46.1362L44.9857 48.2636V46.3005C44.9869 46.2326 45.0144 46.1677 45.0625 46.1196C45.1105 46.0716 45.1754 46.0441 45.2433 46.0429C45.3117 46.044 45.3771 46.0714 45.4259 46.1193C45.4746 46.1673 45.5031 46.2322 45.5054 46.3005V49.063C45.5042 49.1322 45.4763 49.1982 45.4274 49.2471C45.3785 49.296 45.3125 49.3239 45.2433 49.3251C45.2057 49.3238 45.1687 49.3144 45.135 49.2976C45.1012 49.2807 45.0715 49.2568 45.0479 49.2274V49.2007L43.5023 47.0778V49.063Z" fill="white"/>
<path d="M46.3476 49.0632V46.2562C46.347 46.2216 46.3534 46.1873 46.3663 46.1552C46.3793 46.1232 46.3986 46.094 46.423 46.0696C46.4475 46.0451 46.4766 46.0259 46.5087 46.0129C46.5407 45.9999 46.5751 45.9936 46.6096 45.9942H48.1641C48.2333 45.9953 48.2993 46.0233 48.3482 46.0722C48.397 46.1211 48.425 46.1871 48.4262 46.2562C48.4251 46.3258 48.3972 46.3923 48.3484 46.4419C48.2997 46.4915 48.2337 46.5204 48.1641 46.5227H46.8761V47.411H47.982C48.0462 47.4193 48.1052 47.4507 48.1479 47.4994C48.1906 47.548 48.2142 47.6105 48.2142 47.6752C48.2142 47.74 48.1906 47.8025 48.1479 47.8511C48.1052 47.8997 48.0462 47.9312 47.982 47.9395H46.8761V48.8278H48.1641C48.2283 48.8361 48.2873 48.8675 48.33 48.9162C48.3727 48.9648 48.3963 49.0273 48.3963 49.092C48.3963 49.1568 48.3727 49.2193 48.33 49.2679C48.2873 49.3165 48.2283 49.3479 48.1641 49.3563H46.623C46.5847 49.3585 46.5464 49.3523 46.5107 49.3381C46.4751 49.3239 46.443 49.3021 46.4168 49.2741C46.3905 49.2461 46.3707 49.2128 46.3587 49.1763C46.3468 49.1399 46.343 49.1012 46.3476 49.0632Z" fill="white"/>
<path d="M53.5388 46.3894L52.3752 49.1608C52.369 49.177 52.36 49.1921 52.3485 49.2052V49.2318H52.313C52.313 49.2318 52.313 49.2318 52.273 49.2585H52.2375H52.122H52.0909C52.0737 49.2545 52.0582 49.2452 52.0465 49.2318H52.011V49.2052C52.011 49.2052 52.011 49.1741 52.011 49.1608L51.3892 47.6862L50.7674 49.1608V49.2052L50.7363 49.2318H50.7097L50.6697 49.2585C50.6569 49.2533 50.6426 49.2533 50.6297 49.2585H50.3455H50.3144L50.27 49.2318C50.27 49.2318 50.27 49.2318 50.2389 49.2318C50.2078 49.2318 50.2389 49.2318 50.2389 49.2318C50.2289 49.2241 50.22 49.2152 50.2123 49.2052C50.2123 49.2052 50.2123 49.1741 50.19 49.1608L49.0131 46.3894C49.0002 46.3576 48.9938 46.3236 48.9942 46.2893C48.9946 46.2551 49.0018 46.2212 49.0155 46.1898C49.0291 46.1584 49.0489 46.13 49.0736 46.1063C49.0984 46.0826 49.1276 46.0641 49.1597 46.0518C49.1909 46.0387 49.2243 46.0318 49.2582 46.0316C49.2921 46.0314 49.3256 46.0379 49.357 46.0507C49.3883 46.0635 49.4168 46.0823 49.4409 46.1061C49.465 46.13 49.4841 46.1583 49.4972 46.1895L50.4254 48.4102L51.0428 46.949C51.0631 46.9011 51.0971 46.8603 51.1406 46.8319C51.1841 46.8034 51.2351 46.7885 51.2871 46.7891C51.3394 46.7893 51.3906 46.8045 51.4347 46.8328C51.4788 46.8611 51.5138 46.9014 51.5358 46.949L52.122 48.4102L53.0503 46.1895C53.0638 46.1576 53.0836 46.1287 53.1084 46.1044C53.1332 46.0802 53.1625 46.0611 53.1947 46.0483C53.227 46.0355 53.2614 46.0292 53.2961 46.0298C53.3307 46.0304 53.365 46.0379 53.3967 46.0518C53.4283 46.0645 53.4571 46.0833 53.4814 46.1072C53.5057 46.1311 53.525 46.1595 53.5382 46.1909C53.5514 46.2223 53.5583 46.256 53.5584 46.2901C53.5585 46.3242 53.5519 46.3579 53.5388 46.3894Z" fill="white"/>
<path d="M55.8213 49.0632V46.2562C55.8207 46.2216 55.827 46.1873 55.84 46.1552C55.8529 46.1232 55.8722 46.094 55.8967 46.0696C55.9211 46.0451 55.9503 46.0259 55.9823 46.0129C56.0144 45.9999 56.0487 45.9936 56.0833 45.9942H57.6378C57.702 46.0025 57.7609 46.0339 57.8037 46.0826C57.8464 46.1312 57.8699 46.1937 57.8699 46.2584C57.8699 46.3232 57.8464 46.3857 57.8037 46.4343C57.7609 46.4829 57.702 46.5144 57.6378 46.5227H56.3498V47.411H57.4512C57.5154 47.4193 57.5744 47.4507 57.6171 47.4994C57.6598 47.548 57.6834 47.6105 57.6834 47.6752C57.6834 47.74 57.6598 47.8025 57.6171 47.8511C57.5744 47.8997 57.5154 47.9312 57.4512 47.9395H56.3453V49.0809C56.3442 49.1508 56.3156 49.2175 56.2657 49.2665C56.2159 49.3155 56.1488 49.343 56.0789 49.343C56.0431 49.3431 56.0077 49.3358 55.9749 49.3215C55.9421 49.3072 55.9126 49.2862 55.8884 49.2598C55.8642 49.2335 55.8457 49.2024 55.8341 49.1686C55.8226 49.1347 55.8182 49.0988 55.8213 49.0632Z" fill="white"/>
<path d="M61.2256 46.4072C61.5336 46.7322 61.7052 47.163 61.7052 47.6108C61.7052 48.0586 61.5336 48.4894 61.2256 48.8144C61.0817 48.9736 60.9064 49.1012 60.7107 49.1891C60.515 49.277 60.3031 49.3234 60.0886 49.3252C59.87 49.3244 59.6539 49.2786 59.4537 49.1907C59.2535 49.1029 59.0735 48.9748 58.9249 48.8144C58.6228 48.4864 58.4551 48.0568 58.4551 47.6108C58.4551 47.1648 58.6228 46.7352 58.9249 46.4072C59.0737 46.2474 59.2539 46.12 59.4541 46.0329C59.6543 45.9458 59.8702 45.9009 60.0886 45.9009C60.3028 45.9019 60.5146 45.9474 60.7103 46.0345C60.906 46.1217 61.0815 46.2486 61.2256 46.4072ZM61.1634 47.6108C61.1634 47.3031 61.0477 47.0066 60.8392 46.7803C60.7434 46.6738 60.6263 46.5886 60.4954 46.5303C60.3646 46.472 60.2229 46.4419 60.0797 46.4419C59.9364 46.4419 59.7948 46.472 59.664 46.5303C59.5331 46.5886 59.416 46.6738 59.3202 46.7803C59.1098 47.0054 58.9938 47.3027 58.996 47.6108C58.9931 47.9178 59.1093 48.2139 59.3202 48.4369C59.4144 48.5459 59.531 48.6334 59.6621 48.6934C59.7931 48.7533 59.9356 48.7844 60.0797 48.7844C60.2238 48.7844 60.3662 48.7533 60.4973 48.6934C60.6283 48.6334 60.7449 48.5459 60.8392 48.4369C61.0485 48.2129 61.1645 47.9174 61.1634 47.6108Z" fill="white"/>
<path d="M64.8472 48.9299C64.8683 48.9965 64.8624 49.0687 64.8309 49.131C64.7993 49.1933 64.7446 49.2407 64.6784 49.263C64.6445 49.2669 64.6102 49.2669 64.5762 49.263C64.5101 49.2642 64.4452 49.2456 64.3897 49.2097C64.3254 49.1697 64.2732 49.1129 64.2387 49.0454C64.159 48.8654 64.1239 48.6689 64.1365 48.4725C64.137 48.4003 64.117 48.3294 64.0788 48.2682C64.0424 48.2122 63.9938 48.1651 63.9367 48.1305C63.854 48.079 63.7642 48.0401 63.6702 48.015H63.1106V49.0498C63.1094 49.1197 63.0808 49.1864 63.031 49.2354C62.9811 49.2844 62.914 49.3119 62.8441 49.3119C62.7746 49.3119 62.708 49.2843 62.6588 49.2351C62.6097 49.186 62.5821 49.1193 62.5821 49.0498V46.2562C62.5815 46.2216 62.5878 46.1873 62.6008 46.1552C62.6137 46.1232 62.633 46.094 62.6575 46.0696C62.6819 46.0451 62.7111 46.0259 62.7431 46.0129C62.7752 45.9999 62.8095 45.9936 62.8441 45.9942H63.6702C63.8801 45.9935 64.0851 46.0579 64.257 46.1783C64.4289 46.2988 64.5594 46.4695 64.6304 46.6671C64.7014 46.8646 64.7096 47.0793 64.6538 47.2817C64.598 47.484 64.4809 47.6642 64.3186 47.7974C64.3836 47.8477 64.4405 47.9076 64.4874 47.975C64.5904 48.1253 64.6446 48.3036 64.6429 48.4858C64.6324 48.5788 64.6324 48.6726 64.6429 48.7656C64.6877 48.7742 64.7298 48.7937 64.7654 48.8223C64.8011 48.851 64.8291 48.8879 64.8472 48.9299ZM64.181 47.0157C64.181 46.9494 64.1677 46.8838 64.1418 46.8228C64.1159 46.7618 64.078 46.7067 64.0303 46.6607C63.9827 46.6146 63.9262 46.5787 63.8643 46.555C63.8024 46.5313 63.7364 46.5203 63.6702 46.5227H63.0884V47.522H63.6702C63.7376 47.5245 63.8047 47.5131 63.8675 47.4886C63.9303 47.464 63.9874 47.4269 64.0352 47.3795C64.0831 47.332 64.1207 47.2752 64.1458 47.2127C64.1709 47.1501 64.1828 47.0831 64.181 47.0157Z" fill="white"/>
<path d="M68.4799 46.2563V49.0632C68.4776 49.1328 68.4487 49.1988 68.3991 49.2475C68.3495 49.2963 68.283 49.3242 68.2134 49.3253C68.1788 49.3259 68.1445 49.3195 68.1124 49.3065C68.0804 49.2936 68.0512 49.2743 68.0268 49.2499C68.0023 49.2254 67.9831 49.1963 67.9701 49.1642C67.9572 49.1321 67.9508 49.0978 67.9514 49.0632V47.0779L67.2674 48.0106C67.2426 48.0451 67.2099 48.0732 67.1721 48.0925C67.1342 48.1119 67.0923 48.1218 67.0498 48.1217C67.0074 48.1215 66.9656 48.1114 66.9278 48.0921C66.89 48.0728 66.8572 48.0449 66.8322 48.0106L66.1438 47.0779V49.081C66.1354 49.1452 66.104 49.2041 66.0554 49.2469C66.0067 49.2896 65.9442 49.3131 65.8795 49.3131C65.8148 49.3131 65.7522 49.2896 65.7036 49.2469C65.655 49.2041 65.6236 49.1452 65.6152 49.081V46.2563C65.6164 46.1871 65.6443 46.1212 65.6932 46.0723C65.7421 46.0234 65.8081 45.9954 65.8773 45.9942C65.9183 45.9951 65.9586 46.0056 65.9949 46.0249C66.0311 46.0442 66.0624 46.0717 66.086 46.1053L67.032 47.4377L67.978 46.1053C68.0021 46.0711 68.0341 46.0432 68.0711 46.0239C68.1082 46.0046 68.1494 45.9944 68.1912 45.9942C68.2275 45.9918 68.2639 45.9968 68.2983 46.0088C68.3327 46.0207 68.3643 46.0395 68.3912 46.064C68.4181 46.0884 68.4399 46.1181 68.4551 46.1511C68.4704 46.1841 68.4788 46.2199 68.4799 46.2563Z" fill="white"/>
<path d="M108.06 62.3608H46.8008V68.4411H108.06V62.3608Z" fill="#EBEBEB"/>
<path d="M178.247 76.5019H46.8008V82.5821H178.247V76.5019Z" fill="#EBEBEB"/>
<path d="M178.247 90.4078H46.8008V96.488H178.247V90.4078Z" fill="#EBEBEB"/>
<path d="M178.247 103.941H46.8008V110.021H178.247V103.941Z" fill="#EBEBEB"/>
<path d="M178.248 62.3608H116.988V68.4411H178.248V62.3608Z" fill="#EBEBEB"/>
<path d="M108.06 117.784H46.8008V123.864H108.06V117.784Z" fill="#EBEBEB"/>
<path d="M178.248 117.784H116.988V123.864H178.248V117.784Z" fill="#EBEBEB"/>
<path d="M108.06 131.557H46.8008V137.637H108.06V131.557Z" fill="#EBEBEB"/>
<path d="M178.47 137.859H150.547V131.335H178.47V137.859ZM150.991 137.415H178.026V131.779H150.991V137.415Z" fill="#C2C7D6"/>
<path d="M144.586 131.557H117.107V137.637H144.586V131.557Z" fill="#C2C7D6"/>
<path d="M125.99 134.884C126.003 134.87 126.019 134.859 126.037 134.852C126.054 134.844 126.073 134.84 126.092 134.84C126.111 134.84 126.13 134.844 126.148 134.852C126.165 134.859 126.181 134.87 126.195 134.884C126.349 135.013 126.54 135.089 126.741 135.101C126.867 135.105 126.991 135.069 127.096 134.999C127.132 134.977 127.162 134.946 127.184 134.91C127.206 134.874 127.218 134.833 127.22 134.79C127.221 134.759 127.212 134.728 127.194 134.701C127.174 134.666 127.145 134.637 127.109 134.617C126.989 134.546 126.857 134.499 126.719 134.479C126.591 134.46 126.467 134.423 126.35 134.368C126.241 134.323 126.148 134.245 126.083 134.146C126.04 134.077 126.017 133.997 126.017 133.915C126.02 133.832 126.042 133.751 126.082 133.679C126.122 133.606 126.179 133.544 126.248 133.498C126.392 133.396 126.565 133.344 126.741 133.347C126.966 133.358 127.183 133.437 127.363 133.573C127.394 133.596 127.416 133.629 127.423 133.668C127.431 133.706 127.423 133.745 127.403 133.778C127.392 133.794 127.379 133.809 127.363 133.82C127.346 133.831 127.328 133.838 127.309 133.842C127.29 133.846 127.27 133.846 127.251 133.841C127.232 133.837 127.214 133.829 127.198 133.818C127.071 133.716 126.916 133.653 126.754 133.636C126.64 133.633 126.528 133.668 126.434 133.733C126.403 133.753 126.378 133.78 126.359 133.811C126.341 133.843 126.33 133.879 126.328 133.915C126.321 133.942 126.321 133.969 126.328 133.995C126.347 134.024 126.373 134.049 126.403 134.066C126.514 134.132 126.636 134.176 126.763 134.195C126.9 134.216 127.033 134.257 127.158 134.315C127.274 134.364 127.373 134.446 127.443 134.55C127.486 134.623 127.509 134.706 127.509 134.79C127.507 134.878 127.483 134.965 127.441 135.042C127.398 135.119 127.338 135.185 127.265 135.234C127.111 135.344 126.926 135.402 126.736 135.399C126.469 135.384 126.213 135.283 126.008 135.11C125.991 135.097 125.976 135.081 125.966 135.062C125.956 135.043 125.949 135.022 125.948 135.001C125.946 134.979 125.949 134.958 125.956 134.938C125.964 134.917 125.975 134.899 125.99 134.884Z" fill="white"/>
<path d="M128.487 135.381C128.331 135.38 128.181 135.317 128.071 135.207C127.96 135.096 127.898 134.947 127.896 134.79V134.129C127.896 134.088 127.912 134.05 127.941 134.022C127.969 133.993 128.007 133.978 128.048 133.978C128.088 133.978 128.126 133.993 128.154 134.022C128.183 134.05 128.199 134.088 128.199 134.129V134.813C128.199 134.889 128.229 134.963 128.283 135.017C128.337 135.071 128.411 135.101 128.487 135.101C128.565 135.102 128.641 135.073 128.697 135.019C128.754 134.965 128.787 134.891 128.789 134.813V134.129C128.789 134.089 128.804 134.052 128.832 134.023C128.859 133.995 128.896 133.979 128.936 133.978C128.976 133.979 129.014 133.995 129.043 134.023C129.072 134.051 129.089 134.088 129.091 134.129V134.813C129.082 134.966 129.015 135.111 128.902 135.217C128.79 135.323 128.641 135.381 128.487 135.381Z" fill="white"/>
<path d="M129.672 134.67V133.538C129.673 133.497 129.69 133.459 129.719 133.431C129.748 133.402 129.787 133.387 129.827 133.387C129.868 133.387 129.907 133.402 129.936 133.431C129.965 133.459 129.982 133.497 129.983 133.538V134.075C130.095 133.997 130.228 133.955 130.365 133.955C130.477 133.953 130.589 133.977 130.69 134.025C130.792 134.074 130.881 134.146 130.949 134.236C131.017 134.325 131.064 134.429 131.084 134.54C131.105 134.651 131.099 134.765 131.067 134.873C131.035 134.981 130.978 135.08 130.9 135.162C130.823 135.243 130.727 135.306 130.621 135.344C130.515 135.381 130.402 135.394 130.29 135.379C130.178 135.365 130.071 135.324 129.978 135.261C129.97 135.295 129.951 135.325 129.924 135.347C129.896 135.369 129.862 135.381 129.827 135.381C129.786 135.381 129.747 135.365 129.717 135.335C129.688 135.306 129.672 135.267 129.672 135.225V134.67ZM129.983 134.67C129.982 134.777 130.024 134.879 130.098 134.955C130.132 134.992 130.173 135.021 130.219 135.041C130.265 135.061 130.315 135.071 130.365 135.07C130.415 135.07 130.464 135.06 130.51 135.04C130.556 135.02 130.597 134.991 130.631 134.955C130.706 134.879 130.747 134.777 130.747 134.67C130.747 134.563 130.706 134.459 130.631 134.382C130.597 134.346 130.555 134.317 130.51 134.297C130.464 134.277 130.415 134.267 130.365 134.266C130.315 134.266 130.265 134.277 130.22 134.297C130.174 134.316 130.133 134.345 130.098 134.382C130.024 134.459 129.982 134.563 129.983 134.67Z" fill="white"/>
<path d="M132.745 134.546V135.23C132.745 135.27 132.729 135.308 132.701 135.337C132.673 135.365 132.634 135.381 132.594 135.381C132.554 135.381 132.516 135.365 132.488 135.337C132.459 135.308 132.443 135.27 132.443 135.23V134.546C132.44 134.469 132.407 134.397 132.352 134.344C132.296 134.291 132.222 134.262 132.146 134.262C132.108 134.262 132.07 134.27 132.036 134.285C132.001 134.3 131.969 134.322 131.943 134.349C131.917 134.377 131.896 134.409 131.882 134.444C131.868 134.479 131.861 134.517 131.862 134.555V135.23C131.847 135.256 131.827 135.277 131.802 135.293C131.777 135.308 131.749 135.317 131.719 135.319H131.688C131.654 135.311 131.624 135.292 131.602 135.264C131.58 135.237 131.568 135.203 131.568 135.168V134.573V134.128C131.568 134.108 131.571 134.088 131.579 134.069C131.586 134.051 131.597 134.033 131.611 134.019C131.625 134.004 131.642 133.993 131.661 133.985C131.679 133.977 131.699 133.973 131.719 133.973C131.748 133.972 131.776 133.98 131.801 133.995C131.825 134.01 131.845 134.031 131.857 134.057C131.976 133.987 132.115 133.959 132.252 133.979C132.389 133.999 132.515 134.066 132.608 134.168C132.664 134.107 132.733 134.058 132.809 134.024C132.886 133.991 132.968 133.973 133.052 133.973C133.13 133.973 133.208 133.989 133.281 134.019C133.353 134.049 133.419 134.093 133.474 134.149C133.53 134.205 133.573 134.271 133.603 134.344C133.633 134.416 133.648 134.494 133.647 134.573V135.248C133.641 135.284 133.622 135.317 133.594 135.34C133.566 135.364 133.53 135.377 133.494 135.377C133.457 135.377 133.422 135.364 133.394 135.34C133.365 135.317 133.347 135.284 133.341 135.248V134.573C133.341 134.496 133.31 134.422 133.256 134.367C133.202 134.312 133.129 134.281 133.052 134.279C132.977 134.277 132.903 134.303 132.846 134.352C132.789 134.402 132.753 134.471 132.745 134.546Z" fill="white"/>
<path d="M134.58 133.6C134.58 133.62 134.576 133.641 134.569 133.659C134.561 133.678 134.549 133.695 134.535 133.71C134.52 133.724 134.503 133.736 134.484 133.744C134.466 133.751 134.445 133.755 134.425 133.755C134.384 133.755 134.344 133.739 134.315 133.71C134.286 133.681 134.27 133.641 134.27 133.6V133.538C134.271 133.497 134.288 133.459 134.317 133.431C134.346 133.403 134.385 133.387 134.425 133.387C134.445 133.386 134.465 133.39 134.484 133.397C134.503 133.404 134.52 133.415 134.535 133.429C134.549 133.443 134.561 133.46 134.569 133.479C134.576 133.498 134.58 133.518 134.58 133.538V133.6ZM134.58 134.115V135.226C134.581 135.246 134.577 135.267 134.57 135.286C134.562 135.305 134.551 135.322 134.536 135.337C134.522 135.351 134.504 135.363 134.485 135.37C134.466 135.378 134.446 135.382 134.425 135.381C134.405 135.381 134.384 135.377 134.365 135.369C134.347 135.361 134.329 135.35 134.315 135.335C134.301 135.321 134.289 135.304 134.281 135.285C134.274 135.266 134.27 135.246 134.27 135.226V134.128C134.27 134.087 134.286 134.048 134.315 134.019C134.344 133.989 134.384 133.973 134.425 133.973C134.446 133.972 134.466 133.976 134.485 133.984C134.504 133.991 134.522 134.003 134.536 134.017C134.551 134.032 134.562 134.049 134.57 134.068C134.577 134.087 134.581 134.108 134.58 134.128V134.115Z" fill="white"/>
<path d="M135.714 134.129C135.714 134.171 135.697 134.212 135.667 134.242C135.637 134.272 135.596 134.289 135.554 134.289H135.483V135.084C135.503 135.084 135.524 135.088 135.543 135.096C135.562 135.104 135.58 135.116 135.594 135.131C135.609 135.146 135.62 135.163 135.628 135.183C135.635 135.202 135.639 135.223 135.638 135.244C135.639 135.264 135.635 135.285 135.628 135.304C135.62 135.323 135.609 135.34 135.594 135.355C135.579 135.369 135.562 135.381 135.543 135.388C135.524 135.396 135.503 135.4 135.483 135.399C135.399 135.399 135.318 135.366 135.258 135.307C135.198 135.248 135.164 135.168 135.163 135.084V134.289H135.083C135.06 134.293 135.037 134.291 135.014 134.285C134.992 134.279 134.971 134.268 134.953 134.253C134.935 134.238 134.921 134.219 134.911 134.198C134.902 134.177 134.896 134.154 134.896 134.131C134.896 134.108 134.902 134.085 134.911 134.064C134.921 134.043 134.935 134.024 134.953 134.009C134.971 133.994 134.992 133.983 135.014 133.977C135.037 133.971 135.06 133.969 135.083 133.973H135.176V133.56C135.176 133.518 135.193 133.477 135.223 133.447C135.253 133.417 135.294 133.4 135.336 133.4C135.378 133.4 135.419 133.417 135.449 133.447C135.479 133.477 135.496 133.518 135.496 133.56V133.973H135.567C135.606 133.977 135.643 133.994 135.67 134.023C135.697 134.052 135.713 134.089 135.714 134.129Z" fill="white"/>
<path d="M159.855 134.355C159.861 134.16 159.921 133.97 160.028 133.807C160.135 133.643 160.285 133.513 160.461 133.43C160.638 133.346 160.834 133.314 161.028 133.335C161.222 133.357 161.407 133.431 161.561 133.551C161.581 133.563 161.598 133.579 161.612 133.598C161.625 133.617 161.634 133.639 161.639 133.662C161.643 133.685 161.643 133.708 161.637 133.731C161.632 133.754 161.622 133.775 161.607 133.793C161.593 133.812 161.575 133.827 161.554 133.838C161.534 133.849 161.511 133.855 161.488 133.857C161.464 133.858 161.441 133.855 161.419 133.846C161.397 133.838 161.378 133.825 161.361 133.809C161.235 133.708 161.078 133.653 160.917 133.653C160.726 133.655 160.542 133.728 160.402 133.858C160.269 133.989 160.194 134.168 160.193 134.355C160.193 134.448 160.211 134.54 160.247 134.625C160.282 134.711 160.335 134.788 160.402 134.853C160.542 134.982 160.726 135.055 160.917 135.057C161.078 135.057 161.235 135.002 161.361 134.901C161.397 134.877 161.44 134.867 161.483 134.872C161.525 134.878 161.564 134.899 161.592 134.932C161.617 134.967 161.628 135.01 161.622 135.052C161.617 135.094 161.595 135.133 161.561 135.159C161.407 135.279 161.222 135.354 161.028 135.375C160.834 135.397 160.638 135.364 160.461 135.281C160.285 135.197 160.135 135.067 160.028 134.903C159.921 134.74 159.861 134.55 159.855 134.355Z" fill="#C2C7D6"/>
<path d="M163.32 134.671V135.23C163.32 135.27 163.304 135.309 163.276 135.337C163.248 135.365 163.209 135.381 163.169 135.381C163.134 135.381 163.1 135.369 163.073 135.348C163.045 135.326 163.026 135.295 163.018 135.261C162.908 135.34 162.776 135.382 162.641 135.381C162.55 135.381 162.46 135.363 162.377 135.327C162.294 135.291 162.219 135.239 162.157 135.173C162.031 135.036 161.961 134.857 161.961 134.671C161.961 134.485 162.031 134.306 162.157 134.169C162.218 134.102 162.293 134.048 162.376 134.012C162.46 133.975 162.55 133.956 162.641 133.956C162.776 133.957 162.908 134 163.018 134.08C163.025 134.045 163.044 134.014 163.072 133.991C163.099 133.968 163.134 133.956 163.169 133.956C163.21 133.957 163.248 133.974 163.276 134.003C163.304 134.032 163.32 134.071 163.32 134.111V134.671ZM163.018 134.671C163.018 134.563 162.979 134.458 162.907 134.378C162.873 134.341 162.832 134.312 162.786 134.292C162.74 134.272 162.691 134.262 162.641 134.262C162.591 134.261 162.541 134.271 162.495 134.291C162.449 134.311 162.408 134.34 162.374 134.378C162.303 134.459 162.264 134.563 162.264 134.671C162.264 134.779 162.303 134.883 162.374 134.964C162.409 134.999 162.45 135.028 162.496 135.047C162.542 135.066 162.591 135.075 162.641 135.075C162.69 135.075 162.739 135.065 162.785 135.046C162.831 135.027 162.872 134.999 162.907 134.964C162.979 134.883 163.018 134.779 163.018 134.671Z" fill="#C2C7D6"/>
<path d="M165.039 134.573V135.252C165.039 135.291 165.024 135.329 164.997 135.357C164.969 135.386 164.932 135.402 164.893 135.403C164.853 135.403 164.814 135.387 164.786 135.359C164.758 135.331 164.742 135.292 164.742 135.252V134.573C164.741 134.534 164.733 134.496 164.718 134.461C164.703 134.425 164.68 134.394 164.653 134.367C164.625 134.34 164.593 134.319 164.557 134.305C164.521 134.29 164.483 134.283 164.444 134.284C164.407 134.284 164.369 134.291 164.334 134.306C164.3 134.321 164.268 134.342 164.242 134.369C164.215 134.396 164.194 134.428 164.18 134.463C164.166 134.498 164.159 134.535 164.16 134.573V135.252C164.162 135.262 164.162 135.273 164.16 135.283C164.151 135.317 164.132 135.347 164.105 135.369C164.077 135.39 164.044 135.402 164.009 135.403C163.989 135.404 163.969 135.4 163.95 135.393C163.931 135.386 163.914 135.375 163.899 135.361C163.885 135.347 163.873 135.33 163.865 135.311C163.858 135.292 163.854 135.272 163.854 135.252V134.129C163.855 134.088 163.872 134.05 163.901 134.021C163.93 133.993 163.968 133.978 164.009 133.978C164.038 133.978 164.066 133.987 164.09 134.002C164.115 134.018 164.134 134.04 164.147 134.066C164.237 134.009 164.342 133.978 164.449 133.978C164.606 133.979 164.756 134.042 164.867 134.153C164.977 134.265 165.039 134.416 165.039 134.573Z" fill="#C2C7D6"/>
<path d="M165.502 134.671C165.504 134.48 165.582 134.298 165.717 134.164C165.853 134.031 166.035 133.956 166.226 133.956C166.387 133.959 166.542 134.014 166.67 134.111C166.701 134.136 166.721 134.172 166.727 134.212C166.733 134.251 166.723 134.291 166.701 134.324C166.689 134.34 166.674 134.353 166.656 134.363C166.639 134.373 166.62 134.38 166.6 134.382C166.58 134.385 166.56 134.383 166.541 134.378C166.522 134.372 166.504 134.363 166.488 134.351C166.41 134.292 166.315 134.261 166.217 134.262C166.109 134.262 166.005 134.305 165.928 134.382C165.851 134.458 165.808 134.562 165.808 134.671C165.808 134.779 165.851 134.883 165.928 134.96C166.005 135.036 166.109 135.079 166.217 135.079C166.314 135.078 166.409 135.047 166.488 134.99C166.504 134.978 166.522 134.969 166.542 134.964C166.561 134.959 166.581 134.958 166.601 134.961C166.621 134.964 166.64 134.971 166.657 134.981C166.674 134.992 166.689 135.005 166.701 135.022C166.723 135.054 166.732 135.093 166.726 135.132C166.721 135.171 166.701 135.206 166.67 135.23C166.541 135.324 166.386 135.377 166.226 135.381C166.036 135.382 165.853 135.308 165.717 135.175C165.582 135.042 165.504 134.861 165.502 134.671Z" fill="#C2C7D6"/>
<path d="M167.086 134.671C167.085 134.578 167.102 134.486 167.136 134.4C167.171 134.313 167.222 134.235 167.287 134.169C167.351 134.102 167.429 134.049 167.514 134.013C167.599 133.976 167.691 133.957 167.783 133.955C167.873 133.952 167.962 133.967 168.046 133.999C168.13 134.031 168.207 134.079 168.272 134.14C168.337 134.202 168.39 134.276 168.426 134.357C168.463 134.439 168.483 134.528 168.485 134.617V134.657C168.48 134.692 168.461 134.724 168.433 134.745C168.405 134.767 168.369 134.777 168.334 134.773H167.446C167.458 134.843 167.492 134.909 167.544 134.959C167.617 135.033 167.715 135.079 167.819 135.088C167.922 135.099 168.026 135.074 168.112 135.017C168.142 134.991 168.181 134.977 168.221 134.977C168.261 134.977 168.299 134.991 168.33 135.017C168.353 135.042 168.366 135.076 168.366 135.11C168.366 135.145 168.353 135.178 168.33 135.203C168.19 135.329 168.007 135.396 167.819 135.39C167.723 135.394 167.627 135.378 167.537 135.343C167.448 135.308 167.366 135.256 167.297 135.188C167.229 135.121 167.175 135.04 167.138 134.951C167.102 134.862 167.084 134.767 167.086 134.671ZM167.397 134.528H168.205C168.172 134.443 168.114 134.368 168.039 134.315C167.964 134.261 167.875 134.23 167.783 134.226C167.695 134.227 167.608 134.256 167.538 134.311C167.468 134.366 167.419 134.442 167.397 134.528Z" fill="#C2C7D6"/>
<path d="M169.099 133.387C169.14 133.387 169.18 133.403 169.21 133.432C169.24 133.461 169.258 133.501 169.259 133.542V135.225C169.252 135.263 169.233 135.297 169.204 135.321C169.175 135.345 169.139 135.359 169.101 135.359C169.063 135.359 169.027 135.345 168.998 135.321C168.969 135.297 168.95 135.263 168.943 135.225V133.542C168.943 133.501 168.96 133.461 168.989 133.432C169.018 133.403 169.058 133.387 169.099 133.387Z" fill="#C2C7D6"/>
</g>
<defs>
<clipPath id="clip0_420_31655">
<rect x="0.5" y="0.5" width="180" height="180" rx="90" fill="white"/>
</clipPath>
</defs>
</svg>
