<svg width="144" height="152" viewBox="0 0 144 152" fill="none" xmlns="http://www.w3.org/2000/svg">
<path d="M107.694 151.188C106.691 151.501 77.3989 150.871 76.3305 150.158C75.9181 149.896 78.4251 122.268 78.4251 122.268L97.005 122.622L94.8916 141.105C94.8916 141.105 105.702 146.203 106.794 147.107C107.886 148.012 108.678 150.88 107.694 151.188Z" fill="#EB9481"/>
<path d="M107.693 151.188C106.695 151.501 77.3987 150.871 76.3303 150.157C76.1991 150.078 76.1616 147.27 76.6255 143.628C81.9394 144.514 100.899 147.415 102.398 146.548C103.429 145.946 102.515 145.004 101.672 144.369C104.095 145.573 106.358 146.729 106.827 147.117C107.862 148.007 108.678 150.88 107.693 151.188Z" fill="#263238"/>
<path d="M95.3976 136.675L77.1598 136.418C77.1598 136.418 80.7726 92.9229 80.6227 92.1114C80.4306 91.0387 67.502 40.5195 67.502 40.5195H84.9104C84.9104 40.5195 98.6356 87.6247 99.1276 92.144C99.9149 99.4477 95.3976 136.675 95.3976 136.675Z" fill="#0A4269"/>
<path opacity="0.3" d="M95.3976 136.675L77.1598 136.418C77.1598 136.418 80.7726 92.9229 80.6227 92.1114C80.4306 91.0387 67.502 40.5195 67.502 40.5195H84.9104C84.9104 40.5195 98.6356 87.6247 99.1276 92.144C99.9149 99.4477 95.3976 136.675 95.3976 136.675Z" fill="black"/>
<path d="M78.7996 132.318C79.8774 132.239 80.9646 132.253 82.047 132.239C83.1295 132.225 84.2073 132.239 85.2897 132.239C87.4546 132.262 89.6149 132.295 91.7798 132.355C92.3702 132.355 92.9607 132.388 93.5511 132.416C94.1415 132.444 94.8163 132.556 95.4255 132.579C95.4354 132.579 95.4449 132.583 95.452 132.59C95.459 132.597 95.463 132.606 95.463 132.616C95.463 132.626 95.459 132.636 95.452 132.643C95.4449 132.65 95.4354 132.654 95.4255 132.654C94.896 132.654 94.3618 132.738 93.8322 132.752C93.3027 132.766 92.731 132.752 92.1781 132.752C91.0956 132.752 90.0132 132.752 88.9307 132.752C86.7705 132.752 84.6056 132.705 82.4453 132.616C81.227 132.565 79.9946 132.551 78.7762 132.425C78.7643 132.42 78.7545 132.411 78.7486 132.399C78.7427 132.388 78.741 132.375 78.7437 132.362C78.7465 132.349 78.7536 132.338 78.7638 132.33C78.774 132.322 78.7866 132.318 78.7996 132.318Z" fill="#263238"/>
<path d="M71.3162 44.5768C72.8766 50.0662 74.3012 55.6069 75.6976 61.1429C77.094 66.6789 78.4811 72.2196 79.8634 77.7603L81.944 86.0713C82.6141 88.767 83.3966 91.4767 83.5653 94.2657C83.734 97.0547 83.3732 99.9557 83.1342 102.777C82.8952 105.599 82.6656 108.449 82.4032 111.284C81.9206 116.956 81.452 122.617 80.8053 128.293L80.5804 130.42C80.5804 130.476 80.482 130.476 80.4866 130.42C80.8615 124.744 81.2551 119.073 81.7097 113.402C81.9377 110.566 82.1705 107.73 82.4079 104.895C82.6422 102.064 82.9702 99.2235 83.0639 96.3878C83.0822 93.5508 82.7021 90.7252 81.9346 87.9928C81.2505 85.2785 80.5679 82.5672 79.8868 79.859C78.4935 74.3183 77.1049 68.7792 75.721 63.2416C74.1746 57.034 72.6283 50.8217 71.2646 44.5861C71.2657 44.5806 71.2685 44.5755 71.2725 44.5716C71.2765 44.5676 71.2817 44.5649 71.2872 44.5639C71.2928 44.5629 71.2985 44.5636 71.3037 44.5659C71.3089 44.5682 71.3132 44.572 71.3162 44.5768Z" fill="#263238"/>
<path d="M67.488 40.4961C67.488 40.4961 73.0409 62.1692 76.9256 77.4247L84.3341 40.4961H67.488Z" fill="#263238"/>
<path d="M86.1892 151.254C85.1864 151.571 55.8944 150.937 54.826 150.228C54.4136 149.967 55.9413 122.319 55.9413 122.319L74.2775 122.674L73.3872 141.171C73.3872 141.171 84.1977 146.268 85.2895 147.173C86.3814 148.078 87.192 150.946 86.1892 151.254Z" fill="#EB9481"/>
<path d="M86.1895 151.258C85.1914 151.566 55.8947 150.937 54.8263 150.228C54.6951 150.144 54.7279 147.429 54.8263 143.698C60.1355 144.584 79.3902 147.485 80.8663 146.622C81.8972 146.021 80.9834 145.079 80.1399 144.444C82.5626 145.643 84.8259 146.8 85.2945 147.191C86.377 148.078 87.1923 150.951 86.1895 151.258Z" fill="#263238"/>
<path d="M84.7321 40.4863C84.7321 40.4863 84.226 48.774 82.2392 55.3175C82.0798 55.8585 81.9065 56.3902 81.719 56.9032C79.9634 57.5828 78.2741 58.4211 76.6722 59.4077C76.6722 59.4077 75.4164 91.1221 75.4398 93.0762C75.5242 100.44 73.631 136.306 73.631 136.306L55.2339 136.142C55.2339 136.142 57.1364 95.5667 57.1458 92.885C57.1458 88.5476 61.007 40.505 61.007 40.505L84.7321 40.4863Z" fill="#0A4269"/>
<path opacity="0.3" d="M84.7321 40.4863C84.7321 40.4863 84.226 48.774 82.2392 55.3175C82.0798 55.8585 81.9065 56.3902 81.719 56.9032C79.9634 57.5828 78.2741 58.4211 76.6722 59.4077C76.6722 59.4077 75.4164 91.1221 75.4398 93.0762C75.5242 100.44 73.631 136.306 73.631 136.306L55.2339 136.142C55.2339 136.142 57.1364 95.5667 57.1458 92.885C57.1458 88.5476 61.007 40.505 61.007 40.505L84.7321 40.4863Z" fill="black"/>
<path d="M78.561 52.4033C78.636 51.9369 78.7063 51.4379 78.7813 50.9528C78.9172 50.0714 79.0999 49.1946 79.2499 48.3131C79.6013 46.3123 79.9668 44.3068 80.4167 42.3293C80.4167 42.278 80.5057 42.292 80.501 42.3293C80.4214 43.1269 80.3323 43.9244 80.2152 44.7219C80.098 45.5194 80.0231 46.3169 79.9106 47.1145C79.6904 48.6909 79.4654 50.2766 79.1983 51.8436C79.0952 52.45 78.7297 53.5366 79.5919 53.7092C80.2808 53.8584 80.7916 53.1822 80.9977 52.6132C81.2126 51.9009 81.3693 51.1725 81.4663 50.4352C81.6069 49.6376 81.7334 48.8354 81.8459 48.0333C82.0927 46.289 82.3614 44.5478 82.6519 42.8097C82.6519 42.7584 82.7409 42.7771 82.7409 42.8097C82.6847 44.6006 82.5863 46.3776 82.352 48.1592C82.2395 49.008 82.113 49.8522 81.9677 50.701C81.8805 51.5124 81.6818 52.308 81.3773 53.0656C81.2533 53.3646 81.0557 53.6277 80.8026 53.8307C80.5496 54.0336 80.2492 54.1699 79.9293 54.2269H79.8918C79.8996 54.2329 79.9058 54.2407 79.9099 54.2497C79.914 54.2586 79.9158 54.2684 79.9153 54.2782C79.9153 54.558 79.9153 54.8472 79.8825 55.127C79.8497 55.4069 79.7981 55.6867 79.7419 55.9619C79.6911 56.2436 79.619 56.5211 79.5263 56.792C79.4817 56.9222 79.4301 57.0498 79.3717 57.1745C79.3108 57.3004 79.1233 57.8321 79.0484 57.9533C79.0419 57.9625 79.0327 57.9694 79.0219 57.9728C79.0112 57.9763 78.9997 57.9761 78.9891 57.9724C78.9784 57.9687 78.9693 57.9617 78.9631 57.9523C78.9569 57.943 78.9539 57.9319 78.9547 57.9207C78.9547 57.9207 79.0577 57.1651 79.0718 57.0859C79.0859 57.0066 79.1233 56.8153 79.1515 56.6801C79.2124 56.4096 79.2827 56.1437 79.3576 55.8779C79.4326 55.6121 79.4889 55.3416 79.5545 55.0757C79.6201 54.8099 79.7185 54.53 79.7841 54.2549C79.7841 54.2549 79.7841 54.2549 79.7841 54.2269C79.5266 54.2399 79.2712 54.174 79.0525 54.038C78.8338 53.9021 78.6623 53.7027 78.561 53.4667C78.4722 53.1177 78.4722 52.7523 78.561 52.4033Z" fill="#263238"/>
<path d="M75.1729 60.0373C75.7222 59.6178 76.3017 59.239 76.9067 58.9039C77.5403 58.5195 78.1995 58.1782 78.8795 57.8826C80.2056 57.3089 81.5786 56.9171 82.9516 56.4834C82.9938 56.4834 83.0219 56.5394 82.9797 56.5534C81.6489 57.0804 80.3743 57.78 79.0904 58.4189C78.4656 58.7298 77.8267 59.0252 77.1738 59.305C76.5318 59.5895 75.8852 59.9207 75.2245 60.1585C75.1729 60.1445 75.1354 60.0699 75.1729 60.0373Z" fill="#263238"/>
<path d="M64.7932 48.4946C65.7283 48.4848 66.6585 48.3594 67.5626 48.1215C67.9843 48.0142 68.3967 47.8836 68.8044 47.7484C69.21 47.6343 69.5901 47.4444 69.9243 47.1887C70.5522 46.6477 70.8615 45.7895 71.1193 45.0387C71.4197 44.1852 71.6624 43.3126 71.8456 42.4269C71.8456 42.3849 71.9206 42.3989 71.9206 42.4269C71.9439 43.4271 71.8176 44.4252 71.5457 45.3884C71.3208 46.2093 71.0162 47.1234 70.3508 47.6924C69.6148 48.2453 68.7313 48.5697 67.811 48.6252C66.8058 48.7395 65.7901 48.7254 64.7885 48.5832C64.7809 48.5783 64.7748 48.5715 64.7707 48.5635C64.7666 48.5555 64.7647 48.5465 64.7652 48.5376C64.7657 48.5286 64.7685 48.5199 64.7734 48.5123C64.7783 48.5048 64.7851 48.4987 64.7932 48.4946Z" fill="#263238"/>
<path d="M58.7486 113.836C59.061 108.046 59.3905 102.258 59.7373 96.4721C60.4074 84.9569 61.0541 73.4418 61.7851 61.9314C62.1928 55.4346 62.6192 48.9425 63.1253 42.4503C63.1253 42.385 63.2377 42.385 63.233 42.4503C62.7644 54.0354 62.0662 65.6065 61.3915 77.1776C60.7167 88.7487 60.0325 100.208 59.3062 111.723C58.8938 118.215 58.369 124.707 57.9707 131.199C57.9707 131.251 57.891 131.246 57.8957 131.199C58.2097 125.416 58.4346 119.624 58.7486 113.836Z" fill="#263238"/>
<path d="M56.0443 132.584C57.1221 132.509 58.2139 132.523 59.2917 132.509C60.3695 132.495 61.4566 132.509 62.5391 132.509C64.6993 132.532 66.8642 132.565 69.0244 132.626C69.6149 132.626 70.2053 132.658 70.8004 132.686C71.3956 132.714 72.061 132.822 72.6748 132.845C72.6831 132.848 72.6903 132.853 72.6953 132.86C72.7004 132.867 72.7031 132.876 72.7031 132.884C72.7031 132.893 72.7004 132.902 72.6953 132.909C72.6903 132.916 72.6831 132.921 72.6748 132.924C72.1453 132.924 71.6158 133.008 71.0816 133.022C70.5474 133.036 69.9804 133.022 69.4274 133.022C68.345 133.022 67.2672 133.022 66.1847 133.022C64.0198 133.022 61.8596 132.975 59.6947 132.887C58.4763 132.836 57.2439 132.822 56.0302 132.7C56.0147 132.698 56.0005 132.691 55.9909 132.678C55.9812 132.666 55.9768 132.651 55.9787 132.635C55.9806 132.62 55.9885 132.605 56.0008 132.596C56.0131 132.586 56.0288 132.582 56.0443 132.584Z" fill="#263238"/>
<path d="M64.5498 25.4876C67.0755 27.0313 70.0886 27.6516 73.022 27.8195C75.7399 27.9921 79.1935 28.0993 81.2928 26.0799C83.4718 23.9858 84.4136 21.0569 84.5964 18.1186C84.8405 14.5882 84.5706 11.0412 83.7951 7.58758C83.2281 5.11106 82.1503 1.58051 77.2347 0.591763C74.4747 0.0460891 71.6116 1.879 70.3557 4.37883C68.9499 7.17716 68.9265 10.3253 67.1083 12.9557C65.4214 15.3996 62.0053 16.5889 61.1197 19.5831C60.3652 22.1949 62.5114 24.2516 64.5498 25.4876Z" fill="#263238"/>
<path d="M76.3535 27.2079C79.0245 26.8954 82.3 26.555 83.6214 23.8826C84.8023 21.4993 84.9944 18.5844 84.9194 15.954C84.7741 10.9963 84.0994 5.05448 80.0179 1.71048C79.9617 1.66384 80.0179 1.5659 80.0975 1.60787C82.2765 3.05834 83.4386 5.52087 84.0759 7.97873C84.8332 10.9459 85.2017 13.9981 85.1725 17.0593C85.1443 19.6198 84.8819 22.8658 83.2371 24.9599C81.7329 26.8861 78.6215 27.124 76.3535 27.2919C76.2972 27.3245 76.2972 27.2172 76.3535 27.2079Z" fill="#263238"/>
<path d="M61.4988 16.9383C62.3844 15.8703 63.5794 15.1474 64.6759 14.3125C66.1191 13.2217 67.2329 11.7566 67.8952 10.0777C68.9073 7.62918 69.6383 5.11068 71.3675 3.0166C71.3675 3.0166 71.3956 3.0166 71.3675 3.0166C69.8024 5.01741 69.0713 7.45195 68.1763 9.77456C67.4862 11.6941 66.2446 13.3695 64.6056 14.5924C62.0377 16.5232 59.0246 19.0137 61.6159 22.3251C63.4423 24.573 66.0896 26.0086 68.9776 26.3173C69.0901 26.3173 69.0948 26.5132 68.9776 26.4992C64.8305 26.1028 57.5532 21.6954 61.4988 16.9383Z" fill="#263238"/>
<path d="M61.4238 17.8571C62.1689 16.7611 63.3264 15.9915 64.3151 15.11C65.5992 14.072 66.7275 12.8564 67.6656 11.5002C69.3197 8.92574 69.5915 5.76363 71.4472 3.28711C71.4472 3.28711 71.494 3.28711 71.48 3.28711C69.9336 5.39985 69.6056 8.06759 68.5184 10.3995C67.4594 12.6568 65.585 14.3125 63.7106 15.8982C62.675 16.7704 61.452 17.6845 61.0865 19.0557C60.646 20.702 61.5176 22.3997 62.6094 23.589C64.4838 25.6271 67.2954 26.5179 69.9242 27.0822C70.0132 27.0822 69.9758 27.2315 69.8867 27.2128C67.3235 26.6951 64.6384 25.8696 62.7172 24.0041C61.0911 22.4417 60.0227 19.9138 61.4238 17.8571Z" fill="#263238"/>
<path d="M74.8913 20.6001C76.2971 23.1419 90.8658 45.6871 92.5293 45.6219C97.4355 45.4306 103.195 44.7171 102.098 40.958C100.383 35.0675 85.8565 23.4544 78.6682 18.9305C74.3384 16.2301 73.4855 18.091 74.8913 20.6001Z" fill="#EBEBEB"/>
<path d="M74.8915 20.5999C76.2973 23.1418 90.8707 45.687 92.5342 45.6217C97.4404 45.4351 103.199 44.7169 102.103 40.9578C102.061 40.8039 102.005 40.6453 101.944 40.4914L76.8081 17.9555C74.1183 16.8595 73.7247 18.5105 74.8915 20.5999Z" fill="#C7C7C7"/>
<path d="M60.9089 41.1022L85.5056 41.5079L83.5797 34.1763C84.2224 33.2558 84.6546 32.2061 84.8457 31.1014C85.0367 29.9966 84.9821 28.8636 84.6856 27.7821C84.0998 25.6274 81.2976 22.3907 79.5825 20.3199C75.4026 15.3202 71.771 17.5822 70.6136 18.8695C66.1853 23.7992 60.9089 41.1022 60.9089 41.1022Z" fill="#EBEBEB"/>
<path d="M76.8035 32.2832C77.7704 32.3116 78.7338 32.4129 79.6853 32.5863C80.1539 32.6749 80.6225 32.7868 81.0911 32.9127C81.3254 32.9733 81.5597 33.0245 81.7893 33.0758C82.0327 33.1388 82.283 33.1717 82.5344 33.1738V33.2064C82.2993 33.2297 82.063 33.239 81.8268 33.2344C81.5969 33.2212 81.3683 33.1916 81.1427 33.1458C80.6741 33.0619 80.2055 32.9499 79.7088 32.8567C78.7435 32.6702 77.7781 32.4837 76.8035 32.3625C76.7952 32.3596 76.788 32.3543 76.7829 32.3471C76.7779 32.34 76.7751 32.3316 76.7751 32.3228C76.7751 32.3141 76.7779 32.3056 76.7829 32.2985C76.788 32.2914 76.7952 32.2861 76.8035 32.2832Z" fill="#263238"/>
<path d="M74.4789 33.2713C75.2655 33.1432 76.0587 33.0591 76.8547 33.0195C77.253 33.0195 77.6514 33.0195 78.0497 33.0195C78.2418 33.0195 78.4339 33.0195 78.6213 33.0475C78.8088 33.0755 79.0384 33.1035 79.2493 33.1174V33.1501C79.0525 33.1501 78.851 33.1734 78.6541 33.1827H78.059L76.8641 33.2247C76.0675 33.2247 75.2756 33.2713 74.4789 33.3179C74.4227 33.3413 74.4227 33.276 74.4789 33.2713Z" fill="#263238"/>
<path d="M68.9262 20.7355C62.9937 30.1612 53.8561 51.9508 52.2347 55.0523C51.1335 57.1604 62.1971 63.1954 62.7266 61.6517C63.4061 59.6789 72.0986 34.2327 73.0358 22.7829C73.4294 17.4708 70.824 17.7179 68.9262 20.7355Z" fill="#EB9481"/>
<path d="M63.0782 60.2475C62.769 62.0757 61.3866 65.7415 60.4307 66.2732C59.4747 66.8049 54.5779 66.5157 52.1037 66.4318C49.6295 66.3478 49.1703 65.6436 49.2405 64.7994C49.3108 63.9552 54.5029 63.9692 54.5029 63.9692C54.5029 63.9692 47.5067 65.7089 45.7495 65.9747C43.9923 66.2405 39.9483 67.108 39.4141 65.6482C39.1751 64.9906 40.2997 64.375 40.2997 64.375C40.2997 64.375 38.594 64.8041 38.355 63.9599C38.0832 63.0271 39.4422 62.5281 39.4422 62.5281C39.4422 62.5281 38.3831 62.7007 38.3831 61.9264C38.3831 60.1961 45.0091 59.5712 45.0091 59.5712C45.0091 59.5712 39.878 61.8472 39.7655 60.4293C39.6062 58.4705 50.0231 56.6982 51.129 55.8681C51.853 55.2989 52.4633 54.5997 52.9284 53.8066L63.0782 60.2475Z" fill="#EB9481"/>
<path d="M49.259 65.2522C49.2473 65.1316 49.2646 65.0099 49.3094 64.8972C49.3542 64.7844 49.4253 64.6839 49.5168 64.6039C49.7009 64.4477 49.9099 64.3231 50.1353 64.2355C50.598 64.0553 51.0765 63.9179 51.5646 63.8251C52.5486 63.6105 53.5561 63.4706 54.5589 63.2514C53.5313 63.2 52.5014 63.28 51.4943 63.4893C50.9809 63.5873 50.484 63.7569 50.0182 63.993C49.7766 64.1146 49.5629 64.2845 49.3903 64.492C49.3056 64.5973 49.2491 64.7223 49.2262 64.8553C49.2032 64.9882 49.2145 65.1248 49.259 65.2522Z" fill="#263238"/>
<path d="M40.2996 64.375C41.0165 64.2257 41.7054 64.0485 42.4364 63.8713C43.1674 63.694 43.8422 63.5028 44.5544 63.3163L46.6631 62.7379C47.366 62.5421 48.0689 62.3508 48.7812 62.1689C48.0487 62.2221 47.3207 62.325 46.6022 62.4768C45.8806 62.6167 45.1683 62.7939 44.4607 62.9851C43.7531 63.1763 43.0549 63.3816 42.3614 63.6147C41.6679 63.8479 40.9743 64.0858 40.2996 64.375Z" fill="#263238"/>
<path d="M47.1646 60.3877C46.4921 60.4091 45.8219 60.4777 45.159 60.5929C44.4944 60.7038 43.8359 60.8485 43.1862 61.0266C42.5359 61.2038 41.896 61.4171 41.2697 61.6656C40.6406 61.9095 40.0299 62.1979 39.4421 62.5284C40.0841 62.3279 40.7167 62.1087 41.354 61.9174C41.9913 61.7262 42.6333 61.535 43.2753 61.3624C43.9172 61.1899 44.5639 61.0173 45.2106 60.8541C45.8572 60.6908 46.5086 60.5416 47.1646 60.3877Z" fill="#263238"/>
<path d="M46.2042 58.7227C44.0221 58.8346 41.9005 59.475 40.0234 60.5882C41.059 60.2571 42.0665 59.9073 43.0974 59.6041C44.1284 59.301 45.1593 59.0025 46.2042 58.7227Z" fill="#263238"/>
<path d="M51.8928 54.6876L63.7249 60.9512C63.7249 60.9512 71.8551 33.537 72.961 24.6756C74.0669 15.8142 70.5477 17.7124 68.0266 21.8213C64.5824 27.4226 51.8928 54.6876 51.8928 54.6876Z" fill="#EBEBEB"/>
<path d="M63.5374 57.8218C61.8833 57.0896 55.2104 53.8295 53.8187 53.0273C53.7203 52.9714 53.7343 52.8967 53.8421 52.9434C57.1696 54.3688 60.4157 55.9756 63.5655 57.7565C63.5715 57.7617 63.5757 57.7686 63.5775 57.7763C63.5792 57.784 63.5785 57.7921 63.5754 57.7993C63.5722 57.8066 63.5669 57.8127 63.5601 57.8167C63.5532 57.8208 63.5453 57.8225 63.5374 57.8218Z" fill="#263238"/>
<path d="M68.6404 43.5086C68.87 42.1981 69.1465 40.9015 69.4276 39.6049C69.7088 38.3084 70.0134 37.0165 70.3226 35.7293C70.6319 34.442 70.9599 33.1548 71.3114 31.8722L71.8409 29.9554C72.033 29.3211 72.2111 28.6775 72.4173 28.0479C72.3048 28.7008 72.1689 29.3491 72.0471 30.002L71.6113 31.9515C71.3348 33.2481 71.0255 34.54 70.7163 35.8272C70.407 37.1144 70.079 38.4017 69.7228 39.6796C69.3667 40.9575 69.0387 42.24 68.6404 43.5086Z" fill="#263238"/>
<path d="M71.6113 31.4009C71.7196 31.0668 71.8625 30.7448 72.0378 30.4402C72.2122 30.1339 72.418 29.8464 72.6516 29.582C72.5463 29.9187 72.4032 30.2426 72.2252 30.5475C72.0517 30.8529 71.8459 31.139 71.6113 31.4009Z" fill="#263238"/>
<path d="M98.7808 47.9208L99.2681 26.313L82.7969 26.2197L82.3096 47.8228L98.7808 47.9208Z" fill="#0A4269"/>
<path d="M81.4097 33.2109L81.5643 26.5509L82.7967 26.2197L82.6374 33.4301L81.4097 33.2109Z" fill="#0A4269"/>
<g opacity="0.2">
<path opacity="0.2" d="M98.7808 47.9208L99.2681 26.313L82.7969 26.2197L82.3096 47.8228L98.7808 47.9208Z" fill="black"/>
<path opacity="0.2" d="M81.4097 33.2109L81.5643 26.5509L82.7967 26.2197L82.6374 33.4301L81.4097 33.2109Z" fill="black"/>
</g>
<path d="M98.7809 47.8832L99.2729 26.2242L83.4203 25.1748L82.9282 46.8292L98.7809 47.8832Z" fill="#0A4269"/>
<path opacity="0.1" d="M98.7809 47.8832L99.2729 26.2242L83.4203 25.1748L82.9282 46.8292L98.7809 47.8832Z" fill="black"/>
<path d="M81.4519 33.1922C81.29 33.4782 81.2198 33.8066 81.2508 34.1334C81.2818 34.4601 81.4124 34.7697 81.6252 35.0204C81.1238 35.2692 80.7258 35.6851 80.5006 36.1957C80.1492 37.1285 81.4378 38.0613 81.4378 38.0613C80.9735 38.4281 80.6306 38.9253 80.4538 39.4884C80.2054 40.4212 81.3675 41.5499 81.3675 41.5499C81.1271 42.1236 81.1021 42.7643 81.2972 43.3548C81.8783 44.9079 84.3712 45.4162 85.9504 45.752C87.5296 46.0878 92.3374 45.5795 93.2652 45.5748L95.5379 35.4915C95.5379 35.4915 88.8791 31.9656 86.9626 31.8257C85.3459 31.7231 82.1079 32.1382 81.4519 33.1922Z" fill="#EB9481"/>
<path d="M94.7509 35.0947C96.6674 35.8876 102.717 39.2922 102.216 41.9879C101.714 44.6837 97.853 45.4485 92.1736 45.6631L94.7509 35.0947Z" fill="#EB9481"/>
<path d="M81.7284 34.8715C83.4716 34.5871 85.2101 34.8249 86.9579 34.9694C86.964 34.9718 86.9693 34.976 86.9729 34.9814C86.9766 34.9868 86.9786 34.9932 86.9786 34.9997C86.9786 35.0062 86.9766 35.0126 86.9729 35.018C86.9693 35.0234 86.964 35.0276 86.9579 35.03C85.2241 34.8668 83.4809 35.03 81.7424 34.9554C81.6815 34.9367 81.6815 34.8808 81.7284 34.8715Z" fill="#263238"/>
<path d="M81.4987 37.9447C81.9017 37.9184 82.3064 37.9434 82.703 38.0193C83.1247 38.0752 83.5465 38.1405 83.9682 38.2105C84.8117 38.3503 85.6552 38.5089 86.4893 38.6767C86.5267 38.6767 86.5221 38.7467 86.4893 38.7373C85.6458 38.6021 84.8023 38.4762 83.9588 38.3736L82.6842 38.2291C82.2804 38.213 81.8796 38.152 81.4893 38.0473C81.4811 38.0411 81.4745 38.0328 81.4703 38.0234C81.4661 38.014 81.4644 38.0037 81.4653 37.9934C81.4663 37.9831 81.4698 37.9732 81.4757 37.9647C81.4815 37.9562 81.4894 37.9493 81.4987 37.9447Z" fill="#263238"/>
<path d="M81.4003 41.5639C81.764 41.5478 82.1279 41.5903 82.478 41.6898L83.6308 41.8996C84.3993 42.0348 85.1678 42.17 85.941 42.2772C85.9785 42.2772 85.9738 42.3425 85.941 42.3379C85.1537 42.2306 84.3665 42.1374 83.598 42.0255L82.4406 41.8529C82.0852 41.83 81.7365 41.7464 81.4096 41.6058C81.4051 41.605 81.4009 41.6029 81.3976 41.5997C81.3942 41.5965 81.3919 41.5924 81.3909 41.5879C81.3899 41.5835 81.3903 41.5788 81.3919 41.5745C81.3936 41.5702 81.3965 41.5665 81.4003 41.5639Z" fill="#263238"/>
<path d="M94.7506 35.0947C96.6672 35.8876 102.717 39.2922 102.215 41.9879C101.714 44.6837 98.1011 46.0828 92.8013 46.6518L94.7506 35.0947Z" fill="#EBEBEB"/>
<path d="M94.9661 35.1228C95.6385 35.3879 96.2915 35.6996 96.9201 36.0556L97.3887 36.3448L97.5809 36.4054C97.848 36.494 98.1104 36.5873 98.3681 36.6992C98.8679 36.9207 99.3517 37.1763 99.8161 37.4641C99.8489 37.4641 99.8161 37.5341 99.7833 37.5154C99.3007 37.2519 98.7977 37.0274 98.2791 36.8438L98.0776 36.7739C98.3494 36.9464 98.6165 37.1283 98.8695 37.3242C99.5516 37.8354 100.201 38.3884 100.814 38.9799C100.842 39.0079 100.814 39.0498 100.772 39.0265C99.6568 37.9865 95.3597 35.5519 94.8817 35.2534C94.4038 34.9549 94.624 34.9689 94.9661 35.1228Z" fill="#263238"/>
<path d="M73.1528 19.112C73.3403 19.5225 75.9644 21.9104 77.8997 21.402C78.537 21.2434 77.8154 17.7595 77.8154 17.7595V17.489L77.895 13.7206L73.0872 11.855L72.4031 11.6172C72.4031 11.6172 73.0732 18.9395 73.1528 19.112Z" fill="#EB9481"/>
<path d="M77.9048 13.7208L77.8533 16.1927C75.932 17.0928 73.6359 16.4212 72.8299 16.118C72.6284 14.0333 72.4128 11.6221 72.4128 11.6221L73.097 11.8599L77.9048 13.7208Z" fill="#263238"/>
<path d="M70.2056 19.0796C70.2056 19.0796 74.929 22.2883 77.5016 21.8079C78.0495 21.7115 78.5528 21.4454 78.9398 21.0476C79.3269 20.6499 79.5779 20.1407 79.6572 19.5926C79.6572 19.5926 77.0846 17.1207 73.9169 17.228C71.7988 17.3166 70.2056 19.0796 70.2056 19.0796Z" fill="#EB9481"/>
<path d="M68.7576 8.52965C68.6264 15.143 72.5954 15.9639 74.0246 15.9919C75.3273 16.0152 79.7602 15.9312 80.585 9.36449C81.4097 2.79775 78.3404 0.652363 75.3601 0.423833C72.3798 0.195302 68.8841 1.91627 68.7576 8.52965Z" fill="#EB9481"/>
<path d="M69.7978 7.97495C69.9564 7.9464 70.113 7.90746 70.2664 7.85838C70.4289 7.83895 70.5804 7.76685 70.6975 7.65323C70.7283 7.61215 70.745 7.56227 70.745 7.51102C70.745 7.45977 70.7283 7.40989 70.6975 7.36881C70.619 7.29956 70.5229 7.25298 70.4197 7.23408C70.3164 7.21518 70.21 7.22469 70.1118 7.26157C69.9024 7.30241 69.7156 7.41861 69.587 7.58795C69.5627 7.62583 69.5491 7.66947 69.5475 7.71435C69.5459 7.75923 69.5564 7.8037 69.578 7.84318C69.5995 7.88266 69.6312 7.91569 69.6699 7.93886C69.7085 7.96203 69.7527 7.97449 69.7978 7.97495Z" fill="#263238"/>
<path d="M74.2262 7.58712C74.0686 7.5735 73.9121 7.55014 73.7576 7.51718C73.5874 7.52136 73.4213 7.46517 73.289 7.35865C73.257 7.31716 73.2397 7.26636 73.2397 7.21411C73.2397 7.16186 73.257 7.11106 73.289 7.06957C73.3599 6.99405 73.4501 6.93901 73.5499 6.91028C73.6497 6.88155 73.7554 6.88021 73.856 6.90638C74.07 6.92491 74.2692 7.02315 74.4136 7.18147C74.4437 7.21733 74.463 7.26096 74.4693 7.3073C74.4755 7.35363 74.4684 7.40077 74.4487 7.44325C74.4291 7.48572 74.3978 7.52179 74.3584 7.54725C74.319 7.57272 74.2731 7.58654 74.2262 7.58712Z" fill="#263238"/>
<path d="M73.3125 8.90723C73.3125 8.90723 73.35 8.90722 73.35 8.94919C73.35 9.41545 73.4203 9.91434 73.8186 10.0542C73.8186 10.0542 73.8186 10.0822 73.8186 10.0542C73.3312 10.0216 73.2375 9.33618 73.3125 8.90723Z" fill="#263238"/>
<path d="M73.706 8.42754C74.4324 8.35294 74.5261 9.82632 73.856 9.87294C73.1859 9.91957 73.0969 8.49282 73.706 8.42754Z" fill="#263238"/>
<path d="M73.9966 8.48778C74.1278 8.55772 74.2637 8.6976 74.4183 8.70226C74.573 8.70693 74.7182 8.5484 74.826 8.39453C74.826 8.39453 74.826 8.39453 74.8541 8.39453C74.8775 8.66962 74.7885 8.96337 74.4886 9.02398C74.1887 9.0846 74.02 8.8468 73.9169 8.55772C73.9029 8.53441 73.9544 8.45515 73.9966 8.48778Z" fill="#263238"/>
<path d="M70.7916 8.86133C70.7916 8.86133 70.7587 8.86133 70.7587 8.90329C70.8056 9.36955 70.7869 9.87311 70.3882 10.0503V10.0783C70.8854 9.97102 70.9088 9.28562 70.7916 8.86133Z" fill="#263238"/>
<path d="M70.3505 8.42285C69.6242 8.42285 69.6758 9.87291 70.3505 9.87291C71.0253 9.87291 70.9644 8.42285 70.3505 8.42285Z" fill="#263238"/>
<path d="M70.0513 8.53002C69.9388 8.60929 69.831 8.75383 69.6904 8.76782C69.5499 8.7818 69.4093 8.6326 69.3015 8.4834C69.3015 8.75849 69.4093 9.04291 69.6764 9.08953C69.9435 9.13616 70.0934 8.88438 70.145 8.62328C70.1403 8.57199 70.0981 8.49739 70.0513 8.53002Z" fill="#263238"/>
<path d="M73.5794 12.7044C73.4856 12.821 73.3966 12.9795 73.2326 13.0121C73.0646 13.0245 72.8959 13.0039 72.7359 12.9515C72.7359 12.9515 72.7078 12.9515 72.7359 12.9515C72.8092 13.0327 72.9033 13.0925 73.0081 13.1245C73.1129 13.1566 73.2246 13.1596 73.331 13.1334C73.4216 13.1008 73.4998 13.0412 73.5552 12.9628C73.6105 12.8844 73.6402 12.7909 73.6403 12.6951C73.6309 12.6951 73.5934 12.6904 73.5794 12.7044Z" fill="#263238"/>
<path d="M71.6116 11.1831C71.6116 11.1831 71.5553 11.8594 71.5741 12.1765C71.5741 12.2045 71.6537 12.2138 71.7615 12.2138C72.0375 12.248 72.3177 12.206 72.5714 12.0925C72.8251 11.979 73.0426 11.7983 73.2001 11.5702C73.2001 11.5422 73.1767 11.5096 73.1486 11.5329C72.7579 11.83 72.2813 11.9936 71.7896 11.9993C71.7615 11.9153 71.9255 10.8426 71.874 10.8426C71.6288 10.8783 71.3893 10.9457 71.1617 11.0432C71.2367 9.64401 71.5413 8.24485 71.5928 6.84568C71.5928 6.83455 71.5884 6.82388 71.5805 6.816C71.5726 6.80813 71.5618 6.80371 71.5507 6.80371C71.5395 6.80371 71.5287 6.80813 71.5208 6.816C71.5129 6.82388 71.5085 6.83455 71.5085 6.84568C71.1383 8.32502 70.917 9.83735 70.8478 11.3603C70.8384 11.5142 71.4804 11.2437 71.6116 11.1831Z" fill="#263238"/>
<path d="M71.78 12.0838C71.9703 12.333 72.2221 12.529 72.511 12.6527C72.6707 12.7152 72.846 12.7266 73.0124 12.6853C73.3733 12.592 73.3826 12.261 73.3217 11.9766C73.2836 11.8264 73.2286 11.6809 73.1577 11.543C72.768 11.8644 72.2854 12.0539 71.78 12.0838Z" fill="#263238"/>
<path d="M72.511 12.6663C72.6706 12.7288 72.8459 12.7402 73.0124 12.6989C73.3732 12.6057 73.3826 12.2747 73.3217 11.9902C73.13 11.9965 72.946 12.0665 72.7991 12.1891C72.6521 12.3116 72.5507 12.4797 72.511 12.6663Z" fill="#FF9ABB"/>
<path d="M80.1213 9.77501C79.0482 9.88228 78.7483 7.64828 78.7483 7.64828C78.7483 7.64828 76.5599 7.70891 75.7633 4.5981C75.8492 5.53329 76.2075 6.42319 76.7942 7.15857C76.7942 7.15857 72.933 6.84609 71.232 3.67932C71.232 3.67932 71.9161 5.29768 72.5394 5.86201C71.5545 5.5906 70.6918 4.9935 70.0933 4.16902C70.0933 4.16902 69.4607 6.03458 68.9546 6.56159C68.9546 6.56159 67.5488 -2.1412 76.2226 0.498551C76.2226 0.498551 79.7605 0.39128 81.2412 3.43679C82.722 6.48231 80.1213 9.77501 80.1213 9.77501Z" fill="#263238"/>
<path d="M79.3294 9.28579C79.3294 9.28579 80.6368 7.13107 81.6115 7.5788C82.5862 8.02654 81.6958 11.0907 80.6227 11.5711C80.4893 11.6427 80.3427 11.6867 80.1918 11.7003C80.0408 11.7138 79.8887 11.6968 79.7445 11.6501C79.6004 11.6035 79.4673 11.5282 79.3532 11.4288C79.2392 11.3295 79.1466 11.2081 79.0811 11.0721L79.3294 9.28579Z" fill="#EB9481"/>
<path d="M41.4617 102.078L42.4598 108.029L49.2123 144.328H50.3041L45.3932 108.029L44.6669 102.078H41.4617Z" fill="#DBDBDB"/>
<path d="M44.6669 102.078H41.4617L42.4598 108.029H45.3932L44.6669 102.078Z" fill="#C7C7C7"/>
<path d="M20.2576 144.328H21.3447L28.0972 108.029L29.0953 102.078H25.8948L25.1685 108.029L20.2576 144.328Z" fill="#DBDBDB"/>
<path d="M25.8948 102.078L25.1685 108.029H28.0972L29.0953 102.078H25.8948Z" fill="#C7C7C7"/>
<path d="M0 144.328H1.08715L7.83964 108.029L8.83775 102.078H5.63723L4.91091 108.029L0 144.328Z" fill="#DBDBDB"/>
<path d="M4.91089 108.029H7.83962L8.83774 102.078H5.63721L4.91089 108.029Z" fill="#C7C7C7"/>
<path d="M1.72437 104.876H51.213V99.6856H32.6893L26.4616 63.6338H3.61281L1.72437 104.876Z" fill="#DBDBDB"/>
<path d="M1.72437 104.876H4.42349L6.18073 63.6338H3.61281L1.72437 104.876Z" fill="#C7C7C7"/>
<path d="M53.0732 150.69C52.0891 150.811 25.2291 144.575 24.3575 143.736C24.2544 143.643 25.5243 138.508 25.5243 138.508C25.9461 136.395 32.9375 119.157 32.9375 119.157L50.4959 123.467L43.0546 139.445C43.0546 139.445 46.405 141.702 49.2822 143.852C50.5531 144.744 51.769 145.712 52.9232 146.749C53.8042 147.775 54.0572 150.573 53.0732 150.69Z" fill="#774442"/>
<path d="M53.0732 150.69C52.0891 150.811 25.2338 144.576 24.3575 143.736C24.2544 143.643 25.5243 138.508 25.5243 138.508C25.6649 137.813 26.5131 135.486 27.5908 132.664L44.3994 136.563L43.0546 139.445C43.0546 139.445 46.405 141.703 49.2822 143.853C50.5529 144.745 51.7687 145.712 52.9232 146.749C53.8042 147.775 54.0572 150.573 53.0732 150.69Z" fill="#EBEBEB"/>
<path d="M53.1483 150.765C52.1315 150.872 25.0606 144.832 24.1749 143.951C23.8329 143.62 26.2368 134.94 26.2461 134.894L43.5842 138.699L43.514 138.993C43.514 138.993 52.2205 145.639 53.0874 146.707C53.9543 147.775 54.1652 150.662 53.1483 150.765Z" fill="#A6A6A6"/>
<path d="M53.078 149.669C48.542 148.54 30.1167 144.408 25.5526 143.634C25.5151 143.634 25.5104 143.634 25.5526 143.662C30.0277 144.879 48.4717 148.862 53.0687 149.725C53.1577 149.748 53.1764 149.669 53.078 149.669Z" fill="#263238"/>
<path d="M44.9007 138.909C43.1763 138.177 40.9223 137.976 39.2775 138.909C39.2166 138.946 39.2775 139.039 39.3338 139.035C41.173 138.864 43.0254 138.893 44.8585 139.119C44.8809 139.114 44.9014 139.103 44.9174 139.086C44.9335 139.07 44.9444 139.05 44.9489 139.027C44.9534 139.005 44.9512 138.982 44.9426 138.961C44.9341 138.94 44.9195 138.922 44.9007 138.909Z" fill="#263238"/>
<path d="M46.0159 139.972C44.2962 139.24 42.0376 139.04 40.3928 139.972C40.3272 140.009 40.3928 140.098 40.4443 140.093C42.2837 139.928 44.1356 139.956 45.9691 140.177C45.9907 140.172 46.0104 140.162 46.0261 140.146C46.0417 140.131 46.0526 140.111 46.0575 140.089C46.0624 140.068 46.0611 140.046 46.0538 140.025C46.0464 140.004 46.0333 139.986 46.0159 139.972Z" fill="#263238"/>
<path d="M47.1361 141.04C45.4163 140.308 43.1577 140.107 41.5129 141.04C41.4473 141.077 41.5129 141.17 41.5644 141.165C43.4052 140.995 45.2592 141.023 47.0939 141.249C47.1162 141.245 47.1367 141.233 47.1528 141.217C47.1688 141.201 47.1798 141.181 47.1842 141.158C47.1887 141.136 47.1866 141.113 47.178 141.092C47.1694 141.071 47.1549 141.052 47.1361 141.04Z" fill="#263238"/>
<path d="M48.111 135.537C47.6424 134.413 46.2085 134.552 45.2994 135.014C43.7899 135.827 42.5214 137.021 41.6209 138.475C41.5975 138.507 41.6209 138.535 41.649 138.549C41.6393 138.584 41.6379 138.62 41.645 138.655C41.6522 138.69 41.6676 138.723 41.6901 138.751C41.7126 138.778 41.7414 138.801 41.7742 138.815C41.807 138.83 41.8428 138.836 41.8786 138.834C43.4859 138.619 45.2291 138.587 46.7193 137.901C47.6002 137.491 48.5702 136.609 48.111 135.537ZM44.2544 138.008C43.4672 138.134 42.6799 138.218 41.9114 138.372C42.6102 137.677 43.3437 137.017 44.1092 136.395C44.4855 136.098 44.8816 135.827 45.2947 135.583C45.9367 135.219 48.2844 134.65 47.5253 136.549C47.0941 137.607 45.1963 137.873 44.2544 138.008Z" fill="#263238"/>
<path d="M37.1693 137.001C38.5095 137.957 40.2152 138.307 41.7569 138.806C41.9162 138.862 42.038 138.708 42.038 138.568C42.0454 138.567 42.0524 138.565 42.0586 138.561C42.0648 138.557 42.0701 138.552 42.0741 138.545C42.0781 138.539 42.0807 138.532 42.0818 138.525C42.0828 138.518 42.0823 138.51 42.0802 138.503C41.4587 136.904 40.4261 135.495 39.0859 134.417C38.2939 133.807 36.935 133.41 36.2462 134.417C35.5573 135.425 36.3868 136.442 37.1693 137.001ZM36.6445 135.546C36.2462 133.555 38.4533 134.525 39.0203 135C39.3807 135.314 39.7189 135.652 40.0324 136.013C40.6724 136.758 41.273 137.537 41.8319 138.345C41.0915 138.051 40.3323 137.822 39.5779 137.556C38.6829 137.253 36.8647 136.647 36.6445 135.546Z" fill="#263238"/>
<path d="M44.4327 138.848L25.6887 134.674C25.6887 134.674 41.1525 99 39.7701 97.1951C39.086 96.2949 21.7338 96.0291 16.2137 91.3746C9.04415 85.3115 13.8707 76.0957 13.8707 76.0957L33.2425 75.5127C33.2425 75.5127 33.0082 79.5423 33.7674 80.1486C34.2641 80.5544 57.3566 82.4805 59.8917 90.2319C63.0032 99.7369 44.4327 138.848 44.4327 138.848Z" fill="#263238"/>
<path d="M44.9668 135.471C44.4701 135.266 39.6342 133.9 38.5517 133.606C36.368 133.051 34.1844 132.505 31.9913 131.992C30.8526 131.726 28.4019 131.148 28.2426 131.157C28.2264 131.157 28.2109 131.164 28.1995 131.175C28.1881 131.186 28.1816 131.202 28.1816 131.218C28.1816 131.234 28.1881 131.249 28.1995 131.261C28.2109 131.272 28.2264 131.279 28.2426 131.279C30.3794 131.941 32.5396 132.519 34.6998 133.107C36.8601 133.694 44.278 135.495 44.9246 135.565C44.9856 135.593 45.0371 135.504 44.9668 135.471Z" fill="#37474F"/>
<path d="M43.0921 95.6001C42.655 95.3182 42.1503 95.1572 41.63 95.1337C38.8184 94.6673 36.0209 94.2009 33.2374 93.7345C30.6227 93.2961 27.9891 92.909 25.3837 92.4053C23.2282 91.9949 21.0305 91.4352 19.1655 90.2693C17.3466 89.1202 16.0029 87.3592 15.3792 85.3069C14.7956 83.2407 14.6363 81.0788 14.9106 78.95C14.9574 78.4323 15.0559 77.9146 15.1496 77.4016C15.1496 77.3643 15.098 77.3503 15.0887 77.4016C14.3811 81.3519 14.3155 85.9365 17.2911 89.0846C18.7437 90.619 20.7353 91.5192 22.769 92.1022C25.0836 92.6908 27.4305 93.1455 29.7979 93.464L38.1905 94.8632C39.5354 95.087 40.9037 95.2596 42.2392 95.5394C42.5085 95.5708 42.7619 95.6831 42.9655 95.8612C43.0633 95.9993 43.1252 96.1593 43.1457 96.3269C43.1661 96.4946 43.1445 96.6647 43.0827 96.822C42.9515 97.4796 42.7734 98.1279 42.5813 98.7715C41.0537 103.958 30.7492 128.7 30.4493 129.273C30.4165 129.329 30.5102 129.376 30.543 129.32C33.1109 124.768 40.5757 105.66 42.2579 100.754C42.7082 99.5056 43.076 98.2297 43.3592 96.9339C43.4482 96.4722 43.495 95.9452 43.0921 95.6001Z" fill="#37474F"/>
<path d="M89.6521 150.974C88.7149 151.291 61.8315 150.914 60.8053 150.261C60.4116 149.888 60.093 146.464 59.8681 142.206L55.2102 123.961L72.5015 123.816L77.5623 141.94C77.5623 141.94 81.3111 143.489 84.5444 145.023C85.9672 145.647 87.352 146.354 88.6915 147.14C89.7599 147.98 90.5893 150.666 89.6521 150.974Z" fill="#774442"/>
<path d="M90.2003 150.993C89.2303 151.315 61.4847 151.184 60.4303 150.527C60.0273 150.279 59.8118 146.259 59.6899 141.395C59.6899 141.343 59.6899 141.292 59.6899 141.246L77.5951 141.129V141.432C77.5951 141.432 88.1947 146.203 89.2725 147.066C90.3503 147.929 91.175 150.681 90.2003 150.993Z" fill="#A6A6A6"/>
<path d="M89.8864 149.925C85.2004 149.79 66.3347 149.673 61.7002 149.893C61.6627 149.893 61.6627 149.921 61.7002 149.925C66.3347 150.158 85.2098 150.121 89.8864 150C89.9895 150 89.9942 149.925 89.8864 149.925Z" fill="#263238"/>
<path d="M79.577 141.171C77.7401 140.821 75.4862 141.092 74.071 142.388C74.0194 142.439 74.071 142.514 74.1507 142.495C75.9152 141.94 77.7343 141.574 79.577 141.404C79.6081 141.404 79.6379 141.392 79.6598 141.37C79.6818 141.348 79.6942 141.319 79.6942 141.288C79.6942 141.257 79.6818 141.227 79.6598 141.205C79.6379 141.183 79.6081 141.171 79.577 141.171Z" fill="#263238"/>
<path d="M80.9082 141.973C79.0666 141.623 76.8173 141.894 75.4021 143.19C75.3459 143.241 75.4021 143.316 75.4818 143.297C77.2433 142.743 79.0593 142.377 80.8988 142.206C80.9299 142.207 80.9602 142.196 80.983 142.175C81.0059 142.154 81.0194 142.125 81.0206 142.094C81.0219 142.063 81.0107 142.033 80.9896 142.01C80.9685 141.988 80.9392 141.974 80.9082 141.973Z" fill="#263238"/>
<path d="M82.2297 142.775C80.3928 142.425 78.1389 142.695 76.7284 143.992C76.6722 144.043 76.7284 144.117 76.8034 144.099C78.5666 143.545 80.3841 143.179 82.2251 143.008C82.2561 143.008 82.2862 142.997 82.3086 142.975C82.331 142.954 82.3439 142.924 82.3446 142.894C82.3452 142.863 82.3334 142.833 82.3119 142.81C82.2904 142.788 82.2608 142.775 82.2297 142.775Z" fill="#263238"/>
<path d="M81.995 137.193C81.278 136.199 79.9285 136.638 79.1553 137.277C77.8491 138.401 76.8647 139.849 76.3015 141.474C76.2984 141.481 76.2971 141.489 76.2978 141.496C76.2984 141.504 76.3009 141.512 76.3051 141.518C76.3092 141.524 76.3149 141.53 76.3217 141.534C76.3284 141.537 76.336 141.539 76.3437 141.539C76.3426 141.575 76.3498 141.61 76.3647 141.642C76.3795 141.674 76.4017 141.702 76.4294 141.725C76.4571 141.747 76.4896 141.762 76.5243 141.77C76.5591 141.777 76.5951 141.777 76.6295 141.768C78.1525 141.218 79.8488 140.835 81.1562 139.814C81.92 139.212 82.6745 138.135 81.995 137.193ZM78.7663 140.457C78.026 140.747 77.2715 140.998 76.5405 141.316C77.1028 140.504 77.623 139.669 78.2649 138.914C78.5668 138.543 78.894 138.194 79.2443 137.869C79.7926 137.379 81.9669 136.335 81.6342 138.335C81.4514 139.431 79.652 140.098 78.7663 140.443V140.457Z" fill="#263238"/>
<path d="M71.611 140.952C73.1245 141.605 74.8677 141.581 76.4797 141.745C76.5155 141.744 76.5509 141.736 76.583 141.72C76.615 141.704 76.643 141.681 76.6647 141.653C76.6865 141.624 76.7014 141.591 76.7083 141.556C76.7152 141.521 76.7139 141.485 76.7046 141.451C76.7104 141.446 76.7152 141.441 76.7184 141.434C76.7217 141.428 76.7234 141.421 76.7234 141.413C76.7234 141.406 76.7217 141.399 76.7184 141.393C76.7152 141.386 76.7104 141.38 76.7046 141.376C75.756 139.945 74.4452 138.789 72.9043 138.023C71.9999 137.594 70.5613 137.496 70.1302 138.638C69.6991 139.781 70.7394 140.574 71.611 140.952ZM70.7862 139.646C69.9662 137.78 72.3326 138.247 72.984 138.606C73.4046 138.834 73.8086 139.091 74.1929 139.375C74.9801 139.973 75.7355 140.612 76.4563 141.287C75.669 141.157 74.8771 141.096 74.0898 140.998C73.1573 140.882 71.2501 140.672 70.8003 139.646H70.7862Z" fill="#263238"/>
<path d="M79.2772 141.302H59.0994C59.0994 141.302 50.4631 107.199 48.9355 105.255C46.8971 102.666 18.3829 102.722 12.263 94.2758C6.77107 86.6877 11.4102 75.9514 11.4102 75.9514L33.0032 75.3125C32.5171 77.6159 31.848 79.8772 31.0023 82.0751C31.0023 82.0751 57.0141 86.8463 64.3008 94.7749C69.2211 100.115 79.2772 141.302 79.2772 141.302Z" fill="#263238"/>
<path d="M34.7698 80.5869C34.1424 80.7247 33.529 80.9198 32.9376 81.1699C32.3191 81.4078 31.7052 81.6736 31.1101 81.9628C29.9367 82.5401 28.7962 83.1816 27.694 83.8843C27.6612 83.8843 27.694 83.9542 27.7268 83.9356C28.8983 83.3293 30.1026 82.7883 31.3116 82.2706L33.0548 81.5244C33.6405 81.2725 34.2638 81.058 34.8214 80.7502C34.8964 80.7082 34.8542 80.573 34.7698 80.5869Z" fill="#37474F"/>
<path d="M33.472 75.2887C33.2284 76.2682 33.0034 77.2569 32.727 78.227C32.6004 78.6934 32.4692 79.1271 32.3005 79.5609C32.16 79.9246 31.9397 80.3397 31.518 80.4237C31.0962 80.5076 30.8901 80.0972 30.9276 79.6961C30.965 79.295 31.0869 78.8006 31.1759 78.3576C31.2649 77.9145 31.3821 77.3408 31.4758 76.8325L31.6164 76.0629C31.6164 75.9976 31.6726 75.5126 31.7101 75.3727C31.7101 75.3727 31.7101 75.396 31.7382 75.3727C31.7454 75.3707 31.7521 75.3671 31.7577 75.3623C31.7634 75.3574 31.7679 75.3515 31.771 75.3447C31.7762 75.331 31.7762 75.3159 31.771 75.3022C31.7659 75.2884 31.7559 75.277 31.7429 75.2701C31.737 75.2652 31.7295 75.2624 31.7218 75.2624C31.7141 75.2624 31.7066 75.2652 31.7007 75.2701C31.607 75.3214 31.5976 75.4473 31.5695 75.5406C31.4899 75.7878 31.4102 76.035 31.3352 76.2868C31.1993 76.7532 31.0681 77.2196 30.9463 77.686L30.5948 79.0851C30.4713 79.4335 30.4375 79.8071 30.4964 80.1718C30.5416 80.3453 30.6415 80.4997 30.7816 80.6122C30.9217 80.7248 31.0944 80.7895 31.2743 80.7968C31.2553 80.8284 31.2381 80.8612 31.2228 80.8947C31.1759 80.9927 31.1478 81.0953 31.1103 81.1932C31.0728 81.2912 31.04 81.3938 31.0072 81.501C30.9929 81.5497 30.9835 81.5997 30.9791 81.6503C30.9791 81.7062 30.9791 81.7622 30.9791 81.8182C30.9791 81.8741 31.0869 81.9628 31.1291 81.8741C31.1712 81.7855 31.1947 81.7855 31.2228 81.7389C31.2529 81.686 31.2766 81.6296 31.2931 81.571C31.3259 81.473 31.354 81.3751 31.3821 81.2772C31.4102 81.1792 31.4383 81.0766 31.4571 80.9787C31.4758 80.8807 31.4571 80.8574 31.4571 80.7968C31.6638 80.7789 31.8616 80.7047 32.0288 80.5822C32.3059 80.3456 32.5092 80.0348 32.6145 79.6868C32.7645 79.281 32.8816 78.8566 32.9941 78.4369C33.2967 77.4065 33.5068 76.3514 33.622 75.2841C33.6129 75.2728 33.6013 75.2637 33.5881 75.2576C33.5749 75.2515 33.5604 75.2486 33.5458 75.2491C33.5313 75.2495 33.517 75.2533 33.5042 75.2602C33.4914 75.2671 33.4804 75.2769 33.472 75.2887Z" fill="#37474F"/>
<path d="M77.1921 137.705C76.6537 137.645 76.1125 137.612 75.5707 137.607C75.0037 137.584 74.4367 137.556 73.8697 137.542C72.7498 137.509 71.6345 137.486 70.5146 137.481C68.2653 137.481 66.0113 137.481 63.7621 137.514C62.5859 137.514 60.0695 137.561 59.929 137.607C59.9162 137.611 59.905 137.619 59.897 137.629C59.8891 137.64 59.8848 137.652 59.8848 137.666C59.8848 137.679 59.8891 137.692 59.897 137.702C59.905 137.713 59.9162 137.72 59.929 137.724C62.1642 137.84 64.3994 137.878 66.6393 137.915C68.8792 137.952 71.1097 137.994 73.3449 137.952C73.9634 137.952 74.582 137.92 75.2193 137.906C75.8732 137.91 76.5269 137.882 77.178 137.822C77.2343 137.812 77.2671 137.715 77.1921 137.705Z" fill="#37474F"/>
<path d="M51.283 105.525C51.0987 104.907 50.8154 104.323 50.4442 103.795C49.993 103.351 49.4155 103.056 48.7901 102.951C43.4106 101.486 37.8577 100.824 32.3892 99.7979C29.697 99.3131 27.0368 98.6667 24.423 97.8624C21.7658 97.0771 19.2266 95.9398 16.8739 94.4811C15.7236 93.7464 14.77 92.7444 14.0951 91.5615C13.4756 90.4195 13.0362 89.1894 12.7924 87.9144C12.1997 85.0042 12.1997 82.0052 12.7924 79.095C12.9364 78.3701 13.121 77.6539 13.3454 76.9496C13.3454 76.9029 13.2891 76.8889 13.2751 76.9496C12.2632 79.7551 11.8499 82.7397 12.0614 85.713C12.2535 88.2968 12.8861 91.0112 14.559 93.0633C15.4298 94.0614 16.4844 94.8846 17.6658 95.4885C18.8929 96.1629 20.1623 96.758 21.4661 97.2701C24.0116 98.2576 26.6334 99.0375 29.3058 99.602C34.765 100.801 40.3319 101.412 45.7864 102.62C46.4612 102.769 47.1312 102.927 47.8013 103.086C48.4898 103.199 49.1576 103.413 49.7835 103.72C50.4302 104.121 50.641 104.924 50.8988 105.586C51.1565 106.248 59.9521 135.864 60.1489 136.61C60.1563 136.634 60.1731 136.654 60.1955 136.666C60.2179 136.678 60.2441 136.68 60.2684 136.673C60.2926 136.665 60.3129 136.649 60.3248 136.626C60.3366 136.604 60.3391 136.578 60.3316 136.554C59.5678 133.532 51.8547 106.976 51.283 105.525Z" fill="#37474F"/>
<path d="M49.695 106.295C49.4888 105.651 49.3108 104.956 48.7063 104.564C48.1018 104.173 39.4702 103.025 38.4955 102.876C38.4533 102.876 38.4346 102.937 38.4955 102.941C39.3249 103.081 47.3005 104.504 48.0127 104.742C48.317 104.825 48.5884 104.999 48.7906 105.241C49.007 105.571 49.1655 105.935 49.2592 106.318C49.5091 107.089 49.7544 107.859 49.9949 108.627C50.4869 110.166 50.979 111.709 51.4476 113.262C51.9771 115.021 52.5816 116.863 53.0408 118.64C53.0736 118.775 53.2704 118.71 53.247 118.579C52.6097 115.254 49.948 107.111 49.695 106.295Z" fill="#37474F"/>
<path d="M31.1054 82.1119C35.0918 82.5895 39.032 83.3928 42.8859 84.5138C46.7775 85.5986 50.5834 86.9672 54.2729 88.6087C56.3394 89.5415 58.3356 90.5629 60.3225 91.6449C60.36 91.6682 60.3225 91.7242 60.285 91.7055C56.7081 89.8701 53.0157 88.267 49.2308 86.9064C45.472 85.5441 41.6255 84.4347 37.7173 83.5857C35.5196 83.1193 33.3031 82.7368 31.082 82.3731C30.918 82.3497 30.9554 82.0979 31.1054 82.1119Z" fill="#37474F"/>
<path d="M31.4524 57.2862C34.2077 61.4277 44.456 74.5425 49.4371 74.5985C52.7173 74.6405 64.929 70.0652 66.7753 69.0018C68.2045 68.181 63.8887 57.2162 62.2767 57.9204C60.6648 58.6247 50.8055 62.0153 49.4887 61.9081C48.1719 61.8008 36.6491 53.0094 32.6192 51.0645C25.6605 47.7159 29.9716 55.0568 31.4524 57.2862Z" fill="#774442"/>
<path d="M65.1631 69.6781C66.5174 69.2117 73.8837 66.8518 75.3973 65.7511C76.9109 64.6504 81.0205 61.1572 80.3129 59.9166C79.6053 58.676 78.2885 59.5995 78.2885 59.5995C78.2885 59.5995 79.7974 57.8552 78.9493 56.6706C78.1011 55.4859 76.1377 56.9924 76.1377 56.9924C76.1377 56.9924 77.5435 55.0848 76.6063 53.9655C75.6691 52.8462 73.954 54.6884 73.954 54.6884C73.954 54.6884 75.3598 53.0047 74.1743 52.4078C72.7685 51.6849 70.5942 55.0755 68.8276 56.1669C68.4292 56.4187 60.3459 60.6255 60.3459 60.6255L65.1631 69.6781Z" fill="#774442"/>
<path d="M74.1228 54.5255C72.5108 57.016 71.3674 57.8275 68.7105 59.0541C68.6589 59.0774 68.6824 59.1614 68.7386 59.1427C71.4518 58.1726 73.031 57.3611 74.2493 54.6001C74.3102 54.4742 74.2025 54.4182 74.1228 54.5255Z" fill="#263238"/>
<path d="M76.2644 56.7921C74.3572 59.236 73.1295 60.1268 70.4397 61.6146C70.4022 61.6146 70.4397 61.7032 70.4725 61.6845C73.2372 60.4439 74.7883 59.5951 76.3722 56.9087C76.4425 56.7875 76.3487 56.6849 76.2644 56.7921Z" fill="#263238"/>
<path d="M78.1718 59.6553C76.1521 61.8846 74.8494 62.92 72.0519 64.03C72.0376 64.0343 72.0256 64.0441 72.0186 64.0573C72.0116 64.0704 72.0101 64.0857 72.0144 64.1C72.0188 64.1142 72.0286 64.1261 72.0418 64.1331C72.055 64.1401 72.0704 64.1416 72.0847 64.1373C75.0509 63.2791 76.6863 61.9966 78.2327 59.7206C78.317 59.5853 78.2796 59.534 78.1718 59.6553Z" fill="#263238"/>
<path d="M58.0217 60.1687C58.0217 60.1687 59.868 56.9413 60.9926 55.7007C62.1173 54.4602 68.0216 51.3727 68.762 52.6039C69.6992 54.1943 66.6673 56.6428 65.0132 57.6502C65.0132 57.6502 67.2297 61.3207 65.4209 63.5547C63.6121 65.7887 58.0217 60.1687 58.0217 60.1687Z" fill="#774442"/>
<path d="M68.9026 53.126C68.7245 55.2061 66.4659 56.3907 64.9383 57.4774C64.9151 57.4932 64.8961 57.5145 64.883 57.5393C64.8699 57.564 64.863 57.5916 64.863 57.6196C64.863 57.6476 64.8699 57.6752 64.883 57.7C64.8961 57.7248 64.9151 57.746 64.9383 57.7619C65.763 59.3616 66.4612 61.8614 65.5662 63.5404C65.56 63.5503 65.558 63.5623 65.5606 63.5737C65.5632 63.585 65.5703 63.5949 65.5802 63.6011C65.5902 63.6073 65.6022 63.6093 65.6136 63.6066C65.625 63.604 65.6349 63.597 65.6412 63.5871C66.8455 61.9174 66.3628 59.3896 65.3413 57.7059C66.9298 56.6099 69.1416 55.3273 68.9307 53.1306C68.9213 53.126 68.9026 53.126 68.9026 53.126Z" fill="#263238"/>
<path d="M58.3122 58.0556L61.5268 72.2991C61.5268 72.2991 51.7237 75.4425 47.1034 74.6683C41.4802 73.7356 30.9836 58.6619 29.47 56.1527C26.9818 52.0299 27.0193 49.2782 29.6013 49.5207C30.6041 49.6047 31.9911 50.1457 33.7671 51.2463C35.6415 52.3936 46.4755 60.0238 49.6994 61.269C51.5082 61.9873 58.3122 58.0556 58.3122 58.0556Z" fill="#0A4269"/>
<path d="M58.809 72.1358C58.2982 70.149 56.5035 61.9452 56.2317 60.1449C56.2317 60.0237 56.2879 59.9817 56.3254 60.1076C58.003 66.0214 58.4857 70.1396 58.8886 72.1125C58.898 72.1638 58.823 72.1871 58.809 72.1358Z" fill="#263238"/>
<path d="M47.7967 74.7431C47.564 74.7316 47.3324 74.7051 47.1032 74.6638C41.48 73.731 30.9834 58.662 29.4698 56.1482C27.1269 52.2492 27.0191 49.5721 29.2121 49.5068C33.2139 54.9263 41.9533 66.8052 47.7967 74.7431Z" fill="#263238"/>
<path d="M37.1736 80.1067C36.5597 80.6991 10.4026 83.4088 10.2714 83.2362C9.9246 82.7698 14.8121 58.3311 25.2899 49.9128C27.1362 48.4297 30.2149 49.05 31.6066 49.9408C32.3048 50.4072 34.2355 53.8957 34.7884 57.0159C35.3413 60.136 37.5578 79.7336 37.1736 80.1067Z" fill="#0A4269"/>
<path d="M20.0136 54.7769C12.2161 63.5404 3.48145 78.2643 7.32395 81.3611C10.8337 84.1594 22.6284 81.4777 30.5805 78.2829C32.094 77.6766 30.2243 65.6904 28.5092 66.0029C25.3556 66.5766 19.6059 68.5914 19.381 68.6473C18.9452 68.7732 21.724 62.2345 24.3153 55.8916C27.1878 48.8118 24.4699 49.7679 20.0136 54.7769Z" fill="#774442"/>
<path d="M26.2461 66.5116C26.2461 66.5116 31.0398 65.411 34.2122 64.8653C35.9695 64.5575 39.0294 64.301 40.4258 64.6647C42.5111 65.2104 50.8896 68.8109 50.0555 70.849C49.3011 72.7146 42.497 68.6943 42.497 68.6943C42.497 68.6943 49.7228 72.1316 48.4014 74.1884C47.0799 76.2451 39.9994 70.7045 39.9994 70.7045C39.9994 70.7045 47.3423 74.3983 45.646 76.3011C44.3621 77.7423 37.6799 73.083 37.6799 73.083C37.6799 73.083 43.9684 76.3011 42.7126 77.8402C41.3068 79.5425 34.873 75.6295 34.873 75.6295C31.0211 79.0062 27.7971 79.0481 25.501 78.8056C24.9106 78.7776 26.2461 66.5116 26.2461 66.5116Z" fill="#774442"/>
<path d="M40.0603 67.3466C40.9225 67.7197 41.7988 68.0928 42.6235 68.5406C43.4482 68.9883 44.2636 69.4733 45.0461 69.9864C46.0793 70.6549 47.0334 71.4371 47.8905 72.3183C46.2551 70.8678 43.3217 69.2168 42.4923 68.7691C41.6629 68.3214 40.8663 67.8363 40.0415 67.3699C40.0181 67.3653 40.0368 67.3373 40.0603 67.3466Z" fill="#263238"/>
<path d="M38.3783 70.2893C39.4607 70.8116 40.5526 71.292 41.6116 71.8657C42.6706 72.4393 44.1139 73.2648 45.1261 73.9178C45.201 73.9691 45.1636 74.0996 45.0839 74.053C44.0483 73.456 42.53 72.6539 41.4851 72.0755C40.4401 71.4972 39.4232 70.8583 38.3642 70.3126C38.3408 70.3033 38.3642 70.2799 38.3783 70.2893Z" fill="#263238"/>
<path d="M36.4663 72.5559C38.1429 73.3257 39.7365 74.2634 41.2225 75.3542C41.2975 75.4102 41.2225 75.4335 41.1476 75.3869C39.5824 74.4308 38.3641 73.6659 36.4616 72.6305C36.4241 72.5979 36.4663 72.5419 36.4663 72.5559Z" fill="#263238"/>
<path d="M23.8565 50.9111C18.1864 54.395 3.59431 74.8928 6.27937 80.5314C8.96444 86.17 27.2585 79.9624 27.2585 79.9624L25.937 65.7189C25.937 65.7189 20.8293 67.3326 20.67 67.0901C20.5107 66.8476 23.3129 59.8517 24.4563 57.0114C25.5997 54.1711 26.8742 49.0595 23.8565 50.9111Z" fill="#0A4269"/>
<path d="M24.9388 79.0941C24.6014 77.07 23.533 68.7449 23.4065 66.9307C23.4065 66.8048 23.4768 66.7674 23.5049 66.898C24.667 72.9331 24.7889 77.0746 25.0232 79.0754C25.0278 79.1267 24.9482 79.1454 24.9388 79.0941Z" fill="#263238"/>
<path d="M26.0402 65.5412C25.4804 65.6371 24.929 65.7759 24.3907 65.9562C23.9221 66.0962 23.416 66.2361 22.9334 66.3853C21.8837 66.7025 20.8387 67.0476 19.7984 67.3974C18.7582 67.7472 17.7226 68.111 16.6916 68.4841C15.6607 68.8572 14.6532 69.2956 13.6223 69.6734C13.5755 69.6734 13.6223 69.762 13.6551 69.748C14.6954 69.3889 15.7638 69.095 16.8135 68.7639L19.9015 67.7798L22.9896 66.8004L24.4938 66.334C24.9624 66.1755 25.4638 66.0029 25.9418 65.8117C25.9521 66.074 25.9772 66.3356 26.0167 66.5952C26.1245 66.5206 26.1573 65.5272 26.0402 65.5412Z" fill="#263238"/>
<path d="M23.9125 60.2666C23.6173 60.6397 23.3267 61.0175 23.0503 61.4092L22.905 61.6284L23.1299 61.0268C23.4234 60.3323 23.6784 59.6223 23.8937 58.9001C23.8937 58.8674 23.8516 58.8534 23.8375 58.9001C23.4774 59.6 23.1567 60.3194 22.8769 61.0548C22.577 61.759 22.2724 62.4539 21.9819 63.1722C21.6913 63.8904 21.4008 64.5947 21.1243 65.3082C20.8284 66.0046 20.5841 66.7217 20.3933 67.4536C20.3933 67.4956 20.4449 67.5096 20.4636 67.4536C20.8485 66.766 21.1806 66.0504 21.457 65.3129C21.7522 64.6087 22.0287 63.9137 22.3146 63.1768C22.4364 62.8784 22.5489 62.5799 22.6613 62.2767L22.8113 62.0762C22.9472 61.8896 23.0784 61.6937 23.2049 61.5025C23.4626 61.0968 23.7016 60.691 23.9406 60.2759C23.9453 60.2666 23.9219 60.2526 23.9125 60.2666Z" fill="#263238"/>
<path d="M27.2915 79.626C27.2915 79.5234 27.2306 79.5 27.2118 79.626C27.1931 79.7519 27.2118 79.7939 27.1837 79.8545C26.5605 80.0224 24.2831 80.7126 23.7301 80.8759C22.5586 81.221 21.3809 81.5242 20.1969 81.7853C19.002 82.0512 17.8071 82.2844 16.5981 82.4616C14.2734 82.7123 11.9321 82.7747 9.59723 82.6481C9.54568 82.6481 9.55037 82.7134 9.59723 82.7274C11.9431 83.0409 14.3197 83.0518 16.6684 82.7601C17.8727 82.6202 19.077 82.4196 20.2625 82.1724C21.4481 81.9252 22.6711 81.6128 23.852 81.2397C24.4424 81.0624 25.0281 80.8666 25.6092 80.6613C26.1807 80.4982 26.7335 80.2763 27.2587 79.9991C27.277 79.9869 27.2919 79.9702 27.3017 79.9505C27.3116 79.9309 27.3161 79.9091 27.3149 79.8871L27.2915 79.626Z" fill="#263238"/>
<path d="M30.7774 54.0826C29.2686 54.4091 26.7288 52.0818 25.74 50.2163C25.6744 50.0903 26.2883 45.0254 26.307 44.0087C26.3117 43.7988 32.7174 45.6643 32.7174 45.6643C32.3285 46.9279 32.0971 48.2342 32.0286 49.554C32.0052 49.7032 32.2488 53.7655 30.7774 54.0826Z" fill="#774442"/>
<path d="M32.7175 45.664C32.7175 45.692 32.6707 45.8179 32.6144 46.0185C32.5207 46.3589 32.3801 46.9093 32.263 47.5436C32.1282 48.2041 32.053 48.8752 32.0381 49.549C32.0357 49.5957 32.0357 49.6424 32.0381 49.689V49.7123C32.0381 49.7962 32.0381 49.9082 32.0381 50.0388C31.8297 50.0635 31.6197 50.0713 31.4101 50.0621C27.9238 49.9268 26.8226 45.6454 26.5273 43.999L26.6351 44.0223C26.8038 44.0503 27.0287 44.1016 27.2958 44.1623L27.4973 44.2136L28.9594 44.596L29.4842 44.7359L30.5995 45.0484L31.0681 45.1743L31.5367 45.3003L31.7475 45.3609L31.8459 45.3889L32.3754 45.5428L32.6285 45.6174C32.6639 45.6247 32.6984 45.6357 32.7316 45.65L32.7175 45.664Z" fill="#263238"/>
<path d="M25.2619 37.7348C24.8589 40.0667 26.8785 46.3863 28.6639 47.6269C31.2599 49.4272 35.0884 49.1473 36.527 46.1391C37.9328 43.2289 35.1212 35.0298 33.1812 33.9477C30.2946 32.3247 25.857 34.2695 25.2619 37.7348Z" fill="#774442"/>
<path d="M32.1132 40.6973C32.1132 40.6973 32.0851 40.7299 32.1132 40.7486C32.2727 41.1682 32.3853 41.6811 32.0522 41.9422C32.0522 41.9422 32.0522 41.9748 32.0522 41.9422C32.4838 41.7417 32.329 41.0703 32.1132 40.6973Z" fill="#263238"/>
<path d="M31.5785 40.3888C30.8756 40.5707 31.2974 41.9508 31.944 41.7876C32.5907 41.6244 32.169 40.235 31.5785 40.3888Z" fill="#263238"/>
<path d="M34.6245 40.0254C34.6245 40.0254 34.662 40.0254 34.6667 40.0534C34.7838 40.4823 34.99 40.9579 35.4211 40.9859V41.0092C34.9291 41.0838 34.662 40.4497 34.6245 40.0254Z" fill="#263238"/>
<path d="M34.8731 39.4607C35.5479 39.1996 36.0212 40.5658 35.3933 40.8082C34.7654 41.0507 34.3061 39.6799 34.8731 39.4607Z" fill="#263238"/>
<path d="M30.885 39.894C31.0619 39.8052 31.234 39.7071 31.4005 39.6002C31.5973 39.4837 31.766 39.4137 31.8691 39.1993C31.8921 39.1356 31.893 39.0662 31.8718 39.002C31.8506 38.9378 31.8084 38.8825 31.752 38.8449C31.6301 38.7858 31.4945 38.7603 31.3594 38.7709C31.2242 38.7816 31.0944 38.828 30.9834 38.9055C30.7363 39.0289 30.543 39.2378 30.4399 39.493C30.4198 39.5531 30.4177 39.6177 30.4339 39.679C30.45 39.7402 30.4838 39.7955 30.531 39.838C30.5782 39.8805 30.6368 39.9084 30.6996 39.9184C30.7625 39.9283 30.8269 39.9198 30.885 39.894Z" fill="#263238"/>
<path d="M35.201 38.542C35.0032 38.5614 34.8045 38.5692 34.6059 38.5653C34.3965 38.601 34.1811 38.5683 33.992 38.4721C33.9394 38.4304 33.9022 38.3726 33.8861 38.3077C33.87 38.2427 33.8759 38.1743 33.903 38.1131C33.9744 37.9982 34.0757 37.9047 34.1961 37.8423C34.3165 37.78 34.4516 37.7511 34.5871 37.7587C34.8635 37.7306 35.1406 37.8054 35.365 37.9685C35.4136 38.009 35.4494 38.0626 35.4681 38.1229C35.4867 38.1832 35.4874 38.2476 35.4701 38.3083C35.4527 38.3689 35.4181 38.4233 35.3703 38.4648C35.3226 38.5063 35.2637 38.5331 35.201 38.542Z" fill="#263238"/>
<path d="M34.4422 43.4907C34.3312 43.7807 34.1472 44.0376 33.9079 44.2367C33.7726 44.3388 33.6091 44.3974 33.4394 44.4045C33.0645 44.4045 32.9708 44.1061 32.9473 43.8217C32.9363 43.6658 32.9458 43.509 32.9754 43.3555C33.437 43.5563 33.9514 43.6037 34.4422 43.4907Z" fill="#263238"/>
<path d="M33.9079 44.2368C33.7725 44.339 33.609 44.3975 33.4393 44.4047C33.0644 44.4047 32.9707 44.1063 32.9473 43.8219C33.1309 43.7715 33.3264 43.7851 33.5012 43.8606C33.676 43.9361 33.8195 44.0689 33.9079 44.2368Z" fill="#FF9ABB"/>
<path d="M26.2932 42.8985C27.5022 42.7726 27.1929 40.6878 27.1929 40.6878C27.1929 40.6878 29.564 40.0349 29.4422 36.9054C29.4422 36.9054 33.0738 37.703 34.6624 35.6928C36.2509 33.6827 30.9136 29.8117 25.8574 34.6621C25.8574 34.6621 23.2708 35.427 23.1208 37.6237C22.9709 39.8204 24.8359 43.0478 26.2932 42.8985Z" fill="#263238"/>
<path d="M29.3202 36.5643C29.3202 36.5317 29.2499 36.5643 29.264 36.5643C29.9013 38.5698 28.7954 40.5986 26.5742 40.7152C26.5615 40.7188 26.5503 40.7264 26.5423 40.7369C26.5343 40.7475 26.53 40.7603 26.53 40.7735C26.53 40.7866 26.5343 40.7995 26.5423 40.81C26.5503 40.8205 26.5615 40.8281 26.5742 40.8318C28.8001 40.9577 30.5573 38.5511 29.3202 36.5643Z" fill="#263238"/>
<path d="M30.787 32.3018C31.5456 32.2894 32.3019 32.3884 33.0315 32.5957C34.114 32.9548 35.5948 34.0461 35.0231 35.3614C34.2405 37.1709 31.6211 37.0124 30.0091 36.7932C29.9873 36.7876 29.9643 36.7909 29.9449 36.8022C29.9256 36.8136 29.9116 36.8321 29.906 36.8538C29.9004 36.8754 29.9037 36.8984 29.9151 36.9176C29.9265 36.9369 29.9452 36.9508 29.9669 36.9564C31.6257 37.4694 34.9294 37.2829 35.3558 35.1328C35.8244 32.7589 32.427 32.1386 30.787 32.3018Z" fill="#263238"/>
<path d="M27.3896 42.8005C27.3896 42.8005 25.609 40.9349 24.7327 41.5878C23.8564 42.2408 25.4121 45.1137 26.6071 45.3609C26.756 45.4036 26.9121 45.4159 27.066 45.3969C27.2198 45.378 27.3682 45.3282 27.5022 45.2506C27.6361 45.1731 27.753 45.0693 27.8456 44.9456C27.9382 44.8218 28.0046 44.6807 28.041 44.5308L27.3896 42.8005Z" fill="#774442"/>
<path d="M32.0429 50.0904L30.5106 53.8821L25.7731 49.083L24.4329 50.6221C24.4329 50.6221 29.0626 58.2475 29.0907 57.9024L30.6652 54.6377L32.9285 56.9137L32.7458 51.2051L32.0429 50.0904Z" fill="#EBEBEB"/>
<path d="M32.9986 54.0821C32.9377 53.1494 32.9049 52.1886 32.7971 51.2512C32.7971 51.2185 32.7409 51.2045 32.7315 51.2512C32.5441 52.1606 32.7971 55.7611 32.7924 56.6239C32.6987 56.526 30.6931 54.6231 30.6744 54.6511C30.3323 55.1735 29.1795 57.5521 29.0999 57.7713C28.3689 56.5587 25.562 52.1746 24.6951 51.0086C24.6669 50.976 24.6201 51.0086 24.6388 51.0413C25.2855 52.3192 28.9968 58.2516 29.0577 58.233C29.6652 57.1106 30.2127 55.957 30.6978 54.777C31.0399 55.1921 33.0408 57.3422 33.0689 57.2023C33.1024 56.1617 33.079 55.1201 32.9986 54.0821Z" fill="#263238"/>
<path d="M144 78.6602H111.067V152H144V78.6602Z" fill="#263238"/>
<path d="M46.2128 78.6602H13.2798V152H46.2128V78.6602Z" fill="#37474F"/>
<path d="M144 78.6602H46.2131V88.8461H144V78.6602Z" fill="#455A64"/>
<path opacity="0.1" d="M46.4236 83.7487L58.6212 83.6648L70.8188 83.6368L95.214 83.5762L119.609 83.6321L131.802 83.6648L144 83.7487L131.802 83.8373L119.609 83.8652L95.214 83.9259L70.8188 83.8652L58.6212 83.8373L46.4236 83.7487Z" fill="black"/>
<path d="M50.6414 78.6602H46.2131V152H50.6414V78.6602Z" fill="#455A64"/>
<path d="M144 78.6602H139.572V152H144V78.6602Z" fill="#455A64"/>
<path d="M54.5731 77.5273H29.1938V78.6603H54.5731V77.5273Z" fill="#C7C7C7"/>
<path d="M54.5687 77.5273H41.7947V78.6603H54.5687V77.5273Z" fill="#A6A6A6"/>
<path d="M43.1721 78.6558H67.9047L71.138 61.9404H46.4054L43.1721 78.6558Z" fill="#C7C7C7"/>
<path d="M55.6462 70.2981C55.6256 70.489 55.646 70.6822 55.7062 70.8647C55.7664 71.0471 55.8649 71.2148 55.9952 71.3564C56.1256 71.4981 56.2847 71.6104 56.4621 71.6861C56.6395 71.7617 56.831 71.7989 57.0239 71.7952C57.4334 71.7881 57.826 71.6318 58.1274 71.3559C58.4288 71.08 58.6181 70.7036 58.6593 70.2981C58.6799 70.1075 58.6596 69.9148 58.5997 69.7326C58.5398 69.5504 58.4417 69.383 58.3119 69.2415C58.1821 69.0999 58.0235 68.9875 57.8467 68.9115C57.6699 68.8356 57.4789 68.7979 57.2863 68.801C56.8764 68.8079 56.4831 68.964 56.181 69.2399C55.8788 69.5157 55.6886 69.8922 55.6462 70.2981Z" fill="#EBEBEB"/>
</svg>
