<svg width="232" height="232" viewBox="0 0 232 232" fill="none" xmlns="http://www.w3.org/2000/svg">
<path d="M196.401 137.939C199.733 131.095 205.561 127.583 212.131 129.522C218.701 131.462 219.713 140.626 214.813 142.936C209.913 145.247 205.009 138.496 202.415 137.109C199.821 135.721 196.401 137.939 196.401 137.939Z" fill="#E1E0EB"/>
<path d="M193.181 156.158C193.181 155.337 193.228 154.511 193.26 153.685C193.316 152.036 193.373 150.389 193.432 148.744C193.543 145.732 193.868 142.772 195.116 139.992C196.221 137.475 198.064 135.353 200.401 133.905C201.271 133.382 202.207 132.98 203.185 132.708C204.072 131.811 205.2 131.192 206.433 130.926C207.961 130.616 209.532 130.577 211.073 130.81C211.124 130.81 211.124 130.903 211.073 130.898C209.61 130.713 208.125 130.819 206.702 131.209C206.094 131.376 205.504 131.606 204.944 131.896C204.588 132.086 204.247 132.302 203.923 132.541C205.248 132.265 206.617 132.278 207.936 132.578C208.412 132.694 208.878 132.85 209.328 133.042C209.688 132.965 210.056 132.934 210.423 132.949C210.904 132.966 211.382 133.034 211.848 133.153C212.798 133.419 213.707 133.816 214.548 134.332C214.558 134.338 214.565 134.348 214.568 134.359C214.57 134.37 214.569 134.382 214.562 134.392C214.556 134.402 214.546 134.409 214.535 134.411C214.524 134.414 214.512 134.412 214.502 134.406C213.674 133.954 212.787 133.619 211.866 133.413C211.421 133.312 210.968 133.245 210.512 133.213C210.26 133.199 210.007 133.199 209.755 133.213C211.628 134.075 213.133 135.575 214.001 137.445C214.024 137.496 213.95 137.538 213.927 137.487C213.404 136.402 212.642 135.45 211.699 134.702C210.755 133.954 209.655 133.429 208.479 133.167C208.331 133.13 208.187 133.111 208.038 133.079C208.09 133.292 208.08 133.543 208.108 133.742C208.155 134.076 208.21 134.406 208.275 134.735C208.413 135.413 208.591 136.083 208.809 136.74C209.031 137.405 209.298 138.054 209.607 138.684C209.904 139.343 210.276 139.966 210.716 140.54C210.758 140.586 210.679 140.642 210.646 140.591C210.252 139.974 209.792 139.403 209.43 138.758C209.087 138.146 208.79 137.509 208.544 136.851C208.293 136.183 208.096 135.496 207.955 134.796C207.885 134.429 207.825 134.058 207.783 133.682C207.742 133.459 207.728 133.231 207.742 133.005C206.974 132.888 206.194 132.872 205.422 132.958C205.709 134.591 206.025 136.29 206.939 137.71C206.971 137.756 206.888 137.802 206.865 137.751C206.438 137.003 206.06 136.228 205.732 135.431C205.432 134.65 205.243 133.83 205.171 132.995C203.815 133.177 202.506 133.617 201.315 134.29C199.071 135.595 197.28 137.556 196.183 139.909C195.023 142.439 194.376 145.173 194.281 147.955C194.058 151.453 194.016 154.975 193.664 158.464C193.641 158.692 193.283 158.771 193.237 158.511C193.143 157.73 193.125 156.942 193.181 156.158Z" fill="#263238"/>
<path d="M200.875 133.359C201.095 133.091 201.351 132.855 201.636 132.658C201.905 132.435 202.188 132.217 202.48 132.018C203.057 131.62 203.697 131.323 204.373 131.141C204.424 131.141 204.447 131.21 204.373 131.224C203.696 131.399 203.063 131.715 202.517 132.152C202.239 132.356 201.97 132.574 201.71 132.802C201.478 133.044 201.221 133.262 200.944 133.451C200.912 133.465 200.842 133.41 200.875 133.359Z" fill="#263238"/>
<path d="M211.505 135.841C212.055 136.481 212.565 137.155 213.031 137.86C213.486 138.57 213.867 139.326 214.168 140.115C214.168 140.115 214.14 140.147 214.126 140.115C213.366 138.625 212.468 137.21 211.444 135.888C211.407 135.855 211.467 135.795 211.505 135.841Z" fill="#263238"/>
<path d="M204.34 135.163C204.409 135.59 204.536 136.007 204.716 136.401C204.9 136.782 205.112 137.148 205.352 137.496C205.352 137.52 205.328 137.543 205.31 137.524C204.737 136.863 204.371 136.048 204.257 135.181C204.247 135.125 204.331 135.107 204.34 135.163Z" fill="#263238"/>
<path d="M193.645 138.109C193.645 138.109 188.931 132.184 179.827 134.281C171.178 136.281 167.183 152.141 175.925 154.038C184.667 155.936 183.126 141.26 186.314 138.768C188.648 136.94 192.012 137.344 193.645 138.109Z" fill="#E1E0EB"/>
<path d="M172.797 142.943C173.384 142.425 174.004 141.947 174.653 141.509C175.272 141.087 175.945 140.75 176.653 140.507C177.008 139.969 177.405 139.46 177.841 138.985C178.642 138.12 179.57 137.381 180.593 136.795C180.501 136.791 180.41 136.791 180.319 136.795C179.837 136.77 179.353 136.77 178.871 136.795C177.901 136.856 176.95 137.092 176.064 137.491C176.054 137.496 176.042 137.497 176.031 137.493C176.02 137.489 176.011 137.481 176.006 137.47C176.001 137.46 176.001 137.448 176.004 137.437C176.008 137.426 176.016 137.417 176.027 137.412C176.92 137.026 177.854 136.743 178.811 136.568C179.28 136.486 179.755 136.445 180.231 136.447C180.486 136.447 180.741 136.447 180.996 136.494H181.14C181.975 136.071 182.857 135.748 183.766 135.528L183.511 135.459C183.066 135.361 182.615 135.288 182.161 135.241C181.255 135.134 180.339 135.148 179.437 135.282C179.428 135.279 179.42 135.274 179.414 135.266C179.409 135.258 179.405 135.248 179.405 135.238C179.405 135.229 179.409 135.219 179.414 135.211C179.42 135.203 179.428 135.197 179.437 135.194C180.35 135.085 181.27 135.048 182.189 135.083C182.961 135.108 183.728 135.208 184.481 135.38C185.028 135.279 185.582 135.215 186.137 135.19C189.311 135.055 192.773 136.243 194.726 138.851C196.68 141.458 197.046 144.943 197.408 148.093C197.939 152.482 198.055 156.911 197.756 161.322C197.733 161.582 197.366 161.536 197.362 161.29C197.241 157.55 197.111 153.805 196.749 150.079C196.587 148.353 196.401 146.623 196.113 144.91C195.905 143.439 195.483 142.005 194.861 140.656C194.194 139.276 193.135 138.124 191.817 137.343C190.483 136.58 188.996 136.124 187.465 136.006C186.092 135.892 184.71 136.021 183.381 136.387C183.423 136.654 183.423 136.927 183.381 137.194C183.353 137.532 183.286 137.865 183.182 138.187C183.084 138.493 182.956 138.788 182.801 139.069C182.634 139.384 182.421 139.663 182.235 139.96C182.203 140.011 182.129 139.96 182.161 139.909C182.536 139.376 182.778 138.762 182.866 138.118C182.924 137.811 182.961 137.501 182.978 137.19C182.978 136.953 182.978 136.726 182.978 136.484C181.534 136.929 180.187 137.64 179.006 138.582C178.783 138.758 178.57 138.948 178.361 139.138C178.662 139.418 178.923 139.738 179.136 140.09C179.449 140.543 179.719 141.025 179.943 141.528C180.365 142.542 180.649 143.608 180.788 144.697C180.785 144.706 180.779 144.714 180.771 144.72C180.763 144.726 180.753 144.729 180.743 144.729C180.734 144.729 180.724 144.726 180.716 144.72C180.708 144.714 180.702 144.706 180.699 144.697C180.53 143.644 180.18 142.628 179.665 141.695C179.422 141.235 179.153 140.791 178.857 140.363C178.704 140.145 178.546 139.927 178.393 139.718C178.305 139.607 178.208 139.491 178.124 139.37C177.054 140.418 176.179 141.649 175.54 143.003C175.971 143.457 176.331 143.973 176.607 144.535C176.932 145.123 177.217 145.732 177.461 146.358C177.9 147.572 178.262 148.811 178.546 150.07C178.546 150.121 178.468 150.14 178.458 150.07C178.182 148.802 177.749 147.574 177.168 146.414C176.895 145.843 176.612 145.282 176.305 144.729C175.992 144.215 175.707 143.684 175.452 143.138C174.847 144.466 174.494 145.894 174.412 147.351C174.412 147.362 174.408 147.373 174.4 147.381C174.392 147.388 174.382 147.393 174.37 147.393C174.359 147.393 174.349 147.388 174.341 147.381C174.333 147.373 174.329 147.362 174.329 147.351C174.496 145.065 175.195 142.85 176.37 140.883C175.813 141.12 175.257 141.347 174.718 141.635C174.033 141.996 173.397 142.444 172.825 142.966C172.811 143.05 172.756 142.98 172.797 142.943Z" fill="#263238"/>
<path d="M179.474 143.284C179.748 144.179 180.091 145.052 180.337 145.961C180.588 146.832 180.722 147.732 180.736 148.638C180.736 148.662 180.699 148.662 180.694 148.638C180.447 146.821 180.01 145.034 179.391 143.307C179.367 143.251 179.456 143.224 179.474 143.284Z" fill="#263238"/>
<path d="M173.707 141.058C174.066 140.715 174.472 140.426 174.914 140.2C175.363 139.995 175.829 139.829 176.306 139.703C176.357 139.703 176.375 139.777 176.306 139.791C175.836 139.915 175.385 140.1 174.965 140.343C174.534 140.567 174.12 140.821 173.726 141.104C173.721 141.104 173.716 141.102 173.712 141.099C173.707 141.096 173.704 141.092 173.702 141.087C173.7 141.082 173.7 141.077 173.701 141.072C173.702 141.067 173.704 141.062 173.707 141.058Z" fill="#263238"/>
<path d="M189.163 130.196C189.163 130.196 188.291 119.547 180.38 116.099C173.768 113.218 169.986 120.642 174.659 125.189C178.436 128.869 184.5 127.207 189.163 130.196Z" fill="#E1E0EB"/>
<path d="M176.12 118.16C177.324 118.648 178.5 119.204 179.642 119.826C180.588 120.375 181.501 120.981 182.375 121.64C182.24 121.371 182.129 121.092 181.994 120.828C181.79 120.415 181.567 120.016 181.321 119.622C180.834 118.818 180.25 118.078 179.581 117.418C179.539 117.38 179.604 117.316 179.642 117.357C180.317 118.017 180.938 118.731 181.498 119.492C181.769 119.88 182.02 120.283 182.249 120.698C182.482 121.08 182.66 121.492 182.778 121.923L182.866 121.988C184.25 123.093 185.518 124.337 186.648 125.7L186.578 125.394C186.43 124.874 186.267 124.359 186.114 123.849C185.775 122.756 185.294 121.713 184.685 120.744C184.653 120.698 184.732 120.652 184.759 120.703C185.384 121.67 185.939 122.681 186.421 123.728C186.64 124.238 186.822 124.764 186.963 125.301C187.079 125.65 187.166 126.009 187.223 126.373C187.567 126.809 187.905 127.25 188.226 127.704C191.622 132.544 193.33 138.376 193.738 144.246C193.86 145.993 193.889 147.744 193.826 149.494C193.816 151.258 193.66 153.017 193.362 154.756C193.362 154.867 193.167 154.835 193.172 154.728C193.214 153.187 193.371 151.656 193.399 150.116C193.429 148.567 193.38 147.019 193.251 145.476C192.992 142.402 192.401 139.365 191.487 136.418C190.564 133.4 189.205 130.531 187.455 127.904C187.121 127.839 186.792 127.746 186.462 127.663L185.279 127.352C184.518 127.154 183.778 126.882 183.071 126.54C183.024 126.54 183.071 126.438 183.117 126.466C183.815 126.846 184.57 127.107 185.353 127.24C185.975 127.361 186.62 127.445 187.237 127.584C186.661 126.746 186.042 125.939 185.381 125.166C183.871 125.302 182.349 125.188 180.876 124.828C180.088 124.641 179.313 124.402 178.556 124.113C177.762 123.807 177.015 123.412 176.236 123.088C176.18 123.088 176.236 122.976 176.273 123.009C177.69 123.783 179.238 124.289 180.839 124.503C182.251 124.729 183.678 124.847 185.107 124.856C184.546 124.211 183.966 123.58 183.344 123C181.266 121.023 178.797 119.199 176.059 118.253C176.041 118.225 176.069 118.137 176.12 118.16Z" fill="#263238"/>
<path d="M182.56 118.19C182.918 118.639 183.242 119.114 183.53 119.61C183.828 120.131 184.063 120.685 184.231 121.262C184.231 121.262 184.208 121.29 184.198 121.262C183.934 120.737 183.711 120.195 183.442 119.675C183.185 119.164 182.874 118.681 182.514 118.236C182.463 118.209 182.528 118.148 182.56 118.19Z" fill="#263238"/>
<path d="M175.201 121.736C175.717 122.02 176.261 122.247 176.825 122.414C177.366 122.601 177.918 122.756 178.477 122.878C178.505 122.878 178.477 122.924 178.477 122.924C177.896 122.862 177.323 122.736 176.77 122.548C176.22 122.341 175.684 122.101 175.164 121.829C175.108 121.787 175.15 121.708 175.201 121.736Z" fill="#263238"/>
<path d="M195.316 128.277C195.367 128.741 196.513 124.412 203.204 120.57C209.282 117.086 216.539 108.015 210.577 102.284C205.77 97.6581 193.098 107.741 195.316 128.277Z" fill="#E1E0EB"/>
<path d="M190.703 153.072C190.802 148.57 191.157 144.078 191.766 139.616C192.293 135.509 193.24 131.467 194.591 127.552C195.093 126.16 195.659 124.768 196.276 123.4C196.243 122.869 196.252 122.337 196.304 121.808C196.336 121.126 196.401 120.444 196.461 119.766C196.522 119.089 196.596 118.407 196.675 117.729C196.754 117.052 196.897 116.375 196.93 115.697C196.93 115.637 197.027 115.651 197.013 115.697C196.88 116.409 196.799 117.131 196.772 117.855C196.721 118.509 196.684 119.168 196.665 119.827C196.647 120.486 196.665 121.14 196.665 121.799C196.665 122.04 196.665 122.291 196.689 122.546C197.307 121.213 197.985 119.907 198.721 118.63C198.257 115.846 198.856 112.955 199.422 110.24C199.422 110.185 199.519 110.213 199.505 110.268C199.223 111.698 199.072 113.15 199.055 114.607C199.032 115.748 199.083 116.89 199.088 118.026C199.25 117.753 199.408 117.479 199.575 117.21C200.442 115.795 201.366 114.403 202.359 113.034C202.278 112.375 202.3 111.709 202.424 111.057C202.527 110.326 202.682 109.604 202.888 108.895C203.101 108.185 203.352 107.503 203.63 106.807C203.908 106.111 204.308 105.438 204.586 104.733C204.609 104.672 204.697 104.733 204.665 104.765C204.309 105.433 204.027 106.138 203.825 106.867C203.606 107.55 203.423 108.244 203.277 108.946C203.138 109.651 203.022 110.338 202.92 111.071C202.855 111.535 202.813 112.031 202.735 112.505C204.167 110.579 205.733 108.758 207.421 107.053C207.463 107.011 207.518 107.053 207.481 107.113C204.929 109.988 202.65 113.095 200.674 116.393C200.605 116.518 200.535 116.644 200.461 116.769C200.828 116.537 201.254 116.351 201.598 116.161C202.247 115.799 202.899 115.442 203.551 115.089C204.204 114.737 204.837 114.39 205.449 114.05C205.774 113.869 206.094 113.683 206.423 113.512C206.818 113.335 207.196 113.125 207.556 112.885C207.607 112.848 207.662 112.927 207.607 112.955C206.962 113.307 206.396 113.836 205.774 114.231C205.152 114.625 204.512 115.015 203.862 115.377C202.67 116.04 201.38 116.518 200.206 117.205C199.394 118.625 198.647 120.087 197.955 121.571C198.665 121.107 199.394 120.685 200.132 120.272C200.596 120.008 201.06 119.743 201.561 119.493C202.038 119.271 202.489 118.997 202.906 118.676C202.91 118.67 202.915 118.664 202.921 118.66C202.927 118.656 202.934 118.654 202.941 118.653C202.948 118.652 202.956 118.653 202.963 118.656C202.969 118.658 202.976 118.662 202.98 118.668C202.985 118.673 202.989 118.679 202.991 118.686C202.993 118.693 202.993 118.701 202.992 118.708C202.991 118.715 202.988 118.722 202.983 118.727C202.979 118.733 202.973 118.738 202.967 118.741C202.187 119.44 201.323 120.04 200.396 120.527C199.538 121.033 198.67 121.516 197.774 121.956C197.06 123.52 196.41 125.121 195.84 126.745C193.018 134.721 191.984 143.189 191.492 151.597C191.343 154.102 191.269 156.608 191.237 159.123C191.204 161.638 191.339 164.134 191.334 166.64C191.334 166.714 191.209 166.732 191.2 166.64C190.898 164.417 190.847 162.157 190.736 159.916C190.624 157.675 190.657 155.355 190.703 153.072Z" fill="#263238"/>
<path d="M202.869 116.965C204.091 116.42 205.278 115.8 206.423 115.109C207.586 114.454 208.714 113.738 209.801 112.965C209.801 112.965 209.843 112.965 209.801 112.993C208.773 113.824 207.687 114.582 206.553 115.262C205.367 115.925 204.142 116.513 202.883 117.025C202.86 117.062 202.818 116.988 202.869 116.965Z" fill="#263238"/>
<path d="M200.912 107.951C201.009 107.561 201.134 107.181 201.264 106.8C201.26 106.793 201.257 106.785 201.257 106.777C201.257 106.769 201.26 106.761 201.264 106.754C201.348 106.54 201.441 106.327 201.529 106.113C201.536 106.086 201.545 106.06 201.557 106.034C201.557 105.993 201.594 105.951 201.608 105.909C201.622 105.867 201.636 105.909 201.631 105.909C201.626 105.909 201.589 106.058 201.566 106.132C201.556 106.173 201.543 106.213 201.529 106.253C201.089 107.742 200.757 109.262 200.536 110.8C200.533 110.808 200.528 110.815 200.521 110.82C200.514 110.825 200.505 110.828 200.496 110.828C200.488 110.828 200.479 110.825 200.472 110.82C200.465 110.815 200.46 110.808 200.457 110.8C200.518 109.838 200.671 108.884 200.912 107.951Z" fill="#263238"/>
<path d="M183.637 154.691L184.115 160.352L185.576 177.618H201.236L202.698 160.352L203.176 154.691H183.637Z" fill="#455A64"/>
<path d="M183.637 154.691L184.115 160.352H202.698L203.176 154.691H183.637Z" fill="#263238"/>
<path d="M182.101 157.852H204.712V152.423H182.101V157.852Z" fill="#455A64"/>
<path d="M136.259 202.882C137.34 203.235 168.316 202.947 169.486 202.186C169.95 201.908 170.159 197.388 170.27 191.927V191.755C170.298 190.628 170.316 189.468 170.321 188.294C170.321 188.131 168.906 171.738 168.906 171.738L148.657 171.873L150.174 188.424L150.285 191.718V192.057C150.285 192.057 138.481 197.472 137.293 198.441C136.106 199.411 135.173 202.534 136.259 202.882Z" fill="#D3766A"/>
<path d="M170.2 194.762C170.07 198.877 169.857 201.958 169.485 202.186C168.316 202.942 137.34 203.234 136.254 202.877C135.168 202.52 136.096 199.406 137.289 198.441C137.753 198.065 139.794 197.049 142.128 195.899C140.912 197.216 140.3 198.683 143.553 198.683C149.334 198.678 159.421 197.727 170.2 194.762Z" fill="#263238"/>
<path d="M149.302 191.435H171.611C171.611 191.435 167.119 139.337 167.296 138.428C167.518 137.263 168.836 131.988 170.585 125.097C171.137 122.944 171.727 120.629 172.344 118.235C174.01 111.739 175.842 104.667 177.448 98.5054C179.847 89.2672 181.717 82.0938 181.717 82.0938H162.804C162.804 82.0938 160.6 89.0816 157.821 98.1667C153.297 112.936 147.251 133.264 146.657 138.205C145.696 146.163 149.302 191.435 149.302 191.435Z" fill="#37474F"/>
<path d="M150.29 187.631C153.701 187.561 152.722 187.533 156.127 187.501C157.793 187.501 168.753 187.389 170.307 187.645C170.314 187.647 170.321 187.652 170.325 187.658C170.329 187.664 170.332 187.672 170.332 187.679C170.332 187.687 170.329 187.694 170.325 187.701C170.321 187.707 170.314 187.712 170.307 187.714C168.753 187.974 157.779 187.877 156.127 187.863C152.722 187.83 153.701 187.802 150.29 187.733C150.23 187.728 150.23 187.631 150.29 187.631Z" fill="#263238"/>
<path d="M163.097 135.243C163.83 131.995 164.92 128.858 165.881 125.689C167.814 119.258 169.76 112.832 171.718 106.41C172.692 103.193 173.673 99.9806 174.659 96.7728C175.161 95.1534 175.657 93.5248 176.163 91.9147C176.669 90.3046 177.225 88.7595 177.675 87.1634C177.856 86.5138 177.954 86.871 177.722 87.697C177.258 89.3581 176.794 91.0238 176.302 92.685C175.343 95.9701 174.376 99.2552 173.402 102.54C171.466 109.077 169.515 115.607 167.551 122.13C166.567 125.406 165.582 128.679 164.595 131.949C164.099 133.505 163.696 135.09 163.389 136.695C163.127 138.376 163.062 140.081 163.194 141.776C163.407 145.191 163.802 148.597 164.122 151.984L165.05 162.22C165.669 169.025 166.287 175.817 166.906 182.594C166.983 183.454 167.056 184.316 167.124 185.179C167.124 185.466 166.943 185.499 166.915 185.22C166.178 178.506 165.384 171.713 164.753 164.99C164.122 158.267 163.496 151.608 162.874 144.913C162.716 143.233 162.535 141.549 162.535 139.86C162.549 138.305 162.738 136.756 163.097 135.243Z" fill="#263238"/>
<path d="M164.947 82.0938C166.26 92.2507 168.761 111.289 170.585 125.097C174.849 108.365 181.721 82.0938 181.721 82.0938H164.947Z" fill="#263238"/>
<path d="M160.303 202.882C161.389 203.235 192.365 202.947 193.534 202.186C193.998 201.908 194.207 197.388 194.319 191.927V191.755C194.346 190.628 194.365 189.468 194.37 188.294C194.37 188.131 194.37 187.969 194.37 187.807C194.439 179.919 193.873 171.738 193.873 171.738L173.624 171.873L174.19 187.793L174.213 188.424L174.325 191.718V192.057C174.325 192.057 162.521 197.472 161.333 198.441C160.145 199.411 159.217 202.534 160.303 202.882Z" fill="#D3766A"/>
<path d="M194.249 194.762C194.119 198.877 193.906 201.958 193.534 202.186C192.365 202.942 161.388 203.234 160.303 202.877C159.217 202.52 160.145 199.406 161.337 198.441C161.801 198.065 163.843 197.049 166.177 195.899C164.961 197.216 164.349 198.683 167.601 198.683C173.383 198.678 183.47 197.727 194.249 194.762Z" fill="#263238"/>
<path d="M163.412 82.0938C163.412 82.0938 163.848 91.1418 165.922 98.3059C166.085 98.8952 166.266 99.4798 166.461 100.037C168.357 100.797 170.18 101.729 171.908 102.821C171.908 102.821 172.126 110.096 172.344 118.216C172.585 127.287 172.836 137.407 172.785 139.56C172.595 147.592 173.792 191.751 173.792 191.751L196.092 191.839C196.092 191.839 192.059 142.539 192.097 139.597C192.143 134.869 191.02 113.971 190.152 98.7282C189.843 93.1419 189.147 87.5838 188.069 82.0938H163.412Z" fill="#37474F"/>
<path d="M174.552 187.796C177.963 187.741 176.984 187.708 180.39 187.69C182.055 187.69 193.015 187.629 194.569 187.894C194.576 187.896 194.583 187.901 194.587 187.907C194.591 187.913 194.594 187.921 194.594 187.928C194.594 187.936 194.591 187.943 194.587 187.95C194.583 187.956 194.576 187.961 194.569 187.963C193.01 188.218 182.041 188.075 180.39 188.051C176.979 188.005 177.958 187.982 174.552 187.894C174.542 187.89 174.533 187.884 174.527 187.875C174.52 187.866 174.517 187.856 174.517 187.845C174.517 187.834 174.52 187.823 174.527 187.815C174.533 187.806 174.542 187.799 174.552 187.796Z" fill="#263238"/>
<path d="M187.299 85.3269C187.712 97.7713 188.148 110.211 188.691 122.651C189.234 135.091 192.176 179.802 192.927 186.739C192.927 186.785 192.862 186.804 192.858 186.739C191.234 174.396 190.329 156.115 189.526 143.707C188.723 131.3 188.19 118.846 187.763 106.406C187.526 99.3721 187.341 92.3379 187.132 85.299C187.141 85.2201 187.299 85.2294 187.299 85.3269Z" fill="#263238"/>
<path d="M165.532 99.4958C167.75 100.422 169.883 101.539 171.907 102.837C171.92 102.847 171.929 102.862 171.933 102.879C171.937 102.895 171.935 102.913 171.927 102.928C171.919 102.943 171.907 102.955 171.891 102.962C171.876 102.969 171.858 102.971 171.842 102.967C169.689 101.923 167.494 100.916 165.402 99.7556C165.367 99.7384 165.341 99.7082 165.329 99.6717C165.317 99.6351 165.319 99.5952 165.337 99.5608C165.354 99.5263 165.384 99.5001 165.421 99.4879C165.457 99.4757 165.497 99.4786 165.532 99.4958Z" fill="#263238"/>
<path d="M165.407 91.8229C165.555 92.6163 165.746 93.4005 165.917 94.1893C166.089 94.9781 166.196 95.6834 166.381 96.4165C166.543 97.122 166.903 97.7662 167.421 98.2725C167.708 98.5416 168.028 98.7829 168.349 99.0288C168.516 99.1634 168.697 99.2887 168.868 99.4232C168.845 99.3211 168.826 99.2144 168.808 99.1077L168.655 98.2029C168.543 97.5347 168.437 96.8666 168.335 96.1984C168.13 94.8853 167.945 93.5536 167.671 92.2498C167.671 92.2387 167.676 92.2281 167.683 92.2202C167.691 92.2124 167.702 92.208 167.713 92.208C167.724 92.208 167.735 92.2124 167.742 92.2202C167.75 92.2281 167.755 92.2387 167.755 92.2498C168.079 93.5397 168.441 94.8157 168.729 96.1195C168.868 96.7552 169.369 99.9058 169.393 100.128C169.416 100.351 169.434 100.592 169.439 100.824C169.471 101.058 169.471 101.296 169.439 101.53C169.439 101.59 169.36 101.581 169.332 101.53C169.236 101.31 169.168 101.079 169.128 100.843C169.072 100.62 169.021 100.379 168.98 100.161C168.98 100.077 168.956 99.9939 168.942 99.9104C168.632 99.7202 168.344 99.4742 168.056 99.2608C167.769 99.0474 167.421 98.7968 167.128 98.5648C166.58 98.1041 166.185 97.4875 165.996 96.797C165.805 96.0547 165.681 95.297 165.625 94.5326C165.523 93.6371 165.449 92.737 165.328 91.8461C165.319 91.7904 165.398 91.7719 165.407 91.8229Z" fill="#263238"/>
<path d="M177.768 33.457C181.058 35.7028 182.7 40.1062 182.7 40.1062C182.7 40.1062 186.217 44.194 185.948 46.8156C185.879 47.558 185.632 48.2729 185.228 48.8997C184.825 49.5264 184.276 50.0466 183.628 50.4163V48.9918C183.628 48.9918 183.067 50.9267 180.213 52.1934C177.36 53.4601 173.253 53.2745 170.998 52.6156C169.667 52.2318 168.457 51.511 167.486 50.523L168.627 52.379C167.635 52.4514 166.641 52.2774 165.733 51.8727C164.824 51.4679 164.03 50.8448 163.421 50.059C161.129 47.275 165.249 41.9483 165.49 40.9182C165.732 39.8881 164.971 32.8353 172.511 32.6775C172.506 32.6729 175.499 31.9073 177.768 33.457Z" fill="#A6A6A6"/>
<path d="M184.64 50.0383C185.391 49.4219 185.936 48.5893 186.199 47.6533C186.499 46.7326 186.483 45.7379 186.152 44.8275C185.676 43.7756 185.016 42.8171 184.203 41.9971C183.424 41.1109 182.575 40.2757 181.809 39.3709C181.767 39.3198 181.842 39.2595 181.888 39.2966C182.68 39.9375 183.435 40.6238 184.148 41.3522C184.869 42.0053 185.513 42.7403 186.064 43.5422C186.567 44.2799 186.849 45.1461 186.876 46.0386C186.863 46.771 186.672 47.4892 186.319 48.1312C185.86 48.8616 185.306 49.5279 184.672 50.1125C184.672 50.1125 184.598 50.0707 184.64 50.0383Z" fill="#A6A6A6"/>
<path d="M162.209 46.9946C162.613 44.2709 164.613 42.22 165.597 39.7284C166.13 38.3828 166.469 36.9444 167.262 35.7008C167.262 35.6684 167.341 35.7008 167.318 35.738C166.687 36.833 166.427 38.058 166.042 39.2458C165.621 40.4448 165.08 41.5982 164.427 42.6887C163.3 44.6932 161.945 47.0735 162.734 49.4445C163.096 50.5396 163.986 51.6578 165.202 51.797C165.208 51.7949 165.214 51.7942 165.22 51.795C165.226 51.7957 165.231 51.7979 165.236 51.8013C165.241 51.8047 165.245 51.8093 165.248 51.8146C165.251 51.8199 165.252 51.8258 165.252 51.8318C165.252 51.8378 165.251 51.8437 165.248 51.849C165.245 51.8543 165.241 51.8589 165.236 51.8623C165.231 51.8657 165.226 51.8679 165.22 51.8686C165.214 51.8694 165.208 51.8687 165.202 51.8666C164.714 51.7698 164.251 51.5742 163.842 51.2917C163.433 51.0092 163.085 50.6458 162.822 50.224C162.234 49.2571 162.016 48.1097 162.209 46.9946Z" fill="#A6A6A6"/>
<path d="M162.233 47.7059C161.974 46.751 162.018 45.7395 162.358 44.8105C162.762 43.9232 163.35 43.1322 164.084 42.4905C164.887 41.711 165.745 40.9547 166.144 39.8829C166.144 39.8365 166.228 39.8829 166.214 39.9153C165.587 41.6739 163.973 42.7457 163.035 44.3001C161.964 46.0819 162.377 48.3138 163.634 49.8681C164.424 50.824 165.429 51.5792 166.566 52.0722C166.566 52.0722 166.566 52.1093 166.566 52.1C164.613 51.288 162.771 49.831 162.233 47.7059Z" fill="#A6A6A6"/>
<path d="M170.895 61.6408C168.78 66.8887 160.381 83.8479 154.869 85.045C151.264 85.8431 136.62 84.414 134.096 80.9525C133.001 79.4445 134.857 68.9349 136.805 69.3525C138.754 69.7701 150.484 71.3199 151.922 70.8976C153.361 70.4754 164.158 58.0541 168.19 54.9685C175.146 49.6511 172.032 58.8151 170.895 61.6408Z" fill="#D3766A"/>
<path d="M141.238 68.59L140.927 84.3892C140.927 84.3892 152.527 86.505 157.473 84.5887C163.505 82.2687 171.732 63.0684 172.841 59.9225C174.664 54.7582 173.996 51.6911 171.184 52.5495C170.089 52.8743 168.669 53.793 166.948 55.4263C165.143 57.1246 154.833 68.1028 151.529 70.2279C149.682 71.4158 141.238 68.59 141.238 68.59Z" fill="#EBEBEB"/>
<path d="M143.863 83.7213C143.979 81.4013 144.104 71.8243 143.988 69.7549C143.988 69.611 143.891 69.5832 143.877 69.7317C143.362 76.7149 143.765 81.4198 143.77 83.712C143.77 83.7723 143.84 83.7816 143.863 83.7213Z" fill="#263238"/>
<path d="M145.836 85.0671C149.604 85.4615 154.652 85.6889 157.478 84.6031C163.51 82.2831 171.732 63.0828 172.841 59.9369C174.664 54.7726 173.996 51.7102 171.184 52.5639C171.096 52.5639 171.008 52.6196 170.92 52.6521L145.836 85.0671Z" fill="#A6A6A6"/>
<path d="M162.089 74.9195L159.881 90.0831C159.881 90.0831 184.593 90.4496 190.732 90.0181C190.732 90.0181 185.726 61.6677 179.132 54.5035C175.829 50.9215 171.959 51.1906 169.49 53.6962C168.864 54.3272 161.407 64.1826 160.623 67.9456C159.941 71.2632 162.089 74.9195 162.089 74.9195Z" fill="#E1E0EB"/>
<path d="M176.395 52.4062C176.395 52.4062 174.251 133.838 176.293 137.341C177.536 139.476 198.124 134.363 198.124 134.363C198.124 134.363 192.802 86.1066 186.691 68.9386C181.021 53.0141 176.395 52.4062 176.395 52.4062Z" fill="#EBEBEB"/>
<path d="M191.744 101.008C189.66 101.296 187.56 101.46 185.457 101.5C182.515 101.5 179.592 101.212 178.752 101.198C178.673 101.198 178.636 101.449 178.687 101.453C180.916 101.722 183.156 101.876 185.401 101.917C187.456 101.903 189.505 101.709 191.526 101.337C191.526 101.959 191.526 102.446 191.526 103.068C189.452 103.472 185.447 104.163 178.998 103.332C178.974 103.073 178.998 101.685 178.956 101.305C178.956 101.244 178.71 101.235 178.696 101.305C178.645 101.681 178.492 105.017 178.487 105.69C178.487 107.36 178.589 112.079 179.002 112.993C179.93 115.062 183.972 115.067 185.09 115.076C186.208 115.086 189.8 115.197 191.122 113.879C191.841 113.179 191.999 109.355 191.892 105.991C191.841 104.4 191.841 101.036 191.744 101.008ZM185.387 114.682C181.823 114.682 180.283 113.939 179.726 113.197C179.086 112.329 179.03 110.821 178.984 109.156C178.947 107.847 178.984 103.745 178.984 103.662C181.063 104.084 186.538 104.655 191.512 103.495C191.512 105.439 191.512 106.993 191.512 108.938C191.512 110.33 191.424 112.705 190.714 113.527C190.134 114.213 187.962 114.682 185.387 114.682Z" fill="#A6A6A6"/>
<path d="M160.248 135.82C159.055 136.404 147.479 129.574 147.479 129.574L161.937 74.6412C160.721 72.6569 160.248 70.3062 160.6 68.006C161.241 64.294 168.99 53.5756 170.238 53.0234C168.945 58.5609 168.047 64.1833 167.551 69.8481C165.421 93.0295 161.431 135.23 160.248 135.82Z" fill="#EBEBEB"/>
<path d="M163.059 62.9983C163.746 61.8986 164.451 60.8082 165.133 59.7039C165.133 59.6714 165.105 59.6343 165.082 59.6621C164.392 60.5716 163.713 61.4887 163.045 62.4136C163.268 61.9218 163.481 61.4207 163.681 60.9196C163.704 60.8592 163.625 60.8129 163.597 60.8732C163.291 61.5228 163.013 62.1817 162.739 62.8452C162.143 63.6719 161.616 64.5456 161.161 65.4575C160.166 67.3507 159.87 69.5343 160.326 71.6241C160.465 72.2072 160.67 72.7724 160.938 73.3084C161.124 73.6749 161.718 74.4684 161.713 74.4916C161.328 76.6538 161.036 78.8393 160.73 81.0154C160.423 83.1916 160.465 85.9941 160.641 84.9084C160.989 82.7183 161.305 80.5236 161.621 78.3288C161.802 77.0853 161.996 75.8418 162.14 74.6168C161.933 74.1467 161.694 73.6909 161.426 73.2527C161.202 72.7935 161.021 72.3152 160.883 71.8236C160.597 70.8279 160.509 69.786 160.623 68.7565C160.864 66.6314 161.936 64.7569 163.059 62.9983Z" fill="#263238"/>
<path d="M170.2 53.2656C169.472 54.3699 168.734 55.4603 167.982 56.5461C167.23 57.6319 166.483 58.7223 165.713 59.7941V59.5389L167.569 61.4784L167.722 61.6408L167.56 61.7986C166.78 62.5549 165.987 63.2927 165.193 64.0397L165.263 63.8448C165.546 65.854 165.857 67.8631 166.112 69.8768C166.367 71.8906 166.636 73.9044 166.859 75.9088C166.479 73.9136 166.126 71.9092 165.792 69.9093C165.458 67.9095 165.142 65.8957 164.822 63.8773V63.766L164.906 63.6824C165.685 62.9308 166.469 62.1791 167.263 61.4367V61.7568L165.444 59.7802L165.333 59.6596L165.43 59.525C166.205 58.4624 167.017 57.4184 167.81 56.3651C168.604 55.3119 169.36 54.2911 170.2 53.2656Z" fill="#A6A6A6"/>
<path d="M183.1 57.2724C192.844 66.3946 204.263 82.2031 200.226 86.0775C197.549 88.6527 184.107 71.4661 184.343 71.5125C184.849 71.6053 181.935 65.8935 178.362 58.9845C174.376 51.2589 177.541 52.057 183.1 57.2724Z" fill="#D3766A"/>
<path d="M178.357 53.2901C185.127 56.6449 203.756 78.3461 201.32 85.0416C198.884 91.7372 183.503 71.6089 183.661 71.3165C183.818 71.0242 179.911 63.3868 178.325 60.278C176.738 57.1692 174.752 51.5037 178.357 53.2901Z" fill="#EBEBEB"/>
<path d="M179.276 63.9073C179.652 64.3017 180.018 64.7007 180.371 65.1137C180.436 65.1879 180.496 65.2714 180.557 65.3457C180.454 65.1276 180.348 64.9095 180.241 64.6914C179.837 63.9383 179.475 63.1638 179.155 62.3714C179.155 62.3343 179.197 62.3111 179.22 62.3436C179.7 63.0926 180.138 63.8671 180.533 64.6636C180.946 65.4292 181.369 66.1948 181.768 66.9836C182.167 67.7724 182.575 68.5333 182.96 69.3036C183.367 70.0632 183.719 70.8509 184.013 71.6607C184.013 71.7071 183.962 71.7303 183.934 71.6932C183.43 70.9538 182.98 70.1784 182.589 69.3732C182.181 68.5983 181.791 67.8188 181.396 67.0532C181.229 66.7284 181.067 66.3989 180.909 66.0695L180.719 65.8561C180.543 65.6565 180.376 65.4524 180.213 65.2436C179.879 64.8167 179.564 64.3759 179.253 63.9305C179.243 63.9119 179.267 63.8933 179.276 63.9073Z" fill="#263238"/>
<path d="M176.432 53.332C176.936 54.5199 177.456 55.6984 177.991 56.8677C178.525 58.037 179.045 59.2156 179.597 60.3756L179.648 60.125L177.685 61.8047L177.523 61.9439L177.648 62.1202C178.251 62.9693 178.873 63.8045 179.504 64.6444L179.471 64.4448C178.929 66.3983 178.362 68.3471 177.847 70.3098C177.332 72.2725 176.785 74.2399 176.293 76.198C176.924 74.2724 177.523 72.3375 178.112 70.398C178.701 68.4584 179.267 66.5096 179.843 64.5655L179.875 64.4588L179.81 64.366C179.202 63.5215 178.599 62.6724 177.977 61.8372L177.945 62.1527L179.875 60.4359L179.996 60.3292L179.926 60.1853C179.369 59.03 178.78 57.8932 178.205 56.7424C177.629 55.5917 177.035 54.4642 176.432 53.332Z" fill="#A6A6A6"/>
<path d="M177.434 55.2179C177.592 52.7912 175.611 51.9282 173.792 51.6823C171.634 51.3899 170.2 51.5709 169.152 53.6635C168.061 55.8675 167.495 58.4242 167.068 60.837C167.054 60.9299 167.002 61.0131 166.926 61.0684C166.85 61.1236 166.755 61.1464 166.662 61.1316C166.569 61.1168 166.486 61.0658 166.431 60.9896C166.376 60.9135 166.353 60.8185 166.368 60.7256C166.855 57.9416 167.556 52.7587 170.321 51.2461C172.868 49.8541 178.39 51.2183 178.116 55.3339C178.084 55.7979 177.383 55.6726 177.416 55.2179H177.434Z" fill="#455A64"/>
<path d="M164.91 61.8374C164.859 62.157 164.904 62.4847 165.039 62.7789C165.174 63.0732 165.393 63.3206 165.669 63.4898C165.945 63.6591 166.265 63.7425 166.589 63.7295C166.912 63.7164 167.224 63.6076 167.486 63.4167C167.747 63.2258 167.946 62.9615 168.057 62.6574C168.168 62.3532 168.186 62.023 168.109 61.7086C168.032 61.3941 167.863 61.1097 167.624 60.8914C167.385 60.6731 167.087 60.5308 166.767 60.4825C166.341 60.4196 165.908 60.5264 165.561 60.7798C165.214 61.0333 164.98 61.4131 164.91 61.8374Z" fill="#263238"/>
<path d="M165.555 61.9423C165.525 62.1346 165.552 62.3317 165.633 62.5086C165.714 62.6855 165.846 62.8343 166.012 62.9361C166.178 63.0379 166.371 63.0882 166.565 63.0806C166.76 63.0729 166.948 63.0077 167.105 62.8932C167.263 62.7787 167.383 62.62 167.45 62.4372C167.517 62.2545 167.529 62.0559 167.483 61.8666C167.437 61.6773 167.336 61.5059 167.193 61.374C167.05 61.2421 166.871 61.1557 166.678 61.1257C166.551 61.1052 166.421 61.1101 166.295 61.1401C166.17 61.1701 166.051 61.2246 165.947 61.3005C165.843 61.3764 165.754 61.4722 165.687 61.5823C165.62 61.6925 165.575 61.8148 165.555 61.9423Z" fill="#EBEBEB"/>
<path d="M174.975 62.8164C173.193 69.6465 173.471 71.3122 174.047 72.0964C174.475 72.6427 175.023 73.0839 175.648 73.3863L175.856 72.9223L175.754 73.145L175.856 72.9223C175.314 72.6529 174.839 72.2662 174.464 71.7902C174.056 71.2241 173.713 69.6882 175.48 62.9278L174.975 62.8164Z" fill="#C7C7C7"/>
<path d="M175.093 72.7824L175.08 72.8067C174.942 73.0559 175.033 73.3691 175.282 73.5064L175.884 73.8379C176.133 73.9752 176.446 73.8845 176.583 73.6354L176.597 73.611C176.734 73.3619 176.643 73.0486 176.394 72.9113L175.793 72.5799C175.544 72.4426 175.23 72.5332 175.093 72.7824Z" fill="#263238"/>
<path d="M179.434 62.9793C180.794 68.1204 181.128 70.9369 180.478 71.8371C180.105 72.3152 179.629 72.7037 179.086 72.9739L179.295 73.4379C179.919 73.1346 180.465 72.6917 180.891 72.1433C181.666 71.0668 181.387 68.3802 179.926 62.8633L179.434 62.9793Z" fill="#C7C7C7"/>
<path d="M178.333 73.6434C178.301 73.5843 178.28 73.5193 178.272 73.4521C178.264 73.3849 178.27 73.3169 178.288 73.2518C178.307 73.1868 178.338 73.126 178.38 73.0731C178.422 73.0201 178.474 72.9759 178.533 72.943L179.13 72.6116C179.25 72.5447 179.392 72.5283 179.525 72.5661C179.657 72.6039 179.769 72.6929 179.836 72.8133C179.869 72.8725 179.89 72.9375 179.898 73.0047C179.905 73.0718 179.9 73.1399 179.881 73.2049C179.863 73.27 179.832 73.3307 179.79 73.3837C179.748 73.4367 179.695 73.4809 179.636 73.5137L179.032 73.8497C178.973 73.882 178.907 73.9023 178.84 73.9094C178.773 73.9166 178.705 73.9104 178.64 73.8912C178.575 73.8721 178.515 73.8403 178.462 73.7978C178.409 73.7553 178.366 73.7028 178.333 73.6434Z" fill="#263238"/>
<path d="M180.078 62.642C179.854 61.5027 179.556 60.3791 179.187 59.278C178.972 58.7906 178.629 58.3705 178.195 58.0623C178.097 58.0623 178.139 57.1854 178.195 56.4801C178.241 55.8537 178.306 55.1298 178.153 54.9257C178.066 54.8344 177.947 54.78 177.821 54.774C177.694 54.768 177.571 54.8106 177.475 54.8932C177.304 55.0788 177.294 55.8212 177.276 56.4337C177.253 57.1436 177.206 58.0066 177.109 58.0066C176.671 58.2927 176.309 58.6793 176.051 59.1342C175.574 60.222 175.181 61.3451 174.877 62.4935C174.719 63.2266 174.96 63.3148 175.169 63.3844C175.466 63.4865 175.633 63.2823 175.884 62.4564C176.25 61.1711 176.714 59.0135 177.605 59.0182C178.491 59.1063 178.853 61.3892 179.141 62.6652C179.322 63.4633 179.489 63.5375 179.795 63.4679C179.999 63.4401 180.222 63.3473 180.078 62.642Z" fill="#263238"/>
<path d="M171.653 63.4832C171.653 63.4832 173.369 60.9126 171.518 59.8825C169.667 58.8524 168.391 61.6736 168.391 61.6736L171.653 63.4832Z" fill="#455A64"/>
<path d="M157.881 80.5709L157.802 83.5962L157.77 84.5984L158.609 84.0509L161.143 82.3851L171.713 63.3611L168.465 61.5469L157.895 80.5709H157.881Z" fill="#455A64"/>
<path d="M157.802 83.6016L157.774 84.5992L158.614 84.0516L157.802 83.6016Z" fill="#37474F"/>
<path d="M167.823 62.0582L171.631 64.1758L172.05 63.4215L168.243 61.3039L167.823 62.0582Z" fill="#263238"/>
<path d="M167.354 62.898L171.162 65.0156L171.582 64.2614L167.774 62.1437L167.354 62.898Z" fill="#263238"/>
<path d="M171.156 65.018L169.931 64.3359L166.78 71.5883L167.249 71.8156L171.156 65.018Z" fill="#263238"/>
<path d="M200.225 86.0771C196.564 89.6406 181.957 87.729 172.645 84.9403C170.872 84.4067 176.598 68.6446 178.422 69.4056C180.35 70.2287 182.327 70.9322 184.342 71.5121C184.848 71.6049 204.239 82.1795 200.225 86.0771Z" fill="#D3766A"/>
<path d="M156.401 70.0649C156.54 71.8328 160.865 71.1321 160.865 71.1321C160.263 71.602 159.845 72.269 159.686 73.016C159.463 74.343 161.449 75.271 161.449 75.271C160.928 75.8903 160.605 76.6516 160.521 77.4564C160.438 78.751 162.308 79.976 162.308 79.976C162.143 80.809 162.283 81.6734 162.702 82.412C163.899 84.3376 167.384 84.0963 169.574 84.3747C172.018 84.7351 174.43 85.2922 176.785 86.0404L179.485 69.8515C179.485 69.8515 169.709 65.0769 167.11 65.4156C164.943 65.6987 156.197 67.3644 156.401 70.0649Z" fill="#D3766A"/>
<path d="M160.896 71.0749C163.151 70.2165 165.601 69.8963 167.977 69.6133C167.988 69.6133 167.999 69.6177 168.006 69.6255C168.014 69.6333 168.019 69.644 168.019 69.655C168.019 69.6661 168.014 69.6767 168.006 69.6846C167.999 69.6924 167.988 69.6968 167.977 69.6968C165.615 69.952 163.267 70.8382 160.919 71.1862C160.907 71.1846 160.896 71.1791 160.886 71.1706C160.877 71.1621 160.871 71.151 160.868 71.1388C160.866 71.1265 160.867 71.1138 160.872 71.1024C160.877 71.091 160.886 71.0813 160.896 71.0749Z" fill="#263238"/>
<path d="M161.495 75.0912C162.026 74.9436 162.573 74.8672 163.124 74.8638C163.704 74.8267 164.289 74.7942 164.869 74.7756C166.033 74.7339 167.189 74.72 168.367 74.7385C168.418 74.7385 168.432 74.8174 168.367 74.8221C167.207 74.8638 166.047 74.9241 164.887 75.0169L163.147 75.17C162.604 75.2564 162.053 75.2829 161.505 75.2489C161.488 75.2443 161.473 75.2345 161.462 75.2209C161.451 75.2074 161.445 75.1907 161.444 75.1734C161.442 75.156 161.447 75.1387 161.456 75.124C161.465 75.1092 161.479 75.0978 161.495 75.0912Z" fill="#263238"/>
<path d="M162.354 79.9691C162.835 79.8451 163.334 79.8043 163.83 79.8484L165.421 79.816C166.484 79.7881 167.546 79.7603 168.609 79.6953C168.66 79.6953 168.669 79.7742 168.609 79.7788C167.532 79.8484 166.456 79.932 165.361 79.9969L163.774 80.0758C163.292 80.1449 162.802 80.1276 162.326 80.0248C162.326 80.0155 162.331 79.9784 162.354 79.9691Z" fill="#263238"/>
<path d="M201.32 85.0427C198.884 91.7243 177.577 86.5971 177.577 86.5971L177.791 69.0625C177.791 69.0625 183.502 71.6099 183.66 71.3175C183.818 71.0252 203.756 78.3657 201.32 85.0427Z" fill="#EBEBEB"/>
<path d="M180.677 85.7937C180.831 83.4737 181.095 74.0128 181.011 71.9619C181.011 71.8181 180.914 71.7902 180.9 71.9387C180.288 78.8476 180.617 83.5108 180.589 85.7844C180.589 85.8401 180.677 85.8401 180.677 85.7937Z" fill="#263238"/>
<path d="M177.916 69.0637C178.539 69.2325 179.148 69.4465 179.739 69.704C180.273 69.9128 180.807 70.1216 181.336 70.3397C182.491 70.8037 183.656 71.3048 184.774 71.8106C185.892 72.3163 187.047 72.8267 188.17 73.3603C189.293 73.8939 190.388 74.4925 191.511 75.0261C191.562 75.0493 191.511 75.1235 191.469 75.1003C190.328 74.5853 189.149 74.1723 188.003 73.6619L184.621 72.2328L181.234 70.8083C180.681 70.5763 180.134 70.3443 179.582 70.0984C178.979 69.8701 178.393 69.6003 177.828 69.2911C177.805 69.2751 177.787 69.2517 177.779 69.2247C177.771 69.1978 177.772 69.1688 177.782 69.1425C177.792 69.1162 177.811 69.0941 177.835 69.0798C177.86 69.0655 177.888 69.0598 177.916 69.0637Z" fill="#263238"/>
<path d="M177.504 86.2206C177.504 86.1046 177.564 86.0722 177.592 86.2206C177.62 86.3691 177.629 86.4109 177.647 86.4758C178.371 86.6011 181.011 87.1486 181.656 87.2739C183.011 87.543 184.348 87.8725 185.716 88.0442C187.618 88.2856 189.531 88.4234 191.447 88.4571C191.458 88.4571 191.469 88.4615 191.476 88.4694C191.484 88.4772 191.489 88.4878 191.489 88.4989C191.489 88.51 191.484 88.5206 191.476 88.5284C191.469 88.5363 191.458 88.5407 191.447 88.5407C189.529 88.5976 187.61 88.5449 185.698 88.3829C184.306 88.2205 182.914 87.9978 181.55 87.7147C180.863 87.5755 180.181 87.4131 179.499 87.2507C178.84 87.1211 178.195 86.9268 177.573 86.6707C177.551 86.6583 177.532 86.6402 177.519 86.6182C177.506 86.5961 177.499 86.571 177.499 86.5454L177.504 86.2206Z" fill="#263238"/>
<path d="M143.59 86.0053L161.96 86.3951L153.886 62.6476L135.517 62.2578L143.59 86.0053Z" fill="white"/>
<path d="M142.332 85.978L160.697 86.3678L152.629 62.6249L134.259 62.2305L142.332 85.978Z" fill="#37474F"/>
<path d="M150.675 62.5816C150.791 62.9948 151.066 63.3452 151.44 63.556C151.616 63.6535 151.668 63.4261 151.496 63.3333C151.257 63.196 151.073 62.9793 150.976 62.7208C150.976 62.6744 150.944 62.628 150.934 62.5863C150.893 62.4344 150.893 62.2742 150.934 62.1223C150.953 62.0598 150.99 62.0046 151.041 61.9645H151.064H151.097C151.139 61.9507 151.185 61.9507 151.227 61.9645C151.306 61.9936 151.378 62.0414 151.436 62.1037C151.507 62.1779 151.566 62.2623 151.612 62.3543C151.641 62.3975 151.667 62.4424 151.691 62.4888V62.5213C151.7 62.5358 151.708 62.5514 151.714 62.5677C151.716 62.5784 151.716 62.5894 151.714 62.6002H151.974C151.917 62.4353 151.837 62.2791 151.737 62.1362C151.661 62.0139 151.559 61.9092 151.439 61.8292C151.319 61.7492 151.183 61.6957 151.041 61.6722C150.938 61.6682 150.837 61.704 150.759 61.7722C150.682 61.8404 150.633 61.9358 150.624 62.0387C150.592 62.221 150.61 62.4084 150.675 62.5816Z" fill="#C7C7C7"/>
<path d="M149.237 62.5498C149.353 62.9643 149.628 63.3162 150.002 63.5289C150.179 63.6263 150.23 63.3989 150.058 63.3061C149.82 63.1645 149.637 62.9471 149.538 62.689C149.538 62.6473 149.506 62.6009 149.496 62.5591C149.455 62.4072 149.455 62.247 149.496 62.0951C149.51 62.032 149.547 61.976 149.599 61.9373H149.631C149.673 61.9235 149.719 61.9235 149.761 61.9373C149.841 61.9665 149.912 62.0142 149.97 62.0765C150.04 62.1516 150.099 62.2359 150.146 62.3271C150.175 62.3703 150.201 62.4152 150.225 62.4617V62.4941C150.235 62.5081 150.243 62.5238 150.248 62.5405C150.248 62.5405 150.248 62.5637 150.248 62.573H150.508C150.45 62.4084 150.371 62.2524 150.271 62.109C150.196 61.9855 150.095 61.8799 149.975 61.7998C149.855 61.7196 149.718 61.6668 149.575 61.645C149.472 61.6399 149.37 61.6752 149.292 61.7437C149.214 61.8121 149.166 61.9082 149.158 62.0116C149.138 62.1948 149.165 62.3801 149.237 62.5498Z" fill="#C7C7C7"/>
<path d="M147.798 62.5225C147.918 62.9356 148.194 63.2854 148.569 63.4969C148.74 63.5943 148.791 63.367 148.62 63.2742C148.381 63.1336 148.198 62.9159 148.1 62.6571C148.1 62.6153 148.072 62.5689 148.063 62.5271C148.019 62.3756 148.019 62.2147 148.063 62.0631C148.079 61.9998 148.117 61.944 148.169 61.9054H148.193H148.23C148.271 61.8941 148.314 61.8941 148.355 61.9054C148.436 61.9352 148.507 61.9846 148.564 62.0492C148.635 62.1214 148.695 62.2044 148.74 62.2951C148.771 62.3389 148.797 62.3855 148.819 62.4343V62.4668C148.822 62.4822 148.822 62.4979 148.819 62.5132C148.819 62.5132 148.819 62.5132 148.819 62.5457H149.084C149.023 62.3815 148.942 62.2256 148.842 62.0817C148.767 61.9588 148.665 61.8537 148.545 61.7736C148.425 61.6935 148.289 61.6403 148.146 61.6177C148.043 61.6125 147.941 61.6479 147.863 61.7163C147.785 61.7848 147.737 61.8809 147.729 61.9842C147.707 62.1667 147.731 62.3517 147.798 62.5225Z" fill="#C7C7C7"/>
<path d="M146.364 62.4885C146.48 62.9032 146.755 63.2552 147.13 63.4675C147.302 63.5649 147.353 63.3329 147.181 63.2448C146.945 63.1017 146.762 62.8849 146.661 62.6277C146.661 62.5859 146.633 62.5349 146.624 62.4931C146.579 62.3417 146.579 62.1805 146.624 62.0291C146.639 61.9639 146.677 61.9063 146.731 61.8667H146.754H146.791C146.832 61.8533 146.876 61.8533 146.916 61.8667C146.997 61.893 147.07 61.9412 147.125 62.0059C147.198 62.08 147.259 62.1644 147.306 62.2565C147.334 62.2997 147.358 62.3447 147.38 62.391V62.4235C147.382 62.4389 147.382 62.4545 147.38 62.4699C147.38 62.4699 147.38 62.4699 147.38 62.5024H147.64C147.582 62.3373 147.5 62.1812 147.399 62.0384C147.323 61.9157 147.222 61.8107 147.101 61.7307C146.981 61.6506 146.845 61.5973 146.703 61.5744C146.6 61.5715 146.5 61.6077 146.422 61.6757C146.345 61.7437 146.296 61.8384 146.285 61.9409C146.262 62.1272 146.289 62.3163 146.364 62.4885Z" fill="#C7C7C7"/>
<path d="M144.926 62.4607C145.042 62.8742 145.317 63.2247 145.691 63.4351C145.863 63.5326 145.914 63.3052 145.747 63.2124C145.512 63.0694 145.331 62.8523 145.232 62.5953C145.232 62.5535 145.204 62.5071 145.195 62.4654C145.154 62.3135 145.154 62.1533 145.195 62.0014C145.209 61.937 145.247 61.8805 145.302 61.8436H145.339C145.381 61.8326 145.426 61.8326 145.469 61.8436C145.547 61.8734 145.617 61.9211 145.673 61.9828C145.743 62.0586 145.804 62.1428 145.854 62.2334C145.882 62.2751 145.905 62.3215 145.933 62.3726V62.4004C145.935 62.4174 145.935 62.4345 145.933 62.4515C145.933 62.4515 145.933 62.4515 145.933 62.4793H146.193C146.134 62.3143 146.053 62.1581 145.951 62.0153C145.878 61.8915 145.778 61.7856 145.658 61.7053C145.538 61.6251 145.402 61.5724 145.26 61.5513C145.156 61.5461 145.054 61.5813 144.975 61.6496C144.896 61.718 144.847 61.8141 144.838 61.9179C144.818 62.1034 144.849 62.2908 144.926 62.4607Z" fill="#C7C7C7"/>
<path d="M143.488 62.4254C143.604 62.8386 143.879 63.189 144.253 63.3998C144.425 63.4972 144.481 63.2699 144.309 63.1771C144.069 63.038 143.885 62.8198 143.789 62.5599C143.789 62.5182 143.757 62.4718 143.747 62.43C143.706 62.2781 143.706 62.1179 143.747 61.966C143.766 61.9036 143.803 61.8484 143.854 61.8083H143.877H143.91C143.952 61.7948 143.997 61.7948 144.04 61.8083C144.121 61.8346 144.193 61.8828 144.249 61.9475C144.318 62.0209 144.378 62.1036 144.425 62.1934L144.504 62.3326V62.3651L144.527 62.4115C144.527 62.4115 144.527 62.4115 144.527 62.4439H144.787C144.73 62.279 144.65 62.1229 144.55 61.9799C144.474 61.8576 144.372 61.753 144.252 61.673C144.132 61.593 143.996 61.5395 143.854 61.5159C143.75 61.5119 143.649 61.5475 143.57 61.6156C143.492 61.6837 143.442 61.7792 143.432 61.8825C143.405 62.0653 143.424 62.2519 143.488 62.4254Z" fill="#C7C7C7"/>
<path d="M142.049 62.3943C142.165 62.8088 142.44 63.1607 142.815 63.3734C142.991 63.4708 143.042 63.2434 142.87 63.1506C142.632 63.0104 142.448 62.7926 142.351 62.5335C142.351 62.4918 142.318 62.4454 142.309 62.4036C142.267 62.2517 142.267 62.0915 142.309 61.9396C142.326 61.8753 142.363 61.8183 142.416 61.7772H142.439H142.448C142.49 61.7634 142.536 61.7634 142.578 61.7772C142.658 61.8063 142.729 61.8541 142.787 61.9164C142.858 61.9906 142.917 62.075 142.963 62.167C142.992 62.2102 143.018 62.2551 143.042 62.3015V62.334C143.051 62.349 143.058 62.3645 143.065 62.3804C143.067 62.3912 143.067 62.4021 143.065 62.4129H143.376C143.318 62.2484 143.238 62.0924 143.139 61.9489C143.064 61.8258 142.963 61.7205 142.842 61.6404C142.722 61.5603 142.586 61.5072 142.443 61.4849C142.34 61.4797 142.238 61.5151 142.16 61.5835C142.082 61.652 142.034 61.748 142.026 61.8514C141.985 62.0312 141.993 62.2187 142.049 62.3943Z" fill="#C7C7C7"/>
<path d="M140.592 62.3662C140.71 62.78 140.987 63.1303 141.362 63.3406C141.534 63.4381 141.585 63.2107 141.413 63.1179C141.175 62.9773 140.991 62.7596 140.893 62.5008C140.893 62.459 140.861 62.4126 140.852 62.3709C140.81 62.219 140.81 62.0587 140.852 61.9069C140.868 61.8448 140.904 61.7895 140.954 61.7491C140.954 61.7491 140.954 61.7491 140.977 61.7491H141.009C141.052 61.7377 141.097 61.7377 141.139 61.7491C141.219 61.7801 141.291 61.8293 141.348 61.8929C141.418 61.9664 141.477 62.0491 141.524 62.1389C141.553 62.1837 141.58 62.2301 141.603 62.2781V62.3105C141.615 62.3233 141.624 62.3395 141.626 62.3569C141.626 62.3569 141.626 62.3569 141.626 62.3894H141.886C141.829 62.2245 141.75 62.0684 141.65 61.9254C141.575 61.8019 141.473 61.6963 141.353 61.6162C141.233 61.536 141.097 61.4832 140.954 61.4614C140.85 61.4563 140.748 61.4917 140.671 61.5601C140.593 61.6285 140.544 61.7246 140.536 61.828C140.509 62.0092 140.529 62.1943 140.592 62.3662Z" fill="#C7C7C7"/>
<path d="M139.172 62.3363C139.291 62.7498 139.567 63.1 139.942 63.3107C140.114 63.4127 140.165 63.1807 139.993 63.0879C139.755 62.9491 139.572 62.733 139.474 62.4755C139.474 62.4337 139.446 62.3827 139.437 62.3409C139.392 62.1895 139.392 62.0283 139.437 61.8769C139.452 61.8117 139.489 61.7541 139.543 61.7145H139.581C139.621 61.701 139.665 61.701 139.706 61.7145C139.786 61.7424 139.858 61.7903 139.915 61.8537C139.987 61.9269 140.046 62.0115 140.091 62.1043C140.122 62.1464 140.148 62.1915 140.17 62.2388V62.2713C140.172 62.2867 140.172 62.3023 140.17 62.3177C140.17 62.3177 140.17 62.3409 140.17 62.3502H140.434C140.374 62.186 140.293 62.0301 140.193 61.8862C140.117 61.7639 140.015 61.6592 139.895 61.5792C139.775 61.4992 139.639 61.4457 139.497 61.4222C139.394 61.4182 139.293 61.454 139.215 61.5222C139.137 61.5904 139.089 61.6858 139.079 61.7887C139.063 61.9762 139.095 62.1647 139.172 62.3363Z" fill="#C7C7C7"/>
<path d="M137.739 62.3037C137.795 62.5094 137.892 62.7018 138.024 62.8698C138.155 63.0379 138.318 63.1782 138.504 63.2827C138.676 63.3802 138.727 63.1528 138.555 63.06C138.319 62.917 138.137 62.7001 138.036 62.4429C138.036 62.4012 138.008 62.3547 137.999 62.313C137.955 62.1614 137.955 62.0006 137.999 61.849C138.013 61.7846 138.051 61.7281 138.105 61.6912H138.129H138.166C138.206 61.6778 138.25 61.6778 138.291 61.6912C138.372 61.7176 138.444 61.7657 138.5 61.8304C138.571 61.9054 138.632 61.9897 138.681 62.081C138.709 62.1253 138.734 62.1719 138.755 62.2202V62.248C138.757 62.265 138.757 62.2821 138.755 62.2991C138.755 62.2991 138.755 62.2991 138.755 62.3269H139.015C138.956 62.1619 138.875 62.0057 138.774 61.8629C138.699 61.739 138.598 61.6331 138.478 61.5529C138.357 61.4726 138.221 61.4201 138.078 61.3989C137.974 61.3938 137.872 61.4292 137.794 61.4976C137.717 61.566 137.668 61.6621 137.66 61.7655C137.638 61.9487 137.665 62.1346 137.739 62.3037Z" fill="#C7C7C7"/>
<path d="M136.3 62.2764C136.416 62.6899 136.692 63.0404 137.066 63.2508C137.238 63.3483 137.289 63.1209 137.122 63.0281C136.882 62.8878 136.697 62.6702 136.597 62.411C136.597 62.3692 136.57 62.3228 136.56 62.281C136.519 62.1292 136.519 61.9689 136.56 61.817C136.577 61.7537 136.614 61.698 136.667 61.6593H136.704C136.747 61.6479 136.791 61.6479 136.834 61.6593C136.913 61.6892 136.983 61.7387 137.038 61.8031C137.109 61.8764 137.17 61.9592 137.219 62.049C137.247 62.0908 137.27 62.1418 137.298 62.1883V62.2207C137.3 62.2361 137.3 62.2517 137.298 62.2671C137.301 62.2778 137.301 62.2889 137.298 62.2996H137.558C137.499 62.1346 137.418 61.9784 137.317 61.8356C137.242 61.7124 137.142 61.607 137.022 61.5268C136.903 61.4467 136.767 61.3937 136.625 61.3716C136.521 61.3664 136.419 61.4016 136.34 61.4699C136.262 61.5383 136.212 61.6344 136.203 61.7382C136.187 61.923 136.221 62.1088 136.3 62.2764Z" fill="#C7C7C7"/>
<path d="M134.862 62.2427C134.979 62.6572 135.254 63.009 135.628 63.2218C135.8 63.3192 135.855 63.0872 135.684 62.999C135.445 62.8588 135.262 62.641 135.164 62.3819C135.164 62.3402 135.131 62.2891 135.122 62.2474C135.08 62.0956 135.08 61.9351 135.122 61.7834C135.139 61.7191 135.177 61.6621 135.229 61.621H135.252H135.285C135.327 61.6075 135.372 61.6075 135.414 61.621C135.494 61.6501 135.566 61.6978 135.623 61.7602C135.694 61.8343 135.754 61.9188 135.8 62.0107C135.827 62.0525 135.851 62.0989 135.878 62.1453V62.1778V62.2242C135.878 62.2242 135.878 62.2242 135.878 62.2566H136.138C136.081 62.0917 136.002 61.9356 135.902 61.7926C135.826 61.6695 135.725 61.5643 135.605 61.4842C135.485 61.404 135.348 61.351 135.206 61.3286C135.102 61.3234 135 61.3586 134.921 61.427C134.842 61.4953 134.793 61.5914 134.783 61.6952C134.762 61.8815 134.789 62.0701 134.862 62.2427Z" fill="#C7C7C7"/>
<path d="M135.437 67.6016C134.57 69.6292 132.287 72.1998 132.152 73.8377C132.106 74.2394 132.19 74.6452 132.392 74.9954C132.595 75.3455 132.904 75.6212 133.275 75.7819C133.275 75.7819 131.684 76.6588 131.809 78.1622C131.874 78.9371 133.168 79.5124 133.168 79.5124C133.168 79.5124 131.92 80.2688 132.115 81.6004C132.273 82.6584 133.544 83.076 133.544 83.076C133.544 83.076 132.686 84.3612 133.191 85.396C134.212 87.484 143.4 87.1174 144.689 83.6792C145.288 82.0737 143.052 82.2872 143.052 82.2872C143.052 82.2872 146.197 81.206 146.17 79.3129C146.142 77.4198 143.251 77.8652 143.251 77.8652C143.251 77.8652 146.295 76.7888 146.068 74.826C145.831 72.7844 143.014 73.7264 143.014 73.7264C143.014 73.7264 145.005 72.2601 144.485 70.7985C143.632 68.3811 139.882 71.6105 137.845 71.2115L136.602 67.9264L135.437 67.6016Z" fill="#D3766A"/>
<path d="M133.707 70.5666C134.361 68.5761 131.851 66.2421 132.185 64.2469C132.649 61.5464 135.776 64.052 136.602 67.9172L136.714 71.026L133.707 70.5666Z" fill="#D3766A"/>
<path d="M133.734 83.1718C133.728 83.1718 133.722 83.1743 133.718 83.1786C133.713 83.183 133.711 83.1889 133.711 83.195C133.711 83.2012 133.713 83.2071 133.718 83.2114C133.722 83.2158 133.728 83.2182 133.734 83.2182C136.903 83.8746 140.196 83.5509 143.177 82.2902C143.274 82.2484 143.241 82.0768 143.13 82.1046C140.066 82.914 136.901 83.2735 133.734 83.1718Z" fill="#263238"/>
<path d="M133.122 79.5318C133.089 79.5318 133.085 79.5922 133.122 79.5968C136.272 80.2186 140.253 79.8195 143.362 77.9357C143.469 77.8707 143.501 77.7037 143.362 77.7686C141.209 78.8822 136.096 79.671 133.122 79.5318Z" fill="#263238"/>
<path d="M143.2 73.5065C140.147 75.2001 136.862 75.7383 133.405 75.8265C133.359 75.8265 133.363 75.8914 133.405 75.9007C135.103 76.3276 137.303 76.0492 138.973 75.6919C140.551 75.39 142.022 74.6778 143.237 73.6271C143.307 73.5714 143.265 73.474 143.2 73.5065Z" fill="#263238"/>
<path d="M175.527 53.08C175.346 53.544 173.569 56.6575 171.351 56.6575C169.959 56.6575 170.293 51.8643 170.293 51.8643L170.27 51.5674L169.945 47.3914L175.142 45.025L175.889 44.7188C175.889 44.7188 175.889 45.8648 175.889 47.2986V47.5027C175.889 47.5816 175.889 47.6605 175.889 47.7347C175.889 47.9482 175.889 48.1663 175.889 48.3843C175.889 48.6024 175.889 48.7138 175.889 48.8855C175.889 49.0571 175.889 49.2288 175.889 49.4051C175.852 50.6369 175.731 51.8647 175.527 53.08Z" fill="#D3766A"/>
<path d="M175.898 47.2939C175.328 48.3696 174.531 49.3087 173.563 50.0465C172.594 50.7843 171.477 51.3032 170.289 51.5674L169.964 47.3914L175.161 45.025L175.908 44.7188C175.908 44.7188 175.894 45.8602 175.898 47.2939Z" fill="#263238"/>
<path d="M164.28 41.3939C163.843 48.739 168.191 49.8294 169.778 49.9222C171.216 50.0057 176.121 50.1078 177.318 42.8509C178.515 35.5939 175.235 33.0651 171.954 32.6985C168.674 32.332 164.72 34.0488 164.28 41.3939Z" fill="#D3766A"/>
<path d="M165.421 39.6901C165.588 39.6655 165.754 39.6314 165.917 39.588C166.098 39.5765 166.27 39.5046 166.405 39.3839C166.44 39.3382 166.46 39.2818 166.46 39.2238C166.46 39.1658 166.44 39.1094 166.405 39.0637C166.321 38.9839 166.218 38.9277 166.105 38.9008C165.993 38.8739 165.875 38.8773 165.764 38.9106C165.53 38.9446 165.317 39.0635 165.166 39.2447C165.132 39.2882 165.113 39.3407 165.109 39.3954C165.105 39.4501 165.118 39.5046 165.145 39.5522C165.173 39.5998 165.213 39.6383 165.262 39.6628C165.311 39.6873 165.366 39.6968 165.421 39.6901Z" fill="#A6A6A6"/>
<path d="M170.228 39.7277C170.056 39.7045 169.899 39.6581 169.732 39.621C169.551 39.6046 169.381 39.5315 169.244 39.4122C169.209 39.3662 169.19 39.31 169.19 39.2521C169.19 39.1943 169.209 39.1381 169.244 39.0921C169.328 39.0126 169.432 38.957 169.544 38.9309C169.657 38.9048 169.774 38.9091 169.885 38.9436C170.119 38.9804 170.331 39.1007 170.483 39.2823C170.514 39.3263 170.532 39.3784 170.535 39.4322C170.537 39.4861 170.525 39.5396 170.498 39.5864C170.471 39.6332 170.431 39.6714 170.384 39.6964C170.336 39.7215 170.282 39.7323 170.228 39.7277Z" fill="#A6A6A6"/>
<path d="M169.17 41.5781C169.17 41.5781 169.208 41.606 169.208 41.6245C169.18 42.1256 169.208 42.7056 169.672 42.882C169.672 42.882 169.672 42.9144 169.672 42.9098C169.119 42.817 169.064 42.0514 169.17 41.5781Z" fill="#263238"/>
<path d="M169.629 41.0709C170.437 41.0338 170.455 42.6485 169.708 42.6857C168.961 42.7228 168.956 41.1034 169.629 41.0709Z" fill="#263238"/>
<path d="M169.95 41.1533C170.094 41.2415 170.233 41.4039 170.414 41.4178C170.595 41.4317 170.758 41.2647 170.878 41.0977H170.906C170.906 41.4085 170.799 41.7287 170.47 41.7798C170.14 41.8308 169.946 41.5524 169.862 41.2415C169.825 41.2044 169.894 41.1162 169.95 41.1533Z" fill="#263238"/>
<path d="M166.386 41.5312C166.386 41.5312 166.344 41.5312 166.344 41.5776C166.372 42.0788 166.316 42.6541 165.88 42.8305V42.8583C166.423 42.7701 166.488 41.9999 166.386 41.5312Z" fill="#263238"/>
<path d="M165.926 41.0127C165.119 40.9663 165.086 42.5857 165.833 42.6274C166.58 42.6692 166.604 41.0498 165.926 41.0127Z" fill="#263238"/>
<path d="M165.588 41.117C165.458 41.2005 165.328 41.3536 165.175 41.3582C165.022 41.3629 164.874 41.1912 164.762 41.0195C164.762 41.0195 164.762 41.0195 164.734 41.0195C164.734 41.3258 164.818 41.6506 165.115 41.7155C165.412 41.7805 165.579 41.516 165.667 41.2098C165.681 41.168 165.648 41.0799 165.588 41.117Z" fill="#263238"/>
<path d="M167.04 43.7608C167.04 43.7608 166.938 44.5079 166.938 44.8605C166.938 44.893 167.026 44.9069 167.142 44.9162C167.445 44.9719 167.758 44.9429 168.047 44.8324C168.335 44.7219 168.587 44.5342 168.775 44.2898C168.798 44.2573 168.775 44.2202 168.72 44.2434C168.269 44.549 167.732 44.7018 167.188 44.6796C167.165 44.5821 167.406 43.4036 167.351 43.3989C167.078 43.4254 166.81 43.4862 166.553 43.5799C166.72 42.0162 167.142 40.4943 167.286 38.9399C167.285 38.9295 167.28 38.9198 167.274 38.912C167.267 38.9041 167.258 38.8986 167.247 38.8961C167.237 38.8935 167.227 38.8942 167.217 38.8978C167.207 38.9015 167.199 38.9081 167.193 38.9167C166.693 40.5369 166.357 42.2033 166.191 43.8908C166.172 44.081 166.901 43.8212 167.04 43.7608Z" fill="#263238"/>
<path d="M177.285 42.5734C176.079 42.7497 175.629 40.2534 175.629 40.2534C175.629 40.2534 173.174 40.425 172.121 36.9497C172.265 38.0032 172.713 38.9918 173.411 39.794C173.411 39.794 169.045 39.6316 166.975 36.1284C166.975 36.1284 167.829 37.9241 168.553 38.5366C167.432 38.2734 166.433 37.639 165.718 36.7362C165.718 36.7362 165.101 38.8799 164.553 39.5202C164.553 39.5202 163.551 35.8361 165.017 33.8316C168.098 29.6138 173.596 32.9314 173.596 32.9314C173.596 32.9314 176.603 33.2516 177.772 35.4417C179.568 38.7918 177.285 42.5734 177.285 42.5734Z" fill="#A6A6A6"/>
<path d="M176.083 42.4627C176.083 42.4627 177.628 40.1427 178.686 40.667C179.744 41.1913 178.626 44.5739 177.415 45.0611C177.264 45.1352 177.1 45.1778 176.932 45.1865C176.765 45.1951 176.597 45.1696 176.439 45.1115C176.282 45.0533 176.138 44.9637 176.016 44.8482C175.894 44.7327 175.797 44.5935 175.73 44.4393L176.083 42.4627Z" fill="#D3766A"/>
<path d="M178.344 41.6211V41.6536C177.499 42.0248 177.068 42.8321 176.775 43.6673C176.823 43.5801 176.888 43.5042 176.968 43.4448C177.047 43.3854 177.138 43.3439 177.235 43.3232C177.332 43.3025 177.433 43.303 177.53 43.3248C177.626 43.3465 177.717 43.389 177.796 43.4493C177.819 43.4493 177.796 43.5003 177.773 43.4957C177.62 43.4526 177.459 43.4576 177.309 43.5099C177.16 43.5622 177.03 43.6593 176.938 43.788C176.786 44.0047 176.657 44.2363 176.553 44.4793C176.515 44.5582 176.376 44.5211 176.404 44.4283C176.362 43.3193 177.17 41.7603 178.344 41.6211Z" fill="#263238"/>
<path d="M103.031 203.013H57.0488V198.433L61.0253 193.793H103.031V203.013Z" fill="#263238"/>
<path d="M121.085 203.013H103.031V193.793H116.445L121.085 198.405V203.013Z" fill="#37474F"/>
<path d="M74.0259 144.59H66.9268V193.792H74.0259V144.59Z" fill="#263238"/>
<path d="M89.9645 144.59H74.0215V193.792H89.9645V144.59Z" fill="#37474F"/>
<path d="M102.78 179.98H82.1133V183.191H102.78V179.98Z" fill="#263238"/>
<path d="M110.897 179.98H102.781V183.191H110.897V179.98Z" fill="#37474F"/>
<path d="M123.322 130.446H120.172L123.986 122.266H127.137L123.322 130.446Z" fill="#A6A6A6"/>
<path d="M133.099 118.316H123.935C123.935 118.316 124.121 123.815 120.033 123.815C119.485 123.841 118.941 123.709 118.466 123.434C117.991 123.159 117.606 122.753 117.355 122.265C117.355 122.265 118.859 125.462 121.634 125.462H127.693C129.341 125.481 132.774 124.348 133.099 118.316Z" fill="#A6A6A6"/>
<path d="M116.412 118.316H125.581C125.581 118.316 125.391 123.815 129.478 123.815C130.027 123.842 130.572 123.71 131.047 123.435C131.523 123.16 131.909 122.754 132.16 122.265C132.16 122.265 130.657 125.462 127.882 125.462H121.818C120.175 125.481 116.742 124.348 116.412 118.316Z" fill="#C7C7C7"/>
<path d="M111.467 143.206C111.468 143.402 111.411 143.594 111.303 143.757C111.195 143.92 111.04 144.047 110.86 144.123C110.679 144.198 110.481 144.218 110.289 144.181C110.097 144.143 109.92 144.049 109.781 143.911C109.643 143.773 109.548 143.597 109.51 143.406C109.471 143.214 109.49 143.015 109.565 142.834C109.64 142.653 109.766 142.498 109.929 142.39C110.092 142.281 110.283 142.223 110.479 142.223C110.74 142.223 110.991 142.326 111.176 142.51C111.361 142.695 111.466 142.945 111.467 143.206Z" fill="#C7C7C7"/>
<path d="M110.841 143.43L110.117 142.984L119.267 128.164H121.898V129.013H119.741L110.841 143.43Z" fill="#A6A6A6"/>
<path d="M80.5688 110.483C80.5688 110.975 80.4229 111.456 80.1497 111.865C79.8764 112.274 79.488 112.593 79.0335 112.781C78.5791 112.969 78.079 113.018 77.5966 112.922C77.1141 112.826 76.671 112.59 76.3232 112.242C75.9753 111.894 75.7385 111.451 75.6425 110.968C75.5466 110.486 75.5958 109.986 75.784 109.531C75.9723 109.077 76.291 108.689 76.7 108.415C77.109 108.142 77.5899 107.996 78.0818 107.996C78.4084 107.996 78.7318 108.06 79.0335 108.185C79.3353 108.31 79.6094 108.494 79.8404 108.725C80.0713 108.955 80.2545 109.23 80.3795 109.531C80.5045 109.833 80.5688 110.157 80.5688 110.483Z" fill="#37474F"/>
<path d="M78.0822 111.766C78.792 111.766 79.3674 111.19 79.3674 110.481C79.3674 109.771 78.792 109.195 78.0822 109.195C77.3723 109.195 76.7969 109.771 76.7969 110.481C76.7969 111.19 77.3723 111.766 78.0822 111.766Z" fill="#455A64"/>
<path d="M113.035 138.112C113.035 138.604 112.889 139.085 112.615 139.494C112.342 139.903 111.953 140.222 111.498 140.41C111.044 140.598 110.543 140.647 110.061 140.551C109.578 140.455 109.135 140.217 108.787 139.869C108.44 139.521 108.203 139.077 108.108 138.594C108.012 138.112 108.062 137.611 108.251 137.157C108.44 136.703 108.76 136.315 109.169 136.042C109.579 135.769 110.06 135.624 110.552 135.625C111.211 135.626 111.842 135.889 112.308 136.355C112.773 136.821 113.035 137.453 113.035 138.112Z" fill="#37474F"/>
<path d="M110.553 139.399C111.263 139.399 111.838 138.823 111.838 138.113C111.838 137.404 111.263 136.828 110.553 136.828C109.843 136.828 109.268 137.404 109.268 138.113C109.268 138.823 109.843 139.399 110.553 139.399Z" fill="#455A64"/>
<path d="M109.685 138.464L98.5444 111.418H78.082V109.543H99.8019L111.416 137.754L109.685 138.464Z" fill="#455A64"/>
<path d="M111.239 125.984H52.4131V134.833H111.239V125.984Z" fill="#37474F"/>
<path d="M93.5333 125.983H52.4137L32.4756 76.7617H73.5953L93.5333 125.983Z" fill="#37474F"/>
<path d="M93.5324 125.983H62.3795L42.4414 76.7617H73.5944L93.5324 125.983Z" fill="#455A64"/>
<path d="M78.9632 134.828H111.234V125.98H78.9632V134.828Z" fill="#455A64"/>
<path d="M73.5952 57.8242H35.1436V76.7647H73.5952V57.8242Z" fill="#37474F"/>
<path d="M73.5944 57.8242H42.4414V76.7647H73.5944V57.8242Z" fill="#37474F"/>
<path d="M77.4884 67.6343C77.4884 72.7708 72.519 76.2647 72.519 76.2647H43.751V59.0039H72.519C72.519 59.0039 77.4884 62.4978 77.4884 67.6343Z" fill="#455A64"/>
<path d="M43.7832 76.2601V59.0039C43.7832 59.0039 48.7526 62.4978 48.7526 67.6343C48.7526 72.7708 43.7832 76.2601 43.7832 76.2601Z" fill="#37474F"/>
<path d="M47.8154 82.1602C50.038 82.0674 52.2652 82.021 54.4877 81.9839C56.7103 81.9467 58.9375 81.9514 61.1601 81.9328C63.3826 81.9143 65.6098 81.9328 67.837 81.9839L71.1732 82.0488C72.2822 82.0859 73.3958 82.1091 74.5094 82.1602C73.3958 82.2158 72.2822 82.239 71.1732 82.2762L67.837 82.3411C65.6098 82.3782 63.3873 82.3782 61.1601 82.3922C58.9329 82.4061 56.7149 82.3922 54.4877 82.3411C52.2605 82.2901 50.038 82.2576 47.8154 82.1602Z" fill="#37474F"/>
<path d="M52.4316 94.0047C54.6542 93.9072 56.8768 93.8608 59.104 93.8237C61.3312 93.7866 63.5537 93.7912 65.7763 93.7727C67.9988 93.7541 70.226 93.7727 72.4486 93.8237L75.7848 93.8887C76.8984 93.9304 78.012 93.949 79.1256 94.0047C78.012 94.0557 76.8984 94.0789 75.7848 94.116L72.4486 94.181C70.226 94.2181 68.0035 94.2181 65.7763 94.2367C63.5491 94.2552 61.3265 94.2367 59.104 94.181C56.8814 94.1253 54.6356 94.0975 52.4316 94.0047Z" fill="#37474F"/>
<path d="M57.0068 105.844C59.234 105.747 61.4566 105.705 63.6838 105.668C65.911 105.631 68.1289 105.631 70.3561 105.612C72.5833 105.594 74.8059 105.612 77.0284 105.668L80.3646 105.728C81.4782 105.77 82.5918 105.793 83.7008 105.844C82.5918 105.895 81.4782 105.919 80.3646 105.96L77.0284 106.021C74.8059 106.058 72.5787 106.058 70.3561 106.076C68.1336 106.095 65.9064 106.076 63.6838 106.021C61.4612 105.965 59.234 105.942 57.0068 105.844Z" fill="#37474F"/>
<path d="M61.6055 117.688C63.8327 117.595 66.0552 117.549 68.2778 117.512C70.5003 117.475 72.7275 117.475 74.9547 117.456C77.1819 117.438 79.3999 117.456 81.6271 117.512L84.9632 117.577C86.0768 117.614 87.1858 117.637 88.2994 117.688C87.1858 117.744 86.0768 117.762 84.9632 117.804L81.6271 117.869C79.3999 117.906 77.1773 117.902 74.9547 117.92C72.7322 117.939 70.505 117.92 68.2778 117.869C66.0506 117.818 63.8327 117.786 61.6055 117.688Z" fill="#37474F"/>
<path d="M113.248 134.828H52.4131V142.057H113.248V134.828Z" fill="#263238"/>
<path d="M26.5547 76.7617H35.1526L61.0113 142.056H52.4134L26.5547 76.7617Z" fill="#263238"/>
<path d="M35.1433 57.8242L26.5547 61.1975V76.7647H35.1433V57.8242Z" fill="#263238"/>
<path d="M93.5333 142.059H58.9746V144.592H93.5333V142.059Z" fill="#A6A6A6"/>
<path d="M101.653 143.324H74.0127V148.08H101.653V143.324Z" fill="#C7C7C7"/>
<path d="M84.123 58.1564C88.0485 61.9797 86.5637 67.0977 88.1181 70.0255C89.0693 71.8165 92.4054 73.8535 92.9669 75.8812C93.8949 79.2127 91.0505 80.2103 91.5749 82.0199C92.2894 84.5858 95.6627 84.6044 96.0061 88.7525C96.3494 92.9007 91.5377 96.9746 80.7358 97.4804C69.9339 97.9861 64.2917 93.6802 64.1293 90.1724C63.9669 86.6645 67.6093 85.7273 68.0176 83.1428C68.2774 81.4863 66.1616 80.1917 66.2312 77.1108C66.3008 74.0298 69.3586 73.241 69.9432 70.6658C70.5278 68.0906 69.5627 61.6921 73.5856 58.7086C77.6085 55.725 82.1835 56.2679 84.123 58.1564Z" fill="#263238"/>
<path d="M83.6359 58.2149C84.7443 59.1132 85.6197 60.2655 86.1879 61.5742C86.7784 62.9562 87.2036 64.4031 87.4546 65.8848C87.5801 66.7675 87.8058 67.633 88.1274 68.4646C88.4558 69.1573 88.9052 69.7858 89.4544 70.3206C90.5495 71.4435 91.8812 72.3251 92.8463 73.5686C93.7743 74.7472 94.4378 76.2923 93.946 77.7864C93.6815 78.603 93.0922 79.2434 92.7024 79.995C92.3127 80.7467 92.1456 81.6051 92.7349 82.2547C93.2407 82.8069 94.0016 83.0946 94.5909 83.5586C95.1631 84.0165 95.6581 84.5633 96.0572 85.1779C96.4608 85.7858 96.7335 86.4709 96.8581 87.1898C96.9828 87.9087 96.9565 88.6457 96.781 89.3539C95.9412 92.6483 92.6885 94.3466 89.7236 95.3581L88.4754 95.771C88.4151 95.771 88.364 95.6968 88.4336 95.6736C91.4125 94.56 94.8786 93.2515 96.1964 90.0778C96.4949 89.3869 96.6301 88.6365 96.5915 87.8848C96.5528 87.1332 96.3414 86.4006 95.9736 85.744C95.6031 85.0914 95.1173 84.5113 94.5399 84.0318C93.9877 83.5678 93.3288 83.257 92.7628 82.8115C92.4806 82.6049 92.2578 82.3275 92.1168 82.0074C91.9759 81.6873 91.9218 81.3357 91.96 80.988C92.1004 80.2314 92.4184 79.5189 92.888 78.9093C93.3795 78.2748 93.6674 77.5065 93.714 76.7053C93.6773 75.9206 93.4288 75.1606 92.9948 74.5059C92.1735 73.1696 90.8882 72.2462 89.7468 71.2022C88.5759 70.2249 87.743 68.9032 87.3664 67.4253C87.1901 66.6458 87.102 65.8523 86.9628 65.0635C86.831 64.3362 86.6622 63.616 86.457 62.9059C86.0719 61.4783 85.3781 60.1525 84.4247 59.0222C84.1723 58.7328 83.8909 58.47 83.5848 58.2381C83.5616 58.2427 83.6034 58.187 83.6359 58.2149Z" fill="#263238"/>
<path d="M63.8143 87.584C63.981 87.0247 64.2676 86.5085 64.6542 86.0713C65.0579 85.6073 65.5358 85.2501 65.9766 84.8417C66.4239 84.4778 66.76 83.9955 66.9464 83.4497C67.0647 82.7749 66.9415 82.08 66.5984 81.487C66.2695 80.8654 65.9873 80.2202 65.7539 79.5568C65.5592 78.8988 65.4653 78.2152 65.4755 77.5291C65.5066 76.1165 65.9715 74.7477 66.8071 73.6083C67.2108 73.0329 67.6609 72.4901 68.0692 71.9193C68.5169 71.2954 68.8804 70.6152 69.1504 69.8963C69.735 68.3094 69.9484 66.6158 70.4496 65.0011C70.9692 63.3515 71.6564 61.7594 72.5004 60.2498C72.5004 60.2126 72.5747 60.2497 72.5561 60.2869C71.8056 61.6519 71.2006 63.092 70.7512 64.5835C70.3196 65.9987 70.0969 67.4557 69.7489 68.8894C69.5927 69.5956 69.3657 70.2842 69.0715 70.9449C68.7767 71.5523 68.4272 72.1316 68.0275 72.6757C67.2248 73.8125 66.4035 74.9307 66.1158 76.3181C65.8256 77.6833 65.9784 79.1056 66.5519 80.3781C67.0484 81.4824 67.763 82.6981 67.1876 83.923C66.7236 84.9531 65.6564 85.5238 64.9326 86.359C64.5513 86.8191 64.2715 87.3545 64.1116 87.9302C63.9516 88.506 63.9152 89.109 64.0046 89.6998C64.3897 92.7437 67.3036 94.4233 70.1155 94.7528C70.1303 94.7567 70.1434 94.7654 70.1528 94.7776C70.1622 94.7898 70.1673 94.8047 70.1673 94.8201C70.1673 94.8354 70.1622 94.8503 70.1528 94.8625C70.1434 94.8747 70.1303 94.8834 70.1155 94.8873C67.6656 94.7017 65.0718 93.4582 64.0835 91.0918C63.5902 89.989 63.4951 88.7491 63.8143 87.584Z" fill="#263238"/>
<path d="M79.878 81.8334C84.054 88.7934 90.1649 95.6699 93.0881 95.99C95.4406 96.2452 110.674 89.8142 111.848 88.6774C112.854 87.6984 107.463 78.2513 106.01 78.6411C103.574 79.3 94.4569 85.3505 93.7794 85.1371C93.102 84.9236 88.0305 81.1513 82.727 77.6667C77.6462 74.3444 76.9687 77.0217 79.878 81.8334Z" fill="#AD6359"/>
<path d="M110.228 89.6232C111.536 89.1128 117.838 86.2453 119.271 85.0853C120.705 83.9253 124.584 80.2921 123.809 79.1043C123.034 77.9165 121.809 78.8909 121.809 78.8909C121.809 78.8909 123.201 77.0998 122.315 75.9723C121.429 74.8448 119.578 76.4363 119.578 76.4363C119.578 76.4363 120.877 74.4875 119.907 73.4296C118.937 72.3717 117.346 74.2694 117.346 74.2694C117.346 74.2694 118.617 72.5433 117.452 72.0097C116.06 71.3648 114.065 74.7937 112.39 75.9677C112.01 76.2321 104.284 80.7608 104.284 80.7608L110.228 89.6232Z" fill="#AD6359"/>
<path d="M117.485 74.1048C116.019 76.6336 114.942 77.4827 112.381 78.819C112.335 78.8469 112.381 78.9258 112.413 78.9026C115.03 77.8214 116.538 76.9491 117.601 74.1651C117.661 74.0306 117.555 73.9842 117.485 74.1048Z" fill="#263238"/>
<path d="M119.712 76.2251C117.963 78.7168 116.798 79.6541 114.232 81.2502C114.195 81.2502 114.232 81.3384 114.269 81.3152C116.919 79.9603 118.404 79.0555 119.837 76.3318C119.865 76.2112 119.768 76.0952 119.712 76.2251Z" fill="#263238"/>
<path d="M121.675 78.9718C119.819 81.2639 118.58 82.345 115.889 83.5746C115.883 83.5771 115.877 83.5807 115.872 83.5854C115.867 83.5901 115.863 83.5958 115.86 83.602C115.857 83.6083 115.856 83.615 115.855 83.6219C115.855 83.6287 115.856 83.6355 115.859 83.6419C115.861 83.6483 115.865 83.6542 115.87 83.6591C115.874 83.6641 115.88 83.6681 115.886 83.6709C115.893 83.6737 115.899 83.6753 115.906 83.6755C115.913 83.6757 115.92 83.6745 115.926 83.6721C118.794 82.6884 120.334 81.3521 121.74 79.0321C121.838 78.879 121.796 78.8279 121.675 78.9718Z" fill="#263238"/>
<path d="M101.537 80.8787C101.537 80.8787 103.644 77.1667 104.688 75.8721C105.732 74.5776 111.369 71.2785 112.153 72.4571C113.17 73.9744 110.297 76.531 108.72 77.6029C108.72 77.6029 111.068 81.1153 109.402 83.3982C107.736 85.6811 101.537 80.8787 101.537 80.8787Z" fill="#AD6359"/>
<path d="M112.287 72.9619C112.213 75.0174 110.056 76.2842 108.608 77.4349C108.585 77.4501 108.566 77.4708 108.553 77.4951C108.54 77.5194 108.533 77.5465 108.533 77.5741C108.533 77.6016 108.54 77.6288 108.553 77.6531C108.566 77.6774 108.585 77.698 108.608 77.7133C109.494 79.2538 110.297 81.6805 109.503 83.3787C109.498 83.3886 109.496 83.4002 109.5 83.4111C109.503 83.422 109.51 83.4312 109.52 83.4367C109.53 83.4423 109.541 83.4437 109.552 83.4406C109.563 83.4376 109.572 83.4303 109.578 83.4205C110.677 81.7176 110.083 79.2677 109.002 77.6437C110.506 76.4883 112.612 75.1195 112.301 72.9619C112.315 72.9526 112.287 72.948 112.287 72.9619Z" fill="#263238"/>
<path d="M101.096 80.7732L108.112 91.5983C108.112 91.5983 95.7322 97.3658 92.2012 95.997C88.6701 94.6282 81.557 85.2415 78.8379 80.337C76.1189 75.4325 79.3019 74.936 84.0858 78.198C88.8696 81.4599 93.6674 85.0095 93.802 85.0002C93.9365 84.9909 101.096 80.7732 101.096 80.7732Z" fill="#DBDBDB"/>
<path d="M104.934 92.2972C104.006 90.6918 100.048 84.2561 99.0969 82.929C99.0273 82.8362 98.9531 82.8595 99.0088 82.9662C101.616 87.8521 103.895 90.8078 104.864 92.3343C104.892 92.3715 104.957 92.3343 104.934 92.2972Z" fill="#263238"/>
<path d="M77.7384 79.1151C78.7082 81.6903 81.9144 86.3349 81.9144 86.3349L91.6167 82.9152C91.6167 82.9152 84.6938 77.2869 80.0724 75.7C78.2117 75.0643 76.7548 76.5074 77.7384 79.1151Z" fill="#E1E0EB"/>
<path d="M81.5112 84.9972C82.9032 84.394 84.3276 83.814 85.7707 83.2943C86.4899 83.0345 87.2091 82.7886 87.9376 82.5519C88.666 82.3153 89.4131 82.1483 90.1323 81.9023C90.174 81.9023 90.1926 81.9534 90.1323 81.9673C89.4038 82.1761 88.6939 82.487 87.97 82.7329C87.2462 82.9788 86.527 83.234 85.8078 83.4939C84.374 84.0043 82.9356 84.5147 81.5112 85.0622C81.488 85.0761 81.4694 85.0158 81.5112 84.9972Z" fill="#263238"/>
<path opacity="0.1" d="M87.0001 84.5344L81.8961 86.3347C81.8961 86.3347 78.6991 81.6947 77.7201 79.1149C77.4199 78.4195 77.3374 77.6495 77.4834 76.9062L87.0001 84.5344Z" fill="black"/>
<path d="M148.763 189.595C147.644 189.971 115.652 190.031 114.427 189.261C113.963 188.973 113.684 184.314 113.499 178.677C113.457 177.457 113.425 176.199 113.401 174.923C113.214 169.201 112.715 163.493 111.907 157.825L133.307 157.723L134.212 174.821L134.124 178.575C134.124 178.575 146.382 184.031 147.631 185.02C148.879 186.008 149.872 189.219 148.763 189.595Z" fill="#AD6359"/>
<path d="M113.601 181.211C113.777 185.651 114.037 189.02 114.431 189.261C115.651 190.032 147.649 189.971 148.767 189.595C149.885 189.22 148.888 186.009 147.649 185.02C147.097 184.584 144.429 183.29 141.617 181.972C141.617 181.972 144.401 184.222 143.375 184.542C137.956 186.227 119.479 182.473 113.601 181.211Z" fill="#E1E0EB"/>
<path d="M72.0307 100.401H83.6678L86.9576 107.185C86.9576 107.185 116.222 107.018 124.078 115.741C133.641 126.413 134.17 173.231 134.17 173.231H113.359C113.359 173.231 110.223 135.285 107.791 132.12C105.36 128.956 77.3667 129.874 69.771 123.151C62.7136 116.901 66.1426 98.6936 65.595 100.415L72.0307 100.401Z" fill="#AD6359"/>
<path d="M120.872 199.719C119.698 199.848 88.4152 193.148 87.3851 192.137C86.9907 191.756 87.7006 187.144 88.7168 181.595C88.9395 180.398 89.1808 179.159 89.4174 177.906C90.995 169.763 92.8603 161.16 92.8603 161.16L113.801 165.582L109.778 182.207L108.901 185.859C108.901 185.859 119.731 193.779 120.742 195.009C121.754 196.239 122.032 199.589 120.872 199.719Z" fill="#AD6359"/>
<path d="M92.8602 161.16C92.8602 161.16 91.0042 169.763 89.4173 177.906C89.1714 179.163 88.9533 180.398 88.7213 181.595C88.5589 182.453 88.4151 183.284 88.2573 184.091C87.4917 188.471 87.0323 191.817 87.3664 192.137C88.3965 193.148 119.679 199.848 120.853 199.719C122.027 199.589 121.73 196.239 120.723 195.014C120.259 194.471 117.939 192.638 115.466 190.759C112.297 188.355 108.891 185.864 108.891 185.864L109.773 182.212L113.791 165.587L92.8602 161.16Z" fill="#AD6359"/>
<path d="M88.2758 184.09C87.5102 188.47 87.0509 191.815 87.385 192.136C88.415 193.147 119.698 199.847 120.872 199.717C122.046 199.587 121.749 196.237 120.742 195.012C120.278 194.469 117.958 192.637 115.485 190.757C115.485 190.757 117.735 193.541 116.659 193.644C111.017 194.145 93.7557 186.568 88.2758 184.09Z" fill="#E1E0EB"/>
<path d="M110.933 177.443L90.2944 173.471C90.2944 173.471 98.6835 134.369 97.157 132.407C94.6467 129.159 73.2563 129.65 63.8232 123.127C56.1626 117.809 62.4637 100.391 62.4637 100.391H82.8472C82.8472 100.391 84.8563 104.488 85.3528 106.399C85.3528 106.399 109.504 111.271 117.527 119.136C125.8 127.252 110.933 177.443 110.933 177.443Z" fill="#AD6359"/>
<path d="M119.248 121.441C118.536 119.848 117.431 118.462 116.037 117.413C114.621 116.382 113.08 115.532 111.452 114.885C111.058 114.713 110.654 114.546 110.255 114.379C110.158 114.337 110.079 114.476 110.176 114.523C113.206 116.063 116.482 117.72 118.166 120.814C119.851 123.909 119.712 127.728 119.503 131.171C119.252 135.347 118.76 139.495 118.111 143.625C117.461 147.754 116.719 151.828 115.842 155.907C114.965 159.985 114.079 164.096 113.197 168.193C113.086 168.704 112.998 169.219 112.886 169.729C112.886 169.776 112.946 169.794 112.956 169.729C114.06 165.609 115.188 161.503 116.143 157.35C117.099 153.197 117.948 149.067 118.663 144.891C119.378 140.715 119.902 136.484 120.194 132.247C120.463 128.689 120.732 124.814 119.248 121.441Z" fill="#263238"/>
<path d="M94.0901 131.097C95.0181 131.19 94.6469 111.655 111.467 115.321C111.467 115.321 112.488 113.247 113.908 112.681C117.04 111.432 119.174 112.532 119.174 112.346C119.174 112.161 116.241 108.537 99.686 106.737C94.0159 106.12 89.6775 105.846 88.2855 105.076C87.3157 104.537 84.0028 100.398 84.0028 100.398H62.45C62.45 100.398 58.8029 109.27 60.014 117.061C61.225 124.851 72.6812 128.944 94.0901 131.097Z" fill="#E1E0EB"/>
<path d="M107.648 112.284C103.018 111.458 98.3104 111.147 93.6119 111.356C92.2616 111.426 90.9207 111.555 89.5797 111.681C89.5333 111.681 89.5333 111.755 89.5797 111.755C91.8997 111.63 94.2522 111.639 96.5815 111.667C98.9108 111.695 101.249 111.797 103.574 111.982C104.929 112.089 106.279 112.196 107.634 112.344C107.638 112.345 107.642 112.345 107.646 112.345C107.65 112.344 107.654 112.342 107.657 112.34C107.661 112.338 107.664 112.335 107.666 112.332C107.668 112.329 107.67 112.325 107.671 112.321C107.672 112.317 107.672 112.313 107.671 112.309C107.671 112.305 107.669 112.301 107.667 112.298C107.665 112.294 107.662 112.291 107.659 112.289C107.656 112.287 107.652 112.285 107.648 112.284Z" fill="#263238"/>
<path d="M106.255 110.57C104.974 110.57 103.698 110.57 102.422 110.64C101.146 110.71 99.8751 110.872 98.6037 111.025C98.5981 111.023 98.5921 111.022 98.5862 111.023C98.5802 111.024 98.5745 111.026 98.5696 111.029C98.5647 111.033 98.5607 111.037 98.5579 111.043C98.5552 111.048 98.5537 111.054 98.5537 111.06C98.5537 111.066 98.5552 111.072 98.5579 111.077C98.5607 111.082 98.5647 111.087 98.5696 111.09C98.5745 111.094 98.5802 111.096 98.5862 111.097C98.5921 111.097 98.5981 111.097 98.6037 111.095C99.8705 110.969 101.151 110.909 102.422 110.835C103.694 110.761 104.974 110.682 106.25 110.631C106.306 110.626 106.306 110.57 106.255 110.57Z" fill="#263238"/>
<path d="M84.0162 100.4L62.3428 100.502C62.3428 100.502 66.3053 83.6592 71.9197 77.488C74.4717 74.6715 77.0237 75.0566 79.1952 76.8105C79.7381 77.2467 86.0717 85.1115 86.6192 89.0323C86.9951 91.6539 84.4895 93.9971 84.4895 93.9971L84.0162 100.4Z" fill="#E1E0EB"/>
<path d="M82.7595 93.8753C81.6675 94.1154 80.6231 94.5356 79.6693 95.1188C79.2053 95.3972 78.7041 95.6849 78.2355 95.9865C77.7669 96.2881 77.2518 96.6454 76.7321 96.9145C76.6904 96.9145 76.7321 96.998 76.7739 96.9795C77.2704 96.7289 77.7761 96.5155 78.268 96.2278C78.7598 95.9401 79.2331 95.6617 79.7203 95.388C80.6863 94.8013 81.7111 94.3176 82.778 93.9449C82.8105 93.9171 82.792 93.8707 82.7595 93.8753Z" fill="#263238"/>
<path d="M83.6456 94.8086C82.2536 94.8504 81.0193 95.4164 79.7758 95.9454C79.7341 95.9454 79.7526 96.0335 79.7758 96.015C80.998 95.4585 82.2932 95.0788 83.6224 94.8875C83.6966 94.8782 83.6966 94.8086 83.6456 94.8086Z" fill="#263238"/>
<path d="M75.6045 76.9641C75.7019 77.4559 77.9245 80.6761 80.1656 80.6761C80.8895 80.6761 80.9962 76.6903 80.9962 76.6903L81.0704 76.398L82.1144 72.3241L77.3863 69.076L76.7042 68.6445C76.7042 68.6445 76.4907 69.7767 76.2402 71.1919C76.2402 71.2615 76.217 71.3264 76.203 71.396C76.1891 71.4656 76.1706 71.5492 76.1613 71.6234C76.1195 71.8369 76.0824 72.0503 76.0453 72.2684C76.0082 72.4865 75.9896 72.5885 75.9664 72.7649C75.9432 72.9412 75.9154 73.1036 75.8922 73.2799C75.711 74.4998 75.6149 75.7308 75.6045 76.9641Z" fill="#AD6359"/>
<path d="M76.2402 71.177C76.6193 72.3427 77.2478 73.4119 78.082 74.3102C78.9161 75.2085 79.9359 75.9142 81.0705 76.3784L82.1145 72.3045L77.3863 69.0565L76.7042 68.625C76.7042 68.625 76.4908 69.7618 76.2402 71.177Z" fill="#263238"/>
<path d="M87.7473 65.0612C89.3898 72.2625 85.2602 74.0581 83.7058 74.4108C82.3138 74.7309 77.4511 75.6404 75.0754 68.6433C72.6997 61.6461 75.5394 58.6069 78.7178 57.7068C81.8962 56.8066 86.1047 57.8553 87.7473 65.0612Z" fill="#AD6359"/>
<path d="M86.7684 63.9767C86.5984 63.986 86.428 63.986 86.258 63.9767C86.0783 64.0003 85.8958 63.9644 85.7383 63.8746C85.6929 63.8375 85.6616 63.7858 85.6498 63.7284C85.6379 63.6709 85.6463 63.6111 85.6734 63.5591C85.7388 63.4631 85.829 63.3865 85.9343 63.3375C86.0397 63.2885 86.1563 63.2689 86.2719 63.2807C86.509 63.2677 86.7424 63.3438 86.9262 63.4941C86.9658 63.5302 86.9942 63.577 87.0078 63.6289C87.0215 63.6807 87.0199 63.7354 87.0033 63.7864C86.9866 63.8373 86.9556 63.8824 86.9139 63.9162C86.8723 63.9499 86.8217 63.9709 86.7684 63.9767Z" fill="#263238"/>
<path d="M82.0121 65.1063C82.1791 65.0507 82.323 64.9718 82.4761 64.9022C82.6502 64.8539 82.8035 64.7495 82.9123 64.6052C82.9377 64.5528 82.9451 64.4935 82.9334 64.4364C82.9216 64.3794 82.8914 64.3278 82.8473 64.2897C82.7476 64.2305 82.6338 64.1992 82.5179 64.1992C82.4019 64.1992 82.2881 64.2305 82.1884 64.2897C81.9615 64.371 81.7751 64.5374 81.6687 64.7537C81.6532 64.8019 81.6511 64.8534 81.6626 64.9027C81.6741 64.9519 81.6989 64.9972 81.7342 65.0334C81.7695 65.0697 81.8141 65.0956 81.863 65.1085C81.912 65.1213 81.9635 65.1206 82.0121 65.1063Z" fill="#263238"/>
<path d="M83.3995 66.4805C83.3995 66.4805 83.367 66.5129 83.3716 66.5361C83.5016 67.0001 83.5665 67.5987 83.1582 67.8632C83.1582 67.8632 83.1582 67.8957 83.1582 67.891C83.6918 67.6915 83.599 66.9213 83.3995 66.4805Z" fill="#263238"/>
<path d="M82.8424 66.0711C82.0397 66.1918 82.3413 67.7879 83.0837 67.6719C83.8261 67.5559 83.5199 65.969 82.8424 66.0711Z" fill="#263238"/>
<path d="M82.5453 66.2099C82.4247 66.3305 82.318 66.5115 82.151 66.5625C81.9839 66.6135 81.7844 66.479 81.6266 66.3398C81.6266 66.3398 81.5988 66.3398 81.6266 66.363C81.6777 66.6738 81.854 66.9615 82.1927 66.9476C82.5314 66.9337 82.6567 66.6228 82.6567 66.298C82.6613 66.2377 82.5917 66.1635 82.5453 66.2099Z" fill="#263238"/>
<path d="M86.0208 65.8867C86.0208 65.8867 86.0626 65.8867 86.0672 65.9238C86.1368 66.4203 86.3085 66.9818 86.7864 67.0653V67.0931C86.225 67.121 86.0115 66.3786 86.0208 65.8867Z" fill="#263238"/>
<path d="M86.369 65.3032C87.1532 65.099 87.5058 66.6952 86.7774 66.8715C86.0489 67.0478 85.7102 65.4702 86.369 65.3032Z" fill="#263238"/>
<path d="M86.7215 65.3294C86.8653 65.3851 87.0231 65.5104 87.1855 65.4872C87.3479 65.464 87.45 65.2645 87.5242 65.0742C87.5242 65.0742 87.5242 65.0742 87.5521 65.0742C87.6309 65.3758 87.5985 65.7145 87.3201 65.8398C87.0417 65.9651 86.8143 65.7331 86.6751 65.4454C86.638 65.4222 86.6658 65.3062 86.7215 65.3294Z" fill="#263238"/>
<path d="M84.0215 70.5638C84.1607 70.6613 84.2999 70.8051 84.4855 70.7958C84.6693 70.7662 84.8447 70.6982 85.0005 70.5963H85.0284C84.9778 70.7093 84.8967 70.8061 84.7943 70.8757C84.6919 70.9454 84.5721 70.9852 84.4484 70.9907C84.3414 70.9801 84.2401 70.9378 84.1574 70.8692C84.0747 70.8006 84.0144 70.7087 83.9844 70.6056C83.9844 70.5638 83.9844 70.5499 84.0215 70.5638Z" fill="#263238"/>
<path d="M85.7293 68.3639C85.7293 68.3639 85.9798 69.0831 86.0494 69.4311C86.0494 69.4636 85.9752 69.4961 85.8545 69.5239C85.5674 69.638 85.2543 69.6706 84.9497 69.6182C84.6452 69.5658 84.361 69.4304 84.1285 69.2269C84.096 69.1991 84.1285 69.1527 84.1702 69.1713C84.675 69.3828 85.234 69.4283 85.7664 69.3012C85.7664 69.1991 85.3024 68.0855 85.3534 68.0716C85.626 68.035 85.9022 68.035 86.1747 68.0716C85.7107 66.5682 84.9869 65.1484 84.5321 63.6404C84.5306 63.6296 84.5325 63.6186 84.5377 63.6089C84.5428 63.5993 84.5509 63.5916 84.5608 63.5869C84.5707 63.5823 84.5818 63.5809 84.5925 63.583C84.6032 63.5851 84.6129 63.5906 84.6203 63.5986C85.432 65.0961 86.0926 66.6706 86.5923 68.2989C86.648 68.5124 85.8777 68.3964 85.7293 68.3639Z" fill="#263238"/>
<path d="M85.5711 69.4581C85.4311 69.7354 85.2237 69.9731 84.9679 70.1495C84.829 70.236 84.6676 70.2796 84.5039 70.2747C84.1327 70.2515 84.0399 69.9314 84.0724 69.6437C84.0797 69.4867 84.1046 69.3311 84.1467 69.1797C84.5795 69.4225 85.0788 69.52 85.5711 69.4581Z" fill="#263238"/>
<path d="M84.9679 70.1523C84.829 70.2388 84.6676 70.2824 84.5039 70.2775C84.1327 70.2543 84.0399 69.9342 84.0724 69.6465C84.2568 69.618 84.4454 69.6523 84.6079 69.7441C84.7703 69.8358 84.8972 69.9796 84.9679 70.1523Z" fill="#FF9CBD"/>
<path d="M75.4745 69.0819C75.9039 68.7909 76.2503 68.3932 76.4797 67.9279C76.7091 67.4626 76.8136 66.9457 76.7829 66.4279C77.9592 65.692 78.9198 64.6578 79.5669 63.4304C79.5391 63.5882 79.3442 64.7064 79.2282 65.2864C83.6687 63.7738 84.5781 60.0757 84.5781 60.0757C85.5677 60.7517 86.3911 61.6433 86.9863 62.6834C86.9863 62.6834 86.6151 59.8762 84.9029 58.2104C82.8103 56.1688 76.769 56.4101 74.449 59.8019C71.9573 63.449 75.4745 69.0819 75.4745 69.0819Z" fill="#263238"/>
<path d="M82.5919 64.0328C81.9164 64.5401 81.1688 64.9436 80.374 65.2299C81.6058 64.6921 82.6643 63.8231 83.4318 62.7197C83.7566 62.2493 84.0201 61.7394 84.2159 61.2024C84.4536 60.6223 84.575 60.0012 84.5732 59.3743C84.5711 59.3686 84.5705 59.3626 84.5712 59.3567C84.572 59.3507 84.5741 59.3451 84.5776 59.3401C84.581 59.3352 84.5855 59.3312 84.5908 59.3284C84.5961 59.3257 84.602 59.3242 84.608 59.3242C84.614 59.3242 84.6199 59.3257 84.6252 59.3284C84.6305 59.3312 84.6351 59.3352 84.6385 59.3401C84.6419 59.3451 84.6441 59.3507 84.6449 59.3567C84.6456 59.3626 84.6449 59.3686 84.6428 59.3743C84.7116 59.9943 84.6771 60.6215 84.5407 61.2303C84.3777 61.8255 84.1089 62.3866 83.7473 62.8867C83.4175 63.3207 83.0286 63.7065 82.5919 64.0328Z" fill="#263238"/>
<path d="M75.6648 71.3024C75.7801 71.3309 75.8986 71.345 76.0174 71.3441C76.1346 71.3491 76.2519 71.3366 76.3654 71.307C76.5106 71.2706 76.6465 71.2042 76.7644 71.1121C76.8592 71.0406 76.9435 70.9563 77.015 70.8616C77.1165 70.7221 77.1905 70.5647 77.2331 70.3976L76.5603 68.4952C76.5603 68.4952 74.644 66.435 73.6881 67.1449C72.7323 67.8549 74.3841 71.0193 75.6648 71.3024Z" fill="#AD6359"/>
<path d="M74.1846 68.0482C74.1846 68.0482 74.1846 68.0761 74.1846 68.0807C75.0847 68.3081 75.6415 69.0365 76.0684 69.8161C76.0074 69.7369 75.9298 69.672 75.8411 69.6259C75.7524 69.5798 75.6547 69.5537 75.5549 69.5492C75.455 69.5448 75.3554 69.5623 75.263 69.6003C75.1705 69.6384 75.0875 69.6962 75.0198 69.7697C75.0198 69.7697 75.0198 69.8207 75.0522 69.8114C75.1956 69.7434 75.3565 69.7216 75.5128 69.749C75.6691 69.7765 75.813 69.8518 75.9246 69.9645C76.1125 70.1528 76.279 70.3614 76.421 70.5863C76.4721 70.6559 76.602 70.5863 76.5602 70.5121C76.4257 69.4031 75.3678 67.9972 74.1846 68.0482Z" fill="#263238"/>
<path d="M75.7251 70.9909C75.7556 71.0762 75.8185 71.146 75.9002 71.1851C75.9819 71.2242 76.0757 71.2294 76.1613 71.1997C76.2076 71.188 76.2509 71.1668 76.2885 71.1374C76.3261 71.108 76.3572 71.0711 76.3797 71.029C76.4023 70.987 76.4158 70.9407 76.4195 70.8931C76.4231 70.8455 76.4168 70.7977 76.4009 70.7526C76.3851 70.7076 76.36 70.6664 76.3273 70.6316C76.2946 70.5969 76.255 70.5693 76.2111 70.5507C76.1671 70.532 76.1198 70.5228 76.0721 70.5235C76.0244 70.5242 75.9773 70.5348 75.9339 70.5547C75.8486 70.5852 75.7788 70.6481 75.7397 70.7298C75.7006 70.8115 75.6954 70.9053 75.7251 70.9909Z" fill="white"/>
<path d="M74.959 70.5629C74.9689 70.5931 74.9848 70.621 75.0057 70.6449C75.0266 70.6688 75.0521 70.6883 75.0807 70.7021C75.1092 70.716 75.1403 70.724 75.172 70.7256C75.2037 70.7272 75.2355 70.7223 75.2653 70.7114C75.3268 70.6905 75.3775 70.646 75.4062 70.5877C75.4349 70.5294 75.4393 70.4621 75.4184 70.4005C75.3975 70.339 75.353 70.2883 75.2947 70.2596C75.2364 70.2309 75.169 70.2265 75.1075 70.2474C75.0762 70.2572 75.0473 70.2734 75.0226 70.2949C74.9979 70.3164 74.9779 70.3429 74.9639 70.3725C74.95 70.4022 74.9423 70.4345 74.9415 70.4672C74.9406 70.5 74.9466 70.5326 74.959 70.5629Z" fill="white"/>
<path d="M70.4351 79.6133C66.4401 86.8471 61.5448 97.1154 62.7234 100.646C63.5864 103.231 75.669 111.235 79.5202 113.638C80.9122 114.501 88.2434 105.518 86.8654 104.456C85.0743 103.064 72.4025 96.0111 72.421 94.9439C72.421 94.3407 74.1981 85.1999 74.7735 81.1631C75.85 73.6138 71.8364 77.0799 70.4351 79.6133Z" fill="#AD6359"/>
<path d="M83.7292 102.785C83.7292 102.785 88.3692 103.045 91.4037 103.361C93.0927 103.537 95.9602 104.094 97.1434 104.79C98.9112 105.834 105.644 111.318 104.349 112.979C103.175 114.483 97.9925 109.035 97.9925 109.035C97.9925 109.035 103.709 114.07 101.964 115.619C100.22 117.169 95.1807 110.237 95.1807 110.237C95.1807 110.237 100.939 115.541 98.8927 116.858C97.3383 117.856 92.4199 111.824 92.4199 111.824C92.4199 111.824 97.3383 116.417 95.7885 117.508C94.0717 118.71 89.1858 113.434 89.1858 113.434C84.7778 115.545 80.5368 114.497 79.5207 113.638C79.1124 113.299 83.7292 102.785 83.7292 102.785Z" fill="#AD6359"/>
<path d="M96.1271 107.183C96.8184 107.754 97.5191 108.32 98.164 108.947C98.809 109.573 99.4215 110.227 100.02 110.909C100.794 111.787 101.465 112.751 102.02 113.782C100.902 112.023 98.6466 109.745 98.0063 109.118C97.366 108.492 96.7581 107.833 96.1178 107.211C96.0853 107.183 96.1085 107.156 96.1271 107.183Z" fill="#263238"/>
<path d="M93.8203 109.438C94.6741 110.198 95.5464 110.927 96.3677 111.725C97.189 112.523 97.8896 113.349 98.6506 114.198C98.7062 114.263 98.6506 114.277 98.5902 114.198C97.7968 113.377 97.0034 112.681 96.2006 111.878C95.3979 111.075 94.6277 110.222 93.8018 109.447L93.8203 109.438Z" fill="#263238"/>
<path d="M91.4913 111.029C92.8281 112.168 94.044 113.442 95.1198 114.83C95.1755 114.895 95.1198 114.899 95.0455 114.83C93.8624 113.544 92.9436 112.51 91.4542 111.071C91.431 111.057 91.4635 111.006 91.4913 111.029Z" fill="#263238"/>
<path d="M84.309 102.542L76.4627 112.286C76.4627 112.286 62.8397 104.162 62.0416 99.8C61.0811 94.5893 67.475 83.8198 70.6441 79.0824C73.8133 74.345 76.124 76.0989 75.0846 81.9499C74.0453 87.801 72.5744 94.7888 72.9781 95.1368C73.3817 95.4848 84.309 102.542 84.309 102.542Z" fill="#DBDBDB"/>
<path d="M74.6672 110.064C75.92 108.704 80.8431 102.964 81.8221 101.651C81.8871 101.563 81.8221 101.498 81.7618 101.582C79.2197 104.253 76.8324 107.068 74.6115 110.013C74.5837 110.045 74.6347 110.096 74.6672 110.064Z" fill="#263238"/>
<path d="M64.5605 88.8423L74.9773 87.5384C74.9773 87.5384 75.5898 82.2952 75.5202 79.3488C75.4321 75.4466 73.9612 74.5696 70.8802 78.2399C68.8479 80.6991 64.5605 88.8423 64.5605 88.8423Z" fill="#E1E0EB"/>
<path d="M73.9473 87.6949C74.2813 87.6215 74.6189 87.5657 74.9588 87.5278C75.0191 86.9107 75.0655 86.289 75.1305 85.6718C75.163 85.3656 75.2001 85.0547 75.2418 84.7438C75.2836 84.433 75.3207 84.0154 75.3625 83.7184C75.3625 83.672 75.4274 83.672 75.4274 83.7184C75.4274 84.1128 75.3903 84.4051 75.3764 84.7485C75.3764 84.9898 75.3486 85.2125 75.33 85.4723C75.33 85.412 75.3718 85.3517 75.3903 85.2914C75.4924 84.9666 75.6223 84.6557 75.7105 84.3262C75.7085 84.3213 75.7078 84.316 75.7083 84.3107C75.7089 84.3054 75.7108 84.3004 75.7137 84.296C75.7167 84.2916 75.7207 84.288 75.7254 84.2855C75.7301 84.283 75.7353 84.2817 75.7406 84.2817C75.7459 84.2817 75.7512 84.283 75.7559 84.2855C75.7605 84.288 75.7646 84.2916 75.7675 84.296C75.7705 84.3004 75.7724 84.3054 75.7729 84.3107C75.7735 84.316 75.7728 84.3213 75.7708 84.3262C75.6734 84.651 75.613 84.9851 75.5202 85.3146C75.4618 85.5666 75.3826 85.8133 75.2836 86.0523C75.2465 86.572 75.2604 87.1613 75.1908 87.6717C74.7791 87.7118 74.3651 87.7227 73.9519 87.7042L73.9473 87.6949Z" fill="#263238"/>
<path d="M65.4937 87.7186C66.997 87.4263 68.5004 87.1525 70.0176 86.9484C70.774 86.8463 73.8224 86.5911 74.5788 86.4844C74.6205 86.4844 74.6252 86.5401 74.5788 86.5493C73.6508 86.7489 70.6533 87.1293 69.897 87.2314C68.3844 87.4309 67.0017 87.533 65.4937 87.765C65.4565 87.7929 65.4565 87.7279 65.4937 87.7186Z" fill="#263238"/>
<path d="M44.3584 112.965C45.7294 112.965 46.8408 111.853 46.8408 110.482C46.8408 109.111 45.7294 108 44.3584 108C42.9874 108 41.876 109.111 41.876 110.482C41.876 111.853 42.9874 112.965 44.3584 112.965Z" fill="#37474F"/>
<path d="M44.3585 111.766C45.0684 111.766 45.6438 111.19 45.6438 110.481C45.6438 109.771 45.0684 109.195 44.3585 109.195C43.6487 109.195 43.0732 109.771 43.0732 110.481C43.0732 111.19 43.6487 111.766 44.3585 111.766Z" fill="#455A64"/>
<path d="M79.312 138.112C79.312 138.604 79.1661 139.085 78.8928 139.494C78.6196 139.903 78.2311 140.221 77.7767 140.41C77.3222 140.598 76.8222 140.647 76.3397 140.551C75.8573 140.455 75.4141 140.218 75.0663 139.871C74.7185 139.523 74.4816 139.08 74.3857 138.597C74.2897 138.115 74.339 137.615 74.5272 137.16C74.7154 136.706 75.0342 136.317 75.4432 136.044C75.8522 135.771 76.333 135.625 76.8249 135.625C77.4845 135.625 78.1171 135.887 78.5835 136.353C79.05 136.82 79.312 137.452 79.312 138.112Z" fill="#37474F"/>
<path d="M76.8244 139.399C77.5342 139.399 78.1096 138.823 78.1096 138.113C78.1096 137.404 77.5342 136.828 76.8244 136.828C76.1145 136.828 75.5391 137.404 75.5391 138.113C75.5391 138.823 76.1145 139.399 76.8244 139.399Z" fill="#455A64"/>
<path d="M75.9615 138.464L64.8208 111.418H44.3584V109.543H66.0782L77.6922 137.754L75.9615 138.464Z" fill="#455A64"/>
<path d="M85.8254 130.446H82.6748L86.4889 122.266H89.6395L85.8254 130.446Z" fill="#A6A6A6"/>
<path d="M95.5841 118.316H86.4386C86.4386 118.316 86.6243 123.815 82.5364 123.815C81.9877 123.842 81.443 123.71 80.9673 123.435C80.4917 123.16 80.1053 122.754 79.8545 122.265C79.8545 122.265 81.3625 125.462 84.1326 125.462H90.1971C91.8443 125.481 95.2732 124.348 95.5841 118.316Z" fill="#A6A6A6"/>
<path d="M78.917 118.316H88.081C88.081 118.316 87.8954 123.815 91.9832 123.815C92.5319 123.842 93.0767 123.71 93.5523 123.435C94.028 123.16 94.4143 122.754 94.6651 122.265C94.6651 122.265 93.1571 125.462 90.3871 125.462H84.3226C82.6754 125.481 79.2464 124.348 78.917 118.316Z" fill="#C7C7C7"/>
<path d="M72.9825 144.195C73.5283 144.195 73.9708 143.753 73.9708 143.207C73.9708 142.661 73.5283 142.219 72.9825 142.219C72.4366 142.219 71.9941 142.661 71.9941 143.207C71.9941 143.753 72.4366 144.195 72.9825 144.195Z" fill="#C7C7C7"/>
<path d="M73.3403 143.43L72.6211 142.984L81.7712 128.164H84.4021V129.013H82.2445L73.3403 143.43Z" fill="#A6A6A6"/>
</svg>
