<svg width="240" height="240" viewBox="0 0 240 240" fill="none" xmlns="http://www.w3.org/2000/svg">
<path d="M50.9475 152.568C47.4349 152.568 44.0012 151.526 41.0806 149.575C38.16 147.623 35.8836 144.85 34.5394 141.604C33.1952 138.359 32.8435 134.788 33.5288 131.343C34.214 127.898 35.9055 124.733 38.3893 122.25C40.8731 119.766 44.0376 118.074 47.4827 117.389C50.9278 116.704 54.4987 117.056 57.744 118.4C60.9892 119.744 63.7629 122.02 65.7144 124.941C67.6659 127.862 68.7075 131.295 68.7075 134.808C68.7075 139.518 66.8364 144.035 63.5057 147.366C60.1751 150.697 55.6578 152.568 50.9475 152.568ZM50.9475 117.873C47.5942 117.873 44.3159 118.866 41.5273 120.728C38.7386 122.591 36.5649 125.238 35.281 128.336C33.9971 131.434 33.6607 134.843 34.3143 138.132C34.9679 141.421 36.5822 144.442 38.953 146.813C41.3238 149.185 44.3447 150.8 47.6335 151.455C50.9223 152.109 54.3313 151.774 57.4295 150.491C60.5276 149.208 63.1757 147.035 65.0388 144.246C66.9019 141.458 67.8963 138.18 67.8963 134.827C67.8912 130.333 66.1041 126.025 62.9268 122.846C59.7495 119.668 55.4415 117.88 50.9475 117.873Z" fill="#EBEBEB"/>
<path d="M50.0542 155.078C49.7854 155.078 49.5166 155.049 49.2478 155.03L49.315 154.243C49.5694 154.243 49.8286 154.281 50.0878 154.291L50.0542 155.078ZM52.8766 155.006L52.7998 154.224C53.059 154.2 53.3134 154.166 53.5726 154.133L53.6782 154.915C53.4142 154.953 53.1502 154.982 52.8766 155.006ZM46.4542 154.598C46.1902 154.541 45.931 154.473 45.667 154.406L45.8734 153.643C46.123 153.71 46.3774 153.773 46.627 153.83L46.4542 154.598ZM56.4526 154.344L56.2366 153.581C56.4862 153.513 56.7166 153.437 56.9806 153.355L57.2254 154.109L56.4526 154.344ZM43.0126 153.48C42.763 153.374 42.5326 153.264 42.2734 153.149L42.6094 152.433C42.8446 152.549 43.0894 152.654 43.3198 152.755L43.0126 153.48ZM59.8558 153.048L59.5102 152.337C59.7454 152.222 59.9902 152.107 60.2014 151.982L60.5758 152.678C60.3262 152.803 60.0862 152.928 59.8414 153.048H59.8558ZM39.811 151.761C39.5854 151.613 39.3598 151.459 39.1438 151.281L39.6238 150.638C39.8302 150.792 40.0462 150.941 40.2622 151.08L39.811 151.761ZM62.9614 151.166L62.4814 150.528L63.0958 150.048L63.5758 150.662C63.3598 150.84 63.163 151.008 62.947 151.166H62.9614ZM36.9598 149.496C36.763 149.309 36.571 149.121 36.3838 148.925L36.9598 148.377C37.1422 148.565 37.3246 148.747 37.5118 148.925L36.9598 149.496ZM65.6734 148.761L65.1022 148.219C65.2798 148.032 65.4526 147.84 65.6254 147.643L66.2158 148.161C66.0334 148.368 65.8558 148.565 65.6686 148.761H65.6734ZM34.5598 146.765C34.4014 146.549 34.2478 146.328 34.0798 146.102L34.7374 145.665C34.8814 145.877 35.0302 146.093 35.1838 146.299L34.5598 146.765ZM67.9198 145.92L67.2622 145.488C67.4014 145.272 67.5406 145.051 67.675 144.83L68.3518 145.233C68.2126 145.44 68.0686 145.685 67.9198 145.92ZM32.6926 143.664C32.5726 143.419 32.4622 143.184 32.3518 142.929L33.0766 142.613C33.1822 142.853 33.2878 143.093 33.3982 143.318L32.6926 143.664ZM69.6526 142.704L68.9278 142.397C69.0286 142.157 69.1246 141.917 69.2158 141.672L69.955 141.95C69.835 142.205 69.7342 142.454 69.6286 142.704H69.6526ZM31.4302 140.256C31.3582 139.997 31.2958 139.737 31.2334 139.473L32.0014 139.291C32.059 139.545 32.1214 139.795 32.1934 140.045L31.4302 140.256ZM70.7566 139.238L69.9886 139.065C70.0462 138.816 70.0942 138.561 70.1422 138.307L70.9198 138.446C70.8478 138.72 70.795 138.974 70.7326 139.238H70.7566ZM30.7822 136.685C30.7566 136.416 30.7374 136.147 30.7246 135.878L31.4878 135.84C31.4878 136.099 31.507 136.358 31.5454 136.617L30.7822 136.685ZM71.2222 135.633L70.435 135.605C70.435 135.345 70.435 135.086 70.435 134.827V134.745H71.227V134.822C71.2174 135.101 71.2126 135.36 71.1982 135.633H71.2222ZM31.5358 133.118L30.7486 133.051C30.7486 132.782 30.8014 132.513 30.835 132.249L31.6174 132.345C31.5886 132.605 31.5598 132.859 31.5358 133.118ZM70.2286 132.038C70.1902 131.784 70.1518 131.525 70.1038 131.275L70.8814 131.131C70.9294 131.395 70.9726 131.659 71.011 131.928L70.2286 132.038ZM32.1598 129.681L31.3966 129.475C31.4702 129.216 31.547 128.957 31.627 128.697L32.3806 128.937C32.2894 129.182 32.2174 129.432 32.1598 129.681ZM69.427 128.64C69.3406 128.39 69.2542 128.16 69.163 127.905L69.9022 127.627C69.9982 127.877 70.0894 128.131 70.1758 128.385L69.427 128.64ZM33.3694 126.408L32.6398 126.072C32.755 125.827 32.875 125.592 33.0046 125.347L33.7006 125.717C33.5998 125.947 33.4798 126.177 33.3694 126.413V126.408ZM68.0254 125.448C67.9006 125.222 67.771 124.997 67.6366 124.776L68.3134 124.368C68.4526 124.598 68.587 124.848 68.7166 125.069L68.0254 125.448ZM35.155 123.413L34.5166 122.933C34.675 122.717 34.8382 122.501 34.9966 122.289L35.6158 122.769C35.467 122.995 35.3086 123.201 35.155 123.413ZM66.0766 122.553C65.9134 122.352 65.7534 122.155 65.5966 121.963L66.1918 121.44C66.3694 121.641 66.5422 121.848 66.7102 122.054L66.0766 122.553ZM37.4398 120.777L36.8926 120.206C37.0894 120.019 37.2862 119.837 37.4878 119.659L38.011 120.249C37.8286 120.422 37.6366 120.595 37.4398 120.777ZM63.6334 120.053C63.4366 119.88 63.235 119.717 63.0334 119.573L63.5134 118.953C63.7246 119.121 63.931 119.289 64.1374 119.467L63.6334 120.053ZM40.1614 118.613L39.7246 117.955L40.4062 117.518L40.819 118.195C40.6078 118.31 40.387 118.449 40.171 118.593L40.1614 118.613ZM60.8014 118.037L60.1246 117.657L60.4942 116.961C60.7342 117.091 60.9742 117.221 61.1998 117.36L60.8014 118.037ZM43.2382 116.928L42.9262 116.203C43.171 116.097 43.4062 115.997 43.6702 115.901L43.9582 116.635C43.7134 116.731 43.4734 116.827 43.2382 116.928ZM57.6382 116.529C57.3934 116.438 57.1582 116.357 56.899 116.275L57.1438 115.521C57.3982 115.608 57.6574 115.694 57.907 115.785L57.6382 116.529ZM46.5598 115.843L46.3822 115.075C46.6414 115.013 46.9054 114.96 47.1742 114.907L47.3182 115.685C47.0398 115.733 46.8046 115.785 46.5598 115.843ZM54.2734 115.627C54.019 115.584 53.7646 115.545 53.5054 115.512L53.6062 114.729C53.875 114.763 54.1438 114.806 54.4078 114.849L54.2734 115.627ZM50.0158 115.368L49.9774 114.581C50.2462 114.581 50.515 114.581 50.7886 114.557V115.349C50.5294 115.349 50.2702 115.353 50.011 115.368H50.0158Z" fill="#EBEBEB"/>
<path d="M48.2269 145.8H53.6941V137.553H61.9405V132.086H53.6941V123.84H48.2269V132.086H39.9805V137.553H48.2269V145.8Z" fill="#EBEBEB"/>
<path d="M200.079 62.107C197.12 66.0633 193.345 69.3373 189.011 71.707C184.686 69.3345 180.921 66.0607 177.971 62.107C174.073 56.9518 174.265 48.8782 179.838 47.131C186.001 45.211 189.03 54.4798 189.03 54.4798C189.03 54.4798 192.102 45.1438 198.227 47.131C203.761 48.9598 203.972 56.9518 200.079 62.107Z" fill="#EBEBEB"/>
<path d="M184.665 67.6318L182.985 60.6382L181.886 63.1054H175.104V62.3134H181.377L183.206 58.1902L184.516 63.643L186.369 52.3438L188.006 61.2814L189.297 57.5518L191.332 63.6622L191.784 62.3134H202.929V63.1006H192.355L191.332 66.1534L189.283 60.0046L187.766 64.3822L186.412 56.9662L184.665 67.6318Z" fill="white"/>
<path d="M189.03 75.0239C185.517 75.0239 182.083 73.9823 179.163 72.0308C176.242 70.0793 173.966 67.3056 172.621 64.0604C171.277 60.8152 170.926 57.2442 171.611 53.7991C172.296 50.354 173.988 47.1895 176.471 44.7057C178.955 42.2219 182.12 40.5304 185.565 39.8452C189.01 39.1599 192.581 39.5116 195.826 40.8558C199.071 42.2 201.845 44.4764 203.796 47.397C205.748 50.3176 206.79 53.7513 206.79 57.2639C206.79 61.9742 204.918 66.4915 201.588 69.8221C198.257 73.1528 193.74 75.0239 189.03 75.0239ZM189.03 40.3295C185.676 40.3295 182.399 41.3238 179.611 43.1867C176.823 45.0496 174.65 47.6974 173.366 50.7953C172.083 53.8931 171.748 57.3019 172.402 60.5906C173.056 63.8793 174.671 66.9001 177.042 69.2711C179.413 71.6421 182.433 73.2568 185.722 73.911C189.011 74.5651 192.42 74.2294 195.517 72.9462C198.615 71.663 201.263 69.49 203.126 66.702C204.989 63.914 205.983 60.6362 205.983 57.2831C205.982 52.7862 204.196 48.4738 201.017 45.2931C197.838 42.1125 193.526 40.3237 189.03 40.3199V40.3295Z" fill="#EBEBEB"/>
<path d="M188.16 77.5345C187.892 77.5345 187.623 77.5057 187.354 77.4817L187.421 76.6945C187.676 76.7185 187.935 76.7329 188.199 76.7473L188.16 77.5345ZM190.988 77.4625L190.911 76.6753C191.17 76.6513 191.429 76.6225 191.684 76.5889L191.789 77.3713C191.52 77.4049 191.232 77.4385 190.964 77.4625H190.988ZM184.56 77.0545C184.296 76.9969 184.037 76.9297 183.778 76.8625L183.98 76.0993C184.229 76.1665 184.484 76.2289 184.738 76.2865L184.56 77.0545ZM194.559 76.7953L194.343 76.0369C194.592 75.9649 194.823 75.8929 195.087 75.8113L195.332 76.5649C195.053 76.6465 194.794 76.7233 194.535 76.8001L194.559 76.7953ZM181.119 75.9361C180.869 75.8305 180.639 75.7201 180.38 75.6049L180.716 74.8897L181.426 75.2113L181.119 75.9361ZM197.967 75.4993L197.621 74.7889C197.852 74.6785 198.101 74.5585 198.308 74.4385L198.682 75.1297C198.408 75.2593 198.168 75.3841 197.928 75.4993H197.967ZM177.917 74.2129C177.692 74.0641 177.471 73.9105 177.25 73.7329L177.73 73.0897C177.941 73.2433 178.152 73.3873 178.368 73.5313L177.917 74.2129ZM201.068 73.6177L200.588 72.9841C200.799 72.8305 201 72.6721 201.202 72.5041L201.682 73.1233C201.461 73.2961 201.25 73.4401 201.029 73.6177H201.068ZM175.076 71.9521C174.879 71.7649 174.687 71.5729 174.5 71.3809L175.071 70.8337C175.25 71.0161 175.432 71.1985 175.618 71.3809L175.076 71.9521ZM203.789 71.2177L203.218 70.6705C203.396 70.4833 203.568 70.2913 203.741 70.0993L204.336 70.6177C204.12 70.8193 203.938 71.0401 203.751 71.2177H203.789ZM172.68 69.2209C172.522 69.0001 172.368 68.7841 172.2 68.5585L172.853 68.1169C172.997 68.3329 173.146 68.5441 173.3 68.7553L172.68 69.2209ZM206.045 68.3665L205.383 67.9345C205.522 67.7137 205.661 67.4977 205.796 67.2721L206.472 67.6801C206.295 67.9105 206.151 68.1601 206.007 68.3665H206.045ZM170.813 66.1057C170.693 65.8657 170.583 65.6257 170.477 65.3761L171.197 65.0593C171.303 65.2945 171.408 65.5393 171.524 65.7649L170.813 66.1057ZM207.773 65.1457L207.048 64.8385C207.149 64.6033 207.245 64.3585 207.336 64.1185L208.076 64.3969C207.917 64.6561 207.84 64.9105 207.711 65.1553L207.773 65.1457ZM169.556 62.7025C169.484 62.4433 169.416 62.1793 169.354 61.9201L170.122 61.7377C170.18 61.9921 170.247 62.2417 170.314 62.4913L169.556 62.7025ZM208.8 61.6945L208.028 61.5217C208.085 61.2673 208.138 61.0129 208.181 60.7585L208.959 60.8977C208.93 61.1665 208.877 61.4401 208.8 61.6945ZM168.821 59.1361C168.796 58.8705 168.776 58.6017 168.764 58.3297L169.551 58.2913C169.551 58.5505 169.584 58.8097 169.608 59.0641L168.821 59.1361ZM209.28 58.0801L208.488 58.0513C208.488 57.7921 208.488 57.5329 208.488 57.2737V57.1921H209.28V57.2689C209.28 57.5521 209.28 57.8209 209.28 58.0801ZM169.613 55.5649L168.831 55.4977C168.831 55.2289 168.879 54.9601 168.912 54.6913L169.7 54.7921C169.671 55.0561 169.642 55.3153 169.618 55.5745L169.613 55.5649ZM208.32 54.4945C208.287 54.2353 208.244 53.9809 208.196 53.7265L208.973 53.5825C209.021 53.8465 209.064 54.1153 209.103 54.3793L208.32 54.4945ZM170.242 52.1377L169.479 51.9313C169.551 51.6673 169.628 51.4129 169.709 51.1537L170.463 51.3937C170.4 51.6385 170.3 51.8881 170.232 52.1377H170.242ZM207.519 51.0961C207.437 50.8513 207.346 50.6161 207.255 50.3665L207.994 50.0833C208.09 50.3393 208.181 50.5937 208.268 50.8465L207.519 51.0961ZM171.461 48.8641L170.751 48.5233C170.866 48.2785 170.991 48.0433 171.116 47.8033L171.812 48.1729C171.682 48.3985 171.567 48.6337 171.452 48.8641H171.461ZM206.117 47.9041C205.992 47.6737 205.863 47.4529 205.728 47.2321L206.405 46.8241C206.544 47.0497 206.679 47.3041 206.808 47.5201L206.117 47.9041ZM173.252 45.8641L172.608 45.3841C172.768 45.1633 172.928 44.9473 173.088 44.7361L173.708 45.2161C173.549 45.4465 173.391 45.6577 173.242 45.8641H173.252ZM204.168 45.0097C204.005 44.8081 203.837 44.6113 203.664 44.4145L204.26 43.8961C204.437 44.0977 204.61 44.2993 204.778 44.5105L204.168 45.0097ZM175.541 43.2289L174.994 42.6625C175.191 42.4753 175.388 42.2929 175.589 42.1153L176.103 42.7201C175.911 42.8785 175.719 43.0513 175.532 43.2289H175.541ZM201.735 42.5041C201.538 42.3361 201.336 42.1729 201.135 42.0241L201.615 41.4049C201.826 41.5729 202.032 41.7457 202.239 41.9233L201.735 42.5041ZM178.268 41.0641L177.826 40.4113C178.052 40.2577 178.277 40.1137 178.508 39.9745L178.92 40.6513C178.69 40.7665 178.469 40.9057 178.258 41.0449L178.268 41.0641ZM198.908 40.4929C198.687 40.3633 198.461 40.2337 198.231 40.1137L198.6 39.4177C198.84 39.5425 199.08 39.6769 199.306 39.8113L198.908 40.4929ZM181.344 39.4033L181.032 38.6785C181.276 38.5729 181.525 38.4721 181.781 38.3761L182.064 39.1105C181.796 39.1825 181.56 39.2833 181.32 39.3841L181.344 39.4033ZM195.744 39.0001C195.5 38.9137 195.264 38.8273 195.01 38.7505L195.25 37.9969C195.509 38.0785 195.764 38.1649 196.018 38.2609L195.744 39.0001ZM184.656 38.3185L184.479 37.5457C184.738 37.4881 185.002 37.4305 185.271 37.3825L185.415 38.1553C185.141 38.1841 184.887 38.2417 184.637 38.2993L184.656 38.3185ZM192.37 38.1025C192.116 38.0593 191.861 38.0209 191.602 37.9873L191.703 37.2049C191.972 37.2385 192.24 37.2769 192.504 37.3249L192.37 38.1025ZM188.112 37.8433L188.079 37.0513C188.343 37.0513 188.612 37.0513 188.885 37.0513V37.8385C188.612 37.8049 188.352 37.8097 188.093 37.8241L188.112 37.8433Z" fill="#EBEBEB"/>
<path d="M70.7576 54.7801C74.0256 42.8832 67.0305 30.5896 55.1336 27.3216C43.2367 24.0536 30.9431 31.0486 27.6751 42.9456C24.4071 54.8425 31.4022 67.1361 43.2991 70.4041C55.196 73.6721 67.4896 66.677 70.7576 54.7801Z" fill="#EBEBEB"/>
<path d="M58.2894 69.1052C69.1912 64.6607 74.4259 52.2201 69.9814 41.3183C65.5369 30.4165 53.0963 25.1819 42.1945 29.6264C31.2927 34.0709 26.0581 46.5115 30.5025 57.4132C34.947 68.315 47.3876 73.5497 58.2894 69.1052Z" fill="#DBDBDB"/>
<path d="M50.2414 69.331C61.2695 69.331 70.2094 60.391 70.2094 49.363C70.2094 38.335 61.2695 29.395 50.2414 29.395C39.2134 29.395 30.2734 38.335 30.2734 49.363C30.2734 60.391 39.2134 69.331 50.2414 69.331Z" fill="white"/>
<path opacity="0.5" d="M69.763 45.1197C60.643 50.6301 45.7198 59.6685 37.3678 64.6221C35.0069 62.6313 33.1389 60.1209 31.9102 57.2877L59.5198 31.6797C62.1049 33.0361 64.3616 34.9423 66.1312 37.2642C67.9008 39.5861 69.1404 42.2674 69.763 45.1197Z" fill="#EBEBEB"/>
<path opacity="0.5" d="M70.2013 50.0591C70.129 52.2811 69.6827 54.475 68.8813 56.5487L43.9741 68.3279C42.8885 67.9716 41.8364 67.5202 40.8301 66.9791C48.3517 62.6303 62.0989 54.7199 70.2013 50.0591Z" fill="#EBEBEB"/>
<path d="M50.4348 30.8447H50.0508V33.8735H50.4348V30.8447Z" fill="#C7C7C7"/>
<path d="M41.149 33.2235L40.8164 33.4155L42.3308 36.0385L42.6634 35.8465L41.149 33.2235Z" fill="#C7C7C7"/>
<path d="M34.2975 39.9316L34.1055 40.2642L36.7285 41.7786L36.9205 41.446L34.2975 39.9316Z" fill="#C7C7C7"/>
<path d="M34.7515 49.1709H31.7227V49.5549H34.7515V49.1709Z" fill="#C7C7C7"/>
<path d="M36.7285 56.9412L34.1055 58.4556L34.2975 58.7881L36.9205 57.2737L36.7285 56.9412Z" fill="#C7C7C7"/>
<path d="M42.3309 62.6791L40.8184 65.3032L41.151 65.495L42.6636 62.8709L42.3309 62.6791Z" fill="#C7C7C7"/>
<path d="M50.4348 64.8574H50.0508V67.8862H50.4348V64.8574Z" fill="#C7C7C7"/>
<path d="M58.1548 62.6825L57.8223 62.8745L59.3367 65.4975L59.6692 65.3055L58.1548 62.6825Z" fill="#C7C7C7"/>
<path d="M63.9791 56.6825L63.7871 57.0166L66.4221 58.531L66.6141 58.1969L63.9791 56.6825Z" fill="#C7C7C7"/>
<path d="M68.7651 49.1709H65.7363V49.5549H68.7651V49.1709Z" fill="#C7C7C7"/>
<path d="M66.1875 39.9407L63.5645 41.4551L63.7565 41.7876L66.3795 40.2732L66.1875 39.9407Z" fill="#C7C7C7"/>
<path d="M59.3358 33.2265L57.8223 35.8501L58.1549 36.042L59.6684 33.4184L59.3358 33.2265Z" fill="#C7C7C7"/>
<path d="M50.5353 32.2128L51.1929 50.712L49.2969 50.688L50.0217 32.208L50.5353 32.2128Z" fill="#C7C7C7"/>
<path d="M62.0539 42.9121L49.6123 50.8561L48.7051 49.1905L61.8091 42.4609L62.0539 42.9121Z" fill="#A6A6A6"/>
<path d="M50.88 49.3633C50.88 49.4915 50.842 49.6168 50.7708 49.7233C50.6996 49.8299 50.5984 49.913 50.48 49.962C50.3616 50.0111 50.2313 50.0239 50.1056 49.9989C49.9799 49.9739 49.8644 49.9122 49.7738 49.8215C49.6832 49.7309 49.6214 49.6155 49.5964 49.4898C49.5714 49.3641 49.5843 49.2338 49.6333 49.1154C49.6824 48.9969 49.7654 48.8957 49.872 48.8245C49.9785 48.7533 50.1038 48.7153 50.232 48.7153C50.4038 48.7153 50.5687 48.7836 50.6902 48.9051C50.8117 49.0267 50.88 49.1915 50.88 49.3633Z" fill="#C7C7C7"/>
<path d="M39.6438 156.989L33.3462 157.118L30.1494 157.176C29.079 157.176 28.0038 157.176 26.9334 157.2H26.7222V156.989L26.6934 151.617V151.373H26.9334L33.2886 151.401C35.4102 151.401 37.527 151.454 39.6438 151.478H39.7782V151.608C39.7782 152.515 39.735 153.422 39.7158 154.32L39.6438 156.989ZM39.6438 156.989L39.5766 154.272C39.5766 153.379 39.5238 152.496 39.5142 151.617L39.6438 151.747C37.527 151.771 35.4102 151.824 33.2886 151.824L26.9334 151.857L27.1734 151.617V156.989L26.9574 156.773C28.0038 156.773 29.0502 156.773 30.1014 156.797L33.2598 156.854L39.6438 156.989Z" fill="#EBEBEB"/>
<path d="M32.5539 163.762L26.2563 163.891L23.0595 163.949C21.9891 163.949 20.9139 163.949 19.8435 163.973H19.6323V163.762L19.6035 158.4V158.155H19.8435L26.1987 158.184C28.3155 158.184 30.4371 158.237 32.5539 158.261H32.6883V158.4C32.6883 159.307 32.6499 160.214 32.6259 161.112L32.5539 163.762ZM32.5539 163.762L32.4867 161.045C32.4627 160.152 32.4339 159.269 32.4243 158.39L32.5539 158.52C30.4371 158.544 28.3155 158.597 26.1987 158.597L19.8435 158.626L20.0835 158.39L20.0595 163.762L19.8435 163.546C20.8899 163.546 21.9363 163.546 22.9875 163.546L26.1459 163.603L32.5539 163.762Z" fill="#EBEBEB"/>
<path d="M162.528 97.1952L156.225 97.3296L153.028 97.3824C151.963 97.4064 150.888 97.3824 149.817 97.4112H149.606V97.1952L149.582 91.824V91.584H149.822L156.177 91.6176C158.294 91.6176 160.416 91.6704 162.532 91.6944H162.667V91.824C162.667 92.736 162.628 93.6432 162.604 94.5408L162.528 97.1952ZM162.528 97.1952L162.46 94.4832C162.46 93.5904 162.408 92.7024 162.398 91.824L162.528 91.9584C160.411 91.9584 158.289 92.0304 156.172 92.0352L149.817 92.064L150.057 91.824L150.028 97.1952L149.817 96.984C150.864 96.984 151.91 96.984 152.956 96.984L156.115 97.0368L162.528 97.1952Z" fill="#EBEBEB"/>
<path d="M155.438 103.968L149.135 104.102L145.919 104.16C144.854 104.16 143.779 104.16 142.708 104.189H142.492V103.973V98.6013V98.3613H142.732L149.087 98.3949C151.204 98.3949 153.321 98.4477 155.443 98.4717H155.572V98.6013C155.572 99.5133 155.529 100.421 155.51 101.318L155.438 103.968ZM155.438 103.968L155.371 101.256C155.347 100.363 155.313 99.4749 155.303 98.5965L155.438 98.7309C153.316 98.7549 151.199 98.8029 149.083 98.8077L142.727 98.8365L142.967 98.5965L142.939 103.968L142.727 103.757C143.774 103.757 144.82 103.757 145.867 103.781L149.025 103.833L155.438 103.968Z" fill="#EBEBEB"/>
<path d="M148.372 97.1952L142.075 97.3296L138.878 97.3824C137.807 97.4064 136.737 97.3824 135.662 97.4112H135.451V97.1952L135.422 91.824V91.584H135.662L142.017 91.6176C144.139 91.6176 146.255 91.6704 148.372 91.6944H148.507V91.824C148.507 92.736 148.463 93.6432 148.444 94.5408L148.372 97.1952ZM148.372 97.1952L148.305 94.4832C148.305 93.5904 148.252 92.7024 148.243 91.824L148.372 91.9584C146.255 91.9584 144.139 92.0304 142.017 92.0352L135.662 92.064L135.902 91.824L135.878 97.1952L135.662 96.984C136.713 96.984 137.755 96.984 138.806 96.984L141.964 97.0368L148.372 97.1952Z" fill="#EBEBEB"/>
<path d="M220.157 163.762L213.855 163.891L210.658 163.949C209.593 163.949 208.517 163.949 207.447 163.973H207.231V163.762L207.207 158.4V158.155H207.447L213.802 158.184C215.919 158.184 218.041 158.237 220.157 158.261H220.287V158.4C220.287 159.307 220.249 160.214 220.225 161.112L220.157 163.762ZM220.157 163.762L220.09 161.045C220.09 160.152 220.033 159.269 220.028 158.39L220.157 158.52C218.041 158.544 215.919 158.597 213.802 158.597L207.447 158.626L207.687 158.39L207.658 163.762L207.447 163.546C208.493 163.546 209.54 163.546 210.586 163.546L213.745 163.603L220.157 163.762Z" fill="#EBEBEB"/>
<path d="M213.067 32.3952L206.765 32.5248L203.568 32.5824C202.503 32.5824 201.427 32.5824 200.357 32.6064H200.16V32.3904V27.0192V26.7744H200.405L206.76 26.8032C208.877 26.8032 210.994 26.856 213.115 26.88H213.245V27.0096C213.245 27.9216 213.202 28.824 213.183 29.7216L213.067 32.3952ZM213.067 32.3952L213 29.6784C212.976 28.7856 212.943 27.9024 212.933 27.024L213.067 27.1536C210.946 27.1536 208.829 27.2304 206.712 27.2304L200.357 27.264L200.597 27.024L200.568 32.3952L200.357 32.1792C201.403 32.1792 202.445 32.1792 203.496 32.208L206.655 32.2608L213.067 32.3952Z" fill="#EBEBEB"/>
<path d="M220.157 39.1678L213.855 39.2974L210.658 39.355C209.593 39.355 208.517 39.355 207.447 39.379H207.231V39.1678L207.207 33.7966V33.5518H207.447L213.802 33.5806C215.919 33.5806 218.041 33.6334 220.157 33.6574H220.287V33.787C220.287 34.6942 220.249 35.6014 220.225 36.499L220.157 39.1678ZM220.157 39.1678L220.09 36.451C220.09 35.5582 220.033 34.675 220.028 33.7966L220.157 33.9262C218.041 33.9262 215.919 34.003 213.802 34.003L207.447 34.0366L207.687 33.7966L207.658 39.1678L207.447 38.9518C208.493 38.9518 209.54 38.9518 210.586 38.9806L213.745 39.0334L220.157 39.1678Z" fill="#EBEBEB"/>
<path d="M39.6438 32.3953L33.3462 32.5249L30.1494 32.5825C29.079 32.5825 28.0038 32.5825 26.9334 32.6065H26.7222V32.3905L26.6934 27.0241V26.7793H26.9334L33.2886 26.8081C35.4102 26.8081 37.527 26.8609 39.6438 26.8849H39.7782V27.0145C39.7782 27.9265 39.735 28.8289 39.7158 29.7265L39.6438 32.3953ZM39.6438 32.3953L39.5766 29.6785C39.5766 28.7857 39.5238 27.9025 39.5142 27.0241L39.6438 27.1537C37.527 27.1537 35.4102 27.2305 33.2886 27.2305L26.9334 27.2641L27.1734 27.0241V32.3953L26.9334 32.1601C27.9798 32.1601 29.0262 32.1601 30.0774 32.1889L33.2358 32.2417L39.6438 32.3953Z" fill="#EBEBEB"/>
<path d="M109.013 38.9665C110.266 38.9281 115.512 37.4545 119.852 41.7409C123.96 45.7969 127.383 59.5921 128.588 62.5249C129.792 65.4577 133.868 65.2801 135.36 68.6401C136.656 71.5537 134.621 73.0273 134.746 75.2929C134.847 77.0545 137.007 79.3729 135.835 82.1857C134.775 84.7441 132.168 84.6577 130.757 85.6321C129.346 86.6065 128.962 90.2881 126.288 91.6945C123.615 93.1009 120.711 90.9217 119.213 91.1761C117.716 91.4305 116.674 96.3121 111.72 96.6913C106.767 97.0705 104.693 93.1585 102.543 92.6641C100.392 92.1697 95.5491 94.3921 92.8323 92.2369C90.1155 90.0817 89.1795 86.7793 87.9363 85.7089C86.6931 84.6385 84.5475 85.1809 82.7955 82.5169C81.0435 79.8529 83.4147 77.6065 83.3955 75.0577C83.3955 73.2817 81.5859 71.9329 82.2435 69.1105C83.1507 65.2321 87.7299 65.2993 88.8339 61.2865C89.6979 58.1425 90.4131 44.9665 97.6179 40.5745C102.61 37.5745 109.013 38.9665 109.013 38.9665Z" fill="#263238"/>
<path d="M128.322 61.8145C128.72 62.4155 129.259 62.9099 129.892 63.2545L131.701 64.3729C132.925 65.038 134.036 65.8917 134.994 66.9025C135.44 67.3849 135.768 67.9639 135.953 68.5943C136.138 69.2246 136.175 69.8892 136.06 70.5361C135.906 71.1919 135.652 71.8201 135.306 72.3985C134.905 73.0334 134.599 73.724 134.399 74.4481C134.332 75.2451 134.531 76.0419 134.965 76.7137C135.297 77.3569 135.652 77.9617 135.949 78.5857C136.549 79.8145 136.871 81.1729 136.429 82.4257C136.236 83.048 135.838 83.5873 135.301 83.9569C134.727 84.3205 134.088 84.5698 133.42 84.6913C132.738 84.8497 132.037 84.9409 131.332 85.0609C130.613 85.1216 129.929 85.3976 129.369 85.8529C129.966 85.4781 130.656 85.2785 131.361 85.2769C132.066 85.2145 132.777 85.1857 133.492 85.0801C134.226 84.9881 134.936 84.7532 135.58 84.3889C136.241 83.9812 136.748 83.3647 137.02 82.6369C137.629 81.1969 137.217 79.5553 136.612 78.2641C136.314 77.6017 135.959 76.9729 135.652 76.3441C135.306 75.8187 135.138 75.1962 135.172 74.5681C135.412 73.3873 136.511 72.1681 136.761 70.6609C136.892 69.9062 136.84 69.131 136.608 68.4008C136.377 67.6706 135.973 67.0068 135.431 66.4657C134.383 65.4645 133.182 64.6365 131.874 64.0129L129.954 63.0529C129.327 62.7632 128.77 62.3407 128.322 61.8145Z" fill="#263238"/>
<path d="M91.6797 48.9268C90.6909 51.2836 90.2397 53.8132 89.5581 56.242C89.2125 57.4564 88.9101 58.6852 88.4781 59.8564C88.2843 60.4297 88.0283 60.9802 87.7149 61.498C87.6515 61.6179 87.5688 61.7265 87.4701 61.8196C87.3828 61.9246 87.2809 62.0168 87.1677 62.0932C86.9277 62.2756 86.6877 62.4436 86.4045 62.6068C85.3067 63.2697 84.243 63.9874 83.2173 64.7572C82.1326 65.5585 81.324 66.6774 80.9037 67.9588C80.7079 68.6151 80.6814 69.3103 80.8269 69.9796C81.0029 70.6216 81.2993 71.2243 81.7005 71.7556C82.4637 72.778 83.1933 73.8052 83.4333 75.0772C83.3853 73.7812 82.6749 72.61 82.0317 71.5396C81.6965 71.0328 81.4589 70.4679 81.3309 69.874C81.2396 69.2911 81.2991 68.6945 81.5037 68.1412C81.9426 67.0151 82.6977 66.04 83.6781 65.3332C84.6986 64.5982 85.756 63.9157 86.8461 63.2884C87.1149 63.1108 87.3837 62.9284 87.6477 62.722C87.9221 62.5014 88.1504 62.2291 88.3197 61.9204C88.6568 61.3477 88.9289 60.7391 89.1309 60.106C89.5371 58.8892 89.8673 57.6484 90.1197 56.3908L90.8493 52.6468C91.0532 51.3916 91.3304 50.1495 91.6797 48.9268Z" fill="#263238"/>
<path d="M86.6211 85.0659C87.2691 85.6995 87.4899 86.6259 87.8307 87.4659C88.1715 88.3059 88.4883 89.1651 88.8627 90.0051C89.2267 90.8619 89.6804 91.6776 90.2163 92.4387C90.7658 93.2428 91.502 93.9016 92.3619 94.3587C94.2483 95.1795 96.2547 94.7235 97.9587 94.1235C98.8275 93.8163 99.6627 93.4659 100.517 93.1635C101.349 92.8194 102.25 92.6779 103.147 92.7507C102.247 92.5189 101.302 92.5288 100.407 92.7795C99.5091 92.9907 98.6451 93.2595 97.7715 93.5091C96.0723 93.9891 94.2195 94.2915 92.7075 93.6051C91.9614 93.2047 91.3189 92.6361 90.8307 91.9443C90.3005 91.2331 89.8285 90.4803 89.4195 89.6931C88.9875 88.9011 88.5987 88.0851 88.1907 87.2931C87.9795 86.8851 87.7635 86.4819 87.5283 86.0883C87.3178 85.6759 87.0055 85.324 86.6211 85.0659Z" fill="#263238"/>
<path d="M133.751 194.923H92.1732L89.7012 143.496H126.853L133.751 194.923Z" fill="#37474F"/>
<path d="M115.218 143.496L110.826 178.325L110.821 178.378L110.725 179.103L110.548 180.528L110.346 182.117L110.274 182.683L110.216 183.139L108.733 194.923H92.1732L89.7012 143.496H115.218Z" fill="#263238"/>
<path d="M125.309 194.924H124.209C124.152 194.468 124.099 194.016 124.041 193.56C122.563 181.56 121.128 169.56 119.88 157.56C119.765 156.461 119.649 155.357 119.539 154.258C119.539 154.085 119.817 154.052 119.841 154.224C119.942 154.964 120.048 155.703 120.144 156.442C121.92 169.258 123.609 182.093 125.309 194.924Z" fill="#263238"/>
<path d="M123.082 143.458C123.083 143.47 123.083 143.483 123.082 143.496C122.971 144.01 121.757 149.645 120.154 156.456C120.067 156.826 119.981 157.2 119.89 157.574C119.179 160.546 118.407 163.69 117.624 166.694C115.935 173.218 114.202 179.064 113.021 180.989C112.892 181.227 112.714 181.435 112.498 181.598C112.114 181.824 111.298 182.227 110.285 182.702L109.613 183.014L109.037 183.278C106.733 184.334 103.963 185.544 102.682 186.077V186.178L102.235 194.933H63.0723L67.2195 169.973L72.2259 143.482L123.082 143.458Z" fill="#37474F"/>
<path d="M115.88 179.885C111.324 181.543 106.92 183.594 102.719 186.014C102.687 186.033 102.663 186.063 102.651 186.098C102.64 186.134 102.643 186.172 102.658 186.206C102.674 186.239 102.702 186.266 102.736 186.28C102.77 186.295 102.808 186.296 102.843 186.283C107.274 184.363 111.795 182.558 116.115 180.413C116.185 180.382 116.24 180.324 116.268 180.252C116.295 180.181 116.293 180.101 116.262 180.031C116.231 179.961 116.173 179.906 116.101 179.879C116.03 179.852 115.95 179.854 115.88 179.885Z" fill="#263238"/>
<path d="M117.215 149.529C117.215 149.376 116.936 149.342 116.936 149.529C116.97 154.809 116.634 159.417 116.192 164.337C115.986 166.617 114.152 179.218 110.192 178.315C109.53 178.162 109.189 177.509 109.088 176.51C108.963 175.306 109.415 173.837 109.611 172.642C110.053 170.002 110.403 167.361 110.629 164.683C111.092 159.717 111.039 154.715 110.471 149.76C110.465 149.73 110.449 149.704 110.426 149.685C110.403 149.666 110.373 149.655 110.343 149.655C110.313 149.655 110.284 149.666 110.261 149.685C110.238 149.704 110.222 149.73 110.216 149.76C110.216 156.653 110.039 163.531 109.011 170.362C108.531 173.64 106.861 178.579 110.293 179.088C113.725 179.597 116.053 171.326 116.475 169.061C117.666 162.72 117.714 155.923 117.215 149.529Z" fill="#263238"/>
<path d="M110.298 178.637C109.943 179.487 109.645 180.359 109.405 181.248C109.153 181.937 109.027 182.665 109.036 183.398C109.036 183.538 109.237 183.552 109.309 183.456C109.721 182.811 110.032 182.107 110.231 181.368C110.533 180.557 110.85 179.755 111.128 178.939C111.168 178.829 111.163 178.708 111.114 178.601C111.064 178.495 110.974 178.413 110.864 178.373C110.754 178.333 110.633 178.338 110.526 178.388C110.42 178.437 110.338 178.527 110.298 178.637Z" fill="#263238"/>
<path d="M81.0045 181.258C80.6109 185.818 80.1453 190.378 79.6557 194.923H79.2285C79.7085 190.363 80.2557 185.803 80.8461 181.253C80.8605 181.152 81.0141 181.152 81.0045 181.258Z" fill="#263238"/>
<path d="M107.879 97.4687C111.464 109.161 126.983 150.926 137.389 157.291C144.2 161.453 178.41 163.819 184.991 160.766C188.643 159.067 187.506 131.438 183.2 131.285C177.829 131.093 151.424 130.382 148.501 128.985C145.578 127.589 125.855 101.213 118.338 93.2207C105.383 79.4351 105.488 89.6831 107.879 97.4687Z" fill="#AD6359"/>
<path d="M175.018 129.211L170.141 163.003C170.141 163.003 142.359 163.819 134.784 157.622C123.989 148.8 108.509 104.16 106.752 97.1759C102.591 80.6159 111.864 83.3807 119.16 91.4159C123.898 96.6479 142.536 123.413 149.439 128.342C151.397 129.758 175.018 129.211 175.018 129.211Z" fill="#EBEBEB"/>
<path d="M163.296 161.347C163.867 156.331 166.953 135.907 167.918 131.525C167.985 131.222 168.196 131.189 168.168 131.525C166.819 146.592 164.328 156.485 163.497 161.371C163.473 161.486 163.281 161.477 163.296 161.347Z" fill="#263238"/>
<path d="M126.868 130.949L131.51 162.869C131.51 162.869 79.4871 163.637 66.5703 162.73C66.5703 162.73 77.1063 103.052 90.9927 87.9699C97.9383 80.4291 106.094 80.9955 111.292 86.2659C112.607 87.6003 128.298 108.346 129.95 116.261C131.39 123.25 126.868 130.949 126.868 130.949Z" fill="#C2C7D6"/>
<path d="M106.598 127.387C109.372 127.137 112.16 127.09 114.94 127.248C116.318 127.349 117.686 127.507 119.054 127.699C119.736 127.795 120.422 127.867 121.104 127.934C121.821 128.023 122.546 128.023 123.264 127.934C123.326 127.934 123.34 128.021 123.264 128.035C122.599 128.187 121.926 128.296 121.248 128.362C120.589 128.407 119.928 128.407 119.27 128.362C117.868 128.275 116.472 128.126 115.07 128.026C112.248 127.824 109.425 127.618 106.593 127.622C106.473 127.622 106.468 127.402 106.598 127.387Z" fill="#263238"/>
<path d="M100.319 131.04C102.529 130.397 104.772 129.877 107.039 129.485C108.172 129.293 109.31 129.168 110.457 129.072C110.999 129.029 111.551 128.99 112.098 128.962C112.646 128.933 113.308 128.962 113.908 128.962C113.97 128.962 113.99 129.053 113.908 129.062C113.342 129.115 112.78 129.264 112.218 129.355L110.519 129.614C109.391 129.792 108.263 129.984 107.126 130.152C104.86 130.483 102.604 130.838 100.348 131.251C100.204 131.237 100.185 131.064 100.319 131.04Z" fill="#263238"/>
<path d="M100.021 194.923H58.9766C63.7766 164.77 69.5366 133.887 75.0806 118.344C87.0134 84.8353 96.7526 83.5537 96.7526 83.5537V83.5921C96.8054 85.0081 98.1926 122.991 99.2582 163.162C99.5462 173.808 99.8102 184.608 100.021 194.923Z" fill="#EBEBEB"/>
<path d="M93.2452 176.928C93.2452 175.757 92.986 170.208 92.8804 169.09C92.8804 168.96 92.8324 168.701 92.7268 168.701C91.1956 168.701 85.882 169.243 80.53 169.243C76.7029 169.171 72.8834 168.873 69.0916 168.351C68.914 168.403 68.914 174.499 68.818 177.447C68.626 183.595 68.9092 190.551 70.2196 191.847C72.6676 194.247 79.1908 194.04 81.2596 194.021C83.3284 194.002 90.6196 193.997 92.3332 190.234C93.0628 188.549 93.2644 179.967 93.2452 176.928ZM92.2852 183.168C92.1988 186.202 92.1028 188.928 90.9364 190.527C89.938 191.875 87.1204 193.234 80.6356 193.229C75.9508 193.229 71.9956 192.37 70.9156 191.122C69.6196 189.629 69.4756 185.338 69.4756 182.775C69.4756 179.237 69.4756 176.41 69.4756 172.877C78.5332 174.979 88.498 173.943 92.2756 173.179C92.29 173.328 92.3716 180.792 92.2996 183.168H92.2852ZM92.3092 172.608C80.5444 174.12 73.2628 172.858 69.49 172.128C69.49 170.995 69.49 170.112 69.49 168.975C71.1076 169.383 76.5508 170.031 80.6308 170.031C84.4276 170.031 90.0052 169.503 92.3716 169.219C92.3044 170.151 92.3524 172.176 92.3236 172.603L92.3092 172.608Z" fill="#DBDBDB"/>
<path d="M95.5195 99.3072C93.2107 108.864 81.3355 142.858 78.3835 145.805C74.8651 149.318 59.5243 160.123 54.1771 145.738C50.4715 135.778 75.6523 100.862 87.5515 89.5776C93.3595 84.1008 99.3835 83.2944 95.5195 99.3072Z" fill="#EBEBEB"/>
<path d="M91.4587 116.722C90.7387 118.051 89.9467 119.343 89.1691 120.639C89.3515 120.159 89.5291 119.679 89.7019 119.199C90.4507 117.13 91.1419 115.037 91.9051 112.959C91.9339 112.891 91.8283 112.867 91.7995 112.93C90.9979 114.73 90.1483 116.515 89.3659 118.33C88.5835 120.144 87.9259 121.891 87.2155 123.691C85.8187 127.315 84.4027 130.935 83.1067 134.597C82.3397 136.621 81.6828 138.685 81.1387 140.779C81.1387 140.837 81.2107 140.88 81.2395 140.823C82.0987 139.09 82.7755 137.266 83.4667 135.461C84.1579 133.656 84.8491 131.871 85.5211 130.066C86.1931 128.261 86.9083 126.394 87.6187 124.565C87.9739 123.643 88.3435 122.731 88.7035 121.815C89.8059 120.214 90.7435 118.506 91.5019 116.717C91.5115 116.717 91.4683 116.698 91.4587 116.722Z" fill="#263238"/>
<path d="M96.3204 83.5972C95.0404 86.298 93.7988 89.018 92.5956 91.7572C91.3956 94.4932 90.1572 97.21 88.9956 99.9652L88.8516 100.311L89.1636 100.522L94.1988 103.925L94.0788 103.2C92.7108 105.245 91.386 107.314 90.0516 109.378L89.922 109.58L89.994 109.8C91.3428 113.981 92.6436 118.176 94.0596 122.338C95.4756 126.5 96.8628 130.666 98.3508 134.818C97.2084 130.568 96.0116 126.34 94.7604 122.132C93.5508 117.908 92.226 113.722 90.9492 109.517L90.8916 109.94C92.2452 107.89 93.6084 105.845 94.9332 103.772L95.2068 103.34L94.7892 103.066L89.6916 99.754L89.8644 100.311C91.0068 97.5508 92.0628 94.7572 93.1668 91.9828C94.2708 89.2084 95.2932 86.4004 96.3204 83.5972Z" fill="#DBDBDB"/>
<path d="M136.525 194.923H121.703C120.825 184.541 119.922 173.688 119.029 163.018C117.757 147.768 116.5 132.888 115.329 120.264C114.282 108.516 112.433 96.8538 109.794 85.3584C109.727 85.0656 109.684 84.8784 109.674 84.8544C109.665 84.8304 109.674 84.8544 109.674 84.8544C110.267 85.2236 110.797 85.6855 111.244 86.2224C111.259 86.2396 111.275 86.2556 111.292 86.2704L111.45 86.448C111.493 86.4904 111.533 86.5353 111.57 86.5824C114.119 89.3808 118.381 95.1024 122.173 100.982C125.831 106.646 129.057 112.45 129.853 115.896L129.897 116.088C129.921 116.198 129.94 116.304 129.959 116.41C130.116 117.323 130.204 118.248 130.223 119.174C130.259 122.962 129.279 126.689 127.386 129.97C127.374 129.998 127.359 130.025 127.343 130.051C127.218 130.262 127.141 130.373 127.141 130.373V130.426L131.999 163.68L136.525 194.923Z" fill="#EBEBEB"/>
<path d="M124.827 105.85C123.387 103.536 121.885 101.247 120.459 98.9137C120.416 98.8465 120.522 98.7697 120.57 98.8321C122.01 100.752 123.45 102.672 124.847 104.626C124.367 103.584 123.93 102.538 123.512 101.472C123.464 101.352 123.632 101.251 123.69 101.371C124.338 102.739 124.919 104.131 125.495 105.533C126.748 107.271 127.859 109.107 128.816 111.024C130.799 115.099 131.653 119.554 130.578 124.008C130.286 125.239 129.851 126.431 129.282 127.56C128.898 128.328 127.645 129.999 127.655 130.047C128.471 134.597 129.095 139.2 129.723 143.779C130.352 148.359 131.029 153.043 131.571 157.699C131.874 160.33 132.051 162.979 132.455 165.605C132.455 165.701 132.32 165.739 132.306 165.643C131.975 163.359 131.48 161.098 131.072 158.823C130.664 156.547 130.285 154.272 129.915 151.987C129.176 147.379 128.514 142.752 127.847 138.13C127.472 135.519 127.059 132.903 126.762 130.277C126.728 129.989 127.909 128.127 128.259 127.397C128.726 126.43 129.108 125.425 129.402 124.392C130.003 122.293 130.188 120.097 129.949 117.927C129.445 113.501 127.151 109.56 124.827 105.85Z" fill="#263238"/>
<path d="M109.795 85.3584C111.325 87.6816 112.881 89.984 114.465 92.2656C116.059 94.5408 117.614 96.8448 119.237 99.096L119.27 98.5584L115.373 102.643L115.051 102.979L115.392 103.31C117.033 104.899 118.704 106.459 120.369 108.024L120.23 107.621C119.625 111.854 118.977 116.078 118.44 120.322C117.902 124.565 117.331 128.803 116.865 133.056C117.672 128.851 118.406 124.642 119.112 120.422C119.817 116.203 120.475 111.979 121.147 107.76L121.185 107.52L121.008 107.352C119.361 105.768 117.715 104.179 116.045 102.624V103.291L119.885 99.1344L120.125 98.8752L119.918 98.5968C118.281 96.3552 116.558 94.1616 114.907 91.9392C113.256 89.7168 111.528 87.5376 109.795 85.3584Z" fill="#DBDBDB"/>
<path d="M91.0558 90.7539C90.667 85.0755 97.5454 82.8195 101.798 82.2339C106.833 81.5427 110.189 81.9603 112.613 86.8467C115.166 91.9971 116.505 97.9731 117.509 103.613C117.696 104.664 119.337 104.4 119.15 103.344C117.993 96.8499 116.333 84.7299 109.862 81.2067C103.905 77.9571 88.7422 81.3987 89.4142 91.0179C89.4862 92.0883 91.1278 91.8147 91.0558 90.7539Z" fill="#455A64"/>
<path d="M122.602 105.97C122.728 106.721 122.628 107.492 122.314 108.186C122.001 108.88 121.488 109.465 120.842 109.867C120.195 110.269 119.443 110.47 118.682 110.443C117.921 110.417 117.185 110.165 116.568 109.72C115.95 109.274 115.479 108.655 115.214 107.941C114.95 107.227 114.903 106.451 115.08 105.71C115.258 104.97 115.652 104.299 116.211 103.783C116.771 103.267 117.472 102.928 118.224 102.811C118.719 102.731 119.225 102.749 119.712 102.865C120.2 102.98 120.661 103.19 121.067 103.484C121.474 103.777 121.818 104.147 122.082 104.574C122.345 105.001 122.522 105.475 122.602 105.97Z" fill="#263238"/>
<path d="M121.099 106.215C121.168 106.664 121.103 107.123 120.911 107.535C120.72 107.947 120.41 108.292 120.023 108.529C119.635 108.765 119.185 108.881 118.732 108.862C118.278 108.844 117.84 108.691 117.473 108.423C117.106 108.156 116.826 107.786 116.669 107.359C116.512 106.933 116.485 106.47 116.591 106.028C116.697 105.587 116.931 105.186 117.265 104.878C117.598 104.569 118.015 104.366 118.464 104.295C118.763 104.246 119.069 104.257 119.364 104.328C119.659 104.398 119.937 104.527 120.182 104.705C120.427 104.884 120.634 105.109 120.791 105.368C120.949 105.627 121.053 105.915 121.099 106.215Z" fill="#EBEBEB"/>
<path d="M96.8308 108.542C101.031 124.493 100.383 128.39 99.058 130.224C98.0594 131.507 96.7781 132.542 95.314 133.248L94.834 132.197L95.074 132.72L94.834 132.197C96.1131 131.569 97.2362 130.664 98.122 129.547C99.082 128.222 99.8692 124.632 95.722 108.835L96.8308 108.542Z" fill="#C7C7C7"/>
<path d="M92.7835 133.165L93.4626 134.391C93.6051 134.648 93.9294 134.741 94.1868 134.599L96.765 133.171C97.0224 133.028 97.1155 132.704 96.9729 132.447L96.2938 131.221C96.1513 130.963 95.827 130.87 95.5696 131.013L92.9914 132.441C92.734 132.583 92.6409 132.907 92.7835 133.165Z" fill="#263238"/>
<path d="M86.3987 108.96C83.2355 120.96 82.4723 127.565 83.9987 129.672C84.8842 130.787 86.0075 131.691 87.2867 132.317L86.8067 133.373C85.3425 132.667 84.0613 131.632 83.0627 130.349C81.2483 127.843 81.8915 121.56 85.285 108.667L86.3987 108.96Z" fill="#C7C7C7"/>
<path d="M85.8364 131.341L85.1582 132.568C85.0158 132.825 85.1091 133.15 85.3667 133.292L87.9458 134.718C88.2034 134.861 88.5275 134.767 88.6699 134.51L89.3481 133.283C89.4905 133.026 89.3972 132.701 89.1397 132.559L86.5605 131.133C86.303 130.99 85.9788 131.084 85.8364 131.341Z" fill="#263238"/>
<path d="M84.8975 108.144C85.4253 105.483 86.1162 102.858 86.9663 100.282C87.4694 99.1445 88.2684 98.1632 89.2799 97.44C89.5103 97.416 89.4095 95.3904 89.2799 93.7392C89.1743 92.2992 89.0207 90.5808 89.3711 90.1104C89.5734 89.893 89.8524 89.7628 90.1489 89.7476C90.4455 89.7324 90.7364 89.8332 90.9599 90.0288C91.3583 90.456 91.3823 92.1648 91.4399 93.6288C91.4975 95.2848 91.6127 97.3056 91.8431 97.3056C92.8663 97.9692 93.7143 98.8699 94.3151 99.9312C95.434 102.473 96.3583 105.097 97.0799 107.779C97.4495 109.488 96.8879 109.699 96.3983 109.872C95.7071 110.107 95.2655 109.632 94.7231 107.741C93.8591 104.746 92.7695 99.7008 90.6815 99.7152C88.6127 99.9264 87.7727 105.269 87.1103 108.25C86.6927 110.117 86.2991 110.294 85.5839 110.131C85.0847 110.011 84.5711 109.8 84.8975 108.144Z" fill="#263238"/>
<path d="M110.136 83.8995C110.136 83.8995 110.616 93.1491 108.907 93.3027C103.728 93.7827 97.9678 86.6595 97.651 85.5315C97.5694 85.2435 97.987 78.0627 98.3278 72.4803C98.5438 68.8899 98.731 65.9619 98.731 65.9619L111.965 73.5459L110.261 83.2083L110.136 83.8995Z" fill="#AD6359"/>
<path d="M111.965 73.5459L110.261 83.2083C107.63 82.3587 105.208 80.9642 103.151 79.1157C101.095 77.2673 99.452 75.0064 98.3281 72.4803C98.5441 68.8899 98.7313 65.9619 98.7313 65.9619L100.397 66.8451L111.965 73.5459Z" fill="#263238"/>
<path d="M125.586 58.1567C128.346 75.1583 118.472 78.7295 114.805 79.3199C111.479 79.8575 100.079 81.2639 95.5763 64.6367C91.0739 48.0095 98.1059 41.3567 105.656 39.7247C113.207 38.0927 122.826 41.1551 125.586 58.1567Z" fill="#AD6359"/>
<path d="M121.44 56.0591C121.042 56.0343 120.647 55.9879 120.254 55.9199C119.832 55.9293 119.419 55.7994 119.078 55.5503C118.987 55.4509 118.931 55.3242 118.919 55.1897C118.906 55.0552 118.939 54.9205 119.011 54.8063C119.187 54.6065 119.413 54.4568 119.666 54.3725C119.919 54.2882 120.19 54.2723 120.451 54.3263C121.006 54.3525 121.531 54.5873 121.92 54.9839C121.999 55.0777 122.051 55.1922 122.068 55.3141C122.086 55.4359 122.069 55.5602 122.018 55.6727C121.968 55.7851 121.887 55.881 121.785 55.9494C121.682 56.0178 121.563 56.0558 121.44 56.0591Z" fill="#263238"/>
<path d="M109.919 57.5379C110.317 57.4515 110.668 57.3075 111.052 57.1875C111.471 57.1202 111.855 56.9159 112.146 56.6067C112.218 56.4923 112.25 56.3571 112.237 56.2224C112.224 56.0877 112.167 55.9611 112.074 55.8627C111.863 55.6935 111.61 55.5842 111.343 55.5462C111.075 55.5082 110.802 55.5429 110.552 55.6467C110.013 55.7755 109.54 56.1006 109.228 56.5587C109.163 56.6678 109.132 56.793 109.137 56.9194C109.143 57.0458 109.184 57.1681 109.257 57.2714C109.33 57.3748 109.431 57.4549 109.549 57.5022C109.666 57.5494 109.795 57.5619 109.919 57.5379Z" fill="#263238"/>
<path d="M113.15 61.4115C113.15 61.3683 113.069 61.4739 113.073 61.5219C113.246 62.6835 113.246 64.0419 112.234 64.5507C112.205 64.5507 112.234 64.6227 112.234 64.6131C113.515 64.2867 113.501 62.4819 113.15 61.4115Z" fill="#263238"/>
<path d="M111.969 60.3123C110.082 60.3843 110.365 64.1523 112.117 64.0947C113.869 64.0371 113.553 60.2499 111.969 60.3123Z" fill="#263238"/>
<path d="M111.245 60.5663C110.933 60.8063 110.636 61.2095 110.242 61.2767C109.848 61.3439 109.407 60.9887 109.08 60.6287C109.047 60.5951 109.013 60.6287 109.018 60.6815C109.061 61.4015 109.397 62.1215 110.18 62.1743C110.962 62.2271 111.356 61.5407 111.48 60.7967C111.504 60.6623 111.36 60.4799 111.245 60.5663Z" fill="#263238"/>
<path d="M119.577 60.5424C119.577 60.4944 119.673 60.5904 119.673 60.6384C119.717 61.8096 119.961 63.144 121.046 63.4608C121.08 63.4608 121.08 63.5328 121.046 63.528C119.736 63.4368 119.429 61.656 119.577 60.5424Z" fill="#263238"/>
<path d="M120.538 59.2466C122.41 58.9778 122.813 62.741 121.08 62.9906C119.348 63.2402 118.968 59.477 120.538 59.2466Z" fill="#263238"/>
<path d="M121.349 59.4098C121.671 59.5778 122.002 59.8898 122.362 59.8898C122.722 59.8898 123.034 59.4098 123.255 59.0162C123.279 58.973 123.312 59.0162 123.317 59.0498C123.418 59.7698 123.26 60.5426 122.583 60.7538C121.906 60.965 121.436 60.3794 121.186 59.6834C121.143 59.5586 121.22 59.3426 121.349 59.4098Z" fill="#263238"/>
<path d="M114.124 70.5601C114.412 70.8241 114.705 71.1937 115.132 71.2177C115.568 71.1962 115.995 71.0833 116.385 70.8865C116.393 70.8824 116.402 70.8812 116.41 70.8829C116.419 70.8847 116.427 70.8893 116.432 70.896C116.438 70.9027 116.441 70.9111 116.441 70.9199C116.441 70.9286 116.438 70.9371 116.433 70.9441C116.275 71.1755 116.059 71.3606 115.806 71.4804C115.552 71.6003 115.272 71.6504 114.993 71.6257C114.751 71.572 114.53 71.4475 114.359 71.2679C114.188 71.0884 114.075 70.862 114.033 70.6177C113.995 70.5601 114.081 70.5601 114.124 70.5601Z" fill="#263238"/>
<path d="M118.642 65.9234C118.642 65.9234 119.036 67.6466 119.122 68.4722C119.122 68.549 118.93 68.6018 118.642 68.645C118.642 68.645 118.642 68.645 118.613 68.645C117.918 68.8365 117.184 68.8325 116.491 68.6335C115.798 68.4344 115.174 68.0481 114.687 67.517C114.62 67.4402 114.716 67.349 114.797 67.3922C115.91 68.017 117.194 68.2661 118.46 68.1026C118.498 67.8722 117.687 65.1746 117.816 65.1554C118.465 65.1523 119.111 65.2396 119.736 65.4146C119.021 61.8002 117.73 58.3298 117.072 54.7202C117.07 54.6947 117.077 54.6693 117.091 54.648C117.105 54.6267 117.126 54.6106 117.15 54.6024C117.174 54.5941 117.2 54.5941 117.225 54.6024C117.249 54.6107 117.269 54.6269 117.284 54.6482C118.892 58.1906 119.808 62.3282 120.644 66.0434C120.73 66.5042 118.983 66.0338 118.642 65.9234Z" fill="#263238"/>
<path d="M117.705 68.4818C117.319 69.0371 116.795 69.4821 116.184 69.773C115.847 69.9248 115.47 69.9651 115.109 69.8882C114.321 69.7202 114.273 69.005 114.389 68.3858C114.452 68.0546 114.555 67.7322 114.696 67.4258C115.559 68.0928 116.615 68.4631 117.705 68.4818Z" fill="#263238"/>
<path d="M116.184 69.7729C115.847 69.9247 115.47 69.9651 115.109 69.8881C114.321 69.7201 114.273 69.0049 114.389 68.3857C115.224 68.4385 116.078 68.9665 116.184 69.7729Z" fill="#FF99BA"/>
<path d="M95.5773 65.2801C96.6856 64.7487 97.6369 63.9384 98.3378 62.9286C99.0388 61.9189 99.4653 60.7444 99.5757 59.5201C102.591 58.2159 105.204 56.1315 107.145 53.4817C107.03 53.8369 106.185 56.3953 105.705 57.6817C116.63 55.6945 120.048 47.3569 120.048 47.3569C123.576 50.9041 124.272 53.1697 124.776 54.2977C124.776 54.2977 124.891 47.5777 121.464 43.0993C120.312 41.545 118.729 40.3624 116.912 39.6978C115.095 39.0333 113.123 38.9159 111.24 39.3601C108.668 38.472 105.892 38.3627 103.258 39.0458C100.625 39.7289 98.252 41.174 96.4365 43.2001C89.3085 50.8801 95.5773 65.2801 95.5773 65.2801Z" fill="#263238"/>
<path d="M114.019 55.9394C112.262 56.8903 110.372 57.5746 108.413 57.9697C108.413 57.9697 108.389 57.9697 108.413 57.9697C111.485 57.1455 114.266 55.4836 116.448 53.1697C117.375 52.1804 118.172 51.0771 118.819 49.8866C119.58 48.6116 120.08 47.1989 120.293 45.7297C120.298 45.7109 120.308 45.6941 120.324 45.6821C120.339 45.6701 120.358 45.6636 120.377 45.6636C120.396 45.6636 120.415 45.6701 120.43 45.6821C120.446 45.6941 120.456 45.7109 120.461 45.7297C120.41 47.2095 120.11 48.67 119.573 50.0497C118.978 51.3774 118.147 52.5859 117.12 53.6161C116.2 54.5331 115.154 55.3153 114.015 55.9394" fill="#263238"/>
<path d="M111.019 67.6803C110.013 67.7034 109.021 67.4437 108.155 66.9307C107.289 66.4178 106.585 65.6722 106.122 64.7787C105.659 63.8853 105.456 62.8798 105.537 61.8768C105.617 60.8738 105.977 59.9134 106.576 59.1049C107.175 58.2965 107.989 57.6724 108.925 57.3037C109.862 56.9349 110.883 56.8363 111.872 57.0191C112.862 57.2019 113.78 57.6588 114.523 58.3377C115.265 59.0166 115.803 59.8903 116.073 60.8595C116.455 62.2331 116.277 63.7021 115.577 64.9441C114.876 66.1861 113.712 67.0994 112.339 67.4835C111.909 67.6025 111.465 67.6686 111.019 67.6803ZM110.789 57.6483C110.4 57.6567 110.015 57.7148 109.641 57.8211C108.502 58.1419 107.529 58.8847 106.918 59.8983C106.308 60.9119 106.106 62.1201 106.355 63.2769C106.604 64.4336 107.285 65.452 108.258 66.1247C109.232 66.7973 110.425 67.0736 111.595 66.8974C112.765 66.7211 113.824 66.1056 114.556 65.176C115.288 64.2465 115.639 63.0728 115.536 61.894C115.433 60.7152 114.885 59.6199 114.003 58.8311C113.121 58.0423 111.971 57.6193 110.789 57.6483Z" fill="#C2C7D6"/>
<path d="M123.225 65.9042C121.17 65.9522 119.255 63.8882 118.861 61.1042C118.653 59.7799 118.864 58.4236 119.466 57.2258C119.695 56.6983 120.055 56.2385 120.513 55.8901C120.97 55.5418 121.509 55.3166 122.079 55.2362C122.648 55.1557 123.228 55.2227 123.764 55.4307C124.3 55.6387 124.774 55.9808 125.14 56.4242C126.05 57.4109 126.627 58.6582 126.791 59.9906C127.204 62.9234 125.764 65.5634 123.575 65.8706C123.459 65.8915 123.342 65.9027 123.225 65.9042ZM122.452 55.9202C122.361 55.9154 122.269 55.9154 122.178 55.9202C121.727 56.0061 121.303 56.1986 120.942 56.4816C120.58 56.7647 120.291 57.1301 120.1 57.5474C119.571 58.6119 119.388 59.8153 119.577 60.989C119.932 63.533 121.679 65.4002 123.474 65.1458C125.269 64.8914 126.436 62.6162 126.081 60.077C125.939 58.8978 125.436 57.7912 124.641 56.909C124.365 56.6 124.028 56.3522 123.651 56.1819C123.274 56.0116 122.866 55.9224 122.452 55.9202Z" fill="#C2C7D6"/>
<path d="M115.981 61.5074L115.443 61.0274C116.159 60.2354 117.896 59.0642 119.389 60.269L118.938 60.8306C117.599 59.7458 116.043 61.4402 115.981 61.5074Z" fill="#C2C7D6"/>
<path d="M92.4522 66.24L91.7754 66C91.8858 65.6832 92.9034 62.8944 94.4538 62.4144C95.8938 61.968 105.575 61.5168 105.974 61.5024L106.007 62.2176C103.238 62.3424 95.7786 62.7552 94.6602 63.1008C93.6426 63.3984 92.721 65.4528 92.4522 66.24Z" fill="#C2C7D6"/>
<path d="M98.491 65.5055C98.491 65.5055 94.3437 60.4223 92.0061 61.9439C89.6685 63.4655 93.0717 71.0399 95.9997 71.8703C96.3683 72.0054 96.7603 72.0645 97.1523 72.0441C97.5443 72.0237 97.9281 71.9242 98.2806 71.7515C98.6331 71.5789 98.947 71.3366 99.2034 71.0395C99.4598 70.7423 99.6534 70.3963 99.7726 70.0223L98.491 65.5055Z" fill="#AD6359"/>
<path d="M93.0384 64.085C93.0282 64.085 93.0185 64.089 93.0113 64.0962C93.004 64.1034 93 64.1132 93 64.1234C93 64.1335 93.004 64.1433 93.0113 64.1505C93.0185 64.1577 93.0282 64.1618 93.0384 64.1618C95.0976 64.8242 96.2928 66.605 97.176 68.4818C96.5232 67.7858 95.6832 67.4402 94.7424 68.2226C94.6944 68.2658 94.7424 68.3426 94.8048 68.3282C95.1484 68.1896 95.5266 68.1614 95.8869 68.2474C96.2473 68.3334 96.572 68.5294 96.816 68.8082C97.2232 69.2758 97.5788 69.786 97.8768 70.3298C97.9824 70.5026 98.2992 70.3826 98.2176 70.181V70.133C98.0496 67.565 95.7984 64.1378 93.0384 64.085Z" fill="#263238"/>
<path d="M97.5644 70.992C97.5746 71.0746 97.5677 71.1585 97.544 71.2383C97.5203 71.3181 97.4804 71.3922 97.4267 71.4558C97.3731 71.5195 97.3069 71.5714 97.2323 71.6084C97.1577 71.6453 97.0762 71.6664 96.9931 71.6703C96.9099 71.6743 96.8268 71.6611 96.749 71.6315C96.6712 71.6018 96.6003 71.5565 96.5409 71.4982C96.4814 71.4399 96.4346 71.37 96.4034 71.2928C96.3722 71.2156 96.3573 71.1328 96.3596 71.0496C96.3638 70.8971 96.4254 70.7519 96.5322 70.6429C96.639 70.534 96.7829 70.4694 96.9353 70.4621C97.0876 70.4548 97.2371 70.5054 97.3538 70.6036C97.4705 70.7019 97.5457 70.8406 97.5644 70.992Z" fill="white"/>
<path d="M95.8272 70.0324C95.8298 70.0822 95.8225 70.132 95.8057 70.1789C95.789 70.2259 95.7632 70.2691 95.7298 70.3061C95.6963 70.3431 95.6559 70.3732 95.6109 70.3945C95.5659 70.4159 95.517 70.4282 95.4672 70.4308C95.4174 70.4333 95.3676 70.426 95.3207 70.4092C95.2737 70.3925 95.2305 70.3667 95.1935 70.3333C95.1565 70.2998 95.1264 70.2595 95.1051 70.2144C95.0837 70.1694 95.0714 70.1206 95.0688 70.0708C95.0638 69.9702 95.0988 69.8717 95.1663 69.797C95.2339 69.7223 95.3283 69.6775 95.4288 69.6724C95.5294 69.6673 95.6279 69.7023 95.7026 69.7699C95.7773 69.8374 95.8222 69.9318 95.8272 70.0324Z" fill="white"/>
<path d="M110.14 84.3648L107.26 91.9104L97.7749 82.6128L95.1973 85.704C95.1973 85.704 104.586 100.584 104.629 99.9024L107.591 93.3888L112.132 97.7952L111.556 86.5296L110.14 84.3648Z" fill="#C2C7D6"/>
<path d="M112.175 92.208C112.021 90.3504 111.911 88.4784 111.695 86.6304C111.695 86.5632 111.58 86.5344 111.565 86.6304C111.229 88.4304 111.868 95.5296 111.892 97.2336C111.704 97.0416 107.687 93.36 107.648 93.4224C107 94.4592 104.826 99.1824 104.677 99.6336C103.194 97.272 96.9061 87.96 95.1589 85.7136C95.15 85.699 95.1356 85.6885 95.119 85.6844C95.1023 85.6804 95.0847 85.6831 95.0701 85.692C95.0554 85.7009 95.0449 85.7153 95.0409 85.732C95.0368 85.7486 95.0396 85.7662 95.0485 85.7808C96.3685 88.2816 104.5 100.57 104.61 100.531C105.76 98.2915 106.793 95.9941 107.706 93.648C108.388 94.4544 112.448 98.616 112.458 98.3424C112.472 96.2941 112.378 94.2464 112.175 92.208Z" fill="#263238"/>
<path d="M110.813 108.768C110.813 108.768 107.103 103.872 110.645 101.611C114.188 99.3506 117.063 104.779 117.063 104.779L110.813 108.768Z" fill="#455A64"/>
<path d="M140.159 140.986L140.672 146.972L140.855 148.949L139.122 147.965L133.919 144.96L110.691 108.557L116.931 104.568L140.159 140.986Z" fill="#455A64"/>
<path d="M140.688 146.981L140.861 148.954L139.133 147.97L140.688 146.981Z" fill="#37474F"/>
<path d="M117.333 104.047L110.037 108.702L110.961 110.15L118.257 105.495L117.333 104.047Z" fill="#263238"/>
<path d="M118.349 105.653L111.053 110.308L111.977 111.757L119.273 107.102L118.349 105.653Z" fill="#263238"/>
<path d="M111.979 111.749L114.331 110.247L121.439 124.248L120.542 124.747L111.979 111.749Z" fill="#263238"/>
<path d="M97.4396 121.618C101.006 120.912 111.84 151.402 106.632 152.693C83.5148 158.453 64.5884 154.824 60.1052 152.693C54.2252 149.875 53.7356 142.325 56.1932 138.84C60.4796 132.797 91.91 122.717 97.4396 121.618Z" fill="#AD6359"/>
<path d="M141.836 120C141.778 123.518 133.114 122.645 133.114 122.645C134.365 123.505 135.274 124.778 135.682 126.24C136.282 128.846 132.461 130.93 132.461 130.93C133.569 132.094 134.301 133.564 134.564 135.149C134.885 137.702 131.328 140.352 131.328 140.352C131.76 141.983 131.589 143.714 130.848 145.229C128.703 149.194 104.76 153.024 101.78 153.566L96.0195 122.366C96.0195 122.366 114.831 111.73 120.02 112.085C124.383 112.349 141.922 114.61 141.836 120Z" fill="#AD6359"/>
<path d="M133.045 122.53C128.476 121.09 123.57 120.758 118.837 120.485C118.816 120.485 118.795 120.493 118.78 120.509C118.764 120.524 118.756 120.545 118.756 120.566C118.756 120.588 118.764 120.609 118.78 120.624C118.795 120.639 118.816 120.648 118.837 120.648C123.551 120.864 128.317 122.347 133.012 122.755C133.04 122.755 133.066 122.746 133.088 122.728C133.109 122.709 133.122 122.684 133.127 122.657C133.131 122.63 133.125 122.602 133.11 122.578C133.095 122.555 133.072 122.538 133.045 122.53Z" fill="#263238"/>
<path d="M132.34 130.56C131.271 130.336 130.177 130.252 129.086 130.311C127.928 130.311 126.771 130.32 125.616 130.34C123.299 130.397 120.985 130.514 118.675 130.69C118.574 130.69 118.56 130.853 118.675 130.853C120.979 130.8 123.288 130.781 125.596 130.824C126.753 130.824 127.905 130.877 129.062 130.916C130.148 131.023 131.243 131.01 132.326 130.877C132.359 130.867 132.389 130.847 132.41 130.82C132.432 130.792 132.444 130.759 132.446 130.724C132.447 130.689 132.438 130.655 132.419 130.625C132.4 130.596 132.373 130.573 132.34 130.56Z" fill="#263238"/>
<path d="M131.226 140.338C130.333 140.05 129.215 140.227 128.288 140.271L125.12 140.4C123.013 140.472 120.906 140.544 118.794 140.544C118.688 140.544 118.679 140.707 118.794 140.707C120.939 140.707 123.085 140.76 125.226 140.751C126.282 140.751 127.333 140.751 128.389 140.722C129.282 140.722 130.405 140.794 131.269 140.443C131.281 140.436 131.29 140.425 131.295 140.412C131.299 140.399 131.299 140.385 131.293 140.372C131.288 140.359 131.278 140.348 131.266 140.342C131.253 140.336 131.239 140.334 131.226 140.338Z" fill="#263238"/>
<path d="M93.9261 122.021L104.28 156.375C104.28 156.375 66.5709 158.213 58.4829 152.333C52.8621 148.243 53.3277 140.549 55.8669 137.899C61.4109 132.115 93.9261 122.021 93.9261 122.021Z" fill="#EBEBEB"/>
<path d="M94.3437 155.04C92.7165 150.24 86.7693 130.464 85.7709 126.101C85.7037 125.799 85.8765 125.683 85.9917 125.986C91.2141 140.189 93.1917 150.202 94.5309 154.968C94.5597 155.098 94.3869 155.17 94.3437 155.04Z" fill="#263238"/>
<path d="M93.9352 121.666C93.7288 121.622 90.0952 122.563 88.9336 122.904C86.6648 123.579 84.412 124.312 82.1752 125.102C77.7208 126.672 73.3503 128.469 69.0808 130.488L68.4424 130.795C66.8824 131.169 65.3608 131.707 63.844 132.206C63.8008 132.206 63.844 132.288 63.844 132.274C65.0584 131.87 66.292 131.554 67.5256 131.227C66.844 131.558 66.1576 131.894 65.4856 132.245C64.2904 132.864 63.124 133.531 61.9384 134.165C61.934 134.167 61.9301 134.169 61.9268 134.173C61.9236 134.176 61.9212 134.181 61.9197 134.185C61.9182 134.19 61.9177 134.194 61.9182 134.199C61.9186 134.204 61.9201 134.208 61.9225 134.213C61.9249 134.217 61.9282 134.22 61.9321 134.223C61.936 134.226 61.9404 134.228 61.9451 134.229C61.9497 134.229 61.9545 134.229 61.9592 134.228C61.9638 134.227 61.9682 134.225 61.972 134.222C63.964 133.19 66.0328 132.274 68.0776 131.342C70.1224 130.411 72.2536 129.504 74.3656 128.649C78.5272 126.965 82.7704 125.457 87.0664 124.133C88.276 123.763 89.4664 123.408 90.7048 123.062C91.3 122.894 93.7768 122.054 93.8824 122.045C93.94 122.134 93.9837 122.231 94.012 122.333C94.0408 122.434 94.156 122.434 94.132 122.333C94.0925 122.103 94.0265 121.879 93.9352 121.666Z" fill="#263238"/>
<path d="M99.0425 156.528C97.9481 156.451 93.9113 156.648 92.8313 156.648C90.6521 156.648 88.4777 156.648 86.2985 156.61C81.9209 156.495 77.5625 156.178 73.2041 155.76C71.9993 155.645 70.8041 155.515 69.5849 155.386C68.3657 155.256 67.0553 155.16 65.8169 154.935C65.7689 154.935 65.7497 155.002 65.8169 155.011C66.9017 155.17 67.9673 155.424 69.0473 155.611C70.1273 155.799 71.2121 155.962 72.3017 156.115C74.4809 156.423 76.6697 156.639 78.8633 156.821C83.2409 157.181 87.6473 157.301 92.0393 157.219C93.2777 157.195 97.9001 157.003 99.1001 156.739C99.2201 156.735 99.1673 156.538 99.0425 156.528Z" fill="#263238"/>
<path d="M171.537 163.282L131.938 166.152L146.741 114.014L186.341 111.144L171.537 163.282Z" fill="white"/>
<path d="M174.244 163.085L134.648 165.955L149.452 113.818L189.047 110.947L174.244 163.085Z" fill="#37474F"/>
<path d="M153.657 113.52C153.557 113.969 153.368 114.394 153.103 114.769C152.838 115.145 152.501 115.465 152.111 115.709C151.751 115.94 151.631 115.455 151.972 115.229C152.471 114.9 152.844 114.411 153.028 113.842C153.052 113.751 153.081 113.645 153.095 113.554C153.18 113.24 153.18 112.908 153.095 112.594C153.054 112.459 152.968 112.342 152.85 112.263C152.839 112.257 152.829 112.249 152.822 112.239C152.822 112.239 152.778 112.239 152.774 112.239C152.748 112.242 152.722 112.242 152.697 112.239C152.602 112.227 152.505 112.242 152.418 112.282C152.25 112.355 152.102 112.467 151.986 112.608C151.844 112.777 151.724 112.965 151.631 113.165C151.574 113.263 151.523 113.364 151.478 113.468V113.54C151.46 113.573 151.447 113.608 151.439 113.645C151.439 113.645 151.41 113.688 151.415 113.712L150.854 113.756C150.968 113.397 151.129 113.055 151.334 112.738C151.482 112.465 151.688 112.228 151.936 112.042C152.185 111.855 152.47 111.724 152.774 111.658C153 111.633 153.226 111.698 153.405 111.838C153.585 111.977 153.702 112.182 153.734 112.407C153.801 112.779 153.775 113.161 153.657 113.52Z" fill="#C2C7D6"/>
<path d="M156.759 113.28C156.552 114.185 155.997 114.972 155.213 115.469C154.848 115.699 154.733 115.214 155.074 114.989C155.573 114.661 155.944 114.171 156.125 113.602C156.156 113.508 156.18 113.411 156.197 113.314C156.282 112.999 156.282 112.668 156.197 112.354C156.154 112.218 156.066 112.101 155.947 112.022C155.939 112.024 155.931 112.024 155.923 112.022C155.923 112.022 155.88 112.022 155.871 112.022H155.799C155.704 112.011 155.607 112.026 155.52 112.066C155.352 112.138 155.204 112.25 155.088 112.392C154.942 112.559 154.822 112.746 154.733 112.949C154.676 113.048 154.625 113.151 154.579 113.256V113.323C154.559 113.356 154.544 113.391 154.536 113.429C154.536 113.453 154.512 113.477 154.536 113.496L153.975 113.539C154.087 113.18 154.249 112.837 154.455 112.522C154.603 112.249 154.808 112.011 155.057 111.825C155.305 111.638 155.591 111.508 155.895 111.442C156.12 111.418 156.346 111.483 156.525 111.623C156.704 111.762 156.822 111.966 156.855 112.19C156.91 112.556 156.877 112.93 156.759 113.28Z" fill="#C2C7D6"/>
<path d="M159.84 113.069C159.632 113.976 159.075 114.764 158.289 115.262C157.929 115.488 157.809 115.003 158.15 114.782C158.651 114.455 159.023 113.965 159.206 113.395C159.206 113.304 159.264 113.203 159.278 113.112C159.359 112.797 159.359 112.467 159.278 112.152C159.239 112.016 159.152 111.898 159.033 111.821H159.005C159.005 111.821 158.966 111.821 158.957 111.821H158.88C158.787 111.807 158.692 111.82 158.606 111.859C158.437 111.932 158.287 112.044 158.169 112.186C158.027 112.355 157.907 112.542 157.814 112.742C157.757 112.838 157.713 112.944 157.661 113.05V113.117C157.644 113.15 157.631 113.186 157.622 113.222C157.622 113.246 157.598 113.27 157.622 113.29L157.061 113.333C157.173 112.973 157.334 112.631 157.541 112.315C157.689 112.043 157.895 111.806 158.143 111.62C158.392 111.435 158.677 111.305 158.981 111.24C159.206 111.214 159.433 111.277 159.612 111.416C159.792 111.556 159.909 111.759 159.941 111.984C159.994 112.349 159.959 112.72 159.84 113.069Z" fill="#C2C7D6"/>
<path d="M162.956 112.843C162.855 113.292 162.666 113.717 162.401 114.094C162.136 114.47 161.799 114.791 161.41 115.037C161.05 115.267 160.93 114.778 161.271 114.557C161.769 114.226 162.141 113.738 162.327 113.17C162.351 113.074 162.38 112.973 162.394 112.882C162.478 112.567 162.478 112.236 162.394 111.922C162.352 111.787 162.266 111.67 162.149 111.59H162.12C162.12 111.59 162.077 111.59 162.072 111.59H161.996C161.901 111.574 161.803 111.59 161.717 111.634C161.548 111.703 161.4 111.813 161.285 111.955C161.142 112.124 161.023 112.311 160.93 112.512C160.873 112.611 160.822 112.714 160.776 112.819V112.886C160.76 112.92 160.747 112.956 160.738 112.992C160.738 113.016 160.709 113.04 160.714 113.064L160.152 113.102C160.267 112.744 160.428 112.401 160.632 112.085C160.781 111.813 160.987 111.576 161.235 111.39C161.484 111.205 161.769 111.075 162.072 111.01C162.298 110.984 162.525 111.047 162.704 111.186C162.883 111.325 163.001 111.529 163.032 111.754C163.096 112.118 163.07 112.492 162.956 112.843Z" fill="#C2C7D6"/>
<path d="M166.079 112.618C165.872 113.523 165.317 114.311 164.533 114.811C164.169 115.042 164.053 114.552 164.394 114.331C164.892 114.002 165.263 113.513 165.445 112.944C165.476 112.85 165.5 112.754 165.517 112.656C165.603 112.342 165.603 112.01 165.517 111.696C165.475 111.559 165.387 111.44 165.268 111.36C165.26 111.361 165.252 111.361 165.244 111.36C165.244 111.36 165.201 111.36 165.191 111.36H165.119C165.024 111.346 164.927 111.361 164.841 111.403C164.673 111.474 164.525 111.584 164.409 111.725C164.263 111.894 164.144 112.083 164.053 112.286C163.995 112.384 163.944 112.485 163.9 112.589V112.656C163.88 112.689 163.866 112.724 163.857 112.762C163.857 112.786 163.833 112.81 163.857 112.834L163.295 112.872C163.407 112.512 163.569 112.17 163.775 111.854C163.924 111.582 164.13 111.346 164.378 111.16C164.627 110.975 164.912 110.845 165.215 110.779C165.44 110.754 165.666 110.818 165.845 110.957C166.024 111.096 166.143 111.299 166.175 111.523C166.231 111.89 166.198 112.266 166.079 112.618Z" fill="#C2C7D6"/>
<path d="M169.156 112.397C168.947 113.302 168.39 114.088 167.606 114.586C167.246 114.816 167.126 114.326 167.467 114.106C167.966 113.777 168.338 113.287 168.523 112.718C168.547 112.627 168.58 112.522 168.595 112.43C168.677 112.116 168.677 111.785 168.595 111.47C168.554 111.333 168.468 111.215 168.35 111.134H168.321C168.321 111.134 168.283 111.134 168.273 111.134C168.247 111.138 168.222 111.138 168.196 111.134C168.103 111.122 168.008 111.137 167.923 111.178C167.752 111.248 167.602 111.361 167.486 111.504C167.343 111.673 167.224 111.86 167.131 112.061C167.073 112.152 167.03 112.258 166.977 112.363V112.435C166.96 112.467 166.947 112.501 166.939 112.536C166.932 112.56 166.932 112.584 166.939 112.608L166.377 112.646C166.49 112.288 166.652 111.948 166.857 111.634C167.006 111.361 167.212 111.124 167.46 110.938C167.708 110.751 167.994 110.62 168.297 110.554C168.522 110.528 168.749 110.591 168.929 110.73C169.108 110.869 169.226 111.073 169.257 111.298C169.312 111.667 169.277 112.044 169.156 112.397Z" fill="#C2C7D6"/>
<path d="M172.253 112.171C172.153 112.62 171.964 113.045 171.699 113.42C171.434 113.796 171.097 114.115 170.707 114.36C170.347 114.59 170.227 114.106 170.568 113.88C171.067 113.551 171.44 113.062 171.624 112.493C171.648 112.402 171.677 112.296 171.691 112.205C171.776 111.89 171.776 111.559 171.691 111.245C171.65 111.11 171.564 110.993 171.446 110.914C171.435 110.908 171.425 110.9 171.418 110.89C171.418 110.89 171.374 110.89 171.37 110.89C171.344 110.893 171.318 110.893 171.293 110.89C171.198 110.878 171.101 110.893 171.014 110.933C170.846 111.006 170.698 111.118 170.582 111.259C170.438 111.427 170.318 111.614 170.227 111.816C170.17 111.914 170.119 112.015 170.074 112.118V112.19C170.056 112.224 170.042 112.26 170.03 112.296C170.03 112.296 170.006 112.339 170.03 112.363L169.469 112.406C169.583 112.048 169.745 111.705 169.949 111.389C170.098 111.116 170.303 110.879 170.551 110.692C170.8 110.506 171.085 110.375 171.389 110.309C171.615 110.284 171.841 110.349 172.021 110.488C172.2 110.628 172.318 110.832 172.349 111.058C172.41 111.431 172.377 111.814 172.253 112.171Z" fill="#C2C7D6"/>
<path d="M175.352 111.946C175.146 112.851 174.591 113.637 173.807 114.134C173.442 114.365 173.327 113.88 173.668 113.654C174.166 113.328 174.537 112.84 174.719 112.272C174.75 112.178 174.774 112.082 174.791 111.984C174.874 111.669 174.874 111.339 174.791 111.024C174.748 110.888 174.66 110.771 174.541 110.693C174.533 110.694 174.525 110.694 174.517 110.693C174.517 110.693 174.474 110.693 174.464 110.693H174.392C174.297 110.682 174.201 110.697 174.114 110.736C173.946 110.809 173.798 110.921 173.682 111.063C173.536 111.229 173.416 111.417 173.327 111.619C173.27 111.719 173.219 111.821 173.173 111.926V111.994C173.153 112.026 173.138 112.062 173.13 112.099C173.13 112.123 173.106 112.147 173.13 112.166L172.568 112.21C172.681 111.85 172.842 111.508 173.048 111.192C173.197 110.919 173.402 110.681 173.651 110.495C173.899 110.309 174.185 110.178 174.488 110.112C174.714 110.089 174.94 110.154 175.119 110.293C175.298 110.433 175.416 110.636 175.448 110.861C175.503 111.225 175.47 111.597 175.352 111.946Z" fill="#C2C7D6"/>
<path d="M178.453 111.72C178.246 112.627 177.688 113.416 176.903 113.914C176.543 114.139 176.423 113.655 176.763 113.434C177.264 113.106 177.637 112.616 177.819 112.047C177.843 111.955 177.877 111.855 177.891 111.763C177.973 111.449 177.973 111.118 177.891 110.803C177.852 110.667 177.765 110.55 177.647 110.472H177.618C177.618 110.472 177.579 110.472 177.57 110.472H177.493C177.4 110.458 177.305 110.471 177.219 110.511C177.05 110.583 176.9 110.695 176.783 110.837C176.64 111.006 176.52 111.193 176.427 111.394C176.37 111.49 176.327 111.595 176.274 111.701V111.768C176.258 111.802 176.245 111.837 176.235 111.874C176.235 111.898 176.235 111.922 176.235 111.941L175.674 111.984C175.786 111.624 175.947 111.282 176.154 110.967C176.302 110.694 176.508 110.457 176.756 110.272C177.005 110.086 177.291 109.956 177.594 109.891C177.819 109.865 178.046 109.929 178.225 110.068C178.405 110.207 178.523 110.411 178.554 110.635C178.607 111 178.573 111.372 178.453 111.72Z" fill="#C2C7D6"/>
<path d="M181.55 111.495C181.449 111.944 181.26 112.369 180.995 112.745C180.73 113.122 180.393 113.442 180.004 113.688C179.644 113.919 179.524 113.429 179.865 113.208C180.362 112.877 180.734 112.388 180.921 111.821C180.945 111.725 180.974 111.624 180.988 111.533C181.072 111.219 181.072 110.887 180.988 110.573C180.946 110.438 180.86 110.322 180.743 110.242H180.714C180.714 110.242 180.671 110.242 180.666 110.242H180.59C180.495 110.226 180.397 110.241 180.311 110.285C180.142 110.354 179.994 110.465 179.879 110.607C179.735 110.774 179.615 110.962 179.524 111.163C179.467 111.263 179.416 111.365 179.37 111.471V111.538C179.353 111.572 179.338 111.607 179.327 111.643C179.327 111.667 179.303 111.691 179.327 111.715L178.766 111.754C178.88 111.395 179.041 111.053 179.246 110.736C179.394 110.464 179.6 110.227 179.848 110.042C180.097 109.856 180.382 109.726 180.686 109.661C180.911 109.635 181.138 109.698 181.317 109.837C181.497 109.976 181.615 110.18 181.646 110.405C181.703 110.771 181.67 111.145 181.55 111.495Z" fill="#C2C7D6"/>
<path d="M184.651 111.269C184.444 112.175 183.889 112.963 183.106 113.463C182.741 113.693 182.626 113.203 182.966 112.983C183.465 112.653 183.835 112.164 184.018 111.595C184.048 111.501 184.072 111.405 184.09 111.307C184.172 110.993 184.172 110.662 184.09 110.347C184.047 110.21 183.959 110.092 183.84 110.011C183.832 110.013 183.824 110.013 183.816 110.011C183.816 110.011 183.773 110.011 183.763 110.011H183.691C183.596 109.998 183.499 110.013 183.413 110.055C183.245 110.125 183.097 110.236 182.981 110.376C182.836 110.546 182.715 110.735 182.621 110.938C182.565 111.035 182.515 111.136 182.472 111.24V111.307C182.452 111.34 182.438 111.376 182.429 111.413C182.429 111.437 182.405 111.461 182.429 111.485L181.867 111.523C181.98 111.164 182.141 110.821 182.347 110.506C182.496 110.234 182.702 109.997 182.95 109.812C183.199 109.626 183.484 109.496 183.787 109.431C184.012 109.406 184.238 109.47 184.418 109.608C184.597 109.747 184.715 109.95 184.747 110.175C184.803 110.542 184.77 110.917 184.651 111.269Z" fill="#C2C7D6"/>
<path d="M187.752 111.048C187.543 111.953 186.986 112.74 186.201 113.237C185.841 113.467 185.721 112.978 186.062 112.757C186.562 112.428 186.934 111.939 187.118 111.37C187.142 111.279 187.171 111.173 187.19 111.082C187.273 110.767 187.273 110.436 187.19 110.122C187.15 109.985 187.063 109.866 186.945 109.786H186.917C186.917 109.786 186.878 109.786 186.869 109.786C186.843 109.789 186.817 109.789 186.792 109.786C186.698 109.773 186.603 109.788 186.518 109.829C186.348 109.9 186.198 110.012 186.081 110.155C185.939 110.324 185.819 110.512 185.726 110.712C185.669 110.803 185.625 110.909 185.573 111.015V111.087C185.556 111.118 185.543 111.152 185.534 111.187C185.528 111.211 185.528 111.236 185.534 111.259L184.973 111.298C185.087 110.939 185.248 110.596 185.453 110.28C185.603 110.009 185.809 109.773 186.057 109.588C186.305 109.402 186.59 109.272 186.893 109.205C187.118 109.179 187.345 109.242 187.524 109.381C187.704 109.52 187.822 109.724 187.853 109.949C187.907 110.318 187.873 110.695 187.752 111.048Z" fill="#C2C7D6"/>
<path d="M187.098 122.669C189.195 126.955 194.408 132.269 194.874 135.768C195.018 136.63 194.881 137.516 194.483 138.295C194.084 139.073 193.445 139.702 192.661 140.088C192.661 140.088 196.199 141.802 196.093 145.061C196.035 146.741 193.309 148.123 193.309 148.123C193.309 148.123 196.079 149.621 195.81 152.515C195.589 154.819 192.891 155.875 192.891 155.875C192.891 155.875 194.879 158.539 193.919 160.8C191.946 165.418 172.069 165.648 168.915 158.362C167.442 154.968 172.299 155.175 172.299 155.175C172.299 155.175 165.387 153.192 165.234 149.093C165.08 144.994 171.378 145.647 171.378 145.647C171.378 145.647 164.696 143.664 164.965 139.407C165.248 134.971 171.435 136.699 171.435 136.699C171.435 136.699 166.981 133.752 167.936 130.536C169.511 125.227 177.954 131.784 182.336 130.699L184.664 123.466L187.098 122.669Z" fill="#AD6359"/>
<path d="M191.154 128.885C189.527 124.651 194.73 119.343 193.751 115.075C192.431 109.315 185.975 115.046 184.631 123.475L184.727 130.195L191.154 128.885Z" fill="#AD6359"/>
<path d="M192.479 156.091C192.542 156.091 192.566 156.178 192.479 156.192C185.961 157.863 178.286 157.699 171.993 155.232C171.787 155.151 171.83 154.781 172.075 154.829C179.083 156.125 185.38 156.744 192.479 156.091Z" fill="#263238"/>
<path d="M193.406 148.166C193.483 148.166 193.497 148.286 193.406 148.306C186.686 149.99 178.046 149.568 171.124 145.843C170.884 145.718 170.803 145.363 171.086 145.493C175.881 147.614 187.012 148.8 193.406 148.166Z" fill="#263238"/>
<path d="M170.999 136.277C177.772 139.589 184.919 140.4 192.393 140.174C192.489 140.174 192.484 140.309 192.393 140.333C188.769 141.437 183.998 141.086 180.307 140.496C176.871 140.015 173.62 138.643 170.879 136.517C170.774 136.43 170.879 136.209 170.999 136.277Z" fill="#263238"/>
</svg>
