<svg width="201" height="148" viewBox="0 0 201 148" fill="none" xmlns="http://www.w3.org/2000/svg">
<g clip-path="url(#clip0)">
<path opacity="0.1" d="M13.1555 58.0083H30.6249V81.7347H14.4328C14.3915 81.98 14.3502 82.2236 14.3037 82.4689H30.6249V101.6C30.5973 101.6 30.5698 101.58 30.544 101.569C30.0849 101.388 29.6259 101.195 29.1668 100.991C29.0687 100.947 28.9723 100.9 28.8724 100.858C28.4134 100.641 27.9543 100.413 27.4953 100.172C27.3352 100.087 27.1751 100 27.0184 99.9108C24.4699 98.4939 22.1536 96.6974 20.1498 94.5834C20.0895 94.5268 20.0344 94.465 19.9776 94.4118C19.6987 94.11 19.425 93.8047 19.1599 93.4925C19.0601 93.3776 18.9637 93.2609 18.8656 93.1494C18.5522 92.7687 18.2493 92.3742 17.9566 91.978C17.9119 91.9179 17.8705 91.8596 17.8275 91.8064C16.6287 90.1535 15.6345 88.3625 14.8666 86.4722C14.8425 86.4156 14.8201 86.3538 14.7977 86.3006C14.5602 85.7003 14.345 85.0914 14.1591 84.4705C14.0799 84.2115 14.0024 83.9559 13.937 83.6867C13.9129 83.6095 13.894 83.5306 13.8733 83.4534C12.9058 79.6542 12.7939 75.7058 12.7939 71.7763C12.7939 71.3189 12.7939 70.8615 12.7939 70.4041C12.8077 68.7998 12.8267 67.1972 12.8508 65.5964C12.8599 65.1847 12.8685 64.7714 12.8766 64.3563C12.9007 63.3054 12.9351 62.2523 12.9799 61.1969C12.9902 60.9053 13.004 60.612 13.0195 60.3221C13.0263 60.154 13.035 59.9859 13.0453 59.8178C13.0763 59.2107 13.113 58.6075 13.1555 58.0083Z" fill="#080056"/>
<path opacity="0.1" d="M30.6244 31.5907H21.041C22.5996 29.1628 24.3016 26.8294 26.1383 24.603C27.5636 22.8603 29.0648 21.1622 30.6244 19.5259V31.5907Z" fill="#080056"/>
<path opacity="0.1" d="M30.6253 32.3214V57.2742H13.2109C13.2109 57.2021 13.2213 57.1284 13.2282 57.0563C13.2436 56.8591 13.2591 56.6636 13.2764 56.4663C13.2936 56.2365 13.3159 56.0066 13.3383 55.7802C13.3607 55.5538 13.3831 55.2794 13.4106 55.0307C13.4382 54.782 13.4606 54.5298 13.4881 54.2811C13.5156 54.0324 13.5432 53.7837 13.5742 53.5367C13.6052 53.2897 13.6327 53.0393 13.6671 52.7923C13.6929 52.5882 13.7188 52.3824 13.748 52.1766C13.7876 51.8867 13.8289 51.5968 13.872 51.3087C13.872 51.2641 13.8858 51.2212 13.8926 51.1783C14.2073 49.0691 14.6348 46.9782 15.1734 44.9144C15.739 42.7498 16.4611 40.6289 17.3338 38.5681C18.2613 36.4089 19.3476 34.321 20.584 32.3214H30.6253Z" fill="#080056"/>
<path opacity="0.1" d="M34.7979 58.0083V81.7347H72.1123V58.0083H34.7979ZM34.7979 82.4688V102.845C35.0113 102.888 35.2213 102.931 35.4331 102.967C35.7171 103.022 36.0029 103.072 36.2938 103.115L36.466 103.139C36.5796 103.158 36.6949 103.173 36.8102 103.187C37.0977 103.228 37.3852 103.259 37.671 103.286C37.8053 103.3 37.9447 103.31 38.0807 103.322L38.4129 103.346C38.5937 103.36 38.7727 103.37 38.9517 103.377C39.0619 103.377 39.1721 103.386 39.284 103.389C39.3959 103.393 39.4561 103.389 39.5457 103.389H39.871C40.0191 103.389 40.1671 103.389 40.3134 103.389H40.5028C40.6508 103.389 40.7989 103.389 40.9452 103.375H40.9538C41.0571 103.375 41.1587 103.375 41.262 103.363C41.2912 103.365 41.3205 103.365 41.3497 103.363C41.4358 103.363 41.5219 103.363 41.6045 103.353C41.624 103.352 41.6436 103.352 41.6631 103.353C41.8541 103.341 42.0469 103.326 42.2415 103.309C42.436 103.291 42.6202 103.271 42.8147 103.25L43.2055 103.202C44.8023 102.98 46.3814 102.645 47.9309 102.201C51.4134 101.233 54.8168 99.8799 58.2976 98.8902C62.794 97.6124 67.7656 96.9829 72.1106 98.5386V82.4688H34.7979ZM72.1123 31.5907V0.00344058C68.0275 -0.0413386 63.9536 0.434195 59.9898 1.41849C50.5406 3.78376 42.0555 8.91394 34.7979 15.466V31.589H36.676V32.3214H34.7979V57.2742H72.1123V32.3214H44.3589V31.5873L72.1123 31.5907ZM120.052 20.9204C117.714 20.8381 115.39 20.1022 113.286 18.9616C109.268 16.785 106.056 13.4198 102.469 10.5828C95.0147 4.67052 85.7704 1.10117 76.2869 0.216126V31.5907H129.551L129.683 31.4517L120.052 20.9204ZM124.905 20.0628L130.05 25.6904V18.5826C128.318 18.8004 126.81 19.3064 124.905 20.0559V20.0628ZM130.05 107.905V82.4688H119.077C119.05 82.3608 119.019 82.251 118.984 82.1412C119.017 82.251 119.046 82.3608 119.076 82.4688H76.2869V100.863C76.6931 101.163 77.0942 101.48 77.4919 101.799C77.9211 102.149 78.3475 102.503 78.771 102.861L79.1979 103.213C79.4027 103.384 79.611 103.556 79.8176 103.719C80.2319 104.051 80.6491 104.381 81.0691 104.706C81.2791 104.871 81.4903 105.033 81.7026 105.192C85.065 107.752 88.6116 110.063 92.3137 112.106C93.1435 112.567 93.9818 113.012 94.8253 113.445C95.3865 113.734 95.9518 114.016 96.521 114.293C97.3748 114.708 98.2356 115.108 99.1032 115.493C107.102 119.071 115.561 121.525 124.237 122.786C126.162 123.069 128.097 123.292 130.04 123.455V107.902H130.212L130.05 107.905ZM76.2869 32.3214V57.2742H130.05V32.3214H76.2869ZM76.2869 58.0049V81.7347H130.05V58.0083L76.2869 58.0049ZM134.223 18.5483V26.4897L140.788 19.3081C138.613 18.9502 136.424 18.6969 134.223 18.5483ZM134.223 58.0083V81.7347H186.512V58.0083H134.223ZM186.328 109.787L186.512 82.4688H134.223V123.732C137.591 123.871 140.964 123.83 144.328 123.61H144.386C145.993 123.507 147.592 123.361 149.184 123.171H149.22C157.715 122.185 166.021 119.975 173.877 116.608L186.328 109.787ZM196.6 61.9052C196.402 61.4479 196.198 60.9905 195.989 60.5331C195.6 59.6755 195.19 58.8419 194.767 58.01H190.687V81.7347H201C200.992 75.0146 199.284 68.1537 196.6 61.9052ZM190.687 82.4688V105.967C193.591 103.194 196.047 100.019 197.814 96.3895C199.94 92.0174 200.912 87.2869 200.993 82.4671L190.687 82.4688ZM190.687 51.0943V57.269H194.385C193.264 55.1464 192.029 53.0852 190.687 51.0943ZM155.225 23.205C154.953 23.1004 154.679 22.9958 154.405 22.8963C151.519 21.8336 148.57 20.9503 145.574 20.2515L135.524 31.2391L135.328 31.45L135.457 31.589H171.226C166.244 28.1733 160.873 25.359 155.225 23.205ZM172.276 32.3214H134.956L134.223 32.9886V57.2742H140.652H186.512V45.5079C182.366 40.5114 177.579 36.0781 172.276 32.3214Z" fill="#080056"/>
<path opacity="0.1" d="M30.6253 44.9092V57.2742H13.2109C13.2109 57.2021 13.2213 57.1284 13.2282 57.0563C13.2436 56.8591 13.2591 56.6635 13.2764 56.4663C13.2936 56.2365 13.3159 56.0066 13.3383 55.7802C13.3607 55.5538 13.3831 55.2794 13.4106 55.0307C13.4382 54.782 13.4606 54.5298 13.4881 54.2811C13.5156 54.0324 13.5432 53.7837 13.5742 53.5367C13.6052 53.2897 13.6327 53.0393 13.6671 52.7923C13.6929 52.5882 13.7188 52.3824 13.748 52.1766C13.7876 51.8867 13.8289 51.5968 13.872 51.3087C13.872 51.2641 13.8858 51.2212 13.8926 51.1783C14.2073 49.0691 14.6348 46.9781 15.1734 44.9144L30.6253 44.9092Z" fill="#080056"/>
<path opacity="0.1" d="M13.1555 58.0083H30.6249V81.7347H14.4328C14.3915 81.98 14.3502 82.2236 14.3037 82.4689H30.6249V101.6C30.5973 101.6 30.5698 101.58 30.544 101.569C30.0849 101.388 29.6259 101.195 29.1668 100.991C29.0687 100.947 28.9723 100.9 28.8724 100.858C28.4134 100.641 27.9543 100.413 27.4953 100.172C27.3352 100.087 27.1751 100 27.0184 99.9108C24.4699 98.4939 22.1536 96.6974 20.1498 94.5834C20.0895 94.5268 20.0344 94.465 19.9776 94.4118C19.6987 94.11 19.425 93.8047 19.1599 93.4925C19.0601 93.3776 18.9637 93.2609 18.8656 93.1494C18.5522 92.7687 18.2493 92.3742 17.9566 91.978C17.9119 91.9179 17.8705 91.8596 17.8275 91.8064C16.6287 90.1535 15.6345 88.3625 14.8666 86.4722C14.8425 86.4156 14.8201 86.3538 14.7977 86.3006C14.5602 85.7003 14.345 85.0914 14.1591 84.4705C14.0799 84.2115 14.0024 83.9559 13.937 83.6867C13.9129 83.6095 13.894 83.5306 13.8733 83.4534C12.9058 79.6542 12.7939 75.7058 12.7939 71.7763C12.7939 71.3189 12.7939 70.8615 12.7939 70.4041C12.8077 68.7998 12.8267 67.1972 12.8508 65.5964C12.8599 65.1847 12.8685 64.7714 12.8766 64.3563C12.9007 63.3054 12.9351 62.2523 12.9799 61.1969C12.9902 60.9053 13.004 60.612 13.0195 60.3221C13.0263 60.154 13.035 59.9859 13.0453 59.8178C13.0763 59.2107 13.113 58.6075 13.1555 58.0083Z" fill="#080056"/>
<path opacity="0.1" d="M47.9324 35.8959V57.2742H34.7959V35.8959H36.6689V28.6577H44.3569V35.8959H47.9324Z" fill="#080056"/>
<path opacity="0.1" d="M47.9307 58.0066H34.7959V81.733H47.9307V58.0066Z" fill="#080056"/>
<path opacity="0.1" d="M34.7979 82.4688H47.9326V102.194C46.3833 102.638 44.8041 102.972 43.2072 103.194C43.0764 103.213 42.9473 103.228 42.8164 103.242C42.6236 103.264 42.4325 103.285 42.2415 103.302L41.6648 103.348H41.6063L41.3515 103.362H41.2637C41.1604 103.362 41.0588 103.374 40.9555 103.375H40.9469C40.7989 103.375 40.6526 103.386 40.5045 103.389H40.3151C40.1688 103.389 40.0225 103.389 39.8727 103.389H39.5491H39.2857C39.1738 103.389 39.0636 103.389 38.9517 103.375C38.775 103.369 38.596 103.358 38.4147 103.345L38.0824 103.321C37.9447 103.31 37.807 103.297 37.671 103.283C37.3818 103.258 37.0949 103.225 36.8102 103.185L36.466 103.137L36.2938 103.113C36.0063 103.07 35.7206 103.022 35.4331 102.967C35.2196 102.93 35.0096 102.887 34.7979 102.842V82.4688Z" fill="#080056"/>
<path opacity="0.1" d="M130.048 33.371H119.217V57.2724H130.048V33.371Z" fill="#080056"/>
<path opacity="0.1" d="M130.049 58.0066V81.7347H76.2861V71.5001H104.923V77.5376H119.216V58.0066H130.049Z" fill="#080056"/>
<path opacity="0.1" d="M130.22 107.911C130.163 107.911 130.106 107.911 130.047 107.9V123.466C128.107 123.307 126.173 123.084 124.246 122.799C115.567 121.538 107.105 119.085 99.1024 115.509C96.7922 114.471 94.5291 113.339 92.313 112.115C88.612 110.071 85.0661 107.76 81.7036 105.201C80.8566 104.556 80.0223 103.896 79.2006 103.223C78.6308 102.753 78.0661 102.273 77.4912 101.808C77.0952 101.487 76.6941 101.17 76.2861 100.868V82.4689H119.075C119.044 82.3591 119.016 82.2511 118.985 82.1413C119.018 82.2511 119.049 82.3591 119.077 82.4689H130.049V107.899C130.106 107.9 130.163 107.905 130.22 107.911Z" fill="#080056"/>
<path opacity="0.1" d="M158.299 31.5907H151.241V29.4055H154.404V22.8963C154.678 22.9969 154.951 23.0998 155.223 23.205V29.4055H158.297L158.299 31.5907Z" fill="#080056"/>
<path opacity="0.1" d="M175.305 57.2742H140.652C140.656 57.275 140.659 57.275 140.663 57.2742H140.647H134.223V33.3728H136.044V51.0394H144.366V40.5766H151.243V32.3214H158.301V40.5818H165.175V51.0445H175.307L175.305 57.2742Z" fill="#080056"/>
<path opacity="0.1" d="M134.223 58.0083V81.7347H175.307V58.0083H134.223ZM186.454 109.662L186.512 90.8802H175.307V82.4757H134.223V123.732C137.591 123.871 140.964 123.83 144.328 123.61H144.386C145.993 123.507 147.592 123.361 149.184 123.171H149.22C157.715 122.186 166.02 119.975 173.877 116.608" fill="#080056"/>
<path opacity="0.1" d="M191.41 82.4688H200.993C200.91 87.2868 199.939 92.0191 197.813 96.3894C196.047 100.021 193.591 103.195 190.687 105.969V90.875H191.41V82.4688Z" fill="#080056"/>
<path opacity="0.1" d="M201 81.7348H191.41V61.9053H196.6C199.284 68.1538 200.992 75.0146 201 81.7348Z" fill="#080056"/>
<path opacity="0.1" d="M130.049 40.0157H124.246V47.5095H130.049V40.0157Z" fill="#080056"/>
<path opacity="0.1" d="M130.049 55.5487H124.246V57.2742H130.049V55.5487Z" fill="#080056"/>
<path opacity="0.1" d="M130.049 58.0066H124.246V63.0407H130.049V58.0066Z" fill="#080056"/>
<path opacity="0.1" d="M130.049 71.0817H124.246V78.5754H130.049V71.0817Z" fill="#080056"/>
<path opacity="0.1" d="M130.049 86.6145H124.246V94.1082H130.049V86.6145Z" fill="#080056"/>
<path opacity="0.1" d="M130.049 107.898C130.106 107.898 130.163 107.898 130.221 107.91C130.165 107.91 130.108 107.91 130.049 107.9V109.641H124.246V102.147H130.049V107.898Z" fill="#080056"/>
<path opacity="0.1" d="M130.049 117.679V123.466C128.107 123.307 126.173 123.084 124.246 122.798V117.679H130.049Z" fill="#080056"/>
<path opacity="0.1" d="M101.156 81.1841H76.2861V81.7347H101.156V81.1841Z" fill="#080056"/>
<path opacity="0.1" d="M101.156 82.467H76.2861V84.5768H101.156V82.467Z" fill="#080056"/>
<path opacity="0.1" d="M101.156 91.4926H76.2861V94.8852H101.156V91.4926Z" fill="#080056"/>
<path opacity="0.1" d="M101.156 101.801V105.194H81.7036C80.8567 104.551 80.0223 103.891 79.2006 103.214C78.6291 102.746 78.0645 102.266 77.4912 101.801H101.156Z" fill="#080056"/>
<path opacity="0.1" d="M101.157 112.108V115.509H99.1029C96.7927 114.471 94.5296 113.339 92.3135 112.115L101.157 112.108Z" fill="#080056"/>
<path opacity="0.1" d="M149.223 60.3066H144.327V65.1847H149.223V60.3066Z" fill="#080056"/>
<path opacity="0.1" d="M43.2191 37.5784H38.3232V42.4565H43.2191V37.5784Z" fill="#080056"/>
<path opacity="0.1" d="M43.2191 48.9092H38.3232V53.7872H43.2191V48.9092Z" fill="#080056"/>
<path opacity="0.1" d="M43.2191 60.2397H38.3232V65.1178H43.2191V60.2397Z" fill="#080056"/>
<path opacity="0.1" d="M43.2191 71.5687H38.3232V76.4468H43.2191V71.5687Z" fill="#080056"/>
<path opacity="0.1" d="M43.2191 82.8993H38.3232V87.7774H43.2191V82.8993Z" fill="#080056"/>
<path opacity="0.1" d="M43.2191 94.23H38.3232V99.1081H43.2191V94.23Z" fill="#080056"/>
<path opacity="0.1" d="M167.913 60.3066H163.018V65.1847H167.913V60.3066Z" fill="#080056"/>
<path opacity="0.1" d="M149.223 72.3388H144.327V77.2169H149.223V72.3388Z" fill="#080056"/>
<path opacity="0.1" d="M167.913 72.3388H163.018V77.2169H167.913V72.3388Z" fill="#080056"/>
<path opacity="0.1" d="M149.223 84.3692H144.327V89.2472H149.223V84.3692Z" fill="#080056"/>
<path opacity="0.1" d="M167.913 84.3692H163.018V89.2472H167.913V84.3692Z" fill="#080056"/>
<path opacity="0.1" d="M149.223 96.4014H144.327V101.279H149.223V96.4014Z" fill="#080056"/>
<path opacity="0.1" d="M167.913 96.4014H163.018V101.279H167.913V96.4014Z" fill="#080056"/>
<path opacity="0.1" d="M149.223 108.434H144.327V113.312H149.223V108.434Z" fill="#080056"/>
<path opacity="0.1" d="M167.913 108.434H163.018V113.312H167.913V108.434Z" fill="#080056"/>
<path opacity="0.1" d="M144.327 123.61V120.464H149.221V123.162L144.327 123.61Z" fill="#080056"/>
<path opacity="0.1" d="M13.8721 51.1732V53.9638H30.6254V51.1732H13.8721ZM15.5402 53.7888H14.163V51.3498H15.5402V53.7888ZM17.2083 53.7888H15.8311V51.3498H17.2083V53.7888ZM18.8729 53.7888H17.4958V51.3498H18.8729V53.7888ZM20.541 53.7888H19.1639V51.3498H20.541V53.7888ZM22.2074 53.7888H20.8302V51.3498H22.2074V53.7888ZM23.8755 53.7888H22.4983V51.3498H23.8755V53.7888ZM25.5436 53.7888H24.1664V51.3498H25.5436V53.7888ZM27.21 53.7888H25.8328V51.3498H27.21V53.7888ZM28.8764 53.7888H27.4992V51.3498H28.8764V53.7888ZM30.5445 53.7888H29.1673V51.3498H30.5445V53.7888Z" fill="#080056"/>
<path opacity="0.1" d="M13.8721 59.2964V62.0871H30.6254V59.2964H13.8721ZM15.5402 61.9121H14.163V59.4731H15.5402V61.9121ZM17.2083 61.9121H15.8311V59.4731H17.2083V61.9121ZM18.8729 61.9121H17.4958V59.4731H18.8729V61.9121ZM20.541 61.9121H19.1639V59.4731H20.541V61.9121ZM22.2074 61.9121H20.8302V59.4731H22.2074V61.9121ZM23.8755 61.9121H22.4983V59.4731H23.8755V61.9121ZM25.5436 61.9121H24.1664V59.4731H25.5436V61.9121ZM27.21 61.9121H25.8328V59.4731H27.21V61.9121ZM28.8764 61.9121H27.4992V59.4731H28.8764V61.9121ZM30.5445 61.9121H29.1673V59.4731H30.5445V61.9121Z" fill="#080056"/>
<path opacity="0.1" d="M13.8721 67.4213V70.2102H30.6254V67.4213H13.8721ZM15.5402 70.0335H14.163V67.5945H15.5402V70.0335ZM17.2083 70.0335H15.8311V67.5945H17.2083V70.0335ZM18.8729 70.0335H17.4958V67.5945H18.8729V70.0335ZM20.541 70.0335H19.1639V67.5945H20.541V70.0335ZM22.2074 70.0335H20.8302V67.5945H22.2074V70.0335ZM23.8755 70.0335H22.4983V67.5945H23.8755V70.0335ZM25.5436 70.0335H24.1664V67.5945H25.5436V70.0335ZM27.21 70.0335H25.8328V67.5945H27.21V70.0335ZM28.8764 70.0335H27.4992V67.5945H28.8764V70.0335ZM30.5445 70.0335H29.1673V67.5945H30.5445V70.0335Z" fill="#080056"/>
<path opacity="0.1" d="M13.8721 75.5446V78.3335H30.6254V75.5446H13.8721ZM15.5402 78.1585H14.163V75.7161H15.5402V78.1585ZM17.2083 78.1585H15.8311V75.7161H17.2083V78.1585ZM18.8729 78.1585H17.4958V75.7161H18.8729V78.1585ZM20.541 78.1585H19.1639V75.7161H20.541V78.1585ZM22.2074 78.1585H20.8302V75.7161H22.2074V78.1585ZM23.8755 78.1585H22.4983V75.7161H23.8755V78.1585ZM25.5436 78.1585H24.1664V75.7161H25.5436V78.1585ZM27.21 78.1585H25.8328V75.7161H27.21V78.1585ZM28.8764 78.1585H27.4992V75.7161H28.8764V78.1585ZM30.5445 78.1585H29.1673V75.7161H30.5445V78.1585Z" fill="#080056"/>
<path opacity="0.1" d="M13.9521 83.6643C14.0176 83.9284 14.095 84.1892 14.1742 84.4482V83.841H15.5514V86.2783H14.8129C14.8335 86.3366 14.8559 86.3966 14.88 86.4498H30.6314V83.6643H13.9521ZM17.2229 86.2783H15.8458V83.841H17.2229V86.2783ZM18.8876 86.2783H17.5104V83.841H18.8876V86.2783ZM20.5557 86.2783H19.1785V83.841H20.5557V86.2783ZM22.2221 86.2783H20.8449V83.841H22.2221V86.2783ZM23.8902 86.2783H22.513V83.841H23.8902V86.2783ZM25.5583 86.2783H24.1811V83.841H25.5583V86.2783ZM27.2246 86.2783H25.8475V83.841H27.2246V86.2783ZM28.891 86.2783H27.5138V83.841H28.891V86.2783ZM30.5591 86.2783H29.1819V83.841H30.5591V86.2783Z" fill="#080056"/>
<path opacity="0.1" d="M17.833 91.7875C17.8778 91.8424 17.9191 91.9041 17.9621 91.959H18.8728V93.1305L19.1671 93.4735V91.9521H20.5443V94.4117H19.978C20.033 94.4683 20.0864 94.5284 20.1501 94.5833H30.6218V91.7875H17.833ZM22.2159 94.4117H20.8387V91.9624H22.2159V94.4117ZM23.884 94.4117H22.5068V91.9624H23.884V94.4117ZM25.5521 94.4117H24.1749V91.9624H25.5521V94.4117ZM27.2184 94.4117H25.8413V91.9624H27.2184V94.4117ZM28.8848 94.4117H27.5076V91.9624H28.8848V94.4117ZM30.5529 94.4117H29.1757V91.9624H30.5529V94.4117Z" fill="#080056"/>
<path opacity="0.1" d="M27.0234 99.9108C27.1818 100 27.3419 100.082 27.502 100.17V100.084H28.8792V100.858C28.979 100.9 29.0737 100.947 29.1718 100.991V100.084H30.549V101.569C30.5752 101.581 30.6022 101.591 30.6299 101.599V99.9108H27.0234Z" fill="#080056"/>
<path opacity="0.1" d="M130.048 107.898H130.22H130.048ZM118.984 82.1412C119.017 82.251 119.046 82.3607 119.075 82.4688C119.05 82.3607 119.019 82.251 118.984 82.1412ZM36.6758 31.5907V32.3213H44.3656V31.5872L36.6758 31.5907ZM130.05 107.898H130.222H130.05ZM118.984 82.1412C119.017 82.251 119.046 82.3607 119.075 82.4688C119.05 82.3607 119.019 82.251 118.984 82.1412ZM130.048 107.898H130.22H130.048ZM118.984 82.1412C119.017 82.251 119.046 82.3607 119.075 82.4688C119.05 82.3607 119.019 82.251 118.984 82.1412Z" fill="#080056"/>
<path opacity="0.1" d="M151.391 148C160.655 148 168.165 146.798 168.165 145.316C168.165 143.833 160.655 142.631 151.391 142.631C142.127 142.631 134.617 143.833 134.617 145.316C134.617 146.798 142.127 148 151.391 148Z" fill="#080056"/>
<path opacity="0.1" d="M75.7388 145.316C85.0028 145.316 92.5128 144.114 92.5128 142.631C92.5128 141.149 85.0028 139.947 75.7388 139.947C66.4748 139.947 58.9648 141.149 58.9648 142.631C58.9648 144.114 66.4748 145.316 75.7388 145.316Z" fill="#080056"/>
<path d="M95.0511 71.6527C95.047 71.6357 95.038 71.6202 95.0253 71.6081C94.7688 71.356 91.498 66.7472 91.498 66.7472C91.498 66.7472 91.3258 66.2326 91.047 65.5637C91.1364 65.4484 91.2035 65.3175 91.2449 65.1778C91.26 65.1186 91.2709 65.0584 91.2776 64.9977C91.2776 64.9788 91.2914 64.9634 91.2966 64.9445C91.3564 64.7119 91.3504 64.4673 91.2794 64.2379C91.2602 64.2967 91.2366 64.3541 91.2088 64.4094C91.144 64.2096 91.0574 64.0175 90.9506 63.8365C90.5168 63.0921 89.897 62.4643 89.4408 61.7388C88.7501 60.6115 88.4755 59.2795 88.6645 57.9722C88.6645 58.0391 88.6645 58.1077 88.6645 58.1746C88.6817 57.9153 88.7162 57.6575 88.7677 57.4028C88.8397 57.1128 88.9359 56.8294 89.0552 56.5555C89.4649 55.6207 90.1277 54.8059 90.5305 53.8677C90.6657 53.5513 90.7684 53.222 90.8369 52.8849C90.9789 52.322 91.0306 51.7402 90.9902 51.1611C90.9902 51.2983 90.9678 51.4356 90.9471 51.5711C90.9036 50.1789 90.3393 48.8532 89.3651 47.8542C87.9587 46.446 85.9394 45.8989 84.0079 45.6107C83.1962 45.5164 82.4211 45.2216 81.7528 44.7531C81.0108 44.2746 80.052 44.1597 79.1843 44.2643C78.1871 44.3717 77.2605 44.8282 76.5694 45.5524C75.6519 46.5575 75.2542 47.9811 74.1835 48.8284C73.5345 49.343 72.7116 49.5831 71.9559 49.933C71.2002 50.2829 70.4858 50.7906 70.243 51.5419C70.243 51.5419 70.243 51.5316 70.243 51.5265V51.5693L70.2327 51.5968C69.9814 52.4853 70.4668 53.3892 70.7199 54.2759C70.9833 55.1936 71.0005 56.1627 71.0143 57.1112C71.0332 58.2707 71.0504 59.4319 71.0315 60.593C71.0229 61.0493 71.0074 61.5107 70.973 61.9652C70.5655 62.0879 70.1697 62.2464 69.7903 62.4386C69.4047 62.689 67.9621 64.2413 67.9621 64.2413L65.1406 74.9819L65.1785 75.0248L65.1406 75.1706L65.2835 75.138C65.6829 75.5668 66.8759 76.788 68.1635 77.5496L68.284 79.6559C68.284 79.6559 68.4286 81.769 70.379 82.642C70.4238 83.3744 70.5632 86.3486 69.9177 87.5269C69.4707 88.3878 69.2604 89.3512 69.3083 90.3193C69.3083 90.3193 69.5338 92.1065 69.2773 93.0465C69.1275 93.6746 69.1163 94.3278 69.2446 94.9606C69.2446 94.9606 69.2446 95.1682 69.2446 95.5249C69.2446 97.4271 69.267 103.523 69.2446 104.212C69.2119 105.027 69.2446 117.077 69.2446 117.077C69.2446 117.077 69.0845 123.099 68.5715 124.73C68.0585 126.361 68.1876 131.762 68.1876 131.762C68.1876 131.762 67.8657 138.196 69.0036 139.465C69.0036 139.522 68.9933 139.58 68.9915 139.637C68.9915 139.662 68.9915 139.692 68.9915 139.717C68.9778 140.206 69.0725 140.726 69.4942 140.885C70.3549 141.215 71.4928 142.203 71.708 142.486C71.9232 142.769 73.1747 143.474 74.8067 143.285C75.829 143.17 76.8578 143.123 77.8864 143.144C77.8864 143.144 78.5302 143.028 78.3219 142.23C78.1876 141.733 77.6849 140.968 77.3269 140.465C77.3923 140.482 77.456 140.496 77.5162 140.508L77.5782 140.52H77.6264C77.6528 140.522 77.6792 140.522 77.7056 140.52H77.74C77.7721 140.523 77.8044 140.523 77.8364 140.52C78.2685 140.479 79.8798 141.227 80.1673 141.721C80.4548 142.215 81.4687 142.59 82.2331 142.685C82.6875 142.739 83.834 142.647 84.7963 142.523C85.2809 142.473 85.7609 142.386 86.232 142.263C86.4593 142.177 86.5075 141.902 86.442 141.594C86.3648 141.202 86.1544 140.848 85.8464 140.592C85.5675 140.395 85.1991 139.875 84.9272 139.45L84.8548 139.335C85.3351 138.879 86.2028 137.386 86.4661 137.078C86.7863 136.702 85.9497 122.965 85.9497 122.965V116.078L87.2322 109.56L88.1291 106.111L88.8986 100.904C88.8986 100.904 90.2448 94.8217 89.8299 94.2248C89.8299 94.2128 89.4856 87.9506 89.1241 86.4464C88.9674 85.7757 89.007 84.2663 89.1 82.7981C89.1971 82.702 89.2649 82.5803 89.2953 82.4473C89.3258 82.3144 89.3178 82.1755 89.2721 82.0469C89.2464 81.9589 89.213 81.8734 89.1723 81.7913C89.1723 81.7656 89.1723 81.7381 89.1723 81.7124C89.9159 81.3715 90.693 81.1082 91.4911 80.9268C92.7736 80.6764 92.4534 80.0178 92.4534 80.0178C92.4534 80.0178 92.7426 79.4535 92.9337 79.1087C93.1248 78.764 92.9664 75.7212 92.9337 75.4708C92.9216 75.3696 92.8424 74.8104 92.7512 74.1758C93.1626 73.8842 93.698 73.5223 94.2816 73.1792C95.3919 72.524 95.1423 71.8328 95.0511 71.6527ZM78.3184 115.138C78.3184 115.138 77.3561 117.584 77.7417 118.21C78.1274 118.836 77.6781 121.16 77.6781 121.16L77.3561 124.61C77.3561 124.61 76.4593 131.007 76.7795 132.512C77.0308 133.692 77.1237 137.216 77.153 138.686C77.131 138.695 77.1097 138.705 77.0893 138.717L77.0463 138.74C77.1943 138.162 77.1324 136.992 76.3973 134.639L76.3353 124.918C76.3353 124.918 76.2217 113.691 77.1117 112.435C78.0017 111.18 78.3167 109.048 78.3167 109.048C78.3167 109.048 78.1239 112.123 77.9983 112.938C77.8726 113.752 78.3184 115.138 78.3184 115.138ZM76.5264 139.299C76.5178 139.319 76.5075 139.34 76.5006 139.359L76.4524 139.297C76.477 139.299 76.5017 139.3 76.5264 139.299Z" fill="url(#paint0_linear)"/>
<path d="M86.3395 143.151C85.842 143.341 83.1445 143.666 82.3905 143.575C81.6365 143.484 80.638 143.103 80.354 142.606C80.0699 142.108 78.4776 141.357 78.0507 141.405C77.8757 141.41 77.7011 141.386 77.5342 141.333C77.2397 141.244 76.952 141.134 76.6735 141.004C76.6346 140.787 76.641 140.566 76.6924 140.352C76.7023 140.309 76.715 140.266 76.7303 140.225C76.8308 139.944 77.0386 139.713 77.3087 139.583L77.3707 139.554C77.49 139.503 77.6147 139.465 77.7425 139.441C79.0956 139.182 84.6783 139.702 84.6783 139.702C84.6783 139.702 84.835 139.981 85.0501 140.328C85.3187 140.757 85.6836 141.28 85.9591 141.477C86.2642 141.737 86.4712 142.093 86.5461 142.486C86.6115 142.789 86.5633 143.067 86.3395 143.151Z" fill="white"/>
<path opacity="0.1" d="M86.3403 143.151C85.8428 143.341 83.1469 143.666 82.3929 143.575C81.6389 143.484 80.6405 143.101 80.3547 142.606C80.069 142.11 78.4801 141.357 78.0531 141.405C77.6262 141.453 76.676 141.004 76.676 141.004C76.676 141.004 76.5279 140.318 76.9583 139.849L77.819 140.458C77.819 140.458 80.1223 141.17 80.5493 141.83C80.9762 142.491 81.7543 142.859 82.8784 142.926C83.7185 142.981 85.6482 142.655 86.552 142.492C86.6122 142.789 86.5658 143.067 86.3403 143.151Z" fill="black"/>
<path d="M78.0999 144.026C77.0844 144.006 76.0688 144.054 75.0597 144.168C73.4433 144.357 72.209 143.654 71.9938 143.364C71.7786 143.074 70.6648 142.095 69.8093 141.752C69.391 141.59 69.2928 141.065 69.3118 140.575C69.3118 140.549 69.3118 140.52 69.3118 140.494C69.3276 140.184 69.3737 139.875 69.4495 139.573L76.1477 139.431L76.7278 140.215L76.8174 140.335L77.1703 140.813C77.1703 140.813 77.3304 141.023 77.5404 141.328C77.895 141.842 78.3908 142.602 78.5233 143.105C78.7351 143.909 78.0999 144.026 78.0999 144.026Z" fill="white"/>
<path opacity="0.1" d="M78.0999 144.026C77.0844 144.006 76.0688 144.054 75.0598 144.168C73.445 144.357 72.209 143.654 71.9955 143.364C71.7821 143.074 70.6648 142.086 69.8093 141.755C69.391 141.594 69.2928 141.069 69.3118 140.578C69.7903 140.69 70.7957 140.974 71.1899 141.47C71.7063 142.132 72.6308 143.245 73.9442 143.316C75.0047 143.372 77.5869 143.184 78.5337 143.108C78.7368 143.909 78.0999 144.026 78.0999 144.026Z" fill="black"/>
<path opacity="0.1" d="M77.3024 139.577C77.2249 140.149 76.9856 140.304 76.8135 140.338C76.7714 140.346 76.7282 140.346 76.6861 140.338C76.6635 140.336 76.641 140.333 76.619 140.328C76.619 140.328 70.6042 141.652 69.3888 140.58C69.358 140.552 69.3292 140.523 69.3027 140.491C69.3186 140.18 69.3647 139.872 69.4404 139.57L76.1387 139.427L76.7188 140.211C76.8193 139.93 77.0271 139.699 77.2972 139.57L77.3024 139.577Z" fill="black"/>
<path opacity="0.1" d="M85.0489 140.321C84.9146 140.469 84.8027 140.553 84.7321 140.523C84.4154 140.396 81.8194 139.956 80.9948 140.335C80.1702 140.714 77.3798 140.396 77.3798 140.396C77.3798 140.396 77.3798 140.067 77.3643 139.539C77.4836 139.487 77.6083 139.45 77.7361 139.426C79.0892 139.167 84.6719 139.686 84.6719 139.686C84.6719 139.686 84.8354 139.975 85.0489 140.321Z" fill="black"/>
<path d="M88.9771 101.523L88.2162 106.761L87.3314 110.233L86.0644 116.795V123.742C86.0644 123.742 86.8872 137.563 86.5705 137.94C86.2537 138.318 85.0504 140.467 84.7337 140.342C84.4169 140.216 81.8209 139.774 80.9964 140.151C80.1718 140.529 77.3813 140.215 77.3813 140.215C77.3813 140.215 77.3176 134.851 77.0008 133.337C76.6841 131.822 77.5707 125.385 77.5707 125.385L77.8874 121.915C77.8874 121.915 78.3315 119.579 77.9511 118.948C77.5706 118.317 78.5209 115.861 78.5209 115.861C78.5209 115.861 78.0785 114.469 78.2059 113.65C78.3333 112.83 78.5209 109.737 78.5209 109.737C78.5209 109.737 78.2059 111.885 77.3262 113.145C76.4465 114.406 76.5584 125.704 76.5584 125.704L76.6204 135.481C78.2059 140.657 76.6204 140.151 76.6204 140.151C76.6204 140.151 70.6056 141.477 69.3902 140.403C68.1749 139.33 68.5226 132.572 68.5226 132.572C68.5226 132.572 68.397 127.145 68.9031 125.505C69.4092 123.865 69.5693 117.806 69.5693 117.806C69.5693 117.806 69.5366 105.688 69.5693 104.869C69.5934 104.183 69.5693 98.0412 69.5693 96.1219C69.5693 95.7651 69.5693 95.5542 69.5693 95.5542L70.2957 93.7566L78.9031 92.6829H83.0208C83.0208 92.6829 89.2181 94.134 89.8585 94.76C89.8721 94.7705 89.8838 94.7832 89.8929 94.7978C90.3078 95.4032 88.9771 101.523 88.9771 101.523Z" fill="#080056"/>
<path opacity="0.1" d="M78.5264 129.038C78.5264 129.038 80.42 133.582 81.3134 133.898C82.2069 134.213 78.5264 129.038 78.5264 129.038Z" fill="black"/>
<path opacity="0.1" d="M79.2266 135.728C79.2266 135.728 85.6201 136.043 85.5564 136.738C85.4927 137.433 79.2266 135.728 79.2266 135.728Z" fill="black"/>
<path opacity="0.1" d="M70.6729 133.911C70.9259 134.15 75.5498 134.597 75.1693 135.033C74.7889 135.469 71.0533 136.316 71.0533 136.316L70.6729 133.911Z" fill="black"/>
<path opacity="0.1" d="M69.9141 126.073C69.9141 126.261 70.8643 132.131 71.1191 132.383C71.3739 132.635 73.462 132.887 73.462 132.887L69.9141 126.073Z" fill="black"/>
<path d="M76.8078 45.8457C75.9006 46.856 75.5081 48.2882 74.4512 49.1424C73.8091 49.6569 72.9965 49.9022 72.2494 50.2521C71.5023 50.602 70.7621 51.1354 70.54 51.9278C70.2921 52.8197 70.7707 53.7305 71.022 54.6224C71.2819 55.5452 71.2974 56.5092 71.3129 57.4748C71.3301 58.6429 71.3491 59.8109 71.3284 60.979C71.2974 62.7988 71.1459 64.7027 70.1768 66.2447C73.6765 67.3544 77.3983 67.5053 81.0685 67.6477C81.7738 67.6978 82.4823 67.68 83.1842 67.5945C83.7923 67.4738 84.3939 67.3221 84.9865 67.14C86.1582 66.8311 87.3655 66.6771 88.5775 66.682C89.106 66.682 89.6448 66.7146 90.1544 66.5774C90.6639 66.4402 91.1545 66.0886 91.2923 65.5809C91.4145 65.1246 91.2354 64.6392 91.0013 64.2293C90.5744 63.4815 89.9684 62.8571 89.5105 62.1196C89.0431 61.3405 88.7657 60.463 88.7009 59.5577C88.636 58.6523 88.7854 57.7444 89.137 56.9071C89.5432 55.9654 90.1974 55.1456 90.5968 54.2022C91.0058 53.1893 91.1146 52.0808 90.9102 51.0082C90.7057 49.9355 90.1967 48.9439 89.4434 48.151C88.0542 46.7342 86.0607 46.1853 84.1533 45.8937C83.3502 45.7992 82.584 45.5043 81.9258 45.0361C81.1941 44.5559 80.2456 44.4393 79.3883 44.5456C78.3993 44.656 77.4833 45.1175 76.8078 45.8457Z" fill="#3F3D56"/>
<g opacity="0.1">
<path opacity="0.1" d="M89.191 55.9175C88.84 56.744 88.6896 57.6413 88.752 58.5366C88.7906 57.8964 88.9391 57.2675 89.191 56.6773C89.5956 55.7356 90.2497 54.9158 90.6491 53.9724C90.9756 53.1847 91.1129 52.3319 91.0502 51.4819C91.0147 52.0777 90.8791 52.6633 90.6491 53.2143C90.2497 54.1577 89.5956 54.9758 89.191 55.9175Z" fill="black"/>
<path opacity="0.1" d="M71.3647 57.2416C71.375 57.9139 71.3853 58.588 71.3871 59.2604C71.3871 58.3342 71.3784 57.4097 71.3647 56.4852C71.3509 55.5264 71.3337 54.5556 71.0737 53.6311C70.9016 53.0445 70.6468 52.4493 70.5573 51.8575C70.4041 52.698 70.8396 53.5505 71.0737 54.3892C71.3337 55.3051 71.3509 56.2828 71.3647 57.2416Z" fill="black"/>
<path opacity="0.1" d="M90.2134 65.5964C89.6969 65.7354 89.1667 65.7045 88.6382 65.701C87.4272 65.6934 86.2205 65.8445 85.049 66.1504C84.4563 66.3317 83.8547 66.4829 83.2466 66.6032C82.5443 66.6901 81.8351 66.7085 81.1292 66.6581C77.583 66.5192 73.9868 66.37 70.5904 65.3597C70.4895 65.584 70.3746 65.8017 70.2461 66.0115C73.7458 67.1195 77.4676 67.2722 81.1361 67.4145C81.842 67.4649 82.5512 67.4466 83.2535 67.3596C83.8594 67.2404 84.4588 67.0898 85.049 66.9086C86.218 66.6015 87.4224 66.4486 88.6314 66.454C89.1599 66.454 89.697 66.4866 90.2065 66.3477C90.7161 66.2088 91.2067 65.8606 91.3444 65.3529C91.4024 65.1177 91.3965 64.8714 91.3272 64.6393C91.174 65.1196 90.7006 65.4541 90.2134 65.5964Z" fill="black"/>
</g>
<path d="M85.1142 63.5638C84.9868 63.8486 84.4497 66.3082 84.3223 66.5603C84.1949 66.8124 83.4994 70.8483 83.4358 71.0747C83.3721 71.3011 78.8515 70.1279 78.8515 70.1279L76.1299 67.8553L73.3325 65.0818C73.3325 65.0818 73.2499 62.5793 75.3104 61.7766C75.4505 61.7218 75.5943 61.6771 75.7408 61.6428C78.2404 61.0442 77.989 53.4716 77.989 53.4716L83.119 55.679C83.119 55.679 82.1688 60.0974 82.2015 60.9499C82.2101 61.2363 82.4356 61.4147 82.73 61.5227C83.1851 61.6518 83.6589 61.7028 84.1312 61.6737C84.1312 61.6737 85.2416 63.2808 85.1142 63.5638Z" fill="#FBBEBE"/>
<path d="M94.2979 71.862L95.0261 72.0524C95.0261 72.0524 95.5649 72.8688 94.2979 73.6286C93.4934 74.1155 92.7212 74.6535 91.986 75.2392L88.2418 76.3747L87.5205 74.1192L91.0048 71.4846L94.2979 71.862Z" fill="#080056"/>
<path opacity="0.1" d="M94.2979 71.862L95.0261 72.0524C95.0261 72.0524 95.5649 72.8688 94.2979 73.6286C93.4934 74.1155 92.7212 74.6535 91.986 75.2392L88.2418 76.3747L87.5205 74.1192L91.0048 71.4846L94.2979 71.862Z" fill="black"/>
<path d="M66.9739 74.0403L65.5176 75.4605C65.5176 75.4605 68.1445 78.4896 70.1655 78.6782C72.1865 78.8669 73.4897 76.3747 73.4897 76.3747L71.7407 73.6304L66.9739 74.0403Z" fill="#080056"/>
<path opacity="0.1" d="M66.9739 74.0403L65.5176 75.4605C65.5176 75.4605 68.1445 78.4896 70.1655 78.6782C72.1865 78.8669 73.4897 76.3747 73.4897 76.3747L71.7407 73.6304L66.9739 74.0403Z" fill="black"/>
<path opacity="0.1" d="M80.8075 58.4199C83.6055 58.4199 85.8737 56.1599 85.8737 53.3721C85.8737 50.5842 83.6055 48.3242 80.8075 48.3242C78.0095 48.3242 75.7412 50.5842 75.7412 53.3721C75.7412 56.1599 78.0095 58.4199 80.8075 58.4199Z" fill="black"/>
<path d="M80.8075 58.0408C83.6055 58.0408 85.8737 55.7808 85.8737 52.993C85.8737 50.2051 83.6055 47.9451 80.8075 47.9451C78.0095 47.9451 75.7412 50.2051 75.7412 52.993C75.7412 55.7808 78.0095 58.0408 80.8075 58.0408Z" fill="#FBBEBE"/>
<path opacity="0.1" d="M89.8971 95.3706C88.7435 95.5021 87.6073 95.7557 86.5076 96.127C84.614 96.7547 69.7749 96.1373 69.5684 96.127C69.5684 95.7702 69.5684 95.5592 69.5684 95.5592L70.2948 93.7617L78.9021 92.688H83.0199C83.0199 92.688 89.2172 94.1391 89.8576 94.7651C89.8834 95.1424 89.8971 95.3706 89.8971 95.3706Z" fill="black"/>
<path opacity="0.1" d="M85.1142 63.5639C84.9868 63.8486 84.4497 66.3082 84.3223 66.5603C84.1949 66.8125 83.4994 70.8483 83.4358 71.0748C83.3721 71.3012 78.8515 70.128 78.8515 70.128L76.1299 67.8553L73.3325 65.0818C73.3325 65.0818 73.2499 62.5793 75.3104 61.7766L80.4266 67.6375L82.73 61.5228C83.1851 61.6518 83.6589 61.7028 84.1312 61.6737C84.1312 61.6737 85.2416 63.2809 85.1142 63.5639Z" fill="black"/>
<path d="M80.4273 67.8262L75.1906 61.823C74.8841 61.628 74.5337 61.512 74.171 61.4853C73.8084 61.4587 73.4447 61.5223 73.1128 61.6703C71.9405 62.1763 70.4841 62.5862 70.1037 62.8384C69.7232 63.0905 68.2979 64.6513 68.2979 64.6513L72.543 75.7161L70.6735 83.0041C70.6735 83.0041 70.9592 86.7278 70.2311 88.0845C69.7877 88.952 69.58 89.92 69.6285 90.8923C69.6285 90.8923 69.8506 92.6915 69.5976 93.6366C69.4497 94.2685 69.4385 94.9246 69.5648 95.5611C69.5648 95.5611 84.6087 96.1923 86.5075 95.5611C87.6069 95.1887 88.7433 94.9351 89.8971 94.8047C89.8971 94.8047 89.5528 88.4927 89.2085 86.9782C88.8642 85.4637 89.4943 79.6903 89.4943 79.6903L89.0828 73.5052L91.5514 67.159C91.5514 67.159 90.2138 63.0905 88.8194 62.6806C88.8194 62.6806 86.2872 62.0802 85.7483 61.7972C85.2095 61.5142 83.6258 61.2604 83.6258 61.2604L82.7943 61.5382L80.4273 67.8262Z" fill="#080056"/>
<path opacity="0.1" d="M87.7324 73.2963L76.7129 72.5497C76.4341 72.5308 76.1926 72.7408 76.1737 73.0186L74.9906 90.3536C74.9717 90.6315 75.1824 90.872 75.4612 90.8909L86.4807 91.6375C86.7596 91.6564 87.001 91.4465 87.02 91.1686L88.203 73.8336C88.222 73.5557 88.0113 73.3152 87.7324 73.2963Z" fill="black"/>
<path d="M88.1123 72.9199L77.0928 72.1733C76.814 72.1544 76.5725 72.3643 76.5536 72.6422L75.3705 89.9772C75.3515 90.2551 75.5622 90.4956 75.8411 90.5145L86.8606 91.2611C87.1395 91.28 87.3809 91.0701 87.3999 90.7922L88.5829 73.4572C88.6019 73.1793 88.3912 72.9388 88.1123 72.9199Z" fill="#3F3D56"/>
<path d="M87.7487 74.2787L77.2686 73.5687L76.1916 89.3499L86.6717 90.0599L87.7487 74.2787Z" fill="white"/>
<path opacity="0.1" d="M86.8099 78.3067L78.249 77.7096L78.082 80.0869L86.6428 80.6839L86.8099 78.3067Z" fill="black"/>
<path opacity="0.1" d="M86.4992 87.7539L85.1406 87.6619L85.0561 88.9008L86.4146 88.9928L86.4992 87.7539Z" fill="black"/>
<path opacity="0.1" d="M85.1592 84.7637L78.2051 84.2926L78.1205 85.5315L85.0747 86.0027L85.1592 84.7637Z" fill="black"/>
<path d="M86.4519 73.6887L79.2109 73.1981L79.081 75.1028L86.3219 75.5933L86.4519 73.6887Z" fill="#3F3D56"/>
<path opacity="0.1" d="M86.4519 73.6887L79.2109 73.1981L79.081 75.1028L86.3219 75.5933L86.4519 73.6887Z" fill="black"/>
<path opacity="0.1" d="M81.0604 95.0224C81.0604 95.0224 80.9967 104.363 78.5264 109.727C78.5264 109.727 81.5045 102.658 81.5045 102.375C81.5045 102.092 83.1502 99.1252 82.7095 98.2418C82.2688 97.3585 81.0604 95.0224 81.0604 95.0224Z" fill="black"/>
<path opacity="0.1" d="M81.1941 51.7306C81.0995 50.9039 81.3027 50.0705 81.7674 49.3791C81.7121 50.0721 81.9088 50.7618 82.3216 51.3223C82.7343 51.8828 83.3356 52.2767 84.0156 52.4321C83.9576 52.382 83.9162 52.3155 83.8968 52.2414C83.8774 52.1673 83.8811 52.0891 83.9072 52.0171C84.2601 52.415 84.5303 52.8867 84.9297 53.2366C85.3291 53.5865 85.9282 53.7957 86.3981 53.547C87.0368 53.204 87.0437 52.3001 86.8784 51.5968C86.5238 50.0992 85.7962 48.7147 84.7627 47.5713C84.5049 47.2256 84.1702 46.9441 83.785 46.7489C83.3997 46.5537 82.9743 46.4501 82.542 46.4461C81.5643 46.3706 80.5486 46.4564 79.6724 46.8938C79.1793 47.1618 78.7174 47.4834 78.2952 47.8525L75.8851 49.8113C75.6533 49.9778 75.4547 50.186 75.2998 50.4254C75.1964 50.6254 75.1344 50.8441 75.1174 51.0686C75.0558 51.7101 75.1749 52.356 75.4614 52.9338C75.7478 53.5115 76.1903 53.9983 76.739 54.3395C76.7274 53.8324 76.8673 53.3334 77.1411 52.9058C77.4148 52.4783 77.8099 52.1414 78.2763 51.9382C78.3493 51.999 78.4084 52.0747 78.4497 52.1602C78.491 52.2457 78.5134 52.339 78.5155 52.4339L79.0234 51.5317C79.0989 51.3675 79.2179 51.227 79.3677 51.1252C79.681 50.9536 80.0717 51.156 80.3386 51.3979C80.6054 51.6397 80.8653 51.9416 81.2234 51.9793L81.2372 50.6363" fill="black"/>
<path d="M81.195 51.5419C81.1001 50.7146 81.3033 49.8806 81.7683 49.1887C81.6133 50.5608 82.6514 51.9776 84.0182 52.2417C83.9601 52.192 83.9186 52.1258 83.8993 52.0519C83.8799 51.9781 83.8835 51.9001 83.9098 51.8284C84.2627 52.2263 84.5329 52.6963 84.9323 53.0479C85.3317 53.3995 85.9308 53.607 86.4007 53.3566C87.0394 53.0136 87.0463 52.1097 86.881 51.4081C86.5264 49.9105 85.7987 48.526 84.7653 47.3825C84.4447 46.9931 84.0406 46.6801 83.5827 46.4666C83.2512 46.3445 82.9028 46.2739 82.5498 46.2574C81.572 46.1819 80.5563 46.266 79.6801 46.7033C79.1873 46.9726 78.7256 47.2947 78.3029 47.6638L75.8929 49.6226C75.6606 49.7886 75.462 49.997 75.3076 50.2367C75.2039 50.4366 75.1419 50.6554 75.1251 50.8799C75.0637 51.5211 75.1829 52.1667 75.4693 52.7442C75.7558 53.3217 76.1981 53.8082 76.7467 54.149C76.7356 53.6421 76.8757 53.1433 77.1494 52.7158C77.4231 52.2883 77.818 51.9514 78.284 51.7477C78.3568 51.8088 78.4158 51.8846 78.457 51.97C78.4982 52.0555 78.5208 52.1487 78.5233 52.2434L79.0294 51.3447C79.1045 51.1802 79.2236 51.0396 79.3737 50.9382C79.687 50.7667 80.0778 50.969 80.3446 51.2109C80.6114 51.4527 80.8714 51.7529 81.2294 51.7923L81.2432 50.4476" fill="#3F3D56"/>
<path d="M83.5943 83.3813C83.1519 83.1584 75.8356 84.2955 75.8356 84.2955C75.8356 84.2955 74.6306 83.9525 71.7179 83.4757C68.8052 82.9988 68.6193 80.1619 68.6193 80.1619L68.3008 74.4828L69.2837 73.6252L73.4944 76.3696C73.4944 76.3696 73.5599 77.7572 73.4944 78.0076C73.4531 78.1791 73.343 78.3832 73.3533 78.5222C73.3565 78.5598 73.372 78.5953 73.3976 78.6232C73.4231 78.6511 73.4571 78.6699 73.4944 78.6765C73.7802 78.7486 77.6742 79.3763 77.6742 79.3763C77.6742 79.3763 86.6998 78.7606 88.9498 81.7896C89.128 82.012 89.2629 82.2656 89.3474 82.5375C89.9052 84.6077 83.9954 83.5786 83.5943 83.3813Z" fill="#FBBEBE"/>
<path opacity="0.1" d="M89.3528 82.5494C89.0085 82.7021 88.7951 82.8118 88.7951 82.8118C88.7951 82.8118 85.5656 82.7175 83.7512 82.0623C81.9368 81.4071 79.7316 81.5237 79.7316 81.5237C79.7316 81.5237 72.1709 80.227 73.3432 78.5341C73.3464 78.5717 73.362 78.6073 73.3875 78.6352C73.413 78.6631 73.4471 78.6818 73.4844 78.6885C73.7701 78.7605 77.6641 79.3883 77.6641 79.3883C77.6641 79.3883 86.6897 78.7725 88.9397 81.8016C89.1235 82.0227 89.2636 82.2764 89.3528 82.5494Z" fill="black"/>
<path d="M92.492 72.5566C92.492 72.5566 92.9362 75.68 92.9671 75.9339C92.9981 76.1877 93.1582 79.2459 92.9671 79.5941C92.7761 79.9423 92.492 80.5083 92.492 80.5083C92.492 80.5083 92.8088 81.1704 91.5418 81.4242C90.2748 81.6781 88.7874 82.4328 88.7874 82.4328C88.7874 82.4328 85.5562 82.3384 83.7521 81.6764C81.9481 81.0143 79.7308 81.1395 79.7308 81.1395C79.7308 81.1395 70.1336 79.4981 74.2514 77.4947C78.3691 75.4914 81.2818 78.2048 81.2818 78.2048L85.873 77.9218C85.873 77.9218 87.5841 76.879 88.0592 76.975C88.3948 77.0176 88.7355 76.9628 89.0405 76.8172L89.0732 73.5034L92.492 72.5566Z" fill="#FBBEBE"/>
<path opacity="0.1" d="M69.2114 64.8897L68.2922 64.8417L65.5068 75.6475C65.5068 75.6475 68.5142 74.8894 69.8105 75.6475C71.1068 76.4056 73.4841 76.5617 73.4841 76.5617L72.5976 67.9479L69.2114 64.8897Z" fill="black"/>
<path d="M69.2114 64.6993L68.2922 64.6512L65.5068 75.4571C65.5068 75.4571 68.5142 74.6989 69.8105 75.4571C71.1068 76.2152 73.4841 76.3713 73.4841 76.3713L72.5976 67.7575L69.2114 64.6993Z" fill="#080056"/>
<path opacity="0.1" d="M90.277 67.0663L91.5423 67.351C91.5423 67.351 94.7735 71.9821 95.0265 72.2411C95.2796 72.5001 93.8215 73.4417 93.2207 73.4417C92.6199 73.4417 89.6745 73.7848 88.8189 74.5772C87.9633 75.3696 88.3197 71.3817 88.3197 71.2908C88.3197 71.1999 89.3818 68.6837 89.3818 68.6837L90.277 67.0663Z" fill="black"/>
<path d="M90.277 66.8777L91.5423 67.1607C91.5423 67.1607 94.7735 71.8003 95.0265 72.0525C95.2796 72.3046 93.8215 73.2531 93.2207 73.2531C92.6199 73.2531 89.6745 73.5962 88.8189 74.3886C87.9633 75.181 88.3197 71.1932 88.3197 71.1022C88.3197 71.0113 89.3887 68.4866 89.3887 68.4866L90.277 66.8777Z" fill="#080056"/>
<g opacity="0.1">
<path opacity="0.1" d="M81.759 49.2041C81.7516 49.0726 81.7545 48.9407 81.7676 48.8096C81.5055 49.2015 81.3252 49.6419 81.2374 50.1046V50.5025C81.2374 50.5025 81.2374 50.494 81.2374 50.4888V50.5832C81.2374 50.861 81.2374 51.1406 81.2288 51.4185H81.2047V51.5471C81.2047 51.5025 81.2047 51.4596 81.1961 51.415C80.8518 51.3601 80.6057 51.072 80.3492 50.8422C80.0927 50.6123 79.6916 50.3928 79.3783 50.5694C79.2282 50.6708 79.109 50.8115 79.034 50.9759L78.5227 51.8747C78.5204 51.7801 78.4979 51.6871 78.4566 51.6019C78.4154 51.5167 78.3563 51.4413 78.2834 51.3807C77.8171 51.584 77.4219 51.9208 77.1482 52.3484C76.8745 52.776 76.7345 53.275 76.7461 53.782C76.2758 53.4884 75.8823 53.0875 75.5983 52.6123C75.3142 52.1372 75.1477 51.6016 75.1125 51.0497C75.0825 51.666 75.2182 52.279 75.5053 52.8256C75.7925 53.3723 76.2208 53.8327 76.7461 54.1594C76.735 53.6524 76.8751 53.1536 77.1488 52.7261C77.4225 52.2986 77.8174 51.9617 78.2834 51.7581C78.3562 51.8192 78.4152 51.8949 78.4564 51.9804C78.4976 52.0658 78.5202 52.159 78.5227 52.2538L79.0288 51.355C79.1039 51.1905 79.223 51.0499 79.3731 50.9485C79.6864 50.777 80.0772 50.9794 80.344 51.2212C80.6108 51.4631 80.8708 51.7632 81.2288 51.8027C81.2288 51.3636 81.2334 50.9256 81.2426 50.4888C81.3271 50.0306 81.5026 49.5938 81.759 49.2041Z" fill="black"/>
<path opacity="0.1" d="M81.1777 50.9313C81.1863 50.8147 81.2 50.698 81.2172 50.5883L81.2362 50.1149C81.1844 50.3838 81.1648 50.6578 81.1777 50.9313Z" fill="black"/>
<path opacity="0.1" d="M86.4003 52.9776C85.9304 53.228 85.3313 53.0188 84.9319 52.6689C84.5325 52.319 84.2623 51.8473 83.9094 51.4493C83.8832 51.5213 83.8796 51.5995 83.899 51.6736C83.9183 51.7477 83.9598 51.8142 84.0178 51.8644C83.9834 51.8644 83.9507 51.8473 83.918 51.8387C84.2623 52.2332 84.536 52.6963 84.9319 53.0393C85.3279 53.3824 85.9304 53.5985 86.4003 53.3481C86.8703 53.0977 87.0046 52.5111 86.9632 51.9399C86.9323 52.3893 86.7704 52.7786 86.4003 52.9776Z" fill="black"/>
<path opacity="0.1" d="M83.9073 51.8353C83.3317 51.679 82.8177 51.3511 82.4343 50.8955C82.051 50.44 81.8165 49.8785 81.7624 49.2865C81.6643 50.6329 82.6834 51.9828 84.0175 52.2418C83.9607 52.1926 83.9198 52.1277 83.9002 52.0553C83.8806 51.9829 83.8831 51.9063 83.9073 51.8353Z" fill="black"/>
</g>
<path d="M166.58 79.8686C166.58 79.8686 165.901 79.7743 165.901 78.7915C165.901 77.8087 165.416 75.9682 165.416 75.9682C165.416 75.9682 164.996 72.766 164.416 72.2583C163.836 71.7506 163.09 68.7695 163.09 68.7695C163.09 68.7695 162.963 67.1521 162.703 66.8039C162.443 66.4557 162.092 65.6033 161.574 64.3872C161.056 63.1711 158.9 62.3375 158.9 62.3375C158.9 62.3375 154.994 60.0803 153.887 59.3445C153.786 59.2835 153.692 59.2122 153.605 59.1318C153.412 58.8814 152.572 58.8762 152.572 58.8762C152.484 58.3222 152.4 57.6876 152.372 57.113C152.372 57.0512 152.372 56.9895 152.372 56.9277C153.607 56.2008 154.536 55.0547 154.991 53.6997C155.011 53.6345 155.029 53.5677 155.048 53.5008C155.123 53.4775 155.193 53.4386 155.252 53.3866C155.312 53.3346 155.359 53.2706 155.392 53.1989C155.49 52.9776 155.493 52.7203 155.617 52.5128C155.762 52.2692 156.037 52.1389 156.254 51.9571C156.802 51.4923 156.943 50.7118 156.917 50.0035C156.9 49.4271 156.807 48.8474 156.843 48.2762C156.843 48.2282 156.843 48.1802 156.853 48.1322C156.864 48.0481 156.876 47.9606 156.891 47.8783C156.976 47.4529 157.16 47.0516 157.263 46.6296C157.366 46.2077 157.377 45.7326 157.136 45.369C156.783 44.8355 156.048 44.7292 155.402 44.6829C154.671 44.6211 154.025 44.7 153.548 44.0946C153.329 43.7783 153.083 43.4822 152.811 43.2095C152.715 43.1203 151.779 42.5492 151.779 42.5131C150.862 42.0887 149.823 42.0089 148.852 42.2885C148.365 42.4291 147.909 42.6589 147.415 42.7739C146.354 43.0243 145.132 42.7533 144.23 43.3587C143.727 43.7018 143.426 44.2489 143.144 44.7789C142.914 45.2157 142.681 45.6531 142.445 46.0911C142.063 46.8097 141.677 47.5404 141.517 48.3363C141.483 48.5101 141.462 48.6861 141.453 48.8628C141.453 48.9263 141.453 48.9898 141.453 49.0532C141.453 49.0807 141.453 49.1081 141.453 49.1356C141.453 49.1939 141.453 49.2522 141.464 49.3071C141.474 49.362 141.464 49.3774 141.476 49.4134C141.488 49.4494 141.491 49.5301 141.501 49.5849C141.512 49.6398 141.532 49.7376 141.553 49.8113C141.553 49.8439 141.574 49.8748 141.584 49.9074C141.594 49.94 141.622 50.0223 141.644 50.0789C141.667 50.1355 141.668 50.139 141.682 50.1681C141.708 50.2281 141.739 50.2865 141.77 50.3396C141.784 50.3619 141.794 50.3842 141.808 50.4065C141.855 50.4868 141.908 50.5636 141.966 50.6364C142.333 51.0943 142.877 51.3859 143.278 51.8147C143.278 51.8319 143.278 51.849 143.278 51.8662C143.278 51.9125 143.278 51.9588 143.278 52.0068C143.303 52.9632 143.561 53.8992 144.032 54.7332C144.502 55.5672 145.17 56.2741 145.977 56.7922C145.977 56.8574 145.986 56.9243 145.989 56.9912C146.023 57.4998 146.017 58.0102 145.97 58.5177C145.9 58.4357 145.812 58.3703 145.713 58.3264C145.615 58.2824 145.507 58.2611 145.399 58.2639C145.325 58.2602 145.251 58.2666 145.178 58.2828L145.163 58.2707V58.2862C144.784 58.3788 144.318 58.7716 143.872 59.8882C143.872 59.8882 142.515 61.4113 141.482 61.3478C140.45 61.2844 137.835 62.9344 137.835 62.9344C137.835 62.9344 135.283 64.5827 134.736 66.2636C134.43 67.217 134.063 68.1497 133.636 69.056L130.474 75.5257L129.894 80.6713C129.894 80.6713 130.215 82.9543 130.152 83.3042C130.088 83.6541 131.476 86.7929 131.476 86.7929C131.476 86.7929 136.06 94.8167 137.933 95.2283L138.067 95.1357C138.148 95.1761 138.232 95.2072 138.32 95.2283L138.706 94.959C138.73 95.2605 138.719 95.5638 138.675 95.8629C138.418 96.6571 138.773 101.827 139.224 102.84C139.675 103.854 139.515 117.147 139.515 117.147L139.451 118.318C139.451 118.318 139.451 118.356 139.467 118.421L139.451 118.699L139.498 118.723C139.546 119.096 139.53 119.474 139.451 119.842C139.289 120.356 139.224 121.809 139.224 121.809C139.224 121.809 137.933 130.021 138.546 131.671C139.158 133.321 139.677 135.129 139.677 135.129C139.677 135.129 140.322 137.187 139.708 137.53C139.093 137.873 137.353 138.482 137.707 139.338C138.034 140.131 139.276 142.254 139.46 142.565L139.444 142.736L139.191 145.468C139.232 145.829 139.33 146.181 139.482 146.511C139.759 147.108 140.296 147.724 141.322 147.657C141.495 147.645 141.692 147.626 141.887 147.6C143.762 147.348 146.068 146.515 146.068 146.515C145.949 146.439 145.839 146.349 145.743 146.245C145.651 146.156 145.578 146.05 145.529 145.932C145.479 145.814 145.454 145.687 145.456 145.559C145.483 145.06 144.548 142.691 144.314 142.107L144.261 141.976C144.261 141.976 146.392 139.755 146.037 137.789C146.037 137.789 143.679 136.417 144.455 135.663C145.232 134.908 146.619 132.747 146.619 132.747C146.619 132.747 146.683 124.66 146.619 123.454C146.553 122.615 146.593 121.771 146.738 120.943C146.764 120.819 146.795 120.697 146.828 120.576C147.902 120.737 148.987 120.819 150.074 120.821C150.471 120.821 150.873 120.813 151.279 120.797C151.279 120.911 151.284 121.035 151.295 121.167C151.384 123.171 151.551 126.685 151.687 127.99C151.88 129.86 152.946 134.904 152.946 134.904C152.946 134.904 150.913 136.203 153.3 139.409C153.3 139.409 153.3 140.568 153.142 140.738C152.973 141.288 152.837 141.847 152.734 142.414C152.634 143.016 152.593 143.628 152.755 143.944C153.142 144.702 155.466 144.64 155.466 144.64C155.485 144.636 155.504 144.633 155.523 144.631C155.961 144.585 156.405 144.627 156.827 144.753C157.25 144.88 157.642 145.089 157.983 145.369C158.866 146.076 162.216 145.767 164.032 145.54C164.743 145.45 165.218 145.369 165.218 145.369C165.241 145.289 165.249 145.205 165.242 145.122C165.223 144.678 164.874 143.703 162.505 142.834C162.505 142.834 160.277 141.342 160.308 140.042H160.259H160.002C160.164 140.036 160.277 140.036 160.277 140.036C160.277 140.036 159.405 136.865 159.761 136.606C160.117 136.347 159.05 132.832 159.05 132.832C159.05 132.832 158.439 126.932 158.404 126.521C158.407 126.166 158.461 125.813 158.566 125.474L158.404 122.238C158.404 122.238 158.373 121.162 158.404 120.812C158.401 120.509 158.377 120.205 158.332 119.905C158.317 119.785 158.301 119.66 158.284 119.536C159.119 119.325 159.661 119.131 159.661 119.131L159.565 107.871C160.274 106.499 160.405 103.487 160.401 101.353C160.401 99.9811 160.339 98.9657 160.339 98.9657L161.309 97.3895C161.309 97.3895 161.532 95.5027 161.178 95.0894C161.021 94.9024 161.092 94.7086 161.221 94.5491C161.289 94.4936 161.361 94.4432 161.436 94.3981C161.428 94.3862 161.42 94.3736 161.414 94.3604C161.481 94.3041 161.553 94.253 161.629 94.2078C161.629 94.2078 161.284 93.676 161.593 93.4514C161.882 93.6469 162.14 93.803 162.336 93.9144C162.323 94.0397 162.309 94.1117 162.309 94.1117L162.391 93.9402C162.581 94.0465 162.696 94.1117 162.696 94.1117C162.696 94.1117 164.214 91.0981 164.182 90.6556C164.149 90.213 165.215 88.34 165.215 88.34C165.215 88.34 165.344 87.3555 165.926 86.9439C166.507 86.5322 166.377 83.5495 166.377 83.5495C166.377 83.5495 166.538 81.9955 166.926 81.3626C167.313 80.7297 166.58 79.8686 166.58 79.8686ZM137.528 78.5462L137.558 79.2649C137.385 78.9887 137.261 78.7915 137.261 78.7915L137.528 78.5462Z" fill="url(#paint1_linear)"/>
<path d="M162.785 92.8081L162.414 94.3861C162.414 94.3861 159.435 92.8681 158.9 90.9471C158.365 89.0261 159.797 88.2937 159.797 88.2937L162.574 89.4635L162.785 92.8081Z" fill="white"/>
<path opacity="0.1" d="M162.785 92.8081L162.414 94.3861C162.414 94.3861 159.435 92.8681 158.9 90.9471C158.365 89.0261 159.797 88.2937 159.797 88.2937L162.574 89.4635L162.785 92.8081Z" fill="black"/>
<path d="M146.072 146.513C146.072 146.513 143.317 147.521 141.424 147.648C140.418 147.715 139.89 147.101 139.618 146.509C139.47 146.183 139.374 145.836 139.332 145.48L139.582 142.762L139.712 141.316L143.736 140.273L144.305 142.01L144.359 142.141C144.586 142.722 145.505 145.079 145.478 145.571C145.475 145.699 145.499 145.825 145.547 145.943C145.596 146.061 145.667 146.168 145.758 146.257C145.851 146.355 145.957 146.441 146.072 146.513Z" fill="white"/>
<path d="M164.876 145.13C164.883 145.214 164.875 145.297 164.852 145.377C164.852 145.377 158.961 146.355 157.756 145.377C157.417 145.092 157.023 144.88 156.597 144.755C156.171 144.63 155.724 144.595 155.284 144.652C155.284 144.652 153.005 144.714 152.624 143.966C152.466 143.652 152.507 143.043 152.605 142.444C152.706 141.881 152.839 141.325 153.005 140.777L153.096 140.705L153.638 140.271L159.987 140.084H160.035C160.004 141.378 162.189 142.861 162.189 142.861C164.515 143.719 164.857 144.688 164.876 145.13Z" fill="white"/>
<path opacity="0.1" d="M164.878 145.13C164.884 145.214 164.875 145.297 164.852 145.377C164.852 145.377 158.961 146.355 157.758 145.377C157.419 145.092 157.024 144.879 156.598 144.755C156.172 144.63 155.724 144.595 155.284 144.652C155.284 144.652 153.003 144.714 152.623 143.966C152.466 143.652 152.506 143.043 152.604 142.443C153.482 142.53 154.868 142.748 155.412 143.269C156.234 144.058 157.629 144.847 158.483 144.911C159.157 144.952 163.17 145.079 164.878 145.13Z" fill="black"/>
<path opacity="0.1" d="M146.072 146.513C146.072 146.513 143.318 147.522 141.424 147.648C140.419 147.715 139.89 147.101 139.618 146.51C140.321 146.745 141.293 146.99 141.804 146.765C142.41 146.496 144.559 146.324 145.764 146.251C145.855 146.351 145.958 146.439 146.072 146.513Z" fill="black"/>
<path d="M150.158 65.231C147.885 64.3511 144.962 61.4438 145.692 60.0854C145.854 59.7423 145.95 59.3725 145.976 58.9945C146.023 58.4813 146.03 57.9651 145.997 57.4508C145.946 56.6079 145.844 55.7688 145.692 54.938C145.692 54.938 152.786 55.0976 152.373 56.1387C152.253 56.4457 152.232 56.9757 152.267 57.5675C152.301 58.1592 152.385 58.8333 152.475 59.401C152.597 60.178 152.723 60.7732 152.723 60.7732C152.723 60.7732 152.287 61.3786 152.034 61.4112C151.781 61.4438 153.418 66.4917 150.158 65.231Z" fill="#CF6F80"/>
<path opacity="0.1" d="M144.351 142.132L144.298 142.191C142.177 139.635 139.612 142.822 139.612 142.822L139.574 142.753L139.705 141.307L143.728 140.264L144.298 142.002L144.351 142.132Z" fill="black"/>
<path opacity="0.1" d="M160.04 140.264C160.04 140.264 158.49 140.234 157.664 140.961C156.838 141.688 152.844 141.117 153.016 140.961C153.066 140.882 153.097 140.792 153.106 140.698L153.648 140.264L159.997 140.078C160.021 140.198 160.04 140.264 160.04 140.264Z" fill="black"/>
<path d="M146.991 120.195C146.876 120.479 146.788 120.774 146.73 121.075C146.586 121.899 146.546 122.738 146.611 123.572C146.675 124.773 146.611 132.819 146.611 132.819C146.611 132.819 145.249 134.964 144.488 135.721C143.727 136.477 146.038 137.836 146.038 137.836C146.382 139.793 144.295 142.002 144.295 142.002C142.175 139.446 139.61 142.631 139.61 142.631C139.61 142.631 138.215 140.23 137.868 139.373C137.52 138.515 139.229 137.923 139.83 137.573C140.431 137.223 139.799 135.172 139.799 135.172C139.799 135.172 139.293 133.373 138.69 131.731C138.088 130.09 139.355 121.92 139.355 121.92C139.355 121.92 139.42 120.468 139.577 119.962C139.655 119.596 139.671 119.221 139.623 118.85C139.613 118.725 139.601 118.622 139.592 118.55C139.584 118.478 139.577 118.447 139.577 118.447L139.601 118.406L140.462 116.807C140.462 116.807 147.404 119.188 146.991 120.195Z" fill="#080056"/>
<path d="M160.039 140.076C160.039 140.076 158.49 140.043 157.663 140.762C156.837 141.48 152.843 140.92 153.015 140.762C153.188 140.604 153.172 139.438 153.172 139.438C150.829 136.249 152.828 134.956 152.828 134.956C152.828 134.956 151.783 129.939 151.594 128.078C151.461 126.779 151.297 123.275 151.21 121.291C151.172 120.433 151.149 119.841 151.149 119.841L153.046 119.466L153.293 119.418L157.91 118.493C157.91 118.493 158.037 119.351 158.123 120.052C158.167 120.352 158.19 120.654 158.194 120.956C158.164 121.299 158.194 122.375 158.194 122.375L158.352 125.593C158.25 125.93 158.197 126.281 158.194 126.634C158.226 127.045 158.827 132.913 158.827 132.913C158.827 132.913 159.872 136.415 159.516 136.668C159.159 136.92 160.039 140.076 160.039 140.076Z" fill="#080056"/>
<path opacity="0.1" d="M152.373 56.1438C152.253 56.4508 152.232 56.9808 152.267 57.5726C151.316 58.1427 150.224 58.4342 149.115 58.4136C148.006 58.3929 146.925 58.061 145.997 57.456C145.946 56.6131 145.844 55.774 145.692 54.9432C145.692 54.9432 152.787 55.1027 152.373 56.1438Z" fill="black"/>
<path d="M155.112 52.3567C155.131 53.9129 154.528 55.4128 153.437 56.5264C152.346 57.64 150.856 58.2761 149.294 58.2947C147.732 58.3134 146.226 57.7131 145.109 56.6258C143.991 55.5386 143.353 54.0535 143.334 52.4973C143.334 52.4493 143.334 52.4047 143.334 52.3567C143.334 50.8 143.955 49.3071 145.059 48.2064C146.164 47.1056 147.662 46.4872 149.225 46.4872C150.787 46.4872 152.286 47.1056 153.39 48.2064C154.495 49.3071 155.116 50.8 155.116 52.3567H155.112Z" fill="#CF6F80"/>
<path opacity="0.1" d="M150.158 65.2311C147.885 64.3512 144.962 61.4439 145.692 60.0854C145.854 59.7423 145.95 59.3725 145.976 58.9946L149.087 61.5434L151.012 63.1162L152.475 59.4062C152.597 60.1832 152.723 60.7784 152.723 60.7784C152.723 60.7784 152.287 61.3838 152.034 61.4164C151.781 61.449 153.418 66.4917 150.158 65.2311Z" fill="black"/>
<path d="M158.203 76.4948L155.606 119.975L152.218 120.197L143.443 94.9847L144.883 65.0527L145.187 58.7287L149.088 61.9207L151.013 63.4935L152.519 59.6738L155.32 62.1059L158.203 76.4948Z" fill="#080056"/>
<path opacity="0.1" d="M146.99 120.195C146.875 120.479 146.787 120.774 146.728 121.075C144.261 120.696 141.864 119.951 139.619 118.864L139.572 118.84L139.588 118.564V118.42L140.448 116.821C140.448 116.821 147.403 119.188 146.99 120.195Z" fill="black"/>
<path opacity="0.1" d="M153.104 121.082C152.474 121.189 151.838 121.262 151.2 121.299C151.162 120.442 151.14 119.85 151.14 119.85L153.047 119.466L153.104 121.082Z" fill="black"/>
<path opacity="0.1" d="M158.13 120.052C156.906 120.37 155.014 120.726 153.324 120.503L153.3 119.418L157.917 118.493C157.917 118.493 158.039 119.344 158.13 120.052Z" fill="black"/>
<path opacity="0.1" d="M153.293 120.702C146.235 121.903 139.771 118.461 139.771 118.461L139.833 117.294C139.833 117.294 139.993 104.072 139.549 103.058C139.105 102.044 138.759 96.9108 139.01 96.127C139.262 95.3431 138.093 83.5082 138.093 83.5082L137.904 78.7056L130.968 75.8978L134.066 69.4607C134.485 68.5583 134.845 67.6302 135.144 66.682C135.683 65.0097 138.184 63.3683 138.184 63.3683C138.184 63.3683 140.749 61.7285 141.763 61.7903C142.777 61.852 144.106 60.3392 144.106 60.3392C145.087 57.847 145.975 58.967 145.975 58.967C145.975 59.0871 145.976 58.967 145.927 59.3358C145.583 62.0716 151.495 70.7162 151.579 70.8706L152.149 84.5339L152.718 101.825L153.293 120.702Z" fill="black"/>
<path d="M153.103 120.702C146.045 121.903 139.579 118.461 139.579 118.461L139.643 117.294C139.643 117.294 139.802 104.072 139.357 103.058C138.913 102.044 138.567 96.9057 138.82 96.115C139.073 95.3243 137.898 83.5014 137.898 83.5014L137.707 78.6988L130.772 75.891L133.871 69.4538C134.289 68.5517 134.648 67.6242 134.949 66.6769C135.488 65.0097 137.997 63.3665 137.997 63.3665C137.997 63.3665 140.562 61.7268 141.575 61.7885C142.587 61.8503 143.923 60.3392 143.923 60.3392C144.906 57.847 145.988 58.967 145.988 58.967C145.988 59.0871 145.885 59.1385 145.94 59.3358C146.698 61.9892 151.318 70.7162 151.402 70.8706L151.972 84.5339L152.53 101.833L153.103 120.702Z" fill="white"/>
<path opacity="0.1" d="M151.201 71.2565C150.442 70.9409 146.421 66.3664 146.421 66.3664V65.3253C146.274 64.9822 145.403 65.1915 144.699 65.4316L145.002 59.1077L145.346 59.3924C146.099 62.0441 151.119 71.1038 151.201 71.2565Z" fill="black"/>
<path d="M151.392 70.8792C150.631 70.5619 146.61 65.9892 146.61 65.9892V64.9464C146.464 64.6033 145.594 64.8126 144.889 65.0527L145.186 58.7356L145.531 59.0186C146.29 61.6669 151.308 70.7249 151.392 70.8792Z" fill="white"/>
<path opacity="0.1" d="M139.771 93.6914C139.866 93.6914 144.679 93.1871 144.679 93.1871C144.679 93.1871 147.593 98.8988 147.402 100.286C147.211 101.674 146.865 102.905 145.693 102.688C144.521 102.47 139.384 102.859 139.384 102.859L139.771 93.6914Z" fill="black"/>
<path d="M139.58 93.3124C139.676 93.3124 144.489 92.8081 144.489 92.8081C144.489 92.8081 147.402 98.5283 147.213 99.9005C147.023 101.273 146.674 102.52 145.503 102.302C144.333 102.084 139.192 102.473 139.192 102.473L139.58 93.3124Z" fill="white"/>
<path d="M143.207 90.6384C143.207 90.6384 147.625 93.0053 147.719 93.7257C147.814 94.4461 145.471 93.4101 144.965 93.2832C144.632 93.2043 144.293 93.1516 143.951 93.1254L140.575 93.2163L143.207 90.6384Z" fill="#CF6F80"/>
<path opacity="0.1" d="M149.967 71.5515C150.223 71.5515 150.432 71.3442 150.432 71.0884C150.432 70.8326 150.223 70.6253 149.967 70.6253C149.71 70.6253 149.502 70.8326 149.502 71.0884C149.502 71.3442 149.71 71.5515 149.967 71.5515Z" fill="black"/>
<path d="M149.967 71.3629C150.223 71.3629 150.432 71.1556 150.432 70.8998C150.432 70.644 150.223 70.4367 149.967 70.4367C149.71 70.4367 149.502 70.644 149.502 70.8998C149.502 71.1556 149.71 71.3629 149.967 71.3629Z" fill="#3F3D56"/>
<path opacity="0.1" d="M150.823 91.5988C151.08 91.5988 151.288 91.3915 151.288 91.1357C151.288 90.88 151.08 90.6726 150.823 90.6726C150.566 90.6726 150.358 90.88 150.358 91.1357C150.358 91.3915 150.566 91.5988 150.823 91.5988Z" fill="black"/>
<path d="M150.823 91.4085C151.08 91.4085 151.288 91.2012 151.288 90.9454C151.288 90.6896 151.08 90.4823 150.823 90.4823C150.566 90.4823 150.358 90.6896 150.358 90.9454C150.358 91.2012 150.566 91.4085 150.823 91.4085Z" fill="#3F3D56"/>
<path opacity="0.1" d="M150.432 81.5752C150.688 81.5752 150.896 81.3679 150.896 81.1121C150.896 80.8563 150.688 80.649 150.432 80.649C150.175 80.649 149.967 80.8563 149.967 81.1121C149.967 81.3679 150.175 81.5752 150.432 81.5752Z" fill="black"/>
<path d="M150.432 81.3865C150.688 81.3865 150.896 81.1792 150.896 80.9234C150.896 80.6676 150.688 80.4603 150.432 80.4603C150.175 80.4603 149.967 80.6676 149.967 80.9234C149.967 81.1792 150.175 81.3865 150.432 81.3865Z" fill="#3F3D56"/>
<path d="M161.146 93.0293C161.146 93.0293 161.463 93.5027 161.146 93.7154C160.829 93.9281 161.177 94.4735 161.177 94.4735C161.177 94.4735 160.387 94.9332 160.734 95.35C161.082 95.7668 160.862 97.6381 160.862 97.6381L159.912 99.2144C159.912 99.2144 159.968 100.225 159.972 101.59C159.972 103.72 159.846 106.715 159.151 108.08L159.244 119.282C159.244 119.282 155.916 120.495 153.131 120.124L152.718 102.149C152.718 102.149 153.32 91.9556 153.542 90.0003C153.672 88.9852 153.725 87.9617 153.701 86.9386C153.701 86.9386 153.606 83.8787 153.287 82.4602C153.287 82.4602 152.943 76.3061 152.909 74.6029C152.893 73.7881 152.936 71.4109 152.984 69.1502C153.038 66.6786 153.098 64.3477 153.098 64.3477L152.47 59.3924C152.47 59.3924 153.098 59.3307 153.287 59.5811C153.372 59.66 153.464 59.7307 153.563 59.7921C154.649 60.5227 158.481 62.7697 158.481 62.7697C158.481 62.7697 160.602 63.6101 161.11 64.8142C161.618 66.0183 161.97 66.8724 162.217 67.2155C162.463 67.5585 162.597 69.1708 162.597 69.1708C162.597 69.1708 163.327 72.1381 163.897 72.6407C164.467 73.1432 164.876 76.3335 164.876 76.3335L159.841 80.2785C159.841 80.2785 159.399 86.8409 159.304 87.0947C159.209 87.3486 161.146 93.0293 161.146 93.0293Z" fill="white"/>
<path d="M161.337 93.0294C161.337 93.0294 161.652 93.5028 161.337 93.7155C161.022 93.9282 161.367 94.4736 161.367 94.4736C161.367 94.4736 160.576 94.9333 160.924 95.3501C161.272 95.7669 161.051 97.6382 161.051 97.6382L160.105 99.2145C160.105 99.2145 160.162 100.225 160.167 101.59C160.167 103.72 160.041 106.715 159.346 108.08L159.44 119.282C159.44 119.282 156.113 120.495 153.327 120.125L152.916 102.149C152.916 102.149 153.517 91.9557 153.74 90.0004C153.871 88.9853 153.923 87.9618 153.897 86.9387C153.897 86.9387 153.802 83.8788 153.486 82.4603C153.486 82.4603 153.141 76.3062 153.105 74.603C153.09 73.7882 153.133 71.411 153.181 69.1503C153.234 66.6787 153.295 64.3477 153.295 64.3477L152.465 59.3256C152.465 59.3256 153.295 59.3256 153.486 59.5812C153.57 59.6611 153.662 59.7318 153.761 59.7922C154.846 60.5228 158.678 62.7698 158.678 62.7698C158.678 62.7698 160.793 63.6102 161.31 64.8143C161.826 66.0184 162.17 66.8725 162.417 67.2156C162.663 67.5586 162.797 69.1709 162.797 69.1709C162.797 69.1709 163.527 72.1382 164.097 72.6408C164.667 73.1433 165.078 76.3336 165.078 76.3336L160.043 80.2786C160.043 80.2786 159.6 86.841 159.504 87.0948C159.408 87.3487 161.337 93.0294 161.337 93.0294Z" fill="white"/>
<path opacity="0.1" d="M155.307 65.8039L155.763 67.1246L153.368 69.5259C153.422 67.0543 153.482 64.7233 153.482 64.7233L152.652 59.7029C152.652 59.7029 153.482 59.7029 153.673 59.9584C153.757 60.0383 153.85 60.109 153.949 60.1694L155.983 66.0166L155.307 65.8039Z" fill="black"/>
<path d="M155.113 65.4248L155.569 66.7438L153.176 69.1451C153.227 66.6735 153.289 64.3425 153.289 64.3425L152.458 59.3204C152.458 59.3204 153.289 59.3204 153.479 59.5759C153.563 59.6553 153.656 59.726 153.754 59.7869L155.801 65.6392L155.113 65.4248Z" fill="white"/>
<path opacity="0.1" d="M155.112 52.3567C155.113 52.9747 155.015 53.5889 154.823 54.1765C154.791 54.1819 154.757 54.1807 154.726 54.1731C154.694 54.1654 154.663 54.1514 154.637 54.1319C154.591 52.5882 153.83 51.1372 152.892 49.9039C152.628 49.532 152.308 49.2023 151.945 48.9263C151.577 48.651 151.119 48.522 150.661 48.5644C150.144 48.6347 149.688 48.9846 149.166 49.0292C148.478 49.0858 147.861 48.6107 147.178 48.5884C146.9 48.5907 146.626 48.6522 146.374 48.7687C146.122 48.8853 145.898 49.0542 145.716 49.2642C145.357 49.6865 145.09 50.179 144.933 50.7101C144.663 51.516 144.515 52.3578 144.496 53.2074C144.487 53.6877 144.441 54.2897 143.993 54.4647C144.027 54.1117 143.987 53.7556 143.875 53.419C143.764 53.0824 143.583 52.7726 143.344 52.5093L143.334 52.4973C143.334 52.4493 143.334 52.4047 143.334 52.3567C143.334 50.8 143.955 49.3071 145.059 48.2064C146.164 47.1056 147.662 46.4872 149.225 46.4872C150.787 46.4872 152.286 47.1056 153.39 48.2064C154.495 49.3071 155.116 50.8 155.116 52.3567H155.112Z" fill="black"/>
<path d="M151.67 43.0379C150.775 42.6187 149.758 42.5394 148.809 42.8149C148.332 42.9556 147.882 43.1837 147.399 43.2986C146.366 43.5473 145.161 43.2781 144.274 43.8801C143.782 44.2231 143.486 44.7651 143.21 45.2934L142.522 46.5987C142.146 47.3139 141.768 48.0412 141.611 48.8285C141.454 49.6157 141.549 50.4974 142.05 51.132C142.413 51.5917 142.954 51.8815 143.35 52.3155C143.588 52.58 143.768 52.8908 143.879 53.2282C143.991 53.5656 144.031 53.9223 143.997 54.2759C144.445 54.1044 144.489 53.499 144.5 53.0187C144.519 52.1691 144.666 51.3273 144.937 50.5214C145.094 49.9903 145.361 49.4978 145.72 49.0754C145.901 48.8653 146.125 48.6961 146.377 48.5792C146.63 48.4624 146.904 48.4006 147.182 48.3979C147.87 48.422 148.488 48.8971 149.17 48.8387C149.686 48.7959 150.144 48.446 150.664 48.3756C151.123 48.3324 151.581 48.4615 151.949 48.7375C152.312 49.0127 152.631 49.3425 152.894 49.7152C153.834 50.9502 154.596 52.3944 154.641 53.9432C154.835 54.0838 155.116 53.8986 155.212 53.6791C155.309 53.4595 155.312 53.2022 155.434 52.993C155.576 52.7511 155.846 52.6208 156.058 52.439C156.595 51.9776 156.729 51.2006 156.708 50.4956C156.688 49.7907 156.55 49.0754 156.684 48.3825C156.765 47.9588 156.948 47.5592 157.047 47.139C157.147 46.7188 157.159 46.2471 156.924 45.8852C156.579 45.3552 155.855 45.2488 155.223 45.1991C154.505 45.1373 153.863 45.2162 153.405 44.6142C153.189 44.3004 152.948 44.0055 152.682 43.7326C152.587 43.6417 151.67 43.0757 151.67 43.0379Z" fill="#512E4E"/>
<path opacity="0.1" d="M132.954 79.2082L131.157 75.8961L130.587 81.0074C130.587 81.0074 130.904 83.2784 130.84 83.6266C130.776 83.9747 132.138 87.0964 132.138 87.0964C132.138 87.0964 136.636 95.0807 138.473 95.4906L144.67 91.0723L143.024 88.99C143.024 88.99 142.455 88.7687 142.312 88.99C142.312 88.99 139.254 83.7518 138.939 83.3744C138.624 82.9971 138.685 82.2372 138.685 82.2372C138.685 82.2372 138.21 81.733 138.368 81.2596C138.526 80.7862 137.459 79.1464 137.459 79.1464L138.44 78.2322L132.954 79.2082Z" fill="black"/>
<path d="M131.251 75.5171L130.776 75.8961L130.206 81.0075C130.206 81.0075 130.523 83.2784 130.459 83.6266C130.395 83.9748 131.759 87.0964 131.759 87.0964C131.759 87.0964 136.255 95.0807 138.092 95.4907L144.3 91.0723L142.652 88.99C142.652 88.99 142.082 88.7688 141.94 88.99C141.94 88.99 138.884 83.7518 138.567 83.3745C138.25 82.9971 138.314 82.2373 138.314 82.2373C138.314 82.2373 137.839 81.733 137.997 81.2596C138.156 80.7862 137.078 79.1465 137.078 79.1465L138.059 78.2323L131.251 75.5171Z" fill="white"/>
<path opacity="0.1" d="M160.736 95.5473C161.08 95.9641 160.863 97.8371 160.863 97.8371L159.913 99.4031C159.913 99.4031 159.97 100.415 159.973 101.78L158.376 102.278C158.231 102.323 158.078 102.332 157.929 102.306C157.779 102.28 157.639 102.219 157.518 102.128C157.397 102.036 157.3 101.918 157.235 101.781C157.17 101.645 157.138 101.496 157.143 101.345L157.42 92.4942L161.147 93.9127C160.83 94.1322 161.178 94.6708 161.178 94.6708C161.178 94.6708 160.388 95.1305 160.736 95.5473Z" fill="black"/>
<path d="M160.925 95.3587C161.269 95.7738 161.052 97.6467 161.052 97.6467L160.105 99.2144C160.105 99.2144 160.162 100.225 160.167 101.59L158.54 102.096C158.399 102.14 158.249 102.15 158.104 102.125C157.958 102.099 157.82 102.04 157.702 101.95C157.584 101.861 157.489 101.745 157.426 101.612C157.362 101.479 157.331 101.333 157.335 101.185L157.613 92.3039L161.338 93.7258C161.019 93.9453 161.367 94.4839 161.367 94.4839C161.367 94.4839 160.577 94.9419 160.925 95.3587Z" fill="white"/>
<path d="M162.161 91.1358C162.161 91.1358 161.908 92.7463 161.274 92.8407C160.641 92.935 160.357 95.4461 159.725 95.3586C159.093 95.2711 159.512 93.0225 159.534 92.5868C159.556 92.1512 158.845 90.3468 159.376 89.9368C159.906 89.5269 161.593 89.9368 161.593 89.9368L162.161 91.1358Z" fill="#CF6F80"/>
<path opacity="0.1" d="M163.499 78.7348L164.692 76.3335C164.692 76.3335 165.169 78.1636 165.169 79.1413C165.169 80.119 165.834 80.215 165.834 80.215C165.834 80.215 166.562 81.0726 166.178 81.6987C165.794 82.3247 165.641 83.8753 165.641 83.8753C165.641 83.8753 165.766 86.8408 165.197 87.2508C164.627 87.6607 164.499 88.6401 164.499 88.6401C164.499 88.6401 163.455 90.5011 163.487 90.9436C163.52 91.3862 162.031 94.3826 162.031 94.3826C162.031 94.3826 162.759 90.6589 158.516 89.05C158.516 89.05 158.483 87.7876 158.8 87.4412C159.116 87.0947 159.61 86.9266 159.301 85.184C158.991 83.4413 159.211 81.3402 159.211 80.92C159.211 80.4997 160.161 77.8806 160.161 77.8806L163.499 78.7348Z" fill="black"/>
<path d="M164.03 75.9905L165.073 76.3335C165.073 76.3335 165.55 78.1636 165.55 79.1413C165.55 80.119 166.214 80.215 166.214 80.215C166.214 80.215 166.942 81.0726 166.559 81.6987C166.175 82.3247 166.02 83.8753 166.02 83.8753C166.02 83.8753 166.147 86.8409 165.577 87.2508C165.007 87.6607 164.889 88.6401 164.889 88.6401C164.889 88.6401 163.844 90.5011 163.876 90.9436C163.909 91.3862 162.418 94.3826 162.418 94.3826C162.418 94.3826 163.147 90.6589 158.903 89.0501C158.903 89.0501 158.872 87.7877 159.189 87.4412C159.506 87.0947 160 86.9266 159.69 85.184C159.38 83.4413 159.6 81.3402 159.6 80.92C159.6 80.4998 160.551 77.8806 160.551 77.8806L164.03 75.9905Z" fill="white"/>
<path opacity="0.1" d="M140.982 138.23C140.982 138.23 142.645 137.189 143.737 137.945C144.828 138.702 140.982 138.23 140.982 138.23Z" fill="black"/>
<path opacity="0.1" d="M153.907 135.011C153.907 135.011 155.379 134.822 156.615 136.148C157.851 137.474 153.907 135.011 153.907 135.011Z" fill="black"/>
<g opacity="0.1">
<path opacity="0.1" d="M156.057 52.0617C155.845 52.2452 155.573 52.3739 155.432 52.6157C155.312 52.8233 155.308 53.0806 155.212 53.3018C155.115 53.5231 154.835 53.7066 154.639 53.566C154.594 52.0223 153.831 50.5729 152.893 49.338C152.631 48.9658 152.312 48.6365 151.948 48.362C151.58 48.0854 151.121 47.9557 150.662 47.9984C150.146 48.0687 149.691 48.4186 149.17 48.4632C148.481 48.5198 147.863 48.0447 147.18 48.0224C146.902 48.0245 146.628 48.0859 146.376 48.2025C146.124 48.3191 145.9 48.4881 145.72 48.6982C145.36 49.1205 145.094 49.613 144.936 50.1441C144.666 50.95 144.519 51.7919 144.499 52.6415C144.489 53.12 144.444 53.7169 144 53.8953C144.01 54.0226 144.01 54.1505 144 54.2778C144.449 54.1063 144.494 53.5008 144.504 53.0205C144.524 52.1709 144.671 51.3291 144.942 50.5232C145.099 49.9921 145.366 49.4996 145.725 49.0773C145.906 48.8672 146.13 48.6981 146.381 48.5812C146.633 48.4644 146.907 48.4025 147.185 48.3997C147.873 48.4238 148.493 48.8989 149.175 48.8406C149.691 48.7977 150.149 48.4478 150.667 48.3774C151.126 48.3343 151.585 48.4634 151.953 48.7394C152.317 49.0145 152.636 49.3443 152.898 49.717C153.836 50.952 154.599 52.3962 154.644 53.945C154.84 54.0857 155.121 53.9004 155.217 53.6809C155.313 53.4613 155.317 53.2041 155.437 52.9948C155.579 52.753 155.851 52.6226 156.062 52.4408C156.599 51.9794 156.734 51.2024 156.713 50.4974C156.713 50.4752 156.713 50.4546 156.713 50.4323C156.679 51.0463 156.515 51.6689 156.057 52.0617Z" fill="black"/>
<path opacity="0.1" d="M143.347 51.9416C142.953 51.5076 142.413 51.216 142.049 50.7564C141.743 50.3506 141.568 49.861 141.549 49.3533C141.495 49.9881 141.672 50.621 142.049 51.1354C142.413 51.5951 142.953 51.885 143.347 52.3189C143.728 52.7432 143.957 53.2812 143.998 53.8489C144.024 53.5037 143.98 53.1569 143.868 52.8291C143.756 52.5014 143.579 52.1995 143.347 51.9416Z" fill="black"/>
<path opacity="0.1" d="M157.047 46.7617C156.945 47.1819 156.765 47.5816 156.682 48.0052C156.632 48.2917 156.615 48.5827 156.629 48.8731C156.634 48.7091 156.652 48.5457 156.682 48.3843C156.765 47.9606 156.945 47.561 157.047 47.1408C157.105 46.9088 157.125 46.6689 157.104 46.4307C157.093 46.5422 157.074 46.6528 157.047 46.7617Z" fill="black"/>
</g>
<path opacity="0.1" d="M22.8492 143.885C32.1132 143.885 39.6231 142.683 39.6231 141.201C39.6231 139.718 32.1132 138.517 22.8492 138.517C13.5852 138.517 6.0752 139.718 6.0752 141.201C6.0752 142.683 13.5852 143.885 22.8492 143.885Z" fill="#080056"/>
<path d="M23.3899 89.7773H22.3105V113.991H23.3899V89.7773Z" fill="#535461"/>
<path d="M30.1739 113.919L30.105 115.01L30.0103 116.553L29.9707 117.195L29.8743 118.739L29.833 119.38L29.7383 120.924L28.6487 138.431C28.6022 139.184 28.2691 139.891 27.7173 140.408C27.1655 140.925 26.4366 141.213 25.6791 141.213H20.0207C19.2612 141.213 18.5303 140.924 17.9781 140.404C17.4259 139.885 17.0942 139.174 17.0511 138.419L15.9615 120.912L15.8668 119.368L15.8272 118.727L15.7291 117.183L15.6895 116.541L15.5948 114.998L15.5259 113.907C15.514 113.698 15.5449 113.488 15.6168 113.292C15.6886 113.095 15.7999 112.915 15.9439 112.762C16.0879 112.609 16.2615 112.488 16.4542 112.404C16.6469 112.32 16.8547 112.277 17.0649 112.276H28.6366C28.8477 112.277 29.0564 112.321 29.2498 112.406C29.4431 112.49 29.6171 112.613 29.7611 112.767C29.905 112.921 30.0159 113.102 30.0869 113.3C30.1579 113.498 30.1875 113.709 30.1739 113.919Z" fill="#3F3D56"/>
<path d="M30.1047 115.008L30.0083 116.548H15.6892L15.5928 115.008H30.1047Z" fill="#9D9CB5"/>
<path d="M29.9694 117.19L29.8748 118.73H15.8259L15.7295 117.19H29.9694Z" fill="#9D9CB5"/>
<path d="M29.8332 119.373L29.7385 120.912H15.9616L15.8652 119.373H29.8332Z" fill="#9D9CB5"/>
<path d="M13.9521 98.8542C20.2389 103.386 22.8572 110.473 22.8572 110.473C22.8572 110.473 15.2828 110.214 8.99429 105.682C2.70577 101.151 0.0839844 94.0688 0.0839844 94.0688C0.0839844 94.0688 7.65843 94.3226 13.9521 98.8542Z" fill="#080056"/>
<path d="M0.0839844 94.0688C0.0839844 94.0688 7.94592 98.4168 10.4679 102.017C12.9898 105.617 22.8504 110.476 22.8504 110.476" stroke="#535461" stroke-width="2" stroke-miterlimit="10"/>
<path d="M18.0032 89.7259C21.4255 92.1906 22.8508 96.0481 22.8508 96.0481C22.8508 96.0481 18.7193 95.9075 15.3057 93.4427C11.892 90.978 10.458 87.1188 10.458 87.1188C10.458 87.1188 14.5826 87.2594 18.0032 89.7259Z" fill="#080056"/>
<path d="M10.458 87.1188C10.458 87.1188 14.7376 89.4858 16.1113 91.4445C17.485 93.4033 22.8508 96.0481 22.8508 96.0481" stroke="#535461" stroke-width="2" stroke-miterlimit="10"/>
<path d="M27.8221 95.8526C23.892 100.156 23.0605 105.78 23.0605 105.78C23.0605 105.78 28.6019 104.425 32.5286 100.12C36.4553 95.8148 37.2902 90.1924 37.2902 90.1924C37.2902 90.1924 31.7522 91.5491 27.8221 95.8526Z" fill="#080056"/>
<path d="M37.2936 90.194C37.2936 90.194 32.174 94.6055 30.8726 97.6449C29.5711 100.684 23.0605 105.78 23.0605 105.78" stroke="#535461" stroke-width="2" stroke-miterlimit="10"/>
</g>
<defs>
<linearGradient id="paint0_linear" x1="80.1398" y1="143.316" x2="80.1398" y2="44.2368" gradientUnits="userSpaceOnUse">
<stop stop-color="#808080" stop-opacity="0.25"/>
<stop offset="0.54" stop-color="#808080" stop-opacity="0.12"/>
<stop offset="1" stop-color="#808080" stop-opacity="0.1"/>
</linearGradient>
<linearGradient id="paint1_linear" x1="32755.9" y1="92852.9" x2="32755.9" y2="27911.4" gradientUnits="userSpaceOnUse">
<stop stop-color="#808080" stop-opacity="0.25"/>
<stop offset="0.54" stop-color="#808080" stop-opacity="0.12"/>
<stop offset="1" stop-color="#808080" stop-opacity="0.1"/>
</linearGradient>
<clipPath id="clip0">
<rect width="201" height="148" fill="white"/>
</clipPath>
</defs>
</svg>
