<svg width="188" height="180" viewBox="0 0 188 180" fill="none" xmlns="http://www.w3.org/2000/svg">
<path d="M94.5 180C144.206 180 184.5 139.706 184.5 90C184.5 40.2944 144.206 0 94.5 0C44.7944 0 4.5 40.2944 4.5 90C4.5 139.706 44.7944 180 94.5 180Z" fill="#F0F4FE"/>
<path d="M79.6753 78.3047H0.5V143.716H79.6753V78.3047Z" fill="#C2C7D6"/>
<path d="M111.037 78.3047H79.667V143.725H111.037V78.3047Z" fill="#C2C7D6"/>
<path opacity="0.1" d="M111.037 78.3047H79.667V143.725H111.037V78.3047Z" fill="black"/>
<path d="M108.877 139.22C106.561 134.565 104.259 129.896 101.97 125.213L95.1637 111.148L88.466 97.0158C86.2335 92.2939 84.0288 87.5497 81.8521 82.7832C84.1739 87.4381 86.4763 92.107 88.7591 96.7898L95.5572 110.855L102.255 124.987C104.487 129.726 106.695 134.47 108.877 139.22Z" fill="#C2C7D6"/>
<path d="M108.877 82.8086C106.695 87.564 104.49 92.3082 102.263 97.0412L95.5655 111.173L88.7674 125.239C86.4846 129.927 84.1822 134.596 81.8604 139.245C84.0371 134.49 86.2418 129.746 88.4743 125.013L95.172 110.88L101.979 96.8152C104.261 92.1268 106.561 87.4579 108.877 82.8086Z" fill="#C2C7D6"/>
<path d="M45.6843 92.4452H44.4369H43.4908L42.955 91.3485L42.2015 92.4452L41.1885 90.2015L40.2173 92.4452H37.4545H36.1903L35.7382 90.9466L35.3029 92.4452H34.4824V78.3047H45.6843V92.4452Z" fill="white"/>
<path d="M157 78.3047H97.9346V143.716H157V78.3047Z" fill="#C2C7D6"/>
<path d="M187.5 78.3047H157V143.716H187.5V78.3047Z" fill="#C2C7D6"/>
<path opacity="0.1" d="M187.5 78.3047H157V143.716H187.5V78.3047Z" fill="black"/>
<g opacity="0.1">
<path opacity="0.1" d="M152.672 139.211C148.335 134.562 144.037 129.896 139.779 125.213L127.07 111.148L114.512 97.0158C110.342 92.2939 106.223 87.5497 102.154 82.7832C106.491 87.4381 110.789 92.1042 115.047 96.7814L127.756 110.855L140.315 124.987C144.478 129.72 148.597 134.462 152.672 139.211Z" fill="black"/>
<path opacity="0.1" d="M152.672 82.8086C148.592 87.564 144.473 92.3082 140.315 97.0412L127.756 111.173L115.047 125.239C110.794 129.921 106.497 134.587 102.154 139.237C106.234 134.493 110.353 129.748 114.512 125.004L127.07 110.872L139.779 96.7984C144.032 92.1268 148.329 87.4635 152.672 82.8086Z" fill="black"/>
</g>
<path d="M183.205 132.647H177.864V140.191H183.205V132.647Z" fill="white"/>
<path d="M81.1319 36H13.6943V78.296H81.1319V36Z" fill="#C2C7D6"/>
<path opacity="0.1" d="M81.1319 36H13.6943V78.296H81.1319V36Z" fill="black"/>
<path d="M111.64 36.0078H81.1401V78.3122H111.64V36.0078Z" fill="#C2C7D6"/>
<path opacity="0.2" d="M111.64 36.0078H81.1401V78.3122H111.64V36.0078Z" fill="black"/>
<path d="M109.539 75.8096C107.278 72.9073 105.046 69.9882 102.841 67.0523L96.2189 58.2449L89.6886 49.4039C87.5174 46.4457 85.3741 43.482 83.2588 40.5127C85.4914 43.4262 87.7239 46.3453 89.9565 49.2699L96.5705 58.0774L103.101 66.9268C105.272 69.8738 107.418 72.8347 109.539 75.8096Z" fill="#C2C7D6"/>
<path d="M109.539 40.5127C107.412 43.482 105.266 46.4457 103.101 49.4039L96.5705 58.2449L89.9565 67.0523C87.7239 69.9826 85.4914 72.9017 83.2588 75.8096C85.3741 72.8347 87.5174 69.8738 89.6886 66.9268L96.2189 58.0774L102.841 49.2699C105.04 46.3397 107.273 43.4206 109.539 40.5127Z" fill="#C2C7D6"/>
</svg>
