<svg width="180" height="180" viewBox="0 0 180 180" fill="none" xmlns="http://www.w3.org/2000/svg">
<path d="M70.0381 41.6517C67.8414 40.618 65.5189 39.8761 63.1297 39.4449C55.4941 38.0949 49.2121 40.5681 45.2593 42.9081C43.621 43.8527 42.0956 44.9808 40.7125 46.2705C40.7125 46.2705 40.3741 40.1901 41.6269 36.8889C44.3449 33.6489 47.8189 30.2721 51.5953 28.1301H51.6169C52.3377 27.7481 53.0792 27.4068 53.8381 27.1077C55.0831 26.6648 56.4343 26.6158 57.7081 26.9673H57.7621C58.0609 27.0429 58.3597 27.1293 58.6549 27.2337H58.6909C60.9625 28.1049 64.7137 30.6645 67.7773 33.6237C69.4117 36.3597 70.0381 41.6517 70.0381 41.6517Z" fill="#C2C7D6"/>
<g opacity="0.2">
<path opacity="0.2" d="M70.0381 41.6517C67.8414 40.618 65.5189 39.8761 63.1297 39.4449C55.4941 38.0949 49.2121 40.5681 45.2593 42.9081C43.621 43.8527 42.0956 44.9808 40.7125 46.2705C40.7125 46.2705 40.3741 40.1901 41.6269 36.8889C44.3449 33.6489 47.8189 30.2721 51.5953 28.1301H51.6169C52.3377 27.7481 53.0792 27.4068 53.8381 27.1077C55.0831 26.6648 56.4343 26.6158 57.7081 26.9673H57.7621C58.0609 27.0429 58.3597 27.1293 58.6549 27.2337H58.6909C60.9625 28.1049 64.7137 30.6645 67.7773 33.6237C69.4117 36.3597 70.0381 41.6517 70.0381 41.6517Z" fill="black"/>
</g>
<path d="M63.7993 78.7676C63.5077 79.1708 63.2053 79.5668 62.8921 79.9664C59.7709 83.9264 55.8901 87.4652 51.7321 90.5576C36.7201 101.682 17.9353 107.139 17.5609 107.244C24.3037 102.981 28.3789 94.586 28.3789 94.586C19.3321 91.9832 15.9697 88.1744 15.9697 88.1744C27.0613 86.5292 35.7697 83.462 42.5233 79.4696C46.8394 76.9695 50.7075 73.7658 53.9677 69.9908C58.2119 64.9957 61.2013 59.0589 62.6869 52.6748C63.7538 48.3437 63.9047 43.8376 63.1297 39.4448C61.7149 31.5932 57.7297 26.9492 57.7297 26.9492H57.7837C58.0887 27.0112 58.3875 27.1003 58.6765 27.2156H58.7125C60.9841 28.0868 64.7353 30.6464 67.7989 33.6056C70.2253 35.9456 72.2197 38.5448 72.7057 40.7588C73.8685 46.1336 75.7693 62.6 63.7993 78.7676Z" fill="#C2C7D6"/>
<path opacity="0.1" d="M65.1599 76.8382C64.7279 77.4826 64.2707 78.1234 63.7955 78.7678C63.5039 79.171 63.1979 79.567 62.8883 79.9666C59.7671 83.9266 55.8863 87.4654 51.7283 90.5578C50.4107 91.5334 49.0643 92.4658 47.7071 93.3514C44.4671 89.917 40.0211 85.1902 37.2671 82.1914C39.0729 81.3759 40.8334 80.4638 42.5411 79.459C46.8577 76.9596 50.7248 73.7544 53.9819 69.9766C55.058 68.7208 56.0536 67.3982 56.9627 66.0166L65.1599 76.8382Z" fill="black"/>
<path d="M165.654 71.4772C156.607 74.4688 152.377 77.1256 152.377 77.1256C152.377 77.1256 162.41 81.4816 165.442 88.7788C165.442 88.7788 153.144 83.62 144.526 85.1536C113.317 90.7156 95.8896 99.7948 78.714 99.7948C69.8544 99.7948 60.2532 97.9588 51.714 90.5572C48.0965 87.3567 44.9951 83.6166 42.5196 79.4692C42.0612 78.7252 41.61 77.9536 41.166 77.1544C33.0516 62.5312 35.01 48.2068 35.946 45.514C36.4428 44.074 38.5488 40.564 41.6232 36.874C44.3412 33.634 47.8152 30.2572 51.5916 28.1152H51.6204C51.4476 28.3456 46.7568 34.5484 45.2592 42.9076C44.4648 47.0721 44.7122 51.3683 45.9792 55.414C47.7142 60.7287 50.4271 65.6724 53.9784 69.9904C56.7647 73.4234 60.0841 76.3867 63.81 78.7672C68.706 81.8524 74.1096 83.6128 79.542 83.4796C93.942 83.1196 129.492 70.3468 146.952 69.2524C158.346 68.536 165.654 71.4772 165.654 71.4772Z" fill="#C2C7D6"/>
<path d="M116.727 104.619C118.887 102.751 140.407 105.17 138.755 109.044C130.983 127.267 117.123 137.394 113.523 138.924C108.799 140.943 104.184 136.764 103.309 133.524C102.039 128.822 114.577 106.47 116.727 104.619Z" fill="#F7A9A0"/>
<path d="M114.282 106.61L138.02 115.016C138.02 115.016 122.497 137.074 112.187 139.496C108.493 140.368 102.888 136.933 102.532 132.275C102.175 127.616 114.282 106.61 114.282 106.61Z" fill="#EBEBEB"/>
<path d="M133.261 119.301C123.995 116.629 114.66 112.414 112.983 111.795C112.903 111.766 112.957 111.64 113.037 111.672C114.653 112.367 125.842 116.028 133.323 119.171C133.409 119.207 133.351 119.329 133.261 119.301Z" fill="#263238"/>
<path d="M90.7958 86.8358C94.2806 90.5258 119.049 118.156 120.647 119.085C120.647 119.085 120.175 142.668 108.479 139.605C100.876 137.599 84.719 103.846 82.0046 90.3782C80.7554 84.179 83.4878 79.0958 90.7958 86.8358Z" fill="#EBEBEB"/>
<path d="M114.765 138.215C113.152 139.633 111.093 140.281 108.479 139.59C100.876 137.585 84.7191 103.831 82.0083 90.3634C80.7987 84.4198 83.2826 79.4878 89.9751 86.0002L114.765 138.215Z" fill="#C7C7C7"/>
<path d="M36.7886 166.522H96.365L94.8494 139.162H44.0066C37.9658 156.017 36.7886 166.522 36.7886 166.522Z" fill="#263238"/>
<path d="M96.2639 146.322L94.9139 123.764C94.9139 123.764 100.984 117.05 99.6371 110.988C98.9603 107.921 88.4771 84.5783 87.4619 83.6279C83.3363 79.7831 76.3739 81.3167 73.5191 83.4767C57.6791 95.4359 46.5407 121.1 41.1875 146.329L96.2639 146.322Z" fill="#455A64"/>
<path d="M89.4135 88.8446C89.1238 89.7284 88.7897 90.5971 88.4127 91.4474C88.0545 92.2976 87.6195 93.1134 87.1131 93.8846C86.5947 94.6046 85.9935 95.3713 85.1907 95.6665C84.3879 95.9617 83.5419 95.4901 82.8759 94.9141C81.5007 93.7334 80.4927 92.1314 79.5675 90.5438C79.105 89.7399 78.6832 88.9133 78.3039 88.067C77.9066 87.2256 77.5698 86.357 77.2959 85.4678C77.943 88.2115 79.0981 90.8099 80.7015 93.1286C81.2352 93.9211 81.8625 94.6463 82.5699 95.2885C82.9416 95.6107 83.3636 95.8697 83.8191 96.0553C84.0591 96.1503 84.3135 96.2039 84.5715 96.2137C84.8331 96.2173 85.0932 96.1721 85.3383 96.0806C85.8011 95.895 86.2159 95.607 86.5515 95.2381C86.8814 94.89 87.1712 94.506 87.4155 94.0934C88.3541 92.46 89.0284 90.6886 89.4135 88.8446Z" fill="#263238"/>
<path d="M80.4239 121.504C82.6081 121.369 84.8003 121.45 86.9687 121.745C88.0487 121.911 89.1287 122.145 90.2303 122.404C90.7739 122.537 91.3103 122.641 91.8575 122.746C92.4128 122.875 92.9854 122.914 93.5531 122.861C93.6035 122.861 93.6215 122.955 93.5711 122.965C93.0579 123.096 92.5336 123.178 92.0051 123.21C91.4834 123.222 90.9618 123.187 90.4463 123.106C89.3411 122.951 88.2359 122.746 87.1307 122.559C84.8987 122.217 82.6667 121.875 80.4419 121.741C80.3375 121.738 80.3195 121.507 80.4239 121.504Z" fill="#263238"/>
<path d="M75.6722 125C77.3643 124.432 79.0974 123.995 80.8563 123.693C81.7372 123.552 82.6255 123.462 83.5167 123.423C83.9451 123.401 84.3735 123.39 84.8019 123.383C85.2303 123.376 85.7558 123.459 86.2239 123.444C86.2743 123.444 86.2923 123.542 86.2455 123.545C85.8027 123.578 85.3707 123.707 84.9315 123.772L83.6138 123.966C82.7354 124.1 81.857 124.244 80.975 124.362C79.211 124.607 77.4579 124.87 75.7083 125.194C75.6003 125.212 75.6002 125.028 75.6722 125Z" fill="#263238"/>
<path d="M32.2705 166.522H80.6149L78.7321 81.4395C78.7321 81.4395 76.2121 81.3819 71.9677 84.3195C67.7233 87.2571 61.7113 93.2655 54.7597 105.376C36.7201 136.844 32.2705 166.522 32.2705 166.522Z" fill="#EBEBEB"/>
<path d="M88.2866 84.4629L95.3138 166.521H98.8346C98.8346 166.521 95.9294 124.401 95.9546 123.98C95.9798 123.559 102.15 118.436 100.728 110.757C99.3062 103.078 89.2802 85.1649 88.2866 84.4629Z" fill="#EBEBEB"/>
<path d="M95.9727 123.98C97.8048 122.578 99.2739 120.757 100.257 118.67C101.266 116.548 101.61 114.17 101.243 111.848C100.857 109.584 100.218 107.371 99.3387 105.249C98.5002 103.129 97.5063 101.074 96.3651 99.1006C97.2531 101.193 98.0703 103.308 98.8167 105.444C99.1767 106.524 99.5367 107.582 99.8247 108.684C100.137 109.76 100.378 110.855 100.545 111.963C100.897 114.155 100.624 116.401 99.7563 118.443C98.88 120.525 97.5932 122.408 95.9727 123.98Z" fill="#263238"/>
<path d="M78.7321 81.4395C78.0517 82.9983 77.3893 84.5643 76.7305 86.1195L74.7613 90.8211C73.4581 93.9555 72.1753 97.1019 70.9129 100.26L70.8013 100.545L71.0497 100.743C72.7297 102.077 74.4277 103.403 76.1437 104.721L76.0573 104.069L71.3197 110.326L71.1649 110.535L71.2585 110.772C72.6313 114.238 74.0317 117.693 75.4597 121.137C76.1797 122.857 76.8997 124.578 77.6197 126.288C78.3397 127.998 79.0849 129.719 79.8517 131.418C79.2577 129.651 78.6169 127.897 77.9977 126.141C77.3785 124.384 76.7305 122.634 76.0825 120.888C74.7817 117.394 73.4617 113.914 72.1225 110.448L72.0613 110.895L76.8025 104.641L77.0833 104.281L76.7233 103.997C75.0145 102.687 73.2925 101.381 71.5573 100.08L71.6905 100.563C72.8905 97.3875 74.0905 94.2063 75.2905 91.0191L77.0365 86.2311C77.5945 84.6435 78.1741 83.0451 78.7321 81.4395Z" fill="#DBDBDB"/>
<path d="M88.2363 86.5049C88.7583 87.8153 89.3163 89.1113 89.8455 90.4109C90.3747 91.7105 90.9255 93.0065 91.4871 94.2989C92.5935 96.8885 93.7179 99.4673 94.8603 102.035L94.9719 101.546C93.7527 102.539 92.5419 103.544 91.3395 104.559L91.0515 104.8L91.2279 105.135L94.3203 110.88L94.2699 110.6C93.8211 113.88 93.4035 117.165 93.0171 120.453C92.8227 122.098 92.6319 123.743 92.4627 125.392C92.2935 127.041 92.1027 128.686 91.9767 130.339C92.2971 128.711 92.5707 127.077 92.8659 125.446C93.1611 123.815 93.4239 122.181 93.6867 120.547C94.2123 117.278 94.7103 114.004 95.1807 110.726L95.2023 110.578L95.1303 110.445L92.0559 104.685L91.9443 105.257C93.1443 104.237 94.3335 103.208 95.5119 102.168L95.7531 101.956L95.6235 101.679C94.4235 99.1301 93.2127 96.5909 91.9911 94.0613C91.3827 92.7905 90.7563 91.5413 90.1299 90.2705C89.5035 88.9997 88.8807 87.7577 88.2363 86.5049Z" fill="#DBDBDB"/>
<path d="M95.5582 52.7725C98.3554 51.6709 107.031 40.5109 97.837 31.6261C88.783 22.8709 72.2446 33.2281 77.389 45.4069C80.845 53.5897 89.611 55.1197 95.5582 52.7725Z" fill="#263238"/>
<path d="M78.7283 82.5082C78.5447 83.5342 80.3843 91.5082 84.7295 93.1282C86.1443 93.6574 89.3807 86.0614 89.3807 86.0614L89.7407 85.5574L94.8779 78.4798L88.1999 68.5906L87.2063 67.2334C87.2063 67.2334 85.9283 69.2638 84.3659 71.809C84.2903 71.9278 84.2183 72.0466 84.1427 72.169C84.0671 72.2914 83.9591 72.4426 83.8799 72.5794C83.6423 72.9394 83.4011 73.3426 83.1599 73.735C82.9799 74.0302 82.7999 74.3146 82.6307 74.635C82.4615 74.9554 82.2707 75.2578 82.0871 75.571C80.3519 78.7102 78.8111 82.0798 78.7283 82.5082Z" fill="#F7A9A0"/>
<path d="M84.3806 71.809C84.2233 74.3529 84.622 76.9006 85.5489 79.2749C86.4759 81.6491 87.9089 83.793 89.7482 85.5574L94.8782 78.4798L88.2002 68.5906L87.2066 67.2334C87.2066 67.2334 85.943 69.2638 84.3806 71.809Z" fill="#263238"/>
<path d="M111.366 72.3026C106.686 86.9294 97.3942 85.7738 94.2406 84.7622C91.3786 83.8406 81.7522 80.345 84.8986 65.3222C88.045 50.2994 96.325 47.8442 102.981 49.601C109.638 51.3578 116.049 57.6758 111.366 72.3026Z" fill="#F7A9A0"/>
<path d="M109.383 69.2134C109.078 69.0337 108.783 68.8366 108.501 68.623C108.162 68.3962 107.871 68.263 107.712 67.8526C107.68 67.7364 107.686 67.6127 107.731 67.5007C107.776 67.3887 107.857 67.2947 107.961 67.2334C108.184 67.143 108.428 67.114 108.667 67.1495C108.905 67.1849 109.13 67.2835 109.318 67.435C109.746 67.6823 110.067 68.0801 110.218 68.551C110.246 68.6602 110.242 68.7753 110.206 68.8823C110.17 68.9893 110.104 69.0835 110.016 69.1536C109.927 69.2238 109.82 69.2667 109.708 69.2773C109.596 69.2879 109.483 69.2657 109.383 69.2134Z" fill="#263238"/>
<path d="M99.7883 65.6532C100.134 65.7339 100.484 65.7952 100.836 65.8368C101.193 65.9576 101.58 65.9576 101.937 65.8368C102.04 65.7745 102.12 65.6802 102.164 65.5684C102.208 65.4566 102.215 65.3334 102.182 65.2176C102.013 64.728 101.541 64.5264 101.059 64.4256C100.572 64.3077 100.059 64.3758 99.6191 64.6164C99.5292 64.6794 99.459 64.7664 99.4164 64.8675C99.3738 64.9686 99.3606 65.0797 99.3782 65.188C99.3959 65.2962 99.4437 65.3973 99.5163 65.4796C99.5888 65.5619 99.6831 65.6221 99.7883 65.6532Z" fill="#263238"/>
<path d="M100.253 70.0129C100.253 69.9697 100.159 70.0309 100.145 70.0705C99.8139 71.0605 99.2631 72.1405 98.255 72.1369C98.2226 72.1369 98.2082 72.1873 98.255 72.1945C99.3819 72.4429 100.08 71.0029 100.253 70.0129Z" fill="#263238"/>
<path d="M99.7598 68.6626C98.2298 67.9426 96.9266 71.071 98.345 71.7262C99.7634 72.3814 101.045 69.253 99.7598 68.6626Z" fill="#263238"/>
<path d="M99.0793 68.5728C98.7193 68.634 98.3377 68.8356 97.9993 68.7312C97.6609 68.6268 97.4521 68.1624 97.3369 67.7448C97.3369 67.7016 97.2865 67.7196 97.2685 67.7448C97.0093 68.3388 96.9841 69.048 97.5853 69.4008C98.1865 69.7536 98.7769 69.372 99.1765 68.8356C99.2449 68.76 99.2197 68.5476 99.0793 68.5728Z" fill="#263238"/>
<path d="M97.2362 77.5329C97.3586 77.8605 97.4414 78.2745 97.7726 78.4653C98.1269 78.6246 98.5109 78.7068 98.8994 78.7065C98.9066 78.7089 98.9128 78.7134 98.9173 78.7196C98.9217 78.7257 98.9241 78.7331 98.9241 78.7407C98.9241 78.7483 98.9217 78.7557 98.9173 78.7618C98.9128 78.7679 98.9066 78.7725 98.8994 78.7749C98.6767 78.8965 98.4254 78.9556 98.1719 78.9461C97.9184 78.9366 97.6723 78.8588 97.4594 78.7209C97.2873 78.5817 97.161 78.394 97.0968 78.1822C97.0326 77.9704 97.0335 77.7442 97.0994 77.5329C97.139 77.4717 97.2218 77.4861 97.2362 77.5329Z" fill="#263238"/>
<path d="M102.708 75.6646C102.708 75.6646 102.323 77.1946 102.046 77.8786C102.021 77.9434 101.844 77.9038 101.607 77.8246C101.607 77.8246 101.585 77.8246 101.578 77.8246C100.948 77.6954 100.367 77.3952 99.8967 76.957C99.4267 76.5187 99.0866 75.9595 98.9138 75.3406C98.9089 75.3225 98.9108 75.3032 98.9193 75.2865C98.9277 75.2698 98.9421 75.2568 98.9596 75.2501C98.9771 75.2434 98.9964 75.2434 99.0139 75.2501C99.0314 75.2569 99.0457 75.2698 99.0542 75.2866C99.6878 76.3126 100.613 76.885 101.675 77.335C101.801 77.1622 102.247 74.6926 102.359 74.7286C102.744 74.8474 103.378 75.3982 103.77 75.7078C104.663 72.5434 105.041 69.2638 105.977 66.1318C105.983 66.1083 105.998 66.088 106.018 66.0746C106.038 66.0611 106.063 66.0554 106.087 66.0584C106.111 66.0615 106.133 66.0731 106.149 66.0912C106.166 66.1093 106.175 66.1327 106.175 66.157C106.02 69.6238 105.073 73.285 104.235 76.5718C104.134 76.975 102.931 75.8914 102.708 75.6646Z" fill="#263238"/>
<path d="M109.296 73.1631C109.08 72.9675 108.837 72.8027 108.576 72.6735C108.307 72.5433 108.021 72.4512 107.726 72.4C107.416 72.3521 107.1 72.3619 106.794 72.4288C106.478 72.5101 106.184 72.6614 105.934 72.8715L105.48 73.2495L106.052 73.4079C106.457 73.5194 106.849 73.6726 107.222 73.8651C107.615 74.0563 107.953 74.3436 108.205 74.7003C108.13 74.2183 107.872 73.7837 107.485 73.4871C107.109 73.1774 106.675 72.9472 106.207 72.8103L106.33 73.3467C106.718 73.0555 107.194 72.9056 107.68 72.9219C108.226 72.9341 108.769 73.0152 109.296 73.1631Z" fill="#263238"/>
<path d="M106.873 74.7321C106.497 74.4734 106.156 74.1672 105.858 73.8213C105.797 73.7313 105.556 73.3569 105.602 73.2957C105.725 73.1066 105.875 72.9357 106.045 72.7881C105.829 72.8946 105.638 73.0455 105.484 73.2309C105.464 73.3594 105.473 73.4907 105.511 73.6152C105.548 73.7397 105.613 73.8543 105.7 73.9509C106.016 74.309 106.421 74.5782 106.873 74.7321Z" fill="#263238"/>
<path d="M107.478 50.4182C107.478 50.4182 113.893 53.3342 114.523 60.167C114.984 65.1638 110.812 67.007 109.991 66.9818C109.17 66.9566 111.744 66.2618 112.378 61.1426C112.378 61.1426 110.048 65.2718 101.783 64.847C100.703 64.793 105.098 63.407 105.098 63.407C105.098 63.407 98.8272 64.847 94.536 64.4222C93.636 64.3322 99.5183 61.2794 99.5183 61.2794C99.5183 61.2794 90.5003 66.809 85.3271 63.7994C85.3271 63.7994 86.1515 53.5538 92.5271 50.1878C98.9027 46.8218 105.307 48.4994 107.478 50.4182Z" fill="#263238"/>
<path d="M87.973 66.0705C87.973 66.0705 86.731 60.3573 84.265 60.6201C81.799 60.8829 81.439 68.2629 83.4262 70.1277C83.6648 70.384 83.9528 70.5894 84.2729 70.7314C84.5929 70.8735 84.9384 70.9493 85.2885 70.9543C85.6386 70.9594 85.9861 70.8935 86.3102 70.7608C86.6342 70.628 86.9279 70.431 87.1738 70.1817L87.973 66.0705Z" fill="#F7A9A0"/>
<path d="M84.2151 62.7377C84.2075 62.7348 84.1993 62.7346 84.1916 62.737C84.1839 62.7394 84.1773 62.7443 84.1727 62.751C84.1681 62.7576 84.1659 62.7656 84.1664 62.7736C84.1669 62.7816 84.1701 62.7892 84.1755 62.7953C85.5471 64.1561 85.7739 66.0353 85.7199 67.8965C85.4823 67.0793 84.9567 66.4565 83.8911 66.7049C83.8371 66.7049 83.8479 66.8021 83.8911 66.8129C84.2239 66.8374 84.5406 66.9655 84.7969 67.1792C85.0532 67.3929 85.2362 67.6815 85.3203 68.0045C85.4536 68.5409 85.5296 69.09 85.5471 69.6425C85.5471 69.8225 85.8639 69.8549 85.8783 69.6605C85.8765 69.6461 85.8765 69.6316 85.8783 69.6173C86.789 67.5293 86.4002 63.8969 84.2151 62.7377Z" fill="#263238"/>
<path d="M76.7809 114.48C76.5133 114.898 76.2136 115.294 75.8845 115.665C74.4805 117.256 72.7813 118.214 72.3493 118.26L73.2925 116.727L72.2485 116.198C73.1576 115.743 73.9917 115.152 74.7217 114.444C75.0699 114.107 75.3824 113.734 75.6541 113.332C75.9865 113.755 76.3644 114.14 76.7809 114.48Z" fill="#C2C7D6"/>
<path d="M75.6543 113.321C75.3825 113.722 75.0701 114.095 74.7219 114.433C73.8838 113.473 73.3666 112.274 73.2423 111.006C73.1739 109.778 73.6887 108.507 74.9811 108.216C74.5419 108.691 74.4915 109.692 74.4915 109.692C74.3861 111.007 74.804 112.311 75.6543 113.321Z" fill="#C2C7D6"/>
<path d="M77.8827 110.747C77.9067 112.075 77.5222 113.378 76.7811 114.481C76.3645 114.14 75.9867 113.755 75.6543 113.332C76.0269 112.81 76.2911 112.219 76.4315 111.593C76.5718 110.968 76.5854 110.32 76.4715 109.689C76.4929 109.146 76.3091 108.615 75.9567 108.202C77.1987 108.422 77.8503 109.693 77.8827 110.747Z" fill="#C2C7D6"/>
<path d="M76.781 114.48C77.5091 115.064 78.3118 115.548 79.1678 115.92L78.2822 116.503L79.2794 117.943C77.9784 117.461 76.7978 116.702 75.8198 115.718C76.1705 115.324 76.4918 114.904 76.781 114.462" fill="#C2C7D6"/>
<path d="M76.4712 109.678C76.3488 109.019 74.5488 109.181 74.4912 109.678C74.4912 109.678 74.5416 108.677 74.9808 108.202C75.1408 108.168 75.3034 108.147 75.4668 108.141C75.6308 108.136 75.7949 108.148 75.9564 108.177C76.3123 108.594 76.4963 109.13 76.4712 109.678Z" fill="#C2C7D6"/>
<path d="M89.4131 166.522H94.1975C94.1975 166.522 95.3387 148.918 105.991 148.036C111.629 147.571 116.827 151.585 120.873 156.096C116.867 151.549 109.764 145.678 102.992 145.678C92.7935 145.678 89.4131 166.522 89.4131 166.522Z" fill="#263238"/>
<path d="M120.982 112.003L113.645 97.0488L111.165 100.408L117.454 112.003H120.982Z" fill="#263238"/>
<path d="M106.857 100.046L115.224 115.91L119.029 113.903L110.662 98.0394L106.857 100.046Z" fill="#455A64"/>
<path d="M115.214 115.906L112.932 115.29L106.042 102.532L106.844 100.044L115.214 115.906Z" fill="#37474F"/>
<path d="M137.751 124.221L138.837 123.739C139.319 123.526 139.536 122.962 139.323 122.48L135.491 113.842C135.277 113.36 134.714 113.143 134.232 113.357L133.146 113.839C132.665 114.052 132.447 114.616 132.661 115.097L136.493 123.736C136.706 124.217 137.27 124.435 137.751 124.221Z" fill="#37474F"/>
<path d="M129.028 129.46L130.114 128.979C130.596 128.765 130.813 128.201 130.6 127.72L126.768 119.081C126.554 118.6 125.991 118.383 125.509 118.596L124.423 119.078C123.941 119.291 123.724 119.855 123.938 120.337L127.769 128.975C127.983 129.457 128.547 129.674 129.028 129.46Z" fill="#37474F"/>
<path d="M134.903 130.694L136.473 129.998C137.125 129.708 137.42 128.945 137.13 128.292L132.248 117.284C131.958 116.632 131.195 116.338 130.542 116.627L128.973 117.323C128.32 117.613 128.026 118.376 128.315 119.029L133.198 130.037C133.487 130.689 134.251 130.983 134.903 130.694Z" fill="#37474F"/>
<path d="M118.248 87.1963L119.818 86.4998C120.47 86.2103 120.764 85.4467 120.475 84.7943L115.59 73.7874C115.301 73.135 114.537 72.8408 113.885 73.1303L112.315 73.8268C111.663 74.1164 111.369 74.88 111.658 75.5324L116.543 86.5393C116.832 87.1917 117.596 87.4859 118.248 87.1963Z" fill="#37474F"/>
<path d="M111.822 90.0318L113.391 89.3355C114.044 89.0461 114.338 88.2826 114.049 87.6301L109.166 76.6224C108.877 75.9699 108.113 75.6756 107.461 75.965L105.891 76.6613C105.239 76.9507 104.944 77.7142 105.234 78.3667L110.116 89.3744C110.406 90.0269 111.169 90.3212 111.822 90.0318Z" fill="#37474F"/>
<path d="M135.615 113.879L120.215 81.8174C120.215 81.8174 115.819 81.965 108.205 87.2462L124.56 119.232C128.569 118.212 132.329 116.391 135.615 113.879Z" fill="#37474F"/>
<path d="M121.504 121.914C121.504 121.914 136.012 117.63 140.001 113.706L138.73 110.826C127.519 112.561 120.24 119.052 120.24 119.052L121.504 121.914Z" fill="#455A64"/>
<path d="M107.64 88.157C107.64 88.157 113.4 83.261 121.183 81.7886L119.851 78.9554C111.611 78.815 106.308 85.3238 106.308 85.3238L107.64 88.157Z" fill="#455A64"/>
<path d="M118.346 107.442C118.346 107.442 124.693 103.245 130.165 101.888C130.243 101.856 130.313 101.809 130.371 101.748C130.429 101.688 130.474 101.616 130.502 101.537C130.53 101.458 130.541 101.374 130.535 101.291C130.528 101.207 130.504 101.126 130.464 101.052L128.974 97.8807C128.894 97.739 128.766 97.6307 128.614 97.5758C128.461 97.5209 128.293 97.5231 128.142 97.5819C120.776 99.4467 116.323 103.137 116.323 103.137C116.249 103.172 116.182 103.221 116.126 103.282C116.071 103.343 116.028 103.415 116 103.492C115.973 103.57 115.961 103.652 115.965 103.735C115.969 103.817 115.989 103.897 116.024 103.972L117.515 107.144C117.55 107.218 117.599 107.285 117.659 107.34C117.72 107.395 117.791 107.438 117.868 107.466C117.946 107.494 118.028 107.506 118.11 107.502C118.192 107.498 118.272 107.478 118.346 107.442Z" fill="#455A64"/>
<path d="M108.115 103.537L106.97 103.025C106.97 103.025 90.954 110.125 91.8 129.241C92.3472 141.891 101.578 150.635 101.578 150.635C101.578 150.635 90.3528 136.156 94.5468 122.75C98.7407 109.343 108.115 103.537 108.115 103.537Z" fill="#455A64"/>
<path d="M93.078 130.539C93.9996 142.203 101.563 150.617 101.563 150.617H113.04C118.303 143.69 126.684 139.64 126.684 139.64L117.504 141.246L116.687 140.828L115.074 140.004C115.074 140.004 112.745 143.561 109.249 143.481C108.534 143.464 107.83 143.306 107.176 143.017C103.086 141.249 101.023 130.417 102.935 123.937C104.846 117.457 113.22 113.45 113.22 113.45L108.108 103.554C98.9784 107.64 92.16 118.875 93.078 130.539Z" fill="#37474F"/>
<path d="M109.253 143.485C109.253 143.485 112.259 144.504 116.694 140.828L115.081 140.004C115.081 140.004 112.752 143.561 109.257 143.481L109.253 143.485Z" fill="#455A64"/>
<path d="M94.1978 166.521H128.448C127.591 165.182 126.112 162.777 124.146 160.131L124.02 159.959C123.97 159.89 123.916 159.822 123.865 159.75L123.768 159.62C123.667 159.491 123.57 159.361 123.469 159.235C123.446 159.195 123.418 159.157 123.387 159.123C123.282 158.99 123.178 158.85 123.066 158.717C122.897 158.493 122.706 158.256 122.494 157.997C122.35 157.813 122.199 157.637 122.047 157.453C121.813 157.172 121.561 156.877 121.295 156.571C121.162 156.413 121.021 156.254 120.874 156.092C116.827 151.581 111.629 147.567 105.991 148.032C95.339 148.917 94.1978 166.521 94.1978 166.521Z" fill="#455A64"/>
<path d="M118.995 141.411L152.66 138.602L152.305 134.34L118.639 137.149L118.995 141.411Z" fill="#263238"/>
<path d="M111.51 142.057L118.972 141.433L118.615 137.171L111.153 137.795L111.51 142.057Z" fill="#37474F"/>
<path d="M121.68 163.699C121.68 163.929 121.748 164.153 121.876 164.343C122.003 164.534 122.184 164.682 122.396 164.77C122.608 164.858 122.841 164.881 123.066 164.836C123.29 164.791 123.497 164.681 123.659 164.519C123.821 164.357 123.932 164.15 123.976 163.925C124.021 163.701 123.998 163.467 123.91 163.256C123.823 163.044 123.674 162.863 123.483 162.735C123.293 162.608 123.069 162.54 122.839 162.54C122.532 162.54 122.237 162.662 122.02 162.88C121.802 163.097 121.68 163.392 121.68 163.699Z" fill="#263238"/>
<path d="M97.6177 163.699C97.6177 163.929 97.6857 164.153 97.813 164.343C97.9404 164.534 98.1215 164.682 98.3333 164.77C98.5451 164.858 98.7782 164.881 99.003 164.836C99.2279 164.791 99.4345 164.681 99.5966 164.519C99.7587 164.357 99.8691 164.15 99.9138 163.925C99.9585 163.701 99.9356 163.467 99.8479 163.256C99.7601 163.044 99.6115 162.863 99.4209 162.735C99.2303 162.608 99.0062 162.54 98.7769 162.54C98.6247 162.54 98.4739 162.57 98.3333 162.628C98.1926 162.687 98.0648 162.772 97.9572 162.88C97.8496 162.987 97.7642 163.115 97.7059 163.256C97.6477 163.396 97.6177 163.547 97.6177 163.699Z" fill="#263238"/>
<path d="M107.165 151.776C107.165 152.006 107.233 152.23 107.36 152.42C107.488 152.611 107.669 152.76 107.881 152.847C108.092 152.935 108.326 152.958 108.55 152.913C108.775 152.869 108.982 152.758 109.144 152.596C109.306 152.434 109.416 152.227 109.461 152.003C109.506 151.778 109.483 151.545 109.395 151.333C109.307 151.121 109.159 150.94 108.968 150.813C108.778 150.685 108.554 150.617 108.324 150.617C108.017 150.617 107.722 150.739 107.505 150.957C107.287 151.174 107.165 151.469 107.165 151.776Z" fill="#263238"/>
<path d="M116.071 89.5752C116.071 89.8045 116.139 90.0286 116.267 90.2192C116.394 90.4099 116.575 90.5584 116.787 90.6462C116.999 90.7339 117.232 90.7569 117.457 90.7122C117.682 90.6674 117.888 90.557 118.05 90.3949C118.212 90.2328 118.323 90.0262 118.367 89.8014C118.412 89.5765 118.389 89.3434 118.301 89.1316C118.214 88.9198 118.065 88.7388 117.875 88.6114C117.684 88.484 117.46 88.416 117.23 88.416C117.078 88.416 116.928 88.446 116.787 88.5043C116.646 88.5625 116.518 88.6479 116.411 88.7555C116.303 88.8632 116.218 88.991 116.16 89.1316C116.101 89.2723 116.071 89.423 116.071 89.5752Z" fill="#263238"/>
<path d="M126.104 110.844C126.104 111.073 126.172 111.297 126.3 111.488C126.427 111.678 126.608 111.827 126.82 111.915C127.032 112.002 127.265 112.025 127.49 111.981C127.715 111.936 127.921 111.826 128.083 111.663C128.246 111.501 128.356 111.295 128.401 111.07C128.445 110.845 128.422 110.612 128.335 110.4C128.247 110.188 128.098 110.007 127.908 109.88C127.717 109.753 127.493 109.685 127.264 109.685C127.111 109.685 126.961 109.715 126.82 109.773C126.679 109.831 126.552 109.916 126.444 110.024C126.336 110.132 126.251 110.26 126.193 110.4C126.134 110.541 126.104 110.692 126.104 110.844Z" fill="#263238"/>
<path d="M106.042 112.41C106.682 112.41 107.201 111.891 107.201 111.251C107.201 110.611 106.682 110.092 106.042 110.092C105.401 110.092 104.882 110.611 104.882 111.251C104.882 111.891 105.401 112.41 106.042 112.41Z" fill="#263238"/>
<path d="M113.555 144.749C113.555 144.978 113.623 145.202 113.75 145.393C113.877 145.584 114.058 145.732 114.27 145.82C114.482 145.908 114.715 145.931 114.94 145.886C115.165 145.841 115.371 145.731 115.534 145.569C115.696 145.407 115.806 145.2 115.851 144.975C115.896 144.75 115.873 144.517 115.785 144.305C115.697 144.094 115.549 143.913 115.358 143.785C115.167 143.658 114.943 143.59 114.714 143.59C114.406 143.59 114.112 143.712 113.894 143.929C113.677 144.147 113.555 144.442 113.555 144.749Z" fill="#263238"/>
<path d="M62.9463 90.8967C41.6811 109.188 21.6255 149.67 30.4671 154.559C38.5455 159.027 65.6427 158.411 76.9071 156.903C80.2191 156.46 76.2519 130.756 72.7095 131.228C68.4327 131.793 57.5895 132.246 57.1683 132.171C56.2503 132.012 69.5199 103.634 73.7463 93.2008C79.6431 78.664 70.9203 84.028 62.9463 90.8967Z" fill="#F7A9A0"/>
<path d="M66.2114 133.491C66.2114 133.491 67.6514 133.009 74.927 129.196C79.9454 126.561 93.8594 123.354 105.887 133.797C110.502 137.797 109.71 142.779 104.181 139.474C100.285 137.145 97.7834 135.198 96.3002 134.794C96.3002 134.794 98.7482 141.296 96.4946 144.633C95.501 146.124 92.6606 150.12 90.0002 152.931C89.4235 152.607 88.868 152.246 88.337 151.851C86.9216 153.482 85.1632 154.779 83.1878 155.65C81.2125 156.521 79.0689 156.945 76.9106 156.891L66.2114 133.491Z" fill="#F7A9A0"/>
<path d="M80.1182 127.44C82.9982 128.132 89.1182 129.698 93.6577 132.714C98.6977 136.066 107.532 143.874 105.019 147.582C103.176 150.297 99.5473 147.611 99.5473 147.611C99.5473 147.611 102.514 151.611 100.311 153.699C98.3053 155.6 95.6306 153.339 95.6306 153.339C95.6306 153.339 97.0129 156.075 94.7269 157.533C91.9802 159.293 89.5358 153.27 85.2122 152.648C84.2402 152.529 80.1182 127.44 80.1182 127.44Z" fill="#F7A9A0"/>
<path d="M89.2263 137.466C91.8399 138.546 97.1463 142.57 99.5583 147.492C99.6123 147.603 99.5583 147.704 99.4863 147.614C96.4781 143.845 93.0231 140.455 89.1975 137.52C89.1687 137.494 89.1975 137.455 89.2263 137.466Z" fill="#263238"/>
<path d="M85.9935 142.661C88.1535 143.838 93.4203 148.212 95.7135 153.285C95.7639 153.4 95.7135 153.497 95.6343 153.404C92.827 149.483 89.5829 145.895 85.9647 142.708C85.9323 142.686 85.9647 142.647 85.9935 142.661Z" fill="#263238"/>
<path d="M58.2445 131.465C57.0385 130.208 70.6681 103.612 74.7505 91.8937C78.8329 80.1757 75.4129 80.2693 64.4581 89.1073C53.5033 97.9453 34.5205 121.068 28.5589 144.31C26.6977 151.56 24.6637 156.679 41.7601 158.112C59.2921 159.581 71.6149 158.533 71.6149 158.533L70.6321 131.195C70.6321 131.195 58.5937 131.828 58.2445 131.465Z" fill="#EBEBEB"/>
<path d="M65.5995 157.702C64.5015 146.815 64.9983 135.205 64.9407 133.179C64.9407 133.081 65.0955 133.089 65.0919 133.179C65.0451 135.169 65.9163 148.497 65.7651 157.702C65.7651 157.817 65.6103 157.806 65.5995 157.702Z" fill="#263238"/>
<path d="M45.0685 132.25C46.1531 132.057 47.2505 131.945 48.3517 131.915C49.3705 131.843 50.3893 131.75 51.4081 131.674L52.7293 131.58L52.6105 131.555C52.0381 131.415 51.4657 131.274 50.8933 131.127C50.3209 130.979 49.7593 130.796 49.1797 130.688C49.0825 130.688 49.1077 130.518 49.1797 130.54C49.7485 130.677 50.3353 130.731 50.9149 130.828C51.4945 130.925 52.1137 131.03 52.7149 131.138C53.2405 131.231 53.7625 131.354 54.2845 131.469C55.2673 131.4 56.2537 131.35 57.2401 131.307C57.8557 129.438 58.7197 127.613 59.4937 125.806C60.3073 123.912 61.1353 122.033 62.0137 120.161C62.8921 118.289 63.7489 116.511 64.6705 114.711C65.1313 113.811 65.8729 112.443 66.3445 111.546C66.8161 110.65 66.6685 111.24 66.2545 112.22C65.8405 113.199 65.4697 114.077 65.0809 115.006C64.3009 116.868 63.5101 118.726 62.7085 120.579C61.9093 122.433 61.1065 124.283 60.3145 126.141C59.5945 127.84 58.9321 129.6 58.1329 131.271C60.1453 131.202 62.1613 131.174 64.1773 131.134C65.2069 131.112 66.2329 131.098 67.2625 131.084C68.3641 131.084 69.5053 131.188 70.5961 131.105C70.6933 131.105 70.7113 131.253 70.6177 131.253C69.5377 131.253 68.4181 131.483 67.3345 131.566C66.3121 131.642 65.2933 131.721 64.2709 131.789C62.1109 131.933 59.9509 132.095 57.7909 132.207C55.6309 132.318 53.5249 132.34 51.3901 132.372C50.3101 132.372 49.2517 132.372 48.1825 132.401C47.1447 132.461 46.104 132.446 45.0685 132.354C45.057 132.351 45.0468 132.345 45.0395 132.335C45.0323 132.326 45.0283 132.314 45.0283 132.302C45.0283 132.29 45.0323 132.279 45.0395 132.269C45.0468 132.26 45.057 132.253 45.0685 132.25Z" fill="#263238"/>
<path d="M34.3621 156.938C44.4169 158.216 63.8317 158.782 71.5969 158.533C71.5969 158.533 71.5501 157.424 71.5573 157.453C71.5645 157.482 71.5897 157.367 71.6149 157.511C71.6856 157.894 71.7205 158.284 71.7193 158.674C69.9877 158.778 52.1785 159.963 34.3153 157.291C34.2739 157.279 34.2383 157.253 34.2148 157.217C34.1913 157.181 34.1815 157.137 34.1871 157.095C34.1928 157.052 34.2135 157.013 34.2456 156.984C34.2777 156.956 34.319 156.939 34.3621 156.938Z" fill="#263238"/>
<path d="M125.039 88.0781C128.614 89.3741 134.536 89.5181 136.746 91.2749C137.308 91.6876 137.722 92.2706 137.927 92.9374C138.131 93.6041 138.115 94.319 137.88 94.9757C137.88 94.9757 140.854 94.0001 142.596 95.9261C143.496 96.9161 142.701 99.2201 142.701 99.2201C142.701 99.2201 145.116 98.5433 146.563 100.351C147.715 101.791 146.747 103.886 146.747 103.886C146.747 103.886 149.368 104.318 150.073 106.161C151.513 109.901 140.238 121.043 134.395 118.617C131.674 117.487 134.572 114.913 134.572 114.913C134.572 114.913 129.51 117.605 127.156 115.341C124.801 113.077 128.765 109.966 128.765 109.966C128.765 109.966 123.84 112.533 121.633 109.941C119.337 107.241 123.837 104.807 123.837 104.807C123.837 104.807 119.653 105.585 118.419 103.216C116.381 99.2993 124.852 98.3777 126.745 95.3429L124.074 89.9105L125.039 88.0781Z" fill="#F7A9A0"/>
<path d="M130.806 89.392C127.53 87.8692 127.566 81.9472 124.643 80.032C120.683 77.4544 120.175 84.3268 124.07 89.9032L127.854 93.7012L130.806 89.392Z" fill="#F7A9A0"/>
<path d="M146.639 104.238C146.675 104.198 146.736 104.238 146.708 104.285C143.9 108.853 139.41 113.011 134.424 115.085C134.262 115.153 134.082 114.919 134.248 114.808C138.978 111.686 142.92 108.551 146.639 104.238Z" fill="#263238"/>
<path d="M142.776 99.1909C142.816 99.1441 142.895 99.2089 142.859 99.2665C139.939 103.946 134.755 108.497 128.729 110.2C128.524 110.257 128.279 110.102 128.513 110.016C132.433 108.583 139.457 103.09 142.776 99.1909Z" fill="#263238"/>
<path d="M123.354 104.793C129.071 102.939 133.614 99.4397 137.754 95.1737C137.808 95.1161 137.884 95.1989 137.851 95.2601C136.386 97.8989 133.459 100.343 131.011 102.05C128.775 103.678 126.151 104.692 123.401 104.991C123.311 105.002 123.232 104.833 123.354 104.793Z" fill="#263238"/>
</svg>
