<svg width="200" height="180" viewBox="0 0 200 180" fill="none" xmlns="http://www.w3.org/2000/svg">
<path d="M109.5 180C159.206 180 199.5 139.706 199.5 90C199.5 40.2944 159.206 0 109.5 0C59.7944 0 19.5 40.2944 19.5 90C19.5 139.706 59.7944 180 109.5 180Z" fill="#F0F4FE"/>
<path d="M137.373 96.6636C137.799 98.3898 138.601 100 139.723 101.38C142.067 104.26 145.94 105.379 148.298 108.202C148.453 108.616 148.601 109.037 148.723 109.476C148.725 109.483 148.725 109.49 148.723 109.498C148.728 109.505 148.735 109.511 148.744 109.514C148.752 109.517 148.761 109.518 148.77 109.516C148.77 109.462 148.77 109.404 148.77 109.354C148.77 109.249 148.749 109.152 148.734 109.055C148.72 108.958 148.698 108.778 148.673 108.637C148.673 108.637 148.673 108.572 148.673 108.554C147.953 104.659 144.778 101.714 142.315 98.7912C140.908 97.11 139.932 95.1516 138.561 93.4632C138.233 93.06 137.74 92.2176 137.203 92.7612C136.581 93.3984 137.2 95.958 137.373 96.6636Z" fill="#EBEBEB"/>
<path d="M139.461 99.126C141.535 103.086 147.086 104.386 148.533 108.727L148.641 109.087C148.663 109.174 148.688 109.26 148.706 109.346C148.706 109.382 148.706 109.418 148.731 109.458C148.733 109.465 148.733 109.472 148.731 109.48C148.736 109.487 148.743 109.493 148.752 109.496C148.76 109.499 148.769 109.5 148.778 109.498H148.821C148.827 109.492 148.832 109.486 148.835 109.478C148.839 109.471 148.84 109.463 148.839 109.454C148.814 109.314 148.785 109.177 148.753 109.04C148.682 108.709 148.579 108.384 148.447 108.072C147.773 106.166 146.703 104.423 145.308 102.96C143.572 101.03 141.762 99.234 140.059 97.254C139.846 97.0092 139.209 95.9292 138.856 96.3324C138.406 96.858 139.216 98.6652 139.461 99.126ZM139.314 98.4384C139.22 98.2008 138.644 96.5844 139.094 96.5232C139.36 96.4872 140.037 97.5708 140.174 97.704L141.614 99.2664C142.629 100.346 143.648 101.448 144.66 102.542C145.915 103.851 146.98 105.329 147.824 106.934C145.61 103.68 140.808 102.276 139.306 98.4384H139.314Z" fill="white"/>
<path d="M158.293 134.28C158.325 134.33 158.404 134.377 158.447 134.28C160.265 130.68 164.816 130.057 166.853 126.59C167.629 125.17 168.209 123.651 168.578 122.076C168.919 120.931 169.118 119.749 169.168 118.555C169.168 118.393 169.262 117.698 169.06 117.493C167.534 115.963 164.647 121.777 164.114 122.67C162.037 126.148 160.132 129.323 158.714 133.049C158.563 133.434 158.419 133.826 158.282 134.23C158.271 134.255 158.282 134.28 158.293 134.28Z" fill="#EBEBEB"/>
<path d="M158.291 134.28L158.492 133.891C159.932 131.731 161.97 130.082 163.81 128.257C165.649 126.432 166.988 124.405 167.676 121.864C167.798 121.417 168.356 119.646 167.676 119.315C167.075 119.016 166.43 120.654 166.236 120.992C164.778 123.491 163.378 125.982 161.729 128.372C160.674 129.899 159.598 131.432 158.698 133.052C158.546 133.438 158.402 133.83 158.266 134.233C158.269 134.255 158.28 134.28 158.291 134.28ZM159.176 132.66C160.256 130.824 161.491 129.085 162.69 127.314C163.516 126.097 164.29 124.85 165.012 123.574C165.404 122.872 165.793 122.162 166.193 121.464C166.394 121.104 166.596 120.766 166.805 120.424C166.909 120.247 167.24 119.664 167.525 119.822C168.245 120.247 166.754 125.413 163.075 128.693C161.656 129.893 160.351 131.223 159.176 132.664V132.66Z" fill="white"/>
<path d="M159.893 125.878C159.892 125.886 159.894 125.894 159.898 125.901C159.903 125.907 159.91 125.912 159.918 125.914C159.923 125.915 159.928 125.915 159.932 125.914C159.937 125.913 159.942 125.911 159.946 125.908C159.95 125.906 159.953 125.902 159.956 125.898C159.959 125.894 159.96 125.89 159.961 125.885C159.986 125.788 160.015 125.698 160.04 125.6C160.134 125.24 160.217 124.906 160.292 124.556C160.292 124.492 160.321 124.43 160.332 124.366C160.344 124.359 160.353 124.347 160.357 124.333C161.286 120.568 164.396 117.749 164.76 113.807C164.872 112.05 164.687 110.286 164.213 108.59C164.026 107.87 163.799 105.412 162.719 105.379C161.876 105.358 161.408 106.762 161.218 107.352C160.613 109.231 160.642 111.344 160.598 113.299C160.555 115.254 160.598 117.126 160.627 119.038C160.617 120.779 160.464 122.516 160.17 124.232C160.08 124.776 159.979 125.327 159.893 125.878Z" fill="#EBEBEB"/>
<path d="M159.893 125.878C159.892 125.886 159.894 125.894 159.898 125.9C159.903 125.907 159.91 125.912 159.918 125.914C159.994 125.6 160.066 125.287 160.145 124.974C160.109 125.186 160.073 125.395 160.04 125.6C160.134 125.24 160.217 124.906 160.292 124.556C160.325 124.376 160.357 124.196 160.393 124.02C160.972 121.927 161.708 119.881 162.596 117.9C163.039 116.93 163.312 115.891 163.403 114.829C163.554 112.849 163.126 108.648 162.539 108.32C161.952 107.993 161.963 109.4 161.927 109.739C161.66 112.396 161.743 115.063 161.333 117.709C161.056 119.488 160.76 121.266 160.465 123.044C160.357 123.433 160.256 123.829 160.17 124.222C160.08 124.776 159.979 125.327 159.893 125.878ZM160.793 121.943C161.12 120.24 161.434 118.534 161.657 116.82C161.837 115.398 161.884 113.965 161.941 112.532C161.97 111.812 161.999 111.092 162.056 110.39C162.056 110.196 162.1 108.623 162.388 108.59C162.676 108.558 162.838 109.67 162.877 109.958C163.059 111.392 163.168 112.834 163.205 114.278C163.23 115.801 162.755 117.097 162.125 118.462C161.613 119.595 161.168 120.757 160.793 121.943Z" fill="white"/>
<path d="M152.261 153.522C152.338 153.467 152.4 153.394 152.441 153.31C154.759 150.401 157.999 148.421 160.332 145.505C161.388 144.246 162.122 142.75 162.47 141.145C162.604 140.454 163.072 138.064 162.334 137.52C160.13 135.871 154.093 148.712 152.232 153.148C152.192 153.206 152.162 153.271 152.142 153.338C152.095 153.493 152.164 153.569 152.261 153.522Z" fill="#EBEBEB"/>
<path d="M152.261 153.522C152.408 153.27 152.56 153.014 152.714 152.759C153.269 152.039 153.838 151.319 154.446 150.656C155.411 149.576 156.502 148.644 157.524 147.629C159.138 146.063 160.329 144.114 160.984 141.962C161.124 141.494 161.599 140.191 161.084 139.774C160.57 139.356 160.141 140.321 159.947 140.605C157.222 144.652 154.752 148.91 152.279 153.13C152.228 153.198 152.185 153.266 152.142 153.338C152.095 153.493 152.164 153.569 152.261 153.522ZM153.452 151.517C154.432 149.882 155.416 148.254 156.404 146.632C157.182 145.357 157.963 144.088 158.748 142.823C159.14 142.2 159.518 141.57 159.918 140.951C160.076 140.706 160.681 139.756 160.944 140.018C161.207 140.281 160.944 141.217 160.915 141.394C160.242 144.151 158.586 146.344 156.548 148.234C155.441 149.255 154.407 150.352 153.452 151.517Z" fill="white"/>
<path d="M151.701 119.794C151.699 119.817 151.704 119.84 151.713 119.861C151.722 119.883 151.737 119.901 151.755 119.916C151.782 119.934 151.814 119.943 151.846 119.943C151.879 119.943 151.911 119.934 151.938 119.916C151.971 119.905 151.999 119.885 152.021 119.858C152.04 119.848 152.054 119.832 152.061 119.812C152.662 117.598 154.059 115.038 154.732 112.856C155.227 111.172 155.469 109.424 155.452 107.669C155.473 105.72 155.258 103.777 154.811 101.88C154.588 100.98 154.181 98.7804 153.115 98.3952C150.923 97.596 151.675 104.756 151.675 105.595C151.657 110.326 151.657 115.06 151.701 119.794Z" fill="#EBEBEB"/>
<path d="M151.754 119.916C151.781 119.934 151.813 119.943 151.846 119.943C151.878 119.943 151.91 119.934 151.938 119.916C151.938 119.75 151.963 119.581 151.977 119.412C152.146 118.436 152.316 117.464 152.542 116.496C152.902 114.923 153.486 113.404 153.799 111.816C154.342 109.055 153.968 101.502 152.758 101.437C152.128 101.405 152.269 102.924 152.269 103.302C152.269 104.796 152.467 106.279 152.452 107.777C152.452 109.346 152.337 110.916 152.236 112.482C152.078 114.894 151.909 117.302 151.779 119.718C151.768 119.797 151.761 119.855 151.754 119.916ZM152.089 117.835C152.236 115.7 152.362 113.562 152.496 111.424C152.586 109.948 152.661 108.468 152.647 106.988C152.647 106.16 152.575 105.332 152.517 104.508C152.492 104.105 152.463 103.702 152.463 103.298C152.463 102.938 152.391 101.538 152.877 101.783C153.363 102.028 153.597 104.17 153.651 104.663C153.734 105.48 153.806 106.294 153.853 107.114C153.962 108.735 153.868 110.363 153.572 111.96C153.244 113.54 152.668 115.06 152.33 116.64C152.244 117.032 152.161 117.432 152.089 117.835Z" fill="white"/>
<path d="M136.414 132.584C140.676 133.877 145.335 132.192 149.781 136.238C149.782 136.242 149.785 136.246 149.789 136.248C149.792 136.25 149.796 136.251 149.801 136.251C149.805 136.251 149.809 136.25 149.812 136.248C149.816 136.246 149.819 136.242 149.82 136.238V136.217C149.432 135.774 149.028 135.342 148.604 134.924C146.313 132.655 143.607 130.847 140.633 129.6C138.869 128.866 137.003 128.405 135.1 128.232C134.128 128.149 131.918 127.786 131.172 128.48C129.57 129.989 135.64 132.35 136.414 132.584Z" fill="#EBEBEB"/>
<path d="M135.546 130.752C137.803 132.192 140.662 132.296 143.193 132.959C144.939 133.397 146.625 134.05 148.211 134.903C148.755 135.331 149.291 135.77 149.82 136.224V136.202C149.431 135.76 149.028 135.328 148.603 134.91L148.51 134.86C147.054 133.681 145.478 132.659 143.808 131.81C141.513 130.623 139.063 129.763 136.529 129.254C136.09 129.164 134.488 128.603 134.164 129.179C133.84 129.755 135.229 130.554 135.546 130.752ZM134.43 129.262C134.707 128.92 137.353 129.593 138.39 129.884C140.657 130.51 142.834 131.422 144.87 132.599C145.743 133.112 146.584 133.675 147.39 134.287C146.337 133.786 145.245 133.37 144.125 133.042C141.789 132.35 139.272 132.178 137.001 131.296C136.403 131.068 135.836 130.767 135.312 130.399C135.139 130.252 134.178 129.578 134.419 129.262H134.43Z" fill="white"/>
<path d="M130.557 115.272C131.196 116.755 132.009 118.157 132.98 119.448C134.867 121.937 137.307 123.953 140.108 125.338L140.259 125.413C140.36 125.533 140.464 125.653 140.572 125.773L140.644 125.849C140.652 125.851 140.66 125.851 140.668 125.848C140.676 125.845 140.683 125.84 140.687 125.834C140.692 125.827 140.695 125.819 140.695 125.811C140.695 125.802 140.692 125.794 140.687 125.788C140.59 125.629 140.496 125.464 140.403 125.298C138.488 121.921 137.163 118.282 134.751 115.196C134.222 114.523 130.924 110.016 129.732 111.82C129.2 112.658 130.229 114.523 130.557 115.272Z" fill="#EBEBEB"/>
<path d="M131.623 115.56C132.703 117.691 134.568 119.585 136.173 121.345C137.417 122.744 138.73 124.079 140.108 125.345L140.468 125.651L140.587 125.766C140.615 125.799 140.645 125.83 140.677 125.86C140.685 125.862 140.693 125.862 140.701 125.859C140.709 125.856 140.716 125.851 140.72 125.844C140.725 125.838 140.728 125.83 140.728 125.821C140.728 125.813 140.725 125.805 140.72 125.798C140.623 125.64 140.529 125.474 140.436 125.309L140.119 124.999C138.848 123.291 137.698 121.497 136.677 119.628C136.098 118.624 135.5 117.641 134.827 116.701C134.154 115.762 133.531 114.797 132.692 114.052C132.332 113.731 131.594 113.098 131.202 113.724C130.863 114.235 131.393 115.103 131.623 115.56ZM132.44 114.12C133.434 114.995 134.24 116.233 134.978 117.324C135.716 118.415 136.325 119.462 136.955 120.564C137.607 121.741 138.318 122.885 139.086 123.991C137.833 122.774 136.595 121.547 135.435 120.222C134.528 119.189 133.635 118.134 132.818 117.036C132.376 116.478 131.995 115.875 131.681 115.236C131.568 115.011 131.47 114.779 131.389 114.541C131.141 113.796 131.994 113.735 132.44 114.12Z" fill="white"/>
<path d="M145.979 94.482C145.997 94.5432 146.022 94.6008 146.04 94.662C146.046 94.6762 146.054 94.6892 146.064 94.7002C146.075 94.7112 146.087 94.7201 146.101 94.7262C146.115 94.7324 146.13 94.7358 146.145 94.7362C146.16 94.7366 146.176 94.734 146.19 94.7286C146.204 94.7232 146.217 94.715 146.228 94.7045C146.239 94.6941 146.248 94.6816 146.254 94.6677C146.26 94.6538 146.264 94.6389 146.264 94.6237C146.264 94.6085 146.262 94.5934 146.256 94.5792C146.224 94.4712 146.188 94.356 146.152 94.248L146.069 93.9816C146.06 93.8089 146.06 93.6359 146.069 93.4632C146.163 91.5984 147.034 89.5608 147.401 87.8004C147.765 86.2024 147.966 84.5717 148.002 82.9332C148.056 81.2667 147.765 79.607 147.146 78.0588C146.966 77.6484 146.577 76.572 145.954 76.6188C145.169 76.6692 144.928 78.3756 144.78 78.8724C144.288 80.5954 144.027 82.3762 144.003 84.168C143.945 87.7572 144.809 91.1196 145.979 94.482Z" fill="#EBEBEB"/>
<path d="M145.858 93.6576C145.882 93.9346 145.923 94.2099 145.98 94.482C145.998 94.5432 146.023 94.6008 146.041 94.662C146.049 94.6799 146.06 94.6958 146.075 94.7081C146.09 94.7204 146.108 94.7287 146.127 94.7323C146.146 94.7358 146.166 94.7346 146.184 94.7286C146.202 94.7226 146.219 94.7121 146.232 94.698C146.218 94.6533 146.207 94.6075 146.2 94.5612C146.2 94.4568 146.167 94.3524 146.153 94.248C146.121 93.9888 146.095 93.7296 146.081 93.4632C146.022 92.5183 146.048 91.5701 146.16 90.63C146.344 88.992 146.585 87.3612 146.707 85.716C146.769 84.8916 147.226 78.5448 145.746 78.8364C145.465 78.8868 145.426 79.3296 145.386 79.5312C145.238 80.2418 145.161 80.9653 145.156 81.6912C145.095 83.376 145.098 85.0644 145.156 86.7312C145.216 89.0543 145.45 91.3697 145.858 93.6576ZM145.343 87.6852C145.275 86.2056 145.253 84.726 145.267 83.2464C145.267 82.5264 145.267 81.8064 145.329 81.0864C145.354 80.7264 145.555 79.0668 145.883 79.0776C146.365 79.0776 146.581 81.3636 146.603 81.9936C146.635 82.7136 146.632 83.4336 146.603 84.1536C146.556 85.5936 146.416 87.0336 146.243 88.4736C146.092 89.7444 145.843 91.1448 145.811 92.5236C145.572 90.9199 145.416 89.305 145.343 87.6852Z" fill="white"/>
<path d="M138.534 123.037C140.665 125.683 142.943 128.207 145.356 130.597C147.239 132.437 149.143 134.305 150.573 136.534C152.275 139.198 153.269 142.682 153.427 146.11C153.697 144.745 153.957 143.377 154.198 141.995C154.687 139.19 155.141 136.339 154.979 133.484C154.979 133.2 154.936 132.919 154.907 132.642C154.888 132.632 154.874 132.615 154.867 132.595C153.798 129.326 152.245 126.235 150.259 123.426C148.863 122.188 147.348 121.089 145.738 120.146C144.085 119.167 142.498 118.21 141.115 116.845C141.036 116.766 141.133 116.636 141.223 116.708C143.293 118.361 146.188 119.452 148.477 121.082C148.204 120.751 147.93 120.424 147.646 120.096C144.942 116.971 141.659 114.167 140.878 109.912C140.853 109.771 141.065 109.753 141.097 109.886C142.177 114.498 146.616 117.673 149.46 121.216C151.577 123.851 153.546 126.871 154.54 130.151C154.112 128.26 153.584 126.394 152.956 124.56C149.356 113.436 146.163 102.164 145.677 90.4212C145.677 90.306 145.849 90.2844 145.857 90.4032C146.659 102.96 150.943 114.638 154.547 126.58C154.59 126.716 154.626 126.853 154.666 126.99C154.734 125.12 155.03 123.266 155.548 121.468C155.573 121.381 155.706 121.396 155.692 121.489C155.35 124.11 155.436 126.702 155.278 129.319C155.693 131.049 155.912 132.821 155.929 134.6C155.894 136.736 155.683 138.864 155.299 140.965C156.307 138.118 157.348 135.281 158.151 132.354C159.382 127.929 160.32 123.428 160.959 118.879C160.959 118.811 161.067 118.829 161.059 118.879C160.666 123.652 159.877 128.384 158.701 133.027C157.672 136.958 156.495 141.044 154.633 144.695C153.715 149.652 152.61 154.742 150.421 159.268C150.412 159.289 150.398 159.309 150.38 159.325C150.363 159.342 150.343 159.355 150.321 159.363C150.298 159.372 150.275 159.376 150.251 159.375C150.227 159.374 150.204 159.369 150.182 159.359C150.16 159.35 150.141 159.336 150.124 159.319C150.108 159.301 150.095 159.281 150.086 159.259C150.078 159.236 150.074 159.213 150.075 159.189C150.075 159.165 150.08 159.142 150.09 159.12C150.405 158.141 150.701 157.162 150.979 156.182C150.785 154.426 150.893 152.647 150.601 150.883C150.256 148.817 149.665 146.8 148.841 144.875C148.783 144.734 148.996 144.655 149.061 144.788C150.353 147.308 151.581 150.656 151.649 153.763C152.031 152.323 152.369 150.883 152.711 149.443C152.945 144.493 151.966 139.345 148.938 135.371C147.379 133.33 145.497 131.58 143.718 129.737C141.772 127.681 139.987 125.479 138.379 123.149C138.365 123.128 138.359 123.103 138.363 123.078C138.367 123.053 138.38 123.03 138.401 123.016C138.421 123.001 138.447 122.995 138.472 122.999C138.497 123.003 138.519 123.017 138.534 123.037Z" fill="#EBEBEB"/>
<path d="M68.227 18.1692H17.3086V96.2424H68.227V18.1692Z" fill="#EBEBEB"/>
<path d="M41.5868 21.2976H20.084V56.0232H41.5868V21.2976Z" fill="white"/>
<path d="M65.4523 21.2976H43.9531V56.0232H65.4523V21.2976Z" fill="white"/>
<path d="M41.5868 58.3884H20.084V93.114H41.5868V58.3884Z" fill="white"/>
<path d="M65.4523 58.3884H43.9531V93.114H65.4523V58.3884Z" fill="white"/>
<path d="M33.1016 21.2976L20.084 34.3152V26.6364L25.4228 21.2976H33.1016Z" fill="#EBEBEB"/>
<path d="M20.084 91.8324L41.5868 70.3296V78.0048L26.4776 93.114H20.084V91.8324Z" fill="#EBEBEB"/>
<path d="M61.2079 58.3884L43.9531 75.6432V67.9644L53.5291 58.3884H61.2079Z" fill="#EBEBEB"/>
<path d="M65.4506 46.4652V54.144L63.5714 56.0232H55.8926L65.4506 46.4652Z" fill="#EBEBEB"/>
<path d="M65.4506 85.0716V92.7468L65.0834 93.114H57.4082L65.4506 85.0716Z" fill="#EBEBEB"/>
<path d="M21.3152 58.3884H25.1528L20.084 63.4572V59.6196L21.3152 58.3884Z" fill="#EBEBEB"/>
<path d="M23.6797 56.0232L41.5861 38.1168V41.9544L27.5173 56.0232H23.6797Z" fill="#EBEBEB"/>
<path d="M62.2447 21.2976L43.9531 39.5892V35.7516L58.4071 21.2976H62.2447Z" fill="#EBEBEB"/>
<path d="M39.4124 21.2976L20.084 40.626V39.6648L38.4512 21.2976H39.4124Z" fill="#EBEBEB"/>
<path d="M32.1016 93.114L41.5876 83.628V84.5892L33.0628 93.114H32.1016Z" fill="#EBEBEB"/>
<path d="M65.4523 59.7672V60.7248L43.9531 82.224V81.2628L65.4523 59.7672Z" fill="#EBEBEB"/>
<path d="M130.579 18.1692H79.6602V96.2424H130.579V18.1692Z" fill="#EBEBEB"/>
<path d="M103.938 21.2976H82.4355V56.0232H103.938V21.2976Z" fill="white"/>
<path d="M127.804 21.2976H106.305V56.0232H127.804V21.2976Z" fill="white"/>
<path d="M103.938 58.3884H82.4355V93.114H103.938V58.3884Z" fill="white"/>
<path d="M127.804 58.3884H106.305V93.114H127.804V58.3884Z" fill="white"/>
<path d="M82.4355 58.3884H84.4623L82.4355 60.4152V58.3884Z" fill="#EBEBEB"/>
<path d="M82.4355 52.7364L103.938 31.23V38.9124L86.8275 56.0232H82.4355V52.7364Z" fill="#EBEBEB"/>
<path d="M121.554 21.2976L106.305 36.5472V28.8648L113.872 21.2976H121.554Z" fill="#EBEBEB"/>
<path d="M127.804 69.6672V77.346L112.036 93.114H106.305V91.1628L127.804 69.6672Z" fill="#EBEBEB"/>
<path d="M103.938 21.2976V22.0068L82.4355 43.5096V39.6684L100.806 21.2976H103.938Z" fill="#EBEBEB"/>
<path d="M95.4062 93.114L103.938 84.582V88.4196L99.2438 93.114H95.4062Z" fill="#EBEBEB"/>
<path d="M127.804 60.714V64.5552L106.305 86.0544V82.2168L127.804 60.714Z" fill="#EBEBEB"/>
<path d="M87.076 58.3884H88.0372L82.4355 63.99V63.0288L87.076 58.3884Z" fill="#EBEBEB"/>
<path d="M89.4414 56.0232L103.939 41.526V42.4872L90.4026 56.0232H89.4414Z" fill="#EBEBEB"/>
<path d="M125.129 21.2976L106.305 40.122V39.1608L124.168 21.2976H125.129Z" fill="#EBEBEB"/>
<path d="M82.4355 92.394L103.938 70.8912V71.8488L82.6731 93.114H82.4355V92.394Z" fill="#EBEBEB"/>
<path d="M117.4 58.3884L106.305 69.4836V68.526L116.439 58.3884H117.4Z" fill="#EBEBEB"/>
<path d="M127.803 47.0232V47.9844L119.764 56.0232H118.803L127.803 47.0232Z" fill="#EBEBEB"/>
<path d="M22.4164 131.724H20.998V159.394H22.4164V131.724Z" fill="#263238"/>
<path d="M52.6452 157.453H22.416V159.39H52.6452V157.453Z" fill="#263238"/>
<path d="M32.7489 129.888L32.6445 153.05C32.6412 153.775 32.3501 154.469 31.8353 154.979C31.3205 155.489 30.6242 155.774 29.8995 155.77C29.1748 155.767 28.4812 155.476 27.9711 154.961C27.461 154.446 27.1764 153.75 27.1797 153.025L27.2841 129.863L32.7489 129.888Z" fill="#EBEBEB"/>
<path d="M32.4001 136.588L32.3281 153.032C32.3382 153.357 32.2828 153.681 32.165 153.984C32.0472 154.286 31.8695 154.562 31.6426 154.795C31.4157 155.028 31.1442 155.212 30.8443 155.337C30.5444 155.462 30.2224 155.526 29.8974 155.524C29.5725 155.521 29.2513 155.454 28.9532 155.325C28.655 155.195 28.386 155.007 28.1622 154.772C27.9384 154.536 27.7645 154.258 27.6508 153.953C27.537 153.649 27.4859 153.325 27.5005 153L27.5761 136.555L32.4001 136.588Z" fill="#C7C7C7"/>
<path d="M33.6119 127.848L26.4336 127.816L26.4173 131.416L33.5956 131.448L33.6119 127.848Z" fill="#263238"/>
<path d="M41.1806 129.888L41.0762 153.05C41.0745 153.409 41.0022 153.764 40.8633 154.095C40.7245 154.426 40.5218 154.726 40.2669 154.979C40.012 155.231 39.7099 155.431 39.3778 155.567C39.0456 155.703 38.69 155.772 38.3312 155.77C37.9723 155.769 37.6173 155.696 37.2865 155.557C36.9556 155.419 36.6553 155.216 36.4027 154.961C36.1502 154.706 35.9503 154.404 35.8145 154.072C35.6787 153.74 35.6097 153.384 35.6114 153.025L35.7158 129.863L41.1806 129.888Z" fill="#EBEBEB"/>
<path d="M40.8193 136.588L40.7473 153.032C40.7452 153.35 40.6806 153.663 40.5572 153.956C40.4338 154.248 40.2541 154.513 40.0283 154.736C39.8025 154.959 39.535 155.135 39.2411 155.254C38.9472 155.374 38.6327 155.434 38.3155 155.432C37.9983 155.43 37.6846 155.365 37.3923 155.242C37.1 155.118 36.8349 154.939 36.6121 154.713C36.3893 154.487 36.2132 154.22 36.0937 153.926C35.9743 153.632 35.9139 153.317 35.9161 153L35.9917 136.555L40.8193 136.588Z" fill="#263238"/>
<path d="M42.0318 127.85L34.8535 127.818L34.8372 131.418L42.0155 131.45L42.0318 127.85Z" fill="#455A64"/>
<path d="M52.6416 142.056V144.644H22.416V142.056H27.3228V142.92C27.3228 143.348 28.5324 143.694 30.0156 143.694C31.4988 143.694 32.7084 143.334 32.7084 142.92V142.056H35.7468V142.92C35.7468 143.348 36.9492 143.694 38.436 143.694C39.9228 143.694 41.1252 143.334 41.1252 142.92V142.056H44.1672V142.92C44.1672 143.348 45.3696 143.694 46.8564 143.694C48.3432 143.694 49.5492 143.334 49.5492 142.92V142.056H52.6416Z" fill="#455A64"/>
<path d="M52.6452 144.648H22.416V145.692H52.6452V144.648Z" fill="#263238"/>
<path d="M54.061 131.724H52.6426V159.394H54.061V131.724Z" fill="#263238"/>
<path d="M106.182 70.0956C106.542 67.4496 109.008 61.3368 114.822 62.064C123.102 63.1008 125.463 78.7356 129.888 83.3328C137.908 91.6596 138.808 100.433 132.883 102.287C126.241 104.368 119.124 97.6068 118.198 81.8964C117.619 72.072 114.526 67.9284 112.59 68.3676C110.653 68.8068 109.771 71.3628 109.771 71.3628L106.182 70.0956Z" fill="#263238"/>
<path d="M106.381 69.0948C106.694 67.8524 107.156 66.6521 107.756 65.52C108.358 64.3581 109.197 63.3352 110.218 62.5176C111.27 61.6823 112.559 61.2009 113.901 61.1424C115.236 61.0826 116.566 61.3495 117.775 61.92C118.962 62.5103 120.008 63.3488 120.842 64.3788C121.659 65.3865 122.359 66.4844 122.926 67.6512C124.009 69.9715 124.828 72.4059 125.367 74.9088C124.566 72.5052 123.584 70.1657 122.43 67.9104C121.837 66.8113 121.132 65.7762 120.327 64.8216C119.536 63.8769 118.555 63.1091 117.447 62.568C116.343 62.0472 115.132 61.7943 113.912 61.83C112.696 61.86 111.519 62.2593 110.535 62.9748C109.534 63.7151 108.687 64.6431 108.04 65.7072C107.701 66.2385 107.392 66.789 107.115 67.356C106.863 67.9176 106.611 68.5044 106.381 69.0948Z" fill="#263238"/>
<path d="M117.734 76.4928C117.935 78.0444 117.96 79.6104 118.047 81.1728C118.133 82.7352 118.184 84.2868 118.295 85.8348C118.407 87.3828 118.572 88.9272 118.846 90.4464C119.091 91.9621 119.484 93.4501 120.02 94.8888C120.528 96.3212 121.304 97.6442 122.306 98.7876C123.353 99.8929 124.585 100.808 125.945 101.491C127.311 102.182 128.818 102.544 130.348 102.55C131.115 102.543 131.879 102.439 132.62 102.24C132.987 102.144 133.348 102.024 133.7 101.88C134.063 101.738 134.405 101.547 134.715 101.311C134.113 101.822 133.414 102.206 132.659 102.438C131.909 102.692 131.128 102.847 130.337 102.899C129.541 102.945 128.741 102.892 127.958 102.74C127.174 102.581 126.41 102.332 125.682 101.999C124.958 101.667 124.267 101.265 123.62 100.8L123.141 100.44L122.676 100.08C122.362 99.8261 122.067 99.5506 121.791 99.2556C120.716 98.0587 119.882 96.6667 119.332 95.1552C118.22 92.16 117.86 88.9848 117.737 85.86C117.672 84.294 117.676 82.7316 117.698 81.18C117.719 79.6284 117.773 78.0516 117.734 76.4928Z" fill="#263238"/>
<path d="M105.718 70.1748C105.574 69.4548 105.934 68.436 106.38 68.2272C106.827 68.0184 110.545 68.9184 110.992 69.7536C111.438 70.5888 110.034 71.64 110.034 71.64L105.718 70.1748Z" fill="#263238"/>
<path d="M148.377 159.458H107.42L108.576 138.632H147.308C151.909 151.459 148.377 159.458 148.377 159.458Z" fill="#263238"/>
<path d="M117.732 105.998C117.872 115.639 112.087 143.521 106.759 147.038C101.794 150.322 79.4241 153.295 73.8081 152.95C67.2345 152.543 66.0177 136.93 69.6789 135.67C74.2473 134.082 92.8305 132.577 96.9057 130.907C99.2493 129.946 104.754 114.656 111.446 101.027C114.034 95.76 117.652 100.57 117.732 105.998Z" fill="#AD6359"/>
<path d="M74.3007 138.978C74.3007 138.978 62.9319 142.427 62.4207 142.79C61.9095 143.154 62.4207 143.87 62.7807 144.457C63.0698 144.754 63.3882 145.02 63.7311 145.253C65.2827 146.444 67.9755 148.604 66.1467 150.268C63.7455 152.453 57.6867 147.604 56.8587 146.7C56.5482 146.249 56.3371 145.737 56.2395 145.199C55.7931 143.287 55.7823 140.195 57.5067 138.568C59.8719 136.332 63.2667 135.187 66.1107 133.985L74.3007 138.978Z" fill="#AD6359"/>
<path d="M74.3007 138.978C74.3007 138.978 62.9319 142.427 62.4207 142.79C61.9095 143.154 62.4207 143.87 62.7807 144.457C63.0698 144.754 63.3882 145.02 63.7311 145.253C61.0671 145.253 58.1187 145.224 56.2395 145.199C55.7931 143.287 55.7823 140.195 57.5067 138.568C59.8719 136.332 63.2667 135.187 66.1107 133.985L74.3007 138.978Z" fill="#263238"/>
<path d="M83.9134 152.28C83.2186 152.251 77.2642 152.928 72.7786 153.446C70.3198 150.97 64.8406 146.606 63.3934 145.458C62.0074 143.892 58.1482 141.34 58.0222 141.498C57.781 141.797 56.9422 142.862 55.8082 144.068C54.3142 145.663 52.3306 147.517 50.6098 148.212C49.6702 148.59 48.8098 148.626 48.1582 148.104C46.9666 147.164 48.9178 144.472 50.9518 141.08C53.713 136.462 57.3562 130.936 60.2182 130.468C64.4446 129.78 70.2694 132.552 72.0982 133.175C73.927 133.798 80.2702 133.801 80.2702 133.801C86.4118 142.232 84.8422 152.302 83.9134 152.28Z" fill="#AD6359"/>
<path d="M62.4206 144.522C62.3414 144.468 62.3162 144.522 62.3954 144.605C62.6402 144.842 63.7274 145.93 63.5114 146.207C63.1334 146.689 59.4038 146.516 57.827 146.714C57.7442 146.714 57.7514 146.844 57.827 146.83C58.6448 146.786 59.4644 146.786 60.2822 146.83C61.0526 146.83 63.4034 147.038 63.8822 146.43C64.2206 146.02 62.7518 144.72 62.4206 144.522Z" fill="#263238"/>
<path d="M50.5046 130.95L62.0029 151.056C62.3629 151.685 62.4582 152.432 62.2678 153.131C62.0774 153.83 61.617 154.426 60.9878 154.786C60.3586 155.145 59.6121 155.241 58.9127 155.05C58.2133 154.86 57.6181 154.4 57.2582 153.77L45.7598 133.661L50.5046 130.95Z" fill="#EBEBEB"/>
<path d="M53.5573 136.922L61.7185 151.2C62.0288 151.756 62.1072 152.411 61.9368 153.025C61.7663 153.638 61.3608 154.159 60.8083 154.475C60.2557 154.791 59.6009 154.876 58.986 154.711C58.3711 154.547 57.8459 154.147 57.5245 153.598L49.3633 139.32L53.5573 136.922Z" fill="#C7C7C7"/>
<path d="M50.2414 128.745L44.0098 132.309L45.7967 135.434L52.0283 131.871L50.2414 128.745Z" fill="#263238"/>
<path d="M72.7774 153.436C71.2474 153.616 69.8974 153.796 68.9614 153.936C65.3326 154.512 63.1294 153.655 60.9622 152.41C58.795 151.164 51.3826 152.273 53.5894 148.81C55.7962 145.346 63.727 147.42 63.8782 146.333C63.907 146.124 63.7198 145.811 63.3922 145.447C64.8394 146.606 70.3186 150.959 72.7774 153.436Z" fill="#AD6359"/>
<path d="M107.421 147.28C106.147 148.424 103.764 149.389 100.941 150.188C92.834 152.478 81.0404 153.428 81.0404 153.428L77.8652 132.728C77.8652 132.728 95.3432 131.13 97.3052 129.996C99.2672 128.862 103.785 116.766 109.03 104.972C110.301 102.128 111.493 100.264 112.58 99.2124C115.993 95.9364 118.34 100.829 118.556 109.112C118.869 120.053 112.346 142.87 107.421 147.28Z" fill="#EBEBEB"/>
<path d="M84.3342 151.643C83.8014 143.327 81.9797 134.669 81.7709 133.139C81.7709 133.067 81.6449 133.088 81.6593 133.16C81.9438 134.654 82.9518 144.774 84.2118 151.672C84.2262 151.751 84.3378 151.722 84.3342 151.643Z" fill="#263238"/>
<path d="M107.421 147.28C106.147 148.424 103.764 149.389 100.941 150.188L112.595 99.2339C116.007 95.9579 118.355 100.85 118.571 109.134C118.869 120.053 112.346 142.87 107.421 147.28Z" fill="#263238"/>
<path d="M107.515 144.076L108.541 126.896C108.541 126.896 103.918 121.788 104.941 117.176C105.455 114.84 113.433 97.0632 114.214 96.336C117.353 93.4056 122.656 94.5756 124.831 96.2208C136.883 105.329 145.376 124.87 149.455 144.101L107.515 144.076Z" fill="#263238"/>
<path d="M112.73 100.303C112.957 100.976 113.202 101.642 113.494 102.287C113.765 102.936 114.096 103.558 114.484 104.144C114.876 104.706 115.333 105.278 115.945 105.498C116.557 105.718 117.202 105.365 117.709 104.929C118.757 104.029 119.509 102.809 120.229 101.599C120.582 100.987 120.903 100.358 121.19 99.7128C121.493 99.072 121.749 98.4103 121.957 97.7328C121.461 99.8214 120.582 101.8 119.365 103.568C118.958 104.168 118.48 104.716 117.943 105.203C117.659 105.449 117.337 105.647 116.989 105.79C116.806 105.861 116.613 105.901 116.417 105.908C116.218 105.91 116.021 105.876 115.834 105.808C115.482 105.664 115.166 105.446 114.908 105.167C114.662 104.899 114.445 104.606 114.26 104.292C113.543 103.051 113.027 101.705 112.73 100.303Z" fill="#263238"/>
<path d="M150.292 159.458H119.43L120.87 94.6584C120.87 94.6584 122.785 94.6152 126.021 96.8616C129.258 99.108 133.833 103.673 139.125 112.896C152.863 136.858 150.292 159.458 150.292 159.458Z" fill="#EBEBEB"/>
<path d="M113.592 96.9695L108.238 159.458H105.556C105.556 159.458 107.767 127.386 107.738 127.058C107.709 126.731 103.018 122.836 104.102 116.978C105.186 111.121 112.843 97.5023 113.592 96.9695Z" fill="#EBEBEB"/>
<path d="M107.738 127.08C106.341 126.014 105.221 124.627 104.473 123.037C103.703 121.421 103.442 119.61 103.724 117.842C104.013 116.114 104.496 114.423 105.164 112.802C105.805 111.19 106.562 109.626 107.428 108.122C106.755 109.717 106.129 111.326 105.563 112.954C105.29 113.767 105.013 114.581 104.793 115.412C104.557 116.232 104.375 117.067 104.249 117.911C103.979 119.583 104.187 121.298 104.851 122.857C105.519 124.445 106.501 125.881 107.738 127.08Z" fill="#263238"/>
<path d="M120.866 94.68C121.384 95.868 121.884 97.0596 122.388 98.2512L123.89 101.833C124.881 104.233 125.856 106.633 126.816 109.033L126.906 109.249L126.716 109.4C125.427 110.418 124.133 111.427 122.835 112.428L122.9 111.931L126.5 116.698L126.618 116.856L126.546 117.04C125.506 119.678 124.433 122.306 123.35 124.931C122.806 126.241 122.27 127.552 121.697 128.855C121.125 130.158 120.581 131.465 119.998 132.761C120.452 131.414 120.938 130.079 121.409 128.74C121.881 127.4 122.378 126.072 122.867 124.74C123.858 122.081 124.868 119.428 125.895 116.78L125.942 117.122L122.342 112.363L122.129 112.079L122.41 111.866C123.713 110.868 125.021 109.878 126.334 108.896L126.233 109.256C125.312 106.837 124.402 104.414 123.504 101.988L122.18 98.3232C121.73 97.1064 121.29 95.8896 120.866 94.68Z" fill="#DBDBDB"/>
<path d="M113.626 98.5248C113.23 99.522 112.816 100.508 112.398 101.498C111.981 102.488 111.574 103.475 111.149 104.458C110.307 106.43 109.451 108.395 108.582 110.351L108.496 109.991C109.428 110.747 110.346 111.514 111.264 112.288L111.484 112.471L111.347 112.723L108.996 117.112L109.036 116.896C109.378 119.394 109.691 121.896 109.99 124.402C110.138 125.654 110.282 126.922 110.411 128.164C110.541 129.406 110.674 130.684 110.771 131.929C110.53 130.691 110.321 129.445 110.094 128.207C109.868 126.968 109.673 125.719 109.472 124.474C109.072 121.982 108.687 119.491 108.334 116.993L108.316 116.881L108.37 116.78L110.714 112.388L110.796 112.828C109.887 112.05 108.981 111.266 108.078 110.477L107.898 110.315L107.996 110.102C108.906 108.162 109.824 106.225 110.764 104.299C111.225 103.334 111.704 102.373 112.179 101.419C112.654 100.465 113.136 99.4788 113.626 98.5248Z" fill="#DBDBDB"/>
<path d="M120.866 95.4828C121.006 96.2604 119.606 102.323 116.298 103.568C115.218 103.972 112.755 98.1864 112.755 98.1864L112.478 97.8012L108.568 92.4012L113.644 84.8772L114.4 83.844C114.4 83.844 115.372 85.392 116.56 87.3288C116.618 87.4188 116.672 87.5088 116.73 87.606C116.787 87.7032 116.866 87.8148 116.928 87.9192C117.111 88.2072 117.288 88.4988 117.471 88.7976C117.608 89.0208 117.741 89.2404 117.874 89.4816L118.288 90.2016C119.631 92.5884 120.801 95.1516 120.866 95.4828Z" fill="#AD6359"/>
<path d="M116.564 87.3324C116.684 89.2694 116.381 91.2093 115.675 93.0172C114.969 94.8251 113.878 96.4576 112.478 97.8012L108.568 92.4012L113.644 84.8772L114.4 83.844C114.4 83.844 115.372 85.3956 116.564 87.3324Z" fill="#263238"/>
<path d="M96.0114 87.7068C99.579 98.8452 106.653 97.9668 109.054 97.1964C111.214 96.4944 118.565 93.834 116.168 82.386C113.77 70.938 107.467 69.066 102.398 70.416C97.329 71.766 92.4438 76.5684 96.0114 87.7068Z" fill="#AD6359"/>
<path d="M97.5232 85.356C97.7644 85.2228 97.9696 85.0608 98.1964 84.906C98.4232 84.7512 98.6716 84.6216 98.794 84.3192C98.8186 84.2305 98.8132 84.1363 98.7787 84.051C98.7442 83.9657 98.6825 83.8942 98.6032 83.8476C98.4328 83.7793 98.2472 83.7576 98.0656 83.7848C97.884 83.812 97.713 83.8871 97.57 84.0024C97.2443 84.1906 97.0004 84.4936 96.886 84.852C96.8655 84.9351 96.8694 85.0224 96.8971 85.1035C96.9249 85.1845 96.9753 85.2558 97.0425 85.3089C97.1097 85.3621 97.1907 85.3947 97.276 85.4031C97.3612 85.4114 97.447 85.3951 97.5232 85.356Z" fill="#263238"/>
<path d="M105.135 82.5876C104.872 82.6474 104.607 82.6931 104.339 82.7244C104.067 82.8163 103.772 82.8163 103.5 82.7244C103.421 82.6777 103.36 82.606 103.326 82.5206C103.292 82.4352 103.288 82.341 103.313 82.2528C103.389 82.0856 103.508 81.9417 103.658 81.836C103.808 81.7303 103.984 81.6666 104.166 81.6515C104.532 81.5637 104.917 81.615 105.246 81.7956C105.315 81.8425 105.369 81.9077 105.403 81.9838C105.436 82.0599 105.448 82.1438 105.436 82.2262C105.425 82.3085 105.39 82.386 105.337 82.4498C105.284 82.5137 105.214 82.5614 105.135 82.5876Z" fill="#263238"/>
<path d="M104.781 85.9032C104.781 85.8744 104.85 85.9032 104.86 85.95C105.116 86.7024 105.534 87.5268 106.3 87.5232C106.326 87.5232 106.336 87.5592 106.3 87.5664C105.444 87.7572 104.9 86.6592 104.781 85.9032Z" fill="#263238"/>
<path d="M105.155 84.8772C106.322 84.3371 107.315 86.7096 106.235 87.21C105.155 87.7104 104.18 85.32 105.155 84.8772Z" fill="#263238"/>
<path d="M105.675 84.8088C105.938 84.8556 106.24 85.0068 106.499 84.9276C106.758 84.8484 106.917 84.4956 107.003 84.1788C107.003 84.1464 107.043 84.1572 107.057 84.1788C107.252 84.6288 107.273 85.1688 106.816 85.4388C106.359 85.7088 105.909 85.4172 105.603 85.0104C105.549 84.96 105.57 84.7872 105.675 84.8088Z" fill="#263238"/>
<path d="M100.037 87.48C100.019 87.4548 99.9938 87.5376 100.008 87.57C100.343 88.29 100.606 89.1756 100.048 89.7012C100.048 89.7192 100.048 89.7552 100.073 89.7408C100.833 89.28 100.469 88.1208 100.037 87.48Z" fill="#263238"/>
<path d="M99.058 87.0048C97.8412 87.4188 98.7556 89.82 99.8824 89.4384C101.009 89.0568 100.077 86.6592 99.058 87.0048Z" fill="#263238"/>
<path d="M98.6143 87.354C98.4739 87.552 98.3731 87.858 98.1535 87.9588C97.9339 88.0596 97.6027 87.8904 97.3399 87.7032C97.3147 87.6852 97.3039 87.7032 97.3147 87.7464C97.4767 88.2072 97.8115 88.6284 98.2831 88.5492C98.7547 88.47 98.8627 87.9696 98.7979 87.4692C98.7799 87.3792 98.6719 87.2748 98.6143 87.354Z" fill="#263238"/>
<path d="M106.772 91.692C106.679 91.944 106.617 92.2572 106.365 92.412C106.095 92.5344 105.802 92.597 105.505 92.5956C105.48 92.5956 105.465 92.6316 105.505 92.646C105.675 92.7389 105.867 92.7843 106.061 92.7773C106.255 92.7703 106.444 92.7113 106.607 92.6064C106.736 92.4993 106.83 92.356 106.877 92.1949C106.924 92.0338 106.921 91.8624 106.869 91.7028C106.848 91.6452 106.787 91.656 106.772 91.692Z" fill="#263238"/>
<path d="M102.607 90.27C102.607 90.27 102.899 91.4328 103.111 91.9548C103.129 92.0016 103.266 91.9764 103.446 91.9152C103.446 91.9152 103.446 91.9152 103.468 91.9152C103.946 91.8154 104.389 91.586 104.746 91.2521C105.103 90.9182 105.362 90.4925 105.494 90.0216C105.497 90.0085 105.495 89.9949 105.489 89.9832C105.482 89.9714 105.472 89.9622 105.46 89.9571C105.448 89.9521 105.434 89.9514 105.421 89.9553C105.408 89.9591 105.397 89.9673 105.39 89.9784C104.91 90.7003 104.209 91.2472 103.392 91.5372C103.298 91.4112 102.956 89.5284 102.87 89.5536C102.479 89.7534 102.116 90.0039 101.79 90.2988C101.11 87.8904 100.822 85.3956 100.109 83.0088C100.106 82.9887 100.096 82.9705 100.08 82.958C100.064 82.9455 100.044 82.9398 100.024 82.9422C100.004 82.9446 99.9858 82.9548 99.9734 82.9707C99.9609 82.9866 99.9552 83.0067 99.9576 83.0268C100.076 85.6656 100.8 88.4556 101.437 90.9468C101.52 91.2636 102.434 90.4428 102.607 90.27Z" fill="#263238"/>
<path d="M103.328 91.4976C103.775 91.8365 104.302 92.0535 104.858 92.1276C105.16 92.1573 105.465 92.0932 105.729 91.944C106.309 91.6092 106.165 91.0332 105.916 90.576C105.782 90.3341 105.619 90.1093 105.43 89.9064C104.917 90.6469 104.18 91.2043 103.328 91.4976Z" fill="#263238"/>
<path d="M104.858 92.1276C105.16 92.1573 105.464 92.0932 105.729 91.944C106.308 91.6092 106.164 91.0332 105.916 90.576C105.261 90.828 104.735 91.4616 104.858 92.1276Z" fill="#F392B9"/>
<path d="M116.108 82.4724C114.837 82.8972 110.232 80.7696 107.738 74.808C107.738 74.808 110.348 80.0064 111.071 80.6328C111.795 81.2592 108.49 79.434 106.409 74.6532C106.409 74.6532 104.501 77.6592 102.474 79.2108C100.448 80.7624 99.0365 81.3024 98.8061 81.2016C98.5757 81.1008 101.517 78.6996 102.006 77.2884C102.006 77.2884 97.0565 82.5444 94.3385 83.8764C94.0253 84.0312 90.9725 77.5188 94.1765 72.9576C97.3805 68.3964 105.462 68.7096 108.022 69.7536C108.022 69.7536 110.312 69.1992 113.948 71.4636C117.584 73.728 117.479 82.0188 116.108 82.4724Z" fill="#263238"/>
<path d="M114.672 83.808C114.672 83.808 115.619 79.4556 117.498 79.6572C119.377 79.8588 119.658 85.4784 118.135 86.8968C117.953 87.0918 117.734 87.2481 117.49 87.3562C117.246 87.4644 116.983 87.5223 116.717 87.5263C116.45 87.5303 116.186 87.4805 115.939 87.3797C115.692 87.279 115.468 87.1294 115.28 86.94L114.672 83.808Z" fill="#AD6359"/>
<path d="M117.537 81.27C117.562 81.27 117.588 81.2916 117.566 81.3132C116.522 82.35 116.346 83.7936 116.389 85.1976C116.569 84.5748 116.972 84.1176 117.782 84.2904C117.825 84.2904 117.814 84.366 117.782 84.3732C117.53 84.3924 117.29 84.4903 117.096 84.653C116.902 84.8158 116.765 85.0352 116.702 85.2804C116.598 85.6879 116.539 86.1056 116.526 86.526C116.526 86.6628 116.288 86.688 116.277 86.526C116.275 86.5152 116.275 86.5043 116.277 86.4936C115.575 84.9168 115.881 82.152 117.537 81.27Z" fill="#263238"/>
<path d="M150.292 159.458H143.132L126.014 96.8688C129.254 99.1224 133.826 103.68 139.118 112.903C152.862 136.858 150.292 159.458 150.292 159.458Z" fill="#263238"/>
<path d="M114.812 159.394H111.169C111.169 159.394 110.301 145.987 102.169 145.318C97.8779 144.958 93.9178 148.018 90.8398 151.438C93.889 147.974 99.2963 143.518 104.455 143.518C112.242 143.521 114.812 159.394 114.812 159.394Z" fill="#263238"/>
<path d="M90.7734 117.875L96.357 106.488L98.2506 109.044L93.459 117.875H90.7734Z" fill="#263238"/>
<path d="M98.6378 107.227L92.2656 119.308L95.1632 120.837L101.535 108.756L98.6378 107.227Z" fill="#455A64"/>
<path d="M95.166 120.848L96.9012 120.377L102.15 110.66L101.538 108.77L95.166 120.848Z" fill="#37474F"/>
<path d="M81.3166 119.192L80.9053 119.009C80.4236 118.796 79.86 119.013 79.6464 119.495L76.9139 125.655C76.7003 126.137 76.9175 126.7 77.3992 126.914L77.8105 127.096C78.2921 127.31 78.8558 127.093 79.0694 126.611L81.8019 120.451C82.0155 119.969 81.7982 119.406 81.3166 119.192Z" fill="#37474F"/>
<path d="M87.9572 123.18L87.5459 122.998C87.0643 122.784 86.5006 123.002 86.287 123.483L83.5545 129.644C83.3409 130.125 83.5582 130.689 84.0398 130.903L84.4511 131.085C84.9328 131.299 85.4964 131.081 85.71 130.6L88.4425 124.439C88.6561 123.958 88.4389 123.394 87.9572 123.18Z" fill="#37474F"/>
<path d="M84.4148 121.813L83.783 121.533C83.1305 121.244 82.367 121.538 82.0775 122.191L78.6094 130.01C78.32 130.662 78.6143 131.426 79.2668 131.715L79.8986 131.995C80.5511 132.285 81.3146 131.99 81.604 131.338L85.0722 123.519C85.3616 122.866 85.0673 122.103 84.4148 121.813Z" fill="#37474F"/>
<path d="M97.0945 88.6658L96.4626 88.3856C95.8102 88.0962 95.0466 88.3905 94.7572 89.043L91.2891 96.8619C90.9997 97.5144 91.294 98.2779 91.9465 98.5673L92.5783 98.8476C93.2308 99.137 93.9943 98.8427 94.2837 98.1902L97.7519 90.3713C98.0413 89.7188 97.747 88.9553 97.0945 88.6658Z" fill="#37474F"/>
<path d="M101.991 90.8437L101.359 90.5634C100.707 90.274 99.9431 90.5684 99.6537 91.2208L96.1856 99.0398C95.8962 99.6922 96.1905 100.456 96.843 100.745L97.4748 101.025C98.1273 101.315 98.8908 101.021 99.1802 100.368L102.648 92.5491C102.938 91.8966 102.643 91.1331 101.991 90.8437Z" fill="#37474F"/>
<path d="M79.6289 119.304L91.3577 94.8852C91.3577 94.8852 94.7057 95.0004 100.502 99.0216L88.0457 123.383C84.9937 122.605 82.1307 121.217 79.6289 119.304Z" fill="#37474F"/>
<path d="M90.3775 125.42C90.3775 125.42 79.3399 122.162 76.2871 119.16L77.2555 117C82.4186 117.81 87.2772 119.965 91.3423 123.25L90.3775 125.42Z" fill="#455A64"/>
<path d="M100.941 99.72C100.941 99.72 96.5672 95.9904 90.6309 94.8708L91.6461 92.7108C97.9208 92.6028 101.956 97.56 101.956 97.56L100.941 99.72Z" fill="#455A64"/>
<path d="M92.7792 114.404C92.7792 114.404 87.9444 111.204 83.7792 110.171C83.7199 110.147 83.6662 110.112 83.6217 110.066C83.5773 110.02 83.543 109.966 83.5212 109.906C83.4995 109.846 83.4906 109.782 83.4954 109.719C83.5001 109.655 83.5183 109.593 83.5488 109.537L84.6864 107.122C84.7466 107.013 84.8438 106.931 84.9602 106.888C85.0766 106.846 85.2043 106.847 85.32 106.891C90.9288 108.313 94.32 111.125 94.32 111.125C94.4342 111.179 94.5225 111.275 94.5656 111.394C94.6088 111.513 94.6033 111.644 94.5504 111.758L93.4128 114.174C93.3589 114.288 93.2621 114.376 93.1434 114.42C93.0247 114.463 92.8938 114.457 92.7792 114.404Z" fill="#455A64"/>
<path d="M100.58 111.427L101.455 111.038C101.455 111.038 113.652 116.438 113.018 130.99C112.6 140.623 105.573 147.28 105.573 147.28C105.573 147.28 114.12 136.253 110.923 126.04C107.726 115.826 100.58 111.427 100.58 111.427Z" fill="#455A64"/>
<path d="M112.022 131.99C111.32 140.875 105.56 147.28 105.56 147.28H96.8154C92.8086 142.006 86.4258 138.924 86.4258 138.924L93.417 140.148L94.0398 139.828L95.2674 139.198C95.2674 139.198 97.0386 141.908 99.7026 141.847C100.248 141.832 100.785 141.71 101.283 141.487C104.393 140.141 105.963 131.879 104.523 126.943C103.083 122.008 96.6894 118.958 96.6894 118.958L100.581 111.427C107.529 114.548 112.72 123.12 112.022 131.99Z" fill="#37474F"/>
<path d="M99.7054 141.84C99.7054 141.84 97.4158 142.618 94.0391 139.817L95.2667 139.187C95.2667 139.187 97.0379 141.898 99.7018 141.836L99.7054 141.84Z" fill="#455A64"/>
<path d="M111.167 159.394H85.0996C85.7512 158.375 86.8816 156.542 88.3756 154.526L88.4728 154.397C88.5124 154.343 88.552 154.292 88.588 154.238C88.6149 154.206 88.6402 154.172 88.6636 154.138L88.8904 153.842L88.9552 153.76C89.0344 153.659 89.1136 153.551 89.1964 153.45C89.3296 153.281 89.4736 153.09 89.6356 152.903L89.974 152.492C90.154 152.276 90.334 152.053 90.5464 151.819C90.6508 151.697 90.7552 151.578 90.8704 151.459C93.9484 148.025 97.9084 144.979 102.2 145.339C110.3 145.987 111.167 159.394 111.167 159.394Z" fill="#455A64"/>
<path d="M92.574 137.026L66.9375 134.886L66.6666 138.133L92.3031 140.272L92.574 137.026Z" fill="#263238"/>
<path d="M98.2608 137.505L92.5781 137.031L92.3072 140.278L97.9898 140.752L98.2608 137.505Z" fill="#37474F"/>
<path d="M89.3527 158.126C89.8398 158.126 90.2347 157.731 90.2347 157.244C90.2347 156.757 89.8398 156.362 89.3527 156.362C88.8656 156.362 88.4707 156.757 88.4707 157.244C88.4707 157.731 88.8656 158.126 89.3527 158.126Z" fill="#263238"/>
<path d="M108.565 157.244C108.565 157.419 108.513 157.589 108.416 157.734C108.319 157.879 108.181 157.992 108.02 158.059C107.859 158.126 107.682 158.143 107.511 158.109C107.34 158.075 107.182 157.991 107.059 157.868C106.936 157.745 106.852 157.588 106.818 157.416C106.784 157.245 106.801 157.068 106.868 156.907C106.935 156.746 107.048 156.608 107.193 156.511C107.338 156.414 107.508 156.362 107.683 156.362C107.917 156.362 108.141 156.455 108.306 156.621C108.472 156.786 108.565 157.01 108.565 157.244Z" fill="#263238"/>
<path d="M101.3 148.165C101.3 148.34 101.249 148.512 101.151 148.657C101.054 148.803 100.916 148.916 100.754 148.983C100.592 149.05 100.414 149.068 100.242 149.034C100.07 149 99.9125 148.915 99.7887 148.791C99.6648 148.668 99.5805 148.51 99.5463 148.338C99.5121 148.166 99.5297 147.988 99.5967 147.826C99.6637 147.664 99.7773 147.526 99.9229 147.429C100.069 147.331 100.24 147.28 100.415 147.28C100.65 147.28 100.875 147.373 101.041 147.539C101.207 147.705 101.3 147.93 101.3 148.165Z" fill="#263238"/>
<path d="M93.6281 101.678C94.1152 101.678 94.5101 101.283 94.5101 100.796C94.5101 100.309 94.1152 99.9144 93.6281 99.9144C93.141 99.9144 92.7461 100.309 92.7461 100.796C92.7461 101.283 93.141 101.678 93.6281 101.678Z" fill="#263238"/>
<path d="M86.8728 117C86.8735 117.175 86.822 117.347 86.725 117.493C86.628 117.64 86.4897 117.754 86.3277 117.821C86.1658 117.889 85.9874 117.906 85.8153 117.872C85.6431 117.838 85.485 117.754 85.3609 117.63C85.2369 117.506 85.1525 117.348 85.1184 117.175C85.0843 117.003 85.1022 116.825 85.1697 116.663C85.2371 116.501 85.3512 116.363 85.4974 116.266C85.6436 116.169 85.8153 116.117 85.9908 116.118C86.2247 116.118 86.449 116.211 86.6144 116.376C86.7798 116.542 86.8728 116.766 86.8728 117Z" fill="#263238"/>
<path d="M102.15 118.184C102.637 118.184 103.032 117.79 103.032 117.302C103.032 116.815 102.637 116.42 102.15 116.42C101.662 116.42 101.268 116.815 101.268 117.302C101.268 117.79 101.662 118.184 102.15 118.184Z" fill="#263238"/>
<path d="M95.548 143.694C96.0351 143.694 96.43 143.299 96.43 142.812C96.43 142.325 96.0351 141.93 95.548 141.93C95.0609 141.93 94.666 142.325 94.666 142.812C94.666 143.299 95.0609 143.694 95.548 143.694Z" fill="#263238"/>
<path d="M133.34 101.52C150.476 114.275 167.9 143.946 161.42 148.136C155.524 151.963 134.906 152.957 126.263 152.417C123.725 152.258 125.356 132.52 128.063 132.685C131.342 132.887 139.601 132.646 139.921 132.566C140.609 132.397 129.002 111.553 125.23 103.856C119.995 93.132 126.9 96.7356 133.34 101.52Z" fill="#AD6359"/>
<path d="M102.215 132.707C101.394 134.647 103.057 136.062 103.057 136.062C102.196 136.671 101.575 137.563 101.304 138.582C100.908 140.382 103.572 141.804 103.572 141.804C102.808 142.617 102.306 143.64 102.132 144.742C101.927 146.513 104.411 148.342 104.411 148.342C104.122 149.472 104.25 150.668 104.771 151.711C106.286 154.444 111.045 154.688 114.073 154.876C117.101 155.063 125.852 152.762 127.566 152.492L128.934 133.088C128.934 133.088 115.614 128.387 112.014 128.671C109.026 128.88 103.136 130.525 102.215 132.707Z" fill="#AD6359"/>
<path d="M103.213 135.76C106.366 134.734 109.649 134.68 112.933 134.471C112.945 134.474 112.956 134.481 112.964 134.491C112.972 134.501 112.976 134.514 112.976 134.527C112.976 134.539 112.972 134.552 112.964 134.562C112.956 134.572 112.945 134.579 112.933 134.582C109.671 134.77 106.489 135.601 103.241 135.914C103.222 135.916 103.203 135.91 103.187 135.898C103.172 135.886 103.161 135.869 103.158 135.85C103.154 135.831 103.158 135.811 103.168 135.794C103.178 135.778 103.194 135.765 103.213 135.76Z" fill="#263238"/>
<path d="M103.652 141.541C104.392 141.378 105.149 141.311 105.906 141.343C106.705 141.329 107.505 141.329 108.307 141.343C109.909 141.368 111.515 141.426 113.113 141.534C113.185 141.534 113.196 141.649 113.113 141.649C111.515 141.628 109.916 141.649 108.318 141.678C107.519 141.7 106.719 141.732 105.92 141.768C105.169 141.851 104.411 141.851 103.659 141.768C103.633 141.764 103.608 141.751 103.59 141.731C103.572 141.711 103.561 141.685 103.561 141.658C103.56 141.631 103.568 141.604 103.585 141.583C103.602 141.561 103.626 141.547 103.652 141.541Z" fill="#263238"/>
<path d="M104.493 148.32C105.109 148.115 105.886 148.23 106.527 148.252L108.719 148.316C110.181 148.352 111.643 148.388 113.101 148.37C113.176 148.37 113.183 148.486 113.101 148.486C111.617 148.507 110.134 148.554 108.647 148.561C107.927 148.561 107.189 148.561 106.462 148.561C105.839 148.561 105.065 148.626 104.479 148.392C104.473 148.387 104.469 148.381 104.467 148.374C104.465 148.367 104.464 148.359 104.466 148.352C104.467 148.345 104.47 148.338 104.475 148.332C104.48 148.327 104.486 148.323 104.493 148.32Z" fill="#263238"/>
<path d="M139.1 132.088C139.946 131.069 128.16 111.596 124.43 102.928C120.701 94.2588 123.304 94.1328 132.098 100.256C140.893 106.38 156.578 122.936 162.338 140.26C164.138 145.66 165.964 149.447 153.068 151.452C139.82 153.5 130.406 153.36 130.406 153.36L129.686 132.541C129.686 132.541 138.848 132.383 139.1 132.088Z" fill="#EBEBEB"/>
<path d="M134.913 152.413C135.162 144.086 134.161 135.295 134.096 133.747C134.096 133.675 133.974 133.69 133.981 133.747C134.125 135.259 134.182 145.429 134.791 152.413C134.798 152.51 134.913 152.492 134.913 152.413Z" fill="#263238"/>
<path d="M149.145 131.976C148.308 131.888 147.466 131.862 146.625 131.897C145.847 131.897 145.066 131.897 144.289 131.879H143.281L143.371 131.854L144.652 131.436C145.077 131.296 145.495 131.123 145.93 131.011C146.002 130.993 145.977 130.878 145.909 130.9C145.48 131.033 145.041 131.105 144.605 131.209C144.17 131.314 143.705 131.429 143.255 131.544C142.863 131.641 142.474 131.764 142.082 131.879C141.333 131.879 140.581 131.879 139.828 131.915C139.259 130.529 138.503 129.19 137.819 127.858C137.099 126.463 136.364 125.08 135.613 123.707C134.861 122.334 134.091 121.001 133.301 119.707C132.902 119.048 132.265 118.048 131.861 117.392C131.458 116.737 131.595 117.18 131.966 117.9C132.337 118.62 132.661 119.268 133.006 119.956C133.702 121.324 134.403 122.692 135.109 124.06C135.829 125.424 136.523 126.788 137.225 128.156C137.87 129.406 138.464 130.709 139.159 131.933C137.625 131.99 136.095 132.077 134.561 132.156C133.777 132.192 132.995 132.239 132.214 132.286C131.375 132.332 130.515 132.484 129.694 132.48C129.619 132.48 129.611 132.599 129.694 132.592C130.519 132.545 131.379 132.649 132.214 132.653C133.049 132.656 133.773 132.653 134.551 132.653C136.203 132.653 137.852 132.653 139.501 132.624C141.149 132.595 142.741 132.494 144.368 132.404C145.181 132.358 145.995 132.3 146.809 132.257C147.6 132.244 148.389 132.176 149.17 132.052C149.18 132.048 149.188 132.041 149.193 132.032C149.198 132.022 149.199 132.011 149.195 132.001C149.192 131.991 149.185 131.983 149.175 131.978C149.166 131.973 149.155 131.973 149.145 131.976Z" fill="#263238"/>
<path d="M156.086 150.926C149.109 151.888 136.477 153.108 130.562 153.338C130.554 153.336 130.545 153.336 130.536 153.338C130.528 153.34 130.519 153.343 130.513 153.349C130.506 153.354 130.5 153.361 130.496 153.369C130.492 153.377 130.49 153.385 130.49 153.394C130.49 153.403 130.492 153.412 130.496 153.42C130.5 153.427 130.506 153.434 130.513 153.44C130.519 153.445 130.528 153.449 130.536 153.451C130.545 153.452 130.554 153.452 130.562 153.45C139.143 153.787 147.733 153.029 156.122 151.193C156.152 151.183 156.178 151.162 156.195 151.135C156.212 151.108 156.219 151.076 156.214 151.045C156.21 151.013 156.195 150.984 156.172 150.962C156.148 150.941 156.118 150.928 156.086 150.926Z" fill="#263238"/>
</svg>
