<svg width="144" height="115" viewBox="0 0 144 115" fill="none" xmlns="http://www.w3.org/2000/svg">
<g clip-path="url(#clip0)">
<path d="M107.419 113.618C105.425 111.926 104.215 109.252 104.532 106.648C104.85 104.045 106.816 101.652 109.367 101.099C111.918 100.547 114.826 102.077 115.601 104.581C116.027 99.7528 116.518 94.7221 119.073 90.6103C121.385 86.8871 125.391 84.2231 129.732 83.7465C134.074 83.2699 138.645 85.0699 141.352 88.5138C144.06 91.9576 144.722 96.9642 142.826 100.918C141.429 103.831 138.856 105.998 136.159 107.762C127.446 113.412 116.995 115.71 106.73 114.232" fill="#F2F2F2"/>
<path d="M137.059 85.1695C133.477 88.1019 130.191 91.3816 127.248 94.9611C122.642 100.544 118.916 106.803 116.197 113.521C115.998 114.011 116.79 114.224 116.987 113.74C121.434 102.822 128.535 93.1991 137.638 85.7514C138.047 85.4169 137.464 84.8377 137.059 85.1695Z" fill="white"/>
<path d="M35.2063 114.777H23.9021C23.5202 114.777 23.154 114.624 22.8839 114.352C22.6138 114.081 22.4619 113.713 22.4614 113.329V89.7156C22.4619 89.3317 22.6138 88.9636 22.8839 88.6922C23.154 88.4207 23.5202 88.268 23.9021 88.2676H35.2063C35.5882 88.268 35.9544 88.4207 36.2245 88.6922C36.4946 88.9636 36.6465 89.3317 36.647 89.7156V113.329C36.6465 113.713 36.4946 114.081 36.2245 114.352C35.9544 114.624 35.5882 114.777 35.2063 114.777Z" fill="#6F6C93"/>
<path d="M62.0258 115H50.7217C50.281 115 49.8584 114.824 49.5468 114.51C49.2351 114.197 49.0598 113.773 49.0593 113.33V67.4393C49.0598 66.9964 49.2351 66.5717 49.5468 66.2585C49.8584 65.9452 50.281 65.769 50.7217 65.7686H62.0258C62.4665 65.769 62.8891 65.9452 63.2007 66.2585C63.5124 66.5717 63.6877 66.9964 63.6882 67.4393V113.33C63.6877 113.773 63.5124 114.197 63.2007 114.51C62.8891 114.824 62.4665 115 62.0258 115ZM50.7217 66.2141C50.3985 66.2145 50.0886 66.3437 49.8601 66.5734C49.6315 66.8031 49.503 67.1145 49.5026 67.4393V113.33C49.503 113.654 49.6315 113.966 49.8601 114.196C50.0886 114.425 50.3985 114.554 50.7217 114.555H62.0258C62.349 114.554 62.6589 114.425 62.8874 114.196C63.1159 113.966 63.2445 113.654 63.2449 113.33V67.4393C63.2445 67.1145 63.1159 66.8031 62.8874 66.5734C62.6589 66.3437 62.349 66.2145 62.0258 66.2141H50.7217Z" fill="#3F3D56"/>
<path d="M88.8454 115H77.5413C77.1005 115 76.678 114.824 76.3663 114.51C76.0547 114.197 75.8794 113.773 75.8789 113.33V38.2567C75.8794 37.8137 76.0547 37.3891 76.3663 37.0758C76.678 36.7626 77.1005 36.5864 77.5413 36.5859H88.8454C89.2861 36.5864 89.7087 36.7626 90.0203 37.0758C90.332 37.3891 90.5073 37.8137 90.5078 38.2567V113.33C90.5073 113.773 90.332 114.197 90.0203 114.51C89.7087 114.824 89.2861 115 88.8454 115ZM77.5413 37.0315C77.2181 37.0318 76.9082 37.161 76.6797 37.3907C76.4511 37.6204 76.3226 37.9319 76.3222 38.2567V113.33C76.3226 113.654 76.4511 113.966 76.6797 114.196C76.9082 114.425 77.2181 114.554 77.5413 114.555H88.8454C89.1686 114.554 89.4785 114.425 89.707 114.196C89.9355 113.966 90.0641 113.654 90.0645 113.33V38.2567C90.0641 37.9319 89.9355 37.6204 89.707 37.3907C89.4785 37.161 89.1686 37.0318 88.8454 37.0315H77.5413Z" fill="#3F3D56"/>
<path d="M115.915 114.889H104.611C104.229 114.888 103.863 114.735 103.593 114.464C103.323 114.193 103.171 113.825 103.17 113.441V7.62573C103.171 7.24183 103.323 6.87379 103.593 6.60233C103.863 6.33088 104.229 6.17818 104.611 6.17773H115.915C116.297 6.17818 116.663 6.33088 116.933 6.60233C117.204 6.87379 117.355 7.24183 117.356 7.62573V113.441C117.355 113.825 117.204 114.193 116.933 114.464C116.663 114.735 116.297 114.888 115.915 114.889Z" fill="#6F6C93"/>
</g>
<defs>
<clipPath id="clip0">
<rect width="144" height="115" fill="white"/>
</clipPath>
</defs>
</svg>
