<svg width="232" height="232" viewBox="0 0 232 232" fill="none" xmlns="http://www.w3.org/2000/svg">
<path opacity="0.5" d="M219.532 59.9805H113.123V131.037H219.532V59.9805Z" stroke="black" stroke-miterlimit="10"/>
<path opacity="0.5" d="M218.108 60.9375H114.552V130.087H218.108V60.9375Z" stroke="black" stroke-miterlimit="10"/>
<path opacity="0.3" d="M127.085 71.2931C127.085 71.2931 128.222 77.4133 128.222 79.2275V85.5704C128.222 85.5704 132.755 85.7977 136.379 85.5704C140.003 85.343 144.313 83.0787 144.313 83.0787C144.313 83.0787 142.726 76.9586 142.726 75.3717C142.726 73.7848 141.798 69.9336 141.798 69.9336L127.085 71.2931Z" fill="white" stroke="black" stroke-miterlimit="10"/>
<path opacity="0.3" d="M127.54 109.375C127.54 109.375 126.862 114.586 126.862 116.855C126.862 119.124 125.726 122.747 125.726 122.747C125.726 122.747 131.168 124.789 132.528 124.789C133.887 124.789 139.78 124.325 139.78 124.325L140.685 110.953C140.685 110.953 129.354 109.83 127.54 109.375Z" fill="white" stroke="black" stroke-miterlimit="10"/>
<path opacity="0.3" d="M152.702 81.2637L155.44 93.7267C155.44 93.7267 158.841 93.9541 162.465 93.9541C166.089 93.9541 172.209 90.553 172.209 90.553C172.209 90.553 169.263 84.6602 169.263 83.0733C169.263 81.4864 168.335 76.9531 168.335 76.9531C168.335 76.9531 159.055 79.8995 157.663 80.1269C156.271 80.3542 152.702 81.2637 152.702 81.2637Z" fill="white" stroke="black" stroke-miterlimit="10"/>
<path opacity="0.3" d="M173.1 77.8672C173.1 77.8672 172.422 86.0243 172.422 86.9337C172.422 87.8432 172.195 91.467 172.195 91.467C174.523 91.8206 176.868 92.0467 179.22 92.1445C181.716 92.1445 186.022 91.9171 186.022 91.9171C186.022 91.9171 185.795 83.9873 186.25 83.3053C186.704 82.6232 186.927 78.9993 186.927 78.9993C186.927 78.9993 174 78.0899 173.1 77.8672Z" fill="white" stroke="black" stroke-miterlimit="10"/>
<path opacity="0.3" d="M178.088 95.9993V101.437C178.088 102.342 177.624 108.917 177.624 108.917C177.624 108.917 183.517 109.144 185.786 108.917C188.055 108.69 192.583 107.33 192.583 107.33L191.906 100.078L191.442 95.0898C191.442 95.0898 180.58 96.6767 178.088 95.9993Z" fill="white" stroke="black" stroke-miterlimit="10"/>
<path opacity="0.3" d="M212.317 65.4235L207.102 65.6508H204.383V69.502C204.383 70.6342 204.156 74.2627 204.156 74.9401C204.156 75.6175 207.784 76.0769 209.371 76.0769H215.036L215.264 64.9688L212.317 65.4235Z" fill="white" stroke="black" stroke-miterlimit="10"/>
<g opacity="0.5">
<path opacity="0.5" d="M199.167 89.8789H208.916" stroke="black" stroke-miterlimit="10"/>
<path opacity="0.5" d="M199.167 92.1445H208.916" stroke="black" stroke-miterlimit="10"/>
<path opacity="0.5" d="M199.167 94.4141H208.916" stroke="black" stroke-miterlimit="10"/>
<path opacity="0.5" d="M199.167 96.6758H208.916" stroke="black" stroke-miterlimit="10"/>
</g>
<g opacity="0.5">
<path opacity="0.5" d="M148.847 64.0391H181.034" stroke="black" stroke-miterlimit="10"/>
<path opacity="0.5" d="M148.847 66.3047H181.034" stroke="black" stroke-miterlimit="10"/>
</g>
<g opacity="0.5">
<path opacity="0.5" d="M181.716 113.453H191.46" stroke="black" stroke-miterlimit="10"/>
<path opacity="0.5" d="M181.716 115.723H191.46" stroke="black" stroke-miterlimit="10"/>
<path opacity="0.5" d="M181.716 117.988H191.46" stroke="black" stroke-miterlimit="10"/>
<path opacity="0.5" d="M181.716 120.254H191.46" stroke="black" stroke-miterlimit="10"/>
</g>
<g opacity="0.5">
<path opacity="0.5" d="M121.192 98.4922H130.941" stroke="black" stroke-miterlimit="10"/>
<path opacity="0.5" d="M121.192 100.762H130.941" stroke="black" stroke-miterlimit="10"/>
<path opacity="0.5" d="M121.192 103.027H130.941" stroke="black" stroke-miterlimit="10"/>
<path opacity="0.5" d="M121.192 105.293H130.941" stroke="black" stroke-miterlimit="10"/>
</g>
<g opacity="0.5">
<path opacity="0.5" d="M189.874 69.9336H199.622" stroke="black" stroke-miterlimit="10"/>
<path opacity="0.5" d="M189.874 72.1992H199.622" stroke="black" stroke-miterlimit="10"/>
<path opacity="0.5" d="M189.874 74.4688H199.622" stroke="black" stroke-miterlimit="10"/>
<path opacity="0.5" d="M189.874 76.7305H199.622" stroke="black" stroke-miterlimit="10"/>
</g>
<path opacity="0.5" d="M154.187 91.5786L148.596 93.1748L150.035 94.4183C147.422 96.1397 141.887 99.0861 138.263 96.0933C133.405 92.0797 134.713 88.6137 134.769 88.4652L134.342 88.2935L133.911 88.1172C133.841 88.2842 132.259 92.3349 137.674 96.8079C138.907 97.8216 140.462 98.3598 142.058 98.3252C145.441 98.3252 148.93 96.3114 150.772 95.0772L152.591 96.6501L154.187 91.5786Z" fill="black"/>
<path opacity="0.5" d="M210.614 82.0386L209 76.6562L206.039 80.9622L207.682 81.3473L205.974 87.486L206.87 87.7366L208.587 81.5607L210.614 82.0386Z" fill="black"/>
<path opacity="0.3" d="M136.379 71.9679C136.383 71.6981 136.306 71.4332 136.159 71.2071C136.011 70.981 135.8 70.8039 135.552 70.6983C135.303 70.5927 135.029 70.5634 134.764 70.6141C134.499 70.6648 134.255 70.7932 134.063 70.9831C133.872 71.1729 133.741 71.4156 133.687 71.6801C133.634 71.9446 133.66 72.219 133.763 72.4685C133.866 72.7179 134.041 72.931 134.266 73.0807C134.49 73.2303 134.754 73.3098 135.024 73.3089C135.381 73.3077 135.723 73.1665 135.976 72.9156C136.229 72.6648 136.374 72.3245 136.379 71.9679Z" fill="white" stroke="black" stroke-miterlimit="10"/>
<path opacity="0.3" d="M161.314 80.5861C161.314 80.3172 161.235 80.0543 161.085 79.8308C160.936 79.6072 160.723 79.4329 160.475 79.3301C160.227 79.2272 159.953 79.2002 159.69 79.2527C159.426 79.3051 159.184 79.4346 158.993 79.6248C158.803 79.8149 158.674 80.0571 158.621 80.3209C158.569 80.5846 158.596 80.8579 158.699 81.1064C158.802 81.3548 158.976 81.5671 159.199 81.7165C159.423 81.8659 159.686 81.9456 159.955 81.9456C160.315 81.9456 160.661 81.8024 160.916 81.5474C161.171 81.2924 161.314 80.9466 161.314 80.5861Z" fill="#C2C7D6" stroke="black" stroke-miterlimit="10"/>
<path opacity="0.3" d="M180.58 79.9065C181.331 79.9065 181.939 79.2979 181.939 78.547C181.939 77.7962 181.331 77.1875 180.58 77.1875C179.829 77.1875 179.22 77.7962 179.22 78.547C179.22 79.2979 179.829 79.9065 180.58 79.9065Z" fill="white" stroke="black" stroke-miterlimit="10"/>
<path opacity="0.3" d="M185.113 98.719C185.864 98.719 186.472 98.1104 186.472 97.3595C186.472 96.6087 185.864 96 185.113 96C184.362 96 183.753 96.6087 183.753 97.3595C183.753 98.1104 184.362 98.719 185.113 98.719Z" fill="white" stroke="black" stroke-miterlimit="10"/>
<path opacity="0.3" d="M136.379 111.865C136.381 111.595 136.302 111.331 136.154 111.107C136.006 110.882 135.794 110.706 135.545 110.602C135.297 110.498 135.023 110.47 134.758 110.521C134.494 110.573 134.251 110.702 134.06 110.893C133.869 111.083 133.739 111.326 133.686 111.59C133.633 111.854 133.661 112.128 133.764 112.377C133.867 112.626 134.042 112.838 134.267 112.988C134.491 113.137 134.755 113.216 135.024 113.215C135.382 113.214 135.725 113.071 135.979 112.819C136.233 112.566 136.376 112.223 136.379 111.865Z" fill="#C2C7D6" stroke="black" stroke-miterlimit="10"/>
<path opacity="0.3" d="M211.18 65.422C211.18 65.1531 211.101 64.8903 210.951 64.6667C210.802 64.4431 210.59 64.2689 210.341 64.166C210.093 64.0631 209.819 64.0362 209.556 64.0886C209.292 64.1411 209.05 64.2706 208.86 64.4607C208.669 64.6508 208.54 64.8931 208.488 65.1568C208.435 65.4205 208.462 65.6939 208.565 65.9423C208.668 66.1907 208.842 66.403 209.066 66.5524C209.289 66.7018 209.552 66.7815 209.821 66.7815C210.182 66.7815 210.527 66.6383 210.782 66.3833C211.037 66.1284 211.18 65.7826 211.18 65.422Z" fill="#C2C7D6" stroke="black" stroke-miterlimit="10"/>
<path d="M167.142 189.674V188.24L168.246 188.008L167.142 187.73V187.336L168.14 186.872L167.142 186.575V180.682H165.926V179.471L166.488 179.424L165.926 179.16V178.696L167.318 178.9L166.39 177.763L165.926 177.081V176.821L167.416 176.728C167.416 176.728 166.571 176.213 165.926 175.749V170.84H167.416C167.416 170.84 166.595 170.451 165.926 170.116V168.293H131.911V171.267L130.384 171.875L131.897 172.548V172.896C131.433 173.165 130.63 173.652 130.505 173.944C130.3 174.357 129.883 175.285 129.883 175.285C129.883 175.285 130.918 175.081 131.228 174.975C131.461 174.928 131.702 174.959 131.915 175.063V175.118L130.709 176.32L131.911 176.849V180.928H134.583V181.211C134.391 181.257 134.202 181.316 134.017 181.387C133.409 181.694 132.822 182.04 132.259 182.422L133.808 182.32L133.084 183.456L134.583 183.549V189.187H131.182V191.238C130.939 191.288 130.707 191.384 130.5 191.521C130.258 191.696 130.036 191.897 129.836 192.119C129.372 192.616 128.95 193.177 128.95 193.177L130.709 192.658L129.781 193.901L130.505 194.105L129.883 195.033L131.187 195.126V197.2H165.184V195.808L166.372 195.855L165.954 195.65L166.989 195.34L165.954 194.305L165.648 193.066L165.184 192.987V189.665L167.142 189.674Z" fill="#B5B5B5"/>
<path d="M133.395 171.465H154.076" stroke="#263238" stroke-miterlimit="10"/>
<path d="M133.604 173.223H145.39" stroke="#263238" stroke-miterlimit="10"/>
<path d="M163.18 175.703H142.494" stroke="#263238" stroke-miterlimit="10"/>
<path d="M135.567 180.977H163.49" stroke="#263238" stroke-miterlimit="10"/>
<path d="M135.052 177.359H155.319" stroke="#263238" stroke-miterlimit="10"/>
<path d="M164.005 183.047H149.116" stroke="#263238" stroke-miterlimit="10"/>
<path d="M163.384 185.84H136.086" stroke="#263238" stroke-miterlimit="10"/>
<path d="M141.46 188.215H157.593" stroke="#263238" stroke-miterlimit="10"/>
<path d="M164.214 189.66H137.325" stroke="#263238" stroke-miterlimit="10"/>
<path d="M133.293 193.488H152.735" stroke="#263238" stroke-miterlimit="10"/>
<path d="M150.874 191.523H136.602" stroke="#263238" stroke-miterlimit="10"/>
<path d="M138.773 194.625H159.454" stroke="#263238" stroke-miterlimit="10"/>
<path d="M162.558 191.32H156.971" stroke="#263238" stroke-miterlimit="10"/>
<path d="M176.422 160.737V159.303L177.526 159.071L176.422 158.792V158.398L177.42 157.934L176.422 157.632V151.73H175.206V150.519L175.768 150.473L175.206 150.208V149.744L176.598 149.953L175.67 148.812L175.206 148.13V147.875L176.696 147.782C176.696 147.782 175.851 147.262 175.206 146.798V141.903H176.696C176.696 141.903 175.875 141.513 175.206 141.184V139.355H141.191V142.334L139.678 142.938L141.191 143.61V143.958C140.727 144.227 139.924 144.719 139.799 145.007C139.594 145.42 139.177 146.353 139.177 146.353C139.177 146.353 140.212 146.144 140.522 146.042C140.754 145.991 140.996 146.021 141.209 146.125V146.162L140.007 147.364L141.209 147.893V151.972H143.882V152.259C143.689 152.303 143.5 152.362 143.316 152.436C142.707 152.74 142.12 153.084 141.557 153.466L143.107 153.364L142.364 154.514L143.863 154.607V160.245H140.462V162.3C140.218 162.348 139.986 162.444 139.78 162.583C139.539 162.758 139.317 162.957 139.116 163.177C138.652 163.674 138.23 164.235 138.23 164.235L139.989 163.72L139.061 164.959L139.785 165.168L139.163 166.096L140.467 166.189V168.263H174.464V166.871L175.652 166.922L175.234 166.713L176.269 166.402L175.234 165.367L174.928 164.128L174.464 164.05V160.727L176.422 160.737Z" fill="#B5B5B5"/>
<path d="M142.675 142.527H163.356" stroke="#263238" stroke-miterlimit="10"/>
<path d="M142.884 144.281H154.67" stroke="#263238" stroke-miterlimit="10"/>
<path d="M172.46 146.766H151.774" stroke="#263238" stroke-miterlimit="10"/>
<path d="M144.847 152.039H172.77" stroke="#263238" stroke-miterlimit="10"/>
<path d="M144.332 148.418H164.599" stroke="#263238" stroke-miterlimit="10"/>
<path d="M173.286 154.105H158.396" stroke="#263238" stroke-miterlimit="10"/>
<path d="M172.664 156.898H145.366" stroke="#263238" stroke-miterlimit="10"/>
<path d="M150.74 159.273H166.873" stroke="#263238" stroke-miterlimit="10"/>
<path d="M173.494 160.723H146.605" stroke="#263238" stroke-miterlimit="10"/>
<path d="M142.573 164.551H162.015" stroke="#263238" stroke-miterlimit="10"/>
<path d="M160.154 162.586H145.882" stroke="#263238" stroke-miterlimit="10"/>
<path d="M148.053 165.688H168.734" stroke="#263238" stroke-miterlimit="10"/>
<path d="M171.838 162.379H166.251" stroke="#263238" stroke-miterlimit="10"/>
<path d="M198.198 189.674V188.24L199.302 188.008L198.198 187.73V187.336L199.2 186.872L198.198 186.575V180.682H196.982V179.471L197.543 179.424L196.982 179.16V178.696L198.374 178.9L197.446 177.763L196.982 177.081V176.821L198.476 176.728C198.476 176.728 197.632 176.213 196.982 175.749V170.84H198.476C198.476 170.84 197.65 170.451 196.982 170.116V168.293H162.966V171.267L161.472 171.875L162.985 172.548V172.896C162.521 173.165 161.723 173.652 161.593 173.944C161.389 174.357 160.976 175.285 160.976 175.285C160.976 175.285 162.01 175.081 162.317 174.975C162.549 174.928 162.79 174.959 163.003 175.063V175.118L161.764 176.32L162.966 176.849V180.928H165.648V181.211C165.456 181.258 165.267 181.316 165.082 181.387C164.475 181.695 163.888 182.041 163.323 182.422L164.878 182.32L164.154 183.456L165.648 183.549V189.187H162.247V191.238C162.004 191.288 161.772 191.384 161.565 191.521C161.324 191.697 161.102 191.898 160.901 192.119C160.437 192.616 160.015 193.177 160.015 193.177L161.774 192.658L160.846 193.901L161.57 194.105L160.952 195.033L162.252 195.126V197.2H196.272V195.808L197.46 195.855L197.047 195.65L198.082 195.34L197.047 194.305L196.736 193.066L196.272 192.987V189.665L198.198 189.674Z" fill="#B5B5B5" stroke="#263238" stroke-miterlimit="10"/>
<path d="M164.451 171.465H185.136" stroke="#263238" stroke-miterlimit="10"/>
<path d="M164.66 173.223H176.45" stroke="#263238" stroke-miterlimit="10"/>
<path d="M194.235 175.703H173.554" stroke="#263238" stroke-miterlimit="10"/>
<path d="M166.627 180.977H194.546" stroke="#263238" stroke-miterlimit="10"/>
<path d="M166.107 177.359H186.375" stroke="#263238" stroke-miterlimit="10"/>
<path d="M195.061 183.047H180.171" stroke="#263238" stroke-miterlimit="10"/>
<path d="M194.444 185.84H167.142" stroke="#263238" stroke-miterlimit="10"/>
<path d="M172.52 188.215H188.653" stroke="#263238" stroke-miterlimit="10"/>
<path d="M195.27 189.66H168.381" stroke="#263238" stroke-miterlimit="10"/>
<path d="M164.349 193.488H183.79" stroke="#263238" stroke-miterlimit="10"/>
<path d="M181.93 191.523H167.657" stroke="#263238" stroke-miterlimit="10"/>
<path d="M169.829 194.625H190.514" stroke="#263238" stroke-miterlimit="10"/>
<path d="M193.613 191.32H188.031" stroke="#263238" stroke-miterlimit="10"/>
<path d="M206.735 189.674V188.24L207.839 188.008L206.735 187.73V187.336L207.737 186.872L206.735 186.575V180.682H205.519V179.471L206.081 179.424L205.519 179.16V178.696L206.911 178.9L205.983 177.763L205.519 177.081V176.821L207.013 176.728C207.013 176.728 206.169 176.213 205.519 175.749V170.84H207.013C207.013 170.84 206.188 170.451 205.519 170.116V168.293H171.504V171.267L169.991 171.875L171.504 172.548V172.896C171.04 173.165 170.241 173.652 170.112 173.944C169.907 174.357 169.494 175.285 169.494 175.285C169.494 175.285 170.529 175.081 170.835 174.975C171.068 174.928 171.309 174.959 171.522 175.063V175.118L170.288 176.32L171.49 176.849V180.928H174.162V181.211C173.97 181.258 173.781 181.316 173.596 181.387C172.989 181.695 172.402 182.041 171.838 182.422L173.392 182.32L172.668 183.456L174.162 183.549V189.187H170.761V191.238C170.518 191.288 170.286 191.384 170.079 191.521C169.838 191.697 169.616 191.898 169.416 192.119C168.952 192.616 168.529 193.177 168.529 193.177L170.288 192.658L169.36 193.901L170.084 194.105L169.467 195.033L170.766 195.126V197.2H204.782V195.808L205.969 195.855L205.556 195.65L206.591 195.34L205.552 194.314L205.241 193.075L204.777 192.996V189.674H206.735Z" fill="white" stroke="#263238" stroke-miterlimit="10"/>
<path d="M172.989 171.465H193.674" stroke="#263238" stroke-miterlimit="10"/>
<path d="M173.197 173.223H184.988" stroke="#263238" stroke-miterlimit="10"/>
<path d="M202.773 175.703H182.092" stroke="#263238" stroke-miterlimit="10"/>
<path d="M175.16 180.977H203.083" stroke="#263238" stroke-miterlimit="10"/>
<path d="M174.645 177.359H194.913" stroke="#263238" stroke-miterlimit="10"/>
<path d="M203.598 183.047H188.709" stroke="#263238" stroke-miterlimit="10"/>
<path d="M202.981 185.84H175.68" stroke="#263238" stroke-miterlimit="10"/>
<path d="M181.057 188.215H197.191" stroke="#263238" stroke-miterlimit="10"/>
<path d="M203.807 189.66H176.918" stroke="#263238" stroke-miterlimit="10"/>
<path d="M172.886 193.488H192.328" stroke="#263238" stroke-miterlimit="10"/>
<path d="M190.467 191.523H176.195" stroke="#263238" stroke-miterlimit="10"/>
<path d="M178.366 194.625H199.051" stroke="#263238" stroke-miterlimit="10"/>
<path d="M202.151 191.32H196.569" stroke="#263238" stroke-miterlimit="10"/>
<path d="M206.735 161.213V159.779L207.84 159.547L206.735 159.274V158.879L207.738 158.415L206.735 158.114V152.225H205.52V151.01L206.081 150.963L205.52 150.699V150.235L206.912 150.439L205.984 149.302L205.52 148.616V148.36L207.014 148.268C207.014 148.268 206.169 147.753 205.52 147.289V142.384H207.014C207.014 142.384 206.188 141.99 205.52 141.66V139.832H171.504V142.811L169.991 143.414L171.504 144.092V144.44C171.04 144.709 170.242 145.196 170.112 145.484C169.908 145.897 169.495 146.829 169.495 146.829C169.495 146.829 170.529 146.62 170.836 146.518C171.068 146.471 171.309 146.502 171.522 146.606V146.657L170.321 147.864L171.522 148.388V152.467H174.195V152.754C174.003 152.801 173.814 152.86 173.629 152.931C173.021 153.237 172.433 153.583 171.87 153.965L173.425 153.859L172.701 155L174.195 155.093V160.731H170.794V162.781C170.551 162.832 170.319 162.928 170.112 163.065C169.871 163.241 169.648 163.441 169.448 163.663C169.135 164.001 168.84 164.354 168.562 164.721L170.321 164.201L169.393 165.445L170.116 165.649L169.499 166.577L170.798 166.67V168.744H204.814V167.352L206.002 167.398L205.589 167.189L206.624 166.883L205.552 165.858L205.241 164.614L204.777 164.54V161.213H206.735Z" fill="white" stroke="#263238" stroke-miterlimit="10"/>
<path d="M172.989 143.004H193.674" stroke="#263238" stroke-miterlimit="10"/>
<path d="M173.197 144.762H184.988" stroke="#263238" stroke-miterlimit="10"/>
<path d="M202.773 147.242H182.092" stroke="#263238" stroke-miterlimit="10"/>
<path d="M175.16 152.52H203.083" stroke="#263238" stroke-miterlimit="10"/>
<path d="M174.645 148.898H194.913" stroke="#263238" stroke-miterlimit="10"/>
<path d="M203.598 154.582H188.709" stroke="#263238" stroke-miterlimit="10"/>
<path d="M202.981 157.379H175.68" stroke="#263238" stroke-miterlimit="10"/>
<path d="M181.057 159.758H197.191" stroke="#263238" stroke-miterlimit="10"/>
<path d="M203.807 161.207H176.918" stroke="#263238" stroke-miterlimit="10"/>
<path d="M172.886 165.031H192.328" stroke="#263238" stroke-miterlimit="10"/>
<path d="M190.467 163.066H176.195" stroke="#263238" stroke-miterlimit="10"/>
<path d="M178.366 166.172H199.051" stroke="#263238" stroke-miterlimit="10"/>
<path d="M202.151 162.859H196.569" stroke="#263238" stroke-miterlimit="10"/>
<path d="M145.817 196.7H106.145V194.584L145.817 192.473V196.7Z" fill="white" stroke="#263238" stroke-miterlimit="10"/>
<path d="M168.432 188.846L158.224 163.539L156.498 164.24V164.653L166.576 189.588C166.81 190.173 166.898 190.807 166.83 191.434C166.763 192.061 166.543 192.662 166.189 193.184C165.836 193.706 165.36 194.133 164.802 194.429C164.245 194.724 163.624 194.878 162.994 194.878H149.617V196.896H162.994C163.951 196.891 164.892 196.652 165.736 196.201C166.58 195.75 167.302 195.099 167.837 194.306C168.373 193.513 168.707 192.601 168.811 191.649C168.915 190.698 168.784 189.735 168.432 188.846Z" fill="white" stroke="#263238" stroke-miterlimit="10"/>
<path d="M163.223 128.607L160.072 128.227L152.944 187.301L156.095 187.682L163.223 128.607Z" fill="white" stroke="#263238" stroke-miterlimit="10"/>
<path d="M149.951 196.736H132.783V194.717C132.782 193.662 133.173 192.644 133.88 191.86C134.588 191.077 135.561 190.583 136.611 190.477L145.274 189.6C145.866 189.54 146.464 189.605 147.029 189.791C147.595 189.976 148.115 190.279 148.557 190.678C148.998 191.077 149.351 191.564 149.593 192.108C149.835 192.652 149.96 193.241 149.96 193.836L149.951 196.736Z" fill="white" stroke="#263238" stroke-miterlimit="10"/>
<path d="M73.6925 113.399C73.6925 113.399 70.0315 104.541 66.5655 103.771C63.0994 103.001 48.4695 110.318 52.5063 117.06C56.5431 123.802 60.7887 123.412 64.6399 121.7C68.4911 119.988 73.6925 113.399 73.6925 113.399Z" fill="#263238" stroke="#263238" stroke-miterlimit="10"/>
<path d="M57.8978 107.041C57.8978 107.041 54.0466 105.695 52.121 105.695C50.1954 105.695 49.801 111.857 49.801 111.857C49.801 111.857 51.1605 105.886 57.8978 107.041Z" fill="#263238" stroke="#263238" stroke-miterlimit="10"/>
<path d="M99.4955 120.142C99.4955 120.142 101.616 123.028 102.191 125.534C102.767 128.039 101.231 130.731 101.806 132.851C102.382 134.972 105.082 136.893 104.887 138.243C104.692 139.593 100.846 141.709 100.846 141.709C100.846 141.709 97.5699 149.597 96.2058 150.181C94.8416 150.766 90.2526 149.407 88.16 148.451C86.0674 147.495 83.3437 147.681 83.3437 147.681L70.8157 141.324C70.8157 141.324 72.1659 138.818 70.6254 135.162C69.085 131.505 68.3054 125.339 77.7478 119.177C87.1902 113.015 99.4955 120.142 99.4955 120.142Z" fill="white" stroke="#263238" stroke-miterlimit="10"/>
<path d="M97.7649 141.324C97.5034 140.923 97.1095 140.626 96.6516 140.485C96.1938 140.344 95.701 140.368 95.2593 140.554" stroke="#263238" stroke-miterlimit="10"/>
<path d="M99.296 131.883C99.296 132.844 98.9944 133.618 98.6232 133.618C98.252 133.618 97.9458 132.844 97.9458 131.883C97.9458 130.923 98.2474 130.152 98.6232 130.152C98.9991 130.152 99.296 130.927 99.296 131.883Z" fill="#263238"/>
<path d="M97.3799 127.071C97.5593 126.886 97.7768 126.743 98.0172 126.651C98.2577 126.56 98.5153 126.521 98.772 126.54C99.0287 126.558 99.2784 126.632 99.5036 126.756C99.7288 126.881 99.924 127.053 100.076 127.261" stroke="#263238" stroke-miterlimit="10"/>
<path d="M98.8227 135.736C100.683 135.736 102.191 133.323 102.191 130.345C102.191 127.367 100.683 124.953 98.8227 124.953C96.9623 124.953 95.4541 127.367 95.4541 130.345C95.4541 133.323 96.9623 135.736 98.8227 135.736Z" stroke="#263238" stroke-miterlimit="10"/>
<path d="M95.4543 130.344L80.4299 131.884" stroke="#263238" stroke-miterlimit="10"/>
<path d="M77.349 135.547C77.349 135.547 73.6926 139.593 71.5722 139.593C69.4517 139.593 65.4102 136.893 63.4846 134.025C61.559 131.158 65.4102 123.817 67.5307 119.581C69.6512 115.344 73.4978 108.217 81.395 106.677C89.2923 105.136 92.3733 105.716 99.1106 109.183C105.848 112.649 105.082 117.655 103.927 119.196C103.076 120.266 102.106 121.236 101.036 122.086C101.036 122.086 105.272 119.766 106.813 120.546C108.353 121.325 108.358 122.277 108.358 122.277C108.358 122.277 103.542 122.472 102.962 122.472C102.382 122.472 100.461 123.432 100.461 123.432C100.461 123.432 96.4147 124.397 94.2989 123.817C92.183 123.237 89.2923 121.103 89.0882 123.423C88.884 125.743 86.0072 129.779 84.8518 130.165C83.6965 130.55 81.9611 130.74 80.4206 131.895C78.8802 133.051 77.349 135.547 77.349 135.547Z" fill="#263238" stroke="#263238" stroke-miterlimit="10"/>
<path d="M81.78 133.811C81.78 133.811 79.0842 128.243 76.3883 130.54C73.6925 132.837 76.5786 138.818 77.7339 139.398C78.8893 139.978 81.2 138.433 81.2 138.433C81.2 138.433 81.3949 140.938 82.1651 142.093" fill="white"/>
<path d="M81.78 133.811C81.78 133.811 79.0842 128.243 76.3883 130.54C73.6925 132.837 76.5786 138.818 77.7339 139.398C78.8893 139.978 81.2 138.433 81.2 138.433C81.2 138.433 81.3949 140.938 82.1651 142.093" stroke="#263238" stroke-miterlimit="10"/>
<path d="M66.3752 147.677C66.3752 147.677 69.6232 144.401 69.6232 142.285C69.6232 140.17 70.7786 138.43 78.0959 141.9C85.4132 145.371 87.942 149.403 86.4015 150.563C84.861 151.723 81.5852 152.883 80.8335 153.644C80.0818 154.405 77.3674 158.075 77.3674 158.075C77.3674 158.075 72.7274 147.677 66.3752 147.677Z" fill="#C2C7D6" stroke="#263238" stroke-miterlimit="10"/>
<path d="M74.3515 140.766C74.3515 140.766 72.7182 141.095 73.0476 142.236C73.2413 142.928 73.2413 143.66 73.0476 144.352L72.0686 145.823" stroke="#263238" stroke-miterlimit="10"/>
<path d="M78.1192 141.902C78.1192 141.902 76.305 143.865 76.4674 144.515C76.6298 145.164 76.9592 146.148 76.305 146.473C75.724 146.733 75.1255 146.951 74.5139 147.127" stroke="#263238" stroke-miterlimit="10"/>
<path d="M78.7502 149.461C78.4115 149.957 78.1006 150.389 78.1006 150.389" stroke="#263238" stroke-miterlimit="10"/>
<path d="M81.525 144.191C81.525 144.191 81.8498 145.658 81.1955 146.637C80.5413 147.616 79.7293 147.616 79.5669 148.103" stroke="#263238" stroke-miterlimit="10"/>
<path d="M85.1115 146.797C84.8114 147.647 84.4291 148.466 83.9701 149.242C83.4783 149.896 81.6872 149.734 81.3578 150.546C81.0374 151.173 80.5939 151.728 80.054 152.179" stroke="#263238" stroke-miterlimit="10"/>
<path d="M122.58 177.416C121.146 176.845 117.132 176.27 117.132 176.27" stroke="#263238" stroke-miterlimit="10"/>
<path d="M115.411 175.694C115.411 175.694 118.566 174.836 120.571 175.694" stroke="#263238" stroke-miterlimit="10"/>
<path d="M121.939 182.35C121.939 182.35 123.642 185.288 124.106 186.216C124.57 187.144 124.723 187.608 124.259 187.608C123.795 187.608 122.092 186.837 121.939 185.909C121.877 185.42 121.719 184.947 121.475 184.517C121.475 184.517 122.348 187.918 122.092 188.072C121.085 188.689 120.394 187.608 120.394 187.608L119.155 183.896C119.155 183.896 118.691 185.752 118.538 186.216C118.385 186.68 117.452 185.445 117.452 184.517C117.468 183.793 117.52 183.07 117.61 182.35L116.682 181.576C116.682 181.576 118.074 180.184 119.619 180.184C121.164 180.184 121.939 182.35 121.939 182.35Z" fill="white" stroke="#263238" stroke-miterlimit="10"/>
<path d="M98.1222 177.71L98.7254 177.668C101.393 177.492 111.982 176.782 112.645 176.782C113.42 176.782 117.903 179.255 117.903 179.255C119.296 179.171 120.695 179.224 122.079 179.413C123.628 179.719 125.02 181.575 125.637 182.197C126.254 182.819 128.268 183.589 127.183 183.895C126.097 184.201 125.637 184.359 125.02 184.206C124.403 184.053 121.925 182.35 121.925 182.35L117.903 181.733C117.903 181.733 114.191 183.742 113.727 183.895C113.263 184.048 114.348 185.134 115.429 185.909C116.511 186.684 118.213 187.765 118.06 188.999C117.907 190.233 117.439 190.085 116.204 188.999C114.97 187.913 113.727 187.301 111.871 186.062C110.175 184.843 108.572 183.498 107.077 182.039L106.149 181.111C106.149 181.111 95.3243 184.67 91.6123 185.751C88.2146 186.707 84.756 187.431 81.2604 187.918C78.9404 188.229 74.4582 187.301 73.2193 186.373C71.9804 185.445 68.7324 182.503 68.7324 182.503L74.3004 171.367C74.3004 171.367 80.9542 177.557 83.5804 178.174C86.2067 178.791 98.1222 177.71 98.1222 177.71Z" fill="white" stroke="#263238" stroke-miterlimit="10"/>
<path d="M83.5804 178.174C80.9542 177.557 74.3004 171.367 74.3004 171.367L68.7324 182.503C68.7324 182.503 71.9804 185.445 73.2193 186.373C74.4582 187.301 78.9404 188.229 81.2604 187.918C84.4341 187.475 87.5781 186.839 90.675 186.016C90.7585 185.306 90.8235 184.545 90.8513 183.742C90.9116 181.988 90.8513 180.002 90.7631 178.234C87.775 178.406 84.7543 178.466 83.5804 178.174Z" fill="#C2C7D6" stroke="#263238" stroke-miterlimit="10"/>
<path d="M79.7292 159.888C79.7158 156.689 78.7054 153.573 76.8385 150.975C75.9411 149.66 74.7267 148.592 73.3075 147.871C66.8764 144.947 62.3571 147.068 58.2832 152.511C50.1956 163.299 44.6648 176.11 42.5072 181.399C37.9553 192.424 37.1201 196.4 37.1201 196.4H67.5492C67.5492 196.4 66.0088 192.549 66.0088 191.589C66.0088 190.628 67.5492 188.698 67.5492 188.698C67.5492 188.698 76.7921 185.422 78.5228 180.416C79.7803 176.731 79.8081 165.544 79.7292 159.888Z" fill="#C2C7D6" stroke="#263238" stroke-miterlimit="10"/>
<path d="M124.584 162.508C127.028 162.998 129.432 163.669 131.776 164.517" stroke="#263238" stroke-miterlimit="10"/>
<path d="M129.173 161.652C130.925 162.376 132.566 163.341 134.05 164.52" stroke="#263238" stroke-miterlimit="10"/>
<path d="M60.0183 167.706C60.0183 167.706 69.4561 193.513 71.957 194.284C74.458 195.054 76.9636 193.899 78.1189 193.128C79.2743 192.358 112.784 168.671 112.784 168.671C112.784 168.671 118.756 172.142 119.911 172.142C121.067 172.142 123.377 175.608 123.953 176.782C124.528 177.955 125.108 178.512 125.303 177.357C125.498 176.202 123.953 173.701 123.568 172.93C123.346 172.494 123.154 172.042 122.992 171.58C123.661 171.669 124.311 171.865 124.918 172.16C125.493 172.545 127.419 175.046 127.999 175.816C128.579 176.587 129.925 177.357 129.925 176.202C129.925 175.046 127.804 172.93 127.419 171.965C127.197 171.399 126.79 170.925 126.264 170.62C126.264 170.62 129.925 171.195 130.904 171.58C131.883 171.965 132.449 174.276 133.604 174.471C134.759 174.666 133.024 172.151 132.639 171.005C132.254 169.859 127.437 168.309 127.437 168.309C127.437 168.309 130.518 167.924 131.484 167.924C132.449 167.924 134.56 169.822 135.126 169.822C135.692 169.822 135.701 169.242 134.161 168.086C132.62 166.931 129.925 165.766 128.769 165.766C127.605 165.734 126.446 165.605 125.303 165.381C124.148 165.191 115.48 163.455 113.749 163.455C112.019 163.455 86.0162 175.589 86.0162 175.589L84.3319 174.09C84.2996 174.061 84.259 174.044 84.2159 174.039L83.9329 174.007C82.9616 173.925 81.9938 174.199 81.2092 174.777C81.07 174.87 80.9308 174.856 80.8148 174.624C80.4297 173.854 77.9287 158.449 76.5785 155.173C75.2282 151.897 71.0105 144.585 63.6793 148.821" fill="white"/>
<path d="M60.0183 167.706C60.0183 167.706 69.4561 193.513 71.957 194.284C74.458 195.054 76.9636 193.899 78.1189 193.128C79.2743 192.358 112.784 168.671 112.784 168.671C112.784 168.671 118.756 172.142 119.911 172.142C121.067 172.142 123.378 175.608 123.953 176.782C124.528 177.955 125.108 178.512 125.303 177.357C125.498 176.202 123.953 173.701 123.568 172.93C123.346 172.494 123.154 172.042 122.992 171.58C123.661 171.669 124.311 171.865 124.918 172.16C125.493 172.545 127.419 175.046 127.999 175.816C128.579 176.587 129.925 177.357 129.925 176.202C129.925 175.046 127.804 172.93 127.419 171.965C127.197 171.399 126.79 170.925 126.264 170.62C126.264 170.62 129.925 171.195 130.904 171.58C131.883 171.965 132.449 174.276 133.604 174.471C134.759 174.666 133.024 172.151 132.639 171.005C132.254 169.859 127.437 168.309 127.437 168.309C127.437 168.309 130.518 167.924 131.484 167.924C132.449 167.924 134.56 169.822 135.126 169.822C135.692 169.822 135.701 169.242 134.161 168.086C132.62 166.931 129.925 165.766 128.769 165.766C127.605 165.734 126.446 165.605 125.303 165.381C124.148 165.191 115.48 163.455 113.749 163.455C112.019 163.455 86.0162 175.589 86.0162 175.589L84.3319 174.09C84.2996 174.061 84.259 174.044 84.2159 174.039L83.9329 174.007C82.9616 173.925 81.9938 174.199 81.2092 174.777C81.07 174.87 80.9308 174.856 80.8148 174.624C80.4297 173.854 77.9287 158.449 76.5785 155.173C75.2282 151.897 71.0105 144.585 63.6793 148.821" stroke="#263238" stroke-miterlimit="10"/>
<path d="M60.0183 167.707C60.0183 167.707 69.4561 193.515 71.957 194.285C74.458 195.056 76.9636 193.9 78.1189 193.13C78.7314 192.722 88.327 185.943 97.2822 179.623L93.9506 171.939C89.473 173.99 86.0162 175.605 86.0162 175.605L84.3319 174.106C84.2996 174.077 84.259 174.059 84.2159 174.055L83.9329 174.022C82.9616 173.941 81.9938 174.215 81.2092 174.793C81.07 174.886 80.9308 174.872 80.8148 174.64C80.4297 173.869 77.9287 158.465 76.5785 155.189C75.2282 151.913 71.0105 144.6 63.6793 148.837" fill="#C2C7D6"/>
<path d="M60.0183 167.707C60.0183 167.707 69.4561 193.515 71.957 194.285C74.458 195.056 76.9636 193.9 78.1189 193.13C78.7314 192.722 88.327 185.943 97.2822 179.623L93.9506 171.939C89.473 173.99 86.0162 175.605 86.0162 175.605L84.3319 174.106C84.2996 174.077 84.259 174.059 84.2159 174.055L83.9329 174.022C82.9616 173.941 81.9938 174.215 81.2092 174.793C81.07 174.886 80.9308 174.872 80.8148 174.64C80.4297 173.869 77.9287 158.465 76.5785 155.189C75.2282 151.913 71.0105 144.6 63.6793 148.837" stroke="#263238" stroke-miterlimit="10"/>
<path d="M80.8427 175.266C79.376 177.057 77.7584 178.72 76.0078 180.235" stroke="#263238" stroke-miterlimit="10"/>
<path d="M79.7385 176.508C79.7385 176.508 76.5647 177.612 73.9385 178.303" stroke="#263238" stroke-miterlimit="10"/>
<path d="M37.1201 196.4L31.8073 149.814C31.7428 149.247 31.5655 148.699 31.2856 148.202C31.0058 147.705 30.6292 147.269 30.1781 146.92C29.7269 146.571 29.2104 146.316 28.659 146.17C28.1076 146.024 27.5325 145.99 26.9678 146.069C25.8586 146.227 24.856 146.815 24.1764 147.706C23.4967 148.596 23.1944 149.719 23.3346 150.83L29.1254 196.474L37.1201 196.4Z" fill="#263238" stroke="#263238" stroke-miterlimit="10"/>
<path d="M213.505 196.293H13.9106V200.798H213.505V196.293Z" fill="#263238" stroke="#263238" stroke-miterlimit="10"/>
</svg>
