<svg width="30" height="31" viewBox="0 0 30 31" fill="none" xmlns="http://www.w3.org/2000/svg">
<path d="M14.9137 3.0726C15.0685 2.8789 15.2602 2.71783 15.4777 2.59871C15.6952 2.47959 15.9341 2.40478 16.1807 2.37863C16.4272 2.35247 16.6766 2.37548 16.9142 2.44632C17.1518 2.51717 17.373 2.63444 17.565 2.79135L23.6812 7.78635C24.0176 8.06098 24.2482 8.44385 24.3337 8.86958C24.4192 9.29532 24.3543 9.73753 24.15 10.1207C23.6153 9.95729 23.0592 9.87451 22.5 9.8751H21.9375L22.4963 9.2376L19.275 6.60697L16.6181 9.87697H14.2013L17.8219 5.42197L16.3781 4.2426L11.8819 9.8751H9.48188L14.9137 3.0726ZM19.6875 19.2501C19.4389 19.2501 19.2004 19.3489 19.0246 19.5247C18.8488 19.7005 18.75 19.939 18.75 20.1876C18.75 20.4362 18.8488 20.6747 19.0246 20.8505C19.2004 21.0263 19.4389 21.1251 19.6875 21.1251H21.5625C21.8111 21.1251 22.0496 21.0263 22.2254 20.8505C22.4012 20.6747 22.5 20.4362 22.5 20.1876C22.5 19.939 22.4012 19.7005 22.2254 19.5247C22.0496 19.3489 21.8111 19.2501 21.5625 19.2501H19.6875ZM5.625 10.8126C5.625 10.564 5.72377 10.3255 5.89959 10.1497C6.0754 9.97387 6.31386 9.8751 6.5625 9.8751H7.60875L9.09938 8.0001H6.5625C5.81658 8.0001 5.10121 8.29641 4.57376 8.82386C4.04632 9.35131 3.75 10.0667 3.75 10.8126V22.0626C3.75 23.3058 4.24386 24.4981 5.12294 25.3772C6.00201 26.2562 7.1943 26.7501 8.4375 26.7501H22.5C23.4946 26.7501 24.4484 26.355 25.1516 25.6517C25.8549 24.9485 26.25 23.9947 26.25 23.0001V15.5001C26.25 14.5055 25.8549 13.5517 25.1516 12.8484C24.4484 12.1452 23.4946 11.7501 22.5 11.7501H6.5625C6.31386 11.7501 6.0754 11.6513 5.89959 11.4755C5.72377 11.2997 5.625 11.0612 5.625 10.8126ZM5.625 22.0626V13.4657C5.9175 13.5688 6.23438 13.6251 6.5625 13.6251H22.5C22.9973 13.6251 23.4742 13.8226 23.8258 14.1743C24.1775 14.5259 24.375 15.0028 24.375 15.5001V23.0001C24.375 23.4974 24.1775 23.9743 23.8258 24.3259C23.4742 24.6776 22.9973 24.8751 22.5 24.8751H8.4375C7.69158 24.8751 6.97621 24.5788 6.44876 24.0513C5.92132 23.5239 5.625 22.8085 5.625 22.0626Z" fill="#114FF5"/>
</svg>
