<svg width="49" height="48" viewBox="0 0 49 48" fill="none" xmlns="http://www.w3.org/2000/svg">
<rect x="0.666504" width="48" height="48" rx="8" fill="#35BA83"/>
<path d="M28.5905 25.8C28.6625 25.206 28.7165 24.612 28.7165 24C28.7165 23.388 28.6625 22.794 28.5905 22.2H31.6325C31.7765 22.776 31.8665 23.379 31.8665 24C31.8665 24.621 31.7765 25.224 31.6325 25.8H28.5905ZM26.9975 30.804C27.5375 29.805 27.9515 28.725 28.2395 27.6H30.8945C30.0226 29.1014 28.6392 30.2388 26.9975 30.804ZM26.7725 25.8H22.5605C22.4705 25.206 22.4165 24.612 22.4165 24C22.4165 23.388 22.4705 22.785 22.5605 22.2H26.7725C26.8535 22.785 26.9165 23.388 26.9165 24C26.9165 24.612 26.8535 25.206 26.7725 25.8ZM24.6665 31.164C23.9195 30.084 23.3165 28.887 22.9475 27.6H26.3855C26.0165 28.887 25.4135 30.084 24.6665 31.164ZM21.0665 20.4H18.4385C19.3015 18.8945 20.6838 17.7553 22.3265 17.196C21.7865 18.195 21.3815 19.275 21.0665 20.4ZM18.4385 27.6H21.0665C21.3815 28.725 21.7865 29.805 22.3265 30.804C20.6873 30.2385 19.3069 29.1009 18.4385 27.6ZM17.7005 25.8C17.5565 25.224 17.4665 24.621 17.4665 24C17.4665 23.379 17.5565 22.776 17.7005 22.2H20.7425C20.6705 22.794 20.6165 23.388 20.6165 24C20.6165 24.612 20.6705 25.206 20.7425 25.8H17.7005ZM24.6665 16.827C25.4135 17.907 26.0165 19.113 26.3855 20.4H22.9475C23.3165 19.113 23.9195 17.907 24.6665 16.827ZM30.8945 20.4H28.2395C27.9578 19.2853 27.5407 18.2093 26.9975 17.196C28.6535 17.763 30.0305 18.906 30.8945 20.4ZM24.6665 15C19.6895 15 15.6665 19.05 15.6665 24C15.6665 26.3869 16.6147 28.6761 18.3025 30.364C19.1383 31.1997 20.1304 31.8626 21.2224 32.3149C22.3143 32.7672 23.4846 33 24.6665 33C27.0535 33 29.3426 32.0518 31.0305 30.364C32.7183 28.6761 33.6665 26.3869 33.6665 24C33.6665 22.8181 33.4337 21.6478 32.9814 20.5558C32.5291 19.4639 31.8662 18.4718 31.0305 17.636C30.1947 16.8003 29.2026 16.1374 28.1107 15.6851C27.0187 15.2328 25.8484 15 24.6665 15Z" fill="white"/>
</svg>
