<svg width="48" height="48" viewBox="0 0 48 48" fill="none" xmlns="http://www.w3.org/2000/svg">
<rect width="48" height="48" rx="8" fill="#541388"/>
<path d="M16 32V20C16 19.7878 16.0843 19.5843 16.2343 19.4343C16.3843 19.2843 16.5878 19.2 16.8 19.2H20V16H28V19.2H31.2C31.4122 19.2 31.6157 19.2843 31.7657 19.4343C31.9157 19.5843 32 19.7878 32 20V32H25.6V28H22.4V32H16ZM21.6 17.6V22.4H23.2V20.8H24.8V22.4H26.4V17.6H24.8V19.2H23.2V17.6H21.6ZM17.6 30.4H20.8V28H17.6V30.4ZM17.6 26.4H20.8V24H17.6V26.4ZM27.2 30.4H30.4V28H27.2V30.4ZM27.2 26.4H30.4V24H27.2V26.4ZM22.4 26.4H25.6V24H22.4V26.4Z" fill="white"/>
</svg>
