<svg width="49" height="48" viewBox="0 0 49 48" fill="none" xmlns="http://www.w3.org/2000/svg">
<rect x="0.333252" width="48" height="48" rx="8" fill="#114FF5"/>
<path d="M30.9648 27.3158H29.07V25.4211H30.9648V27.3158ZM30.9648 31.1053H29.07V29.2105H30.9648V31.1053ZM25.2806 19.7368H23.3858V17.8421H25.2806V19.7368ZM25.2806 23.5263H23.3858V21.6316H25.2806V23.5263ZM25.2806 27.3158H23.3858V25.4211H25.2806V27.3158ZM25.2806 31.1053H23.3858V29.2105H25.2806V31.1053ZM19.5964 23.5263H17.7016V21.6316H19.5964V23.5263ZM19.5964 27.3158H17.7016V25.4211H19.5964V27.3158ZM19.5964 31.1053H17.7016V29.2105H19.5964V31.1053ZM27.1753 23.5263V17.8421L24.3332 15L21.4911 17.8421V19.7368H15.8069V33H32.8595V23.5263H27.1753Z" fill="white"/>
</svg>
