<svg width="150" height="151" viewBox="0 0 150 151" fill="none" xmlns="http://www.w3.org/2000/svg">
<g opacity="0.5">
<path d="M131.25 28.625H18.75C14.8667 28.625 11.7188 31.773 11.7188 35.6562V113C11.7188 116.883 14.8667 120.031 18.75 120.031H131.25C135.133 120.031 138.281 116.883 138.281 113V35.6562C138.281 31.773 135.133 28.625 131.25 28.625Z" fill="#7B858F"/>
<path d="M93.75 143.469H56.25L61.875 124.719L63.2812 120.031H86.7188L88.125 124.719L93.75 143.469Z" fill="#D5D5D3"/>
<path d="M49.2188 141.125H100.781V145.812H49.2188V141.125Z" fill="#DFDFDD"/>
<path d="M88.125 124.719H61.875L63.2813 120.031H86.7188L88.125 124.719Z" fill="#CECECC"/>
<path d="M138.281 103.625V113C138.281 114.865 137.54 116.653 136.221 117.971C134.903 119.29 133.115 120.031 131.25 120.031H18.75C16.8853 120.031 15.0972 119.29 13.7787 117.971C12.4602 116.653 11.7192 114.865 11.7188 113V103.625H138.281Z" fill="#DFDFDD"/>
<path d="M119.531 7.53125H30.4688C28.6039 7.53125 26.8155 8.27204 25.4969 9.59066C24.1783 10.9093 23.4375 12.6977 23.4375 14.5625V103.625H126.562V14.5625C126.562 12.6977 125.822 10.9093 124.503 9.59066C123.184 8.27204 121.396 7.53125 119.531 7.53125Z" fill="#5E646D"/>
<path d="M23.4375 98.9375H126.562V103.625H23.4375V98.9375Z" fill="#507FDF"/>
<path d="M11.7188 98.9375H23.4375V103.625H11.7188V98.9375Z" fill="#2F80ED"/>
<path d="M126.562 98.9375H138.281V103.625H126.562V98.9375Z" fill="#2F80ED"/>
<path d="M39.8438 59.0938H58.5938V63.7812H39.8438V59.0938Z" fill="#507FDF"/>
<path d="M67.9688 59.0938H82.0312V63.7812H67.9688V59.0938Z" fill="#507FDF"/>
<path d="M91.4062 59.0938H107.812V63.7812H91.4062V59.0938Z" fill="#507FDF"/>
<path d="M37.5 68.4688C41.3833 68.4688 44.5312 65.3208 44.5312 61.4375C44.5312 57.5542 41.3833 54.4062 37.5 54.4062C33.6167 54.4062 30.4688 57.5542 30.4688 61.4375C30.4688 65.3208 33.6167 68.4688 37.5 68.4688Z" fill="#2F80ED"/>
<path d="M63.2812 68.4688C67.1645 68.4688 70.3125 65.3208 70.3125 61.4375C70.3125 57.5542 67.1645 54.4062 63.2812 54.4062C59.398 54.4062 56.25 57.5542 56.25 61.4375C56.25 65.3208 59.398 68.4688 63.2812 68.4688Z" fill="#2F80ED"/>
<path d="M86.7188 68.4688C90.602 68.4688 93.75 65.3208 93.75 61.4375C93.75 57.5542 90.602 54.4062 86.7188 54.4062C82.8355 54.4062 79.6875 57.5542 79.6875 61.4375C79.6875 65.3208 82.8355 68.4688 86.7188 68.4688Z" fill="#333333"/>
<path d="M112.5 68.4688C116.383 68.4688 119.531 65.3208 119.531 61.4375C119.531 57.5542 116.383 54.4062 112.5 54.4062C108.617 54.4062 105.469 57.5542 105.469 61.4375C105.469 65.3208 108.617 68.4688 112.5 68.4688Z" fill="#2F80ED"/>
<path d="M32.8125 73.1562H42.1875V77.8438H32.8125V73.1562Z" fill="#507FDF"/>
<path d="M58.5938 73.1562H67.9688V77.8438H58.5938V73.1562Z" fill="#507FDF"/>
<path d="M82.0312 73.1562H91.4062V77.8438H82.0312V73.1562Z" fill="#507FDF"/>
<path d="M107.812 73.1562H117.188V77.8438H107.812V73.1562Z" fill="#507FDF"/>
<path d="M30.4688 14.5625H35.1562V19.25H30.4688V14.5625Z" fill="#3BA5D3"/>
<path d="M39.8438 14.5625H44.5312V19.25H39.8438V14.5625Z" fill="#3BA5D3"/>
<path d="M49.2188 14.5625H53.9062V19.25H49.2188V14.5625Z" fill="#3BA5D3"/>
<path d="M30.4688 23.9375H119.531V28.625H30.4688V23.9375Z" fill="#1034A6"/>
<path d="M32.8125 84.875H65.625V89.5625H32.8125V84.875Z" fill="#3BA5D3"/>
<path d="M30.4688 33.3125H51.5625V38H30.4688V33.3125Z" fill="#3BA5D3"/>
<path d="M30.4688 42.6875H46.875V47.375H30.4688V42.6875Z" fill="#3BA5D3"/>
<path d="M105.469 33.3125H119.531V38H105.469V33.3125Z" fill="#3BA5D3"/>
<path d="M105.469 42.6875H119.531V47.375H105.469V42.6875Z" fill="#3BA5D3"/>
<path d="M107.812 115.344L134.481 142.012C135.414 142.945 136.678 143.469 137.997 143.469C139.315 143.469 140.58 142.945 141.512 142.012C142.445 141.08 142.969 139.815 142.969 138.497C142.969 137.178 142.445 135.914 141.512 134.981L114.844 108.312L107.812 115.344Z" fill="#F15846"/>
<path d="M100.781 127.062C116.314 127.062 128.906 114.471 128.906 98.9375C128.906 83.4045 116.314 70.8125 100.781 70.8125C85.2482 70.8125 72.6562 83.4045 72.6562 98.9375C72.6562 114.471 85.2482 127.062 100.781 127.062Z" fill="#F15846"/>
<path d="M100.781 117.688C111.137 117.688 119.531 109.293 119.531 98.9375C119.531 88.5822 111.137 80.1875 100.781 80.1875C90.4259 80.1875 82.0312 88.5822 82.0312 98.9375C82.0312 109.293 90.4259 117.688 100.781 117.688Z" fill="#4AAEDA"/>
<path d="M100.781 113C108.548 113 114.844 106.704 114.844 98.9375C114.844 91.171 108.548 84.875 100.781 84.875C93.0147 84.875 86.7188 91.171 86.7188 98.9375C86.7188 106.704 93.0147 113 100.781 113Z" fill="#4DB6E4"/>
<path d="M93.75 98.9375H89.0625C89.066 95.8306 90.3018 92.8519 92.4987 90.6549C94.6956 88.458 97.6743 87.2222 100.781 87.2188V91.9062C98.9171 91.9084 97.1299 92.6499 95.8118 93.9681C94.4937 95.2862 93.7522 97.0734 93.75 98.9375V98.9375Z" fill="#5CC1ED"/>
<path d="M95.7129 34.7832L86.7188 47.375L77.7246 34.7832C75.9525 32.3024 75 29.3299 75 26.2812C75 23.1732 76.2347 20.1925 78.4323 17.9948C80.63 15.7972 83.6107 14.5625 86.7188 14.5625C89.8268 14.5625 92.8075 15.7972 95.0052 17.9948C97.2028 20.1925 98.4375 23.1732 98.4375 26.2812C98.4375 29.3299 97.485 32.3024 95.7129 34.7832Z" fill="#111519"/>
<path d="M86.7188 30.9688C89.3076 30.9688 91.4062 28.8701 91.4062 26.2812C91.4062 23.6924 89.3076 21.5938 86.7188 21.5938C84.1299 21.5938 82.0312 23.6924 82.0312 26.2812C82.0312 28.8701 84.1299 30.9688 86.7188 30.9688Z" fill="#333333"/>
</g>
</svg>
