<svg width="20" height="20" viewBox="0 0 20 20" fill="none" xmlns="http://www.w3.org/2000/svg">
<path d="M10.9772 0C15.719 0.470706 19.4983 4.22634 19.9494 8.98348C20.0816 10.2911 19.9541 11.6119 19.5745 12.8702C19.1948 14.1286 18.5703 15.2997 17.7369 16.3165C16.9034 17.3334 15.8773 18.176 14.7174 18.796C13.5574 19.4161 12.2864 19.8014 10.9772 19.9299V17.9269C14.6262 17.4962 17.4934 14.6019 17.9545 10.9564C18.0844 9.91204 18.0068 8.85232 17.7263 7.83789C17.4459 6.82346 16.9679 5.87424 16.3199 5.04451C15.6718 4.21478 14.8664 3.52084 13.9497 3.00239C13.0329 2.48393 12.0228 2.15113 10.9772 2.02303V0ZM8.97224 0.030045V2.03305C7.53868 2.23335 6.18533 2.81422 5.06255 3.71557L3.62899 2.23335C5.14947 0.981664 7.01069 0.214182 8.97224 0.030045ZM2.21549 3.64547L3.64904 5.07762C2.76083 6.20901 2.19303 7.55794 2.00497 8.98348H0C0.200497 7.02053 0.952361 5.16775 2.21549 3.64547ZM0.0100248 10.9865H2.01499C2.19544 12.4086 2.76686 13.7606 3.64904 14.8923L2.22552 16.3245C0.980107 14.8 0.209793 12.9441 0.0100248 10.9865ZM5.06255 16.3645C6.19535 17.2459 7.54871 17.8167 8.97224 17.997V20C7.00737 19.7897 5.14275 18.9985 3.62899 17.7366L5.06255 16.3645ZM9.97472 5.47822L5.46354 9.98498H8.97224V13.991H10.9772V9.98498H14.4859L9.97472 5.47822Z" fill="#FE4D3C"/>
</svg>
