<svg width="192" height="180" viewBox="0 0 192 180" fill="none" xmlns="http://www.w3.org/2000/svg">
<path d="M102 180C151.706 180 192 139.706 192 90C192 40.2944 151.706 0 102 0C52.2944 0 12 40.2944 12 90C12 139.706 52.2944 180 102 180Z" fill="#F0F4FE"/>
<path d="M93.9709 149.916C94.7165 150.16 116.08 149.961 116.886 149.436C117.206 149.244 117.35 146.128 117.427 142.361V142.243C117.446 141.465 117.459 140.665 117.462 139.856C117.462 139.744 116.486 128.438 116.486 128.438L102.521 128.531L103.568 139.945L103.645 142.217V142.451C103.645 142.451 95.5038 146.185 94.6846 146.854C93.8654 147.523 93.2221 149.676 93.9709 149.916Z" fill="#EB9481"/>
<path d="M117.379 144.316C117.289 147.155 117.142 149.28 116.886 149.436C116.08 149.958 94.7165 150.16 93.9677 149.913C93.2189 149.667 93.8589 147.52 94.6813 146.854C95.0013 146.595 96.4093 145.894 98.0189 145.1C97.1805 146.009 96.7581 147.02 99.0013 147.02C102.988 147.017 109.945 146.361 117.379 144.316Z" fill="#263238"/>
<path d="M102.966 142.022H118.352C118.352 142.022 115.254 106.093 115.376 105.465C115.53 104.662 116.438 101.024 117.645 96.2719C118.026 94.7871 118.432 93.1903 118.858 91.5391C120.006 87.0591 121.27 82.1823 122.378 77.9327C124.032 71.5615 125.322 66.6143 125.322 66.6143H112.278C112.278 66.6143 110.758 71.4335 108.842 77.6991C105.722 87.8847 101.552 101.904 101.142 105.312C100.48 110.8 102.966 142.022 102.966 142.022Z" fill="#37474F"/>
<path d="M103.648 139.398C106 139.35 105.325 139.331 107.674 139.309C108.823 139.309 116.381 139.232 117.453 139.408C117.458 139.41 117.462 139.413 117.465 139.417C117.468 139.422 117.47 139.427 117.47 139.432C117.47 139.437 117.468 139.442 117.465 139.446C117.462 139.451 117.458 139.454 117.453 139.456C116.381 139.635 108.813 139.568 107.674 139.558C105.325 139.536 106 139.517 103.648 139.469C103.607 139.465 103.607 139.398 103.648 139.398Z" fill="#263238"/>
<path d="M112.48 103.27C112.986 101.03 113.738 98.8668 114.4 96.6812C115.733 92.246 117.075 87.814 118.426 83.3852C119.098 81.1665 119.774 78.951 120.454 76.7388C120.8 75.622 121.142 74.4988 121.491 73.3884C121.84 72.278 122.224 71.2124 122.534 70.1116C122.659 69.6636 122.726 69.91 122.566 70.4796C122.246 71.6252 121.926 72.774 121.587 73.9196C120.926 76.1852 120.259 78.4508 119.587 80.7164C118.252 85.2241 116.907 89.7276 115.552 94.2268C114.874 96.486 114.194 98.743 113.514 100.998C113.171 102.072 112.893 103.165 112.682 104.272C112.501 105.43 112.456 106.606 112.547 107.776C112.694 110.131 112.966 112.48 113.187 114.816L113.827 121.875C114.254 126.568 114.681 131.252 115.107 135.926C115.161 136.519 115.211 137.113 115.258 137.708C115.258 137.907 115.133 137.929 115.114 137.737C114.605 133.107 114.058 128.422 113.622 123.785C113.187 119.148 112.755 114.556 112.326 109.939C112.218 108.78 112.093 107.619 112.093 106.454C112.102 105.382 112.232 104.313 112.48 103.27Z" fill="#263238"/>
<path d="M113.757 66.6143C114.662 73.6191 116.387 86.7487 117.645 96.2719C120.586 84.7327 125.325 66.6143 125.325 66.6143H113.757Z" fill="#263238"/>
<path d="M110.554 149.916C111.303 150.16 132.666 149.961 133.472 149.436C133.792 149.244 133.936 146.128 134.013 142.361V142.243C134.032 141.465 134.045 140.665 134.048 139.856C134.048 139.744 134.048 139.632 134.048 139.52C134.096 134.08 133.706 128.438 133.706 128.438L119.741 128.531L120.131 139.51L120.147 139.945L120.224 142.217V142.451C120.224 142.451 112.083 146.185 111.264 146.854C110.445 147.523 109.805 149.676 110.554 149.916Z" fill="#EB9481"/>
<path d="M133.965 144.316C133.875 147.155 133.728 149.28 133.472 149.436C132.666 149.958 111.302 150.16 110.554 149.913C109.805 149.667 110.445 147.52 111.267 146.854C111.587 146.595 112.995 145.894 114.605 145.1C113.766 146.009 113.344 147.02 115.587 147.02C119.574 147.017 126.531 146.361 133.965 144.316Z" fill="#263238"/>
<path d="M112.697 66.6143C112.697 66.6143 112.998 72.8543 114.428 77.7951C114.54 78.2015 114.665 78.6047 114.8 78.9887C116.108 79.5133 117.365 80.156 118.556 80.9087C118.556 80.9087 118.707 85.9263 118.857 91.5263C119.024 97.7823 119.196 104.761 119.161 106.246C119.03 111.785 119.856 142.24 119.856 142.24L135.235 142.301C135.235 142.301 132.454 108.301 132.48 106.272C132.512 103.011 131.737 88.5983 131.139 78.0863C130.925 74.2337 130.445 70.4005 129.702 66.6143H112.697Z" fill="#37474F"/>
<path d="M120.381 139.513C122.733 139.475 122.058 139.452 124.407 139.44C125.556 139.44 133.114 139.398 134.186 139.58C134.191 139.582 134.195 139.586 134.198 139.59C134.201 139.594 134.203 139.599 134.203 139.604C134.203 139.61 134.201 139.615 134.198 139.619C134.195 139.623 134.191 139.627 134.186 139.628C133.111 139.804 125.546 139.705 124.407 139.689C122.055 139.657 122.73 139.641 120.381 139.58C120.374 139.578 120.368 139.574 120.363 139.568C120.359 139.562 120.356 139.554 120.356 139.547C120.356 139.539 120.359 139.532 120.363 139.526C120.368 139.52 120.374 139.515 120.381 139.513Z" fill="#263238"/>
<path d="M129.171 68.8448C129.456 77.4272 129.756 86.0064 130.131 94.5856C130.505 103.165 132.534 134 133.052 138.784C133.052 138.816 133.008 138.829 133.004 138.784C131.884 130.272 131.26 117.664 130.707 109.107C130.153 100.55 129.785 91.9616 129.491 83.3824C129.328 78.5312 129.2 73.68 129.056 68.8256C129.062 68.7712 129.171 68.7776 129.171 68.8448Z" fill="#263238"/>
<path d="M114.16 78.6175C115.69 79.256 117.161 80.0269 118.556 80.9215C118.566 80.9288 118.572 80.9391 118.575 80.9505C118.577 80.962 118.576 80.974 118.57 80.9845C118.565 80.995 118.556 81.0033 118.546 81.0082C118.535 81.013 118.523 81.0141 118.512 81.0111C117.027 80.2911 115.513 79.5967 114.07 78.7967C114.046 78.7848 114.028 78.764 114.02 78.7388C114.011 78.7136 114.013 78.6861 114.025 78.6623C114.037 78.6386 114.058 78.6205 114.083 78.6121C114.108 78.6037 114.136 78.6056 114.16 78.6175Z" fill="#263238"/>
<path d="M114.073 73.3243C114.176 73.8715 114.307 74.4123 114.425 74.9563C114.544 75.5003 114.617 75.9867 114.745 76.4923C114.857 76.9789 115.106 77.4232 115.462 77.7723C115.661 77.9579 115.881 78.1243 116.102 78.2939C116.217 78.3867 116.342 78.4731 116.461 78.5659C116.445 78.4955 116.432 78.4219 116.419 78.3483L116.313 77.7243C116.237 77.2635 116.163 76.8027 116.093 76.3419C115.952 75.4363 115.824 74.5179 115.635 73.6187C115.635 73.6111 115.638 73.6038 115.644 73.5984C115.649 73.593 115.656 73.5899 115.664 73.5899C115.672 73.5899 115.679 73.593 115.684 73.5984C115.69 73.6038 115.693 73.6111 115.693 73.6187C115.917 74.5083 116.166 75.3883 116.365 76.2875C116.461 76.7259 116.806 78.8987 116.822 79.0523C116.838 79.2059 116.851 79.3723 116.854 79.5323C116.877 79.6937 116.877 79.8574 116.854 80.0187C116.854 80.0603 116.8 80.0539 116.781 80.0187C116.715 79.8672 116.667 79.7082 116.64 79.5451C116.601 79.3915 116.566 79.2251 116.537 79.0747C116.537 79.0171 116.521 78.9595 116.512 78.9019C116.297 78.7707 116.099 78.6011 115.901 78.4539C115.702 78.3067 115.462 78.1339 115.261 77.9739C114.883 77.6562 114.61 77.231 114.48 76.7547C114.348 76.2429 114.263 75.7203 114.224 75.1931C114.153 74.5755 114.102 73.9547 114.019 73.3403C114.013 73.3019 114.067 73.2891 114.073 73.3243Z" fill="#263238"/>
<path d="M122.598 33.0717C124.867 34.6205 125.999 37.6573 125.999 37.6573C125.999 37.6573 128.425 40.4765 128.239 42.2845C128.192 42.7965 128.022 43.2895 127.743 43.7218C127.465 44.154 127.086 44.5128 126.639 44.7677V43.7853C126.639 43.7853 126.252 45.1197 124.284 45.9933C122.316 46.8669 119.484 46.7389 117.929 46.2845C117.011 46.0198 116.177 45.5227 115.507 44.8413L116.294 46.1213C115.61 46.1712 114.924 46.0512 114.298 45.7721C113.671 45.4929 113.124 45.0633 112.703 44.5213C111.123 42.6013 113.964 38.9277 114.131 38.2173C114.297 37.5069 113.772 32.6429 118.972 32.5341C118.969 32.5309 121.033 32.0029 122.598 33.0717Z" fill="#A6A6A6"/>
<path d="M127.337 44.5087C127.856 44.0836 128.231 43.5094 128.413 42.8639C128.62 42.2289 128.609 41.5429 128.381 40.9151C128.052 40.1896 127.597 39.5286 127.037 38.9631C126.499 38.3519 125.913 37.7759 125.385 37.1519C125.357 37.1167 125.408 37.0751 125.44 37.1007C125.986 37.5427 126.507 38.016 126.998 38.5183C127.496 38.9687 127.939 39.4756 128.32 40.0287C128.667 40.5374 128.861 41.1348 128.88 41.7503C128.871 42.2554 128.739 42.7507 128.496 43.1935C128.179 43.6972 127.797 44.1567 127.36 44.5599C127.36 44.5599 127.309 44.5311 127.337 44.5087Z" fill="#A6A6A6"/>
<path d="M111.869 42.4093C112.147 40.5309 113.526 39.1165 114.205 37.3981C114.573 36.4701 114.806 35.4781 115.354 34.6205C115.354 34.5981 115.408 34.6205 115.392 34.6461C114.957 35.4013 114.778 36.2461 114.512 37.0653C114.221 37.8922 113.848 38.6877 113.398 39.4397C112.621 40.8221 111.686 42.4637 112.23 44.0989C112.48 44.8541 113.094 45.6253 113.933 45.7213C113.937 45.7199 113.941 45.7194 113.945 45.7199C113.949 45.7204 113.953 45.7219 113.956 45.7243C113.96 45.7267 113.962 45.7298 113.964 45.7335C113.966 45.7371 113.967 45.7412 113.967 45.7453C113.967 45.7495 113.966 45.7535 113.964 45.7572C113.962 45.7608 113.96 45.764 113.956 45.7663C113.953 45.7687 113.949 45.7702 113.945 45.7707C113.941 45.7712 113.937 45.7708 113.933 45.7693C113.596 45.7026 113.277 45.5677 112.995 45.3728C112.712 45.178 112.473 44.9274 112.291 44.6365C111.885 43.9697 111.735 43.1784 111.869 42.4093Z" fill="#A6A6A6"/>
<path d="M111.884 42.8989C111.706 42.2404 111.736 41.5428 111.971 40.9021C112.249 40.2902 112.655 39.7447 113.161 39.3021C113.715 38.7645 114.307 38.2429 114.582 37.5037C114.582 37.4717 114.639 37.5037 114.63 37.5261C114.198 38.7389 113.084 39.4781 112.438 40.5501C111.699 41.7789 111.983 43.3181 112.851 44.3901C113.395 45.0493 114.088 45.5702 114.873 45.9101C114.873 45.9101 114.873 45.9357 114.873 45.9293C113.526 45.3693 112.255 44.3645 111.884 42.8989Z" fill="#A6A6A6"/>
<path d="M117.859 52.5085C116.4 56.1277 110.608 67.8237 106.806 68.6493C104.32 69.1997 94.2205 68.2141 92.4797 65.8269C91.7245 64.7869 93.0045 57.5389 94.3485 57.8269C95.6925 58.1149 103.782 59.1837 104.774 58.8925C105.766 58.6013 113.213 50.0349 115.993 47.9069C120.79 44.2397 118.643 50.5597 117.859 52.5085Z" fill="#EB9481"/>
<path d="M97.4048 57.3023L97.1904 68.1983C97.1904 68.1983 105.19 69.6575 108.602 68.3359C112.762 66.7359 118.435 53.4943 119.2 51.3247C120.458 47.7631 119.997 45.6479 118.058 46.2399C117.302 46.4639 116.323 47.0975 115.136 48.2239C113.891 49.3951 106.781 56.9663 104.502 58.4319C103.229 59.2511 97.4048 57.3023 97.4048 57.3023Z" fill="#EBEBEB"/>
<path d="M99.2157 67.7372C99.2957 66.1372 99.3821 59.5324 99.3021 58.1052C99.3021 58.006 99.2349 57.9868 99.2253 58.0892C98.8701 62.9052 99.1485 66.15 99.1517 67.7308C99.1517 67.7724 99.1997 67.7788 99.2157 67.7372Z" fill="#263238"/>
<path d="M100.576 68.6653C103.175 68.9373 106.656 69.0941 108.605 68.3453C112.765 66.7453 118.435 53.5037 119.2 51.3341C120.458 47.7725 119.997 45.6605 118.058 46.2493C117.997 46.2493 117.936 46.2877 117.875 46.3101L100.576 68.6653Z" fill="#A6A6A6"/>
<path d="M111.786 61.6668L110.263 72.1244C110.263 72.1244 127.306 72.3772 131.539 72.0796C131.539 72.0796 128.087 52.5276 123.539 47.5868C121.261 45.1164 118.592 45.302 116.89 47.03C116.458 47.4652 111.315 54.262 110.775 56.8572C110.304 59.1452 111.786 61.6668 111.786 61.6668Z" fill="#C2C7D6"/>
<path d="M121.651 46.1406C121.651 46.1406 120.173 102.301 121.581 104.717C122.438 106.189 136.637 102.662 136.637 102.662C136.637 102.662 132.966 69.3822 128.752 57.5422C124.841 46.5598 121.651 46.1406 121.651 46.1406Z" fill="#EBEBEB"/>
<path d="M132.237 79.6606C130.8 79.8593 129.352 79.9726 127.901 79.9998C125.872 79.9998 123.856 79.8014 123.277 79.7918C123.223 79.7918 123.197 79.9646 123.232 79.9678C124.769 80.1529 126.315 80.2597 127.863 80.2878C129.28 80.2779 130.693 80.1441 132.087 79.8878C132.087 80.3166 132.087 80.6526 132.087 81.0814C130.656 81.3598 127.895 81.8366 123.447 81.2638C123.431 81.0846 123.447 80.1278 123.418 79.8654C123.418 79.8238 123.248 79.8174 123.239 79.8654C123.204 80.1246 123.098 82.4254 123.095 82.8894C123.095 84.0414 123.165 87.2958 123.45 87.9262C124.09 89.3534 126.877 89.3566 127.648 89.363C128.42 89.3694 130.896 89.4462 131.808 88.5374C132.304 88.0542 132.413 85.4174 132.34 83.0974C132.304 81.9998 132.304 79.6798 132.237 79.6606ZM127.853 89.091C125.396 89.091 124.333 88.579 123.949 88.067C123.508 87.4686 123.469 86.4286 123.437 85.2798C123.412 84.3774 123.437 81.5486 123.437 81.491C124.871 81.7822 128.647 82.1758 132.077 81.3758C132.077 82.7166 132.077 83.7886 132.077 85.1294C132.077 86.0894 132.016 87.7278 131.527 88.2942C131.127 88.7678 129.629 89.091 127.853 89.091Z" fill="#A6A6A6"/>
<path d="M110.515 103.667C109.693 104.07 101.709 99.36 101.709 99.36L111.68 61.4752C110.842 60.1067 110.515 58.4855 110.759 56.8992C111.2 54.3392 116.544 46.9472 117.405 46.5664C116.513 50.3854 115.894 54.2629 115.552 58.1696C114.083 74.1568 111.331 103.261 110.515 103.667Z" fill="#EBEBEB"/>
<path d="M112.455 53.4462C112.928 52.6878 113.415 51.9358 113.885 51.1742C113.885 51.1518 113.866 51.1262 113.85 51.1454C113.374 51.7726 112.906 52.4052 112.445 53.043C112.599 52.7038 112.746 52.3582 112.883 52.0126C112.899 51.971 112.845 51.939 112.826 51.9806C112.615 52.4286 112.423 52.883 112.234 53.3406C111.823 53.9108 111.459 54.5133 111.146 55.1422C110.459 56.4479 110.255 57.9538 110.57 59.395C110.665 59.7972 110.807 60.187 110.992 60.5566C111.12 60.8094 111.53 61.3566 111.527 61.3726C111.261 62.8638 111.059 64.371 110.848 65.8718C110.637 67.3726 110.666 69.3054 110.787 68.5566C111.027 67.0462 111.245 65.5326 111.463 64.019C111.587 63.1614 111.722 62.3038 111.821 61.459C111.678 61.1348 111.513 60.8205 111.328 60.5182C111.174 60.2015 111.049 59.8717 110.954 59.5326C110.757 58.8459 110.696 58.1274 110.775 57.4174C110.941 55.9518 111.68 54.659 112.455 53.4462Z" fill="#263238"/>
<path d="M117.379 46.7324C116.876 47.494 116.368 48.246 115.849 48.9948C115.331 49.7436 114.816 50.4956 114.284 51.2348V51.0588L115.564 52.3964L115.67 52.5084L115.558 52.6172C115.02 53.1388 114.473 53.6476 113.926 54.1628L113.974 54.0284C114.169 55.414 114.384 56.7996 114.56 58.1884C114.736 59.5772 114.921 60.966 115.075 62.3484C114.812 60.9724 114.569 59.59 114.339 58.2108C114.108 56.8316 113.891 55.4428 113.67 54.0508V53.974L113.728 53.9164C114.265 53.398 114.806 52.8796 115.353 52.3676V52.5884L114.099 51.2252L114.022 51.142L114.089 51.0492C114.624 50.3164 115.184 49.5964 115.731 48.87C116.278 48.1436 116.8 47.4396 117.379 46.7324Z" fill="#A6A6A6"/>
<path d="M126.275 49.4974C132.995 55.7886 140.87 66.691 138.086 69.363C136.24 71.139 126.969 59.2862 127.133 59.3182C127.481 59.3822 125.472 55.443 123.008 50.6782C120.259 45.3502 122.441 45.9006 126.275 49.4974Z" fill="#EB9481"/>
<path d="M123.005 46.7517C127.674 49.0653 140.522 64.0317 138.842 68.6493C137.162 73.2669 126.554 59.3853 126.663 59.1837C126.771 58.9821 124.077 53.7149 122.983 51.5709C121.888 49.4269 120.519 45.5197 123.005 46.7517Z" fill="#EBEBEB"/>
<path d="M123.638 54.0734C123.897 54.3454 124.15 54.6206 124.393 54.9054C124.438 54.9566 124.479 55.0142 124.521 55.0654C124.451 54.915 124.377 54.7646 124.303 54.6142C124.025 54.0949 123.775 53.5607 123.555 53.0142C123.555 52.9886 123.583 52.9726 123.599 52.995C123.93 53.5116 124.232 54.0457 124.505 54.595C124.79 55.123 125.081 55.651 125.356 56.195C125.631 56.739 125.913 57.2638 126.179 57.795C126.459 58.3189 126.702 58.8622 126.905 59.4206C126.905 59.4526 126.87 59.4686 126.851 59.443C126.503 58.9331 126.192 58.3984 125.923 57.843C125.641 57.3086 125.372 56.771 125.1 56.243C124.985 56.019 124.873 55.7918 124.764 55.5646L124.633 55.4174C124.511 55.2798 124.396 55.139 124.284 54.995C124.054 54.7006 123.836 54.3966 123.622 54.0894C123.615 54.0766 123.631 54.0638 123.638 54.0734Z" fill="#263238"/>
<path d="M121.677 46.7808C122.025 47.6 122.383 48.4128 122.752 49.2192C123.12 50.0256 123.479 50.8384 123.859 51.6384L123.895 51.4656L122.541 52.624L122.429 52.72L122.515 52.8416C122.931 53.4272 123.36 54.0032 123.795 54.5824L123.773 54.4448C123.399 55.792 123.008 57.136 122.653 58.4896C122.298 59.8432 121.92 61.2 121.581 62.5504C122.016 61.2224 122.429 59.888 122.835 58.5504C123.242 57.2128 123.632 55.8688 124.029 54.528L124.051 54.4544L124.007 54.3904C123.587 53.808 123.171 53.2224 122.743 52.6464L122.72 52.864L124.051 51.68L124.135 51.6064L124.087 51.5072C123.703 50.7104 123.296 49.9264 122.899 49.1328C122.503 48.3392 122.093 47.5616 121.677 46.7808Z" fill="#A6A6A6"/>
<path d="M122.367 48.0799C122.476 46.4063 121.11 45.8111 119.855 45.6415C118.367 45.4399 117.379 45.5647 116.655 47.0079C115.903 48.5279 115.513 50.2911 115.219 51.9551C115.208 52.0192 115.173 52.0766 115.121 52.1147C115.068 52.1528 115.003 52.1685 114.939 52.1583C114.875 52.1482 114.817 52.1129 114.779 52.0604C114.741 52.0079 114.725 51.9424 114.735 51.8783C115.071 49.9583 115.555 46.3839 117.462 45.3407C119.219 44.3807 123.027 45.3215 122.838 48.1599C122.815 48.4799 122.332 48.3935 122.355 48.0799H122.367Z" fill="#455A64"/>
<path d="M113.731 52.6463C113.696 52.8667 113.726 53.0927 113.82 53.2956C113.913 53.4985 114.064 53.6692 114.254 53.7859C114.445 53.9026 114.665 53.9602 114.889 53.9512C115.112 53.9422 115.327 53.8671 115.507 53.7355C115.688 53.6038 115.825 53.4215 115.901 53.2118C115.978 53.0021 115.99 52.7743 115.937 52.5574C115.884 52.3406 115.768 52.1444 115.603 51.9939C115.438 51.8433 115.232 51.7452 115.011 51.7119C114.718 51.6685 114.419 51.7421 114.18 51.9169C113.94 52.0918 113.779 52.3537 113.731 52.6463Z" fill="#263238"/>
<path d="M114.175 52.7168C114.154 52.8494 114.173 52.9853 114.229 53.1073C114.285 53.2293 114.376 53.3319 114.491 53.4021C114.605 53.4724 114.738 53.507 114.872 53.5018C115.006 53.4965 115.136 53.4515 115.244 53.3725C115.353 53.2936 115.436 53.1841 115.482 53.0581C115.528 52.932 115.536 52.7951 115.505 52.6646C115.473 52.534 115.404 52.4158 115.305 52.3248C115.206 52.2339 115.083 52.1743 114.95 52.1536C114.862 52.1395 114.772 52.1428 114.686 52.1635C114.599 52.1842 114.518 52.2218 114.446 52.2742C114.374 52.3265 114.313 52.3926 114.266 52.4685C114.22 52.5445 114.189 52.6288 114.175 52.7168Z" fill="#EBEBEB"/>
<path d="M120.672 53.3213C119.443 58.0317 119.635 59.1805 120.032 59.7213C120.328 60.0981 120.705 60.4023 121.136 60.6109L121.28 60.2909L121.21 60.4445L121.28 60.2909C120.906 60.1051 120.578 59.8384 120.32 59.5101C120.038 59.1197 119.802 58.0605 121.021 53.3981L120.672 53.3213Z" fill="#C7C7C7"/>
<path d="M120.754 60.1936L120.745 60.2104C120.65 60.3822 120.713 60.5982 120.884 60.6929L121.299 60.9215C121.471 61.0162 121.687 60.9537 121.782 60.7819L121.791 60.7651C121.886 60.5933 121.823 60.3772 121.651 60.2825L121.236 60.0539C121.065 59.9593 120.849 60.0218 120.754 60.1936Z" fill="#263238"/>
<path d="M123.747 53.4335C124.684 56.9791 124.915 58.9215 124.467 59.5423C124.209 59.8721 123.881 60.14 123.507 60.3263L123.651 60.6463C124.081 60.4372 124.458 60.1317 124.752 59.7535C125.286 59.0111 125.094 57.1583 124.086 53.3535L123.747 53.4335Z" fill="#C7C7C7"/>
<path d="M122.989 60.7864C122.966 60.7456 122.952 60.7008 122.947 60.6544C122.941 60.6081 122.945 60.5611 122.958 60.5163C122.971 60.4714 122.992 60.4295 123.021 60.393C123.05 60.3565 123.086 60.326 123.127 60.3033L123.538 60.0748C123.621 60.0286 123.719 60.0173 123.81 60.0434C123.902 60.0695 123.979 60.1308 124.025 60.2139C124.048 60.2546 124.062 60.2995 124.068 60.3458C124.073 60.3922 124.069 60.4391 124.056 60.4839C124.044 60.5288 124.022 60.5707 123.993 60.6072C123.964 60.6438 123.928 60.6742 123.887 60.6969L123.471 60.9286C123.43 60.9509 123.385 60.9649 123.338 60.9698C123.292 60.9747 123.245 60.9705 123.2 60.9573C123.156 60.9441 123.114 60.9222 123.078 60.8928C123.041 60.8635 123.011 60.8273 122.989 60.7864Z" fill="#263238"/>
<path d="M124.192 53.1995C124.037 52.4138 123.831 51.6389 123.577 50.8795C123.429 50.5434 123.192 50.2537 122.892 50.0411C122.825 50.0411 122.854 49.4363 122.892 48.9499C122.924 48.5179 122.969 48.0187 122.864 47.8779C122.803 47.815 122.721 47.7775 122.634 47.7733C122.547 47.7692 122.462 47.7986 122.396 47.8555C122.278 47.9835 122.272 48.4955 122.259 48.9179C122.243 49.4075 122.211 50.0027 122.144 50.0027C121.842 50.2 121.592 50.4666 121.414 50.7803C121.085 51.5306 120.814 52.3052 120.604 53.0971C120.496 53.6027 120.662 53.6636 120.806 53.7116C121.011 53.782 121.126 53.6412 121.299 53.0716C121.552 52.1852 121.872 50.6971 122.486 50.7003C123.097 50.7611 123.347 52.3355 123.545 53.2155C123.67 53.766 123.785 53.8171 123.996 53.7691C124.137 53.7499 124.291 53.6859 124.192 53.1995Z" fill="#263238"/>
<path d="M118.38 53.7789C118.38 53.7789 119.564 52.0061 118.288 51.2957C117.011 50.5853 116.131 52.5309 116.131 52.5309L118.38 53.7789Z" fill="#455A64"/>
<path d="M108.883 65.5648L108.829 67.6512L108.807 68.3424L109.386 67.9648L111.133 66.816L118.423 53.696L116.183 52.4448L108.893 65.5648H108.883Z" fill="#455A64"/>
<path d="M108.829 67.6543L108.81 68.3423L109.389 67.9647L108.829 67.6543Z" fill="#37474F"/>
<path d="M115.739 52.7964L118.365 54.2568L118.655 53.7367L116.028 52.2762L115.739 52.7964Z" fill="#263238"/>
<path d="M115.416 53.3765L118.042 54.8369L118.331 54.3167L115.705 52.8563L115.416 53.3765Z" fill="#263238"/>
<path d="M118.038 54.8381L117.193 54.3677L115.021 59.3693L115.344 59.5261L118.038 54.8381Z" fill="#263238"/>
<path d="M138.087 69.3632C135.562 71.8208 125.488 70.5024 119.066 68.5792C117.843 68.2112 121.792 57.3408 123.05 57.8656C124.38 58.4332 125.743 58.9184 127.133 59.3184C127.482 59.3824 140.855 66.6752 138.087 69.3632Z" fill="#EB9481"/>
<path d="M107.863 58.3198C107.959 59.539 110.941 59.0558 110.941 59.0558C110.526 59.3799 110.238 59.8399 110.128 60.355C109.975 61.2702 111.344 61.9102 111.344 61.9102C110.985 62.3373 110.762 62.8623 110.704 63.4174C110.647 64.3102 111.936 65.155 111.936 65.155C111.823 65.7295 111.919 66.3257 112.208 66.835C113.034 68.163 115.437 67.9966 116.948 68.1886C118.633 68.4372 120.296 68.8214 121.92 69.3374L123.783 58.1726C123.783 58.1726 117.04 54.8798 115.248 55.1134C113.754 55.3086 107.722 56.4574 107.863 58.3198Z" fill="#EB9481"/>
<path d="M110.963 59.0173C112.519 58.4253 114.208 58.2045 115.847 58.0093C115.854 58.0093 115.862 58.0123 115.867 58.0177C115.872 58.0231 115.875 58.0304 115.875 58.0381C115.875 58.0457 115.872 58.053 115.867 58.0584C115.862 58.0638 115.854 58.0669 115.847 58.0669C114.218 58.2429 112.599 58.8541 110.979 59.0941C110.971 59.0929 110.963 59.0892 110.957 59.0833C110.95 59.0774 110.946 59.0698 110.944 59.0613C110.942 59.0529 110.943 59.0441 110.947 59.0363C110.95 59.0284 110.956 59.0217 110.963 59.0173Z" fill="#263238"/>
<path d="M111.376 61.7854C111.741 61.6836 112.119 61.6309 112.499 61.6286C112.899 61.603 113.302 61.5806 113.702 61.5678C114.505 61.539 115.302 61.5294 116.115 61.5422C116.15 61.5422 116.16 61.5966 116.115 61.5998C115.315 61.6286 114.515 61.6702 113.715 61.7342L112.515 61.8398C112.14 61.8994 111.76 61.9176 111.382 61.8942C111.37 61.891 111.36 61.8842 111.353 61.8749C111.345 61.8655 111.341 61.8541 111.34 61.8421C111.339 61.8301 111.342 61.8182 111.349 61.808C111.355 61.7978 111.365 61.7899 111.376 61.7854Z" fill="#263238"/>
<path d="M111.967 65.1517C112.299 65.0662 112.644 65.038 112.985 65.0685L114.083 65.0461C114.815 65.0269 115.548 65.0077 116.281 64.9629C116.316 64.9629 116.323 65.0173 116.281 65.0205C115.539 65.0685 114.796 65.1261 114.041 65.1709L112.947 65.2253C112.614 65.273 112.276 65.261 111.948 65.1901C111.948 65.1837 111.951 65.1581 111.967 65.1517Z" fill="#263238"/>
<path d="M138.841 68.6492C137.161 73.2572 122.467 69.7212 122.467 69.7212L122.614 57.6284C122.614 57.6284 126.553 59.3852 126.662 59.1836C126.771 58.982 140.521 64.0444 138.841 68.6492Z" fill="#EBEBEB"/>
<path d="M124.605 69.1678C124.71 67.5678 124.893 61.043 124.835 59.6286C124.835 59.5294 124.768 59.5102 124.758 59.6126C124.336 64.3774 124.563 67.5934 124.544 69.1614C124.544 69.1998 124.605 69.1998 124.605 69.1678Z" fill="#263238"/>
<path d="M122.701 57.6288C123.13 57.7452 123.551 57.8928 123.958 58.0704C124.326 58.2144 124.694 58.3584 125.059 58.5088C125.856 58.8288 126.659 59.1743 127.43 59.5231C128.202 59.8719 128.998 60.224 129.773 60.592C130.547 60.96 131.302 61.3727 132.077 61.7407C132.112 61.7567 132.077 61.808 132.048 61.792C131.261 61.4368 130.448 61.1519 129.658 60.7999L127.325 59.8144L124.989 58.832C124.608 58.672 124.23 58.512 123.85 58.3424C123.434 58.1849 123.03 57.9988 122.64 57.7856C122.624 57.7745 122.612 57.7584 122.606 57.7398C122.601 57.7212 122.601 57.7012 122.608 57.6831C122.615 57.665 122.628 57.6497 122.645 57.6398C122.662 57.63 122.682 57.6261 122.701 57.6288Z" fill="#263238"/>
<path d="M122.416 69.4622C122.416 69.3822 122.458 69.3598 122.477 69.4622C122.496 69.5646 122.503 69.5934 122.515 69.6382C123.015 69.7246 124.835 70.1022 125.28 70.1886C126.215 70.3742 127.136 70.6014 128.08 70.7198C129.391 70.8863 130.711 70.9814 132.032 71.0046C132.04 71.0046 132.047 71.0076 132.053 71.013C132.058 71.0184 132.061 71.0258 132.061 71.0334C132.061 71.041 132.058 71.0484 132.053 71.0538C132.047 71.0592 132.04 71.0622 132.032 71.0622C130.71 71.1015 129.386 71.0651 128.067 70.9534C127.107 70.8414 126.147 70.6878 125.207 70.4926C124.733 70.3966 124.263 70.2846 123.792 70.1726C123.338 70.0832 122.893 69.9492 122.464 69.7726C122.449 69.7641 122.436 69.7516 122.427 69.7364C122.418 69.7212 122.413 69.7039 122.413 69.6862L122.416 69.4622Z" fill="#263238"/>
<path d="M99.027 69.3117L111.696 69.5805L106.128 53.2029L93.459 52.9341L99.027 69.3117Z" fill="white"/>
<path d="M98.1598 69.2926L110.825 69.5614L105.261 53.187L92.5918 52.915L98.1598 69.2926Z" fill="#37474F"/>
<path d="M103.914 53.1582C103.994 53.4432 104.184 53.6848 104.442 53.8302C104.563 53.8974 104.599 53.7406 104.48 53.6766C104.315 53.5819 104.188 53.4325 104.122 53.2542C104.122 53.2222 104.099 53.1902 104.093 53.1614C104.064 53.0566 104.064 52.9461 104.093 52.8414C104.106 52.7983 104.131 52.7602 104.167 52.7326H104.183H104.205C104.234 52.723 104.265 52.723 104.295 52.7326C104.35 52.7527 104.399 52.7856 104.439 52.8286C104.488 52.8797 104.529 52.938 104.56 53.0014C104.58 53.0312 104.598 53.0622 104.615 53.0942V53.1166C104.621 53.1266 104.627 53.1373 104.631 53.1486C104.632 53.156 104.632 53.1636 104.631 53.171H104.81C104.771 53.0572 104.716 52.9495 104.647 52.851C104.594 52.7666 104.524 52.6945 104.441 52.6393C104.358 52.5841 104.265 52.5472 104.167 52.531C104.095 52.5282 104.026 52.5529 103.972 52.5999C103.919 52.647 103.885 52.7128 103.879 52.7838C103.857 52.9095 103.869 53.0387 103.914 53.1582Z" fill="#C7C7C7"/>
<path d="M102.921 53.1356C103.001 53.4214 103.191 53.6641 103.449 53.8108C103.571 53.878 103.606 53.7212 103.488 53.6572C103.324 53.5594 103.198 53.4096 103.129 53.2316C103.129 53.2028 103.107 53.1708 103.1 53.142C103.072 53.0372 103.072 52.9267 103.1 52.822C103.11 52.7784 103.135 52.7398 103.171 52.7132H103.193C103.222 52.7036 103.254 52.7036 103.283 52.7132C103.338 52.7333 103.387 52.7662 103.427 52.8092C103.475 52.8609 103.516 52.9191 103.548 52.982C103.568 53.0118 103.586 53.0428 103.603 53.0748V53.0972C103.61 53.1068 103.615 53.1176 103.619 53.1292C103.619 53.1292 103.619 53.1452 103.619 53.1516H103.798C103.758 53.038 103.703 52.9304 103.635 52.8316C103.583 52.7464 103.513 52.6736 103.43 52.6183C103.347 52.563 103.253 52.5266 103.155 52.5116C103.083 52.508 103.013 52.5324 102.959 52.5796C102.906 52.6268 102.872 52.6931 102.867 52.7644C102.853 52.8907 102.872 53.0185 102.921 53.1356Z" fill="#C7C7C7"/>
<path d="M101.929 53.1165C102.012 53.4014 102.203 53.6427 102.461 53.7885C102.579 53.8557 102.614 53.6989 102.496 53.6349C102.331 53.538 102.205 53.3879 102.137 53.2093C102.137 53.1805 102.118 53.1485 102.112 53.1197C102.082 53.0152 102.082 52.9043 102.112 52.7997C102.123 52.756 102.149 52.7176 102.185 52.6909H102.202H102.227C102.255 52.6832 102.285 52.6832 102.314 52.6909C102.369 52.7115 102.419 52.7456 102.458 52.7901C102.507 52.8399 102.548 52.8972 102.579 52.9597C102.6 52.9899 102.619 53.022 102.634 53.0557V53.0781C102.635 53.0887 102.635 53.0995 102.634 53.1101C102.634 53.1101 102.634 53.1101 102.634 53.1325H102.816C102.774 53.0193 102.718 52.9118 102.65 52.8125C102.597 52.7278 102.527 52.6553 102.444 52.6001C102.362 52.5448 102.268 52.5081 102.169 52.4925C102.098 52.489 102.028 52.5134 101.974 52.5606C101.921 52.6078 101.887 52.674 101.881 52.7453C101.866 52.8711 101.883 52.9988 101.929 53.1165Z" fill="#C7C7C7"/>
<path d="M100.941 53.0944C101.021 53.3804 101.21 53.6232 101.469 53.7696C101.587 53.8368 101.622 53.6768 101.504 53.616C101.341 53.5173 101.215 53.3678 101.146 53.1904C101.146 53.1616 101.126 53.1264 101.12 53.0976C101.089 52.9932 101.089 52.882 101.12 52.7776C101.13 52.7326 101.156 52.6929 101.194 52.6656H101.21H101.235C101.263 52.6563 101.294 52.6563 101.322 52.6656C101.378 52.6837 101.427 52.717 101.466 52.7616C101.516 52.8127 101.558 52.8709 101.59 52.9344C101.609 52.9642 101.626 52.9952 101.642 53.0272V53.0496C101.643 53.0602 101.643 53.071 101.642 53.0816C101.642 53.0816 101.642 53.0816 101.642 53.104H101.821C101.78 52.9902 101.724 52.8825 101.654 52.784C101.602 52.6994 101.532 52.627 101.449 52.5718C101.366 52.5166 101.273 52.4798 101.174 52.464C101.103 52.462 101.034 52.4869 100.981 52.5338C100.927 52.5807 100.894 52.6461 100.886 52.7168C100.87 52.8452 100.889 52.9757 100.941 53.0944Z" fill="#C7C7C7"/>
<path d="M99.9485 53.0748C100.028 53.36 100.218 53.6017 100.477 53.7468C100.595 53.814 100.63 53.6572 100.515 53.5932C100.353 53.4946 100.228 53.3449 100.16 53.1676C100.16 53.1388 100.141 53.1068 100.134 53.078C100.106 52.9733 100.106 52.8628 100.134 52.758C100.144 52.7136 100.17 52.6746 100.208 52.6492H100.233C100.263 52.6416 100.294 52.6416 100.323 52.6492C100.377 52.6698 100.425 52.7026 100.464 52.7452C100.512 52.7975 100.554 52.8555 100.589 52.918C100.608 52.9468 100.624 52.9788 100.643 53.014V53.0332C100.644 53.0449 100.644 53.0567 100.643 53.0684C100.643 53.0684 100.643 53.0684 100.643 53.0876H100.822C100.782 52.9738 100.726 52.8661 100.656 52.7676C100.605 52.6822 100.536 52.6092 100.453 52.5538C100.371 52.4985 100.277 52.4622 100.179 52.4476C100.107 52.444 100.037 52.4683 99.9825 52.5154C99.9282 52.5626 99.8942 52.6288 99.8877 52.7004C99.8743 52.8284 99.8953 52.9577 99.9485 53.0748Z" fill="#C7C7C7"/>
<path d="M98.9568 53.0527C99.0371 53.3377 99.2269 53.5793 99.4848 53.7247C99.6032 53.7919 99.6416 53.6351 99.5232 53.5711C99.3579 53.4752 99.2312 53.3247 99.1648 53.1455C99.1648 53.1167 99.1424 53.0847 99.136 53.0559C99.1074 52.9512 99.1074 52.8407 99.136 52.7359C99.1486 52.6928 99.1743 52.6548 99.2096 52.6271H99.2256H99.248C99.2772 52.6178 99.3085 52.6178 99.3376 52.6271C99.3935 52.6453 99.4433 52.6785 99.4816 52.7231C99.5298 52.7737 99.5707 52.8308 99.6032 52.8927L99.6576 52.9887V53.0111L99.6736 53.0431C99.6736 53.0431 99.6736 53.0431 99.6736 53.0655H99.8528C99.8135 52.9518 99.7586 52.8441 99.6896 52.7455C99.6369 52.6612 99.5668 52.589 99.4841 52.5338C99.4013 52.4787 99.3078 52.4417 99.2096 52.4255C99.138 52.4227 99.0681 52.4473 99.014 52.4942C98.9599 52.5412 98.9257 52.607 98.9184 52.6783C98.8997 52.8044 98.9129 52.9331 98.9568 53.0527Z" fill="#C7C7C7"/>
<path d="M97.9644 53.0304C98.0446 53.3162 98.2344 53.5589 98.4925 53.7056C98.6141 53.7728 98.6493 53.616 98.5309 53.552C98.3663 53.4552 98.2398 53.305 98.1725 53.1264C98.1725 53.0976 98.1501 53.0656 98.1437 53.0368C98.1151 52.932 98.1151 52.8215 98.1437 52.7168C98.1554 52.6724 98.1812 52.6331 98.2172 52.6048H98.2333H98.2396C98.2688 52.5952 98.3001 52.5952 98.3293 52.6048C98.3842 52.6249 98.4336 52.6578 98.4733 52.7008C98.5223 52.7519 98.5632 52.8102 98.5949 52.8736C98.6149 52.9034 98.633 52.9344 98.6493 52.9664V52.9888C98.6552 52.9991 98.6606 53.0098 98.6653 53.0208C98.6663 53.0282 98.6663 53.0357 98.6653 53.0432H98.8797C98.8397 52.9297 98.7848 52.8221 98.7165 52.7232C98.6644 52.6383 98.5945 52.5657 98.5116 52.5104C98.4287 52.4552 98.3349 52.4186 98.2364 52.4032C98.165 52.3996 98.095 52.424 98.0412 52.4712C97.9875 52.5184 97.9542 52.5847 97.9484 52.656C97.9202 52.78 97.9257 52.9093 97.9644 53.0304Z" fill="#C7C7C7"/>
<path d="M96.9595 53.0111C97.0408 53.2964 97.2318 53.538 97.4907 53.6831C97.6091 53.7503 97.6443 53.5935 97.5259 53.5295C97.3615 53.4325 97.235 53.2824 97.1675 53.1039C97.1675 53.0751 97.1451 53.0431 97.1387 53.0143C97.11 52.9095 97.11 52.799 97.1387 52.6943C97.15 52.6514 97.1746 52.6133 97.2091 52.5855C97.2091 52.5855 97.2091 52.5855 97.2251 52.5855H97.2475C97.2768 52.5776 97.3077 52.5776 97.3371 52.5855C97.3922 52.6068 97.4415 52.6408 97.4811 52.6847C97.5293 52.7353 97.5702 52.7924 97.6027 52.8543C97.6227 52.8852 97.6409 52.9172 97.6571 52.9503V52.9727C97.6655 52.9815 97.6711 52.9926 97.6731 53.0047C97.6731 53.0047 97.6731 53.0047 97.6731 53.0271H97.8523C97.813 52.9133 97.7581 52.8056 97.6891 52.7071C97.6373 52.6219 97.5676 52.5491 97.4846 52.4938C97.4017 52.4385 97.3076 52.4021 97.2091 52.3871C97.1377 52.3835 97.0676 52.4079 97.0139 52.4551C96.9601 52.5023 96.9268 52.5686 96.9211 52.6399C96.9028 52.7649 96.916 52.8925 96.9595 53.0111Z" fill="#C7C7C7"/>
<path d="M95.981 52.9885C96.0626 53.2737 96.2535 53.5152 96.5122 53.6605C96.6306 53.7309 96.6658 53.5709 96.5474 53.5069C96.3831 53.4112 96.2567 53.2621 96.189 53.0845C96.189 53.0557 96.1698 53.0205 96.1634 52.9917C96.1324 52.8873 96.1324 52.7761 96.1634 52.6717C96.1736 52.6268 96.1998 52.587 96.237 52.5597H96.2626C96.2906 52.5504 96.3209 52.5504 96.349 52.5597C96.4043 52.579 96.4539 52.612 96.493 52.6557C96.5428 52.7062 96.5839 52.7646 96.6146 52.8285C96.6357 52.8576 96.654 52.8887 96.669 52.9213V52.9437C96.6702 52.9543 96.6702 52.9651 96.669 52.9757C96.669 52.9757 96.669 52.9917 96.669 52.9981H96.8514C96.8096 52.8849 96.7537 52.7774 96.685 52.6781C96.6322 52.5938 96.5622 52.5216 96.4794 52.4664C96.3967 52.4113 96.3031 52.3743 96.205 52.3581C96.1337 52.3554 96.0641 52.38 96.0105 52.4271C95.957 52.4741 95.9235 52.5399 95.917 52.6109C95.9056 52.7402 95.9277 52.8702 95.981 52.9885Z" fill="#C7C7C7"/>
<path d="M94.9923 52.9661C95.0313 53.108 95.0981 53.2407 95.1887 53.3566C95.2793 53.4725 95.392 53.5692 95.5203 53.6413C95.6387 53.7085 95.6739 53.5517 95.5555 53.4877C95.3925 53.3891 95.2665 53.2395 95.1971 53.0621C95.1971 53.0333 95.1779 53.0013 95.1715 52.9725C95.1413 52.868 95.1413 52.7571 95.1715 52.6525C95.181 52.6081 95.2074 52.5691 95.2451 52.5437H95.2611H95.2867C95.3147 52.5345 95.345 52.5345 95.3731 52.5437C95.429 52.5619 95.4788 52.5951 95.5171 52.6397C95.5663 52.6914 95.6083 52.7495 95.6419 52.8125C95.6615 52.8431 95.6786 52.8752 95.6931 52.9085V52.9277C95.6944 52.9394 95.6944 52.9512 95.6931 52.9629C95.6931 52.9629 95.6931 52.9629 95.6931 52.9821H95.8723C95.8318 52.8683 95.7758 52.7606 95.7059 52.6621C95.6545 52.5767 95.5848 52.5036 95.5018 52.4483C95.4188 52.393 95.3245 52.3567 95.2259 52.3421C95.1544 52.3386 95.0844 52.363 95.0306 52.4102C94.9769 52.4574 94.9436 52.5236 94.9379 52.5949C94.9224 52.7213 94.9412 52.8495 94.9923 52.9661Z" fill="#C7C7C7"/>
<path d="M93.9995 52.9471C94.0794 53.2323 94.2693 53.474 94.5275 53.6191C94.6459 53.6863 94.6811 53.5295 94.5659 53.4655C94.4006 53.3687 94.2731 53.2187 94.2043 53.0399C94.2043 53.0111 94.1851 52.9791 94.1787 52.9503C94.1501 52.8456 94.1501 52.7351 94.1787 52.6303C94.1899 52.5866 94.2159 52.5482 94.2523 52.5215H94.2779C94.3072 52.5136 94.3381 52.5136 94.3675 52.5215C94.422 52.5422 94.4705 52.5763 94.5083 52.6207C94.5574 52.6713 94.5994 52.7283 94.6331 52.7903C94.6523 52.8191 94.6683 52.8543 94.6875 52.8863V52.9087C94.6888 52.9193 94.6888 52.9301 94.6875 52.9407C94.6893 52.9481 94.6893 52.9557 94.6875 52.9631H94.8667C94.8262 52.8493 94.7702 52.7416 94.7003 52.6431C94.649 52.5581 94.5798 52.4855 94.4974 52.4302C94.415 52.3749 94.3215 52.3383 94.2235 52.3231C94.1517 52.3195 94.0813 52.3438 94.027 52.3909C93.9728 52.438 93.9388 52.5043 93.9323 52.5759C93.9215 52.7034 93.9446 52.8315 93.9995 52.9471Z" fill="#C7C7C7"/>
<path d="M93.0075 52.9247C93.0877 53.2105 93.2774 53.4532 93.5355 53.5999C93.6539 53.6671 93.6924 53.5071 93.574 53.4463C93.4094 53.3496 93.2829 53.1994 93.2155 53.0207C93.2155 52.9919 93.1931 52.9567 93.1867 52.9279C93.1575 52.8232 93.1575 52.7126 93.1867 52.6079C93.1985 52.5636 93.2243 52.5243 93.2603 52.4959H93.2763H93.2987C93.3279 52.4866 93.3592 52.4866 93.3883 52.4959C93.4433 52.516 93.4927 52.5489 93.5324 52.5919C93.5813 52.6431 93.6223 52.7013 93.654 52.7647C93.6732 52.7935 93.6891 52.8255 93.7083 52.8575V52.8799V52.9119C93.7083 52.9119 93.7083 52.9119 93.7083 52.9343H93.8876C93.8483 52.8206 93.7933 52.7129 93.7244 52.6143C93.6723 52.5294 93.6024 52.4568 93.5195 52.4016C93.4366 52.3463 93.3428 52.3097 93.2444 52.2943C93.1726 52.2907 93.1022 52.315 93.0479 52.3621C92.9936 52.4092 92.9597 52.4755 92.9531 52.5471C92.9384 52.6756 92.9571 52.8056 93.0075 52.9247Z" fill="#C7C7C7"/>
<path d="M93.4047 56.6206C92.8063 58.019 91.2319 59.7918 91.1391 60.9214C91.1072 61.1984 91.1653 61.4783 91.3047 61.7198C91.4442 61.9612 91.6576 62.1514 91.9135 62.2622C91.9135 62.2622 90.8159 62.867 90.9023 63.9038C90.9471 64.4382 91.8399 64.835 91.8399 64.835C91.8399 64.835 90.9791 65.3566 91.1135 66.275C91.2223 67.0046 92.0991 67.2926 92.0991 67.2926C92.0991 67.2926 91.5071 68.179 91.8559 68.8926C92.5599 70.3326 98.8959 70.0798 99.7855 67.7086C100.198 66.6014 98.6559 66.7486 98.6559 66.7486C98.6559 66.7486 100.826 66.003 100.806 64.6974C100.787 63.3918 98.7935 63.699 98.7935 63.699C98.7935 63.699 100.893 62.9566 100.736 61.603C100.573 60.195 98.6303 60.8446 98.6303 60.8446C98.6303 60.8446 100.003 59.8334 99.6447 58.8254C99.0559 57.1582 96.4703 59.3854 95.0655 59.1102L94.2079 56.8446L93.4047 56.6206Z" fill="#EB9481"/>
<path d="M92.2114 58.6654C92.6626 57.2926 90.9315 55.683 91.1618 54.307C91.4818 52.4446 93.6386 54.1726 94.2082 56.8382L94.285 58.9822L92.2114 58.6654Z" fill="#EB9481"/>
<path d="M92.2299 67.3597C92.2256 67.3597 92.2215 67.3614 92.2185 67.3644C92.2155 67.3674 92.2139 67.3714 92.2139 67.3757C92.2139 67.3799 92.2155 67.384 92.2185 67.387C92.2215 67.39 92.2256 67.3917 92.2299 67.3917C94.4152 67.8443 96.6865 67.6211 98.7418 66.7517C98.809 66.7229 98.7866 66.6045 98.7098 66.6237C96.597 67.1819 94.4141 67.4298 92.2299 67.3597Z" fill="#263238"/>
<path d="M91.8081 64.8477C91.7857 64.8477 91.7825 64.8893 91.8081 64.8925C93.9809 65.3213 96.7265 65.0461 98.8705 63.7469C98.9441 63.7021 98.9665 63.5869 98.8705 63.6317C97.3857 64.3997 93.8593 64.9437 91.8081 64.8477Z" fill="#263238"/>
<path d="M98.7585 60.6944C96.6529 61.8624 94.3873 62.2336 92.0033 62.2944C91.9713 62.2944 91.9745 62.3392 92.0033 62.3456C93.1745 62.64 94.6913 62.448 95.8433 62.2016C96.9316 61.9934 97.9459 61.5022 98.7841 60.7776C98.8321 60.7392 98.8033 60.672 98.7585 60.6944Z" fill="#263238"/>
<path d="M121.053 46.6048C120.928 46.9248 119.702 49.072 118.173 49.072C117.213 49.072 117.443 45.7664 117.443 45.7664L117.427 45.5616L117.203 42.6816L120.787 41.0496L121.302 40.8384C121.302 40.8384 121.302 41.6288 121.302 42.6176V42.7584C121.302 42.8128 121.302 42.8672 121.302 42.9184C121.302 43.0656 121.302 43.216 121.302 43.3664C121.302 43.5168 121.302 43.5936 121.302 43.712C121.302 43.8304 121.302 43.9488 121.302 44.0704C121.277 44.9199 121.193 45.7666 121.053 46.6048Z" fill="#EB9481"/>
<path d="M121.309 42.6144C120.915 43.3562 120.366 44.0039 119.698 44.5127C119.03 45.0215 118.259 45.3794 117.44 45.5616L117.216 42.6816L120.8 41.0496L121.315 40.8384C121.315 40.8384 121.305 41.6256 121.309 42.6144Z" fill="#263238"/>
<path d="M113.296 38.5472C112.995 43.6128 115.993 44.3648 117.088 44.4288C118.08 44.4864 121.462 44.5568 122.288 39.552C123.113 34.5472 120.851 32.8032 118.588 32.5504C116.326 32.2976 113.6 33.4816 113.296 38.5472Z" fill="#EB9481"/>
<path d="M114.083 37.3727C114.198 37.3557 114.312 37.3322 114.425 37.3023C114.55 37.2944 114.668 37.2448 114.761 37.1615C114.786 37.13 114.799 37.0911 114.799 37.0511C114.799 37.0111 114.786 36.9722 114.761 36.9407C114.703 36.8856 114.632 36.8468 114.555 36.8283C114.477 36.8097 114.396 36.8121 114.319 36.8351C114.158 36.8585 114.011 36.9405 113.907 37.0655C113.884 37.0955 113.87 37.1317 113.868 37.1694C113.865 37.2071 113.874 37.2448 113.893 37.2776C113.911 37.3104 113.939 37.3369 113.973 37.3538C114.007 37.3708 114.045 37.3773 114.083 37.3727Z" fill="#A6A6A6"/>
<path d="M117.398 37.3981C117.28 37.3821 117.171 37.3501 117.056 37.3245C116.931 37.3131 116.814 37.2627 116.72 37.1805C116.696 37.1487 116.683 37.1099 116.683 37.0701C116.683 37.0302 116.696 36.9914 116.72 36.9597C116.778 36.9049 116.849 36.8665 116.927 36.8485C117.004 36.8305 117.085 36.8335 117.161 36.8573C117.323 36.8827 117.469 36.9656 117.574 37.0909C117.596 37.1212 117.608 37.1571 117.61 37.1943C117.612 37.2314 117.603 37.2683 117.584 37.3006C117.566 37.3329 117.538 37.3592 117.505 37.3765C117.472 37.3937 117.435 37.4012 117.398 37.3981Z" fill="#A6A6A6"/>
<path d="M116.668 38.6748C116.668 38.6748 116.694 38.694 116.694 38.7068C116.675 39.0524 116.694 39.4524 117.014 39.574C117.014 39.574 117.014 39.5964 117.014 39.5932C116.633 39.5292 116.595 39.0012 116.668 38.6748Z" fill="#263238"/>
<path d="M116.986 38.3232C117.543 38.2976 117.555 39.4112 117.04 39.4368C116.525 39.4624 116.522 38.3456 116.986 38.3232Z" fill="#263238"/>
<path d="M117.207 38.3807C117.306 38.4415 117.402 38.5535 117.527 38.5631C117.651 38.5727 117.763 38.4575 117.847 38.3423H117.866C117.866 38.5567 117.792 38.7775 117.565 38.8127C117.338 38.8479 117.203 38.6559 117.146 38.4415C117.12 38.4159 117.168 38.3551 117.207 38.3807Z" fill="#263238"/>
<path d="M114.748 38.6396C114.748 38.6396 114.719 38.6396 114.719 38.6716C114.739 39.0172 114.7 39.414 114.399 39.5356V39.5548C114.774 39.494 114.819 38.9628 114.748 38.6396Z" fill="#263238"/>
<path d="M114.432 38.2844C113.875 38.2524 113.853 39.3692 114.368 39.398C114.883 39.4268 114.899 38.31 114.432 38.2844Z" fill="#263238"/>
<path d="M114.198 38.3548C114.109 38.4124 114.019 38.518 113.913 38.5212C113.808 38.5244 113.705 38.406 113.629 38.2876C113.629 38.2876 113.629 38.2876 113.609 38.2876C113.609 38.4988 113.667 38.7228 113.872 38.7676C114.077 38.8124 114.192 38.63 114.253 38.4188C114.262 38.39 114.24 38.3292 114.198 38.3548Z" fill="#263238"/>
<path d="M115.2 40.1788C115.2 40.1788 115.13 40.694 115.13 40.9372C115.13 40.9596 115.19 40.9692 115.27 40.9756C115.48 41.014 115.696 40.994 115.894 40.9178C116.093 40.8416 116.267 40.7122 116.397 40.5436C116.413 40.5212 116.397 40.4956 116.359 40.5116C116.048 40.7224 115.678 40.8278 115.303 40.8124C115.287 40.7452 115.453 39.9324 115.415 39.9292C115.227 39.9475 115.042 39.9894 114.864 40.054C114.979 38.9756 115.27 37.926 115.37 36.854C115.369 36.8469 115.366 36.8402 115.361 36.8348C115.356 36.8294 115.35 36.8255 115.343 36.8238C115.336 36.8221 115.329 36.8225 115.322 36.825C115.316 36.8276 115.31 36.8321 115.306 36.838C114.961 37.9554 114.729 39.1047 114.614 40.2684C114.602 40.3996 115.104 40.2204 115.2 40.1788Z" fill="#263238"/>
<path d="M122.265 39.3598C121.433 39.4814 121.123 37.7598 121.123 37.7598C121.123 37.7598 119.43 37.8782 118.704 35.4814C118.803 36.208 119.112 36.8898 119.593 37.443C119.593 37.443 116.582 37.331 115.155 34.915C115.155 34.915 115.744 36.1534 116.243 36.5758C115.47 36.3943 114.781 35.9568 114.288 35.3342C114.288 35.3342 113.862 36.8126 113.484 37.2542C113.484 37.2542 112.793 34.7134 113.804 33.331C115.929 30.4222 119.721 32.7102 119.721 32.7102C119.721 32.7102 121.795 32.931 122.601 34.4414C123.84 36.7518 122.265 39.3598 122.265 39.3598Z" fill="#A6A6A6"/>
<path d="M121.437 39.2828C121.437 39.2828 122.502 37.6828 123.232 38.0444C123.961 38.406 123.19 40.7388 122.355 41.0748C122.251 41.1259 122.138 41.1553 122.022 41.1613C121.906 41.1673 121.791 41.1497 121.682 41.1096C121.574 41.0695 121.474 41.0077 121.39 40.928C121.306 40.8483 121.239 40.7524 121.193 40.646L121.437 39.2828Z" fill="#EB9481"/>
<path d="M122.995 38.7036V38.726C122.413 38.982 122.115 39.5388 121.914 40.1148C121.946 40.0547 121.992 40.0023 122.046 39.9614C122.101 39.9204 122.164 39.8918 122.231 39.8775C122.298 39.8632 122.367 39.8635 122.434 39.8786C122.501 39.8936 122.563 39.9229 122.618 39.9644C122.634 39.9644 122.618 39.9996 122.602 39.9964C122.497 39.9667 122.385 39.9702 122.282 40.0062C122.179 40.0423 122.089 40.1093 122.026 40.198C121.921 40.3475 121.832 40.5072 121.76 40.6748C121.735 40.7292 121.639 40.7036 121.658 40.6396C121.629 39.8748 122.186 38.7996 122.995 38.7036Z" fill="#263238"/>
<path d="M71.0557 150.009H39.3438V146.851L42.0862 143.651H71.0557V150.009Z" fill="#263238"/>
<path d="M83.5069 150.009H71.0557V143.651H80.3069L83.5069 146.832V150.009Z" fill="#37474F"/>
<path d="M51.0522 109.718H46.1562V143.651H51.0522V109.718Z" fill="#263238"/>
<path d="M62.045 109.718H51.0498V143.651H62.045V109.718Z" fill="#37474F"/>
<path d="M70.8827 134.125H56.6299V136.339H70.8827V134.125Z" fill="#263238"/>
<path d="M76.4796 134.125H70.8828V136.339H76.4796V134.125Z" fill="#37474F"/>
<path d="M85.0497 99.9649H82.877L85.5073 94.3232H87.6801L85.0497 99.9649Z" fill="#A6A6A6"/>
<path d="M91.7922 91.6001H85.4722C85.4722 91.6001 85.6002 95.3921 82.781 95.3921C82.403 95.4103 82.0278 95.3192 81.7004 95.1296C81.3729 94.9401 81.107 94.6601 80.9346 94.3233C80.9346 94.3233 81.9714 96.5281 83.885 96.5281H88.0642C89.2002 96.5409 91.5682 95.7601 91.7922 91.6001Z" fill="#A6A6A6"/>
<path d="M80.2842 91.6001H86.6074C86.6074 91.6001 86.4762 95.3921 89.2954 95.3921C89.6738 95.4105 90.0495 95.3195 90.3775 95.13C90.7055 94.9404 90.972 94.6604 91.145 94.3233C91.145 94.3233 90.1082 96.5281 88.1946 96.5281H84.0122C82.8794 96.5409 80.5114 95.7601 80.2842 91.6001Z" fill="#C7C7C7"/>
<path d="M76.8739 108.765C76.8746 108.9 76.8351 109.032 76.7606 109.144C76.6861 109.257 76.5799 109.345 76.4554 109.397C76.3309 109.449 76.1938 109.463 76.0613 109.437C75.9289 109.411 75.8072 109.346 75.7115 109.251C75.6159 109.156 75.5506 109.034 75.5241 108.902C75.4975 108.77 75.5108 108.633 75.5623 108.508C75.6138 108.383 75.7012 108.277 75.8133 108.202C75.9255 108.126 76.0574 108.086 76.1923 108.086C76.3726 108.086 76.5454 108.158 76.6732 108.285C76.8009 108.412 76.8731 108.585 76.8739 108.765Z" fill="#C7C7C7"/>
<path d="M76.4416 108.918L75.9424 108.611L82.2528 98.3901H84.0672V98.9757H82.5792L76.4416 108.918Z" fill="#A6A6A6"/>
<path d="M55.5652 86.1952C55.5652 86.5344 55.4646 86.866 55.2761 87.1481C55.0876 87.4302 54.8198 87.65 54.5063 87.7798C54.1929 87.9096 53.8481 87.9436 53.5153 87.8774C53.1826 87.8112 52.877 87.6479 52.6371 87.408C52.3973 87.1681 52.2339 86.8625 52.1677 86.5298C52.1015 86.1971 52.1355 85.8522 52.2653 85.5388C52.3951 85.2254 52.615 84.9575 52.897 84.769C53.1791 84.5806 53.5107 84.48 53.85 84.48C54.0752 84.48 54.2982 84.5243 54.5063 84.6105C54.7144 84.6967 54.9035 84.8231 55.0628 84.9823C55.2221 85.1416 55.3484 85.3307 55.4346 85.5388C55.5208 85.7469 55.5652 85.9699 55.5652 86.1952Z" fill="#37474F"/>
<path d="M53.8493 87.0814C54.3388 87.0814 54.7357 86.6845 54.7357 86.195C54.7357 85.7055 54.3388 85.3086 53.8493 85.3086C53.3597 85.3086 52.9629 85.7055 52.9629 86.195C52.9629 86.6845 53.3597 87.0814 53.8493 87.0814Z" fill="#455A64"/>
<path d="M77.9548 105.251C77.9548 105.59 77.8541 105.922 77.6655 106.204C77.4769 106.486 77.2088 106.706 76.8952 106.836C76.5816 106.966 76.2366 106.999 75.9038 106.933C75.571 106.866 75.2654 106.703 75.0257 106.463C74.7859 106.222 74.6228 105.916 74.557 105.584C74.4912 105.251 74.5256 104.906 74.6559 104.592C74.7862 104.279 75.0065 104.011 75.289 103.823C75.5715 103.635 75.9034 103.535 76.2428 103.536C76.6972 103.536 77.1326 103.718 77.4536 104.039C77.7745 104.361 77.9548 104.797 77.9548 105.251Z" fill="#37474F"/>
<path d="M76.2428 106.138C76.7324 106.138 77.1292 105.741 77.1292 105.251C77.1292 104.762 76.7324 104.365 76.2428 104.365C75.7533 104.365 75.3564 104.762 75.3564 105.251C75.3564 105.741 75.7533 106.138 76.2428 106.138Z" fill="#455A64"/>
<path d="M75.6448 105.494L67.9616 86.8416H53.8496V85.5488H68.8288L76.8384 105.005L75.6448 105.494Z" fill="#455A64"/>
<path d="M76.7171 96.8862H36.1475V102.989H76.7171V96.8862Z" fill="#37474F"/>
<path d="M64.5053 96.886H36.1469L22.3965 62.9404H50.7549L64.5053 96.886Z" fill="#37474F"/>
<path d="M64.5057 96.886H43.0209L29.2705 62.9404H50.7553L64.5057 96.886Z" fill="#455A64"/>
<path d="M54.4579 102.985H76.7139V96.8829H54.4579V102.985Z" fill="#455A64"/>
<path d="M50.7547 49.8784H24.2363V62.9408H50.7547V49.8784Z" fill="#37474F"/>
<path d="M50.7553 49.8784H29.2705V62.9408H50.7553V49.8784Z" fill="#37474F"/>
<path d="M53.44 56.6463C53.44 60.1887 50.0128 62.5983 50.0128 62.5983H30.1729V50.6943H50.0128C50.0128 50.6943 53.44 53.1039 53.44 56.6463Z" fill="#455A64"/>
<path d="M30.1953 62.5951V50.6943C30.1953 50.6943 33.6225 53.1039 33.6225 56.6463C33.6225 60.1887 30.1953 62.5951 30.1953 62.5951Z" fill="#37474F"/>
<path d="M32.9756 66.6621C34.5084 66.5981 36.0444 66.5661 37.5772 66.5405C39.11 66.5149 40.646 66.5181 42.1788 66.5053C43.7116 66.4925 45.2476 66.5053 46.7836 66.5405L49.0844 66.5853C49.8492 66.6109 50.6172 66.6269 51.3852 66.6621C50.6172 66.7005 49.8492 66.7165 49.0844 66.7421L46.7836 66.7869C45.2476 66.8125 43.7148 66.8125 42.1788 66.8221C40.6428 66.8317 39.1132 66.8221 37.5772 66.7869C36.0412 66.7517 34.5084 66.7293 32.9756 66.6621Z" fill="#37474F"/>
<path d="M36.1602 74.8318C37.693 74.7646 39.2258 74.7326 40.7618 74.707C42.2978 74.6814 43.8306 74.6846 45.3634 74.6718C46.8962 74.659 48.4322 74.6718 49.965 74.707L52.2658 74.7518C53.0338 74.7806 53.8018 74.7934 54.5698 74.8318C53.8018 74.867 53.0338 74.883 52.2658 74.9086L49.965 74.9534C48.4322 74.979 46.8994 74.979 45.3634 74.9918C43.8274 75.0046 42.2946 74.9918 40.7618 74.9534C39.229 74.915 37.6802 74.8958 36.1602 74.8318Z" fill="#37474F"/>
<path d="M39.3154 82.9983C40.8514 82.9311 42.3842 82.9023 43.9202 82.8767C45.4562 82.8511 46.9858 82.8511 48.5218 82.8383C50.0578 82.8255 51.5906 82.8383 53.1234 82.8767L55.4242 82.9183C56.1922 82.9471 56.9602 82.9631 57.725 82.9983C56.9602 83.0335 56.1922 83.0495 55.4242 83.0783L53.1234 83.1199C51.5906 83.1455 50.0546 83.1455 48.5218 83.1583C46.989 83.1711 45.453 83.1583 43.9202 83.1199C42.3874 83.0815 40.8514 83.0655 39.3154 82.9983Z" fill="#37474F"/>
<path d="M42.4863 91.1648C44.0223 91.1008 45.5551 91.0688 47.0879 91.0432C48.6207 91.0176 50.1567 91.0176 51.6927 91.0048C53.2287 90.992 54.7583 91.0048 56.2943 91.0432L58.5951 91.088C59.3631 91.1136 60.1279 91.1296 60.8959 91.1648C60.1279 91.2032 59.3631 91.216 58.5951 91.2448L56.2943 91.2896C54.7583 91.3152 53.2255 91.312 51.6927 91.3248C50.1599 91.3376 48.6239 91.3248 47.0879 91.2896C45.5519 91.2544 44.0223 91.232 42.4863 91.1648Z" fill="#37474F"/>
<path d="M78.1027 102.985H36.1475V107.971H78.1027V102.985Z" fill="#263238"/>
<path d="M18.3135 62.9404H24.2431L42.0767 107.971H36.1471L18.3135 62.9404Z" fill="#263238"/>
<path d="M24.2367 49.8784L18.3135 52.2048V62.9408H24.2367V49.8784Z" fill="#263238"/>
<path d="M64.5055 107.971H40.6719V109.718H64.5055V107.971Z" fill="#A6A6A6"/>
<path d="M70.1054 108.845H51.043V112.125H70.1054V108.845Z" fill="#C7C7C7"/>
<path d="M58.0161 50.1087C60.7233 52.7455 59.6993 56.2751 60.7713 58.2943C61.4273 59.5295 63.7281 60.9343 64.1153 62.3327C64.7553 64.6303 62.7937 65.3183 63.1553 66.5663C63.6481 68.3359 65.9745 68.3487 66.2113 71.2095C66.4481 74.0703 63.1297 76.8799 55.6801 77.2287C48.2305 77.5775 44.3393 74.6079 44.2273 72.1887C44.1153 69.7695 46.6273 69.1231 46.9089 67.3407C47.0881 66.1983 45.6289 65.3055 45.6769 63.1807C45.7249 61.0559 47.8337 60.5119 48.2369 58.7359C48.6401 56.9599 47.9745 52.5471 50.7489 50.4895C53.5233 48.4319 56.6785 48.8063 58.0161 50.1087Z" fill="#263238"/>
<path d="M57.6795 50.1504C58.4439 50.7699 59.0476 51.5647 59.4395 52.4672C59.8467 53.4203 60.1399 54.4181 60.3131 55.44C60.3996 56.0488 60.5553 56.6457 60.7771 57.2192C61.0036 57.6969 61.3135 58.1304 61.6923 58.4992C62.4475 59.2736 63.3659 59.8816 64.0315 60.7392C64.6715 61.552 65.1291 62.6176 64.7899 63.648C64.6075 64.2112 64.2011 64.6528 63.9323 65.1712C63.6635 65.6896 63.5483 66.2816 63.9547 66.7296C64.3035 67.1104 64.8283 67.3088 65.2347 67.6288C65.6293 67.9447 65.9707 68.3217 66.2459 68.7456C66.5242 69.1648 66.7123 69.6373 66.7983 70.1331C66.8842 70.6289 66.8661 71.1372 66.7451 71.6256C66.1659 73.8976 63.9227 75.0688 61.8779 75.7664L61.0171 76.0512C60.9755 76.0512 60.9403 76 60.9883 75.984C63.0427 75.216 65.4331 74.3136 66.3419 72.1248C66.5478 71.6484 66.641 71.1308 66.6144 70.6125C66.5877 70.0941 66.4419 69.5889 66.1883 69.136C65.9327 68.6859 65.5977 68.2859 65.1995 67.9552C64.8187 67.6352 64.3643 67.4208 63.9739 67.1136C63.7793 66.9711 63.6256 66.7798 63.5284 66.5591C63.4312 66.3383 63.3939 66.0958 63.4203 65.856C63.5171 65.3342 63.7364 64.8429 64.0603 64.4224C64.3992 63.9848 64.5978 63.455 64.6299 62.9024C64.6046 62.3613 64.4332 61.8371 64.1339 61.3856C63.5675 60.464 62.6811 59.8272 61.8939 59.1072C61.0864 58.4332 60.512 57.5217 60.2523 56.5024C60.1307 55.9648 60.0699 55.4176 59.9739 54.8736C59.883 54.372 59.7666 53.8754 59.6251 53.3856C59.3595 52.401 58.881 51.4867 58.2235 50.7072C58.0495 50.5076 57.8554 50.3264 57.6443 50.1664C57.6283 50.1696 57.6571 50.1312 57.6795 50.1504Z" fill="#263238"/>
<path d="M44.0097 70.4033C44.1247 70.0176 44.3223 69.6616 44.5889 69.3601C44.8673 69.0401 45.1969 68.7937 45.5009 68.5121C45.8094 68.2611 46.0412 67.9285 46.1697 67.5521C46.2513 67.0867 46.1664 66.6075 45.9297 66.1985C45.703 65.7698 45.5083 65.3248 45.3473 64.8673C45.2131 64.4135 45.1483 63.9421 45.1553 63.4689C45.1768 62.4947 45.4974 61.5507 46.0737 60.7649C46.3521 60.3681 46.6625 59.9937 46.9441 59.6001C47.2528 59.1698 47.5035 58.7007 47.6897 58.2049C48.0929 57.1105 48.2401 55.9425 48.5857 54.8289C48.9441 53.6912 49.418 52.5932 50.0001 51.5521C50.0001 51.5265 50.0513 51.5521 50.0385 51.5777C49.5209 52.5191 49.1037 53.5123 48.7937 54.5409C48.4961 55.5169 48.3425 56.5217 48.1025 57.5105C47.9948 57.9975 47.8383 58.4725 47.6353 58.9281C47.432 59.347 47.191 59.7465 46.9153 60.1217C46.3617 60.9057 45.7953 61.6769 45.5969 62.6337C45.3968 63.5753 45.5022 64.5561 45.8977 65.4337C46.2401 66.1953 46.7329 67.0337 46.3361 67.8785C46.0161 68.5889 45.2801 68.9825 44.7809 69.5585C44.518 69.8758 44.325 70.2451 44.2147 70.6421C44.1044 71.0392 44.0793 71.4551 44.1409 71.8625C44.4065 73.9617 46.4161 75.1201 48.3553 75.3473C48.3656 75.35 48.3746 75.356 48.3811 75.3644C48.3875 75.3728 48.391 75.3831 48.391 75.3937C48.391 75.4043 48.3875 75.4146 48.3811 75.423C48.3746 75.4314 48.3656 75.4374 48.3553 75.4401C46.6657 75.3121 44.8769 74.4545 44.1953 72.8225C43.8551 72.0619 43.7895 71.2069 44.0097 70.4033Z" fill="#263238"/>
<path d="M55.0877 66.4384C57.9677 71.2384 62.1821 75.9808 64.1981 76.2016C65.8205 76.3776 76.3262 71.9424 77.1358 71.1584C77.8302 70.4832 74.1117 63.968 73.1101 64.2368C71.4301 64.6912 65.1421 68.864 64.6749 68.7168C64.2077 68.5696 60.7101 65.968 57.0525 63.5648C53.5485 61.2736 53.0813 63.12 55.0877 66.4384Z" fill="#EB9481"/>
<path d="M76.0191 71.8113C76.9215 71.4593 81.2671 69.4817 82.2559 68.6817C83.2447 67.8817 85.9199 65.3761 85.3855 64.5569C84.8511 63.7377 84.0063 64.4097 84.0063 64.4097C84.0063 64.4097 84.9663 63.1745 84.3551 62.3969C83.7439 61.6193 82.4671 62.7169 82.4671 62.7169C82.4671 62.7169 83.3631 61.3729 82.6943 60.6433C82.0255 59.9137 80.9279 61.2225 80.9279 61.2225C80.9279 61.2225 81.8047 60.0321 81.0015 59.6641C80.0415 59.2193 78.6655 61.5841 77.5103 62.3937C77.2479 62.5761 71.9199 65.6993 71.9199 65.6993L76.0191 71.8113Z" fill="#EB9481"/>
<path d="M81.0238 61.1071C80.0126 62.8511 79.2701 63.4367 77.5037 64.3583C77.4717 64.3775 77.5037 64.4319 77.5261 64.4159C79.331 63.6703 80.371 63.0687 81.1038 61.1487C81.1454 61.0559 81.0718 61.0239 81.0238 61.1071Z" fill="#263238"/>
<path d="M82.5603 62.5697C81.3539 64.2881 80.5507 64.9345 78.7811 66.0353C78.7555 66.0353 78.7811 66.0961 78.8067 66.0801C80.6339 65.1457 81.6579 64.5217 82.6467 62.6433C82.6659 62.5601 82.5987 62.4801 82.5603 62.5697Z" fill="#263238"/>
<path d="M83.9139 64.4639C82.6339 66.0447 81.7795 66.7903 79.9235 67.6383C79.9191 67.64 79.9151 67.6425 79.9117 67.6458C79.9082 67.649 79.9055 67.6529 79.9035 67.6572C79.9016 67.6615 79.9005 67.6662 79.9004 67.6709C79.9003 67.6756 79.9011 67.6803 79.9027 67.6847C79.9044 67.6891 79.907 67.6932 79.9102 67.6966C79.9134 67.7 79.9173 67.7028 79.9216 67.7047C79.9259 67.7067 79.9306 67.7077 79.9353 67.7079C79.94 67.708 79.9447 67.7072 79.9491 67.7055C81.9267 67.0271 82.9891 66.1055 83.9587 64.5055C84.0259 64.3999 83.9971 64.3647 83.9139 64.4639Z" fill="#263238"/>
<path d="M70.0254 65.7793C70.0254 65.7793 71.4782 63.2193 72.1982 62.3265C72.9182 61.4337 76.8062 59.1585 77.347 59.9713C78.0478 61.0177 76.067 62.7809 74.979 63.5201C74.979 63.5201 76.5982 65.9425 75.4494 67.5169C74.3006 69.0913 70.0254 65.7793 70.0254 65.7793Z" fill="#EB9481"/>
<path d="M77.4397 60.32C77.3885 61.7376 75.9005 62.6112 74.9021 63.4048C74.8863 63.4153 74.8733 63.4296 74.8643 63.4463C74.8553 63.4631 74.8506 63.4818 74.8506 63.5008C74.8506 63.5198 74.8553 63.5385 74.8643 63.5553C74.8733 63.5721 74.8863 63.5863 74.9021 63.5968C75.5133 64.6592 76.0669 66.3328 75.5197 67.504C75.5159 67.5108 75.5149 67.5188 75.517 67.5263C75.5191 67.5338 75.5241 67.5402 75.5309 67.544C75.5377 67.5478 75.5457 67.5488 75.5532 67.5467C75.5607 67.5446 75.5671 67.5396 75.5709 67.5328C76.3293 66.3584 75.9197 64.6688 75.1741 63.5488C76.2109 62.752 77.6637 61.808 77.4493 60.32C77.4589 60.3136 77.4397 60.3104 77.4397 60.32Z" fill="#263238"/>
<path d="M69.7217 65.7056L74.5601 73.1712C74.5601 73.1712 66.0225 77.1488 63.5873 76.2048C61.1521 75.2608 56.2465 68.7872 54.3713 65.4048C52.4961 62.0224 54.6913 61.68 57.9905 63.9296C61.2897 66.1792 64.5985 68.6272 64.6913 68.6208C64.7841 68.6144 69.7217 65.7056 69.7217 65.7056Z" fill="#DBDBDB"/>
<path d="M72.3674 73.6541C71.7274 72.5469 68.9978 68.1085 68.3418 67.1933C68.2938 67.1293 68.2426 67.1453 68.281 67.2189C70.0794 70.5885 71.6506 72.6269 72.3194 73.6797C72.3386 73.7053 72.3834 73.6797 72.3674 73.6541Z" fill="#263238"/>
<path d="M53.6129 64.5631C54.2817 66.3391 56.4929 69.5423 56.4929 69.5423L63.1841 67.1839C63.1841 67.1839 58.4097 63.3023 55.2225 62.2079C53.9393 61.7695 52.9345 62.7647 53.6129 64.5631Z" fill="#C2C7D6"/>
<path d="M56.2144 68.6207C57.1744 68.2047 58.1568 67.8047 59.152 67.4463C59.648 67.2671 60.144 67.0975 60.6464 66.9343C61.1488 66.7711 61.664 66.6559 62.16 66.4863C62.1888 66.4863 62.2016 66.5215 62.16 66.5311C61.6576 66.6751 61.168 66.8895 60.6688 67.0591C60.1696 67.2287 59.6736 67.4047 59.1776 67.5839C58.1888 67.9359 57.1968 68.2879 56.2144 68.6655C56.1984 68.6751 56.1856 68.6335 56.2144 68.6207Z" fill="#263238"/>
<path opacity="0.1" d="M59.9994 68.3008L56.4794 69.5424C56.4794 69.5424 54.2746 66.3424 53.5994 64.5632C53.3924 64.0836 53.3355 63.5526 53.4362 63.04L59.9994 68.3008Z" fill="black"/>
<path d="M102.595 140.755C101.824 141.014 79.7601 141.056 78.9153 140.525C78.5953 140.326 78.4033 137.114 78.2753 133.226C78.2465 132.384 78.2241 131.517 78.2081 130.637C78.0791 126.69 77.7351 122.754 77.1777 118.845L91.9361 118.774L92.5601 130.566L92.4993 133.155C92.4993 133.155 100.954 136.918 101.815 137.6C102.675 138.282 103.36 140.496 102.595 140.755Z" fill="#EB9481"/>
<path d="M78.3457 134.973C78.4673 138.035 78.6465 140.358 78.9185 140.525C79.7601 141.056 101.827 141.014 102.598 140.755C103.37 140.496 102.682 138.281 101.827 137.6C101.446 137.299 99.6065 136.406 97.6673 135.497C97.6673 135.497 99.5873 137.049 98.8801 137.27C95.1425 138.432 82.4001 135.843 78.3457 134.973Z" fill="#C2C7D6"/>
<path d="M49.6771 79.2415H57.7027L59.9715 83.9199C59.9715 83.9199 80.1539 83.8047 85.5715 89.8207C92.1667 97.1807 92.5315 129.469 92.5315 129.469H78.1795C78.1795 129.469 76.0163 103.299 74.3395 101.117C72.6627 98.9343 53.3571 99.5679 48.1187 94.9311C43.2515 90.6207 45.6163 78.0639 45.2387 79.2511L49.6771 79.2415Z" fill="#EB9481"/>
<path d="M83.3602 147.738C82.5506 147.827 60.9762 143.206 60.2658 142.509C59.9938 142.246 60.4834 139.066 61.1842 135.238C61.3378 134.413 61.5042 133.558 61.6674 132.694C62.7554 127.078 64.0418 121.146 64.0418 121.146L78.4834 124.195L75.709 135.661L75.1042 138.179C75.1042 138.179 82.573 143.642 83.2706 144.49C83.9682 145.338 84.1602 147.648 83.3602 147.738Z" fill="#EB9481"/>
<path d="M64.0418 121.146C64.0418 121.146 62.7618 127.078 61.6674 132.694C61.4978 133.562 61.3474 134.413 61.1874 135.238C61.0754 135.83 60.9762 136.403 60.8674 136.96C60.3394 139.981 60.0226 142.288 60.253 142.509C60.9634 143.206 82.5378 147.827 83.3474 147.738C84.157 147.648 83.9522 145.338 83.2578 144.493C82.9378 144.118 81.3378 142.854 79.6322 141.558C77.4466 139.901 75.0978 138.182 75.0978 138.182L75.7058 135.664L78.477 124.198L64.0418 121.146Z" fill="#EB9481"/>
<path d="M60.8801 136.96C60.3521 139.981 60.0353 142.288 60.2657 142.509C60.9761 143.206 82.5505 147.827 83.3601 147.738C84.1697 147.648 83.9649 145.338 83.2705 144.493C82.9505 144.118 81.3505 142.854 79.6449 141.558C79.6449 141.558 81.1969 143.478 80.4545 143.549C76.5633 143.894 64.6593 138.669 60.8801 136.96Z" fill="#C2C7D6"/>
<path d="M76.5056 132.374L62.272 129.635C62.272 129.635 68.0576 102.668 67.0048 101.315C65.2736 99.0749 50.5216 99.4141 44.016 94.9149C38.7328 91.2477 43.0784 79.2349 43.0784 79.2349H57.136C57.136 79.2349 58.5216 82.0605 58.864 83.3789C58.864 83.3789 75.52 86.7389 81.0528 92.1629C86.7584 97.7597 76.5056 132.374 76.5056 132.374Z" fill="#EB9481"/>
<path d="M82.2398 93.7537C81.7488 92.6552 80.9869 91.6995 80.0255 90.9761C79.0488 90.2646 77.9866 89.6787 76.8638 89.2321C76.5918 89.1137 76.3134 88.9985 76.0382 88.8833C75.971 88.8545 75.9166 88.9505 75.9838 88.9825C78.0734 90.0449 80.3326 91.1873 81.4942 93.3217C82.6558 95.4561 82.5598 98.0897 82.4158 100.464C82.243 103.344 81.9039 106.205 81.4559 109.053C81.0079 111.901 80.4959 114.71 79.8911 117.523C79.2863 120.336 78.6751 123.171 78.0671 125.997C77.9903 126.349 77.9294 126.704 77.8526 127.056C77.8526 127.088 77.8943 127.101 77.9007 127.056C78.6623 124.214 79.4398 121.382 80.099 118.518C80.7582 115.654 81.3439 112.806 81.8367 109.926C82.3295 107.046 82.6911 104.128 82.8927 101.206C83.0783 98.752 83.2638 96.0801 82.2398 93.7537Z" fill="#263238"/>
<path d="M64.8895 100.413C65.5295 100.477 65.2735 87.0049 76.8735 89.5329C76.8735 89.5329 77.5775 88.1025 78.5567 87.7121C80.7167 86.8513 82.1887 87.6097 82.1887 87.4817C82.1887 87.3537 80.1663 84.8545 68.7487 83.6129C64.8383 83.1873 61.8463 82.9985 60.8863 82.4673C60.2175 82.0961 57.9327 79.2417 57.9327 79.2417H43.0687C43.0687 79.2417 40.5535 85.3601 41.3887 90.7329C42.2239 96.1057 50.1247 98.9281 64.8895 100.413Z" fill="#C2C7D6"/>
<path d="M74.2397 87.4398C71.0465 86.8704 67.8001 86.6557 64.5597 86.7998C63.6285 86.8478 62.7037 86.9374 61.7789 87.0238C61.7469 87.0238 61.7469 87.075 61.7789 87.075C63.3789 86.9886 65.0013 86.995 66.6077 87.0142C68.2141 87.0334 69.8269 87.1038 71.4301 87.2318C72.3645 87.3054 73.2957 87.379 74.2301 87.4814C74.2328 87.482 74.2356 87.4821 74.2384 87.4816C74.2412 87.4812 74.2438 87.4802 74.2462 87.4787C74.2486 87.4772 74.2506 87.4752 74.2523 87.473C74.2539 87.4707 74.2551 87.4681 74.2557 87.4654C74.2563 87.4626 74.2564 87.4598 74.2559 87.457C74.2555 87.4543 74.2545 87.4516 74.253 87.4493C74.2515 87.4469 74.2496 87.4448 74.2473 87.4432C74.245 87.4416 74.2424 87.4404 74.2397 87.4398Z" fill="#263238"/>
<path d="M73.2801 86.2559C72.3969 86.2559 71.5169 86.2559 70.6369 86.3039C69.7569 86.3519 68.8801 86.4639 68.0033 86.5695C67.9994 86.568 67.9952 86.5675 67.9911 86.5681C67.987 86.5686 67.9831 86.5701 67.9797 86.5724C67.9763 86.5748 67.9736 86.5779 67.9717 86.5816C67.9697 86.5853 67.9688 86.5893 67.9688 86.5935C67.9688 86.5976 67.9697 86.6017 67.9717 86.6053C67.9736 86.609 67.9763 86.6121 67.9797 86.6145C67.9831 86.6168 67.987 86.6183 67.9911 86.6189C67.9952 86.6194 67.9994 86.6189 68.0033 86.6175C68.8769 86.5311 69.7601 86.4895 70.6369 86.4383C71.5137 86.3871 72.3969 86.3327 73.2769 86.2975C73.3153 86.2943 73.3153 86.2559 73.2801 86.2559Z" fill="#263238"/>
<path d="M57.9423 79.2414L42.9951 79.3118C42.9951 79.3118 45.7279 67.6958 49.5999 63.4398C51.3599 61.4974 53.1199 61.763 54.6175 62.9726C54.9919 63.2734 59.3599 68.6974 59.7375 71.4014C59.9967 73.2094 58.2687 74.8254 58.2687 74.8254L57.9423 79.2414Z" fill="#C2C7D6"/>
<path d="M57.075 74.7424C56.3219 74.908 55.6016 75.1978 54.9438 75.6C54.6238 75.792 54.2782 75.9904 53.955 76.1984C53.6318 76.4064 53.2766 76.6528 52.9182 76.8384C52.8894 76.8384 52.9182 76.896 52.947 76.8832C53.2894 76.7104 53.6382 76.5632 53.9774 76.3648C54.3166 76.1664 54.643 75.9744 54.979 75.7856C55.6452 75.381 56.352 75.0475 57.0878 74.7904C57.1102 74.7712 57.0974 74.7392 57.075 74.7424Z" fill="#263238"/>
<path d="M57.6859 75.3853C56.7259 75.4141 55.8747 75.8045 55.0171 76.1692C54.9883 76.1692 55.0011 76.23 55.0171 76.2172C55.86 75.8335 56.7532 75.5716 57.6699 75.4397C57.7211 75.4333 57.7211 75.3853 57.6859 75.3853Z" fill="#263238"/>
<path d="M52.1406 63.0784C52.2078 63.4176 53.7406 65.6384 55.2862 65.6384C55.7854 65.6384 55.859 62.8896 55.859 62.8896L55.9102 62.688L56.6302 59.8784L53.3694 57.6384L52.899 57.3408C52.899 57.3408 52.7518 58.1216 52.579 59.0976C52.579 59.1456 52.563 59.1904 52.5534 59.2384C52.5438 59.2864 52.531 59.344 52.5246 59.3952C52.4958 59.5424 52.4702 59.6896 52.4446 59.84C52.419 59.9904 52.4062 60.0608 52.3902 60.1824C52.3742 60.304 52.355 60.416 52.339 60.5376C52.2141 61.3789 52.1478 62.2279 52.1406 63.0784Z" fill="#EB9481"/>
<path d="M52.5791 59.0876C52.8405 59.8916 53.274 60.629 53.8493 61.2485C54.4245 61.868 55.1279 62.3547 55.9103 62.6748L56.6303 59.8652L53.3695 57.6252L52.8991 57.3276C52.8991 57.3276 52.7519 58.1116 52.5791 59.0876Z" fill="#263238"/>
<path d="M60.5148 54.8703C61.6476 59.8367 58.7996 61.0751 57.7276 61.3183C56.7676 61.5391 53.414 62.1663 51.7756 57.3407C50.1372 52.5151 52.0956 50.4191 54.2876 49.7983C56.4796 49.1775 59.382 49.9007 60.5148 54.8703Z" fill="#EB9481"/>
<path d="M59.8395 54.1215C59.7223 54.1279 59.6048 54.1279 59.4875 54.1215C59.3636 54.1377 59.2377 54.113 59.1291 54.0511C59.0978 54.0255 59.0762 53.9899 59.0681 53.9502C59.0599 53.9106 59.0657 53.8694 59.0843 53.8335C59.1295 53.7672 59.1917 53.7144 59.2643 53.6807C59.337 53.6469 59.4174 53.6333 59.4971 53.6415C59.6606 53.6325 59.8216 53.685 59.9483 53.7887C59.9757 53.8136 59.9952 53.8458 60.0047 53.8816C60.0141 53.9174 60.013 53.9551 60.0015 53.9902C59.99 54.0254 59.9686 54.0565 59.9399 54.0797C59.9111 54.103 59.8763 54.1175 59.8395 54.1215Z" fill="#263238"/>
<path d="M56.5596 54.9025C56.6748 54.8641 56.774 54.8097 56.8796 54.7617C56.9996 54.7283 57.1053 54.6564 57.1804 54.5569C57.1979 54.5207 57.203 54.4798 57.1949 54.4404C57.1868 54.4011 57.1659 54.3655 57.1356 54.3393C57.0668 54.2984 56.9883 54.2769 56.9084 54.2769C56.8284 54.2769 56.7499 54.2984 56.6812 54.3393C56.5247 54.3953 56.3961 54.5101 56.3228 54.6593C56.312 54.6925 56.3106 54.728 56.3185 54.762C56.3265 54.796 56.3436 54.8272 56.3679 54.8522C56.3923 54.8772 56.423 54.8951 56.4568 54.9039C56.4905 54.9128 56.5261 54.9123 56.5596 54.9025Z" fill="#263238"/>
<path d="M57.517 55.8496C57.517 55.8496 57.4946 55.872 57.4978 55.888C57.5874 56.208 57.6322 56.6208 57.3506 56.8032C57.3506 56.8032 57.3506 56.8256 57.3506 56.8224C57.7186 56.6848 57.6546 56.1536 57.517 55.8496Z" fill="#263238"/>
<path d="M57.1331 55.5677C56.5795 55.6509 56.7875 56.7517 57.2995 56.6717C57.8115 56.5917 57.6003 55.4973 57.1331 55.5677Z" fill="#263238"/>
<path d="M56.9283 55.6638C56.8451 55.747 56.7715 55.8718 56.6563 55.907C56.5411 55.9422 56.4035 55.8494 56.2947 55.7534C56.2947 55.7534 56.2755 55.7534 56.2947 55.7694C56.3299 55.9838 56.4515 56.1822 56.6851 56.1726C56.9187 56.163 57.0051 55.9486 57.0051 55.7246C57.0083 55.683 56.9603 55.6318 56.9283 55.6638Z" fill="#263238"/>
<path d="M59.3244 55.4399C59.3244 55.4399 59.3532 55.4399 59.3564 55.4655C59.4044 55.8079 59.5228 56.1951 59.8524 56.2527V56.2719C59.4652 56.2911 59.318 55.7791 59.3244 55.4399Z" fill="#263238"/>
<path d="M59.5644 55.0368C60.1052 54.896 60.3484 55.9968 59.846 56.1184C59.3436 56.24 59.11 55.152 59.5644 55.0368Z" fill="#263238"/>
<path d="M59.8083 55.0559C59.9075 55.0943 60.0163 55.1807 60.1283 55.1647C60.2403 55.1487 60.3107 55.0111 60.3619 54.8799C60.3619 54.8799 60.3619 54.8799 60.3811 54.8799C60.4355 55.0879 60.4131 55.3215 60.2211 55.4079C60.0291 55.4943 59.8723 55.3343 59.7763 55.1359C59.7507 55.1199 59.7699 55.0399 59.8083 55.0559Z" fill="#263238"/>
<path d="M57.9455 58.6657C58.0415 58.7329 58.1375 58.8321 58.2655 58.8257C58.3923 58.8053 58.5133 58.7584 58.6207 58.6881H58.6399C58.605 58.7661 58.5491 58.8328 58.4785 58.8808C58.4078 58.9288 58.3253 58.9563 58.2399 58.9601C58.1662 58.9528 58.0963 58.9237 58.0392 58.8763C57.9822 58.829 57.9406 58.7657 57.9199 58.6945C57.9199 58.6657 57.9199 58.6561 57.9455 58.6657Z" fill="#263238"/>
<path d="M59.1229 57.1489C59.1229 57.1489 59.2957 57.6449 59.3437 57.8849C59.3437 57.9073 59.2925 57.9297 59.2093 57.9489C59.0112 58.0276 58.7953 58.0501 58.5853 58.0139C58.3753 57.9778 58.1793 57.8844 58.0189 57.7441C57.9965 57.7249 58.0189 57.6929 58.0477 57.7057C58.3958 57.8516 58.7813 57.883 59.1485 57.7953C59.1485 57.7249 58.8285 56.9569 58.8637 56.9473C59.0517 56.9221 59.2421 56.9221 59.4301 56.9473C59.1101 55.9105 58.6109 54.9313 58.2973 53.8913C58.2962 53.8839 58.2976 53.8763 58.3011 53.8696C58.3047 53.863 58.3103 53.8577 58.3171 53.8545C58.3239 53.8512 58.3315 53.8503 58.3389 53.8517C58.3463 53.8532 58.353 53.857 58.3581 53.8625C58.9179 54.8952 59.3735 55.9811 59.7181 57.1041C59.7565 57.2513 59.2253 57.1713 59.1229 57.1489Z" fill="#263238"/>
<path d="M59.0143 57.9039C58.9177 58.0952 58.7747 58.2591 58.5983 58.3807C58.5025 58.4404 58.3912 58.4705 58.2783 58.4671C58.0223 58.4511 57.9583 58.2303 57.9807 58.0319C57.9857 57.9237 58.0029 57.8163 58.0319 57.7119C58.3304 57.8793 58.6747 57.9466 59.0143 57.9039Z" fill="#263238"/>
<path d="M58.5983 58.3804C58.5025 58.4401 58.3912 58.4702 58.2783 58.4668C58.0223 58.4508 57.9583 58.23 57.9807 58.0316C58.1079 58.012 58.238 58.0357 58.35 58.0989C58.462 58.1622 58.5495 58.2614 58.5983 58.3804Z" fill="#FF9CBD"/>
<path d="M52.0512 57.6448C52.3473 57.4441 52.5862 57.1698 52.7444 56.849C52.9026 56.5281 52.9747 56.1716 52.9535 55.8144C53.7648 55.3069 54.4272 54.5937 54.8735 53.7472C54.8543 53.856 54.7199 54.6272 54.6399 55.0272C57.7023 53.984 58.3295 51.4336 58.3295 51.4336C59.012 51.8998 59.5798 52.5147 59.9903 53.232C59.9903 53.232 59.7343 51.296 58.5535 50.1472C57.1103 48.7392 52.9439 48.9056 51.3439 51.2448C49.6255 53.76 52.0512 57.6448 52.0512 57.6448Z" fill="#263238"/>
<path d="M56.9603 54.1599C56.4944 54.5097 55.9788 54.788 55.4307 54.9855C56.2802 54.6146 57.0102 54.0153 57.5395 53.2543C57.7635 52.9299 57.9452 52.5783 58.0802 52.2079C58.2441 51.8078 58.3278 51.3795 58.3266 50.9471C58.3252 50.9432 58.3247 50.9391 58.3253 50.935C58.3258 50.9309 58.3273 50.927 58.3296 50.9236C58.332 50.9202 58.3351 50.9174 58.3388 50.9155C58.3425 50.9136 58.3465 50.9126 58.3506 50.9126C58.3548 50.9126 58.3588 50.9136 58.3625 50.9155C58.3662 50.9174 58.3693 50.9202 58.3717 50.9236C58.374 50.927 58.3755 50.9309 58.376 50.935C58.3766 50.9391 58.3761 50.9432 58.3746 50.9471C58.422 51.3747 58.3983 51.8073 58.3042 52.2271C58.1918 52.6376 58.0064 53.0246 57.7571 53.3695C57.5296 53.6688 57.2614 53.9349 56.9603 54.1599Z" fill="#263238"/>
<path d="M52.1827 59.1744C52.2622 59.1941 52.3439 59.2038 52.4259 59.2032C52.5067 59.2067 52.5876 59.1981 52.6659 59.1776C52.766 59.1525 52.8597 59.1068 52.9411 59.0432C53.0064 58.9939 53.0645 58.9358 53.1139 58.8704C53.1838 58.7743 53.2349 58.6657 53.2643 58.5504L52.8003 57.2384C52.8003 57.2384 51.4787 55.8176 50.8195 56.3072C50.1603 56.7968 51.2995 58.9792 52.1827 59.1744Z" fill="#EB9481"/>
<path d="M51.1611 56.9311C51.1611 56.9311 51.1611 56.9503 51.1611 56.9535C51.7819 57.1103 52.1659 57.6127 52.4603 58.1503C52.4182 58.0957 52.3647 58.051 52.3036 58.0192C52.2424 57.9874 52.175 57.9693 52.1062 57.9663C52.0373 57.9632 51.9686 57.9753 51.9048 58.0015C51.8411 58.0278 51.7839 58.0676 51.7371 58.1183C51.7371 58.1183 51.7371 58.1535 51.7595 58.1471C51.8584 58.1002 51.9694 58.0852 52.0771 58.1041C52.1849 58.123 52.2842 58.1749 52.3611 58.2527C52.4907 58.3826 52.6056 58.5264 52.7035 58.6815C52.7387 58.7295 52.8283 58.6815 52.7995 58.6303C52.7067 57.8655 51.9771 56.8959 51.1611 56.9311Z" fill="#263238"/>
<path d="M52.2241 58.9601C52.2451 59.0189 52.2885 59.067 52.3448 59.094C52.4012 59.121 52.4659 59.1246 52.5249 59.1041C52.5568 59.096 52.5867 59.0814 52.6126 59.0611C52.6386 59.0408 52.66 59.0154 52.6755 58.9864C52.6911 58.9574 52.7004 58.9254 52.7029 58.8926C52.7055 58.8598 52.7011 58.8268 52.6902 58.7958C52.6792 58.7647 52.6619 58.7363 52.6394 58.7123C52.6168 58.6883 52.5895 58.6693 52.5592 58.6565C52.5289 58.6436 52.4963 58.6372 52.4634 58.6377C52.4305 58.6382 52.398 58.6455 52.3681 58.6593C52.3093 58.6803 52.2611 58.7237 52.2342 58.78C52.2072 58.8364 52.2036 58.9011 52.2241 58.9601Z" fill="white"/>
<path d="M51.6958 58.6656C51.7026 58.6864 51.7135 58.7056 51.7279 58.7221C51.7423 58.7386 51.7599 58.752 51.7796 58.7616C51.7993 58.7711 51.8208 58.7766 51.8427 58.7777C51.8645 58.7788 51.8864 58.7755 51.907 58.768C51.9494 58.7535 51.9844 58.7228 52.0042 58.6826C52.024 58.6424 52.027 58.596 52.0126 58.5536C51.9981 58.5111 51.9674 58.4762 51.9272 58.4564C51.887 58.4366 51.8406 58.4335 51.7982 58.448C51.7766 58.4547 51.7566 58.4658 51.7396 58.4807C51.7225 58.4956 51.7088 58.5138 51.6991 58.5343C51.6895 58.5547 51.6842 58.5769 51.6836 58.5995C51.6831 58.6222 51.6872 58.6446 51.6958 58.6656Z" fill="white"/>
<path d="M48.5763 64.9055C45.8211 69.8943 42.4451 76.9759 43.2579 79.4111C43.8531 81.1935 52.1859 86.7135 54.8419 88.3711C55.8019 88.9663 60.8579 82.7711 59.9075 82.0383C58.6723 81.0783 49.9331 76.2143 49.9459 75.4783C49.9459 75.0623 51.1715 68.7583 51.5683 65.9743C52.3107 60.7679 49.5427 63.1583 48.5763 64.9055Z" fill="#EB9481"/>
<path d="M57.7443 80.8862C57.7443 80.8862 60.9443 81.0654 63.0371 81.283C64.2019 81.4046 66.1795 81.7886 66.9955 82.2686C68.2147 82.9886 72.8579 86.771 71.9651 87.9166C71.1555 88.9534 67.5811 85.1966 67.5811 85.1966C67.5811 85.1966 71.5235 88.6686 70.3203 89.7374C69.1171 90.8062 65.6419 86.0254 65.6419 86.0254C65.6419 86.0254 69.6131 89.683 68.2019 90.5918C67.1299 91.2798 63.7379 87.1198 63.7379 87.1198C63.7379 87.1198 67.1299 90.2878 66.0611 91.0398C64.8771 91.8686 61.5075 88.2302 61.5075 88.2302C58.4675 89.6862 55.5427 88.963 54.8419 88.371C54.5603 88.1374 57.7443 80.8862 57.7443 80.8862Z" fill="#EB9481"/>
<path d="M66.294 83.9201C66.7708 84.3137 67.254 84.7041 67.6988 85.1361C68.1436 85.5681 68.566 86.0193 68.9788 86.4897C69.5125 87.0952 69.9753 87.7598 70.358 88.4705C69.5868 87.2577 68.0316 85.6865 67.59 85.2545C67.1484 84.8225 66.7292 84.3681 66.2876 83.9393C66.2652 83.9201 66.2812 83.9009 66.294 83.9201Z" fill="#263238"/>
<path d="M64.7042 85.4751C65.293 85.9999 65.8946 86.5023 66.461 87.0527C67.0274 87.6031 67.5106 88.1727 68.0354 88.7583C68.0738 88.8031 68.0354 88.8127 67.9938 88.7583C67.4466 88.1919 66.8994 87.7119 66.3458 87.1583C65.7922 86.6047 65.261 86.0159 64.6914 85.4815L64.7042 85.4751Z" fill="#263238"/>
<path d="M63.0975 86.5725C64.0194 87.3578 64.858 88.236 65.5999 89.1933C65.6383 89.2381 65.5999 89.2413 65.5487 89.1933C64.7327 88.3069 64.0991 87.5933 63.0719 86.6013C63.0559 86.5917 63.0783 86.5565 63.0975 86.5725Z" fill="#263238"/>
<path d="M58.1436 80.7197L52.7324 87.4397C52.7324 87.4397 43.3372 81.8365 42.7868 78.8285C42.1244 75.2349 46.534 67.8077 48.7196 64.5405C50.9052 61.2733 52.4988 62.4829 51.782 66.5181C51.0652 70.5533 50.0508 75.3725 50.3292 75.6125C50.6076 75.8525 58.1436 80.7197 58.1436 80.7197Z" fill="#DBDBDB"/>
<path d="M51.4941 85.907C52.3581 84.9694 55.7533 81.011 56.4285 80.1054C56.4733 80.0446 56.4285 79.9998 56.3869 80.0574C54.6338 81.9001 52.9874 83.8414 51.4557 85.8718C51.4365 85.8942 51.4717 85.9294 51.4941 85.907Z" fill="#263238"/>
<path d="M44.5244 71.2705L51.7084 70.3713C51.7084 70.3713 52.1308 66.7553 52.0828 64.7233C52.022 62.0321 51.0076 61.4273 48.8828 63.9585C47.4812 65.6545 44.5244 71.2705 44.5244 71.2705Z" fill="#C2C7D6"/>
<path d="M50.998 70.4798C51.2284 70.4292 51.4613 70.3907 51.6957 70.3646C51.7373 69.939 51.7693 69.5102 51.8141 69.0846C51.8365 68.8734 51.8621 68.659 51.8909 68.4446C51.9197 68.2302 51.9453 67.9422 51.9741 67.7374C51.9741 67.7054 52.0189 67.7054 52.0189 67.7374C52.0189 68.0094 51.9933 68.211 51.9837 68.4478C51.9837 68.6142 51.9645 68.7678 51.9517 68.947C51.9517 68.9054 51.9805 68.8638 51.9933 68.8222C52.0637 68.5982 52.1533 68.3838 52.2141 68.1566C52.2127 68.1532 52.2122 68.1495 52.2126 68.1459C52.213 68.1422 52.2143 68.1387 52.2163 68.1357C52.2184 68.1327 52.2211 68.1302 52.2244 68.1285C52.2276 68.1268 52.2312 68.1259 52.2349 68.1259C52.2385 68.1259 52.2421 68.1268 52.2454 68.1285C52.2486 68.1302 52.2514 68.1327 52.2534 68.1357C52.2555 68.1387 52.2567 68.1422 52.2571 68.1459C52.2575 68.1495 52.257 68.1532 52.2557 68.1566C52.1885 68.3806 52.1469 68.611 52.0829 68.8382C52.0425 69.012 51.988 69.1822 51.9197 69.347C51.8941 69.7054 51.9037 70.1118 51.8557 70.4638C51.5717 70.4915 51.2862 70.499 51.0013 70.4862L50.998 70.4798Z" fill="#263238"/>
<path d="M45.1676 70.4957C46.2044 70.2941 47.2412 70.1053 48.2876 69.9645C48.8092 69.8941 50.9116 69.7181 51.4332 69.6445C51.462 69.6445 51.4653 69.6829 51.4332 69.6893C50.7932 69.8269 48.726 70.0893 48.2044 70.1597C47.1612 70.2973 46.2076 70.3677 45.1676 70.5277C45.142 70.5469 45.142 70.5021 45.1676 70.4957Z" fill="#263238"/>
<path d="M30.5919 87.9069C31.5374 87.9069 32.3039 87.1404 32.3039 86.1949C32.3039 85.2494 31.5374 84.4829 30.5919 84.4829C29.6464 84.4829 28.8799 85.2494 28.8799 86.1949C28.8799 87.1404 29.6464 87.9069 30.5919 87.9069Z" fill="#37474F"/>
<path d="M30.5915 87.0814C31.081 87.0814 31.4779 86.6845 31.4779 86.195C31.4779 85.7055 31.081 85.3086 30.5915 85.3086C30.1019 85.3086 29.7051 85.7055 29.7051 86.195C29.7051 86.6845 30.1019 87.0814 30.5915 87.0814Z" fill="#455A64"/>
<path d="M54.697 105.251C54.697 105.59 54.5964 105.922 54.4079 106.204C54.2195 106.486 53.9516 106.706 53.6382 106.836C53.3248 106.965 52.9799 106.999 52.6472 106.933C52.3145 106.867 52.0088 106.704 51.769 106.464C51.5291 106.224 51.3657 105.918 51.2996 105.585C51.2334 105.253 51.2673 104.908 51.3972 104.594C51.527 104.281 51.7468 104.013 52.0289 103.825C52.311 103.636 52.6426 103.536 52.9818 103.536C53.4367 103.536 53.873 103.716 54.1946 104.038C54.5163 104.36 54.697 104.796 54.697 105.251Z" fill="#37474F"/>
<path d="M52.9821 106.138C53.4717 106.138 53.8685 105.741 53.8685 105.251C53.8685 104.762 53.4717 104.365 52.9821 104.365C52.4926 104.365 52.0957 104.762 52.0957 105.251C52.0957 105.741 52.4926 106.138 52.9821 106.138Z" fill="#455A64"/>
<path d="M52.387 105.494L44.7038 86.8416H30.5918V85.5488H45.571L53.5806 105.005L52.387 105.494Z" fill="#455A64"/>
<path d="M59.1904 99.9649H57.0176L59.648 94.3232H61.8208L59.1904 99.9649Z" fill="#A6A6A6"/>
<path d="M65.9203 91.6001H59.6131C59.6131 91.6001 59.7411 95.3921 56.9219 95.3921C56.5435 95.4105 56.1678 95.3195 55.8397 95.13C55.5117 94.9404 55.2453 94.6604 55.0723 94.3233C55.0723 94.3233 56.1123 96.5281 58.0227 96.5281H62.2051C63.3411 96.5409 65.7059 95.7601 65.9203 91.6001Z" fill="#A6A6A6"/>
<path d="M54.4258 91.6001H60.7458C60.7458 91.6001 60.6178 95.3921 63.437 95.3921C63.8154 95.4105 64.1911 95.3195 64.5191 95.13C64.8471 94.9404 65.1136 94.6604 65.2866 94.3233C65.2866 94.3233 64.2466 96.5281 62.3362 96.5281H58.1538C57.0178 96.5409 54.653 95.7601 54.4258 91.6001Z" fill="#C7C7C7"/>
<path d="M50.333 109.446C50.7094 109.446 51.0146 109.141 51.0146 108.765C51.0146 108.388 50.7094 108.083 50.333 108.083C49.9565 108.083 49.6514 108.388 49.6514 108.765C49.6514 109.141 49.9565 109.446 50.333 109.446Z" fill="#C7C7C7"/>
<path d="M50.579 108.918L50.083 108.611L56.3934 98.3901H58.2078V98.9757H56.7198L50.579 108.918Z" fill="#A6A6A6"/>
<path d="M75.8404 50.4797C75.7247 51.5358 75.3191 52.5393 74.6686 53.3793C74.0181 54.2193 73.148 54.863 72.1544 55.2393C71.1608 55.6155 70.0825 55.7096 69.0388 55.5112C67.9951 55.3127 67.0265 54.8295 66.2404 54.1149L63.3604 54.5373L64.7972 52.0509C64.4598 51.2392 64.3126 50.361 64.367 49.4837C64.4214 48.6063 64.6759 47.753 65.111 46.9892C65.546 46.2254 66.1502 45.5713 66.8771 45.077C67.604 44.5827 68.4344 44.2613 69.3046 44.1375C70.1749 44.0137 71.062 44.0907 71.8979 44.3626C72.7338 44.6346 73.4964 45.0942 74.1272 45.7064C74.7581 46.3186 75.2405 47.067 75.5374 47.8944C75.8343 48.7217 75.938 49.6061 75.8404 50.4797Z" fill="white"/>
<path d="M75.8402 50.4798C75.7307 51.5389 75.3297 52.5468 74.6818 53.3918C74.521 53.6033 74.3468 53.8042 74.1602 53.9934C73.9691 54.1761 73.7672 54.3471 73.5554 54.5054C73.1314 54.8269 72.6638 55.0866 72.1666 55.2766C71.6714 55.4722 71.1511 55.5971 70.621 55.6478C70.3547 55.667 70.0874 55.667 69.821 55.6478C69.5547 55.6435 69.2892 55.6167 69.0274 55.5678C67.9675 55.3716 66.9827 54.8854 66.1826 54.163L66.253 54.1822L63.373 54.6238L63.165 54.6558L63.2706 54.4734L64.701 51.9838V52.0798C64.3633 51.2565 64.2194 50.3665 64.2805 49.4788C64.3415 48.591 64.6058 47.7291 65.053 46.9598C65.5021 46.1929 66.1178 45.5367 66.8546 45.0398C67.59 44.5518 68.4265 44.2369 69.3011 44.1189C70.1758 44.0008 71.0658 44.0826 71.9042 44.3582C72.7354 44.6409 73.493 45.1055 74.1218 45.7182C74.751 46.3293 75.2327 47.0757 75.5305 47.9007C75.8282 48.7257 75.9341 49.6077 75.8402 50.4798ZM75.8402 50.4798C75.9335 49.6142 75.8264 48.7389 75.5273 47.9213C75.2282 47.1038 74.7451 46.366 74.1153 45.7649C73.4855 45.1639 72.7259 44.7158 71.8953 44.4552C71.0647 44.1947 70.1853 44.1286 69.325 44.2622C68.4721 44.3882 67.6596 44.709 66.9506 45.1998C66.2478 45.6919 65.6612 46.3319 65.2322 47.075C64.8075 47.8197 64.558 48.6514 64.5026 49.507C64.4496 50.3607 64.5873 51.2155 64.9058 52.0094L64.9282 52.0606L64.8994 52.1086L63.453 54.5886L63.3506 54.435L66.2306 54.0318H66.2722L66.2978 54.0574C67.066 54.7759 68.0188 55.2667 69.0498 55.475C69.3072 55.5266 69.5683 55.5576 69.8306 55.5678C70.0927 55.587 70.3558 55.587 70.6178 55.5678C71.141 55.5317 71.6567 55.424 72.1506 55.2478C72.6475 55.067 73.1153 54.8147 73.5394 54.499C73.7503 54.3419 73.9522 54.1731 74.1442 53.9934C74.3307 53.8064 74.5049 53.6076 74.6658 53.3982C75.3226 52.5544 75.7295 51.5433 75.8402 50.4798Z" fill="#263238"/>
<path d="M68.1603 49.8878C68.1603 49.9953 68.1284 50.1005 68.0686 50.19C68.0088 50.2794 67.9239 50.3492 67.8244 50.3903C67.725 50.4315 67.6157 50.4423 67.5101 50.4213C67.4046 50.4003 67.3077 50.3485 67.2316 50.2724C67.1555 50.1963 67.1037 50.0994 67.0827 49.9939C67.0617 49.8884 67.0725 49.779 67.1137 49.6796C67.1548 49.5802 67.2246 49.4952 67.314 49.4354C67.4035 49.3757 67.5087 49.3438 67.6163 49.3438C67.7605 49.3438 67.8989 49.4011 68.0009 49.5031C68.103 49.6051 68.1603 49.7435 68.1603 49.8878Z" fill="#263238"/>
<path d="M70.6759 49.8878C70.6759 49.9953 70.644 50.1005 70.5842 50.19C70.5244 50.2794 70.4395 50.3492 70.3401 50.3903C70.2407 50.4315 70.1313 50.4423 70.0258 50.4213C69.9202 50.4003 69.8233 50.3485 69.7472 50.2724C69.6711 50.1963 69.6193 50.0994 69.5983 49.9939C69.5774 49.8884 69.5881 49.779 69.6293 49.6796C69.6705 49.5802 69.7402 49.4952 69.8297 49.4354C69.9191 49.3757 70.0243 49.3438 70.1319 49.3438C70.2762 49.3438 70.4145 49.4011 70.5166 49.5031C70.6186 49.6051 70.6759 49.7435 70.6759 49.8878Z" fill="#263238"/>
<path d="M73.1971 49.888C73.2003 49.9957 73.1714 50.1019 73.1141 50.1931C73.0569 50.2843 72.9738 50.3565 72.8755 50.4005C72.7771 50.4444 72.668 50.4582 72.5618 50.4401C72.4556 50.422 72.3572 50.3727 72.2791 50.2986C72.2009 50.2245 72.1465 50.1288 72.1228 50.0238C72.099 49.9187 72.107 49.809 72.1457 49.7084C72.1844 49.6079 72.252 49.5211 72.3401 49.4591C72.4282 49.3971 72.5327 49.3626 72.6403 49.36C72.7841 49.3566 72.9234 49.4102 73.0277 49.5091C73.132 49.6081 73.193 49.7443 73.1971 49.888Z" fill="#263238"/>
</svg>
