<svg width="30" height="31" viewBox="0 0 30 31" fill="none" xmlns="http://www.w3.org/2000/svg">
<g clip-path="url(#clip0_1686_31683)">
<path d="M28.8867 20.0122C28.3121 19.9694 27.1262 20.6112 26.8022 20.7763C25.6469 21.357 24.0392 22.2678 22.9817 22.9953C22.9083 23.0442 22.8105 23.1114 22.7372 23.1603C22.2604 23.4659 21.7591 23.6677 21.2028 23.7899C18.1342 24.444 13.6656 24.5113 13.6656 24.5113L13.4028 24.5235C13.2072 24.5357 13.0299 24.3951 13.0054 24.2056C12.9749 23.9978 13.1277 23.8022 13.3478 23.7838L19.9925 23.1542C20.726 23.0747 21.3067 22.3901 21.2273 21.6199C21.1478 20.8496 20.4387 20.2872 19.7052 20.3667L13.794 20.2934C13.3906 20.2872 12.7487 20.1894 12.3636 20.0733C8.55525 18.9607 6.40352 19.9999 5.26041 20.489C5.00366 20.0672 4.52075 19.7921 3.98281 19.8288L1.43373 19.9999C0.584042 20.055 -0.0516989 20.764 0.00331711 21.5832L0.412881 27.2437C0.47401 28.0628 1.20756 28.6802 2.05725 28.6191L4.60633 28.448C5.14426 28.4113 5.58439 28.0812 5.77389 27.6288L16.9727 28.1117C18.2197 28.2462 19.3873 28.0934 20.4876 27.5188L20.8055 27.3537L29.2718 22.4023C29.6875 22.1578 29.9809 21.736 29.9993 21.2714C30.0176 20.7029 29.6936 20.0733 28.8867 20.0122ZM2.99252 27.2804C2.51572 27.2804 2.12449 26.9075 2.12449 26.4429C2.12449 25.9783 2.51572 25.6055 2.99252 25.6055C3.46933 25.6055 3.86055 25.9783 3.86055 26.4429C3.86055 26.9075 3.46933 27.2804 2.99252 27.2804ZM22.4743 20.8802C23.3668 20.3912 25.1151 19.5476 26.0687 19.1747C26.5455 18.9852 27.0162 18.9974 27.4502 19.2908C27.1079 19.4131 26.79 19.5659 26.4905 19.7126C25.488 20.2139 23.7213 21.1736 22.8594 21.7788C22.7738 21.8399 22.6821 21.901 22.5966 21.9622C22.6088 21.8094 22.6088 21.6504 22.5905 21.4915C22.5721 21.2898 22.5232 21.1003 22.4621 20.9169C22.4621 20.9046 22.4682 20.8924 22.4743 20.8802ZM25.1456 18.6062C24.4549 18.9118 23.1284 19.3764 22.4988 19.7249L22.0709 19.9571C22.0281 19.9816 21.9914 20.006 21.9547 20.0366C21.7652 19.8104 21.539 19.6209 21.2884 19.4681C21.8752 19.1564 23.1834 18.7346 23.7764 18.5023C24.2532 18.3128 24.7116 18.325 25.1456 18.6062ZM7.02703 14.7428C7.02703 14.3883 7.31434 14.101 7.66889 14.101H23.6663C24.0209 14.101 24.3082 14.3883 24.3082 14.7428C24.3082 15.0974 24.0209 15.3847 23.6663 15.3847H7.66277C7.31434 15.3847 7.02703 15.0974 7.02703 14.7428ZM7.02703 17.0657C7.02703 16.7112 7.31434 16.4239 7.66889 16.4239H23.6663C24.0209 16.4239 24.3082 16.7112 24.3082 17.0657C24.3082 17.4203 24.0209 17.7076 23.6663 17.7076H7.66277C7.31434 17.7076 7.02703 17.4203 7.02703 17.0657ZM19.534 7.73136C19.534 7.2301 19.9436 6.82054 20.4448 6.82054C20.9461 6.82054 21.3557 7.2301 21.3557 7.73136C21.3557 8.23262 20.9461 8.64218 20.4448 8.64218C19.9375 8.64218 19.534 8.23262 19.534 7.73136ZM9.97956 7.73136C9.97956 7.2301 10.3891 6.82054 10.8904 6.82054C11.3916 6.82054 11.8012 7.2301 11.8012 7.73136C11.8012 8.23262 11.3916 8.64218 10.8904 8.64218C10.383 8.64218 9.97956 8.23262 9.97956 7.73136ZM8.51246 13.0863H22.8166C23.6419 13.0863 24.3143 12.4138 24.3143 11.5886V3.87412C24.3143 3.04888 23.6419 2.37646 22.8166 2.37646H8.51246C7.68722 2.37646 7.01481 3.04888 7.01481 3.87412V11.5886C7.01481 12.4138 7.68722 13.0863 8.51246 13.0863ZM8.2924 5.4268C8.37798 5.44514 8.46967 5.45125 8.56137 5.45125C9.39883 5.45125 10.0774 4.77272 10.0774 3.93525C10.0774 3.83745 10.0713 3.74575 10.0529 3.65406H21.1906C21.16 3.7702 21.1417 3.89858 21.1417 4.02695C21.1417 4.86441 21.8202 5.54294 22.6577 5.54294C22.7861 5.54294 22.9144 5.5246 23.0306 5.49404V10.146C22.9083 10.1154 22.7861 10.097 22.6577 10.097C21.8202 10.097 21.1417 10.7756 21.1417 11.613C21.1417 11.6742 21.1478 11.7414 21.1539 11.8025H10.0529C10.0713 11.7109 10.0774 11.6192 10.0774 11.5214C10.0774 10.6839 9.39883 10.0054 8.56137 10.0054C8.46967 10.0054 8.38409 10.0115 8.2924 10.0298V5.4268ZM14.3625 7.73136C14.3625 7.01004 14.9493 6.41709 15.6768 6.41709C16.3981 6.41709 16.991 7.00393 16.991 7.73136C16.991 8.45268 16.4042 9.04563 15.6768 9.04563C14.9493 9.04563 14.3625 8.45879 14.3625 7.73136ZM15.6768 11.0079C17.4862 11.0079 18.9472 9.54078 18.9472 7.73747C18.9472 5.93417 17.4801 4.46707 15.6768 4.46707C13.8674 4.46707 12.4064 5.93417 12.4064 7.73747C12.4064 9.54078 13.8674 11.0079 15.6768 11.0079ZM15.6768 5.53683C16.8871 5.53683 17.8713 6.52101 17.8713 7.73136C17.8713 8.94171 16.8871 9.92589 15.6768 9.92589C14.4664 9.92589 13.4822 8.94171 13.4822 7.73136C13.4822 6.52101 14.4664 5.53683 15.6768 5.53683Z" fill="#FE4D3C"/>
</g>
<defs>
<clipPath id="clip0_1686_31683">
<rect width="30" height="30" fill="white" transform="translate(0 0.5)"/>
</clipPath>
</defs>
</svg>
