<svg width="30" height="31" viewBox="0 0 30 31" fill="none" xmlns="http://www.w3.org/2000/svg">
<path d="M15 3C8.09625 3 2.5 8.59625 2.5 15.5C2.5 22.4037 8.09625 28 15 28C21.9037 28 27.5 22.4037 27.5 15.5C27.5 8.59625 21.9037 3 15 3Z" stroke="#541388" stroke-width="1.5" stroke-linecap="round" stroke-linejoin="round"/>
<path d="M5.33887 23.4325C5.33887 23.4325 8.12512 19.875 15.0001 19.875C21.8751 19.875 24.6626 23.4325 24.6626 23.4325M15.0001 15.5C15.9947 15.5 16.9485 15.1049 17.6518 14.4017C18.355 13.6984 18.7501 12.7446 18.7501 11.75C18.7501 10.7554 18.355 9.80161 17.6518 9.09835C16.9485 8.39509 15.9947 8 15.0001 8C14.0056 8 13.0517 8.39509 12.3485 9.09835C11.6452 9.80161 11.2501 10.7554 11.2501 11.75C11.2501 12.7446 11.6452 13.6984 12.3485 14.4017C13.0517 15.1049 14.0056 15.5 15.0001 15.5V15.5Z" stroke="#541388" stroke-width="1.5" stroke-linecap="round" stroke-linejoin="round"/>
</svg>
