<svg width="30" height="31" viewBox="0 0 30 31" fill="none" xmlns="http://www.w3.org/2000/svg">
<path d="M21.7062 11.4973C21.7062 10.6269 22.4111 9.92193 23.2816 9.92193C24.152 9.92193 24.857 10.6269 24.857 11.4973C24.857 12.3678 24.152 13.0727 23.2816 13.0727C22.4111 13.0727 21.7062 12.3678 21.7062 11.4973ZM6.71843 13.0727C7.58888 13.0727 8.29383 12.3678 8.29383 11.4973C8.29383 10.6269 7.58888 9.92193 6.71843 9.92193C5.84798 9.92193 5.14303 10.6269 5.14303 11.4973C5.1369 12.3678 5.84798 13.0727 6.71843 13.0727ZM0 18.1851V4.80955C0 3.37514 1.16469 2.21045 2.5991 2.21045H27.3948C28.8292 2.21045 29.9939 3.37514 29.9939 4.80955V18.1851C29.9939 19.6195 28.8292 20.7842 27.3948 20.7842H2.5991C1.17082 20.7842 0 19.6195 0 18.1851ZM2.21904 15.4879C2.36616 15.4634 2.52554 15.445 2.67879 15.445C4.13159 15.445 5.30854 16.622 5.30854 18.0748C5.30854 18.2403 5.29015 18.3997 5.26563 18.559H24.5137C24.5014 18.4548 24.4953 18.3445 24.4953 18.2341C24.4953 16.7814 25.6723 15.6044 27.1251 15.6044C27.3519 15.6044 27.5664 15.6351 27.7748 15.6841V7.6232C27.5664 7.67837 27.3519 7.70289 27.1251 7.70289C25.6723 7.70289 24.4953 6.52594 24.4953 5.07314C24.4953 4.85246 24.5259 4.63791 24.575 4.42949H5.26563C5.29628 4.58887 5.30854 4.74825 5.30854 4.91376C5.30854 6.36656 4.13159 7.54351 2.67879 7.54351C2.51941 7.54351 2.36616 7.53125 2.21904 7.5006V15.4879ZM28.8905 22.5435H1.15243C0.539436 22.5435 0.0429097 23.04 0.0429097 23.653C0.0429097 24.266 0.539436 24.7626 1.15243 24.7626H28.8905C29.5035 24.7626 30 24.266 30 23.653C30 23.04 29.5035 22.5435 28.8905 22.5435ZM28.8905 26.5709H1.15243C0.539436 26.5709 0.0429097 27.0674 0.0429097 27.6804C0.0429097 28.2934 0.539436 28.7899 1.15243 28.7899H28.8905C29.5035 28.7899 30 28.2934 30 27.6804C30 27.0674 29.5035 26.5709 28.8905 26.5709ZM9.30527 11.4973C9.30527 8.35879 11.8615 5.8026 15 5.8026C18.1385 5.8026 20.6947 8.35879 20.6947 11.4973C20.6947 14.6359 18.1385 17.1921 15 17.1921C11.8615 17.1921 9.30527 14.6359 9.30527 11.4973ZM12.0883 11.6874L13.1549 12.7601L14.2583 13.8696L15.3678 12.7662L17.9117 10.2346L16.8083 9.12504L14.2644 11.6567L13.1978 10.584L12.0883 11.6874Z" fill="#35BA83"/>
</svg>
