<svg xmlns="http://www.w3.org/2000/svg" version="1.1" xmlns:xlink="http://www.w3.org/1999/xlink" xmlns:svgjs="http://svgjs.com/svgjs" width="40" height="40"><svg width="40" height="40" viewBox="0 0 40 40" fill="none" xmlns="http://www.w3.org/2000/svg">
<path d="M13.3331 13.333V19.9994C13.3331 23.682 10.3492 26.6659 6.66659 26.6659C2.98401 26.6659 6.10352e-05 23.6802 6.10352e-05 19.9994V13.333H13.3331Z" fill="#F3B637"></path>
<path d="M26.6641 0V13.3329H19.9976C16.3151 13.3329 13.3311 10.349 13.3311 6.66646C13.3311 2.98392 16.3168 0 19.9976 0H26.6641Z" fill="#EC0869"></path>
<path d="M26.6641 33.3339C26.6641 37.0165 23.6784 40.0004 19.9976 40.0004H13.3311V26.6675H19.9976C23.6802 26.6675 26.6641 29.6514 26.6641 33.3339Z" fill="#35BA83"></path>
<path d="M40 19.9994V26.6659H26.667V19.9994C26.667 16.3169 29.6509 13.333 33.3335 13.333C37.0161 13.333 40 16.3186 40 19.9994Z" fill="#3655D2"></path>
</svg><style>@media (prefers-color-scheme: light) { :root { filter: none; } }
</style></svg>