<svg width="40" height="44" viewBox="0 0 40 44" fill="none" xmlns="http://www.w3.org/2000/svg">
<path d="M7.18727 17.6649H22.7451V14.5491H7.18727C3.24304 14.5491 0 17.8456 0 21.9549V22.0452C0 26.1094 3.19921 29.451 7.18727 29.451H11.3506V28.2769V26.3352H7.18727C4.90838 26.3352 3.02391 24.4386 3.02391 22.0452V21.9549C3.06774 19.6067 4.90838 17.6649 7.18727 17.6649Z" fill="#F7B538"/>
<path d="M32.8117 14.5491H28.6484V17.6649H32.8117C35.0906 17.6649 36.9751 19.5615 36.9751 21.9549V22.0452C36.9751 24.3934 35.1345 26.3352 32.8117 26.3352H17.2539V28.2769V29.451H32.8117C36.756 29.451 39.999 26.1545 39.999 22.0452V21.9549C39.999 17.8907 36.756 14.5491 32.8117 14.5491Z" fill="#3454D1"/>
<path d="M24.7865 24.7451H27.4508V9.18727C27.4508 5.24304 24.1543 2 20.045 2H19.9546C15.8905 2 12.5488 5.19921 12.5488 9.18727V13.3506H13.1359H15.6647V9.18727C15.6647 6.90838 17.5613 5.02391 19.9546 5.02391H20.045C22.3932 5.02391 24.3349 6.86456 24.3349 9.18727V24.7451H24.7865Z" fill="#EC0868"/>
<path d="M25.6896 30.6493H25.2381H24.3349V34.8127C24.3349 37.0916 22.4383 38.9761 20.045 38.9761H19.9546C17.6065 38.9761 15.6647 37.1354 15.6647 34.8127V19.2549H13.7681H13.181H12.5488V34.8127C12.5488 38.7569 15.8453 42 19.9546 42H20.045C24.1091 42 27.4508 38.8008 27.4508 34.8127V30.6493H25.6896Z" fill="#35BA83"/>
</svg>
