<svg width="207" height="76" viewBox="0 0 207 76" fill="none" xmlns="http://www.w3.org/2000/svg">
<g clip-path="url(#clip0_810_4829)">
<path fill-rule="evenodd" clip-rule="evenodd" d="M47.7712 74.8764C37.4556 77.3981 27.0901 75.5255 18.6478 70.4323C10.2055 65.339 3.71139 57.0249 1.16371 46.7135C-1.40894 36.4021 0.46435 26.0157 5.53473 17.5769C10.6051 9.13797 18.8975 2.62155 29.2131 0.0499342L29.363 0L29.388 0.149803L32.0855 10.9855L32.1105 11.1353L31.9606 11.1853C28.4388 12.0841 25.2418 13.632 22.4693 15.6794C19.5969 17.8016 17.2241 20.4481 15.4007 23.4691C13.5774 26.4901 12.3535 29.8607 11.804 33.406C11.3045 36.8265 11.4294 40.3968 12.3036 43.9421C13.2027 47.5124 14.7513 50.7082 16.7995 53.5045C18.9225 56.3758 21.5951 58.7976 24.6173 60.6202C27.6396 62.4178 30.9865 63.6412 34.5083 64.1905C37.9052 64.7148 41.477 64.5899 45.0237 63.7161L45.1736 63.6911L45.1986 63.8409L47.8961 74.6767L47.9211 74.8265L47.7712 74.8764ZM34.7831 21.5217C43.5001 19.4494 52.2921 24.7674 54.4651 33.4809C56.6381 42.2194 51.343 51.0328 42.6509 53.2549L34.7831 21.5217ZM32.635 13.2076L32.8848 14.2562L32.9347 14.406L32.7849 14.456C29.6877 15.2299 26.8903 16.6031 24.4675 18.3758C21.9697 20.2483 19.8717 22.5703 18.2981 25.1918C16.6995 27.8383 15.6006 30.8094 15.151 33.9054C14.7014 36.9014 14.8013 40.0223 15.5756 43.1432C16.3499 46.2391 17.7236 49.0604 19.522 51.5072C21.3703 54.0289 23.7182 56.1261 26.3657 57.724C28.9883 59.2969 31.9357 60.3955 35.0079 60.8449C37.9802 61.3193 41.1023 61.1944 44.1995 60.4454L44.3493 60.4204L44.3993 60.5702L44.6491 61.6189L44.699 61.7687L44.5492 61.8186C41.2522 62.6175 37.9552 62.7424 34.808 62.243C31.536 61.7437 28.4139 60.6202 25.6414 58.9224C22.819 57.2496 20.3462 55.0026 18.373 52.3311C16.4748 49.7595 15.0261 46.7634 14.2018 43.4678C13.4026 40.1721 13.2777 36.8515 13.7522 33.7056C14.2518 30.41 15.3758 27.2641 17.0742 24.4678C18.7477 21.6715 20.9707 19.2247 23.6432 17.2523C26.1909 15.3548 29.1632 13.9067 32.4352 13.0828L32.5851 13.0578L32.635 13.2076ZM33.4343 16.4783L33.734 17.6018L33.759 17.7516L33.6091 17.7766C30.9615 18.4507 28.5637 19.5992 26.5156 21.1472C24.3676 22.7201 22.5692 24.7175 21.2204 26.9645C19.8467 29.2365 18.9225 31.7582 18.5229 34.4047C18.1482 36.9763 18.2481 39.6478 18.9225 42.3193C19.5719 44.9658 20.7459 47.3876 22.2695 49.4599C23.868 51.632 25.8662 53.4296 28.1391 54.7779C30.3871 56.1511 32.8848 57.0748 35.5324 57.4743C38.0801 57.8488 40.7276 57.7739 43.3752 57.1248L43.5251 57.0748L43.5751 57.2246L43.8498 58.3482L43.8748 58.498L43.7249 58.5479C40.8775 59.247 38.0301 59.3219 35.3076 58.9224C32.4852 58.473 29.7876 57.4993 27.3648 56.0512C24.942 54.5781 22.794 52.6557 21.0955 50.3337C19.447 48.1116 18.1982 45.5151 17.4738 42.6688C16.7745 39.7976 16.6746 36.9513 17.0742 34.205C17.4988 31.3587 18.4979 28.6373 19.9716 26.2155C21.4202 23.7937 23.3435 21.6715 25.6414 19.9737C27.8394 18.3259 30.4121 17.0775 33.2595 16.3535L33.4093 16.3285L33.4343 16.4783ZM34.2585 19.7989L34.6582 21.3219L34.6832 21.4717L34.5333 21.5217C30.1623 22.6202 26.6405 25.3916 24.4924 28.9868C22.3444 32.5821 21.5451 37.0013 22.6441 41.3955C23.7182 45.7647 26.4906 49.3101 30.0624 51.4822C33.6591 53.6543 38.0551 54.4533 42.4511 53.4047L42.6009 53.3547L42.6509 53.5045L43.0256 55.0275L43.0505 55.1773L42.9007 55.2273C40.5028 55.8015 38.105 55.8764 35.8071 55.5269C33.4343 55.1524 31.1614 54.3285 29.1382 53.1051C27.0901 51.8817 25.2917 50.2588 23.843 48.2864C22.4693 46.4139 21.4202 44.2417 20.8208 41.8449C20.2213 39.4231 20.1214 37.0262 20.4711 34.7043C20.8458 32.3075 21.67 30.0105 22.8939 27.9881C24.1178 25.9408 25.7413 24.1432 27.6646 22.7201C29.5378 21.3469 31.6859 20.2983 34.0837 19.6741L34.2336 19.6491L34.2585 19.7989Z" fill="#00C795"/>
<path d="M107.169 53.4547C108.418 53.1301 109.617 52.6557 110.691 52.0316L110.741 52.0066C112.065 51.3325 113.538 51.2076 114.862 51.6071C116.186 52.0066 117.335 52.9054 118.059 54.2287C118.759 55.527 118.859 56.9751 118.459 58.2733C118.059 59.5716 117.16 60.7451 115.886 61.4691L115.861 61.4941C113.888 62.5427 111.815 63.3417 109.642 63.891C107.544 64.4153 105.346 64.6899 103.123 64.6899C95.7547 64.6899 89.0858 61.6938 84.2402 56.8752C79.3946 52.0316 76.3973 45.3653 76.3973 38C76.3973 30.6347 79.3946 23.9435 84.2402 19.1248C89.0858 14.2812 95.7547 11.2852 103.123 11.2852C105.346 11.2852 107.544 11.5598 109.642 12.1091C111.815 12.6334 113.888 13.4573 115.861 14.481L115.886 14.5059C117.16 15.23 118.059 16.4034 118.459 17.7267C118.859 19.025 118.759 20.4731 118.059 21.7464V21.7714C117.335 23.0946 116.186 23.9934 114.862 24.3679C113.538 24.7674 112.065 24.6676 110.741 23.9685L110.691 23.9435C109.617 23.3193 108.418 22.8449 107.169 22.5453C105.87 22.2208 104.497 22.046 103.123 22.046C98.727 22.046 94.7306 23.8436 91.8582 26.7398C88.9609 29.611 87.1875 33.5808 87.1875 38C87.1875 42.3942 88.9609 46.389 91.8582 49.2602C94.7306 52.1564 98.727 53.9291 103.123 53.9291C104.497 53.9291 105.87 53.7793 107.169 53.4547ZM133.845 63.117C132.871 64.0907 131.497 64.6899 130.023 64.6899C128.55 64.6899 127.226 64.0907 126.252 63.1419V63.117C125.278 62.1682 124.678 60.82 124.678 59.3469V33.7556C124.678 32.2825 125.278 30.9093 126.252 29.9356C127.226 28.9619 128.55 28.3377 130.023 28.3377C131.497 28.3377 132.871 28.9619 133.845 29.9356C134.844 30.9093 135.444 32.2825 135.444 33.7556V59.3469C135.444 60.82 134.844 62.1682 133.845 63.117ZM133.845 15.0552C134.844 16.0289 135.444 17.3522 135.444 18.8252C135.444 20.3233 134.844 21.6715 133.87 22.6452C132.871 23.6439 131.522 24.2431 130.023 24.2431C128.55 24.2431 127.201 23.6439 126.227 22.6452C125.278 21.6715 124.678 20.3233 124.678 18.8252C124.678 17.3522 125.278 16.0289 126.252 15.0552C127.226 14.0815 128.55 13.4823 130.023 13.4823C131.497 13.4823 132.871 14.0815 133.845 15.0552ZM169.787 37.5256L160.77 46.5637L169.787 55.502C170.387 56.1012 170.786 56.7254 171.011 57.3745C171.261 58.0237 171.361 58.6978 171.361 59.3469C171.361 60.046 171.211 60.7451 170.936 61.3942C170.686 62.0434 170.287 62.6176 169.787 63.1419C169.288 63.6413 168.688 64.0158 168.064 64.2904C167.389 64.5651 166.715 64.6899 166.016 64.6899C165.316 64.6899 164.617 64.5651 163.968 64.2904C163.343 64.0158 162.744 63.6413 162.244 63.1419L152.178 53.0802V59.3469C152.178 60.82 151.579 62.1682 150.58 63.117C149.606 64.0907 148.232 64.6899 146.758 64.6899C145.285 64.6899 143.961 64.0907 142.987 63.1419V63.117C142.013 62.1682 141.413 60.82 141.413 59.3469V16.6281C141.413 15.1551 142.013 13.8318 142.987 12.8581C143.961 11.8844 145.285 11.2852 146.758 11.2852C148.232 11.2852 149.606 11.8844 150.58 12.8581C151.579 13.8318 152.178 15.1551 152.178 16.6281V39.9475L162.244 29.9107C162.719 29.4113 163.318 29.0368 163.943 28.7871C164.617 28.5375 165.316 28.4126 166.016 28.4126C166.715 28.4126 167.389 28.5375 168.014 28.7871C168.638 29.0118 169.213 29.3863 169.762 29.8607L169.812 29.9356C170.312 30.4849 170.711 31.0841 170.961 31.7083C171.211 32.3574 171.361 33.0565 171.361 33.7556C171.361 34.4547 171.211 35.1538 170.936 35.8029C170.686 36.4271 170.287 37.0263 169.787 37.5256ZM197.687 29.9356C198.661 28.9369 200.01 28.3377 201.483 28.3377C202.957 28.3377 204.306 28.9369 205.28 29.9356C206.229 30.9093 206.828 32.2576 206.828 33.7556V50.3588C206.828 50.6584 206.803 51.5821 206.579 52.8555C206.354 54.1038 205.929 55.6768 205.105 57.2996H205.08C203.806 59.6965 202.008 61.544 199.81 62.7924C197.612 64.0408 195.014 64.6899 192.117 64.6899C189.17 64.6899 186.572 64.0408 184.374 62.7924C182.151 61.544 180.378 59.6965 179.154 57.3246C178.279 55.7017 177.83 54.1288 177.58 52.8804C177.355 51.6071 177.33 50.6833 177.33 50.3588V33.7556C177.33 32.2576 177.93 30.9093 178.879 29.9356C179.853 28.9369 181.202 28.3377 182.675 28.3377C184.149 28.3377 185.523 28.9369 186.497 29.9356C187.471 30.9093 188.096 32.2576 188.096 33.7556V50.3588C188.096 50.4337 188.12 50.8831 188.295 51.4823C188.37 51.8069 188.495 52.1564 188.67 52.5059C188.87 52.8305 189.145 53.205 189.594 53.4547C190.119 53.7293 190.893 53.9291 192.117 53.9291C193.291 53.9291 194.065 53.7293 194.59 53.4547C195.039 53.205 195.289 52.8555 195.464 52.5309L195.489 52.5059C195.689 52.1564 195.838 51.7819 195.938 51.4573C196.113 50.8581 196.138 50.4337 196.138 50.3588V33.7556C196.138 32.2576 196.738 30.9093 197.687 29.9356Z" fill="white"/>
</g>
<defs>
<clipPath id="clip0_810_4829">
<rect width="206.845" height="76" fill="white"/>
</clipPath>
</defs>
</svg>
