<svg width="152" height="154" viewBox="0 0 152 154" fill="none" xmlns="http://www.w3.org/2000/svg">
<path d="M31.6277 98.8475L28.7256 99.3727L28.1555 96.2287L24.7075 96.854L25.2776 99.998L22.3789 100.523L23.025 104.092L25.9236 103.567L26.4937 106.711L29.9417 106.089L29.3716 102.942L32.2738 102.416L31.6277 98.8475Z" stroke="#92E3A9" stroke-linecap="round" stroke-linejoin="round"/>
<path d="M60.6004 50.6861L57.8191 49.7049L58.8833 46.6922L55.5804 45.5245L54.5163 48.5372L51.7351 47.556L50.5293 50.9763L53.307 51.9575L52.2429 54.9737L55.5458 56.138L56.6134 53.1253L59.3911 54.1065L60.6004 50.6861Z" stroke="#92E3A9" stroke-linecap="round" stroke-linejoin="round"/>
<path d="M130.749 86.6932L128.144 88.0717L126.649 85.2455L123.549 86.8832L125.045 89.7093L122.44 91.0878L124.137 94.2939L126.742 92.9154L128.238 95.7381L131.337 94.1005L129.841 91.2744L132.446 89.8958L130.749 86.6932Z" stroke="#92E3A9" stroke-linecap="round" stroke-linejoin="round"/>
<path d="M19.508 91.3573C20.6757 91.3573 21.6224 90.4106 21.6224 89.2429C21.6224 88.0751 20.6757 87.1285 19.508 87.1285C18.3402 87.1285 17.3936 88.0751 17.3936 89.2429C17.3936 90.4106 18.3402 91.3573 19.508 91.3573Z" stroke="#92E3A9" stroke-linecap="round" stroke-linejoin="round"/>
<path d="M52.4436 60.9749C52.4436 61.0856 52.4108 61.1938 52.3493 61.2858C52.2878 61.3778 52.2004 61.4496 52.0981 61.4919C51.9958 61.5343 51.8833 61.5454 51.7747 61.5238C51.6662 61.5022 51.5664 61.4489 51.4881 61.3706C51.4099 61.2923 51.3566 61.1926 51.335 61.084C51.3134 60.9755 51.3245 60.8629 51.3668 60.7607C51.4092 60.6584 51.4809 60.571 51.573 60.5095C51.665 60.448 51.7732 60.4152 51.8839 60.4152C52.0324 60.4152 52.1747 60.4741 52.2797 60.5791C52.3846 60.6841 52.4436 60.8264 52.4436 60.9749V60.9749Z" stroke="#92E3A9" stroke-linecap="round" stroke-linejoin="round"/>
<path d="M26.8323 51.3737C26.8323 51.7645 26.7164 52.1466 26.4992 52.4716C26.2821 52.7966 25.9735 53.0499 25.6124 53.1994C25.2512 53.349 24.8539 53.3882 24.4706 53.3119C24.0872 53.2357 23.7351 53.0474 23.4587 52.7711C23.1823 52.4947 22.9941 52.1426 22.9179 51.7592C22.8416 51.3759 22.8807 50.9785 23.0303 50.6174C23.1799 50.2563 23.4332 49.9477 23.7582 49.7305C24.0832 49.5134 24.4652 49.3975 24.8561 49.3975C25.3799 49.3984 25.8821 49.6069 26.2525 49.9773C26.6229 50.3477 26.8314 50.8498 26.8323 51.3737V51.3737Z" stroke="#92E3A9" stroke-linecap="round" stroke-linejoin="round"/>
<path d="M113.907 78.1423C113.907 78.3637 113.841 78.5801 113.718 78.7642C113.595 78.9483 113.42 79.0917 113.216 79.1765C113.011 79.2612 112.786 79.2834 112.569 79.2402C112.352 79.197 112.152 79.0904 111.996 78.9338C111.839 78.7773 111.733 78.5778 111.689 78.3607C111.646 78.1435 111.668 77.9184 111.753 77.7139C111.838 77.5094 111.981 77.3345 112.165 77.2115C112.35 77.0885 112.566 77.0229 112.787 77.0229C113.084 77.0229 113.369 77.1408 113.579 77.3508C113.789 77.5607 113.907 77.8454 113.907 78.1423V78.1423Z" stroke="#92E3A9" stroke-linecap="round" stroke-linejoin="round"/>
<path d="M102.592 44.0251C103.975 44.0251 105.097 42.9036 105.097 41.5203C105.097 40.1369 103.975 39.0154 102.592 39.0154C101.208 39.0154 100.087 40.1369 100.087 41.5203C100.087 42.9036 101.208 44.0251 102.592 44.0251Z" stroke="#92E3A9" stroke-linecap="round" stroke-linejoin="round"/>
<path d="M87.1699 64.0359C87.3012 64.2328 91.264 65.024 93.3197 68.0125C94.5157 69.7294 95.519 71.5728 96.3116 73.5092C96.3116 73.5092 99.7493 75.5546 101.511 77.2405C103.273 78.9265 105.374 81.1653 106.994 82.34C108.615 83.5147 111.949 85.7431 112.788 88.3515C112.788 88.3515 107.789 102.043 106.376 105.07C104.963 108.096 101.477 114.519 101.477 114.519L95.2579 140.939H59.1852L57.9552 131.876C57.9552 131.876 46.8995 129.707 42.2803 125.658C42.2803 125.658 41.845 115.638 43.7763 106.701C45.7076 97.7627 52.2754 79.1788 56.7253 73.5023C56.7253 73.5023 63.832 70.1027 70.1027 69.011C70.1027 69.011 74.1726 65.7944 76.8363 65.4524C79.5 65.1104 87.1699 64.0359 87.1699 64.0359Z" fill="white"/>
<path d="M58.4422 135.96C61.6449 136.572 64.4365 137.1 67.6979 137.062C70.9594 137.024 74.2899 136.292 76.9571 134.423C77.4724 133.994 78.0564 133.655 78.6845 133.421C80.101 133.024 81.5037 133.96 82.9099 134.395C84.6926 134.948 86.6481 134.685 88.3963 134.022C90.1445 133.359 91.7164 132.326 93.2746 131.296C93.0443 134.475 92.9694 137.659 93.05 140.849L95.2715 140.939L100.962 115.901C100.962 115.901 91.2293 127.205 86.4857 130.581L77.3855 128.238C77.3855 128.238 76.5287 128.95 74.7252 129.309C74.7252 129.309 73.8995 132.485 69.2561 132.491C64.6127 132.498 57.9551 131.876 57.9551 131.876L58.4422 135.96Z" fill="#92E3A9"/>
<path opacity="0.5" d="M58.4422 135.96C61.6449 136.572 64.4365 137.1 67.6979 137.062C70.9594 137.024 74.2899 136.292 76.9571 134.423C77.4724 133.994 78.0564 133.655 78.6845 133.421C80.101 133.024 81.5037 133.96 82.9099 134.395C84.6926 134.948 86.6481 134.685 88.3963 134.022C90.1445 133.359 91.7164 132.326 93.2746 131.296C93.0443 134.475 92.9694 137.659 93.05 140.849L95.2715 140.939L100.962 115.901C100.962 115.901 91.2293 127.205 86.4857 130.581L77.3855 128.238C77.3855 128.238 76.5287 128.95 74.7252 129.309C74.7252 129.309 73.8995 132.485 69.2561 132.491C64.6127 132.498 57.9551 131.876 57.9551 131.876L58.4422 135.96Z" fill="white"/>
<path d="M49.1175 89.2429C49.1175 89.2429 44.8921 109.755 45.1063 116.799C45.1063 116.799 50.8484 115.189 54.8561 116.799C54.8561 116.799 48.0361 116.039 45.0994 119.166C42.1628 122.293 51.2008 130.508 69.2838 128.84C69.2838 128.84 72.8907 129.969 74.7218 129.306C74.7218 129.306 74.2312 132.574 69.2527 132.488C64.2949 132.291 49.7912 132.17 42.2768 125.661C42.2802 125.665 41.3336 106.808 49.1175 89.2429Z" fill="#92E3A9"/>
<path opacity="0.6" d="M49.1175 89.2429C49.1175 89.2429 44.8921 109.755 45.1063 116.799C45.1063 116.799 50.8484 115.189 54.8561 116.799C54.8561 116.799 48.0361 116.039 45.0994 119.166C42.1628 122.293 51.2008 130.508 69.2838 128.84C69.2838 128.84 72.8907 129.969 74.7218 129.306C74.7218 129.306 74.2312 132.574 69.2527 132.488C64.2949 132.291 49.7912 132.17 42.2768 125.661C42.2802 125.665 41.3336 106.808 49.1175 89.2429Z" fill="white"/>
<path d="M57.7578 93.1746C57.7578 93.1746 59.005 102.258 61.0192 104.158C63.0335 106.058 72.4204 105.436 76.1379 107.485C76.1379 107.485 79.6377 101.421 85.9671 97.628L77.3851 111.14L69.9675 109.389L60.9121 108.007L60.1521 109.755H58.7908C58.7908 109.755 58.6388 100.06 57.7578 93.1746Z" fill="#92E3A9"/>
<path opacity="0.5" d="M57.7578 93.1746C57.7578 93.1746 59.005 102.258 61.0192 104.158C63.0335 106.058 72.4204 105.436 76.1379 107.485C76.1379 107.485 79.6377 101.421 85.9671 97.628L77.3851 111.14L69.9675 109.389L60.9121 108.007L60.1521 109.755H58.7908C58.7908 109.755 58.6388 100.06 57.7578 93.1746Z" fill="white"/>
<path d="M93.2365 74.6736C97.1163 76.9573 97.5517 79.5312 98.3497 81.3692C96.3321 81.77 94.2453 82.1984 92.58 83.4041C90.5071 84.9105 89.3843 87.4049 88.5136 89.8268C87.69 92.1187 86.9979 94.4557 86.4407 96.8264C88.316 93.4387 90.9815 90.5539 94.2108 88.4172C96.073 87.1872 98.3739 86.1957 100.499 86.8901C98.716 87.6468 96.6983 88.6694 96.3217 90.5696C96.2477 90.885 96.2608 91.2146 96.3597 91.5232C96.6776 92.418 97.79 92.6598 98.633 93.0951C100.278 93.9416 101.134 95.8591 101.207 97.7178C101.28 99.5766 100.709 101.373 100.146 103.132C99.6511 104.673 99.1559 106.213 98.6607 107.754C98.0284 109.724 97.3858 111.721 96.2422 113.448C95.0987 115.175 93.3816 116.623 91.3397 116.962C90.4861 117.126 89.6025 117.026 88.8073 116.675C88.2045 116.347 87.6441 115.947 87.1386 115.483C84.689 113.505 81.7453 112.234 78.6257 111.807C82.6403 114.46 84.5405 119.28 86.2057 123.795C85.4411 122.457 84.3393 121.342 83.0099 120.562C82.6692 120.324 82.2643 120.197 81.8491 120.195C80.7574 120.282 80.4119 121.674 79.7554 122.545C78.9677 123.581 77.527 123.951 76.2349 123.785C74.9427 123.619 73.7542 123.015 72.5934 122.403L57.9066 114.83L56.8701 117.939C56.8701 117.939 68.5684 127.268 86.4925 130.567C86.4925 130.567 98.1355 121.367 102.261 113.21C106.386 105.053 112.795 88.3343 112.795 88.3343C112.795 88.3343 110.449 83.8913 106.427 81.573C106.427 81.573 103.425 80.1531 102.793 78.398C102.161 76.6429 96.5186 73.6129 96.5186 73.6129C96.5186 73.6129 97.2511 75.4855 93.2365 74.6736Z" fill="#92E3A9"/>
<path opacity="0.6" d="M93.2365 74.6736C97.1163 76.9573 97.5517 79.5312 98.3497 81.3692C96.3321 81.77 94.2453 82.1984 92.58 83.4041C90.5071 84.9105 89.3843 87.4049 88.5136 89.8268C87.69 92.1187 86.9979 94.4557 86.4407 96.8264C88.316 93.4387 90.9815 90.5539 94.2108 88.4172C96.073 87.1872 98.3739 86.1957 100.499 86.8901C98.716 87.6468 96.6983 88.6694 96.3217 90.5696C96.2477 90.885 96.2608 91.2146 96.3597 91.5232C96.6776 92.418 97.79 92.6598 98.633 93.0951C100.278 93.9416 101.134 95.8591 101.207 97.7178C101.28 99.5766 100.709 101.373 100.146 103.132C99.6511 104.673 99.1559 106.213 98.6607 107.754C98.0284 109.724 97.3858 111.721 96.2422 113.448C95.0987 115.175 93.3816 116.623 91.3397 116.962C90.4861 117.126 89.6025 117.026 88.8073 116.675C88.2045 116.347 87.6441 115.947 87.1386 115.483C84.689 113.505 81.7453 112.234 78.6257 111.807C82.6403 114.46 84.5405 119.28 86.2057 123.795C85.4411 122.457 84.3393 121.342 83.0099 120.562C82.6692 120.324 82.2643 120.197 81.8491 120.195C80.7574 120.282 80.4119 121.674 79.7554 122.545C78.9677 123.581 77.527 123.951 76.2349 123.785C74.9427 123.619 73.7542 123.015 72.5934 122.403L57.9066 114.83L56.8701 117.939C56.8701 117.939 68.5684 127.268 86.4925 130.567C86.4925 130.567 98.1355 121.367 102.261 113.21C106.386 105.053 112.795 88.3343 112.795 88.3343C112.795 88.3343 110.449 83.8913 106.427 81.573C106.427 81.573 103.425 80.1531 102.793 78.398C102.161 76.6429 96.5186 73.6129 96.5186 73.6129C96.5186 73.6129 97.2511 75.4855 93.2365 74.6736Z" fill="white"/>
<path d="M92.0028 42.8711C92.0028 42.8711 92.787 33.726 88.845 32.8519C84.9029 31.9778 82.6884 28.3605 82.6884 28.3605L68.7029 32.2646L66.5332 40.6738L67.9152 44.9303C67.9152 44.9303 68.2054 48.8792 68.2607 50.8313C68.3159 52.7833 68.2607 54.2862 69.7394 56.6562C71.2181 59.0263 72.5931 61.3791 75.7889 63.4278V68.814C75.7889 68.814 73.8127 74.5803 74.9044 78.1181C74.9044 78.1181 75.5574 78.8091 77.3609 77.7726C79.1643 76.7362 86.8792 71.5814 89.5705 66.1987L90.4066 52.5138C90.4066 52.5138 92.6281 52.8593 93.5851 50.8347C94.9913 48.855 94.936 46.5472 94.3901 44.6677C93.8442 42.7882 91.4949 44.0044 91.4949 44.0044L92.0028 42.8711Z" fill="#999999"/>
<path d="M75.9414 56.2796C76.3369 55.849 76.8242 55.513 77.3673 55.2965C77.9104 55.08 78.4952 54.9885 79.0785 55.0289C79.0785 55.0289 80.761 52.3721 82.5334 52.8593C82.5334 52.8593 83.0792 55.675 80.9545 56.784C78.1906 58.2247 75.9414 56.2796 75.9414 56.2796Z" fill="#737373"/>
<path d="M70.7454 31.1003C70.7454 31.1003 67.3976 35.4984 67.5911 40.083C67.7846 44.6677 68.4514 47.9188 68.2579 51.4566C68.0644 54.9944 71.7957 60.9196 75.6203 63.3069C78.4775 65.0931 82.0602 64.7891 84.8414 62.9614C87.9509 60.8885 89.661 57.1641 90.2864 53.5883C90.3486 53.2428 90.3969 52.8973 90.4315 52.5242" stroke="#263238" stroke-linecap="round" stroke-linejoin="round"/>
<path d="M75.6195 63.3104C75.6195 63.3104 76.1619 68.2647 75.6195 69.9611C75.0218 71.8233 74.2997 76.1592 74.9285 78.1181C75.5573 80.077 87.3213 71.844 89.5946 66.1952C89.5946 66.1952 89.909 55.219 90.6933 52.4758" stroke="#263238" stroke-linecap="round" stroke-linejoin="round"/>
<path d="M75.2949 56.1587C75.2949 56.1587 80.6466 57.672 82.837 52.1476" stroke="#263238" stroke-linecap="round" stroke-linejoin="round"/>
<path d="M75.7266 64.5023C75.7266 64.5023 76.8667 68.0367 79.3266 68.2474C81.7865 68.4582 87.9397 63.528 90.0368 57.7203V54.8148C90.0368 54.8148 88.3093 62.4156 83.2514 63.7975C78.1934 65.1795 75.8268 63.4209 75.8268 63.4209L75.7266 64.5023Z" fill="#263238"/>
<path d="M82.5295 52.8593C80.1525 52.6934 79.0746 55.0289 79.0746 55.0289C78.4887 54.9575 77.8943 55.0346 77.3461 55.2531C76.7979 55.4717 76.3135 55.8247 75.9375 56.2796C76.5231 56.8049 77.2431 57.1573 78.0171 57.2976C78.7912 57.4379 79.589 57.3606 80.3218 57.0742C83.0235 56.1345 82.5295 52.8593 82.5295 52.8593Z" stroke="#263238" stroke-linecap="round" stroke-linejoin="round"/>
<path d="M76.5703 42.4393C76.5998 43.5354 76.5513 44.6322 76.4252 45.7214C76.2973 46.6992 75.8447 47.6355 75.4682 48.5545C75.1227 49.3905 74.5457 50.6758 75.0259 51.5568C75.5718 52.5552 77.3856 51.5568 77.3856 51.5568" stroke="#263238" stroke-linecap="round" stroke-linejoin="round"/>
<path d="M78.501 51.3495C79.1125 51.4324 79.9797 51.3495 80.1524 50.2888" stroke="#263238" stroke-linecap="round" stroke-linejoin="round"/>
<path d="M80.4775 41.1195C81.0687 40.5556 81.8544 40.241 82.6714 40.241C83.4884 40.241 84.2741 40.5556 84.8653 41.1195" stroke="#263238" stroke-width="2" stroke-linecap="round" stroke-linejoin="round"/>
<path d="M73.5053 41.9832C73.5053 41.9832 71.885 39.9103 69.7637 41.9832" stroke="#263238" stroke-width="2" stroke-linecap="round" stroke-linejoin="round"/>
<path d="M89.1602 47.2244C89.1602 47.2244 91.0085 42.7848 93.4201 43.7384C95.0819 44.3982 95.1821 47.2658 94.3011 49.2662C93.4201 51.2666 92.9778 53.305 90.0412 52.1649" stroke="#263238" stroke-linecap="round" stroke-linejoin="round"/>
<path d="M89.4874 46.5437C89.4874 46.5437 87.7116 45.9149 87.3834 43.0301C87.0552 40.1452 88.8241 37.2569 88.1677 35.184C87.5112 33.111 82.3392 34.1475 81.1611 30.5337C81.1611 30.5337 77.2778 33.4289 69.7599 32.807C69.7599 32.807 68.1741 35.5087 67.8977 37.1602C67.5276 39.7423 67.5369 42.3647 67.9253 44.9441C67.9253 45.0339 67.9564 45.1203 67.9737 45.2101C68.5127 48.0224 65.8282 41.3821 65.9008 38.5456C65.9733 35.7091 64.2631 32.1056 66.4916 29.4212C68.72 26.7367 76.8908 25.1647 78.5008 23.9037C80.1108 22.6427 83.241 26.0008 86.8582 27.2377C90.4755 28.4745 93.4744 29.9498 93.0183 35.0803C92.5623 40.2109 93.0425 40.8984 93.0633 43.6001C93.0633 43.607 91.3911 42.9782 89.4874 46.5437Z" fill="#263238"/>
<path d="M82.6783 44.8577C82.6783 45.5487 82.4122 46.1222 82.0806 46.1222C81.7489 46.1222 81.4863 45.5556 81.4863 44.8577C81.4863 44.1598 81.7524 43.5967 82.0806 43.5967C82.4088 43.5967 82.6783 44.1667 82.6783 44.8577Z" fill="#263238"/>
<path d="M73.5059 44.8577C73.5059 45.5487 73.2398 46.1222 72.9116 46.1222C72.5834 46.1222 72.3174 45.5556 72.3174 44.8577C72.3174 44.1598 72.5834 43.5967 72.9116 43.5967C73.2398 43.5967 73.5059 44.1667 73.5059 44.8577Z" fill="#263238"/>
<path d="M80.4775 46.5437C80.4775 46.5437 81.7109 47.8531 83.2726 48.0397" stroke="#263238" stroke-linecap="round" stroke-linejoin="round"/>
<path d="M72.0752 48.0397C72.0752 48.0397 74.3313 47.8808 74.8391 46.5437" stroke="#263238" stroke-linecap="round" stroke-linejoin="round"/>
<path d="M77.3193 78.9576C78.9984 77.8901 81.2199 78.2908 83.0579 79.0475C84.0668 79.4655 85.0272 79.9907 86.0326 80.4294C86.5297 80.6492 87.0424 80.8317 87.5666 80.9753C88.8276 81.3035 88.375 79.7385 88.3025 79.0371C88.1988 78.0317 88.1263 77.0229 88.0054 76.0244C87.9557 75.8177 87.9802 75.6 88.0745 75.4095C88.1985 75.2557 88.3718 75.1495 88.5651 75.1089C90.7797 74.4179 93.167 74.7219 95.4749 74.7634C95.6844 74.7882 95.8966 74.7484 96.0829 74.6494C96.4284 74.4248 96.3904 73.9169 96.2971 73.5162C95.4991 70.1027 92.6833 66.7065 89.6223 64.9998" stroke="#263238" stroke-linecap="round" stroke-linejoin="round"/>
<path d="M75.8132 65.5526C74.2896 66.1883 72.7245 66.8482 71.4116 67.8225C70.9353 68.1698 70.4965 68.5658 70.1022 69.0041C69.7846 69.3062 69.5849 69.7116 69.5391 70.1476C69.5476 70.3504 69.6013 70.5488 69.6964 70.7281C69.7914 70.9074 69.9253 71.0632 70.0884 71.1841C70.3203 71.375 70.5757 71.5352 70.8485 71.6609C71.4842 71.9615 72.2304 72.2551 72.4999 72.8943C72.5654 73.0282 72.5894 73.1785 72.569 73.3262C72.5347 73.4558 72.4682 73.5747 72.3755 73.6716C71.8504 74.3108 70.9245 74.8049 70.9936 75.6306C71.0385 76.2697 71.6846 76.6671 72.2581 76.9504C72.8316 77.2337 73.5018 77.5273 73.6988 78.1388" stroke="#263238" stroke-linecap="round" stroke-linejoin="round"/>
<path d="M66.793 33.1559C67.0175 31.774 68.4617 30.8826 69.8506 30.658C71.2394 30.4334 72.6663 30.658 74.0656 30.5371C75.2358 30.4215 76.3676 30.056 77.3844 29.4653C78.4013 28.8746 79.2794 28.0725 79.9596 27.1133" stroke="white" stroke-linecap="round" stroke-linejoin="round"/>
<path d="M68.3643 29.2726C70.8725 27.7905 74.3965 29.3313 76.8426 27.749C77.5348 27.245 78.1374 26.6284 78.6253 25.9248" stroke="white" stroke-linecap="round" stroke-linejoin="round"/>
<path d="M100.361 85.9711C91.3781 87.7642 88.0269 94.3735 88.0269 94.3735L77.3857 111.133" stroke="#263238" stroke-linecap="round" stroke-linejoin="round"/>
<path d="M92.7666 84.1608C93.5119 83.4703 94.3562 82.8951 95.2714 82.454" stroke="#263238" stroke-linecap="round" stroke-linejoin="round"/>
<path d="M86.4854 96.8126C86.4854 96.8126 87.6186 90.7596 90.8731 86.2993" stroke="#263238" stroke-linecap="round" stroke-linejoin="round"/>
<path d="M58.7907 109.727C58.7907 109.727 58.3243 91.1846 56.7178 88.3516" stroke="#263238" stroke-linecap="round" stroke-linejoin="round"/>
<path d="M96.3115 73.5093C96.3115 73.5093 101.494 76.6187 103.795 79.5415C106.096 82.4644 111.534 84.4061 112.778 88.3516C112.778 88.3516 105.616 110.919 98.1116 119.076C90.6075 127.233 86.4754 130.581 86.4754 130.581C86.4754 130.581 68.4235 127.444 56.7148 117.611L60.9022 107.989C60.9022 107.989 72.7076 109.482 77.3752 111.14C82.0428 112.798 86.4754 122.842 86.4754 122.842" stroke="#263238" stroke-linecap="round" stroke-linejoin="round"/>
<path d="M77.3857 111.14C77.3857 111.14 85.6499 112.747 88.3343 116.509" stroke="#263238" stroke-linecap="round" stroke-linejoin="round"/>
<path d="M101.166 115.01L95.2715 140.939H59.185L57.9551 131.877" stroke="#263238" stroke-linecap="round" stroke-linejoin="round"/>
<path d="M74.7251 129.31C72.7316 133.393 70.1024 132.491 70.1024 132.491C49.7703 133.262 42.28 125.665 42.28 125.665C42.28 125.665 41.2436 114.979 45.2409 100.558C49.2382 86.137 56.725 73.5093 56.725 73.5093C60.0452 71.3016 67.4525 69.5776 69.5427 69.1216L70.1024 69.0041" stroke="#263238" stroke-linecap="round" stroke-linejoin="round"/>
<path d="M70.1125 132.491C70.1125 132.491 69.0381 132.315 69.311 125.191" stroke="#263238" stroke-linecap="round" stroke-linejoin="round"/>
<path d="M57.2744 118.067C57.2744 118.067 52.1957 116.278 45.9043 120.631" stroke="#263238" stroke-linecap="round" stroke-linejoin="round"/>
<path d="M47.0439 116.509C47.0439 116.509 53.6981 114.529 56.7177 117.701" stroke="#263238" stroke-linecap="round" stroke-linejoin="round"/>
<path d="M55.9999 117.521L56.8636 117.953L60.1527 109.737C60.1527 109.737 56.7462 109.181 51.3496 115.901C53.0347 115.921 54.6675 116.49 55.9999 117.521Z" fill="#999999" stroke="#263238" stroke-miterlimit="10"/>
<path d="M69.3008 125.191V128.843C69.3008 128.843 73.9545 130.225 77.3991 128.238L69.3008 125.191Z" fill="#999999" stroke="#263238" stroke-miterlimit="10"/>
<path d="M94.5255 74.7254C94.5289 74.7928 94.5219 74.8604 94.5048 74.9257C94.3597 75.4958 90.8115 88.8905 79.4552 94.8502C79.3565 94.9031 79.246 94.9304 79.1339 94.9297C78.9795 94.9296 78.8296 94.8778 78.7081 94.7825C78.5866 94.6873 78.5005 94.5541 78.4635 94.4042C78.4265 94.2543 78.4408 94.0963 78.5041 93.9555C78.5673 93.8146 78.676 93.699 78.8126 93.6272C89.1773 88.1926 92.8292 75.8067 93.147 74.6666L94.5255 74.7254Z" fill="#263238"/>
<path d="M70.0887 71.1737C68.2934 75.2742 67.3248 79.6887 67.2384 84.1642C67.2384 84.5269 67.2384 84.8966 67.2384 85.2732C67.2384 85.3665 67.2384 85.4598 67.2384 85.5531C67.1353 85.5566 67.0326 85.567 66.9309 85.5841C66.5571 85.6431 66.1946 85.7597 65.8564 85.9296C65.8564 85.4218 65.8564 84.9277 65.8564 84.4406C66.005 76.6878 68.3198 71.4121 69.5532 69.1319L70.1129 69.0144C69.7953 69.3166 69.5956 69.722 69.5497 70.158C69.56 70.3564 69.6136 70.5501 69.7067 70.7256C69.7998 70.901 69.9302 71.054 70.0887 71.1737Z" fill="#263238"/>
<path d="M83.6943 91.7339C84.5028 92.8568 83.8394 94.7224 82.2087 95.9005C80.578 97.0787 78.6018 97.1201 77.7899 95.9973C76.978 94.8744 77.6413 93.0088 79.2721 91.8307C80.9028 90.6525 82.8962 90.6111 83.6943 91.7339Z" fill="white" stroke="#263238" stroke-linecap="round" stroke-linejoin="round"/>
<path d="M81.6829 91.0671C82.2564 91.8617 81.7866 93.1815 80.6465 94.0141C79.5063 94.8468 78.0933 94.8779 77.537 94.0832C76.9808 93.2886 77.4334 91.9688 78.5735 91.1362C79.7136 90.3036 81.1094 90.2759 81.6829 91.0671Z" fill="white" stroke="#263238" stroke-linecap="round" stroke-linejoin="round"/>
<path d="M72.5524 105.091C72.4052 105.188 72.2262 105.226 72.0521 105.196C71.8779 105.166 71.722 105.07 71.6162 104.929C71.5105 104.787 71.463 104.61 71.4835 104.435C71.5041 104.259 71.5911 104.098 71.7267 103.985C71.7854 103.937 74.1037 101.964 73.0879 95.3201C73.0015 94.7569 72.891 94.1558 72.7424 93.5235C72.3036 91.5093 71.6265 88.9596 70.2411 87.087C69.9115 86.5931 69.4601 86.1925 68.9306 85.9238C68.4011 85.6551 67.8113 85.5274 67.218 85.553C67.115 85.5566 67.0122 85.5669 66.9105 85.5841C66.5367 85.6431 66.1742 85.7597 65.8361 85.9296C64.804 86.4628 64.0206 87.3775 63.6526 88.4794L63.5282 88.8248C62.7447 90.9435 62.1041 93.1123 61.6107 95.3166C61.0579 98.0287 60.8714 100.872 61.8526 102.859C62.1155 103.404 62.49 103.887 62.9518 104.279C63.4137 104.67 63.9526 104.959 64.5336 105.129C64.6895 105.18 64.8222 105.285 64.9077 105.425C64.9932 105.565 65.026 105.731 65.0002 105.893C64.9744 106.056 64.8918 106.203 64.767 106.31C64.6422 106.417 64.4835 106.476 64.3194 106.476C64.2466 106.476 64.1743 106.464 64.1052 106.441C63.3496 106.215 62.6493 105.833 62.0487 105.322C61.448 104.81 60.9601 104.18 60.6157 103.47C59.5101 101.235 59.6552 98.1911 60.2149 95.3166C60.7111 92.9527 61.3832 90.6291 62.2257 88.3653L62.3501 88.0198C62.6217 87.1976 63.0766 86.4478 63.6805 85.8271C64.2844 85.2064 65.0215 84.7311 65.8361 84.4371C66.118 84.3394 66.4083 84.2677 66.7032 84.2229C66.8794 84.1987 67.0487 84.1814 67.2284 84.1711C68.0371 84.1488 68.8385 84.3298 69.5591 84.6974C70.2798 85.0649 70.8968 85.6074 71.3535 86.2751C72.8944 88.3481 73.6269 91.0878 74.0933 93.2368C74.2557 93.9761 74.38 94.6705 74.4733 95.327C75.5651 102.776 72.6871 104.994 72.5524 105.091Z" fill="#263238" stroke="#263238" stroke-miterlimit="10"/>
<path d="M63.8352 106.355C63.8352 106.355 66.34 107.392 66.9757 106.355C67.6114 105.319 67.0966 104.831 66.2294 104.749C65.3651 104.704 64.4991 104.704 63.6348 104.749L63.8352 106.355Z" fill="#263238" stroke="#263238" stroke-miterlimit="10"/>
<path d="M64.9856 106.01C64.9404 106.148 64.8526 106.269 64.7347 106.354C64.6168 106.44 64.4748 106.486 64.3291 106.486C64.2563 106.486 64.1841 106.475 64.1149 106.452C63.3594 106.225 62.6591 105.844 62.0584 105.332C61.4578 104.821 60.9699 104.19 60.6255 103.481C59.5199 101.245 59.665 98.2015 60.2247 95.327H61.6067C61.0539 98.0391 60.8673 100.883 61.8485 102.869C62.1114 103.414 62.4859 103.898 62.9478 104.289C63.4096 104.68 63.9485 104.97 64.5295 105.139C64.6169 105.166 64.6982 105.21 64.7685 105.268C64.8388 105.326 64.8969 105.398 64.9393 105.479C64.9817 105.56 65.0077 105.649 65.0156 105.74C65.0235 105.831 65.0133 105.923 64.9856 106.01Z" fill="white" stroke="#263238" stroke-linecap="round" stroke-linejoin="round"/>
<path d="M70.244 104.341C70.1399 104.465 70.063 104.609 70.0184 104.764C69.9737 104.919 69.9623 105.083 69.9849 105.243C70.0539 105.479 70.2037 105.684 70.4083 105.822C70.6128 105.959 70.8591 106.021 71.1043 105.996C71.5951 105.93 72.0436 105.684 72.3619 105.305C72.7074 104.918 73.9062 102.385 72.7972 102.821C71.9922 103.125 70.783 103.64 70.244 104.341Z" fill="#263238" stroke="#263238" stroke-miterlimit="10"/>
<path d="M72.5521 105.091C72.4049 105.188 72.2259 105.226 72.0517 105.196C71.8776 105.166 71.7216 105.07 71.6159 104.929C71.5101 104.787 71.4627 104.61 71.4832 104.435C71.5037 104.259 71.5908 104.098 71.7263 103.985C71.7851 103.937 74.1033 101.964 73.0876 95.3201H74.4695C75.5648 102.776 72.6868 104.994 72.5521 105.091Z" fill="white" stroke="#263238" stroke-linecap="round" stroke-linejoin="round"/>
<path opacity="0.2" d="M78.75 44.0251C78.75 44.0251 83.0997 41.7656 87.0971 44.0251C87.0971 44.0251 87.1627 47.3591 85.6529 48.7307C85.1174 49.2178 82.6644 49.3007 81.735 49.2178C77.9623 48.8758 78.75 44.0251 78.75 44.0251Z" fill="white"/>
<path opacity="0.2" d="M76.0208 44.0251C76.0208 44.0251 71.6711 41.7656 67.6772 44.0251C67.6772 44.0251 67.6115 47.3591 69.1179 48.7307C69.6534 49.2178 72.1098 49.3007 73.0357 49.2178C76.8085 48.8758 76.0208 44.0251 76.0208 44.0251Z" fill="white"/>
<path d="M78.75 44.0251C78.75 44.0251 83.0997 41.7656 87.0971 44.0251C87.0971 44.0251 87.1627 47.3591 85.6529 48.7307C85.1174 49.2178 82.6644 49.3007 81.735 49.2178C77.9623 48.8758 78.75 44.0251 78.75 44.0251Z" stroke="#263238" stroke-miterlimit="10"/>
<path d="M76.0208 44.0251C76.0208 44.0251 71.6711 41.7656 67.6772 44.0251C67.6772 44.0251 67.6115 47.3591 69.1179 48.7307C69.6534 49.2178 72.1098 49.3007 73.0357 49.2178C76.8085 48.8758 76.0208 44.0251 76.0208 44.0251Z" stroke="#263238" stroke-miterlimit="10"/>
<path d="M76.0205 44.0251C76.0205 44.0251 76.9948 43.3099 78.7499 44.0251" stroke="#263238" stroke-miterlimit="10"/>
<path d="M87.0967 44.0251L88.914 44.8681" stroke="#263238" stroke-miterlimit="10"/>
<path d="M17.5352 150.136L30.3218 138.057H131.806L139.49 150.136H17.5352Z" fill="white" stroke="#263238" stroke-linecap="round" stroke-linejoin="round"/>
<path d="M139.49 150.136H17.5352V153.387H139.49V150.136Z" fill="#263238" stroke="#263238" stroke-linecap="round" stroke-linejoin="round"/>
<path d="M30.3223 147.151V144.646H50.3607V147.151H46.4947H30.3223Z" fill="white" stroke="#263238" stroke-miterlimit="10"/>
<path d="M30.3223 144.646L42.1588 136.706L57.9546 137.08L50.3607 144.646H30.3223Z" fill="white" stroke="#263238" stroke-linecap="round" stroke-linejoin="round"/>
<path d="M50.3604 147.151L57.9542 139.543V137.08L50.3604 144.646V147.151Z" fill="white" stroke="#263238" stroke-linecap="round" stroke-linejoin="round"/>
<path d="M49.8184 144.014C49.8184 144.014 48.2188 144.331 48.2188 145.717C48.2188 147.102 49.6007 147.51 49.6007 147.51" stroke="#263238" stroke-width="2" stroke-linecap="round" stroke-linejoin="round"/>
<path d="M48.2188 144.014C48.2188 144.014 46.6191 144.331 46.6191 145.717C46.6191 147.102 48.0011 147.51 48.0011 147.51" stroke="#263238" stroke-width="2" stroke-linecap="round" stroke-linejoin="round"/>
<path d="M46.6192 144.014C46.6192 144.014 45.0195 144.331 45.0195 145.717C45.0195 147.102 46.4015 147.51 46.4015 147.51" stroke="#263238" stroke-width="2" stroke-linecap="round" stroke-linejoin="round"/>
<path d="M45.0195 144.014C45.0195 144.014 43.4199 144.331 43.4199 145.717C43.4199 147.102 44.8019 147.51 44.8019 147.51" stroke="#263238" stroke-width="2" stroke-linecap="round" stroke-linejoin="round"/>
<path d="M43.4199 144.014C43.4199 144.014 41.8203 144.331 41.8203 145.717C41.8203 147.102 43.2023 147.51 43.2023 147.51" stroke="#263238" stroke-width="2" stroke-linecap="round" stroke-linejoin="round"/>
<path d="M41.8203 144.014C41.8203 144.014 40.2207 144.331 40.2207 145.717C40.2207 147.102 41.6027 147.51 41.6027 147.51" stroke="#263238" stroke-width="2" stroke-linecap="round" stroke-linejoin="round"/>
<path d="M40.2207 144.014C40.2207 144.014 38.6211 144.331 38.6211 145.717C38.6211 147.102 40.0031 147.51 40.0031 147.51" stroke="#263238" stroke-width="2" stroke-linecap="round" stroke-linejoin="round"/>
<path d="M38.6211 144.014C38.6211 144.014 37.0215 144.331 37.0215 145.717C37.0215 147.102 38.4034 147.51 38.4034 147.51" stroke="#263238" stroke-width="2" stroke-linecap="round" stroke-linejoin="round"/>
<path d="M36.8242 144.014C36.8242 144.014 35.2246 144.331 35.2246 145.717C35.2246 147.102 36.6066 147.51 36.6066 147.51" stroke="#263238" stroke-width="2" stroke-linecap="round" stroke-linejoin="round"/>
<path d="M35.0244 144.014C35.0244 144.014 33.4248 144.331 33.4248 145.717C33.4248 147.102 34.8068 147.51 34.8068 147.51" stroke="#263238" stroke-width="2" stroke-linecap="round" stroke-linejoin="round"/>
<path d="M33.0244 144.014C33.0244 144.014 31.4248 144.331 31.4248 145.717C31.4248 147.102 32.8068 147.51 32.8068 147.51" stroke="#263238" stroke-width="2" stroke-linecap="round" stroke-linejoin="round"/>
<path d="M43.1638 138.652C42.0604 139.26 41.1857 140.212 40.6729 141.364C42.1274 140.904 43.2779 139.868 44.38 138.831L43.1846 141.796C43.7349 141.751 44.2669 141.577 44.7375 141.288C45.2081 141 45.604 140.604 45.8932 140.134C45.7985 140.175 45.7135 140.235 45.6438 140.311C45.574 140.387 45.5211 140.477 45.4885 140.575C45.4559 140.672 45.4443 140.776 45.4545 140.879C45.4647 140.981 45.4965 141.081 45.5477 141.17C46.5497 141.025 47.1888 140.058 47.6932 139.18C47.7859 139.668 47.8218 140.166 47.8003 140.662C48.6382 140.782 49.4929 140.674 50.274 140.348" stroke="#263238" stroke-width="0.75" stroke-linecap="round" stroke-linejoin="round"/>
<path d="M131.13 125.958H96.3008V145.081H131.13V125.958Z" fill="white" stroke="#263238" stroke-linecap="round" stroke-linejoin="round"/>
<path d="M96.1658 145.078L90.5654 139.754V120.631L96.1658 125.958V145.078Z" fill="white" stroke="#263238" stroke-linecap="round" stroke-linejoin="round"/>
<path d="M131.13 125.958L125.53 120.631H90.7041L96.301 125.958H131.13Z" fill="white" stroke="#263238" stroke-linecap="round" stroke-linejoin="round"/>
<path d="M118.322 133.131H115.243V129.911H110.904V133.131H107.546V137.47H110.904V140.686H115.243V137.47H118.322V133.131Z" fill="#92E3A9" stroke="#263238" stroke-miterlimit="10"/>
<path d="M113.413 125.958L107.812 120.631" stroke="#263238" stroke-linecap="round" stroke-linejoin="round"/>
<path d="M39.7941 44.6831C43.8566 40.6206 43.8566 34.0339 39.7941 29.9714C35.7316 25.9089 29.1449 25.9089 25.0824 29.9714C21.0199 34.0339 21.0199 40.6206 25.0824 44.6831C29.1449 48.7456 35.7316 48.7456 39.7941 44.6831Z" fill="white" stroke="#263238" stroke-linecap="round" stroke-linejoin="round"/>
<path d="M41.0912 35.7333C41.0911 36.4297 40.8727 37.1085 40.4668 37.6743C40.0609 38.2401 39.4878 38.6644 38.8282 38.8876L34.1814 40.4527L28.5257 42.3633C27.6925 42.6372 26.7849 42.5707 26.0006 42.1783C25.2162 41.7858 24.6188 41.0993 24.3384 40.2683C24.0581 39.4373 24.1176 38.5292 24.5039 37.7418C24.8902 36.9545 25.5721 36.3517 26.4009 36.065L31.5384 34.3375L36.7 32.6101C37.1994 32.4421 37.7315 32.3951 38.2525 32.473C38.7736 32.5509 39.2687 32.7514 39.6971 33.0581C40.1255 33.3647 40.475 33.7687 40.7168 34.2368C40.9585 34.7049 41.0857 35.2237 41.0877 35.7506L41.0912 35.7333Z" fill="white"/>
<path d="M41.0909 35.7333C41.0908 36.4296 40.8724 37.1084 40.4665 37.6742C40.0606 38.2401 39.4876 38.6644 38.8279 38.8876L34.1811 40.4527C34.0572 38.1634 33.1199 35.9936 31.5381 34.334L36.6997 32.6066C37.1991 32.4386 37.7312 32.3917 38.2522 32.4695C38.7733 32.5474 39.2684 32.7479 39.6968 33.0546C40.1253 33.3612 40.4747 33.7652 40.7165 34.2333C40.9583 34.7014 41.0854 35.2203 41.0875 35.7471L41.0909 35.7333Z" fill="#92E3A9"/>
<path d="M41.0912 35.7333C41.0911 36.4297 40.8727 37.1085 40.4668 37.6743C40.0609 38.2401 39.4878 38.6644 38.8282 38.8876L34.1814 40.4527L28.5257 42.3633C27.6925 42.6372 26.7849 42.5707 26.0006 42.1783C25.2162 41.7858 24.6188 41.0993 24.3384 40.2683C24.0581 39.4373 24.1176 38.5292 24.5039 37.7418C24.8902 36.9545 25.5721 36.3517 26.4009 36.065L31.5384 34.3375L36.7 32.6101C37.1994 32.4421 37.7315 32.3951 38.2525 32.473C38.7736 32.5509 39.2687 32.7514 39.6971 33.0581C40.1255 33.3647 40.475 33.7687 40.7168 34.2368C40.9585 34.7049 41.0857 35.2237 41.0877 35.7506L41.0912 35.7333Z" stroke="#263238" stroke-linecap="round" stroke-linejoin="round"/>
<path d="M34.1811 40.4527C34.0753 38.1592 33.1354 35.9833 31.5381 34.334" stroke="#263238" stroke-linecap="round" stroke-linejoin="round"/>
<path d="M39.9785 34.493C40.1967 34.8604 40.3068 35.2819 40.2964 35.7091" stroke="white" stroke-linecap="round" stroke-linejoin="round"/>
<path d="M32.8516 34.8384L36.9974 33.4565C37.3693 33.329 37.7648 33.2854 38.1555 33.329C38.5462 33.3727 38.9224 33.5023 39.257 33.7087" stroke="white" stroke-linecap="round" stroke-linejoin="round"/>
<path d="M103.122 23.2146C108.413 20.9753 110.887 14.8709 108.647 9.57999C106.408 4.28909 100.304 1.8153 95.0126 4.05462C89.7217 6.29393 87.2479 12.3984 89.4873 17.6893C91.7266 22.9802 97.831 25.454 103.122 23.2146Z" fill="white" stroke="#263238" stroke-linecap="round" stroke-linejoin="round"/>
<path d="M102.654 17.9889L93.5818 14.952C92.8274 14.6984 92.2045 14.1556 91.8502 13.443C91.4958 12.7304 91.4389 11.9062 91.6919 11.1516C91.9455 10.3972 92.4883 9.77437 93.2009 9.42C93.9136 9.06562 94.7378 9.00871 95.4923 9.26176L104.565 12.2952C105.319 12.5495 105.941 13.0924 106.295 13.8048C106.649 14.5172 106.707 15.341 106.455 16.0956C106.201 16.85 105.658 17.4731 104.946 17.828C104.234 18.1829 103.409 18.2408 102.654 17.9889Z" fill="#92E3A9"/>
<path d="M96.0068 14.7101L97.527 11.079" stroke="#263238" stroke-linecap="round" stroke-linejoin="round"/>
<path d="M101.006 16.372L102.519 12.7512" stroke="#263238" stroke-linecap="round" stroke-linejoin="round"/>
<path d="M97.2616 14.9244C97.4314 14.9244 97.5691 14.7867 97.5691 14.6169C97.5691 14.4471 97.4314 14.3094 97.2616 14.3094C97.0918 14.3094 96.9541 14.4471 96.9541 14.6169C96.9541 14.7867 97.0918 14.9244 97.2616 14.9244Z" fill="#263238"/>
<path d="M100.284 15.5221C100.284 15.5829 100.266 15.6424 100.232 15.6929C100.198 15.7435 100.15 15.7829 100.094 15.8062C100.038 15.8294 99.9761 15.8355 99.9164 15.8237C99.8568 15.8118 99.802 15.7825 99.759 15.7395C99.716 15.6965 99.6867 15.6417 99.6749 15.5821C99.663 15.5224 99.6691 15.4606 99.6923 15.4044C99.7156 15.3482 99.755 15.3002 99.8056 15.2664C99.8562 15.2326 99.9156 15.2146 99.9764 15.2146C100.058 15.2146 100.136 15.247 100.194 15.3047C100.252 15.3623 100.284 15.4405 100.284 15.5221Z" fill="#263238"/>
<path d="M98.453 12.1881C98.6228 12.1881 98.7605 12.0504 98.7605 11.8806C98.7605 11.7108 98.6228 11.5731 98.453 11.5731C98.2832 11.5731 98.1455 11.7108 98.1455 11.8806C98.1455 12.0504 98.2832 12.1881 98.453 12.1881Z" fill="#263238"/>
<path d="M101.431 12.7582C101.431 12.819 101.413 12.8784 101.38 12.929C101.346 12.9796 101.298 13.019 101.242 13.0423C101.185 13.0655 101.124 13.0716 101.064 13.0597C101.004 13.0479 100.949 13.0186 100.906 12.9756C100.863 12.9326 100.834 12.8778 100.822 12.8182C100.81 12.7585 100.817 12.6967 100.84 12.6405C100.863 12.5843 100.902 12.5363 100.953 12.5025C101.004 12.4687 101.063 12.4507 101.124 12.4507C101.205 12.4507 101.284 12.4831 101.341 12.5407C101.399 12.5984 101.431 12.6766 101.431 12.7582Z" fill="#263238"/>
<path d="M102.654 17.9889L93.5818 14.952C92.8274 14.6984 92.2045 14.1556 91.8502 13.443C91.4958 12.7304 91.4389 11.9062 91.6919 11.1516V11.1516C91.9455 10.3972 92.4883 9.77437 93.2009 9.42C93.9136 9.06562 94.7378 9.00871 95.4923 9.26176L104.565 12.2952C105.319 12.5495 105.941 13.0924 106.295 13.8048C106.649 14.5172 106.707 15.341 106.455 16.0956V16.0956C106.201 16.85 105.658 17.4731 104.946 17.828C104.234 18.1829 103.409 18.2408 102.654 17.9889V17.9889Z" stroke="#263238" stroke-linecap="round" stroke-linejoin="round"/>
<path d="M59.7963 23.4718C65.5415 23.4718 70.199 18.8143 70.199 13.0691C70.199 7.32381 65.5415 2.66635 59.7963 2.66635C54.051 2.66635 49.3936 7.32381 49.3936 13.0691C49.3936 18.8143 54.051 23.4718 59.7963 23.4718Z" fill="white" stroke="#263238" stroke-linecap="round" stroke-linejoin="round"/>
<path d="M65.7563 13.3351V17.5985C65.7563 18.6799 65.0654 19.5574 64.2189 19.5574H55.3743C54.5244 19.5574 53.8369 18.6799 53.8369 17.5985V13.3351C53.8369 12.2537 54.5279 11.3762 55.3743 11.3762H56.8289V8.90247H62.7022V11.3762H64.2085C65.0654 11.3762 65.7563 12.2537 65.7563 13.3351Z" fill="white" stroke="#263238" stroke-linecap="round" stroke-linejoin="round"/>
<path d="M65.7529 13.8257H53.8369V16.4687H65.7529V13.8257Z" fill="#92E3A9" stroke="#263238" stroke-miterlimit="10"/>
<path d="M57.6405 6.00727H62.0075C62.5005 6.00727 62.9733 6.2031 63.3219 6.55168C63.6704 6.90026 63.8663 7.37304 63.8663 7.86601V9.7973H55.7783V7.86601C55.7783 7.62162 55.8265 7.37964 55.9201 7.1539C56.0138 6.92816 56.151 6.7231 56.324 6.55046C56.4969 6.37781 56.7022 6.24097 56.9281 6.14776C57.1541 6.05455 57.3961 6.00681 57.6405 6.00727Z" fill="#92E3A9" stroke="#263238" stroke-miterlimit="10"/>
<path d="M57.1914 6.12469V9.79726" stroke="#263238" stroke-linecap="round" stroke-linejoin="round"/>
<path d="M59.1016 6.00726V9.7973" stroke="#263238" stroke-linecap="round" stroke-linejoin="round"/>
<path d="M61.0127 6.00726V9.7973" stroke="#263238" stroke-linecap="round" stroke-linejoin="round"/>
<path d="M62.9229 6.22144V9.79727" stroke="#263238" stroke-linecap="round" stroke-linejoin="round"/>
<path d="M33.1445 69.9387C34.0739 64.2691 30.2313 58.9195 24.5617 57.9901C18.8921 57.0606 13.5425 60.9033 12.6131 66.5729C11.6836 72.2425 15.5263 77.592 21.1959 78.5215C26.8655 79.4509 32.215 75.6083 33.1445 69.9387Z" fill="white" stroke="#263238" stroke-linecap="round" stroke-linejoin="round"/>
<path d="M28.1562 70.9394C29.2892 68.5434 27.7313 65.43 24.6765 63.9853C21.6216 62.5407 18.2266 63.3118 17.0936 65.7077C15.9605 68.1037 17.5184 71.2171 20.5733 72.6618C23.6281 74.1064 27.0231 73.3353 28.1562 70.9394Z" fill="#92E3A9" stroke="#263238" stroke-linecap="round" stroke-linejoin="round"/>
<path d="M28.534 70.1245C29.597 67.8769 27.9822 64.8837 24.9273 63.4391C21.8725 61.9944 18.5344 62.6453 17.4714 64.8929C16.4085 67.1404 18.0233 70.1336 21.0782 71.5783C24.133 73.023 27.4711 72.3721 28.534 70.1245Z" fill="#92E3A9" stroke="#263238" stroke-linecap="round" stroke-linejoin="round"/>
<path d="M24.7664 64.4332L20.9902 69.7434" stroke="#263238" stroke-linecap="round" stroke-linejoin="round"/>
<path d="M22.4932 63.5729C22.9993 63.6412 23.4978 63.7568 23.9822 63.9184" stroke="white" stroke-linecap="round" stroke-linejoin="round"/>
<path d="M19.1388 68.5722C19.1388 68.5722 17.211 66.4612 19.0939 64.4263C19.5284 63.9834 20.0943 63.6926 20.7074 63.5971" stroke="white" stroke-linecap="round" stroke-linejoin="round"/>
<path d="M142.722 69.9447C143.652 64.2751 139.809 58.9256 134.139 57.9961C128.47 57.0667 123.12 60.9093 122.191 66.5789C121.261 72.2485 125.104 77.5981 130.774 78.5275C136.443 79.457 141.793 75.6143 142.722 69.9447Z" fill="white" stroke="#263238" stroke-linecap="round" stroke-linejoin="round"/>
<path d="M138.426 69.3046C138.347 69.4186 138.267 69.5361 138.184 69.6501C136.626 71.8094 134.225 73.8236 132.446 74.2209V74.1933C130.718 73.8063 128.393 71.8889 126.835 69.7952C126.748 69.6812 126.665 69.5637 126.586 69.4497C125.087 67.3008 124.454 65.0447 126.123 64.1119C129.516 62.2186 132.446 66.2781 132.446 66.2781C132.446 66.2781 135.382 62.2497 138.768 64.1395C140.392 65.0447 139.836 67.2075 138.426 69.3046Z" fill="#92E3A9" stroke="#263238" stroke-miterlimit="10"/>
<path d="M138.427 69.3046C138.347 69.4186 138.268 69.5361 138.185 69.6501H137.328L136.347 70.9457L135.68 67.1038L134.644 69.7157H132.194L130.94 71.806L129.973 67.5737L128.726 69.7814H126.836C126.749 69.6674 126.666 69.5499 126.587 69.4359H128.525L130.111 66.6271L131.085 70.8939L132.008 69.3564H134.426L135.808 65.8186L136.547 70.0889L137.152 69.2908L138.427 69.3046Z" fill="white"/>
<path d="M122.441 47.8462C128.186 47.8462 132.844 43.1887 132.844 37.4434C132.844 31.6982 128.186 27.0407 122.441 27.0407C116.696 27.0407 112.038 31.6982 112.038 37.4434C112.038 43.1887 116.696 47.8462 122.441 47.8462Z" fill="white" stroke="#263238" stroke-linecap="round" stroke-linejoin="round"/>
<path d="M121.66 32.6342C121.76 32.8588 121.135 33.3563 120.278 33.7467C119.421 34.1371 118.62 34.2719 118.519 34.0438C118.419 33.8158 119.041 33.3218 119.901 32.9314C120.762 32.541 121.556 32.42 121.66 32.6342Z" fill="white" stroke="#263238" stroke-linecap="round" stroke-linejoin="round"/>
<path d="M126.341 42.2838L123.228 43.7901L120.437 38.0412L118.509 34.068L121.622 32.5582L123.501 36.4346L126.341 42.2838Z" fill="white" stroke="#263238" stroke-linecap="round" stroke-linejoin="round"/>
<path d="M119.086 35.253L120.437 34.6277L119.086 35.253Z" fill="#92E3A9"/>
<path d="M119.086 35.253L120.437 34.6277" stroke="#263238" stroke-linecap="round" stroke-linejoin="round"/>
<path d="M119.673 36.5037L121.024 35.8784L119.673 36.5037Z" fill="#92E3A9"/>
<path d="M119.673 36.5037L121.024 35.8784" stroke="#263238" stroke-linecap="round" stroke-linejoin="round"/>
<path d="M124.42 43.2132L126.026 45.3207L125.225 42.8228L124.42 43.2132Z" fill="white" stroke="#263238" stroke-linecap="round" stroke-linejoin="round"/>
<path d="M126.341 42.2838C125.612 43.0134 124.682 43.509 123.67 43.7072L123.228 43.7901L120.437 38.0412L123.501 36.4346L126.341 42.2838Z" fill="#92E3A9" stroke="#263238" stroke-miterlimit="10"/>
<path d="M121.024 39.1329L122.296 38.5456" stroke="#263238" stroke-linecap="round" stroke-linejoin="round"/>
<path d="M121.722 40.47L122.969 39.8999L121.722 40.47Z" fill="#92E3A9"/>
<path d="M121.722 40.47L122.969 39.8999" stroke="#263238" stroke-linecap="round" stroke-linejoin="round"/>
<path d="M119.587 33.5429L118.603 31.3283L119.376 30.8895L120.437 33.1318L119.587 33.5429Z" fill="white" stroke="#263238" stroke-linecap="round" stroke-linejoin="round"/>
<path d="M121.276 30.62L121.041 30.1018L116.896 31.9571L117.13 32.4753C117.227 32.6964 118.233 32.4546 119.38 31.9433C120.527 31.4319 121.373 30.8377 121.276 30.62Z" fill="white" stroke="#263238" stroke-linecap="round" stroke-linejoin="round"/>
<path d="M121.041 30.1018C120.944 29.8841 119.936 30.1225 118.792 30.6338C117.648 31.1452 116.798 31.7394 116.895 31.9571C116.992 32.1747 118.001 31.9363 119.144 31.4216C120.288 30.9068 121.138 30.3194 121.041 30.1018Z" fill="white" stroke="#263238" stroke-linecap="round" stroke-linejoin="round"/>
</svg>
