<svg width="31" height="32" viewBox="0 0 31 32" fill="none" xmlns="http://www.w3.org/2000/svg">
<path d="M12.7999 15.1007H10.9999V16.9007H12.7999V15.1007ZM16.3999 15.1007H14.5999V16.9007H16.3999V15.1007ZM19.9999 15.1007H18.1999V16.9007H19.9999V15.1007ZM21.7999 8.80067H20.8999V7.00067H19.0999V8.80067H11.8999V7.00067H10.0999V8.80067H9.1999C8.72251 8.80067 8.26468 8.99031 7.92711 9.32788C7.58954 9.66544 7.3999 10.1233 7.3999 10.6007V23.2007C7.3999 23.6781 7.58954 24.1359 7.92711 24.4735C8.26468 24.811 8.72251 25.0007 9.1999 25.0007H21.7999C22.2773 25.0007 22.7351 24.811 23.0727 24.4735C23.4103 24.1359 23.5999 23.6781 23.5999 23.2007V10.6007C23.5999 10.1233 23.4103 9.66544 23.0727 9.32788C22.7351 8.99031 22.2773 8.80067 21.7999 8.80067ZM21.7999 23.2007H9.1999V13.3007H21.7999V23.2007Z" fill="#14171F"/>
</svg>
