<svg width="195" height="181" viewBox="0 0 195 181" fill="none" xmlns="http://www.w3.org/2000/svg">
<path d="M155.931 44.9798C155.401 45.5923 155.043 46.3351 154.894 47.1318L152.824 48.2946V42.7989L152.863 42.852L156.168 40.4395C157.355 40.6204 158.57 40.4317 159.647 39.8991C161.345 38.9872 162.58 35.8558 162.58 35.8558C162.58 35.8558 158.537 35.3974 157.167 37.0958C156.417 37.976 156.017 39.1006 156.042 40.2562L152.824 42.6156V38.5578C153.427 38.2767 153.959 37.8651 154.383 37.3527C154.807 36.8403 155.112 36.24 155.275 35.5952C155.864 33.313 152.732 28.8113 152.732 28.8113C152.732 28.8113 149.466 33.4385 150.141 35.7834C150.295 36.4136 150.601 36.9962 151.034 37.4793C151.467 37.9625 152.012 38.3313 152.621 38.553V47.3634L150.296 45.4334C150.347 44.8178 150.266 44.1984 150.06 43.6162C149.854 43.034 149.526 42.5022 149.099 42.0559C147.536 40.2948 143.362 40.425 143.362 40.425C143.362 40.425 145.123 43.9473 146.619 45.1197C147.932 46.1475 149.741 45.7277 150.175 45.6022L152.621 47.6432V50.3162H148.988L150.469 59.5898H154.923L156.404 50.3162H152.843V48.5455L155.121 47.2717C156.303 47.6112 157.568 47.5171 158.686 47.0063C159.97 46.2744 161.101 45.3012 162.016 44.1403C162.016 44.1403 157.62 43.0209 155.931 44.9798Z" fill="#92E3A9"/>
<path d="M128.564 26.5147H79.6963V30.4857H128.564V26.5147Z" fill="white"/>
<path d="M128.564 32.4687H79.6963V36.4396H128.564V32.4687Z" fill="white"/>
<path d="M128.564 38.4227H79.6963V42.3937H128.564V38.4227Z" fill="white"/>
<path d="M128.564 44.3816H79.6963V48.3525H128.564V44.3816Z" fill="white"/>
<path d="M128.564 50.3355H79.6963V54.3065H128.564V50.3355Z" fill="white"/>
<path d="M128.564 56.2896H79.6963V60.2606H128.564V56.2896Z" fill="white"/>
<path d="M128.564 62.2436H79.6963V66.2145H128.564V62.2436Z" fill="white"/>
<path d="M128.564 68.1976H79.6963V72.1686H128.564V68.1976Z" fill="white"/>
<path d="M128.564 74.1516H79.6963V78.1226H128.564V74.1516Z" fill="white"/>
<path d="M128.564 80.1057H79.6963V84.0766H128.564V80.1057Z" fill="white"/>
<path d="M128.564 86.0596H79.6963V90.0306H128.564V86.0596Z" fill="white"/>
<path d="M128.564 92.0137H79.6963V95.9846H128.564V92.0137Z" fill="white"/>
<path d="M128.564 97.9725H79.6963V101.943H128.564V97.9725Z" fill="white"/>
<path d="M76.464 26.5147H27.5967V30.4857H76.464V26.5147Z" fill="white"/>
<path d="M76.464 32.4687H27.5967V36.4396H76.464V32.4687Z" fill="white"/>
<path d="M76.464 38.4227H27.5967V42.3937H76.464V38.4227Z" fill="white"/>
<path d="M76.464 44.3816H27.5967V48.3525H76.464V44.3816Z" fill="white"/>
<path d="M76.464 50.3355H27.5967V54.3065H76.464V50.3355Z" fill="white"/>
<path d="M76.464 56.2896H27.5967V60.2606H76.464V56.2896Z" fill="white"/>
<path d="M76.464 62.2436H27.5967V66.2145H76.464V62.2436Z" fill="white"/>
<path d="M76.464 68.1976H27.5967V72.1686H76.464V68.1976Z" fill="white"/>
<path d="M76.464 74.1516H27.5967V78.1226H76.464V74.1516Z" fill="white"/>
<path d="M76.464 80.1057H27.5967V84.0766H76.464V80.1057Z" fill="white"/>
<path d="M76.464 86.0596H27.5967V90.0306H76.464V86.0596Z" fill="white"/>
<path d="M76.464 92.0137H27.5967V95.9846H76.464V92.0137Z" fill="white"/>
<path d="M76.464 97.9725H27.5967V101.943H76.464V97.9725Z" fill="white"/>
<path d="M130.991 22.5968H25.165V25.4918H130.991V22.5968Z" stroke="#263238" stroke-miterlimit="10"/>
<path d="M25.2371 120.862H20.4121V180.05H25.2371V120.862Z" stroke="#263238" stroke-miterlimit="10"/>
<path d="M136.534 120.862H131.709V180.05H136.534V120.862Z" stroke="#263238" stroke-miterlimit="10"/>
<path d="M26.8479 106.387H130.358C132.211 106.387 133.988 107.123 135.298 108.434C136.608 109.744 137.345 111.521 137.345 113.374V123.878H19.8662V113.379C19.8656 112.461 20.0457 111.552 20.3962 110.705C20.7467 109.857 21.2608 109.086 21.9091 108.437C22.5574 107.788 23.3273 107.273 24.1747 106.921C25.0221 106.569 25.9305 106.388 26.8479 106.387Z" fill="#92E3A9" stroke="#92E3A9" stroke-miterlimit="10"/>
<path d="M29.6855 118.812H133.972" stroke="#263238" stroke-miterlimit="10"/>
<path d="M21.5938 118.812H24.4839" stroke="#263238" stroke-miterlimit="10"/>
<path d="M16.5515 149.494H11.7266V180.05H16.5515V149.494Z" stroke="#263238" stroke-miterlimit="10"/>
<path d="M49.0427 149.494H44.2178V180.05H49.0427V149.494Z" stroke="#263238" stroke-miterlimit="10"/>
<path d="M18.1634 135.019H42.8431C44.696 135.019 46.4731 135.755 47.7833 137.065C49.0936 138.375 49.8297 140.152 49.8297 142.005V152.509H11.1816V142.005C11.1816 140.153 11.9171 138.377 13.2262 137.067C14.5354 135.757 16.3113 135.02 18.1634 135.019Z" fill="#92E3A9" stroke="#92E3A9" stroke-miterlimit="10"/>
<path d="M172.562 64.41H150.044V171.524H172.562V64.41Z" stroke="#263238" stroke-miterlimit="10"/>
<path d="M184.784 64.41H175.134V171.524H184.784" stroke="#263238" stroke-miterlimit="10"/>
<path d="M146.508 179.891V59.5851H176.741" stroke="#263238" stroke-miterlimit="10"/>
<path d="M170.627 111.695H168.056V121.668H170.627V111.695Z" stroke="#263238" stroke-miterlimit="10"/>
<path d="M179.636 111.695H177.064V121.668H179.636V111.695Z" stroke="#263238" stroke-miterlimit="10"/>
<path d="M116.457 48.2318C116.457 48.2318 116.554 50.7698 115.975 52.2703C115.396 53.7709 115.695 56.9699 115.883 57.5296C116.071 58.0893 115.318 59.9758 115.318 59.9758L117.104 62.4173C117.104 62.4173 119.169 59.3148 120.201 57.6261C121.234 55.9373 122.754 54.4319 122.266 53.4911C121.779 52.5502 120.298 50.6733 120.201 50.2053C120.105 49.7372 119.236 49.2692 119.236 49.2692L117.736 52.6467C117.736 52.6467 117.456 50.2053 117.456 49.081C117.456 47.9568 116.742 47.3875 116.457 48.2318Z" fill="white"/>
<path opacity="0.15" d="M116.457 48.2318C116.457 48.2318 116.554 50.7698 115.975 52.2703C115.396 53.7709 115.695 56.9699 115.883 57.5296C116.071 58.0893 115.318 59.9758 115.318 59.9758L117.104 62.4173C117.104 62.4173 119.169 59.3148 120.201 57.6261C121.234 55.9373 122.754 54.4319 122.266 53.4911C121.779 52.5502 120.298 50.6733 120.201 50.2053C120.105 49.7372 119.236 49.2692 119.236 49.2692L117.736 52.6467C117.736 52.6467 117.456 50.2053 117.456 49.081C117.456 47.9568 116.742 47.3875 116.457 48.2318Z" fill="black" stroke="#263238" stroke-linecap="round" stroke-linejoin="round"/>
<path d="M116.457 48.2318C116.457 48.2318 116.554 50.7698 115.975 52.2703C115.396 53.7709 115.695 56.9699 115.883 57.5296C116.071 58.0893 115.318 59.9758 115.318 59.9758L117.104 62.4173C117.104 62.4173 119.169 59.3148 120.201 57.6261C121.234 55.9373 122.754 54.4319 122.266 53.4911C121.779 52.5502 120.298 50.6733 120.201 50.2053C120.105 49.7372 119.236 49.2692 119.236 49.2692L117.736 52.6467C117.736 52.6467 117.456 50.2053 117.456 49.081C117.456 47.9568 116.742 47.3875 116.457 48.2318Z" stroke="#263238" stroke-linecap="round" stroke-linejoin="round"/>
<path d="M114.956 59.4258L118.715 63.1796C118.715 63.1796 106.879 82.8124 105.659 83.3721C104.438 83.9318 99.8349 80.1732 99.8349 80.1732L96.7324 63.0735C96.7324 63.0735 100.872 65.2978 102.281 67.6427C103.69 69.9876 104.626 70.2144 104.626 70.2144L114.956 59.4258Z" fill="white"/>
<path d="M103.912 75.5171C103.54 75.5171 103.164 73.8911 103.164 73.0178C103.164 72.1444 101.167 73.7705 101.167 73.7705L98.9229 70.7741L98.1943 71.1264L99.8348 80.1684C99.8348 80.1684 104.438 83.9222 105.659 83.3577C106.879 82.7931 117.436 65.2785 118.609 63.3437C115.723 65.7899 104.24 75.5171 103.912 75.5171Z" fill="#92E3A9"/>
<path opacity="0.5" d="M103.912 75.5171C103.54 75.5171 103.164 73.8911 103.164 73.0178C103.164 72.1444 101.167 73.7705 101.167 73.7705L98.9229 70.7741L98.1943 71.1264L99.8348 80.1684C99.8348 80.1684 104.438 83.9222 105.659 83.3577C106.879 82.7931 117.436 65.2785 118.609 63.3437C115.723 65.7899 104.24 75.5171 103.912 75.5171Z" fill="white"/>
<path d="M114.956 59.4258L118.715 63.1796C118.715 63.1796 106.879 82.8124 105.659 83.3721C104.438 83.9318 99.8349 80.1732 99.8349 80.1732L96.7324 63.0735C96.7324 63.0735 100.872 65.2978 102.281 67.6427C103.69 69.9876 104.626 70.2144 104.626 70.2144L114.956 59.4258Z" stroke="#263238" stroke-linecap="round" stroke-linejoin="round"/>
<path d="M102.88 76.3759C103.121 74.2047 104.626 70.2096 104.626 70.2096C104.626 70.2096 102.638 72.9984 102.035 74.4459" stroke="#263238" stroke-linecap="round" stroke-linejoin="round"/>
<path d="M93.2304 172.33C94.7626 173.641 96.52 174.663 98.4172 175.346C101.674 176.552 103.122 177.276 103.604 178.361C104.087 179.447 103.604 180.05 103.604 180.05H82.9773C82.9773 180.05 81.8917 178.361 83.701 174.984C85.5104 171.606 93.2304 172.33 93.2304 172.33Z" fill="white" stroke="#263238" stroke-linecap="round" stroke-linejoin="round"/>
<path d="M93.9678 173.044C93.9678 173.044 92.2838 173.782 92.8098 174.096C93.3357 174.41 94.7012 173.676 94.7012 173.676C94.7012 173.676 93.0221 174.94 93.8616 175.047C94.7012 175.153 95.9653 174.414 95.9653 174.414C95.9653 174.414 94.8073 175.886 95.3332 175.992C95.8591 176.098 97.2246 175.027 97.2246 175.027" stroke="#263238" stroke-linecap="round" stroke-linejoin="round"/>
<path d="M82.7891 178.53L103.604 178.361" stroke="#263238" stroke-linecap="round" stroke-linejoin="round"/>
<path d="M101.191 120.824C101.191 120.824 98.7785 140.485 98.4166 145.19C98.0548 149.894 94.7979 158.096 94.1948 160.147C93.5778 162.723 93.1743 165.345 92.9886 167.988C93.102 169.127 93.3037 170.257 93.5917 171.365C93.5917 171.365 93.8329 172.451 91.5411 172.933C89.2492 173.416 85.0274 174.139 85.0274 174.139C85.0274 174.139 83.4592 173.657 83.5799 169.073C83.7005 164.49 83.9417 156.046 85.0274 152.065C86.113 148.085 87.5605 141.571 87.9223 140.244C88.2842 138.917 87.4398 117.084 87.4398 117.084L100.95 116.964L101.191 120.824Z" fill="#263238" stroke="#263238" stroke-linecap="round" stroke-linejoin="round"/>
<path d="M83.7001 172.33C85.2323 173.641 86.9897 174.663 88.8869 175.346C92.1438 176.552 93.5913 177.276 94.0738 178.361C94.5563 179.447 94.0738 180.05 94.0738 180.05H73.447C73.447 180.05 72.3614 178.361 74.1708 174.984C75.9801 171.606 83.7001 172.33 83.7001 172.33Z" fill="white" stroke="#263238" stroke-linecap="round" stroke-linejoin="round"/>
<path d="M86.1849 173.995C86.1849 173.995 83.5553 175.466 83.9751 175.674C84.3949 175.881 87.0245 174.622 87.0245 174.622C87.0245 174.622 85.5529 176.306 86.3924 176.2C87.2319 176.094 88.1825 175.047 88.1825 175.047C88.1825 175.047 87.3381 176.832 87.9702 176.624C88.4934 176.37 88.9596 176.012 89.3405 175.573" stroke="#263238" stroke-linecap="round" stroke-linejoin="round"/>
<path d="M73.1865 178.043L94.0738 178.361" stroke="#263238" stroke-linecap="round" stroke-linejoin="round"/>
<path d="M76.8253 115.757C76.8253 115.757 77.549 134.575 77.4284 138.193C77.3078 141.812 75.3778 145.793 75.1366 150.135C74.8953 154.478 73.168 171.553 73.168 173.483C73.168 175.413 73.25 175.78 73.3706 176.142C73.4912 176.504 76.4634 175.708 78.1522 175.104C79.8409 174.501 85.6405 173.893 85.6405 173.893C85.6405 173.893 84.6755 172.089 84.6755 170.762C84.6755 169.435 84.4343 167.264 84.6755 166.54C84.9168 165.816 86.3643 150.738 87.3293 147.964C88.2943 145.19 89.983 136.022 90.1036 132.524C90.2242 129.026 91.6717 117.205 91.6717 117.205C91.6717 117.205 82.0121 117.567 76.8253 115.757Z" fill="#263238" stroke="#263238" stroke-linecap="round" stroke-linejoin="round"/>
<path d="M92.0908 130.112C92.1487 129.388 92.1825 128.712 92.1825 128.095" stroke="white" stroke-linecap="round" stroke-linejoin="round"/>
<path d="M85.6406 172.663V168.986C85.6406 167.143 87.2763 157.942 88.7045 149.764C89.766 143.704 91.1652 137.417 91.8166 132.568" stroke="white" stroke-linecap="round" stroke-linejoin="round"/>
<path d="M79.3628 56.7527C79.3628 56.7527 74.948 60.7912 74.5716 61.0952C74.1953 61.3992 70.813 66.9141 69.8769 69.0757C68.9409 71.2373 69.7804 75.2758 70.3594 78.7256C70.9384 82.1755 74.5861 93.2826 74.5861 93.2826L73.6452 121.364C73.6452 121.364 80.1252 124.09 83.7777 124.741C87.4302 125.393 93.2636 125.118 93.2636 125.118L94.4843 119.014L95.9849 124.833C95.9849 124.833 101.712 124.177 104.342 121.267L101.152 85.4806L99.3672 69.4183C99.3672 69.4183 98.8847 65.5583 97.9583 63.8792C97.0319 62.2001 91.9464 58.8998 88.3759 57.6067C84.8054 56.3137 79.3628 56.7527 79.3628 56.7527Z" fill="white"/>
<path d="M83.0733 81.1382L73.7129 76.1492L74.1086 72.5449C74.1086 72.5449 70.8469 72.0335 71.5947 69.9105C72.3426 67.7875 75.3534 63.7683 75.9662 62.4125C76.5789 61.0567 79.9564 58.5525 79.9564 58.5525L81.3026 56.6804C80.1398 56.6804 79.3726 56.7576 79.3726 56.7576C79.3726 56.7576 74.9577 60.7961 74.5814 61.1001C74.205 61.4041 70.8227 66.919 69.8867 69.0806C68.9507 71.2422 69.7902 75.2807 70.3692 78.7305C70.9482 82.1804 74.5959 93.2875 74.5959 93.2875L73.655 121.369C73.655 121.369 75.1942 122.015 77.1965 122.754C76.9215 112.496 76.4294 93.0076 76.6127 92.7326C76.8636 92.3611 81.2302 86.3685 82.4751 85.0126C83.7199 83.6568 76.9891 85.3842 77.3606 85.1381C77.7321 84.892 83.0733 81.1382 83.0733 81.1382Z" fill="#92E3A9"/>
<path opacity="0.5" d="M83.0733 81.1382L73.7129 76.1492L74.1086 72.5449C74.1086 72.5449 70.8469 72.0335 71.5947 69.9105C72.3426 67.7875 75.3534 63.7683 75.9662 62.4125C76.5789 61.0567 79.9564 58.5525 79.9564 58.5525L81.3026 56.6804C80.1398 56.6804 79.3726 56.7576 79.3726 56.7576C79.3726 56.7576 74.9577 60.7961 74.5814 61.1001C74.205 61.4041 70.8227 66.919 69.8867 69.0806C68.9507 71.2422 69.7902 75.2807 70.3692 78.7305C70.9482 82.1804 74.5959 93.2875 74.5959 93.2875L73.655 121.369C73.655 121.369 75.1942 122.015 77.1965 122.754C76.9215 112.496 76.4294 93.0076 76.6127 92.7326C76.8636 92.3611 81.2302 86.3685 82.4751 85.0126C83.7199 83.6568 76.9891 85.3842 77.3606 85.1381C77.7321 84.892 83.0733 81.1382 83.0733 81.1382Z" fill="white"/>
<path d="M92.0234 76.675C92.0234 76.675 95.2513 107.69 94.4842 119.024L92.0234 76.675Z" fill="white"/>
<path d="M92.0234 76.675C92.0234 76.675 95.2513 107.69 94.4842 119.024" stroke="#263238" stroke-linecap="round" stroke-linejoin="round"/>
<path d="M77.79 102.971L87.5606 104.298V106.831L77.9107 105.263L77.79 102.971Z" stroke="#263238" stroke-linecap="round" stroke-linejoin="round"/>
<path d="M102.277 104.66L99.2613 105.746L98.8994 103.333L101.312 102.489" stroke="#263238" stroke-linecap="round" stroke-linejoin="round"/>
<path d="M79.3628 56.7527C79.3628 56.7527 74.948 60.7912 74.5716 61.0952C74.1953 61.3992 70.813 66.9141 69.8769 69.0757C68.9409 71.2373 69.7804 75.2758 70.3594 78.7256C70.9384 82.1755 74.5861 93.2826 74.5861 93.2826L73.6452 121.364C73.6452 121.364 80.1252 124.09 83.7777 124.741C87.4302 125.393 93.2636 125.118 93.2636 125.118L94.4843 119.014L95.9849 124.833C95.9849 124.833 101.712 124.177 104.342 121.267L101.152 85.4806L99.3672 69.4183C99.3672 69.4183 98.8847 65.5583 97.9583 63.8792C97.0319 62.2001 91.9464 58.8998 88.3759 57.6067C84.8054 56.3137 79.3628 56.7527 79.3628 56.7527Z" stroke="#263238" stroke-linecap="round" stroke-linejoin="round"/>
<path d="M78.7979 57.4958C78.7979 57.4958 87.1547 67.5462 88.5636 70.1758C89.9725 72.8054 92.0424 75.9996 92.0424 75.9996C92.0424 75.9996 92.1341 67.0733 90.9134 62.9432C89.6926 58.813 88.3802 58.07 88.3802 58.07C87.6848 57.3568 86.8224 56.8285 85.8712 56.5328C84.92 56.2371 83.9101 56.1833 82.9329 56.3764C79.3624 56.9409 78.7979 57.4958 78.7979 57.4958Z" fill="white" stroke="#263238" stroke-linecap="round" stroke-linejoin="round"/>
<path d="M91.8213 69.1192L89.7851 64.9263V61.2642L86.9673 58.3692L86.6875 63.0639L88.7526 65.4137L89.7176 72.2217C90.89 74.2289 92.0577 76.0286 92.0577 76.0286C92.0577 76.0286 92.077 72.6608 91.8213 69.1192Z" fill="#263238" stroke="#263238" stroke-linecap="round" stroke-linejoin="round"/>
<path d="M88.188 60.5114L90.9141 62.9528L88.5643 57.3173C88.5643 57.3173 87.5318 59.9469 88.188 60.5114Z" fill="white" stroke="#263238" stroke-linecap="round" stroke-linejoin="round"/>
<path d="M82.2722 35.9957C82.2722 35.9957 78.5184 37.6893 76.9214 40.6952C75.3243 43.7012 77.6692 47.3634 78.4219 48.2994C78.962 48.9471 79.5595 49.5446 80.2072 50.0846L80.9599 50.929L81.0515 55.1557L87.8982 60.9794L89.7751 54.9675C89.7751 54.9675 92.9692 54.3113 93.4421 53.0906C93.9149 51.8699 92.5012 44.3574 92.1248 42.852C91.7485 41.3466 90.6243 38.442 90.6243 38.442C90.6243 38.442 90.9958 37.0331 88.839 35.7159C86.6823 34.3987 82.2722 35.9957 82.2722 35.9957Z" fill="white"/>
<g opacity="0.15">
<path opacity="0.15" d="M82.2722 35.9957C82.2722 35.9957 78.5184 37.6893 76.9214 40.6952C75.3243 43.7012 77.6692 47.3634 78.4219 48.2994C78.962 48.9471 79.5595 49.5446 80.2072 50.0846L80.9599 50.929L81.0515 55.1557L87.8982 60.9794L89.7751 54.9675C89.7751 54.9675 92.9692 54.3113 93.4421 53.0906C93.9149 51.8699 92.5012 44.3574 92.1248 42.852C91.7485 41.3466 90.6243 38.442 90.6243 38.442C90.6243 38.442 90.9958 37.0331 88.839 35.7159C86.6823 34.3987 82.2722 35.9957 82.2722 35.9957Z" fill="black"/>
<g opacity="0.15">
<path opacity="0.15" d="M84.8249 51.5611C84.4485 49.689 85.9491 44.8061 84.3424 41.5782C83.0541 38.9968 79.3244 39.1657 77.848 39.3635C77.4984 39.7733 77.1942 40.2198 76.9409 40.6952C75.3438 43.7012 77.6888 47.3633 78.4414 48.2994C78.9815 48.9471 79.579 49.5446 80.2267 50.0846L80.9794 50.929L81.0711 55.1557L82.9625 56.7624C82.9625 56.222 82.9625 55.7974 82.9625 55.5513C82.9625 54.7263 86.7066 54.678 87.7054 54.3065C88.7042 53.935 85.1964 53.4332 84.8249 51.5611Z" fill="black"/>
<path opacity="0.5" d="M84.8249 51.5611C84.4485 49.689 85.9491 44.8061 84.3424 41.5782C83.0541 38.9968 79.3244 39.1657 77.848 39.3635C77.4984 39.7733 77.1942 40.2198 76.9409 40.6952C75.3438 43.7012 77.6888 47.3633 78.4414 48.2994C78.9815 48.9471 79.579 49.5446 80.2267 50.0846L80.9794 50.929L81.0711 55.1557L82.9625 56.7624C82.9625 56.222 82.9625 55.7974 82.9625 55.5513C82.9625 54.7263 86.7066 54.678 87.7054 54.3065C88.7042 53.935 85.1964 53.4332 84.8249 51.5611Z" fill="black"/>
</g>
</g>
<g style="mix-blend-mode:multiply" opacity="0.22">
<path d="M84.8249 51.5611C84.4485 49.689 85.9491 44.8061 84.3424 41.5782C83.0541 38.9968 79.3244 39.1657 77.848 39.3635C77.4984 39.7733 77.1942 40.2198 76.9409 40.6952C75.3438 43.7012 77.6888 47.3633 78.4414 48.2994C78.9815 48.9471 79.579 49.5446 80.2267 50.0846L80.9794 50.929L81.0711 55.1557L82.9625 56.7624C82.9625 56.222 82.9625 55.7974 82.9625 55.5513C82.9625 54.7263 86.7066 54.678 87.7054 54.3065C88.7042 53.935 85.1964 53.4332 84.8249 51.5611Z" fill="black"/>
</g>
<path d="M82.2722 35.9957C82.2722 35.9957 78.5184 37.6893 76.9214 40.6952C75.3243 43.7012 77.6692 47.3634 78.4219 48.2994C78.962 48.9471 79.5595 49.5446 80.2072 50.0846L80.9599 50.929L81.0515 55.1557L87.8982 60.9794L89.7751 54.9675C89.7751 54.9675 92.9692 54.3113 93.4421 53.0906C93.9149 51.8699 92.5012 44.3574 92.1248 42.852C91.7485 41.3466 90.6243 38.442 90.6243 38.442C90.6243 38.442 90.9958 37.0331 88.839 35.7159C86.6823 34.3987 82.2722 35.9957 82.2722 35.9957Z" stroke="#263238" stroke-linecap="round" stroke-linejoin="round"/>
<path d="M83.3047 51.1172C83.3047 51.1172 83.681 52.6226 84.3372 52.999C85.8552 53.8606 87.5711 54.3129 89.3166 54.3114" stroke="#263238" stroke-linecap="round" stroke-linejoin="round"/>
<path d="M92.1348 42.8521L91.5703 43.8846C91.5703 43.8846 93.8236 45.9545 93.7319 46.5142C93.6402 47.0739 91.855 47.7397 91.855 47.7397" fill="white"/>
<path opacity="0.15" d="M92.1348 42.8521L91.5703 43.8846C91.5703 43.8846 93.8236 45.9545 93.7319 46.5142C93.6402 47.0739 91.855 47.7397 91.855 47.7397" fill="black"/>
<path d="M92.1348 42.8521L91.5703 43.8846C91.5703 43.8846 93.8236 45.9545 93.7319 46.5142C93.6402 47.0739 91.855 47.7397 91.855 47.7397" stroke="#263238" stroke-linecap="round" stroke-linejoin="round"/>
<path d="M89.2584 44.8978L89.408 45.2742L88.168 45.7663L89.4707 45.7374" stroke="#263238" stroke-linecap="round" stroke-linejoin="round"/>
<path d="M89.4419 43.542C89.4419 43.542 87.8593 43.1078 87.1982 44.4346" stroke="#263238" stroke-linecap="round" stroke-linejoin="round"/>
<path d="M92.7234 49.0569C92.0028 49.2631 91.2582 49.3734 90.5088 49.385" stroke="#263238" stroke-linecap="round" stroke-linejoin="round"/>
<path d="M85.0032 39.0017C87.5363 37.5011 90.6388 38.4372 90.6388 38.4372C90.6388 38.4372 91.0103 37.0331 88.8536 35.7159C86.6968 34.3987 82.2771 35.9957 82.2771 35.9957C82.2771 35.9957 78.5233 37.6893 76.9262 40.6952C75.3292 43.7012 77.6741 47.3634 78.4268 48.2994C78.9669 48.9471 79.5644 49.5446 80.212 50.0846L80.9647 50.929V51.2716C82.4894 51.0882 82.7403 50.8373 82.7403 50.8373C82.5293 50.8422 82.3197 50.8017 82.1257 50.7185C81.9317 50.6352 81.7579 50.5112 81.6161 50.3548C80.9599 49.7903 79.7392 48.8495 80.019 47.5371C80.2989 46.2247 81.4279 46.2198 81.9925 46.6879C82.557 47.1559 82.557 47.2524 83.2132 46.9725C83.8694 46.6927 82.9285 44.9991 82.9285 44.9991L83.8935 44.3429C84.8344 43.6867 85.1142 42.934 84.376 42.2778C83.6378 41.6216 82.4605 40.5071 85.0032 39.0017Z" fill="#263238" stroke="#263238" stroke-linecap="round" stroke-linejoin="round"/>
<path d="M80.1151 54.2197L78.7979 57.5055L86.3103 64.7381L88.2837 60.8878L80.1151 54.2197Z" fill="white" stroke="#263238" stroke-linecap="round" stroke-linejoin="round"/>
<path d="M99.835 31.1418C99.835 31.1418 104.718 39.7834 105.471 43.9135C106.223 48.0437 107.632 53.4911 107.632 53.4911L119.936 52.0822C119.936 52.0822 118.151 40.6277 117.041 36.7774C115.931 32.9271 115.632 32.0779 115.632 32.0779C115.632 32.0779 101.89 30.669 99.835 31.1418Z" fill="#263238" stroke="#263238" stroke-linecap="round" stroke-linejoin="round"/>
<path d="M101.528 59.9758C101.528 59.9758 102.011 56.5983 102.011 56.3088C102.011 56.0193 101.89 51.2233 101.89 51.2233C101.89 51.2233 103.675 47.3633 103.96 47.1848C104.245 47.0063 107.246 45.4961 107.434 46.1523C107.622 46.8085 106.778 47.0931 106.493 47.373C106.209 47.6528 104.993 48.2173 104.896 48.502C104.8 48.7867 104.24 50.9435 104.24 50.9435C104.24 50.9435 106.681 49.0665 107.338 49.0665C107.994 49.0665 108.558 50.5671 108.558 50.5671C108.558 50.5671 109.407 51.7878 109.407 52.444C109.407 53.1002 109.596 53.8529 109.123 54.3258C108.65 54.7986 108.467 55.1701 107.81 55.1701C107.154 55.1701 106.305 55.9228 106.305 56.4825C106.305 57.0422 106.305 58.924 105.741 59.4885C104.869 60.2221 103.96 60.9114 103.019 61.5536L101.528 59.9758Z" fill="white"/>
<path opacity="0.15" d="M101.528 59.9758C101.528 59.9758 102.011 56.5983 102.011 56.3088C102.011 56.0193 101.89 51.2233 101.89 51.2233C101.89 51.2233 103.675 47.3633 103.96 47.1848C104.245 47.0063 107.246 45.4961 107.434 46.1523C107.622 46.8085 106.778 47.0931 106.493 47.373C106.209 47.6528 104.993 48.2173 104.896 48.502C104.8 48.7867 104.24 50.9435 104.24 50.9435C104.24 50.9435 106.681 49.0665 107.338 49.0665C107.994 49.0665 108.558 50.5671 108.558 50.5671C108.558 50.5671 109.407 51.7878 109.407 52.444C109.407 53.1002 109.596 53.8529 109.123 54.3258C108.65 54.7986 108.467 55.1701 107.81 55.1701C107.154 55.1701 106.305 55.9228 106.305 56.4825C106.305 57.0422 106.305 58.924 105.741 59.4885C104.869 60.2221 103.96 60.9114 103.019 61.5536L101.528 59.9758Z" fill="black" stroke="#263238" stroke-linecap="round" stroke-linejoin="round"/>
<path d="M101.528 59.9758C101.528 59.9758 102.011 56.5983 102.011 56.3088C102.011 56.0193 101.89 51.2233 101.89 51.2233C101.89 51.2233 103.675 47.3633 103.96 47.1848C104.245 47.0063 107.246 45.4961 107.434 46.1523C107.622 46.8085 106.778 47.0931 106.493 47.373C106.209 47.6528 104.993 48.2173 104.896 48.502C104.8 48.7867 104.24 50.9435 104.24 50.9435C104.24 50.9435 106.681 49.0665 107.338 49.0665C107.994 49.0665 108.558 50.5671 108.558 50.5671C108.558 50.5671 109.407 51.7878 109.407 52.444C109.407 53.1002 109.596 53.8529 109.123 54.3258C108.65 54.7986 108.467 55.1701 107.81 55.1701C107.154 55.1701 106.305 55.9228 106.305 56.4825C106.305 57.0422 106.305 58.924 105.741 59.4885C104.869 60.2221 103.96 60.9114 103.019 61.5536L101.528 59.9758Z" stroke="#263238" stroke-linecap="round" stroke-linejoin="round"/>
<path d="M109.418 52.4586L106.224 53.9639" stroke="#263238" stroke-linecap="round" stroke-linejoin="round"/>
<path d="M108.569 50.5817L105.567 52.3669" stroke="#263238" stroke-linecap="round" stroke-linejoin="round"/>
<path d="M120.404 49.7373C120.404 49.7373 118.339 50.958 118.339 51.5225C118.339 52.087 118.821 52.1787 119.463 51.8989C120.105 51.619 121.345 51.2378 121.345 50.5816C121.345 49.9254 121.06 49.6408 120.404 49.7373Z" fill="white"/>
<path opacity="0.15" d="M120.404 49.7373C120.404 49.7373 118.339 50.958 118.339 51.5225C118.339 52.087 118.821 52.1787 119.463 51.8989C120.105 51.619 121.345 51.2378 121.345 50.5816C121.345 49.9254 121.06 49.6408 120.404 49.7373Z" fill="black" stroke="#263238" stroke-linecap="round" stroke-linejoin="round"/>
<path d="M120.404 49.7373C120.404 49.7373 118.339 50.958 118.339 51.5225C118.339 52.087 118.821 52.1787 119.463 51.8989C120.105 51.619 121.345 51.2378 121.345 50.5816C121.345 49.9254 121.06 49.6408 120.404 49.7373Z" stroke="#263238" stroke-linecap="round" stroke-linejoin="round"/>
<path d="M120.027 48.42C120.027 48.42 118.054 48.9025 117.962 49.6407C117.871 50.379 120.404 49.8289 120.968 49.6407C121.533 49.4526 121.533 48.1402 120.027 48.42Z" fill="white"/>
<path opacity="0.15" d="M120.027 48.42C120.027 48.42 118.054 48.9025 117.962 49.6407C117.871 50.379 120.404 49.8289 120.968 49.6407C121.533 49.4526 121.533 48.1402 120.027 48.42Z" fill="black" stroke="#263238" stroke-linecap="round" stroke-linejoin="round"/>
<path d="M120.027 48.42C120.027 48.42 118.054 48.9025 117.962 49.6407C117.871 50.379 120.404 49.8289 120.968 49.6407C121.533 49.4526 121.533 48.1402 120.027 48.42Z" stroke="#263238" stroke-linecap="round" stroke-linejoin="round"/>
<path d="M121.06 51.2233C121.06 51.2233 118.715 52.3524 118.619 52.7287C118.522 53.1051 118.339 53.6648 119.275 53.6648C120.211 53.6648 122.001 52.7287 122.093 52.0677C122.184 51.4067 121.813 51.2233 121.06 51.2233Z" fill="white"/>
<path opacity="0.15" d="M121.06 51.2233C121.06 51.2233 118.715 52.3524 118.619 52.7287C118.522 53.1051 118.339 53.6648 119.275 53.6648C120.211 53.6648 122.001 52.7287 122.093 52.0677C122.184 51.4067 121.813 51.2233 121.06 51.2233Z" fill="black" stroke="#263238" stroke-linecap="round" stroke-linejoin="round"/>
<path d="M121.06 51.2233C121.06 51.2233 118.715 52.3524 118.619 52.7287C118.522 53.1051 118.339 53.6648 119.275 53.6648C120.211 53.6648 122.001 52.7287 122.093 52.0677C122.184 51.4067 121.813 51.2233 121.06 51.2233Z" stroke="#263238" stroke-linecap="round" stroke-linejoin="round"/>
<path d="M121.799 52.555C121.799 52.555 119.628 53.5489 119.541 53.8819C119.454 54.2148 119.28 54.7118 120.149 54.7118C121.017 54.7118 122.667 53.8819 122.754 53.3029C122.841 52.7239 122.494 52.555 121.799 52.555Z" fill="white"/>
<path opacity="0.15" d="M121.799 52.555C121.799 52.555 119.628 53.5489 119.541 53.8819C119.454 54.2148 119.28 54.7118 120.149 54.7118C121.017 54.7118 122.667 53.8819 122.754 53.3029C122.841 52.7239 122.494 52.555 121.799 52.555Z" fill="black" stroke="#263238" stroke-linecap="round" stroke-linejoin="round"/>
<path d="M121.799 52.555C121.799 52.555 119.628 53.5489 119.541 53.8819C119.454 54.2148 119.28 54.7118 120.149 54.7118C121.017 54.7118 122.667 53.8819 122.754 53.3029C122.841 52.7239 122.494 52.555 121.799 52.555Z" stroke="#263238" stroke-linecap="round" stroke-linejoin="round"/>
<path d="M103.425 32.3723C103.425 32.3723 107.343 39.1996 108.066 41.9739C108.79 44.7483 109.393 52.4683 109.393 52.4683L117.234 51.5033C117.234 51.5033 116.993 44.5071 115.907 41.1296C114.821 37.7521 113.977 33.4096 113.977 33.4096L103.425 32.3723Z" fill="#7D7D7D"/>
<path d="M109.924 42.6687C109.924 42.6687 109.027 44.3381 109.538 45.0474C110.05 45.7567 111.271 46.0751 111.401 46.2681C111.531 46.4611 112.429 51.9182 112.429 51.9182L115.188 51.6625C115.188 51.6625 113.842 46.5866 114.161 45.6264C114.479 44.6662 115.256 43.764 114.484 42.9293C113.712 42.0945 112.491 41.5155 111.724 41.641C111.059 41.8538 110.446 42.2039 109.924 42.6687Z" fill="white"/>
<path d="M107.42 32.9705C107.42 32.9705 109.668 38.7605 109.475 39.7786C109.282 40.7966 108.766 42.4757 109.924 42.6735C111.082 42.8714 111.594 41.7761 111.98 41.8388C112.366 41.9015 113.007 43.1223 113.586 42.4178C114.165 41.7134 114.739 40.5554 113.779 39.3974C112.819 38.2394 112.11 37.6025 111.594 36.3818C111.199 35.372 110.856 34.343 110.566 33.2986L107.42 32.9705Z" fill="white"/>
<path d="M78.8903 62.977C78.8903 62.977 80.2992 62.977 81.9927 64.4824C83.6863 65.9877 89.7127 72.0913 89.7127 72.0913L101.452 59.3148L105.312 62.977L91.3821 83.3576C90.7183 83.5838 90.0173 83.6804 89.317 83.6423C88.2845 83.5458 72.5068 75.7535 72.5068 75.7535" fill="white"/>
<path d="M87.4449 80.5061C85.322 80.5061 78.21 76.511 75.9663 74.7644C75.2083 74.1503 74.5787 73.3928 74.1135 72.5353L72.5068 75.7535C72.5068 75.7535 88.2845 83.5458 89.317 83.6423C90.0173 83.6804 90.7183 83.5838 91.3821 83.3577L101.447 68.5933C97.8186 72.1541 89.1144 80.5061 87.4449 80.5061Z" fill="#92E3A9"/>
<path opacity="0.5" d="M87.4449 80.5061C85.322 80.5061 78.21 76.511 75.9663 74.7644C75.2083 74.1503 74.5787 73.3928 74.1135 72.5353L72.5068 75.7535C72.5068 75.7535 88.2845 83.5458 89.317 83.6423C90.0173 83.6804 90.7183 83.5838 91.3821 83.3577L101.447 68.5933C97.8186 72.1541 89.1144 80.5061 87.4449 80.5061Z" fill="white"/>
<path d="M78.8903 62.977C78.8903 62.977 80.2992 62.977 81.9927 64.4824C83.6863 65.9877 89.7127 72.0913 89.7127 72.0913L101.452 59.3148L105.312 62.977L91.3821 83.3576C90.7183 83.5838 90.0173 83.6804 89.317 83.6423C88.2845 83.5458 72.5068 75.7535 72.5068 75.7535" stroke="#263238" stroke-linecap="round" stroke-linejoin="round"/>
<path d="M78.8903 79.0392L73.7275 78.9427" stroke="#263238" stroke-linecap="round" stroke-linejoin="round"/>
<path d="M89.6934 71.908C89.6934 71.908 86.7164 75.4689 86.3545 77.3988" stroke="#263238" stroke-linecap="round" stroke-linejoin="round"/>
<path d="M88.7671 72.2747C88.7671 72.2747 86.234 74.5666 85.6309 75.7728" stroke="#263238" stroke-linecap="round" stroke-linejoin="round"/>
<path d="M5.93652 180.05H193.792" stroke="#263238" stroke-linecap="round" stroke-linejoin="round"/>
</svg>
