<svg width="19" height="18" viewBox="0 0 19 18" fill="none" xmlns="http://www.w3.org/2000/svg">
<path d="M12.7727 11.4545H7.04545V9.81818H12.7727V11.4545ZM15.2273 8.18182H7.04545V6.54545H15.2273V8.18182ZM15.2273 4.90909H7.04545V3.27273H15.2273V4.90909ZM16.8636 0H5.40909C4.50091 0 3.77273 0.728182 3.77273 1.63636V13.0909C3.77273 13.5249 3.94513 13.9411 4.25201 14.248C4.55888 14.5549 4.9751 14.7273 5.40909 14.7273H16.8636C17.7718 14.7273 18.5 13.9991 18.5 13.0909V1.63636C18.5 1.20237 18.3276 0.786158 18.0207 0.47928C17.7138 0.172402 17.2976 0 16.8636 0ZM2.13636 3.27273V16.3636H15.2273V18H2.13636C1.70237 18 1.28616 17.8276 0.97928 17.5207C0.672402 17.2138 0.5 16.7976 0.5 16.3636V3.27273H2.13636Z" fill="#080056"/>
</svg>
