<svg width="164" height="132" viewBox="0 0 164 132" fill="none" xmlns="http://www.w3.org/2000/svg">
<path d="M83.3791 131.505C123.513 131.505 156.047 124.624 156.047 116.136C156.047 107.648 123.513 100.768 83.3791 100.768C43.2456 100.768 10.7109 107.648 10.7109 116.136C10.7109 124.624 43.2456 131.505 83.3791 131.505Z" fill="#92E3A9"/>
<path opacity="0.3" d="M83.3791 131.505C123.513 131.505 156.047 124.624 156.047 116.136C156.047 107.648 123.513 100.768 83.3791 100.768C43.2456 100.768 10.7109 107.648 10.7109 116.136C10.7109 124.624 43.2456 131.505 83.3791 131.505Z" fill="white"/>
<path d="M0.484075 13.1637C0.395546 12.8435 0.375374 12.5083 0.42487 12.1798C0.474365 11.8513 0.59242 11.5369 0.771364 11.2571C0.950308 10.9772 1.18614 10.7381 1.46352 10.5553C1.74091 10.3726 2.05365 10.2502 2.38142 10.1962C4.36604 9.9268 6.80223 12.5907 7.57634 14.2034C7.64085 14.3438 8.43394 16.6434 8.39599 16.6434C8.35805 16.6434 4.87832 16.7231 3.4629 16.0932C2.22204 15.5581 0.814213 14.5373 0.484075 13.1637ZM51.4543 7.03904C51.1621 8.42031 49.7808 9.47903 48.5741 10.0482C47.3674 10.6174 44.5024 10.7161 43.8004 10.7275C43.4209 11.179 43.0149 11.6686 42.5785 12.215C41.8196 13.1864 40.9771 14.2907 40.1423 15.5505C39.9184 15.8883 39.6908 16.2563 39.4631 16.613C39.9716 16.0932 40.6736 15.3911 40.7495 15.3304C42.1497 14.2186 45.5042 12.8867 47.1701 13.9947C47.4419 14.1859 47.6705 14.4322 47.8409 14.7176C48.0112 15.0029 48.1196 15.321 48.159 15.651C48.1984 15.981 48.1679 16.3156 48.0694 16.633C47.9709 16.9505 47.8067 17.2436 47.5875 17.4934C46.6881 18.5863 44.9767 18.8898 43.641 18.8367C42.3053 18.7836 39.6376 17.5124 39.0684 17.2278C38.5789 18.0209 38.0932 18.8481 37.6378 19.7399C36.79 21.3474 36.0877 23.0275 35.5394 24.7602L35.6418 24.8096C36.0479 24.2745 36.932 23.1703 37.0155 23.0906C38.2829 21.8269 41.4743 20.1383 43.254 21.0528C43.5418 21.2141 43.7929 21.4338 43.991 21.6976C44.1892 21.9615 44.3301 22.2638 44.4047 22.5853C44.4794 22.9067 44.4861 23.2402 44.4245 23.5644C44.3629 23.8886 44.2344 24.1964 44.0471 24.468C43.2881 25.6558 41.6071 26.1453 40.2751 26.2364C38.7573 26.3464 35.5659 25.1473 35.4445 25.0979C34.952 26.8337 34.5718 28.5994 34.3061 30.3839C34.1012 31.7045 33.9456 33.0402 33.8014 34.4025C34.0784 34.023 35.2396 32.5697 35.3193 32.4748C36.5867 31.215 39.778 29.5226 41.5539 30.4409C41.8453 30.6012 42.0997 30.8212 42.3004 31.0864C42.5011 31.3516 42.6437 31.6561 42.7189 31.9801C42.794 32.3041 42.8001 32.6403 42.7367 32.9668C42.6733 33.2933 42.5418 33.6028 42.3508 33.8751C41.5919 35.059 39.9108 35.5485 38.5789 35.6396C37.08 35.7458 34.0253 34.6112 33.7748 34.5012C33.7103 35.1159 33.6458 35.7269 33.5851 36.3454C33.3878 38.3528 33.2056 40.3716 32.9552 42.3562C32.8679 43.043 32.7617 43.7185 32.6554 44.3939C33.088 43.8323 33.8925 42.8267 33.9722 42.747C35.2396 41.4872 38.4309 39.7948 40.2106 40.7131C40.4989 40.874 40.7504 41.0934 40.9489 41.3572C41.1474 41.6211 41.2885 41.9235 41.3632 42.2451C41.4379 42.5667 41.4445 42.9004 41.3826 43.2247C41.3207 43.549 41.1916 43.8568 41.0037 44.1283C40.2448 45.3122 38.5637 45.8017 37.2318 45.8966C35.8999 45.9915 33.3119 45.0921 32.5871 44.8265C32.4012 45.9649 32.2076 47.0616 31.9344 48.1431C31.813 48.6098 31.7219 49.0917 31.5777 49.5319L31.1982 50.8563C30.8947 51.7518 30.6177 52.5828 30.3141 53.4101C30.1623 53.8275 30.0143 54.2184 29.8625 54.6244C30.2154 53.9869 30.7922 52.9927 30.8529 52.9054C31.9154 51.4672 34.8108 49.3156 36.7081 49.9531C37.0206 50.0669 37.3055 50.2454 37.5442 50.4768C37.783 50.7081 37.9703 50.9873 38.0939 51.296C38.2174 51.6047 38.2745 51.936 38.2613 52.2682C38.2481 52.6005 38.1649 52.9262 38.0173 53.2242C37.4329 54.5143 35.8581 55.2505 34.5527 55.5427C33.1184 55.869 30.0371 55.2429 29.6614 55.1632C29.2819 56.1536 28.9025 57.1099 28.5458 58.0017C27.4074 60.8211 26.3259 63.1283 25.5556 64.7334L25.4303 64.9915H31.0427L29.1036 102.787C29.0505 104.184 28.4571 105.506 27.4484 106.474C26.4397 107.443 25.0944 107.982 23.6962 107.978C22.3114 107.979 20.9793 107.447 19.975 106.494C18.9708 105.541 18.3712 104.238 18.3001 102.855L16.361 65.0598H22.387C22.3566 64.7979 22.3263 64.5209 22.2921 64.2098C22.091 62.4642 21.7647 59.9673 21.241 56.9999C21.093 56.1423 20.9222 55.2353 20.7325 54.3056C20.353 54.355 17.2338 54.7496 15.826 54.3056C14.551 53.9262 13.0331 53.061 12.5474 51.7328C12.4229 51.4247 12.3646 51.0939 12.3764 50.7618C12.3882 50.4296 12.4698 50.1037 12.6158 49.8052C12.7619 49.5067 12.9691 49.2423 13.224 49.0292C13.479 48.816 13.7759 48.6589 14.0956 48.5681C16.0347 48.071 18.7631 50.4389 19.7155 51.9491C19.7763 52.0478 20.3644 53.2735 20.6528 53.9072C20.539 53.3456 20.4289 52.7878 20.2999 52.2034C20.1178 51.3648 19.9204 50.4844 19.6966 49.6268C19.5751 49.1866 19.4499 48.7426 19.3171 48.2949C19.1843 47.8471 19.0325 47.4221 18.8921 46.9743C18.672 46.3292 18.4102 45.6727 18.1332 45.0163C17.2907 45.2515 14.8014 45.8928 13.5226 45.7069C12.2438 45.5209 10.5703 44.9024 9.8911 43.6653C9.72084 43.3795 9.61273 43.061 9.5738 42.7306C9.53488 42.4002 9.56602 42.0653 9.66519 41.7477C9.76436 41.4302 9.92934 41.1371 10.1494 40.8875C10.3694 40.638 10.6396 40.4376 10.9422 40.2995C12.7826 39.514 15.8374 41.4379 17.0137 42.7926C17.0517 42.8343 17.2718 43.1455 17.526 43.5174C17.2528 42.8874 16.9834 42.2537 16.6874 41.62C15.845 39.8289 14.9304 38.0264 14.0311 36.2202C13.8414 35.8407 13.6516 35.4612 13.4695 35.0818C12.7599 35.2829 10.0543 36.0039 8.72992 35.8103C7.40558 35.6168 5.77766 35.0059 5.09841 33.765C4.93099 33.4793 4.82537 33.1616 4.78836 32.8326C4.75135 32.5035 4.78378 32.1703 4.88355 31.8545C4.98333 31.5387 5.14823 31.2474 5.3676 30.9993C5.58697 30.7513 5.85594 30.552 6.15713 30.4143C7.99755 29.6326 11.0523 31.5527 12.2286 32.9112C12.2704 32.9567 12.5322 33.3286 12.8168 33.7498C12.3387 32.7594 11.8719 31.769 11.4393 30.7672C10.6923 29.0576 10.0584 27.3006 9.54199 25.5078C9.29533 25.5799 6.15713 26.4906 4.66582 26.2667C3.34527 26.077 1.71735 25.4622 1.0381 24.2252C0.867722 23.9396 0.759413 23.6213 0.720225 23.2911C0.681037 22.9608 0.711849 22.626 0.810654 22.3085C0.909459 21.991 1.07404 21.6978 1.29368 21.4481C1.51332 21.1984 1.78309 20.9978 2.08543 20.8593C3.92965 20.0776 6.98437 21.9977 8.15693 23.3524C8.24041 23.4511 9.16631 24.802 9.48127 25.2991C9.47959 25.2776 9.47959 25.256 9.48127 25.2346C9.01715 23.4603 8.71237 21.6481 8.57055 19.8195C8.43104 18.188 8.38543 16.5498 8.43394 14.913C8.47189 13.3951 8.59711 12.0063 8.71854 10.7806C8.79064 10.1165 8.86653 9.50938 8.94622 8.94398L8.91207 8.96675C8.87792 8.98951 8.21005 6.65199 8.18349 6.5002C7.8875 4.73567 8.35805 1.15728 10.134 0.235175C10.4337 0.0907338 10.7604 0.0109663 11.093 0.00105316C11.4255 -0.00886003 11.7564 0.0513023 12.0642 0.177635C12.372 0.303967 12.6497 0.493642 12.8794 0.734334C13.1091 0.975025 13.2856 1.26135 13.3974 1.5747C13.9135 2.89145 13.3443 4.53455 12.6384 5.67675C11.9326 6.81895 9.6027 8.47723 9.0335 8.87567C8.9652 9.46385 8.89689 10.0938 8.83618 10.773C8.74131 11.9987 8.64644 13.3838 8.64265 14.8978C8.64265 15.3039 8.64265 15.7365 8.66162 16.1577C8.79823 15.4443 8.99935 14.4728 9.04109 14.378C9.59132 12.6779 11.6556 9.71809 13.6592 9.72189C13.9916 9.73156 14.3181 9.81111 14.6177 9.95536C14.9173 10.0996 15.1831 10.3053 15.3979 10.5591C15.6126 10.8129 15.7716 11.1091 15.8643 11.4284C15.957 11.7477 15.9815 12.083 15.936 12.4123C15.7918 13.8201 14.5282 15.0155 13.386 15.7099C12.2438 16.4043 9.30292 16.8331 8.67301 16.9052C8.70336 17.8387 8.75269 18.8026 8.86653 19.7892C9.04652 21.5968 9.38686 23.3848 9.88351 25.1321H9.99735C10.0429 24.4604 10.1719 23.0526 10.1947 22.935C10.5741 21.1856 12.2817 18.0019 14.274 17.8008C14.6053 17.774 14.9386 17.8173 15.2522 17.9279C15.5657 18.0385 15.8524 18.2139 16.0937 18.4426C16.335 18.6713 16.5254 18.9483 16.6525 19.2555C16.7796 19.5627 16.8406 19.8932 16.8316 20.2256C16.8316 21.6372 15.7197 22.9691 14.661 23.7812C13.4391 24.7185 10.1302 25.4698 10.0049 25.4964C10.5455 27.2196 11.1983 28.9055 11.9592 30.5433C12.517 31.7576 13.128 32.9681 13.7541 34.1748C13.7769 33.7005 13.9438 31.8525 13.9704 31.7197C14.3499 29.9703 16.0575 26.7866 18.0497 26.5817C18.3809 26.5555 18.714 26.5993 19.0272 26.7101C19.3405 26.8209 19.627 26.9963 19.8681 27.2249C20.1093 27.4535 20.2997 27.7302 20.427 28.0371C20.5543 28.344 20.6158 28.6743 20.6073 29.0065C20.6073 30.4219 19.4916 31.75 18.4329 32.5621C17.2414 33.4766 14.0766 34.2128 13.8072 34.2735C14.0918 34.8199 14.3764 35.3702 14.6648 35.9166C15.6097 37.7039 16.5622 39.4874 17.4577 41.2785C17.7651 41.9008 18.0459 42.5231 18.3305 43.1455C18.3798 42.4359 18.5012 41.1533 18.5202 41.0432C18.8997 39.2939 20.6111 36.1101 22.5995 35.9052C22.9309 35.8785 23.2642 35.9218 23.5777 36.0324C23.8912 36.1429 24.178 36.3183 24.4192 36.547C24.6605 36.7758 24.8509 37.0528 24.978 37.36C25.1052 37.6672 25.1662 37.9977 25.1571 38.33C25.1571 39.7454 24.0453 41.0736 22.9866 41.8856C21.9278 42.6977 19.2716 43.3769 18.524 43.5591C18.9907 44.6064 19.4385 45.631 19.818 46.6783C19.9736 47.1337 20.1595 47.5853 20.2847 48.0292L20.687 49.3536C20.926 50.2681 21.1537 51.1143 21.3586 51.9719C21.4649 52.4045 21.5522 52.8143 21.6508 53.2317C21.5939 52.5107 21.5256 51.361 21.5294 51.2547C21.6243 49.4712 22.8499 46.075 24.7852 45.5627C25.1089 45.486 25.445 45.4784 25.7718 45.5404C26.0986 45.6023 26.4086 45.7324 26.6818 45.9221C26.9549 46.1118 27.185 46.357 27.3571 46.6416C27.5292 46.9262 27.6394 47.2438 27.6806 47.5739C27.7073 47.7471 27.7187 47.9223 27.7147 48.0975C28.494 49.4623 28.9107 51.0038 28.9252 52.5753C28.9252 52.6891 28.7393 54.0362 28.6292 54.7231C28.8455 54.1918 29.058 53.6643 29.2706 53.1103C29.5855 52.3096 29.8891 51.4558 30.1927 50.6286L30.6177 49.3118C30.7694 48.8679 30.8605 48.4277 30.9971 47.9761C31.1717 47.3158 31.3159 46.6214 31.4601 45.9346C30.629 45.6613 28.1967 44.8265 27.2328 43.9651C26.269 43.1037 25.2178 41.6655 25.3355 40.2577C25.3517 39.9257 25.4376 39.6009 25.5875 39.3042C25.7375 39.0076 25.948 38.7458 26.2057 38.5357C26.4633 38.3257 26.7621 38.1722 27.0829 38.0851C27.4037 37.998 27.7392 37.9793 28.0676 38.0302C30.0371 38.4097 31.5246 41.6845 31.7523 43.4566C31.7523 43.5136 31.7712 43.893 31.7788 44.3446C31.9003 43.6691 32.0255 42.9899 32.1242 42.2993C32.4125 40.3412 32.6402 38.3338 32.8831 36.3264C32.9324 35.9052 32.9893 35.4878 33.0387 35.0704C32.3367 34.8465 29.6956 33.9661 28.6862 33.063C27.6768 32.1599 26.6712 30.7634 26.7888 29.3556C26.8039 29.0232 26.8891 28.6977 27.0386 28.4005C27.1881 28.1032 27.3987 27.8409 27.6566 27.6307C27.9145 27.4204 28.2139 27.267 28.5352 27.1804C28.8564 27.0938 29.1924 27.076 29.521 27.1281C31.4904 27.5076 32.9742 30.7824 33.2056 32.5545C33.2056 32.6152 33.2056 33.0706 33.2322 33.5791C33.3764 32.4862 33.5358 31.4047 33.7293 30.3308C34.0441 28.4842 34.4841 26.6611 35.0461 24.8741C34.7956 24.7982 31.6802 23.8267 30.5569 22.8249C29.5589 21.9332 28.5382 20.5254 28.6596 19.1175C28.6747 18.7851 28.7598 18.4597 28.9094 18.1624C29.0589 17.8652 29.2695 17.6029 29.5274 17.3926C29.7853 17.1824 30.0847 17.0289 30.4059 16.9423C30.7272 16.8557 31.0632 16.8379 31.3918 16.89C33.3574 17.2695 34.8449 20.5443 35.0764 22.3164C35.0764 22.4417 35.1182 24.081 35.1068 24.6692C35.1068 24.6464 35.1068 24.6236 35.1257 24.6046C35.7187 22.8687 36.4641 21.1887 37.3532 19.5843C38.1428 18.144 39.0144 16.7503 39.964 15.4101C40.833 14.1617 41.7019 13.0764 42.4836 12.1201C42.9086 11.6041 43.3071 11.1411 43.6828 10.7123H43.641C43.6031 10.7123 44.3354 8.38995 44.4 8.24955C45.1285 6.61784 47.4926 3.88946 49.481 4.10196C49.8122 4.14709 50.1301 4.26182 50.4137 4.43861C50.6974 4.6154 50.9404 4.85023 51.1268 5.12767C51.3132 5.4051 51.4387 5.71886 51.4952 6.04829C51.5516 6.37773 51.5377 6.71538 51.4543 7.03904ZM28.5002 55.0798C28.1587 54.9166 25.5366 53.6188 24.512 52.507C23.6252 52.99 22.7103 53.4196 21.7723 53.7934C22.0037 54.8255 22.2238 55.8311 22.4098 56.776C23.0017 59.7662 23.385 62.2783 23.6279 64.0428C23.6772 64.4223 23.7227 64.7524 23.7607 65.0598H23.8935L24.3337 64.206C25.1268 62.6388 26.231 60.3771 27.4377 57.607C27.7868 56.8101 28.1435 55.9601 28.5002 55.0798ZM38.9887 16.8673C39.0191 16.8673 39.6262 14.5335 39.649 14.378C39.8957 12.6096 39.3303 9.04264 37.5278 8.16986C37.2241 8.03373 36.8951 7.96304 36.5623 7.96238C36.2295 7.96172 35.9003 8.03112 35.5961 8.16605C35.2919 8.30099 35.0195 8.49844 34.7965 8.74556C34.5736 8.99269 34.4052 9.28397 34.3023 9.60046C33.8204 10.9286 34.4351 12.5565 35.1599 13.6759C36.0099 15.0079 38.9849 16.8673 38.9887 16.8673Z" fill="#92E3A9"/>
<path opacity="0.3" d="M0.484075 13.1637C0.395546 12.8435 0.375374 12.5083 0.42487 12.1798C0.474365 11.8513 0.59242 11.5369 0.771364 11.2571C0.950308 10.9772 1.18614 10.7381 1.46352 10.5553C1.74091 10.3726 2.05365 10.2502 2.38142 10.1962C4.36604 9.9268 6.80223 12.5907 7.57634 14.2034C7.64085 14.3438 8.43394 16.6434 8.39599 16.6434C8.35805 16.6434 4.87832 16.7231 3.4629 16.0932C2.22204 15.5581 0.814213 14.5373 0.484075 13.1637ZM51.4543 7.03904C51.1621 8.42031 49.7808 9.47903 48.5741 10.0482C47.3674 10.6174 44.5024 10.7161 43.8004 10.7275C43.4209 11.179 43.0149 11.6686 42.5785 12.215C41.8196 13.1864 40.9771 14.2907 40.1423 15.5505C39.9184 15.8883 39.6908 16.2563 39.4631 16.613C39.9716 16.0932 40.6736 15.3911 40.7495 15.3304C42.1497 14.2186 45.5042 12.8867 47.1701 13.9947C47.4419 14.1859 47.6705 14.4322 47.8409 14.7176C48.0112 15.0029 48.1196 15.321 48.159 15.651C48.1984 15.981 48.1679 16.3156 48.0694 16.633C47.9709 16.9505 47.8067 17.2436 47.5875 17.4934C46.6881 18.5863 44.9767 18.8898 43.641 18.8367C42.3053 18.7836 39.6376 17.5124 39.0684 17.2278C38.5789 18.0209 38.0932 18.8481 37.6378 19.7399C36.79 21.3474 36.0877 23.0275 35.5394 24.7602L35.6418 24.8096C36.0479 24.2745 36.932 23.1703 37.0155 23.0906C38.2829 21.8269 41.4743 20.1383 43.254 21.0528C43.5418 21.2141 43.7929 21.4338 43.991 21.6976C44.1892 21.9615 44.3301 22.2638 44.4047 22.5853C44.4794 22.9067 44.4861 23.2402 44.4245 23.5644C44.3629 23.8886 44.2344 24.1964 44.0471 24.468C43.2881 25.6558 41.6071 26.1453 40.2751 26.2364C38.7573 26.3464 35.5659 25.1473 35.4445 25.0979C34.952 26.8337 34.5718 28.5994 34.3061 30.3839C34.1012 31.7045 33.9456 33.0402 33.8014 34.4025C34.0784 34.023 35.2396 32.5697 35.3193 32.4748C36.5867 31.215 39.778 29.5226 41.5539 30.4409C41.8453 30.6012 42.0997 30.8212 42.3004 31.0864C42.5011 31.3516 42.6437 31.6561 42.7189 31.9801C42.794 32.3041 42.8001 32.6403 42.7367 32.9668C42.6733 33.2933 42.5418 33.6028 42.3508 33.8751C41.5919 35.059 39.9108 35.5485 38.5789 35.6396C37.08 35.7458 34.0253 34.6112 33.7748 34.5012C33.7103 35.1159 33.6458 35.7269 33.5851 36.3454C33.3878 38.3528 33.2056 40.3716 32.9552 42.3562C32.8679 43.043 32.7617 43.7185 32.6554 44.3939C33.088 43.8323 33.8925 42.8267 33.9722 42.747C35.2396 41.4872 38.4309 39.7948 40.2106 40.7131C40.4989 40.874 40.7504 41.0934 40.9489 41.3572C41.1474 41.6211 41.2885 41.9235 41.3632 42.2451C41.4379 42.5667 41.4445 42.9004 41.3826 43.2247C41.3207 43.549 41.1916 43.8568 41.0037 44.1283C40.2448 45.3122 38.5637 45.8017 37.2318 45.8966C35.8999 45.9915 33.3119 45.0921 32.5871 44.8265C32.4012 45.9649 32.2076 47.0616 31.9344 48.1431C31.813 48.6098 31.7219 49.0917 31.5777 49.5319L31.1982 50.8563C30.8947 51.7518 30.6177 52.5828 30.3141 53.4101C30.1623 53.8275 30.0143 54.2184 29.8625 54.6244C30.2154 53.9869 30.7922 52.9927 30.8529 52.9054C31.9154 51.4672 34.8108 49.3156 36.7081 49.9531C37.0206 50.0669 37.3055 50.2454 37.5442 50.4768C37.783 50.7081 37.9703 50.9873 38.0939 51.296C38.2174 51.6047 38.2745 51.936 38.2613 52.2682C38.2481 52.6005 38.1649 52.9262 38.0173 53.2242C37.4329 54.5143 35.8581 55.2505 34.5527 55.5427C33.1184 55.869 30.0371 55.2429 29.6614 55.1632C29.2819 56.1536 28.9025 57.1099 28.5458 58.0017C27.4074 60.8211 26.3259 63.1283 25.5556 64.7334L25.4303 64.9915H31.0427L29.1036 102.787C29.0505 104.184 28.4571 105.506 27.4484 106.474C26.4397 107.443 25.0944 107.982 23.6962 107.978C22.3114 107.979 20.9793 107.447 19.975 106.494C18.9708 105.541 18.3712 104.238 18.3001 102.855L16.361 65.0598H22.387C22.3566 64.7979 22.3263 64.5209 22.2921 64.2098C22.091 62.4642 21.7647 59.9673 21.241 56.9999C21.093 56.1423 20.9222 55.2353 20.7325 54.3056C20.353 54.355 17.2338 54.7496 15.826 54.3056C14.551 53.9262 13.0331 53.061 12.5474 51.7328C12.4229 51.4247 12.3646 51.0939 12.3764 50.7618C12.3882 50.4296 12.4698 50.1037 12.6158 49.8052C12.7619 49.5067 12.9691 49.2423 13.224 49.0292C13.479 48.816 13.7759 48.6589 14.0956 48.5681C16.0347 48.071 18.7631 50.4389 19.7155 51.9491C19.7763 52.0478 20.3644 53.2735 20.6528 53.9072C20.539 53.3456 20.4289 52.7878 20.2999 52.2034C20.1178 51.3648 19.9204 50.4844 19.6966 49.6268C19.5751 49.1866 19.4499 48.7426 19.3171 48.2949C19.1843 47.8471 19.0325 47.4221 18.8921 46.9743C18.672 46.3292 18.4102 45.6727 18.1332 45.0163C17.2907 45.2515 14.8014 45.8928 13.5226 45.7069C12.2438 45.5209 10.5703 44.9024 9.8911 43.6653C9.72084 43.3795 9.61273 43.061 9.5738 42.7306C9.53488 42.4002 9.56602 42.0653 9.66519 41.7477C9.76436 41.4302 9.92934 41.1371 10.1494 40.8875C10.3694 40.638 10.6396 40.4376 10.9422 40.2995C12.7826 39.514 15.8374 41.4379 17.0137 42.7926C17.0517 42.8343 17.2718 43.1455 17.526 43.5174C17.2528 42.8874 16.9834 42.2537 16.6874 41.62C15.845 39.8289 14.9304 38.0264 14.0311 36.2202C13.8414 35.8407 13.6516 35.4612 13.4695 35.0818C12.7599 35.2829 10.0543 36.0039 8.72992 35.8103C7.40558 35.6168 5.77766 35.0059 5.09841 33.765C4.93099 33.4793 4.82537 33.1616 4.78836 32.8326C4.75135 32.5035 4.78378 32.1703 4.88355 31.8545C4.98333 31.5387 5.14823 31.2474 5.3676 30.9993C5.58697 30.7513 5.85594 30.552 6.15713 30.4143C7.99755 29.6326 11.0523 31.5527 12.2286 32.9112C12.2704 32.9567 12.5322 33.3286 12.8168 33.7498C12.3387 32.7594 11.8719 31.769 11.4393 30.7672C10.6923 29.0576 10.0584 27.3006 9.54199 25.5078C9.29533 25.5799 6.15713 26.4906 4.66582 26.2667C3.34527 26.077 1.71735 25.4622 1.0381 24.2252C0.867722 23.9396 0.759413 23.6213 0.720225 23.2911C0.681037 22.9608 0.711849 22.626 0.810654 22.3085C0.909459 21.991 1.07404 21.6978 1.29368 21.4481C1.51332 21.1984 1.78309 20.9978 2.08543 20.8593C3.92965 20.0776 6.98437 21.9977 8.15693 23.3524C8.24041 23.4511 9.16631 24.802 9.48127 25.2991C9.47959 25.2776 9.47959 25.256 9.48127 25.2346C9.01715 23.4603 8.71237 21.6481 8.57055 19.8195C8.43104 18.188 8.38543 16.5498 8.43394 14.913C8.47189 13.3951 8.59711 12.0063 8.71854 10.7806C8.79064 10.1165 8.86653 9.50938 8.94622 8.94398L8.91207 8.96675C8.87792 8.98951 8.21005 6.65199 8.18349 6.5002C7.8875 4.73567 8.35805 1.15728 10.134 0.235175C10.4337 0.0907338 10.7604 0.0109663 11.093 0.00105316C11.4255 -0.00886003 11.7564 0.0513023 12.0642 0.177635C12.372 0.303967 12.6497 0.493642 12.8794 0.734334C13.1091 0.975025 13.2856 1.26135 13.3974 1.5747C13.9135 2.89145 13.3443 4.53455 12.6384 5.67675C11.9326 6.81895 9.6027 8.47723 9.0335 8.87567C8.9652 9.46385 8.89689 10.0938 8.83618 10.773C8.74131 11.9987 8.64644 13.3838 8.64265 14.8978C8.64265 15.3039 8.64265 15.7365 8.66162 16.1577C8.79823 15.4443 8.99935 14.4728 9.04109 14.378C9.59132 12.6779 11.6556 9.71809 13.6592 9.72189C13.9916 9.73156 14.3181 9.81111 14.6177 9.95536C14.9173 10.0996 15.1831 10.3053 15.3979 10.5591C15.6126 10.8129 15.7716 11.1091 15.8643 11.4284C15.957 11.7477 15.9815 12.083 15.936 12.4123C15.7918 13.8201 14.5282 15.0155 13.386 15.7099C12.2438 16.4043 9.30292 16.8331 8.67301 16.9052C8.70336 17.8387 8.75269 18.8026 8.86653 19.7892C9.04652 21.5968 9.38686 23.3848 9.88351 25.1321H9.99735C10.0429 24.4604 10.1719 23.0526 10.1947 22.935C10.5741 21.1856 12.2817 18.0019 14.274 17.8008C14.6053 17.774 14.9386 17.8173 15.2522 17.9279C15.5657 18.0385 15.8524 18.2139 16.0937 18.4426C16.335 18.6713 16.5254 18.9483 16.6525 19.2555C16.7796 19.5627 16.8406 19.8932 16.8316 20.2256C16.8316 21.6372 15.7197 22.9691 14.661 23.7812C13.4391 24.7185 10.1302 25.4698 10.0049 25.4964C10.5455 27.2196 11.1983 28.9055 11.9592 30.5433C12.517 31.7576 13.128 32.9681 13.7541 34.1748C13.7769 33.7005 13.9438 31.8525 13.9704 31.7197C14.3499 29.9703 16.0575 26.7866 18.0497 26.5817C18.3809 26.5555 18.714 26.5993 19.0272 26.7101C19.3405 26.8209 19.627 26.9963 19.8681 27.2249C20.1093 27.4535 20.2997 27.7302 20.427 28.0371C20.5543 28.344 20.6158 28.6743 20.6073 29.0065C20.6073 30.4219 19.4916 31.75 18.4329 32.5621C17.2414 33.4766 14.0766 34.2128 13.8072 34.2735C14.0918 34.8199 14.3764 35.3702 14.6648 35.9166C15.6097 37.7039 16.5622 39.4874 17.4577 41.2785C17.7651 41.9008 18.0459 42.5231 18.3305 43.1455C18.3798 42.4359 18.5012 41.1533 18.5202 41.0432C18.8997 39.2939 20.6111 36.1101 22.5995 35.9052C22.9309 35.8785 23.2642 35.9218 23.5777 36.0324C23.8912 36.1429 24.178 36.3183 24.4192 36.547C24.6605 36.7758 24.8509 37.0528 24.978 37.36C25.1052 37.6672 25.1662 37.9977 25.1571 38.33C25.1571 39.7454 24.0453 41.0736 22.9866 41.8856C21.9278 42.6977 19.2716 43.3769 18.524 43.5591C18.9907 44.6064 19.4385 45.631 19.818 46.6783C19.9736 47.1337 20.1595 47.5853 20.2847 48.0292L20.687 49.3536C20.926 50.2681 21.1537 51.1143 21.3586 51.9719C21.4649 52.4045 21.5522 52.8143 21.6508 53.2317C21.5939 52.5107 21.5256 51.361 21.5294 51.2547C21.6243 49.4712 22.8499 46.075 24.7852 45.5627C25.1089 45.486 25.445 45.4784 25.7718 45.5404C26.0986 45.6023 26.4086 45.7324 26.6818 45.9221C26.9549 46.1118 27.185 46.357 27.3571 46.6416C27.5292 46.9262 27.6394 47.2438 27.6806 47.5739C27.7073 47.7471 27.7187 47.9223 27.7147 48.0975C28.494 49.4623 28.9107 51.0038 28.9252 52.5753C28.9252 52.6891 28.7393 54.0362 28.6292 54.7231C28.8455 54.1918 29.058 53.6643 29.2706 53.1103C29.5855 52.3096 29.8891 51.4558 30.1927 50.6286L30.6177 49.3118C30.7694 48.8679 30.8605 48.4277 30.9971 47.9761C31.1717 47.3158 31.3159 46.6214 31.4601 45.9346C30.629 45.6613 28.1967 44.8265 27.2328 43.9651C26.269 43.1037 25.2178 41.6655 25.3355 40.2577C25.3517 39.9257 25.4376 39.6009 25.5875 39.3042C25.7375 39.0076 25.948 38.7458 26.2057 38.5357C26.4633 38.3257 26.7621 38.1722 27.0829 38.0851C27.4037 37.998 27.7392 37.9793 28.0676 38.0302C30.0371 38.4097 31.5246 41.6845 31.7523 43.4566C31.7523 43.5136 31.7712 43.893 31.7788 44.3446C31.9003 43.6691 32.0255 42.9899 32.1242 42.2993C32.4125 40.3412 32.6402 38.3338 32.8831 36.3264C32.9324 35.9052 32.9893 35.4878 33.0387 35.0704C32.3367 34.8465 29.6956 33.9661 28.6862 33.063C27.6768 32.1599 26.6712 30.7634 26.7888 29.3556C26.8039 29.0232 26.8891 28.6977 27.0386 28.4005C27.1881 28.1032 27.3987 27.8409 27.6566 27.6307C27.9145 27.4204 28.2139 27.267 28.5352 27.1804C28.8564 27.0938 29.1924 27.076 29.521 27.1281C31.4904 27.5076 32.9742 30.7824 33.2056 32.5545C33.2056 32.6152 33.2056 33.0706 33.2322 33.5791C33.3764 32.4862 33.5358 31.4047 33.7293 30.3308C34.0441 28.4842 34.4841 26.6611 35.0461 24.8741C34.7956 24.7982 31.6802 23.8267 30.5569 22.8249C29.5589 21.9332 28.5382 20.5254 28.6596 19.1175C28.6747 18.7851 28.7598 18.4597 28.9094 18.1624C29.0589 17.8652 29.2695 17.6029 29.5274 17.3926C29.7853 17.1824 30.0847 17.0289 30.4059 16.9423C30.7272 16.8557 31.0632 16.8379 31.3918 16.89C33.3574 17.2695 34.8449 20.5443 35.0764 22.3164C35.0764 22.4417 35.1182 24.081 35.1068 24.6692C35.1068 24.6464 35.1068 24.6236 35.1257 24.6046C35.7187 22.8687 36.4641 21.1887 37.3532 19.5843C38.1428 18.144 39.0144 16.7503 39.964 15.4101C40.833 14.1617 41.7019 13.0764 42.4836 12.1201C42.9086 11.6041 43.3071 11.1411 43.6828 10.7123H43.641C43.6031 10.7123 44.3354 8.38995 44.4 8.24955C45.1285 6.61784 47.4926 3.88946 49.481 4.10196C49.8122 4.14709 50.1301 4.26182 50.4137 4.43861C50.6974 4.6154 50.9404 4.85023 51.1268 5.12767C51.3132 5.4051 51.4387 5.71886 51.4952 6.04829C51.5516 6.37773 51.5377 6.71538 51.4543 7.03904ZM28.5002 55.0798C28.1587 54.9166 25.5366 53.6188 24.512 52.507C23.6252 52.99 22.7103 53.4196 21.7723 53.7934C22.0037 54.8255 22.2238 55.8311 22.4098 56.776C23.0017 59.7662 23.385 62.2783 23.6279 64.0428C23.6772 64.4223 23.7227 64.7524 23.7607 65.0598H23.8935L24.3337 64.206C25.1268 62.6388 26.231 60.3771 27.4377 57.607C27.7868 56.8101 28.1435 55.9601 28.5002 55.0798ZM38.9887 16.8673C39.0191 16.8673 39.6262 14.5335 39.649 14.378C39.8957 12.6096 39.3303 9.04264 37.5278 8.16986C37.2241 8.03373 36.8951 7.96304 36.5623 7.96238C36.2295 7.96172 35.9003 8.03112 35.5961 8.16605C35.2919 8.30099 35.0195 8.49844 34.7965 8.74556C34.5736 8.99269 34.4052 9.28397 34.3023 9.60046C33.8204 10.9286 34.4351 12.5565 35.1599 13.6759C36.0099 15.0079 38.9849 16.8673 38.9887 16.8673Z" fill="white"/>
<path d="M146.414 30.2853C146.414 30.2853 142.702 33.1237 142.19 35.3095C141.678 37.4952 142.338 39.8213 142.774 41.2064C143.211 42.5915 143.283 49.2891 139.207 52.2717C135.132 55.2543 133.31 58.2407 133.747 61.9557C134.183 65.6707 139.716 69.7462 144.304 70.6835C148.891 71.6208 155.369 69.5185 157.915 64.058C160.461 58.5974 157.042 52.5753 155.149 49.1601C153.255 45.7449 153.403 42.5345 155.528 42.3903C157.653 42.2462 158.731 42.7698 158.807 39.7682C158.883 36.7666 158.15 32.1257 154.291 29.7958C150.432 27.4659 146.414 30.2853 146.414 30.2853Z" fill="#2E353A" stroke="#2E353A" stroke-linecap="round" stroke-linejoin="round"/>
<path d="M137.275 66.904C137.655 67.1582 141.07 68.5508 143.597 64.6271C146.125 60.7034 142.683 57.0871 143.347 53.6226" stroke="white" stroke-width="0.5" stroke-miterlimit="10"/>
<path d="M150.564 34.8011C150.564 34.8011 149.38 30.9761 151.945 32.2169C154.696 33.5451 156.878 39.8063 155.929 41.2293" stroke="white" stroke-width="0.5" stroke-miterlimit="10"/>
<path d="M149.859 34.3038C149.859 34.3038 148.436 31.5527 149.385 30.3194C150.333 29.0861 152.515 30.5091 153.654 31.3629" stroke="white" stroke-width="0.5" stroke-miterlimit="10"/>
<path d="M153.084 41.7983C153.084 41.7983 153.464 43.5059 152.325 46.9212C151.187 50.3364 149.1 54.2259 151.187 57.8309C153.274 61.4358 154.887 63.9024 152.515 67.5073" stroke="white" stroke-width="0.5" stroke-miterlimit="10"/>
<path d="M153.084 43.7905C153.167 46.0147 153.008 48.2413 152.61 50.4312C151.946 54.2259 154.033 56.6925 156.215 59.0641C158.397 61.4358 157.827 63.428 157.068 65.61" stroke="white" stroke-width="0.5" stroke-miterlimit="10"/>
<path d="M149.764 34.8729C149.764 34.8729 145.305 35.2524 143.977 34.6832C142.649 34.114 142.934 33.6396 142.934 33.6396" stroke="white" stroke-width="0.5" stroke-miterlimit="10"/>
<path d="M150.355 50.0288C150.355 50.0288 150.935 55.9258 151.679 59.3372C152.423 62.7486 153.607 67.0556 153.311 68.2433C153.015 69.431 146.48 79.5211 146.48 79.5211L144.553 78.1854L148.56 66.1638L145.186 54.8936C145.186 54.8936 148.275 50.3665 150.355 50.0288Z" fill="white" stroke="#2E353A" stroke-linecap="round" stroke-linejoin="round"/>
<path d="M149.835 49.0691C148.886 47.9763 146.849 45.1378 146.849 45.1378L143.646 41.3432L139.206 35.2299C138.622 34.4292 136.656 34.7176 130.979 34.7935C125.302 34.8694 108.071 31.5908 108.071 31.5908L107.49 35.3855C107.49 35.3855 123.261 38.8007 127.264 39.1802C131.268 39.5597 134.983 40.053 134.983 40.053C134.436 41.1423 133.949 42.2609 133.526 43.4037C133.089 44.7128 127.993 51.7026 127.993 51.7026C127.993 51.7026 127.868 51.7785 127.651 51.9227C127.594 53.1902 127.716 55.8806 129.609 57.2998C131.074 58.3965 133.218 58.8594 134.766 59.053C134.793 58.9657 134.816 58.8898 134.835 58.8367C135.055 58.2523 136.656 57.3795 137.529 57.3188C138.402 57.2581 141.096 57.3909 142.701 57.2467C144.306 57.1025 145.175 54.9167 145.175 54.9167C145.175 54.9167 148.712 51.4636 150.34 50.052C150.239 49.6939 150.067 49.3598 149.835 49.0691Z" fill="white" stroke="#2E353A" stroke-linecap="round" stroke-linejoin="round"/>
<path d="M136.997 40.9333L134.982 40.0415L136.447 42.3714" stroke="#2E353A" stroke-width="0.75" stroke-linecap="round" stroke-linejoin="round"/>
<path d="M131.918 54.1914C133.435 55.1323 135.229 55.5222 136.999 55.2957" stroke="#2E353A" stroke-width="0.75" stroke-linecap="round" stroke-linejoin="round"/>
<path d="M130.244 51.5391C130.244 51.5391 130.574 52.8672 132.677 53.7514" stroke="#2E353A" stroke-width="0.75" stroke-linecap="round" stroke-linejoin="round"/>
<path d="M148.549 66.1639C148.549 66.1639 149.926 65.5719 151.031 67.1202" stroke="#2E353A" stroke-width="0.75" stroke-linecap="round" stroke-linejoin="round"/>
<path d="M148.933 55.8498L145.176 54.8936L148.489 57.5081" stroke="#2E353A" stroke-width="0.75" stroke-linecap="round" stroke-linejoin="round"/>
<path d="M138.657 36.6376C138.657 36.6376 136.779 39.9503 134.57 39.8403C131.569 39.6885 123.076 37.184 123.076 36.3037C123.076 35.4233 125.399 35.0894 125.399 35.0894" stroke="#2E353A" stroke-width="0.75" stroke-linecap="round" stroke-linejoin="round"/>
<path d="M145.176 39.3846C145.176 39.3846 143.658 39.0052 142.554 39.6768C141.45 40.3485 138.551 46.6666 138.551 46.6666C138.551 46.6666 138.767 46.9588 139.644 46.9588C140.52 46.9588 140.737 48.1238 140.737 49.2129C140.737 50.3019 140.661 50.8142 141.025 50.7307C141.389 50.6473 143.575 49.858 144.011 50.1501C144.448 50.4423 143.427 51.8957 143.632 52.0475C143.837 52.1993 145.67 50.3702 146.254 48.4046C146.838 46.4389 147.419 43.5284 147.271 42.3635C147.123 41.1985 146.182 39.673 145.176 39.3846Z" fill="#92E3A9" stroke="#2E353A" stroke-linecap="round" stroke-linejoin="round"/>
<path d="M146.412 45.4297C145.611 46.3241 144.761 47.1741 143.866 47.9759C142.189 49.4938 140.808 50.598 140.88 49.8732C140.952 49.1484 142.625 45.2134 143.062 43.0428C143.498 40.8722 144.302 39.3999 145.175 39.3999C146.048 39.3999 147.942 43.8473 146.412 45.4297Z" fill="white" stroke="#2E353A" stroke-linecap="round" stroke-linejoin="round"/>
<path d="M145.541 36.0378C145.599 36.2151 145.694 36.3781 145.82 36.516C145.945 36.654 146.098 36.7639 146.269 36.8385C146.778 36.9827 150.565 34.8008 150.565 34.8008C150.565 34.8008 153.259 40.5497 152.819 41.4225C152.379 42.2953 151.073 43.3919 149.616 44.4089C148.159 45.4259 145.469 46.2304 144.448 45.646C143.427 45.0616 144.156 39.0964 144.156 39.0964C144.156 39.0964 143.355 38.1477 144.228 36.6184C145.101 35.0892 145.541 36.0378 145.541 36.0378Z" fill="white" stroke="#2E353A" stroke-linecap="round" stroke-linejoin="round"/>
<path d="M151.637 41.9765C151.637 41.9765 151.702 41.5249 150.859 41.5249C150.017 41.5249 148.537 43.0731 148.537 43.0731" stroke="#2E353A" stroke-width="0.75" stroke-linecap="round" stroke-linejoin="round"/>
<path d="M147.957 43.2025L147.506 42.751" stroke="#2E353A" stroke-width="0.75" stroke-linecap="round" stroke-linejoin="round"/>
<path d="M147.32 44.0448C147.32 44.0448 146.158 43.8513 145.965 42.3638" stroke="#2E353A" stroke-width="0.75" stroke-linecap="round" stroke-linejoin="round"/>
<path d="M150.006 39.6315C150.006 39.6315 149.718 38.2161 148.488 37.9429" stroke="#2E353A" stroke-width="0.75" stroke-linecap="round" stroke-linejoin="round"/>
<path d="M148.546 40.3902C148.25 40.6217 147.924 40.6976 147.814 40.5572C147.704 40.4168 147.852 40.117 148.144 39.8855C148.436 39.654 148.766 39.5781 148.876 39.7185C148.986 39.8589 148.838 40.1587 148.546 40.3902Z" fill="#2E353A"/>
<path d="M150.374 42.7811C150.131 42.9708 149.862 43.0353 149.77 42.9177C149.679 42.8001 149.801 42.5382 150.044 42.3599C150.287 42.1815 150.556 42.1094 150.647 42.2233C150.738 42.3371 150.617 42.5876 150.374 42.7811Z" fill="#2E353A"/>
<path d="M143.291 104.741L147.013 109.913C147.013 109.913 147.013 110.862 145.685 110.862C144.357 110.862 143.598 110.862 142.839 109.913C142.08 108.964 142.08 108.395 141.321 108.016C140.562 107.636 139.803 107.636 140.183 105.549C140.562 103.462 143.291 104.741 143.291 104.741Z" fill="white" stroke="#2E353A" stroke-linecap="round" stroke-linejoin="round"/>
<path d="M146.998 110.031C146.408 110.314 145.747 110.412 145.101 110.311C143.757 110.069 142.941 108.725 142.444 108.148C141.947 107.572 141.34 107.575 140.767 107.094C140.494 106.861 140.257 106.59 140.061 106.289C139.982 107.64 140.638 107.686 141.291 108.016C142.05 108.395 142.05 108.964 142.809 109.913C143.568 110.862 144.327 110.862 145.655 110.862C146.721 110.862 146.941 110.285 146.998 110.031Z" fill="white" stroke="#2E353A" stroke-linecap="round" stroke-linejoin="round"/>
<path d="M143.077 104.084C142.318 101.807 141.236 88.1769 140.675 83.8624C139.536 75.0891 134.474 63.7012 134.474 63.7012L134.767 59.0413C133.218 58.8478 131.074 58.3849 129.61 57.2882C127.712 55.869 127.595 53.1786 127.651 51.9111C126.691 52.5297 123.857 54.3929 121.44 56.3509C118.457 58.7529 116.415 67.272 115.835 69.9625C115.254 72.6529 114.598 80.5876 114.598 80.5876C114.598 80.5876 109.354 82.6253 107.244 85.5207C105.134 88.416 98.7246 94.9846 98.7246 94.9846L99.309 97.1703C99.309 97.1703 101.275 95.7891 102.948 94.4761C104.622 93.1632 117.656 85.8849 118.529 85.3689C119.402 84.8528 120.426 83.851 121.588 80.9291C122.013 79.8628 122.612 78.1172 123.204 76.3299L125.227 70.0308L127.173 68.3725C129.093 73.5636 133.556 83.5702 134.19 85.0008C134.949 86.716 135.525 94.3433 137.624 99.1132C139.722 103.883 140.28 106.171 140.28 106.171C140.28 106.171 143.84 106.372 143.077 104.084Z" fill="#2E353A" stroke="#2E353A" stroke-linecap="round" stroke-linejoin="round"/>
<path d="M134.643 59.9409L135.367 64.172" stroke="white" stroke-width="0.5" stroke-miterlimit="10"/>
<path d="M32.0298 27.2607L21.0708 120.344C21.0559 120.478 21.079 120.614 21.1373 120.736C21.1956 120.857 21.2869 120.96 21.4007 121.032C21.5146 121.105 21.6464 121.144 21.7813 121.145C21.9161 121.146 22.0486 121.109 22.1637 121.039L29.2066 116.705C29.6246 116.446 30.1269 116.36 30.6076 116.464C31.0883 116.568 31.5097 116.854 31.7832 117.263L40.6324 130.419L44.3246 75.0776L32.0298 27.2607Z" fill="#92E3A9" stroke="#2E353A" stroke-linecap="round" stroke-linejoin="round"/>
<path d="M31.9611 29.602L22.0569 118.018C22.0355 118.209 22.0703 118.402 22.1569 118.573C22.2436 118.745 22.3784 118.887 22.5448 118.983C22.7112 119.079 22.9019 119.124 23.0936 119.113C23.2854 119.102 23.4697 119.035 23.6241 118.921L28.7735 115.127C29.0413 114.929 29.3467 114.787 29.671 114.711C29.9954 114.635 30.3318 114.626 30.6597 114.685C30.9876 114.744 31.3 114.869 31.578 115.052C31.8559 115.236 32.0934 115.474 32.276 115.753L38.302 124.951C38.3673 125.053 38.4649 125.131 38.5793 125.171C38.6937 125.211 38.8183 125.212 38.9332 125.173C39.0481 125.134 39.1466 125.058 39.2131 124.956C39.2796 124.855 39.3102 124.734 39.3 124.613L32.2646 29.6058C32.2573 29.5712 32.2384 29.5402 32.2111 29.5178C32.1838 29.4953 32.1497 29.4829 32.1144 29.4824C32.079 29.482 32.0446 29.4936 32.0167 29.5153C31.9889 29.5371 31.9692 29.5676 31.9611 29.602Z" fill="#92E3A9" stroke="#2E353A" stroke-linecap="round" stroke-linejoin="round"/>
<path opacity="0.6" d="M32.0974 28.3196L22.0491 118.011C22.0277 118.202 22.0625 118.395 22.1491 118.566C22.2358 118.737 22.3706 118.88 22.537 118.975C22.7034 119.071 22.8941 119.117 23.0858 119.106C23.2776 119.095 23.4619 119.028 23.6163 118.914L28.7657 115.119C29.0335 114.921 29.3389 114.78 29.6632 114.704C29.9876 114.628 30.324 114.619 30.6519 114.678C30.9797 114.736 31.2922 114.861 31.5701 115.045C31.8481 115.228 32.0856 115.467 32.2682 115.745L38.2942 124.944C38.3595 125.046 38.4571 125.123 38.5715 125.163C38.6859 125.204 38.8105 125.204 38.9254 125.165C39.0403 125.127 39.1388 125.05 39.2053 124.949C39.2718 124.848 39.3023 124.727 39.2922 124.606L32.1695 28.3196C32.167 28.312 32.1622 28.3054 32.1557 28.3007C32.1493 28.296 32.1415 28.2935 32.1335 28.2935C32.1255 28.2935 32.1177 28.296 32.1112 28.3007C32.1048 28.3054 32.0999 28.312 32.0974 28.3196Z" fill="black"/>
<path d="M30.2657 114.633C30.6644 114.64 31.0553 114.744 31.4045 114.937C31.7537 115.129 32.0506 115.404 32.2693 115.738L38.2953 124.936C38.3606 125.038 38.4582 125.115 38.5726 125.156C38.687 125.196 38.8116 125.197 38.9265 125.158C39.0414 125.119 39.1399 125.043 39.2064 124.941C39.2729 124.84 39.3035 124.719 39.2933 124.598L38.4319 112.971L30.1367 114.595C30.1808 114.604 30.224 114.617 30.2657 114.633Z" fill="#92E3A9" stroke="#2E353A" stroke-linecap="round" stroke-linejoin="round"/>
<path opacity="0.3" d="M30.2657 114.633C30.6644 114.64 31.0553 114.744 31.4045 114.937C31.7537 115.129 32.0506 115.404 32.2693 115.738L38.2953 124.936C38.3606 125.038 38.4582 125.115 38.5726 125.156C38.687 125.196 38.8116 125.197 38.9265 125.158C39.0414 125.119 39.1399 125.043 39.2064 124.941C39.2729 124.84 39.3035 124.719 39.2933 124.598L38.4319 112.971L30.1367 114.595C30.1808 114.604 30.224 114.617 30.2657 114.633Z" fill="black"/>
<path d="M32.2539 27.2041L40.6288 130.42L138.285 111.81L115.335 31.3137L32.2539 27.2041Z" fill="#2E353A" stroke="#2E353A" stroke-linecap="round" stroke-linejoin="round"/>
<path d="M36.7812 29.4316L42.534 124.963L134.365 108.266L115.009 34.046L36.7812 29.4316Z" fill="#92E3A9" stroke="#2E353A" stroke-linecap="round" stroke-linejoin="round"/>
<path d="M42.3926 76.4437L46.7603 121.726L130.198 106.555L122.445 72.52L42.3926 76.4437Z" fill="white" stroke="#2E353A" stroke-linecap="round" stroke-linejoin="round"/>
<path d="M58.4983 119.472L57.1133 104.927" stroke="#2E353A" stroke-linecap="round" stroke-linejoin="round"/>
<path d="M71.2674 117.221L69.9316 105.097" stroke="#2E353A" stroke-linecap="round" stroke-linejoin="round"/>
<path d="M83.7862 114.796L82.2266 105.097" stroke="#2E353A" stroke-linecap="round" stroke-linejoin="round"/>
<path d="M96.6837 112.584L94.8281 101.022" stroke="#2E353A" stroke-linecap="round" stroke-linejoin="round"/>
<path d="M108.045 110.535L106.463 99.25" stroke="#2E353A" stroke-linecap="round" stroke-linejoin="round"/>
<path d="M118.939 108.52L116.582 94.9502" stroke="#2E353A" stroke-linecap="round" stroke-linejoin="round"/>
<path d="M144.542 78.1855C144.542 78.1855 143.381 79.3543 143.305 79.9615C143.229 80.5686 143.837 82.3976 143.837 82.3976L145.666 82.7012L146.47 79.5213L144.542 78.1855Z" fill="white" stroke="#2E353A" stroke-linecap="round" stroke-linejoin="round"/>
<g style="mix-blend-mode:multiply" opacity="0.49">
<path d="M37.2441 55.8232C37.2441 55.8232 39.1718 83.5662 40.944 93.6828C42.7161 103.799 46.0023 118.94 46.0023 118.94C46.0023 118.94 102.923 110.129 131.003 98.2364L128.726 87.3609L37.2441 55.8232Z" fill="#92E3A9"/>
</g>
<path d="M34.6699 28.3916L114.613 32.6986C114.613 32.6986 122.395 56.0169 130.14 69.1845C137.885 82.352 150.658 81.4944 150.658 81.4944C150.658 81.4944 121.363 97.5118 98.5458 106.038C74.7987 114.907 54.205 116.5 54.205 116.5C54.205 116.5 35.4478 90.8787 34.6699 28.3916Z" fill="#92E3A9" stroke="#2E353A" stroke-linecap="round" stroke-linejoin="round"/>
<path d="M43.8231 24.2402C42.3394 24.2402 41.2655 25.557 40.9277 27.6213L42.4456 27.7048C42.6809 26.5133 43.1476 25.7581 43.8193 25.7581C44.601 25.7581 45.47 27.0141 45.47 28.8204C45.47 30.6267 44.601 31.8865 43.8193 31.8865C43.618 31.8865 43.425 31.9665 43.2826 32.1088C43.1403 32.2511 43.0603 32.4442 43.0603 32.6455C43.0603 32.8467 43.1403 33.0398 43.2826 33.1821C43.425 33.3244 43.618 33.4044 43.8193 33.4044C45.5952 33.4044 46.9878 31.3894 46.9878 28.8204C46.9878 26.2514 45.599 24.2402 43.8231 24.2402Z" fill="white" stroke="#2E353A" stroke-miterlimit="10"/>
<path d="M46.0015 30.0498C45.9288 30.3174 45.8349 30.5788 45.7207 30.8315" stroke="#2E353A" stroke-width="0.75" stroke-linecap="round" stroke-linejoin="round"/>
<path d="M41.6797 26.9382C41.6797 26.9382 42.2489 24.8814 43.9299 24.9953C45.2505 25.0864 46.3396 27.0482 46.1574 29.1467" stroke="#2E353A" stroke-width="0.75" stroke-linecap="round" stroke-linejoin="round"/>
<path d="M57.0067 24.9043C55.523 24.9043 54.4491 26.2211 54.1113 28.2854L55.6292 28.3688C55.8645 27.1773 56.3312 26.4222 57.0029 26.4222C57.7846 26.4222 58.6536 27.6782 58.6536 29.4845C58.6536 31.2907 57.7846 32.5506 57.0029 32.5506C56.8016 32.5506 56.6086 32.6305 56.4662 32.7729C56.3239 32.9152 56.2439 33.1082 56.2439 33.3095C56.2439 33.5108 56.3239 33.7038 56.4662 33.8462C56.6086 33.9885 56.8016 34.0685 57.0029 34.0685C58.7788 34.0685 60.1714 32.0535 60.1714 29.4845C60.1714 26.9155 58.7864 24.9043 57.0067 24.9043Z" fill="white" stroke="#2E353A" stroke-miterlimit="10"/>
<path d="M59.189 30.7139C59.1163 30.9815 59.0224 31.2429 58.9082 31.4956" stroke="#2E353A" stroke-width="0.75" stroke-linecap="round" stroke-linejoin="round"/>
<path d="M54.8672 27.6022C54.8672 27.6022 55.4364 25.5455 57.1174 25.6593C58.438 25.7504 59.5271 27.7123 59.3449 29.8107" stroke="#2E353A" stroke-width="0.75" stroke-linecap="round" stroke-linejoin="round"/>
<path d="M70.1961 25.5684C68.7124 25.5684 67.6385 26.8851 67.3008 28.9494L68.8187 29.0329C69.0539 27.8414 69.5207 27.0862 70.1923 27.0862C70.974 27.0862 71.843 28.3423 71.843 30.1485C71.843 31.9548 70.974 33.2146 70.1923 33.2146C69.991 33.2146 69.798 33.2946 69.6557 33.4369C69.5134 33.5793 69.4334 33.7723 69.4334 33.9736C69.4334 34.1749 69.5134 34.3679 69.6557 34.5102C69.798 34.6526 69.991 34.7325 70.1923 34.7325C71.9682 34.7325 73.3609 32.7175 73.3609 30.1485C73.3609 27.5795 71.972 25.5684 70.1961 25.5684Z" fill="white" stroke="#2E353A" stroke-miterlimit="10"/>
<path d="M72.3746 31.3779C72.3019 31.6455 72.208 31.9069 72.0938 32.1596" stroke="#2E353A" stroke-width="0.75" stroke-linecap="round" stroke-linejoin="round"/>
<path d="M68.0527 28.2663C68.0527 28.2663 68.6219 26.2096 70.303 26.3234C71.6235 26.4145 72.7126 28.3763 72.5305 30.4748" stroke="#2E353A" stroke-width="0.75" stroke-linecap="round" stroke-linejoin="round"/>
<path d="M83.3836 26.2324C81.8999 26.2324 80.826 27.5492 80.4883 29.6135L82.0062 29.697C82.2414 28.5054 82.7082 27.7503 83.3798 27.7503C84.1615 27.7503 85.0305 29.0063 85.0305 30.8126C85.0305 32.6189 84.1615 33.8787 83.3798 33.8787C83.1785 33.8787 82.9855 33.9587 82.8432 34.101C82.7009 34.2433 82.6209 34.4364 82.6209 34.6376C82.6209 34.8389 82.7009 35.032 82.8432 35.1743C82.9855 35.3166 83.1785 35.3966 83.3798 35.3966C85.1557 35.3966 86.5484 33.3816 86.5484 30.8126C86.5484 28.2436 85.1595 26.2324 83.3836 26.2324Z" fill="white" stroke="#2E353A" stroke-miterlimit="10"/>
<path d="M85.5621 32.042C85.4894 32.3096 85.3955 32.571 85.2812 32.8237" stroke="#2E353A" stroke-width="0.75" stroke-linecap="round" stroke-linejoin="round"/>
<path d="M81.2402 28.9303C81.2402 28.9303 81.8094 26.8736 83.4905 26.9875C84.811 27.0785 85.9001 29.0404 85.718 31.1388" stroke="#2E353A" stroke-width="0.75" stroke-linecap="round" stroke-linejoin="round"/>
<path d="M96.8095 26.8208C95.3258 26.8208 94.2519 28.1376 93.918 30.2057L95.4358 30.2891C95.6749 29.0976 96.1417 28.3387 96.8095 28.3387C97.5912 28.3387 98.464 29.5985 98.464 31.4048C98.464 33.2111 97.5912 34.4671 96.8095 34.4671C96.6082 34.4671 96.4152 34.547 96.2729 34.6894C96.1305 34.8317 96.0506 35.0247 96.0506 35.226C96.0506 35.4273 96.1305 35.6203 96.2729 35.7627C96.4152 35.905 96.6082 35.985 96.8095 35.985C98.5892 35.985 99.9819 33.9738 99.9819 31.4048C99.9819 28.8358 98.5892 26.8208 96.8095 26.8208Z" fill="white" stroke="#2E353A" stroke-miterlimit="10"/>
<path d="M98.9878 32.6343C98.9158 32.9009 98.8218 33.161 98.707 33.4122" stroke="#2E353A" stroke-width="0.75" stroke-linecap="round" stroke-linejoin="round"/>
<path d="M94.6641 29.5225C94.6641 29.5225 95.2371 27.462 96.9143 27.5758C98.2387 27.6669 99.3239 29.6326 99.1456 31.731" stroke="#2E353A" stroke-width="0.75" stroke-linecap="round" stroke-linejoin="round"/>
<path d="M109.708 27.5303C108.224 27.5303 107.15 28.847 106.816 30.9113L108.334 30.9986C108.573 29.8071 109.04 29.0481 109.708 29.0481C110.49 29.0481 111.362 30.308 111.362 32.1105C111.362 33.9129 110.49 35.1766 109.708 35.1766C109.507 35.1766 109.314 35.2565 109.171 35.3988C109.029 35.5412 108.949 35.7342 108.949 35.9355C108.949 36.1368 109.029 36.3298 109.171 36.4721C109.314 36.6145 109.507 36.6944 109.708 36.6944C111.488 36.6944 112.88 34.6795 112.88 32.1105C112.88 29.5415 111.488 27.5303 109.708 27.5303Z" fill="white" stroke="#2E353A" stroke-miterlimit="10"/>
<path d="M111.884 33.3208C111.813 33.5888 111.719 33.8503 111.604 34.1025" stroke="#2E353A" stroke-width="0.75" stroke-linecap="round" stroke-linejoin="round"/>
<path d="M107.562 30.2129C107.562 30.2129 108.135 28.1524 109.813 28.2663C111.137 28.3573 112.222 30.3192 112.044 32.4177" stroke="#2E353A" stroke-width="0.75" stroke-linecap="round" stroke-linejoin="round"/>
<path d="M146.469 79.5172C146.469 79.5172 147.228 80.5569 147.228 81.0009C147.228 81.4449 146.189 82.1887 146.189 83.2246C146.189 84.2606 144.853 83.9835 144.705 83.2246C144.557 82.4657 145.001 81.4449 145.001 81.4449C145.001 81.4449 144.382 81.0654 144.242 79.7297C144.101 78.394 145.304 78.7734 145.304 78.7734L146.469 79.5172Z" fill="white" stroke="#2E353A" stroke-linecap="round" stroke-linejoin="round"/>
<path d="M127.496 69.2453C121.998 59.8952 116.222 45.1301 114.169 39.6961L42.7267 36.8008C42.6811 89.6038 58.6643 111.419 58.6643 111.419C58.6643 111.419 76.8598 110.012 97.8444 102.172C118.009 94.6394 142.06 81.9955 142.06 81.9955C142.06 81.9955 134.338 80.8836 127.496 69.2453Z" fill="white" stroke="#2E353A" stroke-linecap="round" stroke-linejoin="round"/>
<path d="M114.169 39.6961L42.7266 36.8008C42.7266 41.9957 42.8746 46.8833 43.1478 51.4862L118.594 50.7804C116.639 46.1243 115.065 42.045 114.169 39.6961Z" fill="#2E353A" stroke="#2E353A" stroke-linecap="round" stroke-linejoin="round"/>
<path d="M115.434 55.4365L118.811 55.3188" stroke="#2E353A" stroke-width="3" stroke-linecap="round" stroke-linejoin="round"/>
<path d="M105.506 55.7743L112.902 55.52" stroke="#2E353A" stroke-width="3" stroke-linecap="round" stroke-linejoin="round"/>
<path d="M93.4883 56.18L102.994 55.8574" stroke="#2E353A" stroke-width="3" stroke-linecap="round" stroke-linejoin="round"/>
<path d="M81.2617 56.5935L91.3897 56.252" stroke="#2E353A" stroke-width="3" stroke-linecap="round" stroke-linejoin="round"/>
<path d="M69.4414 56.9961L78.727 56.6812" stroke="#2E353A" stroke-width="3" stroke-linecap="round" stroke-linejoin="round"/>
<path d="M56.9883 57.4208L66.2815 57.1021" stroke="#2E353A" stroke-width="3" stroke-linecap="round" stroke-linejoin="round"/>
<path d="M46.0254 57.7931L54.6735 57.4971" stroke="#2E353A" stroke-width="3" stroke-linecap="round" stroke-linejoin="round"/>
<path d="M44.6172 65.9324L123.216 61.1436" stroke="#2E353A" stroke-linecap="round" stroke-linejoin="round"/>
<path d="M57.0371 65.2568C57.0371 65.2568 58.3273 86.158 72.1058 109.359" stroke="#2E353A" stroke-linecap="round" stroke-linejoin="round"/>
<path d="M69.7188 64.4185C69.7188 64.4185 71.1721 88.325 86.2788 105.83" stroke="#2E353A" stroke-linecap="round" stroke-linejoin="round"/>
<path d="M81.2012 63.7124C81.2012 63.7124 81.9601 85.7216 98.9413 101.538" stroke="#2E353A" stroke-linecap="round" stroke-linejoin="round"/>
<path d="M93.1055 63.2002C93.1055 63.2002 94.98 87.6683 111.415 96.286" stroke="#2E353A" stroke-linecap="round" stroke-linejoin="round"/>
<path d="M105.578 62.2173C105.578 62.2173 106.899 80.724 123.709 90.8596" stroke="#2E353A" stroke-linecap="round" stroke-linejoin="round"/>
<path d="M115.398 61.6182C115.398 61.6182 119.922 80.5916 132.577 86.7352" stroke="#2E353A" stroke-linecap="round" stroke-linejoin="round"/>
<path d="M46.3398 76.713L126.62 67.8828" stroke="#2E353A" stroke-linecap="round" stroke-linejoin="round"/>
<path d="M48.4336 86.1581C48.4336 86.1581 65.5742 85.4864 130.353 73.5483" stroke="#2E353A" stroke-linecap="round" stroke-linejoin="round"/>
<path d="M51.459 96.1573C51.459 96.1573 68.1556 98.0546 133.568 77.2256" stroke="#2E353A" stroke-linecap="round" stroke-linejoin="round"/>
<path d="M55.0703 104.881C55.0703 104.881 68.9892 109.492 137.362 80.2158" stroke="#2E353A" stroke-linecap="round" stroke-linejoin="round"/>
<path d="M73.5862 47.1298L47.8506 46.7845C47.6421 46.7814 47.4418 46.7027 47.2869 46.5632C47.132 46.4236 47.033 46.2326 47.0082 46.0255L46.7881 43.9461C46.7752 43.8264 46.7878 43.7053 46.8252 43.5909C46.8626 43.4765 46.9239 43.3713 47.0049 43.2824C47.086 43.1934 47.1851 43.1227 47.2955 43.0748C47.406 43.027 47.5253 43.0032 47.6457 43.005L73.0701 43.4452C73.258 43.4485 73.4396 43.5134 73.587 43.6299C73.7344 43.7465 73.8394 43.9082 73.8859 44.0903L74.402 46.0673C74.4343 46.1923 74.4377 46.323 74.4119 46.4496C74.3861 46.5761 74.3318 46.6951 74.2532 46.7975C74.1746 46.8999 74.0736 46.9831 73.958 47.0406C73.8425 47.0982 73.7153 47.1287 73.5862 47.1298Z" fill="white"/>
</svg>
