<svg width="152" height="143" viewBox="0 0 152 143" fill="none" xmlns="http://www.w3.org/2000/svg">
<path d="M75.5576 142.911C116.873 142.911 150.365 136.23 150.365 127.99C150.365 119.749 116.873 113.068 75.5576 113.068C34.2425 113.068 0.75 119.749 0.75 127.99C0.75 136.23 34.2425 142.911 75.5576 142.911Z" fill="#92E3A9"/>
<path opacity="0.5" d="M75.5576 142.911C116.873 142.911 150.365 136.23 150.365 127.99C150.365 119.749 116.873 113.068 75.5576 113.068C34.2425 113.068 0.75 119.749 0.75 127.99C0.75 136.23 34.2425 142.911 75.5576 142.911Z" fill="white"/>
<path d="M106.484 1.82227H107.905C113.254 1.82227 118.384 3.94712 122.166 7.72938C125.948 11.5116 128.073 16.6415 128.073 21.9904V97.7836H86.3154V21.9904C86.3154 16.6415 88.4403 11.5116 92.2226 7.72938C96.0048 3.94712 101.135 1.82227 106.484 1.82227V1.82227Z" stroke="#263238" stroke-linecap="round" stroke-linejoin="round"/>
<path d="M91.0303 97.5689V23.3728C91.0303 19.0859 92.7332 14.9746 95.7645 11.9433C98.7958 8.91196 102.907 7.20899 107.194 7.20899V7.20899C109.318 7.20728 111.421 7.62411 113.384 8.43565C115.346 9.24719 117.13 10.4375 118.632 11.9387C120.134 13.4398 121.326 15.2222 122.139 17.1842C122.952 19.1461 123.371 21.249 123.371 23.3728V97.5689" stroke="#263238" stroke-linecap="round" stroke-linejoin="round"/>
<path d="M107.193 1.82227V97.6796" stroke="#263238" stroke-linecap="round" stroke-linejoin="round"/>
<path d="M86.54 20.2861H127.79" stroke="#263238" stroke-linecap="round" stroke-linejoin="round"/>
<path d="M86.54 33.3076H127.79" stroke="#263238" stroke-linecap="round" stroke-linejoin="round"/>
<path d="M86.54 46.3291H127.79" stroke="#263238" stroke-linecap="round" stroke-linejoin="round"/>
<path d="M86.54 59.3467H127.79" stroke="#263238" stroke-linecap="round" stroke-linejoin="round"/>
<path d="M86.54 72.3682H127.79" stroke="#263238" stroke-linecap="round" stroke-linejoin="round"/>
<path d="M86.54 85.3896H127.79" stroke="#263238" stroke-linecap="round" stroke-linejoin="round"/>
<path d="M92.0547 8.33789L95.7956 11.7437" stroke="#263238" stroke-linecap="round" stroke-linejoin="round"/>
<path d="M122.173 8.33789L118.432 11.7437" stroke="#263238" stroke-linecap="round" stroke-linejoin="round"/>
<path d="M138.463 114.468C138.463 114.468 145.922 101.3 147.659 95.2269C149.396 89.1537 142.861 93.9258 142.861 93.9258C142.861 93.9258 150.619 81.106 151.221 72.6711C151.823 64.2363 142.923 74.6879 142.923 74.6879C142.923 74.6879 145.981 63.8199 146.647 54.4092C147.314 44.9985 143.069 49.5883 143.069 49.5883C143.069 49.5883 142.715 31.6289 140.304 33.4115C137.894 35.1941 136.83 40.9941 136.83 40.9941C136.83 40.9941 135.48 23.2852 133.512 28.0377C131.544 32.7902 134.657 57.7955 134.657 57.7955C134.657 57.7955 130.041 44.748 128.909 51.5173C127.777 58.2867 136.215 77.1472 136.215 77.1472C136.215 77.1472 131.928 77.8205 131.398 80.7254C130.867 83.6302 137.682 98.1058 137.682 98.1058C137.682 98.1058 132.026 90.5297 131.007 95.6726C129.989 100.815 135.718 116.553 135.718 116.553L138.463 114.468Z" fill="#92E3A9"/>
<path d="M146.843 88.3211C145.802 84.6615 143.021 87.072 143.021 87.072C143.021 87.072 148.925 68.2505 146.42 66.7672C143.915 65.2838 141.811 71.9719 141.811 71.9719C141.811 71.9719 144.839 43.1639 143.112 44.67C141.385 46.1761 140.383 55.5641 140.383 55.5641C140.383 55.5641 138.333 29.3422 136.056 33.7467C133.779 38.1512 136.46 64.7569 136.46 64.7569C136.46 64.7569 132.192 51.4199 131.779 57.2491C131.366 63.0784 135.864 82.3227 135.864 82.3227C135.864 82.3227 130.764 80.6572 130.881 83.5978C130.998 86.5385 133.945 100.123 133.945 100.123C133.945 100.123 130.793 98.5938 131.558 101.583C132.322 104.573 135.92 113.619 135.92 113.619L139.745 114.868C139.745 114.868 145.275 105.806 142.998 105.968C142.346 106.001 141.707 106.171 141.125 106.466C140.542 106.762 140.028 107.176 139.615 107.683C139.615 107.683 147.887 91.9741 146.843 88.3211Z" stroke="#263238" stroke-linecap="round" stroke-linejoin="round"/>
<path d="M137.822 113.268C137.822 113.268 139.501 83.2464 138.798 64.2461" stroke="#263238" stroke-linecap="round" stroke-linejoin="round"/>
<path d="M140.966 127.105H133.852L133.016 111.816H141.799L140.966 127.105Z" fill="#263238" stroke="#263238" stroke-linecap="round" stroke-linejoin="round"/>
<path d="M80.7132 16.9385H61.124V43.7816H80.7132V16.9385Z" stroke="#263238" stroke-linecap="round" stroke-linejoin="round"/>
<path d="M77.8006 20.9268H64.0342V39.7905H77.8006V20.9268Z" stroke="#263238" stroke-linecap="round" stroke-linejoin="round"/>
<path d="M31.8398 44.8232C32.8215 45.0204 33.7505 45.4228 34.5658 46.0041C35.7043 46.8823 39.8583 53.6452 41.3969 55.1123C42.9356 56.5793 44.7605 58.3847 44.1262 59.8388C43.4918 61.2928 42.4997 63.8399 39.7607 62.7664C37.0218 61.6929 36.2866 60.3039 35.5579 59.032C34.8293 57.7601 32.4677 55.8507 32.4677 55.8507" fill="#92E3A9"/>
<path d="M31.8398 44.8232C32.8215 45.0204 33.7505 45.4228 34.5658 46.0041C35.7043 46.8823 39.8583 53.6452 41.3969 55.1123C42.9356 56.5793 44.7605 58.3847 44.1262 59.8388C43.4918 61.2928 42.4997 63.8399 39.7607 62.7664C37.0218 61.6929 36.2866 60.3039 35.5579 59.032C34.8293 57.7601 32.4677 55.8507 32.4677 55.8507" stroke="#263238" stroke-linecap="round" stroke-linejoin="round"/>
<path d="M43.1149 58.7555C41.1859 56.6671 39.4814 58.2285 38.3429 60.0241C37.0775 62.0247 35.952 64.1131 34.833 66.2047C34.833 66.2047 33.148 67.8051 33.0634 68.5631C32.9788 69.321 34.3255 71.3411 35.0151 71.2597C35.7048 71.1784 37.0385 70.7523 37.123 70.3327C37.2076 69.913 36.5342 70.0074 36.5342 70.0074L37.0385 69.2494L36.7132 67.4506C38.9284 65.5639 42.357 62.6265 43.3166 61.6636C44.1981 60.7625 43.8859 59.5915 43.1149 58.7555Z" fill="white" stroke="#263238" stroke-linecap="round" stroke-linejoin="round"/>
<path d="M19.7166 70.9538C19.7166 70.9538 18.8253 74.7695 19.2059 75.9178C19.5865 77.0661 20.9722 79.8961 20.9722 79.8961L23.8543 116.563L26.9706 116.485L28.3824 77.8923L29.0135 77.8175L30.1357 116.485L33.3464 116.612L35.5096 79.226C35.5096 79.226 35.8349 74.3922 35.8349 73.8814C35.8349 73.3707 34.9923 68.6768 34.9923 68.6768L19.7166 70.9538Z" fill="#263238" stroke="#263238" stroke-linecap="round" stroke-linejoin="round"/>
<path d="M23.8543 116.563C23.8543 116.563 20.1557 119.624 20.0776 120.665C19.9996 121.706 23.0508 121.228 24.3357 119.689C25.6206 118.151 26.8502 118.564 26.9088 117.52L26.9706 116.476L23.8543 116.563Z" fill="white" stroke="#263238" stroke-linecap="round" stroke-linejoin="round"/>
<path d="M33.2394 116.563C33.2394 116.563 36.9379 119.621 37.0193 120.665C37.1006 121.71 34.0428 121.228 32.7579 119.689C31.473 118.151 30.2467 118.564 30.1849 117.52L30.123 116.476L33.2394 116.563Z" fill="white" stroke="#263238" stroke-linecap="round" stroke-linejoin="round"/>
<path d="M33.1121 49.4583L32.7478 45.1872C30.3829 44.1853 26.1834 44.0487 24.9408 44.5366C24.9408 44.5366 17.7616 48.1734 17.0329 48.9021C16.3043 49.6307 13.8418 60.5476 13.8418 62.3724C13.8418 64.1973 14.8437 65.4627 16.6588 65.8271C18.474 66.1914 19.6613 63.9176 19.6613 63.9176C19.6613 63.9176 18.6594 69.4476 18.8415 70.0982C19.0237 70.7487 19.362 71.6758 20.0874 71.7669C20.8128 71.858 34.1108 71.279 34.6573 71.0057C35.2038 70.7325 35.5649 70.1892 35.5649 68.9173C35.5649 67.6454 33.7465 54.7378 33.7465 54.7378" fill="#92E3A9"/>
<path d="M33.1121 49.4583L32.7478 45.1872C30.3829 44.1853 26.1834 44.0487 24.9408 44.5366C24.9408 44.5366 17.7616 48.1734 17.0329 48.9021C16.3043 49.6307 13.8418 60.5476 13.8418 62.3724C13.8418 64.1973 14.8437 65.4627 16.6588 65.8271C18.474 66.1914 19.6613 63.9176 19.6613 63.9176C19.6613 63.9176 18.6594 69.4476 18.8415 70.0982C19.0237 70.7487 19.362 71.6758 20.0874 71.7669C20.8128 71.858 34.1108 71.279 34.6573 71.0057C35.2038 70.7325 35.5649 70.1892 35.5649 68.9173C35.5649 67.6454 33.7465 54.7378 33.7465 54.7378" stroke="#263238" stroke-linecap="round" stroke-linejoin="round"/>
<path d="M20.0055 56.9566L19.9307 53.5508" stroke="#263238" stroke-linecap="round" stroke-linejoin="round"/>
<path d="M26.5211 51.7325C28.3536 51.7325 29.8391 50.1043 29.8391 48.0958C29.8391 46.0872 28.3536 44.459 26.5211 44.459C24.6886 44.459 23.2031 46.0872 23.2031 48.0958C23.2031 50.1043 24.6886 51.7325 26.5211 51.7325Z" fill="white" stroke="#263238" stroke-linecap="round" stroke-linejoin="round"/>
<path d="M24.3848 41.7324C24.3848 41.7324 24.3848 48.2773 25.0354 49.4581C25.6859 50.6389 28.0346 51.0033 28.2167 49.4581C28.3989 47.913 28.3078 42.2789 28.3078 42.2789L24.3848 41.7324Z" fill="white" stroke="#263238" stroke-linecap="round" stroke-linejoin="round"/>
<path d="M28.3169 44.891C28.3169 43.4597 28.2941 42.2887 28.2941 42.2887L24.3906 41.7422C24.3906 41.7422 24.3906 42.7831 24.4329 44.1103C24.973 44.5373 25.6064 44.8306 26.2813 44.9662C26.9563 45.1019 27.6538 45.0761 28.3169 44.891Z" fill="#263238" stroke="#263238" stroke-linecap="round" stroke-linejoin="round"/>
<path d="M30.9294 29.4625C30.9294 29.4625 31.5799 36.0984 31.7491 38.0079C31.9183 39.9174 31.2026 42.279 28.7499 43.1866C26.2972 44.0941 24.2966 42.8255 23.0215 41.0982C21.7463 39.3709 21.395 39.2798 21.395 39.2798C21.1923 39.329 20.9818 39.3373 20.7757 39.3044C20.5697 39.2715 20.3723 39.198 20.1949 39.0881C20.0175 38.9783 19.8638 38.8343 19.7426 38.6644C19.6214 38.4946 19.5351 38.3024 19.4888 38.099C19.0334 36.5538 20.3053 35.9163 21.3039 35.643C21.3039 35.643 19.6775 31.9184 19.6775 30.9165C19.6775 29.9146 21.4015 27.8262 25.0383 26.9187C28.6751 26.0111 30.9294 29.4625 30.9294 29.4625Z" fill="white" stroke="#263238" stroke-linecap="round" stroke-linejoin="round"/>
<path d="M28.0218 33.373L28.1129 34.8271C28.1129 34.8271 30.2045 35.0093 29.4759 35.6436C28.9098 36.0769 28.2594 36.3871 27.5664 36.5544" stroke="#263238" stroke-linecap="round" stroke-linejoin="round"/>
<path d="M24.6572 38.46C25.0006 38.7928 25.4222 39.034 25.8832 39.1613C26.3442 39.2886 26.8298 39.298 27.2954 39.1886" stroke="#263238" stroke-linecap="round" stroke-linejoin="round"/>
<path d="M25.7516 34.5535C25.7516 34.9796 25.5467 35.3244 25.2962 35.3244C25.0458 35.3244 24.8408 34.9796 24.8408 34.5535C24.8408 34.1274 25.0458 33.7793 25.2962 33.7793C25.5467 33.7793 25.7516 34.1274 25.7516 34.5535Z" fill="#263238"/>
<path d="M29.2025 34.5084C29.454 34.5084 29.6579 34.1617 29.6579 33.7342C29.6579 33.3066 29.454 32.96 29.2025 32.96C28.951 32.96 28.7471 33.3066 28.7471 33.7342C28.7471 34.1617 28.951 34.5084 29.2025 34.5084Z" fill="#263238"/>
<path d="M23.5684 33.1909C23.5684 33.1909 24.3848 32.0979 26.2032 32.189" stroke="#263238" stroke-linecap="round" stroke-linejoin="round"/>
<path d="M27.748 31.1895C27.8536 30.785 28.1108 30.4366 28.4664 30.2168C28.8219 29.9969 29.2485 29.9224 29.6575 30.0087" stroke="#263238" stroke-linecap="round" stroke-linejoin="round"/>
<path d="M20.3864 35.6432C20.3864 35.6432 21.7493 37.0972 22.2048 36.3718C22.6602 35.6464 22.2048 34.3713 22.2958 33.3726C22.3869 32.374 23.4766 32.4618 23.1123 31.6453C22.748 30.8288 21.4859 31.7364 21.4859 30.8256C21.4859 29.9148 23.9418 28.464 26.3034 28.464C28.6651 28.464 31.2121 30.741 33.3037 29.7359C35.3954 28.7307 34.5756 26.5545 33.3948 25.5558C32.214 24.5572 29.8491 24.645 29.8491 24.645C29.8491 24.645 32.7573 23.7375 31.7586 22.8266C30.76 21.9158 28.2129 21.828 26.8499 22.3745C25.487 22.921 24.0231 23.6626 24.0231 23.6626C24.0231 23.6626 25.204 21.7532 23.5677 22.5729C22.9259 22.8739 22.3528 23.3035 21.8839 23.835C21.415 24.3666 21.0603 24.9889 20.8418 25.6632C20.3864 26.844 20.022 27.6605 20.022 27.6605C20.022 27.6605 18.9323 26.844 18.1158 27.2083C17.2993 27.5727 18.7664 27.8589 18.7664 27.8589C18.7664 27.8589 16.8569 28.9519 17.1399 30.406C17.4229 31.86 19.1405 33.9484 19.5959 34.2216C20.0513 34.4949 20.3864 35.6432 20.3864 35.6432Z" fill="#263238" stroke="#263238" stroke-linecap="round" stroke-linejoin="round"/>
<path d="M29.6581 50.8212V47.0055C29.6581 46.6411 32.023 46.459 32.023 46.459L32.1108 47.0055L31.1122 47.5487L31.7888 49.0581C31.7888 49.0581 35.2011 46.8233 35.5654 47.2787C35.7102 47.4981 35.7797 47.7587 35.7632 48.021C35.7468 48.2833 35.6454 48.5332 35.4743 48.7328C35.294 48.9398 35.1697 49.1895 35.1133 49.4582C35.1133 49.4582 35.2011 51.9141 34.5668 52.1841C33.9324 52.4541 30.5657 53.3682 30.5657 53.3682C27.9015 56.5235 25.2081 59.7114 22.004 62.343C20.7028 63.4165 19.1446 65.2284 17.4791 64.2102C15.8787 63.2343 15.9177 60.7784 16.9326 59.4577C18.751 57.0928 21.1614 56.6374 23.5751 55.2972C25.7554 54.0246 27.7945 52.5242 29.6581 50.8212Z" fill="white" stroke="#263238" stroke-linecap="round" stroke-linejoin="round"/>
<path d="M31.7881 49.0586L32.4387 43.1057C32.4523 42.9316 32.53 42.7687 32.6568 42.6485C32.7836 42.5284 32.9504 42.4595 33.125 42.4552L35.298 42.299C35.3933 42.2968 35.4881 42.3139 35.5767 42.3491C35.6652 42.3844 35.7458 42.4372 35.8135 42.5043C35.8812 42.5714 35.9347 42.6515 35.9708 42.7397C36.0068 42.828 36.0247 42.9226 36.0234 43.0179L35.568 47.2923L31.7881 49.0586Z" fill="#263238" stroke="#263238" stroke-linecap="round" stroke-linejoin="round"/>
<path d="M121.839 97.5785C121.839 97.5785 123.661 93.0244 122.49 83.5909C121.979 79.4467 122.344 70.9338 116.677 70.6573C110.63 70.3645 108.161 70.9631 102.101 71.0314C80.241 71.2818 64.165 73.4613 50.8378 72.1764C40.1259 71.142 30.8843 69.4439 27.0914 73.2531C23.2985 77.0623 23.614 85.1751 23.9458 86.7495C24.2776 88.3239 26.7563 99.0814 26.7563 99.0814L121.26 98.6552L121.839 97.5785Z" fill="#999999" stroke="#263238" stroke-linecap="round" stroke-linejoin="round"/>
<path d="M27.9996 94.8588C27.9996 94.8588 26.1779 87.5722 23.195 85.5847C20.212 83.5972 16.3248 85.7506 13.1109 88.8962C9.89701 92.0418 8.96993 95.7696 10.2971 101.979C11.6243 108.189 15.5018 117.379 16.6729 121.52C17.8439 125.661 17.8309 127.814 21.7214 129.138C25.6119 130.462 29.3398 130.547 31.7404 127.232C34.1411 123.917 33.4807 108.69 31.5745 102.972C29.6683 97.253 27.9996 94.8588 27.9996 94.8588Z" fill="#B2B2B2" stroke="#263238" stroke-linecap="round" stroke-linejoin="round"/>
<path d="M27.6675 126.985C26.0118 123.852 21.0446 101.407 21.1259 98.3362C21.2072 95.2655 18.7252 90.1388 15.661 89.7225C13.1367 89.3972 11.1069 91.7978 10.4856 92.6501C9.50969 95.08 9.43813 98.0239 10.2806 101.973C11.6046 108.183 11.4387 117.564 12.5967 121.705C13.7548 125.846 13.745 128.006 17.6485 129.33C20.2086 130.202 26.7567 130.342 28.8418 129.525C28.5093 128.652 28.1169 127.804 27.6675 126.985Z" fill="#8A8A8A" stroke="#263238" stroke-linecap="round" stroke-linejoin="round"/>
<path d="M116.863 94.7191C116.863 94.7191 118.789 87.4326 121.935 85.445C125.08 83.4575 129.195 85.6109 132.604 88.7565C136.013 91.9021 136.979 95.63 135.581 101.84C134.182 108.05 130.07 117.239 128.844 121.38C127.617 125.521 127.621 127.675 123.509 128.999C119.397 130.322 115.464 130.407 112.927 127.096C110.39 123.784 111.093 108.554 113.103 102.832C115.113 97.1101 116.863 94.7191 116.863 94.7191Z" fill="#B2B2B2" stroke="#263238" stroke-linecap="round" stroke-linejoin="round"/>
<path d="M117.208 127.307C118.955 124.119 124.202 101.404 124.117 98.3042C124.032 95.2042 126.651 90.0223 129.875 89.5864C132.542 89.2383 134.673 91.6845 135.34 92.5531C136.384 95.0123 136.449 97.992 135.561 101.987C134.159 108.274 132.022 117.578 130.795 121.771C129.569 125.964 129.572 128.14 125.46 129.484C122.757 130.365 118.158 130.703 115.952 129.874C116.311 128.99 116.73 128.133 117.208 127.307Z" fill="#8A8A8A" stroke="#263238" stroke-linecap="round" stroke-linejoin="round"/>
<path d="M124.16 108.84C124.16 108.84 122.091 121.695 120.764 126.002C119.436 130.309 119.853 130.309 117.618 130.475C115.383 130.641 30.5663 130.404 27.9152 129.99C25.264 129.577 23.8588 127.586 23.1139 124.786C22.3689 121.985 21.624 109.194 21.624 109.194L120.598 108.869L124.16 108.84Z" fill="#999999" stroke="#263238" stroke-linecap="round" stroke-linejoin="round"/>
<path d="M21.6269 111.218C21.8156 111.676 22.1196 112.078 22.5095 112.384C22.8994 112.69 23.3619 112.89 23.8519 112.965C25.602 113.29 70.4371 113.762 71.8652 113.762C73.2932 113.762 109.863 113.762 115.747 113.284C121.632 112.805 124.624 112.028 124.159 108.84C123.694 105.652 123.853 108.19 123.853 108.19L20.6738 109.468L21.6269 111.218Z" fill="#263238"/>
<path d="M28.2464 94.443C28.2464 94.443 21.8772 98.7499 20.049 100.737C18.2209 102.725 19.2228 104.296 19.3984 105.789C19.5741 107.282 20.3093 110.591 22.4594 111.749C24.6096 112.907 51.3585 112.399 66.927 112.91C82.4955 113.421 115.962 112.816 120.116 111.817C124.27 110.818 125.239 105.688 125.486 102.79C125.733 99.8917 122.763 95.8353 121.108 95.3408C119.452 94.8464 105.679 94.7716 90.3611 95.1034C75.043 95.4352 68.0232 96.7689 50.5517 96.4371C33.0802 96.1053 32.2215 93.6981 28.2464 94.443Z" fill="#B2B2B2"/>
<path d="M19.3899 105.789C19.5525 107.279 20.3007 110.59 22.4509 111.748C24.601 112.907 51.3499 112.399 66.9184 112.91C82.4869 113.42 115.963 112.815 120.117 111.817C124.271 110.818 126.74 106.85 126.987 103.951C127.016 103.512 126.967 103.072 126.844 102.65C126.258 103.232 125.136 102.601 123.806 102.413C120.855 101.986 89.8125 103.919 66.5801 103.919C41.3504 103.919 33.1302 103.919 20.6455 101.518C18.7881 101.16 20.0632 100.728 20.0632 100.728C18.2286 102.725 19.224 104.296 19.3899 105.789Z" fill="#999999"/>
<path d="M28.2464 94.443C28.2464 94.443 21.8772 98.7499 20.049 100.737C18.2209 102.725 19.2228 104.296 19.3984 105.789C19.5741 107.282 20.3093 110.591 22.4594 111.749C24.6096 112.907 51.3585 112.399 66.927 112.91C82.4955 113.421 115.962 112.816 120.116 111.817C124.27 110.818 125.239 105.688 125.486 102.79C125.733 99.8917 122.763 95.8353 121.108 95.3408C119.452 94.8464 105.679 94.7716 90.3611 95.1034C75.043 95.4352 68.0232 96.7689 50.5517 96.4371C33.0802 96.1053 32.2215 93.6981 28.2464 94.443Z" stroke="#263238" stroke-linecap="round" stroke-linejoin="round"/>
<path d="M73.3186 72.502L73.1884 95.9653C73.1884 95.9653 72.1638 102.383 72.2971 103.271C72.4305 104.159 72.424 112.887 72.424 112.887" stroke="#263238" stroke-linecap="round" stroke-linejoin="round"/>
<path d="M114.912 78.4811C115.911 78.3274 116.933 78.5057 117.82 78.9886C119.121 79.7888 121.239 82.4074 121.239 82.4074L123.493 76.152C123.493 76.152 122.475 74.2621 122.475 73.6083C122.475 72.9544 122.404 72.3071 122.404 72.0078C122.404 71.7085 123.054 71.4255 123.054 71.7183C123.1 72.11 123.173 72.4981 123.272 72.8796L124.02 73.7579L124.456 70.1244C124.456 70.1244 124.817 69.6885 124.964 70.0496C125.11 70.4106 125.048 72.2843 125.048 72.2843H125.409L125.754 69.3404C125.754 69.3404 125.858 69.2005 126.206 69.2363C126.248 69.2349 126.29 69.2439 126.327 69.2626C126.364 69.2812 126.396 69.309 126.42 69.3433C126.444 69.3775 126.459 69.4173 126.464 69.4588C126.469 69.5004 126.463 69.5424 126.447 69.5811L126.206 72.3559L126.414 72.3884L126.993 69.8284C126.993 69.8284 127.237 69.5876 127.41 69.7243C127.523 69.8472 127.585 70.0091 127.582 70.1764L127.211 72.8406L128.034 71.3182C128.034 71.3182 128.379 71.1816 128.379 71.4581C128.129 72.3772 127.819 73.2791 127.452 74.158C127.384 74.2621 126.066 76.6855 126.066 76.6855C126.066 76.6855 124.993 83.0971 124.508 84.4926C124.024 85.8881 122.983 87.1242 121.493 87.1957C120.003 87.2673 118.305 85.5693 118.305 85.5693L114.912 78.4811Z" fill="white" stroke="#263238" stroke-linecap="round" stroke-linejoin="round"/>
<path d="M124.827 75.8166C124.827 75.8166 125.081 74.6878 125.39 74.33C125.671 74.0612 126.003 73.8511 126.366 73.7119" stroke="#263238" stroke-linecap="round" stroke-linejoin="round"/>
<path d="M110.032 76.0054C110.032 76.0054 109.889 78.0417 109.743 78.6077C109.597 79.1737 108.725 79.0436 107.925 79.0436C107.124 79.0436 106.835 80.3448 106.688 81.5158C106.542 82.6869 104.799 95.6238 105.088 97.4552C105.378 99.2866 108.435 101.238 111.779 101.456C115.123 101.674 119.85 101.164 121.743 99.7095C123.636 98.2554 123.851 97.1071 123.415 95.6368C122.979 94.1665 121.815 92.6571 121.232 92.0033C120.65 91.3494 120.068 90.5492 120.068 90.5492C120.068 90.5492 116.795 79.7137 115.995 78.9135C115.195 78.1133 113.598 78.4776 113.598 78.4776L113.087 75.7842L110.032 76.0054Z" fill="#92E3A9" stroke="#263238" stroke-linecap="round" stroke-linejoin="round"/>
<path d="M106.994 96.2024C106.994 96.2024 110.432 88.6328 119.212 90.9977" stroke="#263238" stroke-linecap="round" stroke-linejoin="round"/>
<path d="M109.222 92.0783C109.222 92.0783 111.704 90.0419 114.374 90.107" stroke="#263238" stroke-linecap="round" stroke-linejoin="round"/>
<path d="M114.238 78.4025C114.025 78.4109 113.813 78.437 113.604 78.4805L113.093 75.7871L110.039 76.0051C110.039 76.0051 109.896 78.0414 109.749 78.6074C109.678 78.8969 109.424 79.0043 109.099 79.0433C109.343 79.6939 110.237 81.6879 112.296 81.8083C114.121 81.9319 114.281 79.6126 114.238 78.4025Z" fill="white" stroke="#263238" stroke-linecap="round" stroke-linejoin="round"/>
<path d="M109.893 77.6608C110.443 77.7848 111.004 77.8524 111.568 77.8625C112.202 77.8767 112.835 77.7787 113.435 77.573L113.11 75.7773L110.055 75.9953C110.055 75.9953 109.977 76.8964 109.893 77.6608Z" fill="#263238" stroke="#263238" stroke-linecap="round" stroke-linejoin="round"/>
<path d="M117.748 63.7909C117.748 63.7909 120.149 62.0441 123.057 62.4898C125.965 62.9354 125.747 67.509 124.657 68.7451C123.568 69.9813 120.949 69.181 120.949 68.5988C120.949 68.0165 121.385 66.055 120.298 65.0205C120.01 64.7296 119.648 64.522 119.251 64.4195C118.854 64.317 118.437 64.3235 118.044 64.4383L117.748 63.7909Z" fill="#263238" stroke="#263238" stroke-linecap="round" stroke-linejoin="round"/>
<path d="M106.128 69.0988C106.05 69.7463 106.026 70.3991 106.057 71.0506C106.128 71.7792 105.11 72.2867 105.764 73.5228C106.418 74.7589 107.947 76.8701 111.584 76.9416C115.22 77.0132 117.618 73.5976 117.618 70.3967C117.618 67.1959 113.61 64.7334 111.492 64.7334C109.375 64.7334 107.059 66.5518 106.613 67.2804C106.333 67.8488 106.169 68.4667 106.128 69.0988Z" fill="white" stroke="#263238" stroke-linecap="round" stroke-linejoin="round"/>
<path d="M110.332 71.8058C110.356 71.9326 110.34 72.0638 110.287 72.1815C110.234 72.2992 110.145 72.3976 110.034 72.4633C109.923 72.529 109.794 72.5589 109.666 72.5488C109.537 72.5386 109.414 72.4891 109.315 72.4068C109.215 72.3246 109.144 72.2136 109.109 72.0891C109.075 71.9646 109.08 71.8325 109.124 71.711C109.167 71.5894 109.247 71.4842 109.353 71.4098C109.458 71.3354 109.584 71.2953 109.713 71.295C109.863 71.2823 110.011 71.3287 110.127 71.4241C110.242 71.5196 110.316 71.6567 110.332 71.8058Z" stroke="#263238" stroke-linecap="round" stroke-linejoin="round"/>
<path d="M108.584 72.9541C108.584 72.9541 109.459 73.9723 111.203 73.0257" stroke="#263238" stroke-linecap="round" stroke-linejoin="round"/>
<path d="M108.149 71.0638C108.39 71.0638 108.585 70.7375 108.585 70.3351C108.585 69.9327 108.39 69.6064 108.149 69.6064C107.908 69.6064 107.713 69.9327 107.713 70.3351C107.713 70.7375 107.908 71.0638 108.149 71.0638Z" fill="#263238"/>
<path d="M111.714 70.407C111.714 70.8104 111.515 71.1357 111.275 71.1357C111.034 71.1357 110.839 70.8104 110.839 70.407C110.839 70.0037 111.034 69.6816 111.275 69.6816C111.515 69.6816 111.714 70.0069 111.714 70.407Z" fill="#263238"/>
<path d="M107.43 69.0995C107.614 68.9074 107.844 68.7662 108.099 68.6898C108.354 68.6134 108.624 68.6044 108.884 68.6637" stroke="#263238" stroke-linecap="round" stroke-linejoin="round"/>
<path d="M110.684 68.5881C110.684 68.5881 112.063 68.2985 112.499 69.5347" stroke="#263238" stroke-linecap="round" stroke-linejoin="round"/>
<path d="M110.621 65.1729C110.621 65.1729 112.658 69.6814 114.476 70.8427C116.294 72.004 118.038 71.2071 118.331 70.5532C119.1 69.0439 119.256 67.2956 118.767 65.6738C118.038 63.2016 116.512 61.6012 114.112 61.7475C111.711 61.8939 108.949 63.8554 108.949 63.8554L110.621 65.1729Z" fill="#263238" stroke="#263238" stroke-linecap="round" stroke-linejoin="round"/>
<path d="M111.493 65.3912C111.493 65.3912 106.78 68.9532 105.895 69.6819C105.01 70.4105 103.859 69.9714 103.058 67.3528C102.258 64.7341 103.933 62.5547 106.188 62.5547C108.442 62.5547 110.986 63.999 110.986 63.999" fill="#263238"/>
<path d="M111.493 65.3912C111.493 65.3912 106.78 68.9532 105.895 69.6819C105.01 70.4105 103.859 69.9714 103.058 67.3528C102.258 64.7341 103.933 62.5547 106.188 62.5547C108.442 62.5547 110.986 63.999 110.986 63.999" stroke="#263238" stroke-linecap="round" stroke-linejoin="round"/>
<path d="M115.523 71.7048C115.523 71.7048 116.685 69.753 117.778 69.8864C118.871 70.0198 118.285 72.723 117.703 73.3768C117.121 74.0306 116.031 73.3052 116.031 73.3052" fill="white"/>
<path d="M115.523 71.7048C115.523 71.7048 116.685 69.753 117.778 69.8864C118.871 70.0198 118.285 72.723 117.703 73.3768C117.121 74.0306 116.031 73.3052 116.031 73.3052" stroke="#263238" stroke-linecap="round" stroke-linejoin="round"/>
<path d="M108.949 80.2245C108.901 80.0371 108.814 79.8619 108.694 79.7103C108.574 79.5588 108.423 79.4343 108.251 79.3449C108.08 79.2556 107.891 79.2035 107.698 79.1919C107.505 79.1804 107.311 79.2096 107.13 79.2779C105.676 79.717 105.179 82.9147 104.805 84.951C104.431 86.9873 102.114 98.5515 102.114 98.5515C102.114 98.5515 99.7138 98.9126 98.6956 99.2021C97.6775 99.4916 98.4777 99.638 99.9317 99.7843C101.386 99.9307 102.258 100.074 102.258 100.074C102.258 100.074 100.66 100.874 102.114 100.874C103.569 100.874 104.44 99.9275 104.587 99.5729C104.733 99.2183 108.659 84.5183 108.949 82.8463C109.238 81.1743 108.949 80.2245 108.949 80.2245Z" fill="white" stroke="#263238" stroke-linecap="round" stroke-linejoin="round"/>
<path d="M122.774 93.2751C122.774 93.2751 120.676 91.8731 118.513 93.3369C116.349 94.8007 118.002 98.8084 118.448 100.21C118.893 101.612 120.611 105.617 121.44 107.653C122.27 109.689 122.966 112.858 123.158 113.443C123.35 114.029 124.875 114.4 125.51 114.273C127.009 113.798 128.459 113.179 129.839 112.425C130.6 111.918 130.792 111.026 130.347 110.834C129.901 110.643 125.51 110.708 125.51 110.708C125.51 110.708 124.683 108.105 124.557 106.127C124.43 104.15 123.665 98.4278 123.603 96.5183C123.542 94.6088 123.044 93.6687 122.774 93.2751Z" fill="white" stroke="#263238" stroke-linecap="round" stroke-linejoin="round"/>
<path d="M125.067 111.293C125.062 111.516 125.017 111.736 124.937 111.944C124.233 112.066 123.521 112.137 122.807 112.155C122.973 112.806 123.093 113.281 123.158 113.456C123.347 114.029 124.876 114.413 125.51 114.286C127.009 113.811 128.459 113.192 129.839 112.438C130.601 111.931 130.793 111.039 130.347 110.847C129.901 110.656 125.51 110.721 125.51 110.721C125.51 110.721 125.067 110.978 125.067 111.293Z" fill="#263238" stroke="#263238" stroke-linecap="round" stroke-linejoin="round"/>
<path d="M119.404 113.268C119.404 113.268 118.88 113.268 117.715 105.285C117.205 101.791 117.589 96.0858 116.252 94.1764C114.915 92.2669 110.722 92.8427 110.722 96.9446C110.722 101.047 114.537 110.021 115.601 112.598C116.665 115.174 116.938 116.797 117.878 116.989C118.818 117.181 122.556 116.225 123.987 115.272C125.418 114.318 125.705 112.995 124.752 112.995C123.798 112.995 119.404 113.268 119.404 113.268Z" fill="white" stroke="#263238" stroke-linecap="round" stroke-linejoin="round"/>
<path d="M118.753 113.664C118.688 113.827 118.663 114.003 118.68 114.177C118.697 114.351 118.755 114.519 118.85 114.666C119.029 114.861 118.401 114.959 116.485 114.991C116.924 116.163 117.263 116.875 117.874 116.999C118.831 117.19 122.552 116.234 123.983 115.281C125.415 114.328 125.701 113.004 124.748 113.004C123.795 113.004 119.403 113.29 119.403 113.29C119.275 113.306 119.152 113.348 119.041 113.412C118.929 113.476 118.831 113.562 118.753 113.664Z" fill="#263238" stroke="#263238" stroke-linecap="round" stroke-linejoin="round"/>
<path d="M87.3602 51.9629C87.2985 50.4842 86.6831 49.0827 85.6361 48.0366C83.9121 46.4102 80.0834 46.0263 78.265 48.5148C76.4466 51.0033 76.4466 53.0169 77.1167 53.4951L77.7868 53.9732C77.7868 53.9732 76.9248 55.5997 77.8811 56.3674C78.8375 57.1351 79.6052 57.8995 79.7971 57.0375C79.989 56.1755 78.5512 54.3571 80.7535 52.9193C82.9557 51.4815 87.3602 51.9629 87.3602 51.9629Z" fill="#263238" stroke="#263238" stroke-linecap="round" stroke-linejoin="round"/>
<path d="M86.3049 49.9464C86.3049 49.9464 89.1772 47.5522 90.8037 49.5626C92.4302 51.5729 89.0829 54.1589 88.6047 54.4419C88.1265 54.725 86.2105 50.8052 86.2105 50.8052C86.2105 50.8052 85.7324 50.4246 86.3049 49.9464Z" fill="#263238" stroke="#263238" stroke-linecap="round" stroke-linejoin="round"/>
<path d="M88.9236 54.9259C88.9236 54.9259 90.0068 53.332 90.5793 54.669C91.1519 56.0059 89.9288 57.8568 89.3692 58.2472C88.8097 58.6375 88.9236 54.9259 88.9236 54.9259Z" fill="white" stroke="#263238" stroke-linecap="round" stroke-linejoin="round"/>
<path d="M79.1746 56.5171C79.1746 56.5171 78.1532 54.162 77.4538 55.1802C76.7544 56.1983 77.5188 58.8755 78.8558 58.8755C79.0292 58.6005 79.1576 58.2996 79.2364 57.9842" fill="white"/>
<path d="M79.1746 56.5171C79.1746 56.5171 78.1532 54.162 77.4538 55.1802C76.7544 56.1983 77.5188 58.8755 78.8558 58.8755C79.0292 58.6005 79.1576 58.2996 79.2364 57.9842" stroke="#263238" stroke-linecap="round" stroke-linejoin="round"/>
<path d="M94.6945 79.6123C93.5787 76.6651 95.2052 68.9459 92.6647 67.7261C90.1241 66.5062 86.5719 66.0996 86.5719 66.0996L83.6248 66.207L80.6776 66.0996C80.6776 66.0996 77.1222 66.5062 74.5816 67.7261C72.0411 68.9459 73.6676 76.6651 72.5518 79.6123C71.4361 82.5594 70.5187 86.4141 70.9253 88.8538C71.332 91.2935 72.7535 92.2044 73.8725 92.5101C74.6402 92.7183 80.219 92.6402 83.6313 92.5719C87.0338 92.6402 92.6126 92.7183 93.3901 92.5101C94.5058 92.2044 95.9274 91.2903 96.334 88.8538C96.7406 86.4174 95.8135 82.5399 94.6945 79.6123Z" fill="#92E3A9" stroke="#263238" stroke-linecap="round" stroke-linejoin="round"/>
<path d="M77.1094 80.628C77.1094 80.628 84.2105 77.1279 89.8511 79.6522" stroke="#263238" stroke-linecap="round" stroke-linejoin="round"/>
<path d="M81.6826 77.2253C81.6826 77.2253 85.0852 76.7374 87.4208 78.0028" stroke="#263238" stroke-linecap="round" stroke-linejoin="round"/>
<path d="M82.0564 64.2262C82.0564 64.2262 80.0819 64.8768 79.7631 65.7583C79.4443 66.6399 78.8068 69.0698 78.8718 70.153C78.9369 71.2362 79.5712 71.8088 79.89 71.3013C80.2088 70.7938 83.2665 69.4536 83.6504 69.2617C84.0342 69.0698 86.3893 69.7724 86.835 70.2799C87.2806 70.7873 88.5558 72.1926 88.7477 71.6819C88.9396 71.1712 88.7477 68.8779 88.0971 66.8415C87.4465 64.8052 86.887 64.4832 85.7388 64.1644C84.5905 63.8456 82.0564 64.2262 82.0564 64.2262Z" fill="white" stroke="#263238" stroke-linecap="round" stroke-linejoin="round"/>
<path d="M81.3418 64.0996C81.3418 64.0996 81.4687 67.2875 81.9924 68.9432C82.5161 70.599 83.9019 72.8305 84.5394 72.5214C85.177 72.2124 85.8796 69.2685 86.1952 68.0617C86.4432 66.8627 86.6138 65.649 86.7059 64.4282C86.7059 64.4282 82.168 64.7372 81.3418 64.0996Z" fill="white" stroke="#263238" stroke-linecap="round" stroke-linejoin="round"/>
<path d="M86.6929 64.4181C86.6929 64.4181 82.168 64.7434 81.3418 64.0928C81.3418 64.0928 81.3776 64.9613 81.4817 66.0283C82.9973 66.5172 84.6081 66.6354 86.1789 66.3731C86.2895 66.3503 86.3904 66.321 86.5042 66.295C86.6115 65.3224 86.6929 64.4181 86.6929 64.4181Z" fill="#263238" stroke="#263238" stroke-linecap="round" stroke-linejoin="round"/>
<path d="M79.0937 53.3586C79.0937 53.3586 78.0105 61.9235 79.0937 63.4004C80.177 64.8772 83.9146 65.6774 86.1786 65.17C88.4427 64.6625 89.5259 63.2182 89.6267 60.3459C89.7276 57.4735 88.9371 52.7665 87.9515 52.0802C86.9658 51.3938 84.5066 50.5025 82.3402 51.1921C80.1737 51.8818 79.3865 52.5714 79.0937 53.3586Z" fill="white" stroke="#263238" stroke-linecap="round" stroke-linejoin="round"/>
<path d="M82.344 50.6621C82.344 50.6621 81.6934 53.1278 80.1385 53.915C78.5836 54.7022 78.9707 52.6139 79.361 51.4493" fill="#263238"/>
<path d="M82.344 50.6621C82.344 50.6621 81.6934 53.1278 80.1385 53.915C78.5836 54.7022 78.9707 52.6139 79.361 51.4493" stroke="#263238" stroke-linecap="round" stroke-linejoin="round"/>
<path d="M81.4385 56.4262C81.4385 56.4262 82.5477 55.4503 83.3902 56.2961" stroke="#263238" stroke-linecap="round" stroke-linejoin="round"/>
<path d="M85.6904 56.2269C85.6904 56.2269 86.6045 54.9843 87.5869 56.2952" stroke="#263238" stroke-linecap="round" stroke-linejoin="round"/>
<path d="M85.0369 54.6074L85.4175 58.8135C85.4175 58.8135 84.2724 59.386 83.7617 58.3027" fill="white"/>
<path d="M85.0369 54.6074L85.4175 58.8135C85.4175 58.8135 84.2724 59.386 83.7617 58.3027" stroke="#263238" stroke-linecap="round" stroke-linejoin="round"/>
<path d="M81.2764 54.6074C81.9441 54.1567 82.7572 53.9744 83.5534 54.0967" stroke="#263238" stroke-linecap="round" stroke-linejoin="round"/>
<path d="M85.1641 54.1623C85.4836 53.9515 85.8554 53.8337 86.2381 53.8222C86.6207 53.8107 86.9989 53.906 87.3305 54.0972" stroke="#263238" stroke-linecap="round" stroke-linejoin="round"/>
<path d="M84.1447 58.748C84.1447 58.748 81.5065 59.249 81.6985 59.6947C81.8904 60.1403 82.7004 60.6705 83.4648 60.612C84.2292 60.5534 84.7822 59.6361 84.7822 59.6361C84.7822 59.6361 86.0151 61.4577 87.6513 59.8866C88.175 59.3856 85.4166 58.8099 85.4166 58.8099C85.4166 58.8099 84.5253 59.1937 84.1447 58.748Z" fill="#263238"/>
<path d="M94.5193 89.9998C94.5193 89.9998 94.3242 88.2855 88.1989 86.8737C82.0736 85.4619 77.5976 86.7696 75.5515 88.2855C73.5054 89.8013 72.2433 90.8065 71.4658 93.5292C70.6884 96.2519 70.4899 101.593 76.6217 103.005C82.7535 104.417 92.4732 104.205 95.2935 101.44C99.8444 96.9838 95.3944 90.9984 94.5193 89.9998Z" fill="#263238" stroke="#263238" stroke-linecap="round" stroke-linejoin="round"/>
<path d="M87.8444 88.962C87.8444 88.962 85.9512 88.7863 85.408 88.666C84.8647 88.5456 82.9911 89.5735 81.9631 90.1168C81.1815 90.5901 80.5839 91.315 80.2684 92.1726C80.2684 92.3548 80.0894 93.2591 80.392 93.3827C80.6945 93.5063 82.2038 93.1387 82.6267 93.1387C83.0496 93.1387 85.408 92.4133 86.013 92.4882C86.6181 92.563 88.8008 91.3236 88.8008 91.3236L87.8444 88.962Z" fill="white" stroke="#263238" stroke-linecap="round" stroke-linejoin="round"/>
<path d="M85.3497 91.5674C85.3497 91.5674 83.6549 91.7496 83.2321 92.1106C82.773 92.4508 82.2879 92.7542 81.7812 93.0182" stroke="#263238" stroke-linecap="round" stroke-linejoin="round"/>
<path d="M84.6239 90.6729C83.891 90.8818 83.1815 91.1652 82.5063 91.5186C81.8725 92.0051 81.2856 92.5496 80.7529 93.1451" stroke="#263238" stroke-linecap="round" stroke-linejoin="round"/>
<path d="M84.2589 89.876C84.2589 89.876 81.9005 90.7217 81.4777 91.0243C81.0487 91.3791 80.6444 91.7628 80.2676 92.1725" stroke="#263238" stroke-linecap="round" stroke-linejoin="round"/>
<path d="M92.5898 67.3203C92.5898 67.3203 95.537 67.8278 96.9585 69.3501C98.38 70.8725 100.107 78.5917 100.921 81.5389C101.734 84.486 102.14 88.91 101.734 89.8241C101.327 90.7381 99.5088 91.3237 97.9962 91.3237C96.4836 91.3237 88.5367 91.4961 88.5367 91.4961L87.4209 89.0564L95.3938 85.3448L93.39 73.7188" fill="#92E3A9"/>
<path d="M92.5898 67.3203C92.5898 67.3203 95.537 67.8278 96.9585 69.3501C98.38 70.8725 100.107 78.5917 100.921 81.5389C101.734 84.486 102.14 88.91 101.734 89.8241C101.327 90.7381 99.5088 91.3237 97.9962 91.3237C96.4836 91.3237 88.5367 91.4961 88.5367 91.4961L87.4209 89.0564L95.3938 85.3448L93.39 73.7188" stroke="#263238" stroke-linecap="round" stroke-linejoin="round"/>
<path d="M75.8016 67.3203C75.8016 67.3203 72.8545 67.8278 71.433 69.3501C70.0114 70.8725 68.2841 78.5917 67.4741 81.5389C66.6642 84.486 66.1957 88.2334 66.6024 89.1475C67.009 90.0615 69.1429 91.4831 70.6653 91.4831C72.1876 91.4831 79.6108 91.3107 79.6108 91.3107L80.5672 88.962L73.105 84.8829L74.9884 73.7188" fill="#92E3A9"/>
<path d="M75.8016 67.3203C75.8016 67.3203 72.8545 67.8278 71.433 69.3501C70.0114 70.8725 68.2841 78.5917 67.4741 81.5389C66.6642 84.486 66.1957 88.2334 66.6024 89.1475C67.009 90.0615 69.1429 91.4831 70.6653 91.4831C72.1876 91.4831 79.6108 91.3107 79.6108 91.3107L80.5672 88.962L73.105 84.8829L74.9884 73.7188" stroke="#263238" stroke-linecap="round" stroke-linejoin="round"/>
<path d="M80.5677 88.962C80.5677 88.962 82.4576 88.7863 83.0009 88.666C83.5441 88.5456 85.4211 89.5735 86.449 90.1168C87.2301 90.5899 87.8267 91.315 88.1405 92.1726C88.1405 92.3548 88.3227 93.2591 88.0201 93.3827C87.7176 93.5063 86.205 93.1387 85.7821 93.1387C85.3593 93.1387 83.0009 92.4133 82.3958 92.4882C81.7908 92.563 79.6113 91.3236 79.6113 91.3236L80.5677 88.962Z" fill="white" stroke="#263238" stroke-linecap="round" stroke-linejoin="round"/>
<path d="M83.0615 91.5674C83.0615 91.5674 84.753 91.7496 85.1759 92.1106C85.6355 92.45 86.1205 92.7534 86.6267 93.0182" stroke="#263238" stroke-linecap="round" stroke-linejoin="round"/>
<path d="M83.7881 90.6729C84.52 90.8815 85.2286 91.1649 85.9025 91.5186C86.537 92.0042 87.1241 92.5488 87.6558 93.1451" stroke="#263238" stroke-linecap="round" stroke-linejoin="round"/>
<path d="M84.1484 89.876C84.1484 89.876 86.5068 90.7217 86.9297 91.0243C87.3586 91.3791 87.7629 91.7628 88.1398 92.1725" stroke="#263238" stroke-linecap="round" stroke-linejoin="round"/>
<path d="M81.8745 95.022C81.8745 95.022 77.0114 90.5492 72.929 90.4516C68.8466 90.354 66.4231 93.2719 66.6053 97.7447C66.7875 102.217 71.3643 132.164 71.3643 132.164L76.0323 132.066L77.2066 98.0374" fill="#263238"/>
<path d="M81.8745 95.022C81.8745 95.022 77.0114 90.5492 72.929 90.4516C68.8466 90.354 66.4231 93.2719 66.6053 97.7447C66.7875 102.217 71.3643 132.164 71.3643 132.164L76.0323 132.066L77.2066 98.0374" stroke="#263238" stroke-linecap="round" stroke-linejoin="round"/>
<path d="M71.3647 132.164C71.3647 132.164 68.834 133.914 68.1541 135.957C67.4742 138 71.3647 137.417 73.0335 135.765C74.1417 134.62 75.1505 133.383 76.049 132.066L71.3647 132.164Z" fill="white" stroke="#263238" stroke-linecap="round" stroke-linejoin="round"/>
<path d="M85.8535 95.022C85.8535 95.022 90.7166 90.5492 94.8023 90.4516C98.888 90.354 101.308 93.2719 101.123 97.7447C100.937 102.217 94.5974 132.164 94.5974 132.164L89.9294 132.066L90.515 98.0374" fill="#263238"/>
<path d="M85.8535 95.022C85.8535 95.022 90.7166 90.5492 94.8023 90.4516C98.888 90.354 101.308 93.2719 101.123 97.7447C100.937 102.217 94.5974 132.164 94.5974 132.164L89.9294 132.066L90.515 98.0374" stroke="#263238" stroke-linecap="round" stroke-linejoin="round"/>
<path d="M94.5967 132.164C94.5967 132.164 97.1274 133.914 97.8073 135.957C98.4872 138 94.5967 137.417 92.9442 135.765C91.8359 134.62 90.8272 133.383 89.9287 132.066L94.5967 132.164Z" fill="white" stroke="#263238" stroke-linecap="round" stroke-linejoin="round"/>
<path d="M58.3807 56.6693C58.3807 56.6693 60.9472 55.8137 61.3408 54.3011C61.7344 52.7885 60.2901 47.7172 55.9442 45.9378C51.5983 44.1585 44.4874 45.4109 42.051 48.1791C39.6145 50.9474 42.1843 53.5107 42.2494 54.1027C42.3145 54.6947 40.3399 55.0786 40.0114 57.5931C39.6828 60.1076 42.9097 62.6611 46.3969 63.4484C49.884 64.2356 51.6016 63.2499 51.6016 61.9325C51.6016 60.6151 50.8111 59.431 52.327 58.4453C53.8428 57.4597 55.5506 55.6153 56.276 55.6804C57.0014 55.7454 58.3807 56.6693 58.3807 56.6693Z" fill="#263238"/>
<path d="M52.8418 48.5146C51.101 51.3169 48.4646 53.449 45.3601 54.5651C40.2628 56.3184 38.5127 55.0433 38.5127 55.0433" stroke="#636363" stroke-linecap="round" stroke-linejoin="round"/>
<path d="M50.4509 47.4082C50.4509 47.4082 45.6756 53.7774 39.7812 53.618" stroke="#636363" stroke-linecap="round" stroke-linejoin="round"/>
<path d="M54.7508 48.5146C54.7508 48.5146 46.6185 60.7782 36.915 60.7782" stroke="#636363" stroke-linecap="round" stroke-linejoin="round"/>
<path d="M51.4072 46.4326C51.4072 46.4326 59.494 50.6777 61.3417 54.2884" stroke="#636363" stroke-linecap="round" stroke-linejoin="round"/>
<path d="M58.3807 56.6693C58.3807 56.6693 60.9472 55.8137 61.3408 54.3011C61.7344 52.7885 60.2901 47.7172 55.9442 45.9378C51.5983 44.1585 44.4874 45.4109 42.051 48.1791C39.6145 50.9474 42.1843 53.5107 42.2494 54.1027C42.3145 54.6947 40.3399 55.0786 40.0114 57.5931C39.6828 60.1076 42.9097 62.6611 46.3969 63.4484C49.884 64.2356 51.6016 63.2499 51.6016 61.9325C51.6016 60.6151 50.8111 59.431 52.327 58.4453C53.8428 57.4597 55.5506 55.6153 56.276 55.6804C57.0014 55.7454 58.3807 56.6693 58.3807 56.6693Z" stroke="#263238" stroke-linecap="round" stroke-linejoin="round"/>
<path d="M56.8657 69.3756C56.8657 69.3756 60.6847 70.4295 62.4608 72.931C64.2369 75.4325 65.7527 81.4244 66.3643 83.991C66.9758 86.5575 66.1789 89.3746 64.4125 90.2951C62.6462 91.2157 59.7218 87.6928 58.9996 86.3624C58.2775 85.0319 58.2742 80.2404 57.6985 77.0134C57.1227 73.7865 55.9224 69.7724 55.9224 69.7724C55.9224 69.7724 55.3531 69.1121 56.8657 69.3756Z" fill="white" stroke="#263238" stroke-linecap="round" stroke-linejoin="round"/>
<path d="M49.2273 61.0703C49.2273 61.0703 49.6241 65.0226 49.2273 65.8781C48.8304 66.7337 47.3861 67.7193 44.9497 68.5098C42.5132 69.3002 40.8673 69.9606 39.5498 72.1986C38.2324 74.4366 36.7913 85.7991 35.1388 88.7885C33.4538 91.8398 33.0602 98.0789 37.0548 101.176C40.3077 103.71 51.732 103.404 55.8112 102.802C59.8904 102.2 63.5206 102.779 64.6397 99.9493C65.7587 97.1193 63.4491 92.3342 62.3301 90.8867C61.2111 89.4391 58.96 88.0078 58.96 88.0078C58.96 88.0078 60.3653 85.5681 60.4727 83.5318C60.6711 79.843 56.8521 69.375 56.8521 69.375C56.8521 69.375 54.5491 68.3992 54.0221 67.137C53.4951 65.8749 53.6968 64.1085 53.6968 64.1085L49.2273 61.0703Z" fill="#92E3A9" stroke="#263238" stroke-linecap="round" stroke-linejoin="round"/>
<path d="M43.04 91.8438C43.04 91.8438 49.7541 92.1365 53.4039 95.0544" stroke="#263238" stroke-linecap="round" stroke-linejoin="round"/>
<path d="M47.3857 85.77C47.3857 85.77 51.3348 86.362 55.0204 84.9795" stroke="#263238" stroke-linecap="round" stroke-linejoin="round"/>
<path d="M51.9268 86.3624C51.9268 86.3624 54.5616 85.9688 56.0742 85.0449" stroke="#263238" stroke-linecap="round" stroke-linejoin="round"/>
<path d="M41.3288 80.9134C42.7764 80.0578 44.5524 76.1088 44.8842 72.9469C45.1445 70.4357 44.5329 69.1735 44.2727 68.7637C42.2038 69.4663 40.74 70.2015 39.5494 72.2248C38.7362 73.6073 37.6725 78.3858 36.7129 82.5984C38.0108 82.6049 40.0179 81.6713 41.3288 80.9134Z" fill="white" stroke="#263238" stroke-linecap="round" stroke-linejoin="round"/>
<path d="M54.0354 67.137C53.5084 65.8879 53.7101 64.1085 53.7101 64.1085L49.2275 61.0703C49.2275 61.0703 49.6244 65.0226 49.2275 65.8781C48.9218 66.5287 47.9817 67.2834 46.4365 67.9535C46.7098 69.1603 47.51 72.2539 48.7689 73.5128C50.3465 75.0937 53.375 75.4222 54.429 73.3176C55.4829 71.2129 54.9559 68.3146 54.9559 68.3146L54.982 68.2463C54.5827 67.9571 54.2582 67.5768 54.0354 67.137Z" fill="white" stroke="#263238" stroke-linecap="round" stroke-linejoin="round"/>
<path d="M53.7065 64.1088L49.8193 61.4805L49.2891 61.77C49.3281 62.2677 49.3769 62.9671 49.3964 63.6632C50.2584 64.6391 51.5076 65.8459 52.6656 66.0671C53.0266 66.1364 53.395 66.1593 53.7618 66.1354C53.6629 65.4645 53.6443 64.7842 53.7065 64.1088Z" fill="#263238"/>
<path d="M55.4176 52.1934C55.4176 52.1934 53.9701 54.6298 51.6637 55.8789C50.4177 56.583 49.0919 57.1356 47.7147 57.5249C47.7147 57.5249 47.7797 58.3154 47.4512 58.3154C47.1226 58.3154 46.3972 57.1313 45.9386 57.0662C45.4799 57.0012 44.0291 58.9074 44.5528 59.6979C45.0426 60.4076 45.7304 60.9574 46.5306 61.2788C47.1812 61.5423 47.9131 60.6868 47.9131 60.6868C47.9131 60.6868 52.9812 66.8673 55.8795 65.2962C58.7779 63.725 58.5762 55.6187 58.5762 55.6187C58.5762 55.6187 57.9191 53.8393 55.4176 52.1934Z" fill="white" stroke="#263238" stroke-linecap="round" stroke-linejoin="round"/>
<path d="M53.4756 57.3292C53.4756 57.7456 53.2837 58.0839 53.0463 58.0839C52.8088 58.0839 52.6201 57.7586 52.6201 57.3292C52.6201 56.8998 52.812 56.5713 53.0463 56.5713C53.2805 56.5713 53.4756 56.9096 53.4756 57.3292Z" fill="#263238"/>
<path d="M57.5577 56.9324C57.5577 57.352 57.3657 57.6903 57.1283 57.6903C56.8908 57.6903 56.7021 57.3651 56.7021 56.9324C56.7021 56.4998 56.8908 56.1777 57.1283 56.1777C57.3657 56.1777 57.5577 56.516 57.5577 56.9324Z" fill="#263238"/>
<path d="M56.0094 56.2109L55.6158 57.4601C55.6158 57.4601 56.6665 57.7854 56.6665 58.3839C56.6665 58.9824 55.6906 59.2394 55.4824 59.2394" stroke="#263238" stroke-linecap="round" stroke-linejoin="round"/>
<path d="M54.6914 61.1484C54.9042 61.2618 55.1416 61.3211 55.3827 61.3211C55.6237 61.3211 55.8611 61.2618 56.0739 61.1484" stroke="#263238" stroke-linecap="round" stroke-linejoin="round"/>
<path d="M52.1904 55.7488C52.1904 55.7488 52.7825 54.6948 53.9015 54.9583" stroke="#263238" stroke-linecap="round" stroke-linejoin="round"/>
<path d="M56.6016 55.1564C56.7046 55.1017 56.8176 55.0684 56.9339 55.0587C57.0501 55.0489 57.1672 55.0629 57.2779 55.0997C57.3886 55.1365 57.4907 55.1954 57.5779 55.2728C57.6652 55.3502 57.7359 55.4445 57.7856 55.55" stroke="#263238" stroke-linecap="round" stroke-linejoin="round"/>
<path d="M54.4932 91.0654C54.4932 91.0654 56.7344 91.433 56.8678 91.716C57.0012 91.999 57.7461 93.6092 57.5444 94.0809C57.3427 94.5526 56.9361 93.8792 56.8027 93.4043C56.6694 92.9294 55.1763 91.8526 55.1763 91.8526" fill="white"/>
<path d="M54.4932 91.0654C54.4932 91.0654 56.7344 91.433 56.8678 91.716C57.0012 91.999 57.7461 93.6092 57.5444 94.0809C57.3427 94.5526 56.9361 93.8792 56.8027 93.4043C56.6694 92.9294 55.1763 91.8526 55.1763 91.8526" stroke="#263238" stroke-linecap="round" stroke-linejoin="round"/>
<path d="M54.1006 91.1045C54.1006 91.1045 56.0003 91.6933 56.1857 91.934C56.5793 92.4447 57.3535 93.7133 57.1616 94.185C56.9697 94.6567 56.7062 94.3737 55.7238 92.8383C55.4596 92.5006 55.1473 92.2036 54.7967 91.9568" fill="white"/>
<path d="M54.1006 91.1045C54.1006 91.1045 56.0003 91.6933 56.1857 91.934C56.5793 92.4447 57.3535 93.7133 57.1616 94.185C56.9697 94.6567 56.7062 94.3737 55.7238 92.8383C55.4596 92.5006 55.1473 92.2036 54.7967 91.9568" stroke="#263238" stroke-linecap="round" stroke-linejoin="round"/>
<path d="M43.9313 68.7471C43.9313 68.7471 39.4943 69.5961 36.9928 71.486C34.4913 73.376 32.9364 83.4373 32.673 85.8705C32.4095 88.3037 32.133 90.597 33.3463 91.0752C34.5597 91.5533 43.6126 91.9535 45.4342 91.9535C47.2558 91.9535 52.3239 92.6236 52.7273 92.6236C53.1306 92.6236 55.4955 94.1102 55.9021 94.5168C56.3087 94.9234 56.3673 94.1654 56.1721 93.4335C55.9086 92.4577 54.5456 90.9353 52.8639 90.3953C51.1821 89.8553 48.3391 90.1253 46.5142 89.1137C44.6893 88.102 40.3043 85.7924 39.6277 85.6655C39.3388 85.5985 39.0452 85.554 38.7494 85.5322C38.7494 85.5322 42.2626 77.6991 42.5976 76.5508" fill="white"/>
<path d="M43.9313 68.7471C43.9313 68.7471 39.4943 69.5961 36.9928 71.486C34.4913 73.376 32.9364 83.4373 32.673 85.8705C32.4095 88.3037 32.133 90.597 33.3463 91.0752C34.5597 91.5533 43.6126 91.9535 45.4342 91.9535C47.2558 91.9535 52.3239 92.6236 52.7273 92.6236C53.1306 92.6236 55.4955 94.1102 55.9021 94.5168C56.3087 94.9234 56.3673 94.1654 56.1721 93.4335C55.9086 92.4577 54.5456 90.9353 52.8639 90.3953C51.1821 89.8553 48.3391 90.1253 46.5142 89.1137C44.6893 88.102 40.3043 85.7924 39.6277 85.6655C39.3388 85.5985 39.0452 85.554 38.7494 85.5322C38.7494 85.5322 42.2626 77.6991 42.5976 76.5508" stroke="#263238" stroke-linecap="round" stroke-linejoin="round"/>
<path d="M54.2822 92.3506C54.2822 92.3506 55.9087 93.4989 55.9087 94.5138" stroke="#263238" stroke-linecap="round" stroke-linejoin="round"/>
<path d="M64.1646 85.7928C62.7147 85.4307 61.1809 85.6428 59.8837 86.3849C57.7791 87.6372 56.5918 88.8213 55.3296 89.1499C54.0675 89.4784 51.9726 89.2832 50.3917 89.9403C49.2937 90.3737 48.1731 90.7472 47.0347 91.0593C46.2442 91.3228 46.3093 91.9148 46.9013 91.9148C47.4933 91.9148 48.2838 91.8498 48.2838 91.8498C48.2838 91.8498 47.2331 93.4958 47.2331 94.0227C47.2331 94.5497 48.8108 94.6148 49.4028 94.4814C49.9948 94.348 50.9837 93.0989 51.3123 92.9688C51.6408 92.8387 52.8932 93.0339 53.8138 92.3768C54.7343 91.7197 55.1312 91.4009 55.1312 91.4009C55.1312 91.4009 58.8851 92.5849 61.6371 91.9279C64.389 91.2708 65.3552 90.6462 66.1456 87.8162" fill="white"/>
<path d="M64.1646 85.7928C62.7147 85.4307 61.1809 85.6428 59.8837 86.3849C57.7791 87.6372 56.5918 88.8213 55.3296 89.1499C54.0675 89.4784 51.9726 89.2832 50.3917 89.9403C49.2937 90.3737 48.1731 90.7472 47.0347 91.0593C46.2442 91.3228 46.3093 91.9148 46.9013 91.9148C47.4933 91.9148 48.2838 91.8498 48.2838 91.8498C48.2838 91.8498 47.2331 93.4958 47.2331 94.0227C47.2331 94.5497 48.8108 94.6148 49.4028 94.4814C49.9948 94.348 50.9837 93.0989 51.3123 92.9688C51.6408 92.8387 52.8932 93.0339 53.8138 92.3768C54.7343 91.7197 55.1312 91.4009 55.1312 91.4009C55.1312 91.4009 58.8851 92.5849 61.6371 91.9279C64.389 91.2708 65.3552 90.6462 66.1456 87.8162" stroke="#263238" stroke-linecap="round" stroke-linejoin="round"/>
<path d="M48.2969 91.8534C48.6713 91.4103 49.1165 91.0322 49.6143 90.7344" stroke="#263238" stroke-linecap="round" stroke-linejoin="round"/>
<path d="M47.7041 94.2211C47.7041 94.2211 48.8914 91.9831 50.4691 91.0625" stroke="#263238" stroke-linecap="round" stroke-linejoin="round"/>
<path d="M48.6221 94.3905C48.6221 94.3905 49.1003 92.5721 51.2602 91.4629" stroke="#263238" stroke-linecap="round" stroke-linejoin="round"/>
<path d="M49.416 94.4849C49.5647 93.8965 49.8626 93.3563 50.2808 92.9164C50.699 92.4765 51.2235 92.1519 51.8037 91.9736" stroke="#263238" stroke-linecap="round" stroke-linejoin="round"/>
<path d="M62.6229 96.3645C62.6229 96.3645 59.6952 95.0048 56.8717 97.6169C54.0482 100.229 54.0742 101.52 50.3138 106.865C46.5534 112.21 41.1145 122.02 39.9662 122.752C38.8179 123.484 35.1584 124.945 34.4362 127.14C33.7141 129.336 34.7615 129.964 36.3164 129.336C37.8713 128.708 40.4965 124.213 40.9161 123.901C41.3357 123.588 50.2195 116.481 54.9232 113.761C59.6269 111.042 62.0048 108.488 63.885 103.784C65.7652 99.0807 64.2949 96.6768 62.6229 96.3645Z" fill="white" stroke="#263238" stroke-linecap="round" stroke-linejoin="round"/>
<path d="M40.8338 123.973C40.3548 123.741 39.9528 123.376 39.6758 122.922C38.303 123.696 35.1217 125.105 34.4255 127.151C33.6936 129.346 34.7508 129.974 36.3057 129.346C37.8151 128.732 40.2483 124.62 40.8338 123.973Z" fill="#263238" stroke="#263238" stroke-linecap="round" stroke-linejoin="round"/>
<path d="M41.492 126.328C41.492 126.328 46.7617 117.753 50.1057 112.421C53.4497 107.09 55.0209 103.853 55.0209 101.238C55.0209 101.238 55.1575 97.3896 52.0932 97.3701C50.2098 97.3701 46.6576 98.5217 44.0455 103.551C41.4334 108.58 39.55 124.978 39.2377 125.918C38.9254 126.858 38.9124 132.713 39.7581 134.073C40.6039 135.433 42.058 134.489 42.1621 131.562C42.2271 129.792 42.0007 128.024 41.492 126.328Z" fill="white" stroke="#263238" stroke-linecap="round" stroke-linejoin="round"/>
<path d="M39.1621 126.256C38.9279 127.83 38.9962 132.817 39.7574 134.063C40.5966 135.419 42.0572 134.479 42.1613 131.552C42.2249 129.786 41.9985 128.023 41.4912 126.331C41.4912 126.331 40.2974 127.772 39.1621 126.256Z" fill="#263238" stroke="#263238" stroke-linecap="round" stroke-linejoin="round"/>
</svg>
