<svg width="168" height="125" viewBox="0 0 168 125" fill="none" xmlns="http://www.w3.org/2000/svg">
<path d="M167.5 109.633H0.5V109.716H167.5V109.633Z" fill="#EBEBEB"/>
<path d="M150.765 115.008H139.703V115.091H150.765V115.008Z" fill="#EBEBEB"/>
<path d="M111.129 115.918H108.227V116.001H111.129V115.918Z" fill="#EBEBEB"/>
<path d="M139.366 111.91H132.957V111.994H139.366V111.91Z" fill="#EBEBEB"/>
<path d="M32.4489 112.471H18.0234V112.554H32.4489V112.471Z" fill="#EBEBEB"/>
<path d="M37.54 112.471H35.4258V112.554H37.54V112.471Z" fill="#EBEBEB"/>
<path d="M75.6993 113.879H44.4102V113.962H75.6993V113.879Z" fill="#EBEBEB"/>
<path d="M79.6576 94.7384H15.1655C14.6603 94.7375 14.1761 94.5362 13.8191 94.1786C13.4622 93.8211 13.2617 93.3365 13.2617 92.8313V2.17364C13.2661 1.67132 13.4685 1.19101 13.825 0.837048C14.1815 0.483088 14.6632 0.284064 15.1655 0.283203H79.6576C80.1634 0.283203 80.6485 0.484133 81.0061 0.841792C81.3638 1.19945 81.5647 1.68454 81.5647 2.19034V92.8313C81.5647 93.3371 81.3638 93.8222 81.0061 94.1798C80.6485 94.5375 80.1634 94.7384 79.6576 94.7384ZM15.1655 0.350003C14.6824 0.350888 14.2194 0.543411 13.8782 0.885314C13.5369 1.22722 13.3452 1.69056 13.3452 2.17364V92.8313C13.3452 93.3143 13.5369 93.7777 13.8782 94.1196C14.2194 94.4615 14.6824 94.654 15.1655 94.6549H79.6576C80.141 94.654 80.6043 94.4616 80.9461 94.1198C81.2879 93.778 81.4803 93.3147 81.4812 92.8313V2.17364C81.4803 1.69025 81.2879 1.22692 80.9461 0.88511C80.6043 0.543302 80.141 0.350886 79.6576 0.350003H15.1655Z" fill="#EBEBEB"/>
<path d="M151.906 94.7384H87.411C86.9055 94.7375 86.4209 94.5363 86.0635 94.1788C85.706 93.8214 85.5048 93.3368 85.5039 92.8313V2.17364C85.5092 1.67101 85.7123 1.19071 86.0693 0.836839C86.4263 0.482971 86.9084 0.284054 87.411 0.283203H151.906C152.408 0.284941 152.889 0.484354 153.245 0.83822C153.601 1.19209 153.803 1.67189 153.807 2.17364V92.8313C153.807 93.3359 153.607 93.82 153.251 94.1775C152.894 94.5349 152.411 94.7366 151.906 94.7384ZM87.411 0.350003C86.9277 0.350886 86.4643 0.543302 86.1225 0.88511C85.7807 1.22692 85.5883 1.69025 85.5874 2.17364V92.8313C85.5883 93.3147 85.7807 93.778 86.1225 94.1198C86.4643 94.4616 86.9277 94.654 87.411 94.6549H151.906C152.39 94.654 152.853 94.4616 153.195 94.1198C153.537 93.778 153.729 93.3147 153.73 92.8313V2.17364C153.729 1.69025 153.537 1.22692 153.195 0.88511C152.853 0.543302 152.39 0.350886 151.906 0.350003H87.411Z" fill="#EBEBEB"/>
<path d="M59.1515 36.8066H33.4102V89.2346H59.1515V36.8066Z" fill="#EBEBEB"/>
<path d="M58.1797 88.1448V37.8945H34.3788V88.1448H58.1797Z" fill="#E0E0E0"/>
<path d="M46.5556 37.6152H46.0078V88.6905H46.5556V37.6152Z" fill="#EBEBEB"/>
<path d="M59.7468 36.0508H32.8164V38.7796H59.7468V36.0508Z" fill="#EBEBEB"/>
<path d="M59.7468 39.084H32.8164V39.408H59.7468V39.084Z" fill="#EBEBEB"/>
<path d="M59.7468 39.8164H32.8164V40.1404H59.7468V39.8164Z" fill="#EBEBEB"/>
<path d="M59.7468 40.5508H32.8164V40.8748H59.7468V40.5508Z" fill="#EBEBEB"/>
<path d="M59.7468 41.2832H32.8164V41.6072H59.7468V41.2832Z" fill="#EBEBEB"/>
<path d="M59.7468 42.0195H32.8164V42.3435H59.7468V42.0195Z" fill="#EBEBEB"/>
<path d="M59.7468 42.7539H32.8164V43.0779H59.7468V42.7539Z" fill="#EBEBEB"/>
<path d="M59.7468 43.4844H32.8164V43.8084H59.7468V43.4844Z" fill="#EBEBEB"/>
<path d="M59.7468 44.2227H32.8164V44.5466H59.7468V44.2227Z" fill="#EBEBEB"/>
<path d="M59.7468 44.9551H32.8164V45.2791H59.7468V44.9551Z" fill="#EBEBEB"/>
<path d="M59.7468 45.6895H32.8164V46.0134H59.7468V45.6895Z" fill="#EBEBEB"/>
<path d="M59.7468 46.4238H32.8164V46.7478H59.7468V46.4238Z" fill="#EBEBEB"/>
<path d="M59.7468 47.1602H32.8164V47.4841H59.7468V47.1602Z" fill="#EBEBEB"/>
<path d="M59.7468 47.8906H32.8164V48.2146H59.7468V47.8906Z" fill="#EBEBEB"/>
<path d="M59.7468 48.627H32.8164V48.9509H59.7468V48.627Z" fill="#EBEBEB"/>
<path d="M59.7468 49.3594H32.8164V49.6834H59.7468V49.3594Z" fill="#EBEBEB"/>
<path d="M59.7468 50.0957H32.8164V50.4197H59.7468V50.0957Z" fill="#EBEBEB"/>
<path d="M59.7468 50.8301H32.8164V51.1541H59.7468V50.8301Z" fill="#EBEBEB"/>
<path d="M59.7468 51.5625H32.8164V51.8865H59.7468V51.5625Z" fill="#EBEBEB"/>
<path d="M89.6281 36.8066H63.8867V89.2346H89.6281V36.8066Z" fill="#EBEBEB"/>
<path d="M88.6562 88.1448V37.8945H64.8554V88.1448H88.6562Z" fill="#E0E0E0"/>
<path d="M77.0321 37.6152H76.4844V88.6905H77.0321V37.6152Z" fill="#EBEBEB"/>
<path d="M90.2195 36.0508H63.2891V38.7796H90.2195V36.0508Z" fill="#EBEBEB"/>
<path d="M90.2195 39.084H63.2891V39.408H90.2195V39.084Z" fill="#EBEBEB"/>
<path d="M90.2195 39.8164H63.2891V40.1404H90.2195V39.8164Z" fill="#EBEBEB"/>
<path d="M90.2195 40.5508H63.2891V40.8748H90.2195V40.5508Z" fill="#EBEBEB"/>
<path d="M90.2195 41.2832H63.2891V41.6072H90.2195V41.2832Z" fill="#EBEBEB"/>
<path d="M90.2195 42.0195H63.2891V42.3435H90.2195V42.0195Z" fill="#EBEBEB"/>
<path d="M90.2195 42.7539H63.2891V43.0779H90.2195V42.7539Z" fill="#EBEBEB"/>
<path d="M90.2195 43.4844H63.2891V43.8084H90.2195V43.4844Z" fill="#EBEBEB"/>
<path d="M90.2195 44.2227H63.2891V44.5466H90.2195V44.2227Z" fill="#EBEBEB"/>
<path d="M90.2195 44.9551H63.2891V45.2791H90.2195V44.9551Z" fill="#EBEBEB"/>
<path d="M90.2195 45.6895H63.2891V46.0134H90.2195V45.6895Z" fill="#EBEBEB"/>
<path d="M90.2195 46.4238H63.2891V46.7478H90.2195V46.4238Z" fill="#EBEBEB"/>
<path d="M90.2195 47.1602H63.2891V47.4841H90.2195V47.1602Z" fill="#EBEBEB"/>
<path d="M90.2195 47.8906H63.2891V48.2146H90.2195V47.8906Z" fill="#EBEBEB"/>
<path d="M90.2195 48.627H63.2891V48.9509H90.2195V48.627Z" fill="#EBEBEB"/>
<path d="M90.2195 49.3594H63.2891V49.6834H90.2195V49.3594Z" fill="#EBEBEB"/>
<path d="M90.2195 50.0957H63.2891V50.4197H90.2195V50.0957Z" fill="#EBEBEB"/>
<path d="M90.2195 50.8301H63.2891V51.1541H90.2195V50.8301Z" fill="#EBEBEB"/>
<path d="M90.2195 51.5625H63.2891V51.8865H90.2195V51.5625Z" fill="#EBEBEB"/>
<path d="M67.7739 97.6211H90.9335C91.3055 97.6211 91.6623 97.7689 91.9254 98.032C92.1885 98.295 92.3363 98.6519 92.3363 99.0239V101.662H66.3711V99.0239C66.3711 98.8397 66.4074 98.6573 66.4779 98.4871C66.5484 98.3169 66.6517 98.1622 66.782 98.032C66.9122 97.9017 67.0669 97.7984 67.2371 97.7279C67.4073 97.6574 67.5897 97.6211 67.7739 97.6211Z" fill="#E0E0E0"/>
<path opacity="0.6" d="M67.7739 97.6211H74.4539C74.8259 97.6211 75.1827 97.7689 75.4458 98.032C75.7089 98.295 75.8567 98.6519 75.8567 99.0239V101.662H66.3711V99.0239C66.3711 98.8397 66.4074 98.6573 66.4779 98.4871C66.5484 98.3169 66.6517 98.1622 66.782 98.032C66.9122 97.9017 67.0669 97.7984 67.2371 97.7279C67.4073 97.6574 67.5897 97.6211 67.7739 97.6211Z" fill="#F0F0F0"/>
<path d="M84.1938 120.439H83.4156L82.8945 101.441H84.1938V120.439Z" fill="#E0E0E0"/>
<path d="M67.1058 120.439H66.3242V101.441H67.6235L67.1058 120.439Z" fill="#E0E0E0"/>
<path d="M75.0087 120.439H74.2305V101.441H75.5297L75.0087 120.439Z" fill="#E0E0E0"/>
<path d="M92.0961 120.439H91.3146L90.7969 101.441H92.0961V120.439Z" fill="#E0E0E0"/>
<path d="M92.9681 101.441H66.0611C65.8655 101.441 65.707 101.6 65.707 101.795V103.151C65.707 103.347 65.8655 103.506 66.0611 103.506H92.9681C93.1636 103.506 93.3222 103.347 93.3222 103.151V101.795C93.3222 101.6 93.1636 101.441 92.9681 101.441Z" fill="#EBEBEB"/>
<path d="M39.0434 97.6211H62.203C62.575 97.6211 62.9318 97.7689 63.1949 98.032C63.458 98.295 63.6058 98.6519 63.6058 99.0239V101.662H37.6406V99.0239C37.6406 98.6519 37.7884 98.295 38.0515 98.032C38.3146 97.7689 38.6714 97.6211 39.0434 97.6211Z" fill="#E0E0E0"/>
<path opacity="0.6" d="M39.0434 97.6211H45.7234C46.0955 97.6211 46.4523 97.7689 46.7154 98.032C46.9784 98.295 47.1262 98.6519 47.1262 99.0239V101.662H37.6406V99.0239C37.6406 98.6519 37.7884 98.295 38.0515 98.032C38.3146 97.7689 38.6714 97.6211 39.0434 97.6211Z" fill="#F0F0F0"/>
<path d="M55.4555 120.439H54.6773L54.1562 101.441H55.4555V120.439Z" fill="#E0E0E0"/>
<path d="M38.372 120.439H37.5938V101.441H38.8897L38.372 120.439Z" fill="#E0E0E0"/>
<path d="M46.2704 120.439H45.4922V101.441H46.7914L46.2704 120.439Z" fill="#E0E0E0"/>
<path d="M63.3618 120.439H62.5835L62.0625 101.441H63.3618V120.439Z" fill="#E0E0E0"/>
<path d="M64.2337 101.441H37.3267C37.1312 101.441 36.9727 101.6 36.9727 101.795V103.151C36.9727 103.347 37.1312 103.506 37.3267 103.506H64.2337C64.4293 103.506 64.5878 103.347 64.5878 103.151V101.795C64.5878 101.6 64.4293 101.441 64.2337 101.441Z" fill="#EBEBEB"/>
<path d="M83.9975 124.716C119.763 124.716 148.757 123.023 148.757 120.935C148.757 118.847 119.763 117.154 83.9975 117.154C48.232 117.154 19.2383 118.847 19.2383 120.935C19.2383 123.023 48.232 124.716 83.9975 124.716Z" fill="#F5F5F5"/>
<path d="M125.71 22.0804C126.466 18.8811 124.484 15.6755 121.285 14.9204C118.086 14.1654 114.88 16.1467 114.125 19.3459C113.37 22.5452 115.351 25.7508 118.551 26.5059C121.75 27.261 124.955 25.2796 125.71 22.0804Z" fill="#667499"/>
<path opacity="0.4" d="M125.024 21.1683C125.471 18.4017 123.591 15.7964 120.824 15.3492C118.057 14.9021 115.452 16.7824 115.005 19.5491C114.558 22.3158 116.438 24.9211 119.205 25.3682C121.971 25.8153 124.577 23.935 125.024 21.1683Z" fill="white"/>
<path d="M119.682 21.1116C119.624 21.1114 119.568 21.0964 119.518 21.0681L117.18 19.7321C117.142 19.7102 117.108 19.681 117.081 19.6461C117.055 19.6113 117.035 19.5714 117.023 19.5289C117.012 19.4865 117.009 19.4421 117.014 19.3985C117.02 19.3548 117.034 19.3127 117.056 19.2746C117.078 19.2364 117.107 19.2029 117.142 19.1761C117.177 19.1492 117.217 19.1295 117.259 19.118C117.302 19.1065 117.346 19.1035 117.39 19.1092C117.434 19.1149 117.476 19.1291 117.514 19.151L119.361 20.1964V17.2305C119.361 17.1419 119.396 17.0569 119.459 16.9943C119.521 16.9317 119.606 16.8965 119.695 16.8965C119.783 16.8965 119.868 16.9317 119.931 16.9943C119.994 17.0569 120.029 17.1419 120.029 17.2305V20.7675C120.029 20.8264 120.014 20.8843 119.984 20.9353C119.955 20.9863 119.913 21.0287 119.862 21.0581C119.808 21.0928 119.746 21.1114 119.682 21.1116Z" fill="#667499"/>
<path opacity="0.4" d="M125.71 22.0804C126.466 18.8811 124.484 15.6755 121.285 14.9204C118.086 14.1654 114.88 16.1467 114.125 19.3459C113.37 22.5452 115.351 25.7508 118.551 26.5059C121.75 27.261 124.955 25.2796 125.71 22.0804Z" fill="white"/>
<path d="M32.5268 110.967C32.5268 110.967 33.0412 107.203 35.4493 106.789C37.8575 106.375 37.1193 104.558 37.7573 103.853C38.3952 103.148 40.0218 105.226 38.619 107.24C37.2162 109.254 38.3618 108.623 37.7573 110.496C37.1527 112.37 32.3064 114.09 32.5268 110.967Z" fill="#263238"/>
<path opacity="0.2" d="M32.5268 110.967C32.5268 110.967 33.0412 107.203 35.4493 106.789C37.8575 106.375 37.1193 104.558 37.7573 103.853C38.3952 103.148 40.0218 105.226 38.619 107.24C37.2162 109.254 38.3618 108.623 37.7573 110.496C37.1527 112.37 32.3064 114.09 32.5268 110.967Z" fill="white"/>
<path d="M33.3266 113.54H33.2665C33.2258 113.523 33.1934 113.491 33.176 113.451C33.1585 113.41 33.1574 113.364 33.173 113.323C33.173 113.283 34.6693 109.315 33.2331 103.303C32.7865 101.573 32.1608 99.8938 31.366 98.2932C29.9733 95.2872 28.7742 92.6687 30.5544 87.8023C31.1022 86.2959 31.6733 84.8931 32.2244 83.5338C34.2652 78.5238 35.875 74.5625 34.175 70.8986C34.1576 70.8576 34.1566 70.8117 34.1722 70.77C34.1877 70.7284 34.2186 70.6943 34.2585 70.6748C34.2988 70.6567 34.3446 70.6553 34.3859 70.671C34.4273 70.6866 34.4607 70.718 34.4789 70.7583C36.2391 74.5525 34.6058 78.5739 32.535 83.6607C31.9806 85.0167 31.4128 86.4162 30.865 87.9158C29.1316 92.652 30.2505 95.0801 31.6633 98.1529C32.4708 99.766 33.1088 101.458 33.5671 103.203C35.03 109.345 33.5103 113.393 33.4936 113.433C33.4804 113.466 33.4572 113.495 33.4273 113.514C33.3973 113.533 33.3621 113.542 33.3266 113.54Z" fill="#263238"/>
<path d="M34.0174 112.66C34.0174 112.66 35.5738 110.322 33.326 109.106C31.0782 107.89 30.6306 108.872 29.2412 108.004C27.8517 107.136 26.7963 105.038 26.5692 106.381C26.342 107.723 27.9386 108.492 27.3708 109.106C26.803 109.721 31.1383 113.715 34.0174 112.66Z" fill="#263238"/>
<path d="M35.143 72.6943C35.143 72.6943 36.2886 67.9782 32.8418 68.1553C29.3949 68.3323 33.5298 72.3303 35.143 72.6943Z" fill="#263238"/>
<path d="M32.441 76.4656C32.441 76.4656 31.0816 72.3707 28.7136 73.4596C26.3455 74.5484 30.0162 76.7361 32.441 76.4656Z" fill="#263238"/>
<path d="M36.6118 76.4964C36.6118 76.4964 35.9772 73.1898 38.5623 72.9159C41.1475 72.642 40.229 75.6647 36.6118 76.4964Z" fill="#263238"/>
<path d="M35.4336 83.4511C35.4336 83.4511 38.66 80.0743 40.1096 82.2821C41.5592 84.4898 37.6948 85.2614 35.4336 83.4511Z" fill="#263238"/>
<path d="M29.2443 83.375C29.2443 83.375 28.1788 78.2815 25.5001 80.1085C22.8215 81.9355 26.8395 84.0865 29.2443 83.375Z" fill="#263238"/>
<path d="M27.3618 90.9408C27.3618 90.9408 29.0318 85.5767 25.2141 86.4718C21.3965 87.367 24.5495 89.8987 27.3618 90.9408Z" fill="#263238"/>
<path d="M33.4219 92.3221C33.4219 92.3221 36.3644 88.2306 38.9496 89.2459C41.5347 90.2613 39.8046 94.2325 33.4219 92.3221Z" fill="#263238"/>
<path d="M31.1476 101.049C31.1476 101.049 27.8877 95.1202 25.5865 97.3914C23.2852 99.6626 27.5704 102.438 31.1476 101.049Z" fill="#263238"/>
<path d="M35.1453 100.368C35.1453 100.368 34.0331 95.6518 36.8153 95.8188C39.5976 95.9858 39.0932 98.9584 35.1453 100.368Z" fill="#263238"/>
<g opacity="0.2">
<path opacity="0.2" d="M35.143 72.6943C35.143 72.6943 36.2886 67.9782 32.8418 68.1553C29.3949 68.3323 33.5298 72.3303 35.143 72.6943Z" fill="white"/>
<path opacity="0.2" d="M32.441 76.4656C32.441 76.4656 31.0816 72.3707 28.7136 73.4596C26.3455 74.5484 30.0162 76.7361 32.441 76.4656Z" fill="white"/>
<path opacity="0.2" d="M36.6118 76.4944C36.6118 76.4944 35.9772 73.1878 38.5623 72.914C41.1475 72.6401 40.229 75.6628 36.6118 76.4944Z" fill="white"/>
<path opacity="0.2" d="M35.4336 83.4491C35.4336 83.4491 38.66 80.0724 40.1096 82.2801C41.5592 84.4879 37.6948 85.2594 35.4336 83.4491Z" fill="white"/>
<path opacity="0.2" d="M29.2443 83.375C29.2443 83.375 28.1788 78.2815 25.5001 80.1085C22.8215 81.9355 26.8395 84.0865 29.2443 83.375Z" fill="white"/>
<path opacity="0.2" d="M27.3618 90.9408C27.3618 90.9408 29.0318 85.5767 25.2141 86.4718C21.3965 87.367 24.5495 89.8987 27.3618 90.9408Z" fill="white"/>
<path opacity="0.2" d="M33.4219 92.3221C33.4219 92.3221 36.3644 88.2306 38.9496 89.2459C41.5347 90.2613 39.8046 94.2325 33.4219 92.3221Z" fill="white"/>
<path opacity="0.2" d="M31.1476 101.049C31.1476 101.049 27.8877 95.1202 25.5865 97.3914C23.2852 99.6626 27.5704 102.438 31.1476 101.049Z" fill="white"/>
<path opacity="0.2" d="M35.1453 100.368C35.1453 100.368 34.0331 95.6518 36.8153 95.8188C39.5976 95.9858 39.0932 98.9584 35.1453 100.368Z" fill="white"/>
</g>
<path d="M34.1477 79.1078H34.1143C34.0705 79.0981 34.0322 79.0717 34.0074 79.0344C34.0074 79.0076 32.4744 76.5928 31.4356 76.0751C31.4134 76.0673 31.393 76.0548 31.3759 76.0385C31.3588 76.0222 31.3454 76.0024 31.3365 75.9805C31.3276 75.9587 31.3235 75.9351 31.3243 75.9115C31.3252 75.8879 31.331 75.8648 31.3415 75.8436C31.352 75.8225 31.3668 75.8037 31.385 75.7887C31.4033 75.7737 31.4245 75.7627 31.4473 75.7565C31.47 75.7503 31.4939 75.749 31.5172 75.7527C31.5406 75.7563 31.5628 75.7649 31.5826 75.7779C32.5612 76.2622 33.8404 78.1593 34.1978 78.7104C35.9981 77.4345 37.2272 75.2735 37.2406 75.2501C37.251 75.2308 37.2652 75.2137 37.2824 75.1999C37.2996 75.1862 37.3194 75.176 37.3406 75.1701C37.3618 75.1642 37.384 75.1626 37.4058 75.1654C37.4277 75.1683 37.4487 75.1755 37.4677 75.1867C37.5055 75.209 37.5332 75.2452 37.5451 75.2875C37.5569 75.3298 37.5519 75.3751 37.5311 75.4138C37.4777 75.5107 36.1951 77.7819 34.2412 79.0878C34.2124 79.1028 34.1801 79.1097 34.1477 79.1078Z" fill="#263238"/>
<path d="M31.507 85.7477H31.4869C31.4636 85.7449 31.4412 85.7372 31.421 85.7251C31.4009 85.7131 31.3835 85.6969 31.37 85.6776C31.3533 85.6509 29.4896 83.0323 27.2852 81.9602C27.2454 81.9407 27.2149 81.9062 27.2005 81.8642C27.1861 81.8222 27.1889 81.7763 27.2084 81.7364C27.2279 81.6965 27.2624 81.666 27.3044 81.6516C27.3464 81.6372 27.3923 81.6401 27.4322 81.6596C29.4362 82.6315 31.1062 84.7491 31.5337 85.3336C34.3293 82.9488 38.03 82.7451 38.0667 82.7417C38.0889 82.7399 38.1112 82.7427 38.1322 82.7499C38.1532 82.7571 38.1725 82.7686 38.1889 82.7837C38.2052 82.7988 38.2182 82.8171 38.2271 82.8374C38.236 82.8578 38.2405 82.8798 38.2404 82.9021C38.2418 82.9238 38.2388 82.9456 38.2316 82.9662C38.2244 82.9868 38.2131 83.0058 38.1985 83.0219C38.1839 83.0381 38.1662 83.0512 38.1464 83.0605C38.1266 83.0697 38.1052 83.0749 38.0834 83.0757C38.0467 83.0757 34.336 83.2828 31.6172 85.7043C31.587 85.7318 31.5478 85.7472 31.507 85.7477Z" fill="#263238"/>
<path d="M30.1778 94.3462C30.1445 94.3477 30.1117 94.3383 30.0842 94.3195C27.8765 92.8232 25.956 88.8152 25.8759 88.6415C25.8663 88.6216 25.8607 88.5999 25.8596 88.5779C25.8585 88.5558 25.8617 88.5337 25.8692 88.5129C25.8766 88.492 25.8881 88.4729 25.903 88.4566C25.9179 88.4402 25.936 88.427 25.956 88.4177C25.9964 88.3993 26.0424 88.3974 26.0842 88.4123C26.126 88.4273 26.1603 88.458 26.1798 88.4979C26.1798 88.538 28.0836 92.4758 30.1878 93.9755C30.8357 93.538 34.4663 91.1699 37.3755 90.8793C37.3974 90.8771 37.4195 90.8793 37.4406 90.8856C37.4617 90.892 37.4814 90.9025 37.4984 90.9164C37.5155 90.9304 37.5296 90.9476 37.5401 90.967C37.5505 90.9864 37.557 91.0077 37.5592 91.0296C37.5614 91.0515 37.5592 91.0737 37.5528 91.0948C37.5465 91.1159 37.536 91.1355 37.5221 91.1526C37.5081 91.1696 37.4909 91.1838 37.4715 91.1942C37.4521 91.2046 37.4308 91.2111 37.4089 91.2133C34.3561 91.5206 30.3214 94.2895 30.2813 94.3195C30.2503 94.3387 30.2142 94.348 30.1778 94.3462Z" fill="#263238"/>
<path d="M33.3266 102.871C33.3026 102.871 33.279 102.866 33.2572 102.856C33.2353 102.846 33.2157 102.832 33.1996 102.814C31.9002 101.477 30.2233 100.568 28.3934 100.209C28.3715 100.204 28.3506 100.195 28.3321 100.183C28.3136 100.17 28.2978 100.154 28.2856 100.135C28.2733 100.116 28.2649 100.095 28.2607 100.073C28.2566 100.051 28.2568 100.029 28.2615 100.007C28.2661 99.9849 28.2749 99.9641 28.2876 99.9456C28.3002 99.9271 28.3164 99.9113 28.3352 99.899C28.3539 99.8868 28.3749 99.8784 28.3969 99.8742C28.419 99.8701 28.4416 99.8703 28.4635 99.8749C30.3149 100.243 32.0154 101.152 33.3499 102.487C34.7728 101.365 36.4394 97.3733 36.4561 97.3298C36.4734 97.2887 36.5063 97.256 36.5477 97.2391C36.589 97.2222 36.6354 97.2224 36.6766 97.2397C36.7178 97.2569 36.7504 97.2899 36.7673 97.3312C36.7842 97.3726 36.784 97.4189 36.7668 97.4601C36.6933 97.6371 34.9465 101.802 33.4268 102.851C33.3962 102.868 33.3612 102.875 33.3266 102.871Z" fill="#263238"/>
<path d="M33.7773 112.1C33.7773 112.1 35.1133 109.975 36.6197 109.675C38.126 109.374 38.7773 107.634 39.3351 108.673C39.8929 109.712 38.3565 113.175 33.7773 112.1Z" fill="#263238"/>
<path d="M40.704 120.441H26.1315L25.1562 111.449H41.6792L40.704 120.441Z" fill="#667499"/>
<path d="M42.0224 113.152H24.8181L24.5977 111.248H42.2429L42.0224 113.152Z" fill="#667499"/>
<path opacity="0.3" d="M42.0224 113.152H24.8181L24.5977 111.248H42.2429L42.0224 113.152Z" fill="white"/>
<path d="M139.679 33.5566H99.3516V120.44H139.679V33.5566Z" fill="#667499"/>
<path opacity="0.2" d="M138.393 33.5566H99.3516V120.44H138.393V33.5566Z" fill="white"/>
<path d="M112.865 38.4355H104.422V71.398H112.865V38.4355Z" fill="#667499"/>
<path opacity="0.7" d="M112.084 38.4355H104.422V71.398H112.084V38.4355Z" fill="white"/>
<path d="M107.354 80.6323C107.354 80.9223 107.268 81.2058 107.107 81.4469C106.946 81.688 106.717 81.8759 106.449 81.9869C106.181 82.0979 105.887 82.1269 105.602 82.0704C105.318 82.0138 105.056 81.8741 104.851 81.6691C104.646 81.464 104.507 81.2028 104.45 80.9183C104.393 80.6339 104.423 80.3391 104.533 80.0712C104.644 79.8032 104.832 79.5743 105.074 79.4131C105.315 79.252 105.598 79.166 105.888 79.166C106.081 79.1656 106.272 79.2032 106.45 79.2767C106.628 79.3503 106.79 79.4583 106.926 79.5945C107.062 79.7307 107.17 79.8926 107.244 80.0706C107.317 80.2487 107.355 80.4396 107.354 80.6323Z" fill="#667499"/>
<path d="M107.357 82.0985C108.167 82.0985 108.823 81.4421 108.823 80.6323C108.823 79.8225 108.167 79.166 107.357 79.166C106.547 79.166 105.891 79.8225 105.891 80.6323C105.891 81.4421 106.547 82.0985 107.357 82.0985Z" fill="#263238"/>
<path opacity="0.8" d="M107.357 82.0985C108.167 82.0985 108.823 81.4421 108.823 80.6323C108.823 79.8225 108.167 79.166 107.357 79.166C106.547 79.166 105.891 79.8225 105.891 80.6323C105.891 81.4421 106.547 82.0985 107.357 82.0985Z" fill="white"/>
<path d="M86.3355 61.1964C85.2844 60.6899 84.2699 60.1107 83.2994 59.4629L83.0088 56.8411L82.7383 54.3828C84.6855 54.8437 89.0208 58.2305 89.7222 59.7268C90.2299 60.799 90.3101 63.0434 86.3355 61.1964Z" fill="#667499"/>
<path d="M73.6179 120.526H70.8557C70.8103 120.526 70.7662 120.541 70.7309 120.57C70.6956 120.599 70.6713 120.638 70.662 120.683L70.2145 122.707C70.2052 122.75 70.2046 122.795 70.2127 122.838C70.2208 122.882 70.2375 122.923 70.2617 122.96C70.2859 122.997 70.3173 123.029 70.3539 123.054C70.3905 123.078 70.4316 123.096 70.475 123.104H70.5485C71.4402 123.104 72.0915 123.034 73.2205 123.034C73.9118 123.034 75.9993 123.108 76.9512 123.108C77.9031 123.108 78.0301 122.166 77.6426 122.079C75.8891 121.695 74.5698 121.167 74.0087 120.663C73.901 120.569 73.761 120.519 73.6179 120.526Z" fill="#263238"/>
<path d="M85.3329 120.452H82.5707C82.5255 120.452 82.4817 120.468 82.4465 120.496C82.4113 120.525 82.3868 120.564 82.377 120.609L81.9294 122.633C81.9201 122.676 81.9194 122.72 81.9273 122.763C81.9352 122.807 81.9516 122.848 81.9755 122.885C81.9994 122.922 82.0303 122.953 82.0666 122.978C82.1028 123.003 82.1436 123.021 82.1866 123.03C82.211 123.033 82.2357 123.033 82.2601 123.03C83.1552 123.03 83.8065 122.963 84.9321 122.963C85.6235 122.963 87.7076 123.033 88.6629 123.033C89.6181 123.033 89.7417 122.091 89.3509 122.005C87.5974 121.624 86.2781 121.093 85.717 120.588C85.6112 120.495 85.4737 120.446 85.3329 120.452Z" fill="#263238"/>
<path d="M72.1543 69.3164H84.2217C85.3706 75.5822 88.5837 100.909 86.0086 120.669L81.9204 120.796C81.9204 120.796 82.6786 90.7793 79.0714 81.0832C78.6539 86.2736 78.1629 91.7946 77.7354 94.7338C76.6833 101.965 74.3653 120.786 74.3653 120.786H70.207C70.207 120.786 71.1289 102.63 71.523 95.5221C71.9505 87.8167 72.1376 70.8996 72.1543 69.3164Z" fill="#263238"/>
<path opacity="0.2" d="M70.207 120.797H74.3653C74.3653 120.797 76.6833 101.963 77.7354 94.7451C78.1629 91.8092 78.6539 86.2882 79.0714 81.0978C79.6602 82.7981 80.1071 84.5442 80.4074 86.3182C82.5617 97.9514 81.9071 120.81 81.9071 120.81L85.9919 120.757C88.5703 100.998 85.3573 75.5501 84.2083 69.4746H72.1543C72.1376 70.9208 71.9539 87.9047 71.523 95.6201C71.1289 102.714 70.207 120.797 70.207 120.797Z" fill="white"/>
<path opacity="0.2" d="M79.0703 81.0843C79.6591 82.7845 80.106 84.5307 80.4063 86.3047C80.7403 81.6888 79.4043 76.7891 79.4043 76.7891L79.0703 81.0843Z" fill="black"/>
<path d="M84.2277 69.4607H72.1603C72.1237 67.049 71.9386 64.6419 71.6059 62.253C71.4222 60.9471 71.175 59.581 70.8477 58.245C70.6084 57.2522 70.3084 56.2751 69.9492 55.3192C69.9492 55.3192 75.2932 53.1315 82.7448 54.3906C83.69 59.3594 84.1864 64.4031 84.2277 69.4607Z" fill="#667499"/>
<path d="M75.7891 70.8058L83.3208 70.8091L83.2072 69.3262L75.7891 69.4164V70.8058Z" fill="black"/>
<path d="M83.695 70.8094H84.4899L84.2227 69.3164L83.5781 69.3231L83.695 70.8094Z" fill="black"/>
<path d="M75.4161 69.4258L72.1562 69.4625V70.8085H75.4161V69.4258Z" fill="black"/>
<path d="M80.9121 69.2257C80.8186 69.1422 78.7344 69.1723 78.5741 69.3593C78.5741 69.3593 78.494 70.7755 78.5908 70.8991C78.6877 71.0227 80.685 70.849 80.872 70.8423C81.0591 70.8356 80.9923 69.3092 80.9121 69.2257ZM80.6817 70.7053C80.5247 70.7053 78.8881 70.8523 78.8079 70.7488C78.7628 70.3283 78.7572 69.9045 78.7912 69.4829C78.9181 69.3326 80.6316 69.3059 80.7084 69.376C80.7852 69.4462 80.8353 70.6987 80.6817 70.7053Z" fill="white"/>
<path d="M80.5464 69.7891H80.1356C80.0974 69.7899 80.061 69.8052 80.0337 69.8319C80.0064 69.8586 79.9903 69.8946 79.9886 69.9327C79.9872 69.9539 79.9902 69.9751 79.9976 69.995C80.0049 70.0148 80.0164 70.0329 80.0312 70.0481C80.046 70.0632 80.0639 70.075 80.0836 70.0828C80.1033 70.0905 80.1244 70.094 80.1456 70.093L80.5564 70.0764C80.5771 70.0756 80.5974 70.0705 80.616 70.0615C80.6346 70.0526 80.6512 70.0398 80.6646 70.0242C80.6781 70.0085 80.6882 69.9902 80.6943 69.9704C80.7004 69.9507 80.7024 69.9299 80.7 69.9094C80.6923 69.8746 80.6728 69.8436 80.6448 69.8217C80.6167 69.7998 80.582 69.7883 80.5464 69.7891Z" fill="white"/>
<path opacity="0.2" d="M71.6058 62.2523C71.4221 60.9464 71.175 59.5803 70.8477 58.2443C70.9965 58.135 71.1594 58.0463 71.332 57.9805C71.332 57.9805 72.4943 60.3719 71.6058 62.2523Z" fill="black"/>
<path d="M69.9504 55.3125C67.4888 56.4815 64.1321 63.6625 64.8168 66.094C65.5015 68.5255 71.5302 72.0459 71.5302 72.0459L69.6398 73.8762C69.6398 73.8762 71.1662 75.1721 71.8542 75.0218C72.5422 74.8715 73.3305 73.1915 73.2804 72.3498C73.2303 71.5082 72.1782 70.8068 72.1782 70.8068C72.1782 70.8068 67.8963 66.231 67.8095 65.1722C67.599 62.6238 70.9257 58.4922 70.9257 58.4922L69.9504 55.3125Z" fill="#B97964"/>
<path d="M69.9449 55.3125C68.5521 55.5864 64.327 61.1375 64.7211 65.6665L68.0945 65.1822C68.0945 65.1822 69.0965 61.7721 71.1707 59.7079C71.1707 59.7079 71.6416 58.4554 71.0404 56.4314C70.8166 55.6699 69.9449 55.3125 69.9449 55.3125Z" fill="#667499"/>
<path d="M64.4883 65.4857L68.3226 64.998V65.4857L64.4883 66.4008V65.4857Z" fill="#667499"/>
<path opacity="0.2" d="M64.4883 65.4857L68.3226 64.998V65.4857L64.4883 66.4008V65.4857Z" fill="white"/>
<path opacity="0.2" d="M86.3345 61.1972C85.2833 60.6907 84.2689 60.1114 83.2984 59.4637L83.0078 56.8418C83.7059 57.2226 86.2777 58.8024 86.3345 61.1972Z" fill="black"/>
<path d="M87.395 58.6209C87.395 58.6209 82.7992 58.0665 81.9642 58.2034C81.1292 58.3403 79.3189 59.9335 79.2488 59.9903C79.1786 60.0471 80.518 61.7605 80.8019 61.7004C81.0858 61.6403 82.5587 60.1339 82.5988 59.9903C82.6389 59.8467 82.719 59.6095 82.719 59.6095L87.0944 61.019C87.0944 61.019 88.0697 59.5728 87.395 58.6209Z" fill="#B97964"/>
<path d="M82.3047 58.2051C82.5886 58.6596 82.7369 59.1856 82.7322 59.7214H83.1965C83.3141 59.4962 83.384 59.2492 83.4018 58.9958C83.4196 58.7423 83.385 58.4879 83.3 58.2485L82.3047 58.2051Z" fill="#667499"/>
<path opacity="0.2" d="M82.3047 58.2051C82.5886 58.6596 82.7369 59.1856 82.7322 59.7214H83.1965C83.3141 59.4962 83.384 59.2492 83.4018 58.9958C83.4196 58.7423 83.385 58.4879 83.3 58.2485L82.3047 58.2051Z" fill="black"/>
<path d="M83.4601 58.3589C83.4601 58.5293 83.1595 58.6428 82.8221 58.6161C82.4848 58.5894 82.2176 58.4324 82.2309 58.2821C82.2443 58.1318 82.5282 57.9982 82.8689 58.0249C83.2096 58.0516 83.4734 58.1919 83.4601 58.3589Z" fill="#263238"/>
<path d="M83.3006 58.2387C83.3006 58.3622 83.0835 58.4491 82.833 58.429C82.5825 58.409 82.3888 58.2921 82.3988 58.1685C82.4088 58.0449 82.6192 57.9614 82.8664 57.9815C83.1136 58.0015 83.3106 58.1151 83.3006 58.2387Z" fill="#667499"/>
<path opacity="0.7" d="M83.3006 58.2387C83.3006 58.3622 83.0835 58.4491 82.833 58.429C82.5825 58.409 82.3888 58.2921 82.3988 58.1685C82.4088 58.0449 82.6192 57.9614 82.8664 57.9815C83.1136 58.0015 83.3106 58.1151 83.3006 58.2387Z" fill="white"/>
<path d="M86.9844 61.212L87.5421 58.3496L87.9964 58.5233L87.8394 61.536L86.9844 61.212Z" fill="#667499"/>
<path opacity="0.2" d="M86.9844 61.212L87.5421 58.3496L87.9964 58.5233L87.8394 61.536L86.9844 61.212Z" fill="white"/>
<path d="M72.7031 55.3108C72.7031 55.3108 73.2041 54.0382 75.6056 53.6207C78.007 53.2032 80.6423 54.3054 81.2836 55.107L79.2228 55.3108L78.1774 57.5853L75.8026 55.5579L72.7031 55.3108Z" fill="#667499"/>
<path opacity="0.2" d="M72.7031 55.3108C72.7031 55.3108 73.2041 54.0382 75.6056 53.6207C78.007 53.2032 80.6423 54.3054 81.2836 55.107L79.2228 55.3108L78.1774 57.5853L75.8026 55.5579L72.7031 55.3108Z" fill="white"/>
<path d="M74 54.6095C74.4609 55.027 75.2024 55.2074 75.9105 55.2775L78.0681 57.2815L78.6994 55.0905C78.6994 55.0905 79.5177 54.7999 79.1603 54.2689C78.1583 54.1052 77.6807 53.6376 77.4903 53.0431C77.3803 52.6741 77.3462 52.2867 77.3901 51.9042C77.405 51.69 77.4329 51.477 77.4736 51.2662L74.1169 48.7812C74.5478 50.4012 75.0855 53.4205 74 54.6095Z" fill="#B97964"/>
<path opacity="0.2" d="M74.8828 50.3418C75.0164 52.3458 76.6697 52.9103 77.4813 53.0138C77.3713 52.6448 77.3372 52.2574 77.3811 51.8749L74.8828 50.3418Z" fill="black"/>
<path d="M80.7617 44.5325C80.7617 44.5325 81.1458 47.111 79.4825 48.3167C77.8192 49.5225 77.8125 43.6875 77.8125 43.6875L80.7617 44.5325Z" fill="#263238"/>
<path d="M74.6476 50.8105C74.9959 51.3261 75.5038 51.7131 76.0932 51.9122C76.6827 52.1113 77.3212 52.1115 77.9108 51.9127C78.6789 51.6687 79.3259 51.1423 79.7211 50.4398C79.7745 50.344 79.8246 50.2438 79.8714 50.1392C80.6897 48.222 80.9502 44.872 78.9261 43.6195C78.2346 43.1847 77.3988 43.0421 76.6022 43.2231C75.8056 43.4041 75.1134 43.8938 74.6777 44.5848C74.417 44.993 74.2589 45.4583 74.2167 45.9408C73.9796 48.1786 73.7291 49.4845 74.6476 50.8105Z" fill="#B97964"/>
<path d="M77.4885 47.1365C77.4451 47.3135 77.5252 47.4705 77.6455 47.5005C77.7657 47.5306 77.886 47.3903 77.916 47.2099C77.9461 47.0296 77.8759 46.8759 77.759 46.8459C77.6421 46.8158 77.5219 46.9561 77.4885 47.1365Z" fill="#263238"/>
<path d="M79.5312 47.4872C79.4878 47.6642 79.5713 47.8212 79.6882 47.8479C79.8051 47.8747 79.9287 47.7377 79.9587 47.5574C79.9888 47.377 79.9186 47.2234 79.8017 47.1933C79.6848 47.1632 79.5613 47.3135 79.5312 47.4872Z" fill="#263238"/>
<path d="M78.8715 47.4629C78.9911 48.0524 79.1923 48.6224 79.4693 49.1563C79.3304 49.224 79.1782 49.2607 79.0236 49.2635C78.869 49.2664 78.7156 49.2355 78.5742 49.173L78.8715 47.4629Z" fill="#A24E3F"/>
<path d="M76.9865 46.3769C77.0053 46.3823 77.0253 46.383 77.0445 46.3789C77.0637 46.3748 77.0816 46.3661 77.0967 46.3535C77.1919 46.2578 77.3084 46.1861 77.4368 46.1443C77.5651 46.1025 77.7015 46.0918 77.8348 46.113C77.8486 46.1165 77.863 46.1172 77.8771 46.115C77.8912 46.1128 77.9047 46.1079 77.9168 46.1004C77.929 46.0929 77.9395 46.0831 77.9478 46.0715C77.9561 46.0599 77.9619 46.0468 77.9651 46.0329C77.9686 46.0195 77.9693 46.0055 77.9673 45.9919C77.9653 45.9782 77.9606 45.965 77.9534 45.9532C77.9463 45.9414 77.9368 45.9311 77.9256 45.923C77.9144 45.9149 77.9017 45.9091 77.8883 45.9059C77.7208 45.8754 77.5484 45.8855 77.3856 45.9355C77.2229 45.9855 77.0745 46.0739 76.9531 46.1932C76.9331 46.2138 76.9219 46.2413 76.9219 46.27C76.9219 46.2987 76.9331 46.3263 76.9531 46.3468C76.9623 46.3588 76.9736 46.3689 76.9865 46.3769Z" fill="#263238"/>
<path d="M76.8492 49.2168C77.1138 49.2338 77.3706 49.3135 77.5982 49.4494C77.8259 49.5853 78.0179 49.7735 78.1585 49.9984C78.1647 50.0118 78.1658 50.0271 78.1615 50.0412C78.1572 50.0554 78.1478 50.0675 78.1351 50.0752C78.1291 50.0792 78.1223 50.082 78.1152 50.0832C78.108 50.0844 78.1007 50.084 78.0937 50.0821C78.0867 50.0802 78.0803 50.0768 78.0747 50.0721C78.0692 50.0675 78.0647 50.0617 78.0616 50.0551C77.9282 49.8489 77.7486 49.6766 77.5369 49.552C77.3253 49.4273 77.0875 49.3537 76.8425 49.337C76.828 49.3362 76.8144 49.3298 76.8045 49.3193C76.7946 49.3087 76.789 49.2948 76.7891 49.2803C76.7899 49.2658 76.7963 49.2522 76.8068 49.2422C76.8174 49.2323 76.8313 49.2268 76.8458 49.2268L76.8492 49.2168Z" fill="#263238"/>
<path d="M80.5356 46.9332C80.5551 46.9398 80.5762 46.9398 80.5957 46.9332C80.6227 46.9254 80.6457 46.9075 80.66 46.8833C80.6742 46.8591 80.6787 46.8304 80.6725 46.8029C80.6285 46.6365 80.5447 46.4833 80.4283 46.3565C80.312 46.2296 80.1665 46.133 80.0045 46.0748C79.9909 46.0707 79.9767 46.0694 79.9625 46.0709C79.9484 46.0724 79.9347 46.0767 79.9223 46.0835C79.9099 46.0904 79.8989 46.0996 79.8901 46.1107C79.8813 46.1219 79.8748 46.1346 79.8709 46.1483C79.8636 46.1757 79.8671 46.205 79.8808 46.2299C79.8945 46.2547 79.9173 46.2734 79.9444 46.2819C80.07 46.3321 80.182 46.4112 80.2714 46.5127C80.3607 46.6143 80.4249 46.7354 80.4588 46.8664C80.4657 46.8826 80.4762 46.897 80.4895 46.9086C80.5028 46.9202 80.5186 46.9286 80.5356 46.9332Z" fill="#263238"/>
<path d="M77.5374 42.3435C77.2702 42.3067 77.003 42.2767 76.7358 42.2633C75.9601 42.1912 75.1801 42.3467 74.4913 42.7109C72.9449 43.6294 73.2121 45.9774 73.4125 47.5004C73.6764 49.5245 74.4713 50.4396 74.4713 50.4396C73.9903 49.4744 74.1373 47.594 74.4479 47.5472C74.7585 47.5004 74.7385 47.8612 74.7385 47.8612C75.4366 47.427 76.0745 46.1912 75.8474 45.3294C75.6804 44.6614 76.4252 44.1738 77.0498 44.4844L77.2402 44.5779L77.5374 44.7149V42.3435Z" fill="#263238"/>
<path d="M72.9452 47.598C73.0246 47.8674 73.1563 48.1185 73.3328 48.3368C73.5093 48.5552 73.7272 48.7366 73.974 48.8706C74.642 49.228 75.1296 48.6735 75.0862 47.9621C75.0394 47.3308 74.6486 46.3656 73.9138 46.2921C73.7518 46.2792 73.589 46.3076 73.441 46.3749C73.2929 46.4422 73.1644 46.546 73.0676 46.6766C72.9707 46.8072 72.9086 46.9603 72.8872 47.1215C72.8658 47.2827 72.8858 47.4467 72.9452 47.598Z" fill="#B97964"/>
<path d="M78.4309 44.2667C78.284 44.5239 78.6514 45.3522 77.8197 45.1552C76.988 44.9581 76.9313 45.3088 76.3434 45.88C75.7556 46.4511 74.5599 45.5827 74.5599 45.5827L73.2573 45.7531C73.2573 45.7531 72.302 44.898 72.8999 44.4371C73.4978 43.9762 73.628 43.3215 73.9921 42.55C74.3561 41.7784 75.9794 40.7765 77.6995 41.9488C77.6995 41.9488 78.6146 41.6348 79.0188 41.8619C79.3206 42.0803 79.5685 42.3648 79.7436 42.6936C79.7991 42.6252 79.8686 42.5695 79.9475 42.5303C80.0265 42.4911 80.1129 42.4694 80.2009 42.4665C80.289 42.4637 80.3767 42.4798 80.4579 42.5138C80.5392 42.5478 80.6123 42.5989 80.6721 42.6636C81.1397 43.1512 80.7689 44.8947 81.1697 45.3356C81.5705 45.7764 80.6721 46.3142 80.6721 46.3142C80.6721 46.3142 79.9673 46.1472 79.9673 45.6295C79.9673 44.7143 79.8337 44.387 79.3862 44.22C79.303 44.1917 79.2131 44.1904 79.1291 44.2161C79.0452 44.2419 78.9715 44.2935 78.9186 44.3636C78.9186 44.3636 78.6514 43.8593 78.4309 44.2667Z" fill="#263238"/>
</svg>
