<svg width="172" height="153" viewBox="0 0 172 153" fill="none" xmlns="http://www.w3.org/2000/svg">
<path d="M147.625 17.1646C144.765 15.6019 143.468 16.9034 142.428 15.6019C141.387 14.3004 145.287 10.9229 137.474 7.54533C137.474 7.54533 136.956 0.267823 126.297 0.00662499C115.637 -0.254573 118.51 7.28413 115.651 9.10351C112.791 10.9229 112.012 8.08124 109.152 9.8826C106.292 11.684 107.594 15.3407 105.257 15.8586C102.919 16.3765 99.794 13.5214 96.9343 15.3407C94.0747 17.1601 94.0747 18.7183 92.7777 18.7183C91.4807 18.7183 88.8777 17.678 87.3196 18.7183C85.7614 19.7586 83.9375 21.0601 83.9375 21.0601H149.687C149.687 21.0601 150.484 18.7228 147.625 17.1646Z" fill="#92E3A9"/>
<path opacity="0.5" d="M147.625 17.1646C144.765 15.6019 143.468 16.9034 142.428 15.6019C141.387 14.3004 145.287 10.9229 137.474 7.54533C137.474 7.54533 136.956 0.267823 126.297 0.00662499C115.637 -0.254573 118.51 7.28413 115.651 9.10351C112.791 10.9229 112.012 8.08124 109.152 9.8826C106.292 11.684 107.594 15.3407 105.257 15.8586C102.919 16.3765 99.794 13.5214 96.9343 15.3407C94.0747 17.1601 94.0747 18.7183 92.7777 18.7183C91.4807 18.7183 88.8777 17.678 87.3196 18.7183C85.7614 19.7586 83.9375 21.0601 83.9375 21.0601H149.687C149.687 21.0601 150.484 18.7228 147.625 17.1646Z" fill="white"/>
<path d="M73.0617 75.5876C71.0532 74.4932 70.139 75.4029 69.4094 74.4932C68.6799 73.5836 71.4179 71.2058 65.9418 68.8325C65.9418 68.8325 65.577 63.7211 58.0879 63.5365C50.5987 63.3518 52.6117 68.6478 50.6032 69.9268C48.5947 71.2058 48.0498 69.1972 46.0412 70.4762C44.0327 71.7552 44.9424 74.3086 43.3032 74.6734C41.6639 75.0382 39.4663 73.0296 37.4487 74.3086C35.4312 75.5876 35.4402 76.6819 34.5305 76.6819C33.6208 76.6819 31.7879 75.9524 30.6936 76.6819C29.5993 77.4115 28.3203 78.3256 28.3203 78.3256H74.5208C74.5208 78.3256 75.0702 76.6819 73.0617 75.5876Z" fill="white"/>
<path opacity="0.5" d="M73.0617 75.5876C71.0532 74.4932 70.139 75.4029 69.4094 74.4932C68.6799 73.5836 71.4179 71.2058 65.9418 68.8325C65.9418 68.8325 65.577 63.7211 58.0879 63.5365C50.5987 63.3518 52.6117 68.6478 50.6032 69.9268C48.5947 71.2058 48.0498 69.1972 46.0412 70.4762C44.0327 71.7552 44.9424 74.3086 43.3032 74.6734C41.6639 75.0382 39.4663 73.0296 37.4487 74.3086C35.4312 75.5876 35.4402 76.6819 34.5305 76.6819C33.6208 76.6819 31.7879 75.9524 30.6936 76.6819C29.5993 77.4115 28.3203 78.3256 28.3203 78.3256H74.5208C74.5208 78.3256 75.0702 76.6819 73.0617 75.5876Z" fill="white"/>
<path d="M130.161 151.682H158.622C158.077 148.201 155.839 148.813 155.542 143.418C155.393 140.716 157.911 137.338 157.69 133.772C157.51 130.831 154.614 127.818 154.389 124.454C154.187 121.419 156.641 118.05 156.42 114.781C156.191 111.691 153.268 108.724 152.993 105.508C152.741 102.356 155.164 98.9738 154.876 95.8034C154.587 92.633 151.602 89.7193 151.273 86.5939C150.944 83.383 153.29 79.9244 152.93 76.853C152.552 73.5881 149.471 70.7689 149.053 67.7607C148.602 64.4146 150.768 60.8389 150.26 57.9477C149.634 54.408 146.337 51.8456 145.644 49.2336C144.351 44.3654 144.513 39.6774 142.987 39.3712C141.361 39.0469 140.987 43.6449 139.753 48.7833C139.132 51.3637 135.912 53.9802 135.38 57.5244C134.952 60.3931 137.231 63.8832 136.857 67.2157C136.524 70.2015 133.52 73.0702 133.228 76.3171C132.953 79.3704 135.389 82.7345 135.151 85.9274C134.916 89.0303 131.998 91.989 131.805 95.1414C131.611 98.2938 134.115 101.59 133.944 104.702C133.768 107.891 130.908 110.903 130.76 113.97C130.607 117.217 133.169 120.491 133.043 123.499C132.903 126.836 130.084 129.89 129.981 132.808C129.855 136.348 132.453 139.613 132.372 142.31C132.201 148.165 129.521 146.944 129.427 151.655L130.161 151.682Z" fill="#92E3A9"/>
<path d="M142.378 48.7246V150.367" stroke="black" stroke-miterlimit="10"/>
<path d="M146.823 59.3795L142.189 63.383L138.397 58.3257" stroke="black" stroke-miterlimit="10"/>
<path d="M146.823 77.0738L142.189 81.0728L138.397 76.02" stroke="black" stroke-miterlimit="10"/>
<path d="M146.823 93.7091L142.189 97.7126L138.397 92.6553" stroke="black" stroke-miterlimit="10"/>
<path d="M146.823 113.511L142.189 117.51L138.397 112.457" stroke="black" stroke-miterlimit="10"/>
<path d="M146.823 133.52L142.189 137.519L138.397 132.466" stroke="black" stroke-miterlimit="10"/>
<path d="M110.774 151.682H132.746C132.322 148.98 130.598 149.466 130.368 145.305C130.251 143.206 132.192 140.612 132.025 137.856C131.886 135.605 129.652 133.258 129.476 130.651C129.319 128.309 131.228 125.697 131.043 123.184C130.868 120.797 128.603 118.51 128.4 116.028C128.197 113.547 130.075 110.98 129.855 108.535C129.634 106.089 127.324 103.838 127.08 101.428C126.828 98.9468 128.639 96.2808 128.359 93.903C128.067 91.3856 125.689 89.2105 125.369 86.8912C125.009 84.3063 126.693 81.5457 126.297 79.3165C125.815 76.5829 123.271 74.6014 122.739 72.5884C121.739 68.8325 121.866 65.2073 120.686 64.9731C119.429 64.7209 119.141 68.2696 118.191 72.2416C117.713 74.2321 115.223 76.2542 114.813 78.9967C114.484 81.2124 116.241 83.9055 115.953 86.4769C115.696 88.7826 113.381 90.9803 113.151 93.5022C112.94 95.8575 114.822 98.456 114.638 100.919C114.457 103.315 112.21 105.598 112.053 108.03C111.895 110.462 113.854 113.011 113.705 115.411C113.557 117.812 111.364 120.198 111.251 122.567C111.129 125.071 113.106 127.598 113.012 129.921C112.904 132.497 110.729 134.875 110.648 137.127C110.548 139.856 112.557 142.382 112.494 144.458C112.359 148.962 110.292 148.039 110.22 151.664L110.774 151.682Z" fill="#92E3A9"/>
<path d="M120.208 72.21V150.668" stroke="black" stroke-miterlimit="10"/>
<path d="M123.636 80.4333L120.06 83.5226L117.133 79.6182" stroke="black" stroke-miterlimit="10"/>
<path d="M123.636 94.0875L120.06 97.1768L117.133 93.2769" stroke="black" stroke-miterlimit="10"/>
<path d="M123.636 106.931L120.06 110.021L117.133 106.121" stroke="black" stroke-miterlimit="10"/>
<path d="M123.636 122.216L120.06 125.305L117.133 121.401" stroke="black" stroke-miterlimit="10"/>
<path d="M123.636 137.662L120.06 140.747L117.133 136.847" stroke="black" stroke-miterlimit="10"/>
<path d="M91.1885 151.47V60.4199H95.9936V151.47" fill="#2E353A"/>
<path d="M91.1885 151.47V60.4199H95.9936V151.47" stroke="#2E353A" stroke-linecap="round" stroke-linejoin="round"/>
<path d="M88.7881 151.47V60.4199H93.5932V151.47" fill="#92E3A9"/>
<path d="M88.7881 151.47V60.4199H93.5932V151.47" stroke="#2E353A" stroke-linecap="round" stroke-linejoin="round"/>
<g style="mix-blend-mode:multiply" opacity="0.3">
<path d="M93.5932 60.4199H88.7881V71.2281H93.5932V60.4199Z" fill="#2E353A"/>
</g>
<path d="M109.292 24.8745H73.6885L89.2072 62.9914H124.816V40.3933C124.816 38.3549 124.414 36.3366 123.634 34.4535C122.854 32.5703 121.71 30.8594 120.269 29.4183C118.827 27.9772 117.116 26.8341 115.233 26.0545C113.349 25.2749 111.331 24.8739 109.292 24.8745Z" fill="#92E3A9" stroke="#2E353A" stroke-linecap="round" stroke-linejoin="round"/>
<g style="mix-blend-mode:multiply" opacity="0.3">
<path d="M86.4922 56.3174L89.1942 62.9915H124.816V40.3934C124.816 40.0511 124.816 39.7088 124.78 39.3711H86.5012L86.4922 56.3174Z" fill="black"/>
</g>
<path d="M109.031 39.3711H105.284" stroke="#2E353A" stroke-linecap="round" stroke-linejoin="round"/>
<path d="M124.78 39.3711H113.44" stroke="#2E353A" stroke-linecap="round" stroke-linejoin="round"/>
<path d="M73.6883 24.8745C77.8053 24.8745 81.7537 26.51 84.6649 29.4212C87.5761 32.3323 89.2115 36.2807 89.2115 40.3978V62.9959H58.165V40.3933C58.1662 36.277 59.8022 32.3298 62.7133 29.4196C65.6243 26.5094 69.5721 24.8745 73.6883 24.8745Z" fill="#2E353A" stroke="#2E353A" stroke-linecap="round" stroke-linejoin="round"/>
<path d="M89.2073 60.4199H62.457V62.9914H89.2073V60.4199Z" fill="#92E3A9" stroke="#2E353A" stroke-linecap="round" stroke-linejoin="round"/>
<path d="M89.2071 60.4199H33.8467V62.9914H89.2071V60.4199Z" fill="#92E3A9" stroke="#2E353A" stroke-linecap="round" stroke-linejoin="round"/>
<path opacity="0.3" d="M89.2073 60.4199H62.457V62.9914H89.2073V60.4199Z" fill="black"/>
<path d="M111.607 15.6875H100.497V23.4919H111.607V15.6875Z" fill="#2E353A" stroke="#2E353A" stroke-linecap="round" stroke-linejoin="round"/>
<path d="M101.397 15.6875H98.9971V40.0059H101.397V15.6875Z" fill="white" stroke="#2E353A" stroke-linecap="round" stroke-linejoin="round"/>
<path d="M100.195 43.3069C101.688 43.3069 102.897 42.0972 102.897 40.6049C102.897 39.1126 101.688 37.9028 100.195 37.9028C98.7029 37.9028 97.4932 39.1126 97.4932 40.6049C97.4932 42.0972 98.7029 43.3069 100.195 43.3069Z" fill="#2E353A" stroke="#2E353A" stroke-linecap="round" stroke-linejoin="round"/>
<path d="M60.5693 31.1157C66.8381 34.2996 77.7363 39.402 87.7879 41.9689" stroke="white" stroke-linecap="round" stroke-linejoin="round" stroke-dasharray="2 4"/>
<path d="M55.3096 28.3467C55.3096 28.3467 57.3181 29.4815 60.5696 31.1343" stroke="#2E353A" stroke-linecap="round" stroke-linejoin="round" stroke-dasharray="2 4"/>
<path d="M53.0534 28.1798L57.5614 17.4707L24.8711 9.49512L53.0534 28.1798Z" fill="white" stroke="#2E353A" stroke-width="1.2629" stroke-linecap="round" stroke-linejoin="round"/>
<path d="M55.2511 18.7676L53.0534 28.1798L24.8711 9.49512L55.2511 18.7676Z" fill="#92E3A9" stroke="#2E353A" stroke-width="1.2629" stroke-linecap="round" stroke-linejoin="round"/>
<path d="M55.2511 18.7676L50.1217 23.163L24.8711 9.49512L55.2511 18.7676Z" fill="white" stroke="#2E353A" stroke-width="1.2629" stroke-linecap="round" stroke-linejoin="round"/>
<path d="M57.5614 17.4707L62.1278 15.6153L24.8711 9.49512L57.5614 17.4707Z" fill="white" stroke="#2E353A" stroke-width="1.2629" stroke-linecap="round" stroke-linejoin="round"/>
<path d="M46.7031 26.5137L47.7614 27.1622" stroke="#2E353A" stroke-linecap="round" stroke-linejoin="round"/>
<path d="M40.9307 22.9741L44.4749 25.1448" stroke="#2E353A" stroke-linecap="round" stroke-linejoin="round"/>
<path d="M36.9492 48.6792V37.0649L70.1754 42.406L36.9492 48.6792Z" fill="white" stroke="#2E353A" stroke-width="1.2629" stroke-linecap="round" stroke-linejoin="round"/>
<path d="M38.575 39.1548L36.9492 48.6795L70.1754 42.4062L38.575 39.1548Z" fill="#92E3A9" stroke="#2E353A" stroke-width="1.2629" stroke-linecap="round" stroke-linejoin="round"/>
<path d="M38.5752 39.1548L41.597 45.1939L70.1756 42.4062L38.5752 39.1548Z" fill="white" stroke="#2E353A" stroke-width="1.2629" stroke-linecap="round" stroke-linejoin="round"/>
<path d="M36.9495 37.0647L33.4639 33.5791L70.1757 42.4058L36.9495 37.0647Z" fill="white" stroke="#2E353A" stroke-width="1.2629" stroke-linecap="round" stroke-linejoin="round"/>
<path d="M48.8467 48.4634L51.7289 47.8779" stroke="#2E353A" stroke-linecap="round" stroke-linejoin="round"/>
<path d="M38.7236 50.5214L45.9696 49.0488" stroke="#2E353A" stroke-linecap="round" stroke-linejoin="round"/>
<path d="M32.9457 47.9634C32.9457 47.9634 6.82587 52.4668 1.87212 75.8845C-3.08163 99.3023 23.0381 100.653 27.5416 89.3948C32.045 78.1362 12.23 73.6328 7.72656 84.441C3.22315 95.2492 16.7334 113.713 35.1974 114.614C50.5405 115.361 93.557 97.4514 120.312 92.9254C120.312 92.9254 140.127 87.4403 170.75 88.6427" stroke="#2E353A" stroke-linecap="round" stroke-linejoin="round" stroke-dasharray="2 4"/>
<path d="M161.892 121.369H169.399" stroke="#2E353A" stroke-linecap="round" stroke-linejoin="round"/>
<path d="M161.892 132.475H169.399" stroke="#2E353A" stroke-linecap="round" stroke-linejoin="round"/>
<path d="M3.82227 132.177H160.991V121.667H3.82227" fill="white"/>
<path d="M3.82227 132.177H160.991V121.667H3.82227" stroke="#2E353A" stroke-linecap="round" stroke-linejoin="round"/>
<path d="M14.7476 151.542V98.6633C14.7476 98.5336 14.774 98.4053 14.8251 98.286C14.8762 98.1668 14.9509 98.0592 15.0448 97.9697L19.1519 94.1013C19.3369 93.9284 19.5827 93.8356 19.8358 93.8432C20.0888 93.8508 20.3287 93.9581 20.5029 94.1418L24.1056 97.9742C24.2691 98.1526 24.3606 98.3853 24.3623 98.6272V151.542" fill="#2E353A"/>
<path d="M14.7476 151.542V98.6633C14.7476 98.5336 14.774 98.4053 14.8251 98.286C14.8762 98.1668 14.9509 98.0592 15.0448 97.9697L19.1519 94.1013C19.3369 93.9284 19.5827 93.8356 19.8358 93.8432C20.0888 93.8508 20.3287 93.9581 20.5029 94.1418L24.1056 97.9742C24.2691 98.1526 24.3606 98.3853 24.3623 98.6272V151.542" stroke="#2E353A" stroke-linecap="round" stroke-linejoin="round"/>
<path d="M13.5811 151.993V98.6632C13.5809 98.533 13.6077 98.4043 13.6596 98.2849C13.7115 98.1656 13.7875 98.0583 13.8828 97.9696L17.9899 94.1012C18.0812 94.015 18.1886 93.9477 18.306 93.9031C18.4233 93.8585 18.5483 93.8375 18.6738 93.8412C18.7993 93.845 18.9228 93.8735 19.0373 93.9251C19.1518 93.9766 19.2549 94.0503 19.3409 94.1417L22.9436 97.9741C23.109 98.1513 23.2008 98.3848 23.2003 98.6271V151.993" fill="white"/>
<path d="M13.5811 151.993V98.6632C13.5809 98.533 13.6077 98.4043 13.6596 98.2849C13.7115 98.1656 13.7875 98.0583 13.8828 97.9696L17.9899 94.1012C18.0812 94.015 18.1886 93.9477 18.306 93.9031C18.4233 93.8585 18.5483 93.8375 18.6738 93.8412C18.7993 93.845 18.9228 93.8735 19.0373 93.9251C19.1518 93.9766 19.2549 94.0503 19.3409 94.1417L22.9436 97.9741C23.109 98.1513 23.2008 98.3848 23.2003 98.6271V151.993" stroke="#2E353A" stroke-linecap="round" stroke-linejoin="round"/>
<path d="M49.3789 151.542V98.6632C49.379 98.5335 49.4054 98.4052 49.4565 98.2859C49.5075 98.1667 49.5823 98.0591 49.6761 97.9696L53.7877 94.1012C53.879 94.015 53.9865 93.9477 54.1038 93.9031C54.2212 93.8585 54.3462 93.8375 54.4717 93.8412C54.5972 93.845 54.7207 93.8735 54.8351 93.9251C54.9496 93.9766 55.0528 94.0503 55.1388 94.1417L58.7415 97.9741C58.9068 98.1513 58.9986 98.3848 58.9982 98.6271V151.542" fill="#2E353A"/>
<path d="M49.3789 151.542V98.6632C49.379 98.5335 49.4054 98.4052 49.4565 98.2859C49.5075 98.1667 49.5823 98.0591 49.6761 97.9696L53.7877 94.1012C53.879 94.015 53.9865 93.9477 54.1038 93.9031C54.2212 93.8585 54.3462 93.8375 54.4717 93.8412C54.5972 93.845 54.7207 93.8735 54.8351 93.9251C54.9496 93.9766 55.0528 94.0503 55.1388 94.1417L58.7415 97.9741C58.9068 98.1513 58.9986 98.3848 58.9982 98.6271V151.542" stroke="#2E353A" stroke-linecap="round" stroke-linejoin="round"/>
<path d="M48.4063 151.993V98.6633C48.4061 98.5331 48.4328 98.4044 48.4848 98.285C48.5367 98.1657 48.6127 98.0584 48.708 97.9697L52.8151 94.1013C53 93.9284 53.2459 93.8356 53.499 93.8432C53.752 93.8508 53.9919 93.9581 54.1661 94.1418L57.7688 97.9742C57.9354 98.151 58.0288 98.3844 58.03 98.6272V151.993" fill="white"/>
<path d="M48.4063 151.993V98.6633C48.4061 98.5331 48.4328 98.4044 48.4848 98.285C48.5367 98.1657 48.6127 98.0584 48.708 97.9697L52.8151 94.1013C53 93.9284 53.2459 93.8356 53.499 93.8432C53.752 93.8508 53.9919 93.9581 54.1661 94.1418L57.7688 97.9742C57.9354 98.151 58.0288 98.3844 58.03 98.6272V151.993" stroke="#2E353A" stroke-linecap="round" stroke-linejoin="round"/>
<path d="M84.2041 151.542V98.6633C84.204 98.5331 84.2307 98.4044 84.2826 98.285C84.3345 98.1657 84.4105 98.0584 84.5058 97.9697L88.6129 94.1013C88.7979 93.9284 89.0437 93.8356 89.2968 93.8432C89.5499 93.8508 89.7897 93.9581 89.964 94.1418L93.5667 97.9742C93.7333 98.151 93.8266 98.3844 93.8279 98.6272V151.993" fill="#2E353A"/>
<path d="M84.2041 151.542V98.6633C84.204 98.5331 84.2307 98.4044 84.2826 98.285C84.3345 98.1657 84.4105 98.0584 84.5058 97.9697L88.6129 94.1013C88.7979 93.9284 89.0437 93.8356 89.2968 93.8432C89.5499 93.8508 89.7897 93.9581 89.964 94.1418L93.5667 97.9742C93.7333 98.151 93.8266 98.3844 93.8279 98.6272V151.993" stroke="#2E353A" stroke-linecap="round" stroke-linejoin="round"/>
<path d="M83.2354 151.993V98.6632C83.2354 98.5335 83.2618 98.4052 83.3129 98.2859C83.364 98.1667 83.4387 98.0591 83.5326 97.9696L87.6442 94.1012C87.7355 94.015 87.8429 93.9477 87.9603 93.9031C88.0776 93.8585 88.2026 93.8375 88.3281 93.8412C88.4536 93.845 88.5771 93.8735 88.6916 93.9251C88.8061 93.9766 88.9092 94.0503 88.9952 94.1417L92.5979 97.9741C92.7633 98.1513 92.8551 98.3848 92.8546 98.6271V151.993" fill="white"/>
<path d="M83.2354 151.993V98.6632C83.2354 98.5335 83.2618 98.4052 83.3129 98.2859C83.364 98.1667 83.4387 98.0591 83.5326 97.9696L87.6442 94.1012C87.7355 94.015 87.8429 93.9477 87.9603 93.9031C88.0776 93.8585 88.2026 93.8375 88.3281 93.8412C88.4536 93.845 88.5771 93.8735 88.6916 93.9251C88.8061 93.9766 88.9092 94.0503 88.9952 94.1417L92.5979 97.9741C92.7633 98.1513 92.8551 98.3848 92.8546 98.6271V151.993" stroke="#2E353A" stroke-linecap="round" stroke-linejoin="round"/>
<path d="M119.033 151.542V98.6633C119.033 98.5336 119.06 98.4053 119.111 98.286C119.162 98.1668 119.237 98.0592 119.33 97.9697L123.438 94.1013C123.622 93.9284 123.868 93.8356 124.121 93.8432C124.374 93.8508 124.614 93.9581 124.789 94.1418L128.391 97.9742C128.555 98.1526 128.646 98.3853 128.648 98.6272V151.542" fill="#2E353A"/>
<path d="M119.033 151.542V98.6633C119.033 98.5336 119.06 98.4053 119.111 98.286C119.162 98.1668 119.237 98.0592 119.33 97.9697L123.438 94.1013C123.622 93.9284 123.868 93.8356 124.121 93.8432C124.374 93.8508 124.614 93.9581 124.789 94.1418L128.391 97.9742C128.555 98.1526 128.646 98.3853 128.648 98.6272V151.542" stroke="#2E353A" stroke-linecap="round" stroke-linejoin="round"/>
<path d="M118.061 151.993V98.6632C118.06 98.533 118.087 98.4043 118.139 98.2849C118.191 98.1656 118.267 98.0583 118.362 97.9696L122.469 94.1012C122.561 94.015 122.668 93.9477 122.785 93.9031C122.903 93.8585 123.028 93.8375 123.153 93.8412C123.279 93.845 123.402 93.8735 123.517 93.9251C123.631 93.9766 123.734 94.0503 123.82 94.1417L127.423 97.9741C127.588 98.1513 127.68 98.3848 127.68 98.6271V151.993" fill="white"/>
<path d="M118.061 151.993V98.6632C118.06 98.533 118.087 98.4043 118.139 98.2849C118.191 98.1656 118.267 98.0583 118.362 97.9696L122.469 94.1012C122.561 94.015 122.668 93.9477 122.785 93.9031C122.903 93.8585 123.028 93.8375 123.153 93.8412C123.279 93.845 123.402 93.8735 123.517 93.9251C123.631 93.9766 123.734 94.0503 123.82 94.1417L127.423 97.9741C127.588 98.1513 127.68 98.3848 127.68 98.6271V151.993" stroke="#2E353A" stroke-linecap="round" stroke-linejoin="round"/>
<path d="M153.857 151.542V98.6632C153.858 98.5335 153.884 98.4052 153.935 98.2859C153.986 98.1667 154.061 98.0591 154.155 97.9696L158.266 94.1012C158.358 94.015 158.465 93.9477 158.582 93.9031C158.7 93.8585 158.825 93.8375 158.95 93.8412C159.076 93.845 159.199 93.8735 159.314 93.9251C159.428 93.9766 159.531 94.0503 159.617 94.1417L163.22 97.9741C163.385 98.1513 163.477 98.3848 163.477 98.6271V151.542" fill="#2E353A"/>
<path d="M153.857 151.542V98.6632C153.858 98.5335 153.884 98.4052 153.935 98.2859C153.986 98.1667 154.061 98.0591 154.155 97.9696L158.266 94.1012C158.358 94.015 158.465 93.9477 158.582 93.9031C158.7 93.8585 158.825 93.8375 158.95 93.8412C159.076 93.845 159.199 93.8735 159.314 93.9251C159.428 93.9766 159.531 94.0503 159.617 94.1417L163.22 97.9741C163.385 98.1513 163.477 98.3848 163.477 98.6271V151.542" stroke="#2E353A" stroke-linecap="round" stroke-linejoin="round"/>
<path d="M152.885 151.993V98.6633C152.885 98.5331 152.911 98.4044 152.963 98.285C153.015 98.1657 153.091 98.0584 153.187 97.9697L157.294 94.1013C157.479 93.9284 157.724 93.8356 157.977 93.8432C158.231 93.8508 158.47 93.9581 158.645 94.1418L162.247 97.9742C162.414 98.151 162.507 98.3844 162.509 98.6272V151.993" fill="white"/>
<path d="M152.885 151.993V98.6633C152.885 98.5331 152.911 98.4044 152.963 98.285C153.015 98.1657 153.091 98.0584 153.187 97.9697L157.294 94.1013C157.479 93.9284 157.724 93.8356 157.977 93.8432C158.231 93.8508 158.47 93.9581 158.645 94.1418L162.247 97.9742C162.414 98.151 162.507 98.3844 162.509 98.6272V151.993" stroke="#2E353A" stroke-linecap="round" stroke-linejoin="round"/>
<path d="M19.3364 94.1416V97.9965" stroke="#2E353A" stroke-linecap="round" stroke-linejoin="round"/>
<path d="M20.8813 96.1323V105.256" stroke="#2E353A" stroke-linecap="round" stroke-linejoin="round"/>
<path d="M50.3018 96.8799V108.422" stroke="#2E353A" stroke-linecap="round" stroke-linejoin="round"/>
<path d="M51.793 95.3892V100.415" stroke="#2E353A" stroke-linecap="round" stroke-linejoin="round"/>
<path d="M87.6445 94.1011V105.445" stroke="#2E353A" stroke-linecap="round" stroke-linejoin="round"/>
<path d="M89.7832 95.0156V111.777" stroke="#2E353A" stroke-linecap="round" stroke-linejoin="round"/>
<path d="M119.763 96.8799V109.539" stroke="#2E353A" stroke-linecap="round" stroke-linejoin="round"/>
<path d="M124.604 95.3892V98.5551" stroke="#2E353A" stroke-linecap="round" stroke-linejoin="round"/>
<path d="M156.073 95.2002V101.906" stroke="#2E353A" stroke-linecap="round" stroke-linejoin="round"/>
<path d="M160.172 95.9478V115.312" stroke="#2E353A" stroke-linecap="round" stroke-linejoin="round"/>
<path d="M152.723 124.251H148.625" stroke="#2E353A" stroke-linecap="round" stroke-linejoin="round"/>
<path d="M152.724 127.417H138.385" stroke="#2E353A" stroke-linecap="round" stroke-linejoin="round"/>
<path d="M99.2762 127.417H92.7598" stroke="#2E353A" stroke-linecap="round" stroke-linejoin="round"/>
<path d="M65.0145 127.417H58.498" stroke="#2E353A" stroke-linecap="round" stroke-linejoin="round"/>
<path d="M13.4325 125.742H6.91602" stroke="#2E353A" stroke-linecap="round" stroke-linejoin="round"/>
<path d="M13.4327 128.719H10.8252" stroke="#2E353A" stroke-linecap="round" stroke-linejoin="round"/>
<path d="M95.9257 125.742H92.7598" stroke="#2E353A" stroke-linecap="round" stroke-linejoin="round"/>
<path d="M61.2899 129.277H58.124" stroke="#2E353A" stroke-linecap="round" stroke-linejoin="round"/>
<path d="M48.0682 129.277H44.9023" stroke="#2E353A" stroke-linecap="round" stroke-linejoin="round"/>
<path d="M165.382 127.417H162.59" stroke="#2E353A" stroke-linecap="round" stroke-linejoin="round"/>
<path d="M169.107 127.417H167.432" stroke="#2E353A" stroke-linecap="round" stroke-linejoin="round"/>
<path d="M23.0383 108.057C23.0383 108.057 21.9124 117.735 20.5614 127.638C19.2104 137.541 21.6873 147.674 22.3628 148.574" stroke="#2E353A" stroke-linecap="round" stroke-linejoin="round"/>
<path d="M18.5845 127.647C18.8006 125.715 18.9808 124.495 18.9808 124.495" stroke="#2E353A" stroke-linecap="round" stroke-linejoin="round"/>
<path d="M21.908 147.449C21.908 147.449 17.855 146.548 17.855 139.343C17.855 136.384 18.0441 133.353 18.2693 130.786" stroke="#2E353A" stroke-linecap="round" stroke-linejoin="round"/>
<path d="M55.913 96.5737C55.913 96.5737 56.8137 97.2492 55.2375 104.905C53.6613 112.561 53.8865 123.819 55.913 130.124" stroke="#2E353A" stroke-linecap="round" stroke-linejoin="round"/>
<path d="M58.1652 110.759C58.1652 110.759 55.9135 117.514 57.4897 126.972" stroke="#2E353A" stroke-linecap="round" stroke-linejoin="round"/>
<path d="M83.8345 115.033C83.8345 115.033 84.9604 121.563 86.0863 128.313C87.2121 135.064 86.3114 144.526 85.4107 146.998C84.5101 149.47 83.6094 151.501 83.6094 151.501" stroke="#2E353A" stroke-linecap="round" stroke-linejoin="round"/>
<path d="M88.0769 148.192C87.0726 151.272 85.8252 147.674 85.8252 147.674" stroke="#2E353A" stroke-linecap="round" stroke-linejoin="round"/>
<path d="M88.0361 125.17C88.0361 125.17 90.1572 136.118 88.9593 144.359" stroke="#2E353A" stroke-linecap="round" stroke-linejoin="round"/>
<path d="M83.3838 128.773C83.3838 128.773 85.6355 133.502 83.609 138.005" stroke="#2E353A" stroke-linecap="round" stroke-linejoin="round"/>
<path d="M125.4 129.439C125.702 130.816 126.098 132.17 126.585 133.493" stroke="#2E353A" stroke-linecap="round" stroke-linejoin="round"/>
<path d="M127.261 106.031C125.832 110.566 124.926 115.25 124.559 119.991C124.425 122.39 124.559 124.796 124.96 127.165" stroke="#2E353A" stroke-linecap="round" stroke-linejoin="round"/>
<path d="M122.982 126.737C122.982 126.737 125.009 134.393 126.135 137.095C127.261 139.797 126.81 146.323 125.459 149.475" stroke="#2E353A" stroke-linecap="round" stroke-linejoin="round"/>
<path d="M153.372 109.408C153.372 109.408 157.875 117.514 153.597 130.795" stroke="#2E353A" stroke-linecap="round" stroke-linejoin="round"/>
<path d="M157.511 123.252C157.538 125.783 157.313 128.989 156.299 131.691C154.273 137.095 153.372 138.897 153.372 138.897" stroke="#2E353A" stroke-linecap="round" stroke-linejoin="round"/>
<path d="M157.199 118.866C157.199 118.866 157.348 119.834 157.438 121.325" stroke="#2E353A" stroke-linecap="round" stroke-linejoin="round"/>
</svg>
