<svg width="181" height="181" viewBox="0 0 181 181" fill="none" xmlns="http://www.w3.org/2000/svg">
<path d="M90.5 180.5C140.206 180.5 180.5 140.206 180.5 90.5C180.5 40.7944 140.206 0.5 90.5 0.5C40.7944 0.5 0.5 40.7944 0.5 90.5C0.5 140.206 40.7944 180.5 90.5 180.5Z" fill="#F0F4FE"/>
<path d="M44.4648 122.212C42.123 122.212 39.8339 121.518 37.8868 120.217C35.9397 118.916 34.4222 117.066 33.526 114.903C32.6299 112.739 32.3954 110.359 32.8523 108.062C33.3091 105.765 34.4368 103.656 36.0926 102C37.7485 100.344 39.8582 99.2164 42.1549 98.7595C44.4516 98.3027 46.8323 98.5371 48.9957 99.4333C51.1592 100.329 53.0084 101.847 54.3094 103.794C55.6104 105.741 56.3048 108.03 56.3048 110.372C56.3048 113.512 55.0573 116.524 52.8369 118.744C50.6165 120.965 47.6049 122.212 44.4648 122.212ZM44.4648 99.0824C42.2292 99.0818 40.0437 99.7441 38.1846 100.986C36.3255 102.227 34.8764 103.992 34.0204 106.057C33.1645 108.123 32.9402 110.395 33.3759 112.588C33.8117 114.78 34.8879 116.795 36.4684 118.376C38.049 119.957 40.0629 121.033 42.2554 121.47C44.4479 121.906 46.7206 121.683 48.7861 120.827C50.8515 119.972 52.6169 118.523 53.8589 116.664C55.101 114.806 55.764 112.62 55.764 110.385C55.7606 107.389 54.5691 104.516 52.451 102.398C50.3328 100.279 47.4607 99.0866 44.4648 99.0824Z" fill="#EBEBEB"/>
<path d="M43.8696 123.886C43.6904 123.886 43.5112 123.866 43.332 123.854L43.3768 123.329C43.5464 123.329 43.7192 123.354 43.892 123.361L43.8696 123.886ZM45.7512 123.838L45.7 123.316C45.8728 123.3 46.0424 123.278 46.2152 123.255L46.2856 123.777C46.1096 123.802 45.9336 123.822 45.7512 123.838ZM41.4696 123.566C41.2936 123.527 41.1208 123.482 40.9448 123.438L41.0824 122.929C41.2488 122.974 41.4184 123.015 41.5848 123.054L41.4696 123.566ZM48.1352 123.396L47.9912 122.887C48.1576 122.842 48.3112 122.791 48.4872 122.737L48.6504 123.239L48.1352 123.396ZM39.1752 122.82C39.0088 122.75 38.8552 122.676 38.6824 122.599L38.9064 122.122C39.0632 122.199 39.2264 122.27 39.38 122.337L39.1752 122.82ZM50.404 122.532L50.1736 122.058C50.3304 121.982 50.4936 121.905 50.6344 121.822L50.884 122.286C50.7176 122.369 50.5576 122.452 50.3944 122.532H50.404ZM37.0408 121.674C36.8904 121.575 36.74 121.473 36.596 121.354L36.916 120.926C37.0536 121.028 37.1976 121.127 37.3416 121.22L37.0408 121.674ZM52.4744 121.278L52.1544 120.852L52.564 120.532L52.884 120.942C52.74 121.06 52.6088 121.172 52.4648 121.278H52.4744ZM35.14 120.164C35.0088 120.039 34.8808 119.914 34.756 119.783L35.14 119.418C35.2616 119.543 35.3832 119.665 35.508 119.783L35.14 120.164ZM54.2824 119.674L53.9016 119.313C54.02 119.188 54.1352 119.06 54.2504 118.929L54.644 119.274C54.5224 119.412 54.404 119.543 54.2792 119.674H54.2824ZM33.54 118.343C33.4344 118.199 33.332 118.052 33.22 117.902L33.6584 117.61C33.7544 117.751 33.8536 117.895 33.956 118.033L33.54 118.343ZM55.78 117.78L55.3416 117.492C55.4344 117.348 55.5272 117.201 55.6168 117.054L56.068 117.322C55.9752 117.46 55.8792 117.623 55.78 117.78ZM32.2952 116.276C32.2152 116.113 32.1416 115.956 32.068 115.786L32.5512 115.575C32.6216 115.735 32.692 115.895 32.7656 116.046L32.2952 116.276ZM56.9352 115.636L56.452 115.431C56.5192 115.271 56.5832 115.111 56.644 114.948L57.1368 115.134C57.0568 115.303 56.9896 115.47 56.9192 115.636H56.9352ZM31.4536 114.004C31.4056 113.831 31.364 113.658 31.3224 113.482L31.8344 113.361C31.8728 113.53 31.9144 113.697 31.9624 113.863L31.4536 114.004ZM57.6712 113.326L57.1592 113.21C57.1976 113.044 57.2296 112.874 57.2616 112.705L57.78 112.798C57.732 112.98 57.6968 113.15 57.6552 113.326H57.6712ZM31.0216 111.623C31.0045 111.444 30.9917 111.265 30.9832 111.086L31.492 111.06C31.492 111.233 31.5048 111.406 31.5304 111.578L31.0216 111.623ZM57.9816 110.922L57.4568 110.903C57.4568 110.73 57.4568 110.558 57.4568 110.385V110.33H57.9848V110.382C57.9784 110.567 57.9752 110.74 57.9656 110.922H57.9816ZM31.524 109.246L30.9992 109.201C30.9992 109.022 31.0344 108.842 31.0568 108.666L31.5784 108.73C31.5592 108.903 31.54 109.073 31.524 109.246ZM57.3192 108.526C57.2936 108.356 57.268 108.183 57.236 108.017L57.7544 107.921C57.7864 108.097 57.8152 108.273 57.8408 108.452L57.3192 108.526ZM31.94 106.954L31.4312 106.817C31.4803 106.644 31.5315 106.471 31.5848 106.298L32.0872 106.458C32.0264 106.622 31.9784 106.788 31.94 106.954ZM56.7848 106.26C56.7272 106.094 56.6696 105.94 56.6088 105.77L57.1016 105.585C57.1656 105.751 57.2264 105.921 57.284 106.09L56.7848 106.26ZM32.7464 104.772L32.26 104.548C32.3368 104.385 32.4168 104.228 32.5032 104.065L32.9672 104.311C32.9 104.465 32.82 104.618 32.7464 104.775V104.772ZM55.8504 104.132C55.7672 103.982 55.6808 103.831 55.5912 103.684L56.0424 103.412C56.1352 103.566 56.2248 103.732 56.3112 103.879L55.8504 104.132ZM33.9368 102.775L33.5112 102.455C33.6168 102.311 33.7256 102.167 33.8312 102.026L34.244 102.346C34.1448 102.497 34.0392 102.634 33.9368 102.775ZM54.5512 102.202C54.4424 102.068 54.3357 101.937 54.2312 101.809L54.628 101.46C54.7464 101.594 54.8616 101.732 54.9736 101.87L54.5512 102.202ZM35.46 101.018L35.0952 100.638C35.2264 100.513 35.3576 100.391 35.492 100.273L35.8408 100.666C35.7192 100.782 35.5912 100.897 35.46 101.018ZM52.9224 100.535C52.7912 100.42 52.6568 100.311 52.5224 100.215L52.8424 99.8024C52.9832 99.9144 53.1208 100.026 53.2584 100.145L52.9224 100.535ZM37.2744 99.5752L36.9832 99.1368L37.4376 98.8456L37.7128 99.2968C37.572 99.3736 37.4248 99.4664 37.2808 99.5624L37.2744 99.5752ZM51.0344 99.1912L50.5832 98.9384L50.8296 98.4744C50.9896 98.5608 51.1496 98.6472 51.3 98.74L51.0344 99.1912ZM39.3256 98.452L39.1176 97.9688C39.2808 97.8984 39.4376 97.8312 39.6136 97.7672L39.8056 98.2568C39.6424 98.3208 39.4824 98.3848 39.3256 98.452ZM48.9256 98.1864C48.7624 98.1256 48.6056 98.0712 48.4328 98.0168L48.596 97.5144C48.7656 97.572 48.9384 97.6296 49.1048 97.6904L48.9256 98.1864ZM41.54 97.7288L41.4216 97.2168C41.5944 97.1752 41.7704 97.14 41.9496 97.1048L42.0456 97.6232C41.86 97.6552 41.7032 97.6904 41.54 97.7288ZM46.6824 97.5848C46.5128 97.556 46.3432 97.5304 46.1704 97.508L46.2376 96.9864C46.4168 97.0088 46.596 97.0376 46.772 97.0664L46.6824 97.5848ZM43.844 97.412L43.8184 96.8872C43.9976 96.8872 44.1768 96.8872 44.3592 96.8712V97.3992C44.1864 97.3992 44.0136 97.4024 43.8408 97.412H43.844Z" fill="#EBEBEB"/>
<path d="M42.6504 117.7H46.2952V112.202H51.7928V108.558H46.2952V103.06H42.6504V108.558H37.1528V112.202H42.6504V117.7Z" fill="#EBEBEB"/>
<path d="M143.886 61.9048C141.913 64.5423 139.396 66.7249 136.506 68.3048C133.623 66.7231 131.113 64.5405 129.146 61.9048C126.548 58.468 126.676 53.0856 130.391 51.9208C134.5 50.6408 136.519 56.82 136.519 56.82C136.519 56.82 138.567 50.596 142.65 51.9208C146.34 53.14 146.481 58.468 143.886 61.9048Z" fill="#EBEBEB"/>
<path d="M133.61 65.588L132.49 60.9256L131.758 62.5704H127.236V62.0424H131.418L132.638 59.2936L133.511 62.9288L134.746 55.396L135.838 61.3544L136.698 58.868L138.055 62.9416L138.356 62.0424H145.786V62.5672H138.737L138.055 64.6024L136.689 60.5032L135.678 63.4216L134.775 58.4776L133.61 65.588Z" fill="white"/>
<path d="M136.519 70.516C134.177 70.516 131.888 69.8216 129.941 68.5206C127.994 67.2196 126.477 65.3705 125.58 63.207C124.684 61.0435 124.45 58.6629 124.907 56.3661C125.364 54.0694 126.491 51.9597 128.147 50.3039C129.803 48.648 131.913 47.5204 134.209 47.0635C136.506 46.6067 138.887 46.8411 141.05 47.7373C143.214 48.6334 145.063 50.151 146.364 52.0981C147.665 54.0451 148.359 56.3343 148.359 58.676C148.359 61.8162 147.112 64.8277 144.891 67.0481C142.671 69.2686 139.659 70.516 136.519 70.516ZM136.519 47.3864C134.284 47.3864 132.099 48.0493 130.24 49.2912C128.381 50.5331 126.933 52.2983 126.077 54.3636C125.222 56.4288 124.998 58.7013 125.434 60.8938C125.87 63.0862 126.947 65.1001 128.527 66.6808C130.108 68.2615 132.122 69.3379 134.314 69.774C136.507 70.2101 138.779 69.9863 140.844 69.1309C142.91 68.2754 144.675 66.8268 145.917 64.9681C147.159 63.1094 147.822 60.9242 147.822 58.6888C147.821 55.6909 146.63 52.8159 144.511 50.6955C142.391 48.575 139.517 47.3825 136.519 47.38V47.3864Z" fill="#EBEBEB"/>
<path d="M135.94 72.1896C135.761 72.1896 135.582 72.1704 135.402 72.1544L135.447 71.6296C135.617 71.6456 135.79 71.6552 135.966 71.6648L135.94 72.1896ZM137.825 72.1416L137.774 71.6168C137.946 71.6008 138.119 71.5816 138.289 71.5592L138.359 72.0808C138.18 72.1032 137.988 72.1256 137.809 72.1416H137.825ZM133.54 71.8696C133.364 71.8312 133.191 71.7864 133.018 71.7416L133.153 71.2328C133.319 71.2776 133.489 71.3192 133.658 71.3576L133.54 71.8696ZM140.206 71.6968L140.062 71.1912C140.228 71.1432 140.382 71.0952 140.558 71.0408L140.721 71.5432C140.535 71.5976 140.362 71.6488 140.19 71.7L140.206 71.6968ZM131.246 71.124C131.079 71.0536 130.926 70.98 130.753 70.9032L130.977 70.4264L131.45 70.6408L131.246 71.124ZM142.478 70.8328L142.247 70.3592C142.401 70.2856 142.567 70.2056 142.705 70.1256L142.954 70.5864C142.772 70.6728 142.612 70.756 142.452 70.8328H142.478ZM129.111 69.9752C128.961 69.876 128.814 69.7736 128.666 69.6552L128.986 69.2264C129.127 69.3288 129.268 69.4248 129.412 69.5208L129.111 69.9752ZM144.545 69.5784L144.225 69.156C144.366 69.0536 144.5 68.948 144.634 68.836L144.954 69.2488C144.807 69.364 144.666 69.46 144.519 69.5784H144.545ZM127.217 68.468C127.086 68.3432 126.958 68.2152 126.833 68.0872L127.214 67.7224C127.333 67.844 127.455 67.9656 127.578 68.0872L127.217 68.468ZM146.359 67.9784L145.978 67.6136C146.097 67.4888 146.212 67.3608 146.327 67.2328L146.724 67.5784C146.58 67.7128 146.458 67.86 146.334 67.9784H146.359ZM125.62 66.6472C125.514 66.5 125.412 66.356 125.3 66.2056L125.735 65.9112C125.831 66.0552 125.93 66.196 126.033 66.3368L125.62 66.6472ZM147.863 66.0776L147.422 65.7896C147.514 65.6424 147.607 65.4984 147.697 65.348L148.148 65.62C148.03 65.7736 147.934 65.94 147.838 66.0776H147.863ZM124.375 64.5704C124.295 64.4104 124.222 64.2504 124.151 64.084L124.631 63.8728C124.702 64.0296 124.772 64.1928 124.849 64.3432L124.375 64.5704ZM149.015 63.9304L148.532 63.7256C148.599 63.5688 148.663 63.4056 148.724 63.2456L149.217 63.4312C149.111 63.604 149.06 63.7736 148.974 63.9368L149.015 63.9304ZM123.537 62.3016C123.489 62.1288 123.444 61.9528 123.402 61.78L123.914 61.6584C123.953 61.828 123.998 61.9944 124.042 62.1608L123.537 62.3016ZM149.7 61.6296L149.185 61.5144C149.223 61.3448 149.258 61.1752 149.287 61.0056L149.806 61.0984C149.786 61.2776 149.751 61.46 149.7 61.6296ZM123.047 59.924C123.03 59.7469 123.017 59.5677 123.009 59.3864L123.534 59.3608C123.534 59.5336 123.556 59.7064 123.572 59.876L123.047 59.924ZM150.02 59.22L149.492 59.2008C149.492 59.028 149.492 58.8552 149.492 58.6824V58.628H150.02V58.6792C150.02 58.868 150.02 59.0472 150.02 59.22ZM123.575 57.5432L123.054 57.4984C123.054 57.3192 123.086 57.14 123.108 56.9608L123.633 57.028C123.614 57.204 123.594 57.3768 123.578 57.5496L123.575 57.5432ZM149.38 56.8296C149.358 56.6568 149.329 56.4872 149.297 56.3176L149.815 56.2216C149.847 56.3976 149.876 56.5768 149.902 56.7528L149.38 56.8296ZM123.994 55.2584L123.486 55.1208C123.534 54.9448 123.585 54.7752 123.639 54.6024L124.142 54.7624C124.1 54.9256 124.033 55.092 123.988 55.2584H123.994ZM148.846 54.564C148.791 54.4008 148.73 54.244 148.67 54.0776L149.162 53.8888C149.226 54.0595 149.287 54.2291 149.345 54.3976L148.846 54.564ZM124.807 53.076L124.334 52.8488C124.41 52.6856 124.494 52.5288 124.577 52.3688L125.041 52.6152C124.954 52.7656 124.878 52.9224 124.801 53.076H124.807ZM147.911 52.436C147.828 52.2824 147.742 52.1352 147.652 51.988L148.103 51.716C148.196 51.8664 148.286 52.036 148.372 52.18L147.911 52.436ZM126.001 51.076L125.572 50.756C125.679 50.6088 125.785 50.4648 125.892 50.324L126.305 50.644C126.199 50.7976 126.094 50.9384 125.994 51.076H126.001ZM146.612 50.5064C146.503 50.372 146.391 50.2408 146.276 50.1096L146.673 49.764C146.791 49.8984 146.906 50.0328 147.018 50.1736L146.612 50.5064ZM127.527 49.3192L127.162 48.9416C127.294 48.8168 127.425 48.6952 127.559 48.5768L127.902 48.98C127.774 49.0856 127.646 49.2008 127.521 49.3192H127.527ZM144.99 48.836C144.858 48.724 144.724 48.6152 144.59 48.516L144.91 48.1032C145.05 48.2152 145.188 48.3304 145.326 48.4488L144.99 48.836ZM129.345 47.876L129.05 47.4408C129.201 47.3384 129.351 47.2424 129.505 47.1496L129.78 47.6008C129.626 47.6776 129.479 47.7704 129.338 47.8632L129.345 47.876ZM143.105 47.4952C142.958 47.4088 142.807 47.3224 142.654 47.2424L142.9 46.7784C143.06 46.8616 143.22 46.9512 143.37 47.0408L143.105 47.4952ZM131.396 46.7688L131.188 46.2856C131.35 46.2152 131.517 46.148 131.687 46.084L131.876 46.5736C131.697 46.6216 131.54 46.6888 131.38 46.756L131.396 46.7688ZM140.996 46.5C140.833 46.4424 140.676 46.3848 140.506 46.3336L140.666 45.8312C140.839 45.8856 141.009 45.9432 141.178 46.0072L140.996 46.5ZM133.604 46.0456L133.486 45.5304C133.658 45.492 133.834 45.4536 134.014 45.4216L134.11 45.9368C133.927 45.956 133.758 45.9944 133.591 46.0328L133.604 46.0456ZM138.746 45.9016C138.577 45.8728 138.407 45.8472 138.234 45.8248L138.302 45.3032C138.481 45.3256 138.66 45.3512 138.836 45.3832L138.746 45.9016ZM135.908 45.7288L135.886 45.2008C136.062 45.2008 136.241 45.2008 136.423 45.2008V45.7256C136.241 45.7032 136.068 45.7064 135.895 45.716L135.908 45.7288Z" fill="#EBEBEB"/>
<path d="M57.672 57.0201C59.8506 49.0889 55.1872 40.8931 47.256 38.7144C39.3247 36.5358 31.129 41.1992 28.9503 49.1304C26.7716 57.0617 31.435 65.2574 39.3663 67.4361C47.2975 69.6148 55.4933 64.9514 57.672 57.0201Z" fill="#EBEBEB"/>
<path d="M49.3589 66.5701C56.6268 63.6071 60.1165 55.3134 57.1535 48.0455C54.1905 40.7777 45.8968 37.2879 38.629 40.2509C31.3611 43.2139 27.8713 51.5076 30.8343 58.7755C33.7973 66.0433 42.0911 69.5331 49.3589 66.5701Z" fill="#DBDBDB"/>
<path d="M43.9944 66.7208C51.3464 66.7208 57.3064 60.7608 57.3064 53.4088C57.3064 46.0568 51.3464 40.0968 43.9944 40.0968C36.6424 40.0968 30.6824 46.0568 30.6824 53.4088C30.6824 60.7608 36.6424 66.7208 43.9944 66.7208Z" fill="white"/>
<path opacity="0.5" d="M57.0088 50.58C50.9288 54.2536 40.98 60.2792 35.412 63.5816C33.838 62.2544 32.5927 60.5808 31.7736 58.692L50.18 41.62C51.9034 42.5243 53.4078 43.7951 54.5876 45.343C55.7673 46.891 56.5937 48.6785 57.0088 50.58Z" fill="#EBEBEB"/>
<path opacity="0.5" d="M57.3 53.8728C57.2518 55.3541 56.9543 56.8167 56.42 58.1992L39.8152 66.052C39.0914 65.8144 38.3901 65.5135 37.7192 65.1528C42.7336 62.2536 51.8984 56.98 57.3 53.8728Z" fill="#EBEBEB"/>
<path d="M44.1224 41.0632H43.8664V43.0824H44.1224V41.0632Z" fill="#C7C7C7"/>
<path d="M37.9323 42.649L37.7106 42.777L38.7202 44.5257L38.9419 44.3977L37.9323 42.649Z" fill="#C7C7C7"/>
<path d="M33.365 47.1212L33.237 47.3429L34.9857 48.3525L35.1137 48.1308L33.365 47.1212Z" fill="#C7C7C7"/>
<path d="M33.668 53.2808H31.6488V53.5368H33.668V53.2808Z" fill="#C7C7C7"/>
<path d="M34.986 58.4609L33.2374 59.4705L33.3654 59.6922L35.114 58.6826L34.986 58.4609Z" fill="#C7C7C7"/>
<path d="M38.7199 62.2862L37.7115 64.0356L37.9333 64.1634L38.9417 62.414L38.7199 62.2862Z" fill="#C7C7C7"/>
<path d="M44.1224 63.7384H43.8664V65.7576H44.1224V63.7384Z" fill="#C7C7C7"/>
<path d="M49.2694 62.2884L49.0477 62.4164L50.0573 64.1651L50.279 64.0371L49.2694 62.2884Z" fill="#C7C7C7"/>
<path d="M53.1522 58.2884L53.0242 58.5111L54.7809 59.5207L54.9089 59.298L53.1522 58.2884Z" fill="#C7C7C7"/>
<path d="M56.3432 53.2808H54.324V53.5368H56.3432V53.2808Z" fill="#C7C7C7"/>
<path d="M54.6254 47.1271L52.8767 48.1367L53.0047 48.3584L54.7534 47.3488L54.6254 47.1271Z" fill="#C7C7C7"/>
<path d="M50.0574 42.651L49.0484 44.4L49.2701 44.528L50.2791 42.7789L50.0574 42.651Z" fill="#C7C7C7"/>
<path d="M44.1896 41.9752L44.628 54.308L43.364 54.292L43.8472 41.972L44.1896 41.9752Z" fill="#C7C7C7"/>
<path d="M51.8696 49.108L43.5752 54.404L42.9704 53.2936L51.7064 48.8072L51.8696 49.108Z" fill="#A6A6A6"/>
<path d="M44.42 53.4088C44.42 53.4942 44.3946 53.5778 44.3472 53.6488C44.2997 53.7198 44.2322 53.7752 44.1533 53.8079C44.0744 53.8406 43.9875 53.8492 43.9037 53.8325C43.8199 53.8158 43.7429 53.7747 43.6825 53.7143C43.6221 53.6539 43.5809 53.5769 43.5643 53.4931C43.5476 53.4093 43.5562 53.3224 43.5889 53.2435C43.6215 53.1645 43.6769 53.0971 43.748 53.0496C43.819 53.0021 43.9025 52.9768 43.988 52.9768C44.1025 52.9768 44.2124 53.0223 44.2934 53.1033C44.3745 53.1843 44.42 53.2942 44.42 53.4088Z" fill="#C7C7C7"/>
<path d="M36.9288 125.159L32.7304 125.246L30.5992 125.284C29.8856 125.284 29.1688 125.284 28.4552 125.3H28.3144V125.159L28.2952 121.578V121.415H28.4552L32.692 121.434C34.1064 121.434 35.5176 121.47 36.9288 121.486H37.0184V121.572C37.0184 122.177 36.9896 122.782 36.9768 123.38L36.9288 125.159ZM36.9288 125.159L36.884 123.348C36.884 122.753 36.8488 122.164 36.8424 121.578L36.9288 121.665C35.5176 121.681 34.1064 121.716 32.692 121.716L28.4552 121.738L28.6152 121.578V125.159L28.4712 125.015C29.1688 125.015 29.8664 125.015 30.5672 125.031L32.6728 125.07L36.9288 125.159Z" fill="#EBEBEB"/>
<path d="M32.2024 129.674L28.004 129.761L25.8728 129.799C25.1592 129.799 24.4424 129.799 23.7288 129.815H23.588V129.674L23.5688 126.1V125.937H23.7288L27.9656 125.956C29.3768 125.956 30.7912 125.991 32.2024 126.007H32.292V126.1C32.292 126.705 32.2664 127.31 32.2504 127.908L32.2024 129.674ZM32.2024 129.674L32.1576 127.863C32.1416 127.268 32.1224 126.679 32.116 126.094L32.2024 126.18C30.7912 126.196 29.3768 126.231 27.9656 126.231L23.7288 126.25L23.8888 126.094L23.8728 129.674L23.7288 129.53C24.4264 129.53 25.124 129.53 25.8248 129.53L27.9304 129.569L32.2024 129.674Z" fill="#EBEBEB"/>
<path d="M118.852 85.2968L114.65 85.3864L112.519 85.4216C111.809 85.4376 111.092 85.4216 110.378 85.4408H110.238V85.2968L110.222 81.716V81.556H110.382L114.618 81.5784C116.03 81.5784 117.444 81.6136 118.855 81.6296H118.945V81.716C118.945 82.324 118.919 82.9288 118.903 83.5272L118.852 85.2968ZM118.852 85.2968L118.807 83.4888C118.807 82.8936 118.772 82.3016 118.766 81.716L118.852 81.8056C117.441 81.8056 116.026 81.8536 114.615 81.8568L110.378 81.876L110.538 81.716L110.519 85.2968L110.378 85.156C111.076 85.156 111.774 85.156 112.471 85.156L114.577 85.1912L118.852 85.2968Z" fill="#EBEBEB"/>
<path d="M114.126 89.812L109.924 89.9016L107.78 89.94C107.07 89.94 106.353 89.94 105.639 89.9592H105.495V89.8152V86.2344V86.0744H105.655L109.892 86.0968C111.303 86.0968 112.714 86.132 114.129 86.148H114.215V86.2344C114.215 86.8424 114.186 87.4472 114.174 88.0456L114.126 89.812ZM114.126 89.812L114.081 88.004C114.065 87.4088 114.042 86.8168 114.036 86.2312L114.126 86.3208C112.711 86.3368 111.3 86.3688 109.889 86.372L105.652 86.3912L105.812 86.2312L105.793 89.812L105.652 89.6712C106.35 89.6712 107.047 89.6712 107.745 89.6872L109.85 89.7224L114.126 89.812Z" fill="#EBEBEB"/>
<path d="M109.415 85.2968L105.217 85.3864L103.086 85.4216C102.372 85.4376 101.658 85.4216 100.942 85.4408H100.801V85.2968L100.782 81.716V81.556H100.942L105.178 81.5784C106.593 81.5784 108.004 81.6136 109.415 81.6296H109.505V81.716C109.505 82.324 109.476 82.9288 109.463 83.5272L109.415 85.2968ZM109.415 85.2968L109.37 83.4888C109.37 82.8936 109.335 82.3016 109.329 81.716L109.415 81.8056C108.004 81.8056 106.593 81.8536 105.178 81.8568L100.942 81.876L101.102 81.716L101.086 85.2968L100.942 85.156C101.642 85.156 102.337 85.156 103.038 85.156L105.143 85.1912L109.415 85.2968Z" fill="#EBEBEB"/>
<path d="M157.271 129.674L153.07 129.761L150.938 129.799C150.228 129.799 149.511 129.799 148.798 129.815H148.654V129.674L148.638 126.1V125.937H148.798L153.034 125.956C154.446 125.956 155.86 125.991 157.271 126.007H157.358V126.1C157.358 126.705 157.332 127.31 157.316 127.908L157.271 129.674ZM157.271 129.674L157.226 127.863C157.226 127.268 157.188 126.679 157.185 126.094L157.271 126.18C155.86 126.196 154.446 126.231 153.034 126.231L148.798 126.25L148.958 126.094L148.938 129.674L148.798 129.53C149.495 129.53 150.193 129.53 150.89 129.53L152.996 129.569L157.271 129.674Z" fill="#EBEBEB"/>
<path d="M152.545 42.0968L148.343 42.1832L146.212 42.2216C145.502 42.2216 144.785 42.2216 144.071 42.2376H143.94V42.0936V38.5128V38.3496H144.103L148.34 38.3688C149.751 38.3688 151.162 38.404 152.577 38.42H152.663V38.5064C152.663 39.1144 152.634 39.716 152.622 40.3144L152.545 42.0968ZM152.545 42.0968L152.5 40.2856C152.484 39.6904 152.462 39.1016 152.455 38.516L152.545 38.6024C151.13 38.6024 149.719 38.6536 148.308 38.6536L144.071 38.676L144.231 38.516L144.212 42.0968L144.071 41.9528C144.769 41.9528 145.463 41.9528 146.164 41.972L148.27 42.0072L152.545 42.0968Z" fill="#EBEBEB"/>
<path d="M157.271 46.612L153.07 46.6984L150.938 46.7368C150.228 46.7368 149.511 46.7368 148.798 46.7528H148.654V46.612L148.638 43.0312V42.868H148.798L153.034 42.8872C154.446 42.8872 155.86 42.9224 157.271 42.9384H157.358V43.0248C157.358 43.6296 157.332 44.2344 157.316 44.8328L157.271 46.612ZM157.271 46.612L157.226 44.8008C157.226 44.2056 157.188 43.6168 157.185 43.0312L157.271 43.1176C155.86 43.1176 154.446 43.1688 153.034 43.1688L148.798 43.1912L148.958 43.0312L148.938 46.612L148.798 46.468C149.495 46.468 150.193 46.468 150.89 46.4872L152.996 46.5224L157.271 46.612Z" fill="#EBEBEB"/>
<path d="M36.9288 42.0968L32.7304 42.1832L30.5992 42.2216C29.8856 42.2216 29.1688 42.2216 28.4552 42.2376H28.3144V42.0936L28.2952 38.516V38.3528H28.4552L32.692 38.372C34.1064 38.372 35.5176 38.4072 36.9288 38.4232H37.0184V38.5096C37.0184 39.1176 36.9896 39.7192 36.9768 40.3176L36.9288 42.0968ZM36.9288 42.0968L36.884 40.2856C36.884 39.6904 36.8488 39.1016 36.8424 38.516L36.9288 38.6024C35.5176 38.6024 34.1064 38.6536 32.692 38.6536L28.4552 38.676L28.6152 38.516V42.0968L28.4552 41.94C29.1528 41.94 29.8504 41.94 30.5512 41.9592L32.6568 41.9944L36.9288 42.0968Z" fill="#EBEBEB"/>
<path d="M83.1752 46.4776C84.0104 46.452 87.508 45.4696 90.4008 48.3272C93.14 51.0312 95.4216 60.228 96.2248 62.1832C97.028 64.1384 99.7448 64.02 100.74 66.26C101.604 68.2024 100.247 69.1848 100.33 70.6952C100.398 71.8696 101.838 73.4152 101.057 75.2904C100.35 76.996 98.612 76.9384 97.6712 77.588C96.7304 78.2376 96.4744 80.692 94.692 81.6296C92.9096 82.5672 90.9736 81.1144 89.9752 81.284C88.9768 81.4536 88.2824 84.708 84.98 84.9608C81.6776 85.2136 80.2952 82.6056 78.8616 82.276C77.428 81.9464 74.1992 83.428 72.388 81.9912C70.5768 80.5544 69.9528 78.3528 69.124 77.6392C68.2952 76.9256 66.8648 77.2872 65.6968 75.5112C64.5288 73.7352 66.1096 72.2376 66.0968 70.5384C66.0968 69.3544 64.8904 68.4552 65.3288 66.5736C65.9336 63.988 68.9864 64.0328 69.7224 61.3576C70.2984 59.2616 70.7752 50.4776 75.5784 47.5496C78.9064 45.5496 83.1752 46.4776 83.1752 46.4776Z" fill="#263238"/>
<path d="M96.0488 61.7096C96.314 62.1103 96.6732 62.4399 97.0952 62.6696L98.3016 63.4152C99.1173 63.8586 99.8581 64.4277 100.497 65.1016C100.794 65.4232 101.013 65.8092 101.136 66.2295C101.259 66.6497 101.284 67.0928 101.207 67.524C101.105 67.9612 100.935 68.38 100.705 68.7656C100.437 69.1889 100.233 69.6493 100.1 70.132C100.055 70.6634 100.188 71.1946 100.478 71.6424C100.698 72.0712 100.935 72.4744 101.134 72.8904C101.534 73.7096 101.748 74.6152 101.454 75.4504C101.324 75.8653 101.06 76.2248 100.702 76.4712C100.319 76.7136 99.8929 76.8798 99.4472 76.9608C98.9928 77.0664 98.5256 77.1272 98.0552 77.2072C97.5758 77.2477 97.1197 77.4317 96.7464 77.7352C97.1444 77.4854 97.6045 77.3523 98.0744 77.3512C98.5448 77.3096 99.0184 77.2904 99.4952 77.22C99.9848 77.1587 100.458 77.0021 100.887 76.7592C101.328 76.4874 101.666 76.0764 101.847 75.5912C102.254 74.6312 101.978 73.5368 101.575 72.676C101.377 72.2344 101.14 71.8152 100.935 71.396C100.705 71.0458 100.592 70.6307 100.615 70.212C100.775 69.4248 101.508 68.612 101.674 67.6072C101.762 67.1041 101.727 66.5873 101.573 66.1005C101.419 65.6137 101.149 65.1712 100.788 64.8104C100.089 64.143 99.289 63.591 98.4168 63.1752L97.1368 62.5352C96.7186 62.3421 96.3474 62.0604 96.0488 61.7096Z" fill="#263238"/>
<path d="M71.62 53.1176C70.9608 54.6888 70.66 56.3752 70.2056 57.9944C69.9752 58.804 69.7736 59.6232 69.4856 60.404C69.3564 60.7863 69.1858 61.1532 68.9768 61.4984C68.9345 61.5784 68.8794 61.6508 68.8136 61.7128C68.7554 61.7829 68.6875 61.8443 68.612 61.8952C68.452 62.0168 68.292 62.1288 68.1032 62.2376C67.3713 62.6796 66.6622 63.158 65.9784 63.6712C65.2553 64.2054 64.7162 64.9513 64.436 65.8056C64.3054 66.2431 64.2878 66.7066 64.3848 67.1528C64.5021 67.5808 64.6998 67.9826 64.9672 68.3368C65.476 69.0184 65.9624 69.7032 66.1224 70.5512C66.0904 69.6872 65.6168 68.9064 65.188 68.1928C64.9646 67.8549 64.8061 67.4784 64.7208 67.0824C64.6599 66.6938 64.6996 66.2961 64.836 65.9272C65.1286 65.1765 65.632 64.5264 66.2856 64.0552C66.9659 63.5652 67.6709 63.1102 68.3976 62.692C68.5768 62.5736 68.756 62.452 68.932 62.3144C69.1149 62.1674 69.2672 61.9858 69.38 61.78C69.6048 61.3982 69.7861 60.9925 69.9208 60.5704C70.1916 59.7592 70.4118 58.9321 70.58 58.0936L71.0664 55.5976C71.2023 54.7608 71.3872 53.9327 71.62 53.1176Z" fill="#263238"/>
<path d="M68.2472 77.2104C68.6792 77.6328 68.8264 78.2504 69.0536 78.8104C69.2808 79.3704 69.492 79.9432 69.7416 80.5032C69.9842 81.0744 70.2867 81.6182 70.644 82.1256C71.0103 82.6616 71.5011 83.1008 72.0744 83.4056C73.332 83.9528 74.6696 83.6488 75.8056 83.2488C76.3848 83.044 76.9416 82.8104 77.5112 82.6088C78.0657 82.3794 78.6667 82.2851 79.2648 82.3336C78.6647 82.179 78.0343 82.1857 77.4376 82.3528C76.8392 82.4936 76.2632 82.6728 75.6808 82.8392C74.548 83.1592 73.3128 83.3608 72.3048 82.9032C71.8074 82.6363 71.379 82.2572 71.0536 81.796C70.7001 81.3219 70.3855 80.82 70.1128 80.2952C69.8248 79.7672 69.5656 79.2232 69.2936 78.6952C69.1528 78.4232 69.0088 78.1544 68.852 77.892C68.7117 77.6171 68.5035 77.3825 68.2472 77.2104Z" fill="#263238"/>
<path d="M99.668 150.449H71.9496L70.3016 116.164H95.0696L99.668 150.449Z" fill="#37474F"/>
<path d="M87.3128 116.164L84.3848 139.383L84.3816 139.418L84.3176 139.902L84.1992 140.852L84.0648 141.911L84.0168 142.289L83.9784 142.593L82.9896 150.449H71.9496L70.3016 116.164H87.3128Z" fill="#263238"/>
<path d="M94.0392 150.449H93.3064C93.268 150.145 93.2328 149.844 93.1944 149.54C92.2088 141.54 91.252 133.54 90.42 125.54C90.3432 124.807 90.2664 124.071 90.1928 123.338C90.1928 123.223 90.3784 123.201 90.3944 123.316C90.4616 123.809 90.532 124.302 90.596 124.794C91.78 133.338 92.9064 141.895 94.0392 150.449Z" fill="#263238"/>
<path d="M92.5544 116.138C92.5555 116.147 92.5555 116.156 92.5544 116.164C92.4808 116.506 91.6712 120.263 90.6024 124.804C90.5448 125.05 90.4872 125.3 90.4264 125.55C89.9528 127.53 89.4376 129.626 88.916 131.63C87.7896 135.978 86.6344 139.876 85.8472 141.159C85.7615 141.318 85.6425 141.457 85.4984 141.566C85.2424 141.716 84.6984 141.985 84.0232 142.302L83.5752 142.51L83.1912 142.686C81.6552 143.39 79.8088 144.196 78.9544 144.551V144.618L78.6568 150.455H52.548L55.3128 133.815L58.6504 116.154L92.5544 116.138Z" fill="#37474F"/>
<path d="M87.7544 140.423C84.7168 141.529 81.781 142.896 78.98 144.51C78.9586 144.522 78.9426 144.542 78.9352 144.566C78.9278 144.589 78.9294 144.615 78.9398 144.637C78.9502 144.66 78.9687 144.677 78.9915 144.687C79.0143 144.696 79.0399 144.697 79.0632 144.689C82.0168 143.409 85.0312 142.206 87.9112 140.775C87.9579 140.754 87.9944 140.716 88.0127 140.668C88.031 140.62 88.0296 140.567 88.0088 140.521C87.988 140.474 87.9495 140.438 87.9018 140.419C87.8541 140.401 87.8011 140.402 87.7544 140.423Z" fill="#263238"/>
<path d="M88.644 120.186C88.644 120.084 88.4584 120.062 88.4584 120.186C88.4808 123.706 88.2568 126.778 87.9624 130.058C87.8248 131.578 86.6024 139.978 83.9624 139.377C83.5208 139.274 83.2936 138.839 83.2264 138.174C83.1432 137.37 83.444 136.391 83.5752 135.594C83.8696 133.834 84.1032 132.074 84.2536 130.289C84.5625 126.978 84.5272 123.644 84.148 120.34C84.1442 120.32 84.1336 120.303 84.1182 120.29C84.1027 120.277 84.0833 120.27 84.0632 120.27C84.0432 120.27 84.0238 120.277 84.0083 120.29C83.9928 120.303 83.9823 120.32 83.9784 120.34C83.9784 124.935 83.86 129.521 83.1752 134.074C82.8552 136.26 81.7416 139.553 84.0296 139.892C86.3176 140.231 87.8696 134.718 88.1512 133.207C88.9448 128.98 88.9768 124.449 88.644 120.186Z" fill="#263238"/>
<path d="M84.0328 139.591C83.7963 140.158 83.5975 140.739 83.4376 141.332C83.2693 141.791 83.1858 142.277 83.1912 142.766C83.1912 142.858 83.3256 142.868 83.3736 142.804C83.6484 142.374 83.8556 141.905 83.988 141.412C84.1896 140.871 84.4008 140.337 84.5864 139.793C84.6132 139.719 84.6096 139.638 84.5766 139.568C84.5436 139.497 84.4838 139.442 84.4104 139.415C84.337 139.388 84.256 139.392 84.1852 139.425C84.1144 139.458 84.0596 139.518 84.0328 139.591Z" fill="#263238"/>
<path d="M64.5032 141.338C64.2408 144.378 63.9304 147.418 63.604 150.449H63.3192C63.6392 147.409 64.004 144.369 64.3976 141.335C64.4072 141.268 64.5096 141.268 64.5032 141.338Z" fill="#263238"/>
<path d="M82.42 85.4792C84.8104 93.2744 95.156 121.118 102.094 125.361C106.634 128.135 129.441 129.713 133.828 127.678C136.263 126.545 135.505 108.126 132.634 108.023C129.054 107.895 111.45 107.422 109.502 106.49C107.553 105.559 94.404 87.9752 89.3928 82.6472C80.756 73.4568 80.8264 80.2888 82.42 85.4792Z" fill="#AD6359"/>
<path d="M127.178 106.641L123.927 129.169C123.927 129.169 105.406 129.713 100.356 125.582C93.1592 119.7 82.8392 89.94 81.668 85.284C78.8936 74.244 85.076 76.0872 89.94 81.444C93.0984 84.932 105.524 102.775 110.126 106.062C111.431 107.006 127.178 106.641 127.178 106.641Z" fill="#EBEBEB"/>
<path d="M119.364 128.065C119.745 124.721 121.802 111.105 122.446 108.183C122.49 107.982 122.631 107.959 122.612 108.183C121.713 118.228 120.052 124.823 119.498 128.081C119.482 128.158 119.354 128.151 119.364 128.065Z" fill="#263238"/>
<path d="M95.0792 107.799L98.1736 129.079C98.1736 129.079 63.492 129.591 54.8808 128.986C54.8808 128.986 61.9048 89.2008 71.1624 79.1464C75.7928 74.1192 81.2296 74.4968 84.6952 78.0104C85.572 78.9 96.0328 92.7304 97.1336 98.0072C98.0936 102.666 95.0792 107.799 95.0792 107.799Z" fill="#C2C7D6"/>
<path d="M81.5656 105.425C83.4147 105.258 85.2735 105.227 87.1272 105.332C88.0456 105.399 88.9576 105.505 89.8696 105.633C90.324 105.697 90.7816 105.745 91.236 105.79C91.7142 105.849 92.1978 105.849 92.676 105.79C92.7176 105.79 92.7272 105.847 92.676 105.857C92.2331 105.958 91.7842 106.031 91.332 106.074C90.893 106.105 90.4525 106.105 90.0136 106.074C89.0792 106.017 88.148 105.918 87.2136 105.85C85.332 105.716 83.4504 105.578 81.5624 105.582C81.4824 105.582 81.4792 105.434 81.5656 105.425Z" fill="#263238"/>
<path d="M77.38 107.86C78.8529 107.431 80.3485 107.085 81.86 106.823C82.6152 106.695 83.3736 106.612 84.1384 106.548C84.5 106.519 84.868 106.494 85.2328 106.474C85.5976 106.455 86.0392 106.474 86.4392 106.474C86.4808 106.474 86.4936 106.535 86.4392 106.542C86.0616 106.577 85.6872 106.676 85.3128 106.737L84.18 106.91C83.428 107.028 82.676 107.156 81.9176 107.268C80.4072 107.489 78.9032 107.726 77.3992 108.001C77.3032 107.991 77.2904 107.876 77.38 107.86Z" fill="#263238"/>
<path d="M77.1816 150.449H49.8184C53.0184 130.346 56.8584 109.758 60.5544 99.396C68.5096 77.0568 75.0024 76.2024 75.0024 76.2024V76.228C75.0376 77.172 75.9624 102.494 76.6728 129.274C76.8648 136.372 77.0408 143.572 77.1816 150.449Z" fill="#EBEBEB"/>
<path d="M72.6632 138.452C72.6632 137.671 72.4904 133.972 72.42 133.226C72.42 133.14 72.388 132.967 72.3176 132.967C71.2968 132.967 67.7544 133.329 64.1864 133.329C61.635 133.281 59.0887 133.082 56.5608 132.734C56.4424 132.769 56.4424 136.833 56.3784 138.798C56.2504 142.897 56.4392 147.534 57.3128 148.398C58.9448 149.998 63.2936 149.86 64.6728 149.847C66.052 149.834 70.9128 149.831 72.0552 147.322C72.5416 146.199 72.676 140.478 72.6632 138.452ZM72.0232 142.612C71.9656 144.634 71.9016 146.452 71.124 147.518C70.4584 148.417 68.58 149.322 64.2568 149.319C61.1336 149.319 58.4968 148.746 57.7768 147.914C56.9128 146.919 56.8168 144.058 56.8168 142.35C56.8168 139.991 56.8168 138.106 56.8168 135.751C62.8552 137.153 69.4984 136.462 72.0168 135.953C72.0264 136.052 72.0808 141.028 72.0328 142.612H72.0232ZM72.0392 135.572C64.196 136.58 59.3416 135.738 56.8264 135.252C56.8264 134.497 56.8264 133.908 56.8264 133.15C57.9048 133.422 61.5336 133.854 64.2536 133.854C66.7848 133.854 70.5032 133.502 72.0808 133.313C72.036 133.934 72.068 135.284 72.0488 135.569L72.0392 135.572Z" fill="#DBDBDB"/>
<path d="M74.18 86.7048C72.6408 93.076 64.724 115.738 62.756 117.703C60.4104 120.046 50.1832 127.249 46.6184 117.658C44.148 111.018 60.9352 87.7416 68.868 80.2184C72.74 76.5672 76.756 76.0296 74.18 86.7048Z" fill="#EBEBEB"/>
<path d="M71.4728 98.3144C70.9928 99.2008 70.4648 100.062 69.9464 100.926C70.068 100.606 70.1864 100.286 70.3016 99.9656C70.8008 98.5864 71.2616 97.1912 71.7704 95.8056C71.7896 95.7608 71.7192 95.7448 71.7 95.7864C71.1656 96.9864 70.5992 98.1768 70.0776 99.3864C69.556 100.596 69.1176 101.761 68.644 102.961C67.7128 105.377 66.7688 107.79 65.9048 110.231C65.3935 111.58 64.9556 112.956 64.5928 114.353C64.5928 114.391 64.6408 114.42 64.66 114.382C65.2328 113.226 65.684 112.01 66.1448 110.807C66.6056 109.604 67.0664 108.414 67.5144 107.21C67.9624 106.007 68.4392 104.762 68.9128 103.543C69.1496 102.929 69.396 102.321 69.636 101.71C70.371 100.643 70.996 99.504 71.5016 98.3112C71.508 98.3112 71.4792 98.2984 71.4728 98.3144Z" fill="#263238"/>
<path d="M74.7144 76.2312C73.8611 78.0317 73.0334 79.8451 72.2312 81.6712C71.4312 83.4952 70.6056 85.3064 69.8312 87.1432L69.7352 87.3736L69.9432 87.5144L73.3 89.7832L73.22 89.3C72.308 90.6632 71.4248 92.0424 70.5352 93.4184L70.4488 93.5528L70.4968 93.7C71.396 96.4872 72.2632 99.284 73.2072 102.058C74.1512 104.833 75.076 107.61 76.068 110.378C75.3064 107.545 74.5086 104.726 73.6744 101.921C72.868 99.1048 71.9848 96.3144 71.1336 93.5112L71.0952 93.7928C71.9976 92.4264 72.9064 91.0632 73.7896 89.6808L73.972 89.3928L73.6936 89.2104L70.2952 87.0024L70.4104 87.3736C71.172 85.5336 71.876 83.6712 72.612 81.8216C73.348 79.972 74.0296 78.1 74.7144 76.2312Z" fill="#DBDBDB"/>
<path d="M101.518 150.449H91.636C91.0504 143.527 90.4488 136.292 89.8536 129.178C89.0056 119.012 88.1672 109.092 87.3864 100.676C86.6886 92.8441 85.4559 85.0692 83.6968 77.4056C83.652 77.2104 83.6232 77.0856 83.6168 77.0696C83.6104 77.0536 83.6168 77.0696 83.6168 77.0696C84.0121 77.3158 84.3654 77.6237 84.6632 77.9816C84.673 77.9931 84.6837 78.0038 84.6952 78.0136L84.8008 78.132C84.8292 78.1603 84.8559 78.1902 84.8808 78.2216C86.58 80.0872 89.4216 83.9016 91.9496 87.8216C94.388 91.5976 96.5384 95.4664 97.0696 97.764L97.0984 97.892C97.1144 97.9656 97.1272 98.036 97.14 98.1064C97.2445 98.7156 97.3033 99.3317 97.316 99.9496C97.3397 102.474 96.6867 104.959 95.4248 107.146C95.4165 107.165 95.4068 107.183 95.396 107.201C95.3128 107.342 95.2616 107.415 95.2616 107.415V107.45L98.5 129.62L101.518 150.449Z" fill="#EBEBEB"/>
<path d="M93.7192 91.0664C92.7592 89.524 91.7576 87.9976 90.8072 86.4424C90.7784 86.3976 90.8488 86.3464 90.8808 86.388C91.8408 87.668 92.8008 88.948 93.732 90.2504C93.412 89.556 93.1209 88.8584 92.8424 88.148C92.8104 88.068 92.9224 88.0008 92.9608 88.0808C93.3928 88.9928 93.7801 89.9208 94.1641 90.8552C94.9998 92.0137 95.7404 93.2379 96.3784 94.516C97.7 97.2328 98.2697 100.202 97.5529 103.172C97.3586 103.992 97.0686 104.787 96.6888 105.54C96.4328 106.052 95.5977 107.166 95.6041 107.198C96.1481 110.231 96.5641 113.3 96.9833 116.353C97.4025 119.406 97.8536 122.529 98.2152 125.633C98.4168 127.386 98.5353 129.153 98.8041 130.903C98.8041 130.967 98.7145 130.993 98.7049 130.929C98.4841 129.406 98.1545 127.898 97.8825 126.382C97.6105 124.865 97.3577 123.348 97.1113 121.825C96.6185 118.753 96.1769 115.668 95.7321 112.586C95.4825 110.846 95.2072 109.102 95.0088 107.351C94.9864 107.159 95.7736 105.918 96.0072 105.431C96.3184 104.787 96.5732 104.116 96.7688 103.428C97.1694 102.029 97.2933 100.564 97.1337 99.1176C96.7977 96.1672 95.268 93.54 93.7192 91.0664Z" fill="#263238"/>
<path d="M83.6968 77.4056C84.7166 78.9544 85.7544 80.4893 86.8104 82.0104C87.8728 83.5272 88.9096 85.0632 89.9912 86.564L90.0136 86.2056L87.4152 88.9288L87.2008 89.1528L87.428 89.3736C88.5224 90.4328 89.636 91.4728 90.7464 92.516L90.6536 92.2472C90.2504 95.0696 89.8184 97.8856 89.46 100.714C89.1016 103.543 88.7208 106.369 88.4104 109.204C88.948 106.401 89.4376 103.594 89.908 100.782C90.3784 97.9688 90.8168 95.1528 91.2648 92.34L91.2904 92.18L91.172 92.068C90.0744 91.012 88.9768 89.9528 87.8632 88.916V89.3608L90.4232 86.5896L90.5832 86.4168L90.4456 86.2312C89.3544 84.7368 88.2056 83.2744 87.1048 81.7928C86.004 80.3112 84.852 78.8584 83.6968 77.4056Z" fill="#DBDBDB"/>
<path d="M71.204 81.0024C70.9448 77.2168 75.5304 75.7128 78.3656 75.3224C81.7224 74.8616 83.9592 75.14 85.5752 78.3976C87.2776 81.8312 88.1704 85.8152 88.8392 89.5752C88.964 90.276 90.0584 90.1 89.9336 89.396C89.1624 85.0664 88.0552 76.9864 83.7416 74.6376C79.7704 72.4712 69.6616 74.7656 70.1096 81.1784C70.1576 81.892 71.252 81.7096 71.204 81.0024Z" fill="#455A64"/>
<path d="M92.2344 91.1464C92.3185 91.647 92.2518 92.1613 92.0429 92.624C91.834 93.0866 91.4922 93.4767 91.0611 93.7446C90.63 94.0126 90.1289 94.1463 89.6216 94.1288C89.1142 94.1113 88.6236 93.9434 88.2119 93.6464C87.8003 93.3494 87.4862 92.9367 87.3096 92.4608C87.1331 91.9848 87.102 91.4672 87.2203 90.9735C87.3387 90.4799 87.6011 90.0326 87.9742 89.6884C88.3474 89.3443 88.8145 89.1189 89.316 89.0408C89.6459 88.9873 89.9831 88.9994 90.3083 89.0763C90.6336 89.1532 90.9405 89.2934 91.2115 89.489C91.4825 89.6845 91.7123 89.9315 91.8879 90.2159C92.0634 90.5003 92.1811 90.8165 92.2344 91.1464Z" fill="#263238"/>
<path d="M91.2328 91.3096C91.279 91.6089 91.2354 91.9151 91.1077 92.1896C90.98 92.4642 90.7739 92.6948 90.5153 92.8523C90.2566 93.0098 89.9572 93.0872 89.6546 93.0747C89.3521 93.0622 89.06 92.9603 88.8153 92.782C88.5706 92.6037 88.3841 92.3569 88.2795 92.0728C88.1749 91.7886 88.1568 91.4798 88.2275 91.1854C88.2981 90.891 88.4544 90.6241 88.6767 90.4184C88.8989 90.2127 89.177 90.0774 89.476 90.0296C89.6755 89.9973 89.8795 90.0048 90.0761 90.0518C90.2726 90.0988 90.458 90.1842 90.6213 90.3032C90.7847 90.4223 90.9228 90.5725 91.0278 90.7452C91.1327 90.9179 91.2024 91.1098 91.2328 91.3096Z" fill="#EBEBEB"/>
<path d="M75.0536 92.8616C77.8536 103.495 77.4216 106.094 76.5384 107.316C75.8727 108.171 75.0185 108.861 74.0424 109.332L73.7224 108.631L73.8824 108.98L73.7224 108.631C74.5751 108.212 75.3239 107.609 75.9144 106.865C76.5544 105.982 77.0792 103.588 74.3144 93.0568L75.0536 92.8616Z" fill="#C7C7C7"/>
<path d="M72.3562 109.276L72.8089 110.094C72.904 110.265 73.1201 110.327 73.2917 110.232L75.0105 109.28C75.1821 109.185 75.2442 108.969 75.1491 108.798L74.6964 107.98C74.6014 107.809 74.3852 107.746 74.2136 107.842L72.4948 108.793C72.3232 108.889 72.2612 109.105 72.3562 109.276Z" fill="#263238"/>
<path d="M68.1 93.14C65.9912 101.14 65.4824 105.543 66.5 106.948C67.0904 107.691 67.8393 108.294 68.692 108.711L68.372 109.415C67.3959 108.944 66.5418 108.254 65.876 107.399C64.6664 105.729 65.0952 101.54 67.3576 92.9448L68.1 93.14Z" fill="#C7C7C7"/>
<path d="M67.7251 108.061L67.273 108.879C67.178 109.05 67.2402 109.266 67.4119 109.361L69.1314 110.312C69.303 110.407 69.5192 110.345 69.6141 110.173L70.0662 109.355C70.1612 109.184 70.099 108.968 69.9273 108.873L68.2078 107.922C68.0362 107.827 67.82 107.889 67.7251 108.061Z" fill="#263238"/>
<path d="M67.0984 92.596C67.4503 90.8222 67.9109 89.0717 68.4776 87.3544C68.813 86.5963 69.3457 85.9421 70.02 85.46C70.1736 85.444 70.1064 84.0936 70.02 82.9928C69.9496 82.0328 69.8472 80.8872 70.0808 80.5736C70.2157 80.4286 70.4017 80.3419 70.5994 80.3317C70.7971 80.3216 70.991 80.3888 71.14 80.5192C71.4056 80.804 71.4216 81.9432 71.46 82.9192C71.4984 84.0232 71.5752 85.3704 71.7288 85.3704C72.411 85.8128 72.9763 86.4132 73.3768 87.1208C74.1228 88.8156 74.7389 90.5647 75.22 92.3528C75.4664 93.492 75.092 93.6328 74.7656 93.748C74.3048 93.9048 74.0104 93.588 73.6488 92.3272C73.0728 90.3304 72.3464 86.9672 70.9544 86.9768C69.5752 87.1176 69.0152 90.6792 68.5736 92.6664C68.2952 93.9112 68.0328 94.0296 67.556 93.9208C67.2232 93.8408 66.8808 93.7 67.0984 92.596Z" fill="#263238"/>
<path d="M83.924 76.4328C83.924 76.4328 84.244 82.5992 83.1048 82.7016C79.652 83.0216 75.812 78.2728 75.6008 77.5208C75.5464 77.3288 75.8248 72.5416 76.052 68.82C76.196 66.4264 76.3208 64.4744 76.3208 64.4744L85.1432 69.5304L84.0072 75.972L83.924 76.4328Z" fill="#AD6359"/>
<path d="M85.1432 69.5304L84.0072 75.972C82.2532 75.4056 80.6383 74.4759 79.2676 73.2436C77.8969 72.0113 76.8012 70.504 76.052 68.82C76.196 66.4264 76.3208 64.4744 76.3208 64.4744L77.4312 65.0632L85.1432 69.5304Z" fill="#263238"/>
<path d="M94.2248 59.2712C96.0648 70.6056 89.4824 72.9864 87.0376 73.38C84.82 73.7384 77.22 74.676 74.2184 63.5912C71.2168 52.5064 75.9048 48.0712 80.9384 46.9832C85.972 45.8952 92.3848 47.9368 94.2248 59.2712Z" fill="#AD6359"/>
<path d="M91.46 57.8728C91.1951 57.8563 90.9312 57.8253 90.6696 57.78C90.3883 57.7863 90.1128 57.6997 89.8856 57.5336C89.8247 57.4673 89.7873 57.3828 89.7792 57.2932C89.7711 57.2035 89.7928 57.1137 89.8408 57.0376C89.9584 56.9044 90.1092 56.8046 90.2778 56.7484C90.4464 56.6922 90.6268 56.6816 90.8008 56.7176C91.1708 56.735 91.5206 56.8916 91.78 57.156C91.8332 57.2186 91.8675 57.2949 91.8792 57.3761C91.8908 57.4573 91.8792 57.5402 91.8457 57.6152C91.8123 57.6901 91.7583 57.7541 91.6901 57.7997C91.6218 57.8452 91.5421 57.8706 91.46 57.8728Z" fill="#263238"/>
<path d="M83.78 58.8584C84.0456 58.8008 84.2792 58.7048 84.5352 58.6248C84.8145 58.5799 85.0711 58.4437 85.2648 58.2376C85.313 58.1613 85.3345 58.0712 85.3258 57.9814C85.3171 57.8916 85.2788 57.8072 85.2168 57.7416C85.0762 57.6288 84.9078 57.5559 84.7294 57.5306C84.5509 57.5053 84.3689 57.5284 84.2024 57.5976C83.8427 57.6835 83.5278 57.9002 83.3192 58.2056C83.2764 58.2783 83.2556 58.3618 83.259 58.4461C83.2625 58.5303 83.2903 58.6118 83.3389 58.6807C83.3875 58.7496 83.455 58.8031 83.5333 58.8346C83.6115 58.8661 83.6972 58.8744 83.78 58.8584Z" fill="#263238"/>
<path d="M85.9336 61.4408C85.9336 61.412 85.8792 61.4824 85.8824 61.5144C85.9976 62.2888 85.9976 63.1944 85.3224 63.5336C85.3032 63.5336 85.3224 63.5816 85.3224 63.5752C86.1768 63.3576 86.1672 62.1544 85.9336 61.4408Z" fill="#263238"/>
<path d="M85.1464 60.708C83.8888 60.756 84.0776 63.268 85.2456 63.2296C86.4136 63.1912 86.2024 60.6664 85.1464 60.708Z" fill="#263238"/>
<path d="M84.6632 60.8776C84.4552 61.0376 84.2568 61.3064 83.9944 61.3512C83.732 61.396 83.4376 61.1592 83.22 60.9192C83.1976 60.8968 83.1752 60.9192 83.1784 60.9544C83.2072 61.4344 83.4312 61.9144 83.9528 61.9496C84.4744 61.9848 84.7368 61.5272 84.82 61.0312C84.836 60.9416 84.74 60.82 84.6632 60.8776Z" fill="#263238"/>
<path d="M90.2184 60.8616C90.2184 60.8296 90.2824 60.8936 90.2824 60.9256C90.3112 61.7064 90.4744 62.596 91.1976 62.8072C91.22 62.8072 91.22 62.8552 91.1976 62.852C90.324 62.7912 90.1192 61.604 90.2184 60.8616Z" fill="#263238"/>
<path d="M90.8584 59.9976C92.1064 59.8184 92.3752 62.3272 91.22 62.4936C90.0648 62.66 89.812 60.1512 90.8584 59.9976Z" fill="#263238"/>
<path d="M91.3992 60.1064C91.6136 60.2184 91.8344 60.4264 92.0744 60.4264C92.3144 60.4264 92.5224 60.1064 92.6696 59.844C92.6856 59.8152 92.708 59.844 92.7112 59.8664C92.7784 60.3464 92.6728 60.8616 92.2216 61.0024C91.7704 61.1432 91.4568 60.7528 91.2904 60.2888C91.2616 60.2056 91.3128 60.0616 91.3992 60.1064Z" fill="#263238"/>
<path d="M86.5832 67.54C86.7752 67.716 86.9704 67.9624 87.2552 67.9784C87.546 67.9641 87.8305 67.8888 88.0904 67.7576C88.0956 67.7549 88.1015 67.7541 88.1072 67.7553C88.1129 67.7564 88.1181 67.7595 88.1218 67.764C88.1255 67.7684 88.1276 67.7741 88.1277 67.7799C88.1278 67.7857 88.126 67.7914 88.1224 67.796C88.0172 67.9503 87.8729 68.0737 87.7041 68.1536C87.5354 68.2335 87.3484 68.2669 87.1624 68.2504C87.001 68.2146 86.854 68.1316 86.74 68.0119C86.626 67.8922 86.5503 67.7413 86.5224 67.5784C86.4968 67.54 86.5544 67.54 86.5832 67.54Z" fill="#263238"/>
<path d="M89.5944 64.4488C89.5944 64.4488 89.8568 65.5976 89.9144 66.148C89.9144 66.1992 89.7864 66.2344 89.5944 66.2632C89.5944 66.2632 89.5944 66.2632 89.5752 66.2632C89.1119 66.3908 88.6224 66.3882 88.1606 66.2555C87.6988 66.1228 87.2825 65.8653 86.9576 65.5112C86.9128 65.46 86.9768 65.3992 87.0312 65.428C87.7729 65.8445 88.6292 66.0106 89.4728 65.9016C89.4984 65.748 88.9576 63.9496 89.044 63.9368C89.4766 63.9347 89.9074 63.9929 90.324 64.1096C89.8472 61.7 88.9864 59.3864 88.548 56.98C88.5467 56.963 88.5511 56.9461 88.5605 56.9318C88.5698 56.9176 88.5837 56.9069 88.5998 56.9014C88.6159 56.8959 88.6334 56.8959 88.6495 56.9015C88.6656 56.907 88.6795 56.9177 88.6888 56.932C89.7608 59.2936 90.372 62.052 90.9288 64.5288C90.9864 64.836 89.8216 64.5224 89.5944 64.4488Z" fill="#263238"/>
<path d="M88.9704 66.1544C88.7129 66.5246 88.3632 66.8213 87.956 67.0152C87.7314 67.1164 87.4803 67.1433 87.2392 67.092C86.7144 66.98 86.6824 66.5032 86.7592 66.0904C86.8014 65.8696 86.8702 65.6547 86.964 65.4504C87.5396 65.8951 88.2433 66.142 88.9704 66.1544Z" fill="#263238"/>
<path d="M87.956 67.0152C87.7314 67.1164 87.4803 67.1433 87.2392 67.092C86.7144 66.98 86.6824 66.5032 86.7592 66.0904C87.316 66.1256 87.8856 66.4776 87.956 67.0152Z" fill="#FF99BA"/>
<path d="M74.2184 64.02C74.9573 63.6657 75.5915 63.1255 76.0588 62.4523C76.5261 61.7792 76.8105 60.9961 76.884 60.18C78.8941 59.3105 80.636 57.9209 81.9304 56.1544C81.8536 56.3912 81.2904 58.0968 80.9704 58.9544C88.2536 57.6296 90.5321 52.0712 90.5321 52.0712C92.8841 54.436 93.3481 55.9464 93.6841 56.6984C93.6841 56.6984 93.7609 52.2184 91.4761 49.2328C90.7079 48.1966 89.653 47.4082 88.4416 46.9651C87.2302 46.5221 85.9155 46.4438 84.66 46.74C82.9457 46.1479 81.0948 46.075 79.3392 46.5304C77.5837 46.9858 76.0016 47.9493 74.7912 49.3C70.0392 54.42 74.2184 64.02 74.2184 64.02Z" fill="#263238"/>
<path d="M86.5128 57.7928C85.341 58.4268 84.0813 58.883 82.7752 59.1464C82.7752 59.1464 82.7592 59.1464 82.7752 59.1464C84.8229 58.5969 86.6776 57.489 88.132 55.9464C88.7497 55.2868 89.2809 54.5513 89.7128 53.7576C90.2197 52.9076 90.5535 51.9658 90.6952 50.9864C90.6983 50.9738 90.7054 50.9626 90.7156 50.9546C90.7257 50.9466 90.7383 50.9423 90.7512 50.9423C90.7642 50.9423 90.7767 50.9466 90.7869 50.9546C90.797 50.9626 90.8042 50.9738 90.8072 50.9864C90.7735 51.9729 90.5733 52.9466 90.2152 53.8664C89.8188 54.7515 89.2647 55.5571 88.58 56.244C87.9664 56.8553 87.2694 57.3768 86.5096 57.7928" fill="#263238"/>
<path d="M84.5128 65.62C83.8422 65.6354 83.1807 65.4623 82.6036 65.1203C82.0264 64.7783 81.5569 64.2813 81.2483 63.6856C80.9397 63.09 80.8045 62.4197 80.858 61.751C80.9115 61.0823 81.1516 60.4421 81.551 59.9031C81.9504 59.3641 82.493 58.9481 83.1172 58.7023C83.7414 58.4564 84.422 58.3907 85.0817 58.5126C85.7413 58.6345 86.3535 58.939 86.8487 59.3916C87.3438 59.8442 87.702 60.4267 87.8824 61.0728C88.1372 61.9885 88.0181 62.9679 87.5513 63.7959C87.0845 64.6239 86.3082 65.2327 85.3928 65.4888C85.1059 65.5681 84.8104 65.6122 84.5128 65.62ZM84.3592 58.932C84.1004 58.9376 83.8434 58.9763 83.5944 59.0472C82.8351 59.2611 82.1859 59.7563 81.7789 60.432C81.3719 61.1078 81.2377 61.9132 81.4037 62.6844C81.5697 63.4556 82.0234 64.1345 82.6724 64.5829C83.3214 65.0314 84.1169 65.2156 84.8969 65.0981C85.677 64.9806 86.3829 64.5702 86.871 63.9505C87.3591 63.3308 87.5927 62.5484 87.5242 61.7625C87.4556 60.9766 87.0902 60.2464 86.5022 59.7206C85.9142 59.1947 85.1478 58.9127 84.3592 58.932Z" fill="#C2C7D6"/>
<path d="M92.6504 64.436C91.2808 64.468 90.004 63.092 89.7416 61.236C89.6024 60.3532 89.7434 59.4489 90.1448 58.6504C90.2974 58.2988 90.5376 57.9922 90.8425 57.76C91.1474 57.5277 91.5068 57.3776 91.8864 57.324C92.2659 57.2704 92.6528 57.315 93.0101 57.4537C93.3674 57.5924 93.6832 57.8204 93.9272 58.116C94.5339 58.7738 94.9189 59.6054 95.028 60.4936C95.3032 62.4488 94.3432 64.2088 92.884 64.4136C92.8069 64.4276 92.7288 64.435 92.6504 64.436ZM92.1352 57.78C92.0744 57.7768 92.0136 57.7768 91.9528 57.78C91.6521 57.8373 91.3694 57.9656 91.1284 58.1543C90.8874 58.343 90.695 58.5866 90.5672 58.8648C90.2144 59.5745 90.0925 60.3767 90.2184 61.1592C90.4552 62.8552 91.62 64.1 92.8168 63.9304C94.0136 63.7608 94.7912 62.244 94.5544 60.5512C94.4598 59.7651 94.1245 59.0274 93.5944 58.4392C93.411 58.2332 93.1863 58.0681 92.9349 57.9545C92.6835 57.8409 92.411 57.7815 92.1352 57.78Z" fill="#C2C7D6"/>
<path d="M87.8216 61.5048L87.4632 61.1848C87.94 60.6568 89.0984 59.876 90.0936 60.6792L89.7928 61.0536C88.9 60.3304 87.8632 61.46 87.8216 61.5048Z" fill="#C2C7D6"/>
<path d="M72.1352 64.66L71.684 64.5C71.7576 64.2888 72.436 62.4296 73.4696 62.1096C74.4296 61.812 80.884 61.5112 81.1496 61.5016L81.172 61.9784C79.3256 62.0616 74.3528 62.3368 73.6072 62.5672C72.9288 62.7656 72.3144 64.1352 72.1352 64.66Z" fill="#C2C7D6"/>
<path d="M76.1608 64.1704C76.1608 64.1704 73.396 60.7816 71.8376 61.796C70.2792 62.8104 72.548 67.86 74.5 68.4136C74.7457 68.5037 75.0071 68.5431 75.2684 68.5295C75.5297 68.5159 75.7856 68.4495 76.0206 68.3344C76.2556 68.2193 76.4648 68.0578 76.6358 67.8597C76.8067 67.6616 76.9358 67.4309 77.0152 67.1816L76.1608 64.1704Z" fill="#AD6359"/>
<path d="M72.5256 63.2232C72.5188 63.2232 72.5123 63.2259 72.5075 63.2307C72.5027 63.2355 72.5 63.242 72.5 63.2488C72.5 63.2556 72.5027 63.2621 72.5075 63.2669C72.5123 63.2717 72.5188 63.2744 72.5256 63.2744C73.8984 63.716 74.6952 64.9032 75.284 66.1544C74.8488 65.6904 74.2888 65.46 73.6616 65.9816C73.6296 66.0104 73.6616 66.0616 73.7032 66.052C73.9323 65.9597 74.1844 65.9408 74.4246 65.9982C74.6649 66.0555 74.8813 66.1862 75.044 66.372C75.3155 66.6838 75.5526 67.0239 75.7512 67.3864C75.8216 67.5016 76.0328 67.4216 75.9784 67.2872V67.2552C75.8664 65.5432 74.3656 63.2584 72.5256 63.2232Z" fill="#263238"/>
<path d="M75.5432 67.828C75.55 67.8831 75.5454 67.939 75.5296 67.9922C75.5138 68.0454 75.4872 68.0948 75.4514 68.1372C75.4157 68.1797 75.3716 68.2143 75.3218 68.2389C75.2721 68.2635 75.2178 68.2776 75.1623 68.2802C75.1069 68.2829 75.0515 68.2741 74.9996 68.2543C74.9477 68.2346 74.9005 68.2043 74.8609 68.1655C74.8212 68.1266 74.79 68.08 74.7692 68.0285C74.7484 67.9771 74.7385 67.9219 74.74 67.8664C74.7428 67.7648 74.7839 67.6679 74.8551 67.5953C74.9263 67.5227 75.0222 67.4796 75.1238 67.4747C75.2254 67.4699 75.325 67.5036 75.4028 67.5691C75.4806 67.6346 75.5307 67.7271 75.5432 67.828Z" fill="white"/>
<path d="M74.3848 67.188C74.3865 67.2212 74.3816 67.2544 74.3705 67.2857C74.3593 67.317 74.3421 67.3458 74.3198 67.3705C74.2976 67.3952 74.2706 67.4152 74.2406 67.4295C74.2106 67.4437 74.178 67.4519 74.1448 67.4536C74.1116 67.4553 74.0784 67.4504 74.0471 67.4393C74.0158 67.4281 73.987 67.4109 73.9623 67.3886C73.9377 67.3663 73.9176 67.3394 73.9034 67.3094C73.8891 67.2793 73.8809 67.2468 73.8792 67.2136C73.8758 67.1466 73.8992 67.0809 73.9442 67.0311C73.9892 66.9813 74.0522 66.9514 74.1192 66.948C74.1863 66.9446 74.2519 66.968 74.3017 67.013C74.3515 67.058 74.3814 67.121 74.3848 67.188Z" fill="white"/>
<path d="M83.9272 76.7432L82.0072 81.7736L75.684 75.5752L73.9656 77.636C73.9656 77.636 80.2248 87.556 80.2536 87.1016L82.228 82.7592L85.2552 85.6968L84.8712 78.1864L83.9272 76.7432Z" fill="#C2C7D6"/>
<path d="M85.284 81.972C85.1816 80.7336 85.108 79.4856 84.964 78.2536C84.964 78.2088 84.8872 78.1896 84.8776 78.2536C84.6536 79.4536 85.0792 84.1864 85.0952 85.3224C84.9704 85.1944 82.292 82.74 82.2664 82.7816C81.8344 83.4728 80.3848 86.6216 80.2856 86.9224C79.2968 85.348 75.1048 79.14 73.94 77.6424C73.934 77.6326 73.9245 77.6256 73.9134 77.6229C73.9023 77.6202 73.8906 77.6221 73.8808 77.628C73.871 77.6339 73.864 77.6435 73.8613 77.6546C73.8586 77.6657 73.8605 77.6774 73.8664 77.6872C74.7464 79.3544 80.1672 87.5464 80.2408 87.5208C81.0071 86.0276 81.696 84.496 82.3048 82.932C82.7592 83.4696 85.4664 86.244 85.4728 86.0616C85.4823 84.696 85.4193 83.3309 85.284 81.972Z" fill="#263238"/>
<path d="M84.3752 93.012C84.3752 93.012 81.9016 89.748 84.2632 88.2408C86.6248 86.7336 88.5416 90.3528 88.5416 90.3528L84.3752 93.012Z" fill="#455A64"/>
<path d="M103.94 114.49L104.282 118.481L104.404 119.799L103.249 119.143L99.78 117.14L84.2952 92.8712L88.4552 90.212L103.94 114.49Z" fill="#455A64"/>
<path d="M104.292 118.487L104.407 119.802L103.255 119.146L104.292 118.487Z" fill="#37474F"/>
<path d="M88.7222 89.8642L83.8583 92.9676L84.4745 93.9334L89.3384 90.83L88.7222 89.8642Z" fill="#263238"/>
<path d="M89.4 90.9352L84.5361 94.0386L85.1523 95.0044L90.0162 91.901L89.4 90.9352Z" fill="#263238"/>
<path d="M85.1528 94.9992L86.7208 93.9976L91.46 103.332L90.8616 103.665L85.1528 94.9992Z" fill="#263238"/>
<path d="M75.46 101.578C77.8376 101.108 85.06 121.434 81.588 122.295C66.1768 126.135 53.5592 123.716 50.5704 122.295C46.6504 120.417 46.324 115.383 47.9624 113.06C50.82 109.031 71.7736 102.311 75.46 101.578Z" fill="#AD6359"/>
<path d="M105.057 100.5C105.018 102.846 99.2424 102.263 99.2424 102.263C100.076 102.837 100.682 103.685 100.954 104.66C101.354 106.398 98.8072 107.786 98.8072 107.786C99.5458 108.562 100.034 109.542 100.209 110.599C100.423 112.302 98.052 114.068 98.052 114.068C98.3395 115.155 98.2259 116.309 97.732 117.319C96.3016 119.962 80.34 122.516 78.3528 122.878L74.5128 102.078C74.5128 102.078 87.0536 94.9864 90.5128 95.2232C93.4216 95.3992 105.114 96.9064 105.057 100.5Z" fill="#AD6359"/>
<path d="M99.1976 102.186C96.1512 101.226 92.8808 101.006 89.7256 100.823C89.7112 100.823 89.6973 100.829 89.6871 100.839C89.6769 100.849 89.6712 100.863 89.6712 100.878C89.6712 100.892 89.6769 100.906 89.6871 100.916C89.6973 100.926 89.7112 100.932 89.7256 100.932C92.868 101.076 96.0456 102.065 99.1752 102.337C99.1937 102.337 99.2116 102.33 99.2256 102.318C99.2397 102.306 99.2489 102.29 99.2516 102.271C99.2544 102.253 99.2504 102.234 99.2405 102.219C99.2305 102.203 99.2153 102.192 99.1976 102.186Z" fill="#263238"/>
<path d="M98.7272 107.54C98.0144 107.39 97.285 107.334 96.5576 107.374C95.7853 107.374 95.0141 107.38 94.244 107.393C92.6995 107.431 91.1571 107.509 89.6168 107.626C89.5496 107.626 89.54 107.735 89.6168 107.735C91.1528 107.7 92.692 107.687 94.2312 107.716C95.0024 107.716 95.7704 107.751 96.5416 107.777C97.2657 107.848 97.9954 107.84 98.7176 107.751C98.7398 107.745 98.7595 107.731 98.7738 107.713C98.788 107.694 98.7963 107.672 98.7973 107.649C98.7984 107.626 98.7922 107.603 98.7796 107.583C98.7671 107.564 98.7488 107.549 98.7272 107.54Z" fill="#263238"/>
<path d="M97.9848 114.058C97.3896 113.866 96.644 113.985 96.0264 114.014L93.9144 114.1C92.5096 114.148 91.1048 114.196 89.6968 114.196C89.6264 114.196 89.62 114.305 89.6968 114.305C91.1272 114.305 92.5576 114.34 93.9848 114.334C94.6888 114.334 95.3896 114.334 96.0936 114.314C96.6888 114.314 97.4376 114.362 98.0136 114.129C98.0216 114.124 98.0277 114.117 98.0307 114.108C98.0336 114.099 98.0333 114.09 98.0298 114.081C98.0263 114.072 98.0198 114.065 98.0116 114.061C98.0033 114.057 97.9938 114.056 97.9848 114.058Z" fill="#263238"/>
<path d="M73.1176 101.847L80.02 124.75C80.02 124.75 54.8808 125.975 49.4888 122.055C45.7416 119.329 46.052 114.199 47.7448 112.433C51.4408 108.577 73.1176 101.847 73.1176 101.847Z" fill="#EBEBEB"/>
<path d="M73.396 123.86C72.3112 120.66 68.3464 107.476 67.6808 104.567C67.636 104.366 67.7512 104.289 67.828 104.49C71.3096 113.959 72.628 120.634 73.5208 123.812C73.54 123.898 73.4248 123.946 73.396 123.86Z" fill="#263238"/>
<path d="M73.124 101.61C72.9864 101.582 70.564 102.209 69.7896 102.436C68.2771 102.886 66.7752 103.375 65.284 103.902C62.3145 104.948 59.4008 106.146 56.5544 107.492L56.1288 107.697C55.0888 107.946 54.0744 108.305 53.0632 108.638C53.0344 108.638 53.0632 108.692 53.0632 108.682C53.8728 108.414 54.6952 108.202 55.5176 107.985C55.0632 108.206 54.6056 108.43 54.1576 108.663C53.3608 109.076 52.5832 109.521 51.7928 109.943C51.7899 109.944 51.7873 109.946 51.7851 109.949C51.783 109.951 51.7814 109.954 51.7804 109.957C51.7794 109.96 51.779 109.963 51.7794 109.966C51.7797 109.969 51.7807 109.972 51.7823 109.975C51.7839 109.978 51.7861 109.98 51.7886 109.982C51.7912 109.984 51.7942 109.985 51.7973 109.986C51.8004 109.986 51.8036 109.986 51.8067 109.986C51.8098 109.985 51.8127 109.984 51.8152 109.982C53.1432 109.294 54.5224 108.682 55.8856 108.062C57.2488 107.441 58.6696 106.836 60.0776 106.266C62.852 105.143 65.6808 104.138 68.5448 103.255C69.3512 103.009 70.1448 102.772 70.9704 102.542C71.3672 102.43 73.0184 101.87 73.0888 101.863C73.1273 101.922 73.1564 101.987 73.1752 102.055C73.1944 102.122 73.2712 102.122 73.2552 102.055C73.2289 101.902 73.1849 101.753 73.124 101.61Z" fill="#263238"/>
<path d="M76.5288 124.852C75.7992 124.801 73.108 124.932 72.388 124.932C70.9352 124.932 69.4856 124.932 68.0328 124.906C65.1144 124.83 62.2088 124.618 59.3032 124.34C58.5 124.263 57.7032 124.177 56.8904 124.09C56.0776 124.004 55.204 123.94 54.3784 123.79C54.3464 123.79 54.3336 123.834 54.3784 123.841C55.1016 123.946 55.812 124.116 56.532 124.241C57.252 124.366 57.9752 124.474 58.7016 124.577C60.1544 124.782 61.6136 124.926 63.076 125.047C65.9944 125.287 68.932 125.367 71.86 125.313C72.6856 125.297 75.7672 125.169 76.5672 124.993C76.6472 124.99 76.612 124.858 76.5288 124.852Z" fill="#263238"/>
<path d="M124.858 129.354L98.4584 131.268L108.327 96.5096L134.727 94.596L124.858 129.354Z" fill="white"/>
<path d="M126.663 129.223L100.266 131.137L110.135 96.3784L136.532 94.4648L126.663 129.223Z" fill="#37474F"/>
<path d="M112.938 96.18C112.872 96.4793 112.746 96.7623 112.569 97.0128C112.392 97.2632 112.168 97.4761 111.908 97.6392C111.668 97.7928 111.588 97.4696 111.815 97.3192C112.148 97.0997 112.396 96.7736 112.519 96.3944C112.535 96.3336 112.554 96.2632 112.564 96.2024C112.621 95.9928 112.621 95.772 112.564 95.5624C112.537 95.4722 112.479 95.3942 112.401 95.3416C112.393 95.3377 112.387 95.3323 112.382 95.3256C112.382 95.3256 112.353 95.3256 112.35 95.3256C112.333 95.3278 112.315 95.3278 112.298 95.3256C112.235 95.3181 112.171 95.328 112.113 95.3544C112.001 95.4029 111.902 95.4775 111.825 95.572C111.73 95.6846 111.65 95.8095 111.588 95.9432C111.55 96.0084 111.516 96.0757 111.486 96.1448V96.1928C111.474 96.2149 111.465 96.2386 111.46 96.2632C111.46 96.2632 111.441 96.292 111.444 96.308L111.07 96.3368C111.146 96.0976 111.254 95.8694 111.39 95.6584C111.489 95.4767 111.626 95.3184 111.791 95.1942C111.957 95.0699 112.147 94.9827 112.35 94.9384C112.5 94.922 112.651 94.9649 112.771 95.0582C112.89 95.1514 112.969 95.2875 112.99 95.4376C113.035 95.6855 113.017 95.9407 112.938 96.18Z" fill="#C2C7D6"/>
<path d="M115.006 96.02C114.868 96.6233 114.498 97.1477 113.975 97.4792C113.732 97.6328 113.655 97.3096 113.882 97.1592C114.215 96.9405 114.463 96.614 114.583 96.2344C114.604 96.1716 114.62 96.1075 114.631 96.0424C114.688 95.8328 114.688 95.612 114.631 95.4024C114.603 95.3119 114.544 95.2339 114.465 95.1816C114.46 95.1826 114.454 95.1826 114.449 95.1816C114.449 95.1816 114.42 95.1816 114.414 95.1816H114.366C114.302 95.1741 114.238 95.184 114.18 95.2104C114.068 95.2589 113.969 95.3335 113.892 95.428C113.795 95.539 113.715 95.6642 113.655 95.7992C113.617 95.8655 113.583 95.9339 113.553 96.004V96.0488C113.539 96.0704 113.529 96.0942 113.524 96.1192C113.524 96.1352 113.508 96.1512 113.524 96.164L113.15 96.1928C113.225 95.953 113.332 95.7247 113.47 95.5144C113.568 95.3324 113.705 95.1739 113.871 95.0496C114.037 94.9254 114.227 94.8383 114.43 94.7944C114.58 94.7788 114.731 94.8221 114.85 94.9151C114.969 95.0082 115.048 95.1438 115.07 95.2936C115.107 95.5374 115.085 95.7864 115.006 96.02Z" fill="#C2C7D6"/>
<path d="M117.06 95.8792C116.922 96.4839 116.55 97.0095 116.026 97.3416C115.786 97.492 115.706 97.1688 115.934 97.0216C116.267 96.8031 116.516 96.4766 116.638 96.0968C116.638 96.036 116.676 95.9688 116.686 95.908C116.74 95.6981 116.74 95.4779 116.686 95.268C116.659 95.1772 116.602 95.0988 116.522 95.0472H116.503C116.503 95.0472 116.478 95.0472 116.471 95.0472H116.42C116.358 95.0377 116.295 95.0466 116.238 95.0728C116.125 95.1212 116.025 95.1958 115.946 95.2904C115.851 95.403 115.772 95.5279 115.71 95.6616C115.671 95.7256 115.642 95.796 115.607 95.8664V95.9112C115.596 95.9336 115.587 95.9572 115.582 95.9816C115.582 95.9976 115.566 96.0136 115.582 96.0264L115.207 96.0552C115.282 95.8153 115.39 95.587 115.527 95.3768C115.626 95.1953 115.763 95.0373 115.929 94.9136C116.095 94.7899 116.285 94.7034 116.487 94.66C116.638 94.6427 116.789 94.6849 116.908 94.7776C117.028 94.8703 117.106 95.0061 117.127 95.156C117.163 95.399 117.14 95.6469 117.06 95.8792Z" fill="#C2C7D6"/>
<path d="M119.137 95.7288C119.07 96.0283 118.944 96.3116 118.767 96.5625C118.59 96.8135 118.366 97.0271 118.106 97.1912C117.866 97.3448 117.786 97.0184 118.014 96.8712C118.346 96.651 118.594 96.3251 118.718 95.9464C118.734 95.8824 118.753 95.8152 118.762 95.7544C118.819 95.5448 118.819 95.324 118.762 95.1144C118.734 95.0246 118.677 94.9468 118.599 94.8936H118.58C118.58 94.8936 118.551 94.8936 118.548 94.8936H118.497C118.433 94.8829 118.368 94.893 118.311 94.9224C118.199 94.9685 118.1 95.0423 118.023 95.1368C117.928 95.2494 117.848 95.3743 117.786 95.508C117.748 95.5743 117.714 95.6427 117.684 95.7128V95.7576C117.673 95.7802 117.665 95.8038 117.658 95.828C117.658 95.844 117.639 95.86 117.642 95.876L117.268 95.9016C117.344 95.6624 117.452 95.4342 117.588 95.2232C117.687 95.0418 117.824 94.8839 117.99 94.7602C118.156 94.6365 118.346 94.55 118.548 94.5064C118.698 94.4891 118.849 94.5313 118.969 94.624C119.089 94.7167 119.167 94.8525 119.188 95.0024C119.231 95.2451 119.213 95.4945 119.137 95.7288Z" fill="#C2C7D6"/>
<path d="M121.22 95.5784C121.082 96.1823 120.712 96.7076 120.19 97.0408C119.946 97.1944 119.87 96.868 120.097 96.7208C120.429 96.5014 120.676 96.1751 120.798 95.796C120.818 95.7332 120.834 95.669 120.846 95.604C120.902 95.3945 120.902 95.1735 120.846 94.964C120.817 94.8726 120.758 94.7937 120.679 94.74C120.674 94.741 120.668 94.741 120.663 94.74C120.663 94.74 120.634 94.74 120.628 94.74H120.58C120.517 94.7308 120.452 94.7409 120.394 94.7688C120.283 94.8161 120.184 94.8896 120.106 94.9832C120.01 95.0958 119.93 95.222 119.87 95.3576C119.831 95.4224 119.797 95.4898 119.767 95.5592V95.604C119.754 95.6259 119.744 95.6496 119.738 95.6744C119.738 95.6904 119.722 95.7064 119.738 95.7224L119.364 95.748C119.439 95.5082 119.547 95.2799 119.684 95.0696C119.783 94.8883 119.92 94.7305 120.086 94.6069C120.252 94.4832 120.442 94.3966 120.644 94.3528C120.794 94.3363 120.945 94.3788 121.064 94.4714C121.184 94.5639 121.262 94.6993 121.284 94.8488C121.321 95.0936 121.299 95.3438 121.22 95.5784Z" fill="#C2C7D6"/>
<path d="M123.271 95.4312C123.132 96.0346 122.761 96.5588 122.238 96.8904C121.998 97.044 121.918 96.7176 122.145 96.5704C122.478 96.3511 122.726 96.0249 122.849 95.6456C122.865 95.5848 122.887 95.5144 122.897 95.4536C122.952 95.2438 122.952 95.0234 122.897 94.8136C122.87 94.7224 122.812 94.6432 122.734 94.5896H122.714C122.714 94.5896 122.689 94.5896 122.682 94.5896C122.665 94.5918 122.648 94.5918 122.631 94.5896C122.569 94.5811 122.505 94.5911 122.449 94.6184C122.335 94.6657 122.235 94.7405 122.158 94.836C122.062 94.9486 121.983 95.0735 121.921 95.2072C121.882 95.268 121.854 95.3384 121.818 95.4088V95.4568C121.807 95.478 121.798 95.5006 121.793 95.524C121.788 95.5397 121.788 95.5563 121.793 95.572L121.418 95.5976C121.494 95.359 121.601 95.1319 121.738 94.9224C121.838 94.7408 121.975 94.5826 122.14 94.4584C122.306 94.3342 122.496 94.2469 122.698 94.2024C122.849 94.1851 123 94.2273 123.119 94.32C123.239 94.4127 123.318 94.5485 123.338 94.6984C123.375 94.9445 123.352 95.1958 123.271 95.4312Z" fill="#C2C7D6"/>
<path d="M125.335 95.2808C125.268 95.5801 125.143 95.8631 124.966 96.1136C124.789 96.364 124.565 96.5769 124.305 96.74C124.065 96.8936 123.985 96.5704 124.212 96.42C124.545 96.2005 124.793 95.8744 124.916 95.4952C124.932 95.4344 124.951 95.364 124.961 95.3032C125.018 95.0936 125.018 94.8728 124.961 94.6632C124.933 94.573 124.876 94.495 124.798 94.4424C124.79 94.4385 124.784 94.4331 124.778 94.4264C124.778 94.4264 124.75 94.4264 124.746 94.4264C124.729 94.4286 124.712 94.4286 124.695 94.4264C124.632 94.4189 124.568 94.4288 124.51 94.4552C124.398 94.5037 124.299 94.5783 124.222 94.6728C124.125 94.7846 124.046 94.9096 123.985 95.044C123.947 95.1092 123.913 95.1765 123.882 95.2456V95.2936C123.871 95.3162 123.861 95.3398 123.854 95.364C123.854 95.364 123.838 95.3928 123.854 95.4088L123.479 95.4376C123.556 95.1983 123.663 94.9702 123.799 94.7592C123.898 94.5775 124.035 94.4192 124.201 94.295C124.367 94.1707 124.557 94.0835 124.759 94.0392C124.91 94.0228 125.061 94.0657 125.181 94.159C125.3 94.2522 125.378 94.3883 125.399 94.5384C125.44 94.7873 125.418 95.0426 125.335 95.2808Z" fill="#C2C7D6"/>
<path d="M127.402 95.1304C127.265 95.7337 126.894 96.2581 126.372 96.5896C126.129 96.7432 126.052 96.42 126.279 96.2696C126.611 96.0517 126.859 95.7264 126.98 95.348C127 95.2852 127.017 95.221 127.028 95.156C127.083 94.9462 127.083 94.7258 127.028 94.516C127 94.4255 126.941 94.3475 126.862 94.2952C126.856 94.2962 126.851 94.2962 126.846 94.2952C126.846 94.2952 126.817 94.2952 126.81 94.2952H126.762C126.699 94.2876 126.635 94.2976 126.577 94.324C126.465 94.3725 126.366 94.4471 126.289 94.5416C126.191 94.6526 126.112 94.7778 126.052 94.9128C126.014 94.9791 125.98 95.0475 125.95 95.1176V95.1624C125.936 95.184 125.926 95.2078 125.921 95.2328C125.921 95.2488 125.905 95.2648 125.921 95.2776L125.546 95.3064C125.621 95.0666 125.729 94.8383 125.866 94.628C125.965 94.446 126.102 94.2875 126.268 94.1632C126.433 94.039 126.624 93.9519 126.826 93.908C126.977 93.8924 127.128 93.9357 127.247 94.0287C127.366 94.1218 127.445 94.2574 127.466 94.4072C127.503 94.6499 127.481 94.8978 127.402 95.1304Z" fill="#C2C7D6"/>
<path d="M129.47 94.98C129.331 95.5847 128.96 96.1103 128.436 96.4424C128.196 96.5928 128.116 96.2696 128.343 96.1224C128.677 95.9039 128.925 95.5774 129.047 95.1976C129.063 95.1368 129.086 95.0696 129.095 95.0088C129.149 94.7989 129.149 94.5787 129.095 94.3688C129.069 94.278 129.011 94.1996 128.932 94.148H128.913C128.913 94.148 128.887 94.148 128.881 94.148H128.83C128.768 94.1385 128.704 94.1474 128.647 94.1736C128.534 94.222 128.434 94.2966 128.356 94.3912C128.261 94.5038 128.181 94.6287 128.119 94.7624C128.081 94.8264 128.052 94.8968 128.017 94.9672V95.012C128.006 95.0346 127.997 95.0582 127.991 95.0824C127.991 95.0984 127.991 95.1144 127.991 95.1272L127.617 95.156C127.692 94.9161 127.799 94.6878 127.937 94.4776C128.036 94.2961 128.173 94.1381 128.339 94.0144C128.504 93.8907 128.695 93.8042 128.897 93.7608C129.047 93.7435 129.198 93.7857 129.318 93.8784C129.438 93.9711 129.516 94.1069 129.537 94.2568C129.572 94.4998 129.549 94.7477 129.47 94.98Z" fill="#C2C7D6"/>
<path d="M131.534 94.8296C131.466 95.1291 131.341 95.4124 131.164 95.6633C130.987 95.9143 130.763 96.1279 130.503 96.292C130.263 96.4456 130.183 96.1192 130.41 95.972C130.742 95.7511 130.99 95.4255 131.114 95.0472C131.13 94.9832 131.15 94.916 131.159 94.8552C131.215 94.6456 131.215 94.4248 131.159 94.2152C131.131 94.1254 131.074 94.0476 130.996 93.9944H130.977C130.977 93.9944 130.948 93.9944 130.945 93.9944H130.894C130.83 93.9837 130.765 93.9938 130.708 94.0232C130.596 94.0693 130.496 94.1431 130.42 94.2376C130.324 94.3494 130.244 94.4744 130.183 94.6088C130.145 94.6751 130.111 94.7435 130.081 94.8136V94.8584C130.069 94.8809 130.059 94.9045 130.052 94.9288C130.052 94.9448 130.036 94.9608 130.052 94.9768L129.678 95.0024C129.754 94.7632 129.862 94.535 129.998 94.324C130.097 94.1426 130.234 93.9847 130.4 93.861C130.565 93.7373 130.756 93.6508 130.958 93.6072C131.108 93.5899 131.259 93.6321 131.379 93.7248C131.498 93.8175 131.577 93.9533 131.598 94.1032C131.636 94.3469 131.614 94.5964 131.534 94.8296Z" fill="#C2C7D6"/>
<path d="M133.601 94.6792C133.463 95.2831 133.093 95.8084 132.57 96.1416C132.327 96.2952 132.25 95.9688 132.478 95.8216C132.81 95.6022 133.057 95.2759 133.178 94.8968C133.199 94.834 133.215 94.7698 133.226 94.7048C133.282 94.495 133.282 94.2746 133.226 94.0648C133.198 93.9734 133.139 93.8945 133.06 93.8408C133.055 93.8418 133.049 93.8418 133.044 93.8408C133.044 93.8408 133.015 93.8408 133.009 93.8408H132.961C132.897 93.8316 132.833 93.8416 132.775 93.8696C132.663 93.9169 132.565 93.9904 132.487 94.084C132.391 94.1974 132.31 94.3233 132.247 94.4584C132.21 94.5233 132.177 94.5907 132.148 94.66V94.7048C132.135 94.7267 132.125 94.7504 132.119 94.7752C132.119 94.7912 132.103 94.8072 132.119 94.8232L131.745 94.8488C131.82 94.609 131.927 94.3807 132.065 94.1704C132.164 93.9891 132.301 93.8313 132.467 93.7077C132.633 93.584 132.823 93.4974 133.025 93.4536C133.175 93.4371 133.326 93.4796 133.445 93.5722C133.565 93.6647 133.643 93.8001 133.665 93.9496C133.702 94.1944 133.68 94.4446 133.601 94.6792Z" fill="#C2C7D6"/>
<path d="M135.668 94.532C135.529 95.1354 135.157 95.6596 134.634 95.9912C134.394 96.1448 134.314 95.8184 134.542 95.6712C134.875 95.4519 135.123 95.1257 135.246 94.7464C135.262 94.6856 135.281 94.6152 135.294 94.5544C135.349 94.3446 135.349 94.1242 135.294 93.9144C135.267 93.8232 135.209 93.744 135.13 93.6904H135.111C135.111 93.6904 135.086 93.6904 135.079 93.6904C135.062 93.6926 135.045 93.6926 135.028 93.6904C134.966 93.6819 134.902 93.6919 134.846 93.7192C134.732 93.7665 134.632 93.8413 134.554 93.9368C134.459 94.0494 134.38 94.1743 134.318 94.308C134.279 94.3688 134.25 94.4392 134.215 94.5096V94.5576C134.204 94.5789 134.195 94.6014 134.19 94.6248C134.185 94.6405 134.185 94.6571 134.19 94.6728L133.815 94.6984C133.891 94.459 133.999 94.2309 134.135 94.02C134.235 93.8393 134.373 93.6819 134.538 93.5583C134.704 93.4347 134.893 93.3477 135.095 93.3032C135.246 93.2859 135.397 93.3281 135.516 93.4208C135.636 93.5135 135.714 93.6493 135.735 93.7992C135.772 94.0453 135.749 94.2966 135.668 94.532Z" fill="#C2C7D6"/>
<path d="M135.233 102.279C136.631 105.137 140.106 108.679 140.417 111.012C140.513 111.587 140.422 112.177 140.156 112.696C139.89 113.215 139.464 113.634 138.942 113.892C138.942 113.892 141.3 115.034 141.23 117.207C141.191 118.327 139.374 119.249 139.374 119.249C139.374 119.249 141.22 120.247 141.041 122.177C140.894 123.713 139.095 124.417 139.095 124.417C139.095 124.417 140.42 126.193 139.78 127.7C138.465 130.778 125.214 130.932 123.111 126.074C122.129 123.812 125.367 123.95 125.367 123.95C125.367 123.95 120.759 122.628 120.657 119.895C120.554 117.162 124.753 117.598 124.753 117.598C124.753 117.598 120.298 116.276 120.478 113.438C120.666 110.481 124.791 111.633 124.791 111.633C124.791 111.633 121.822 109.668 122.458 107.524C123.508 103.985 129.137 108.356 132.058 107.633L133.61 102.81L135.233 102.279Z" fill="#AD6359"/>
<path d="M137.937 106.423C136.852 103.601 140.321 100.062 139.668 97.2168C138.788 93.3768 134.484 97.1976 133.588 102.817L133.652 107.297L137.937 106.423Z" fill="#AD6359"/>
<path d="M138.82 124.561C138.862 124.561 138.878 124.618 138.82 124.628C134.474 125.742 129.358 125.633 125.162 123.988C125.025 123.934 125.054 123.687 125.217 123.719C129.889 124.583 134.087 124.996 138.82 124.561Z" fill="#263238"/>
<path d="M139.438 119.278C139.489 119.278 139.498 119.358 139.438 119.37C134.958 120.494 129.198 120.212 124.583 117.729C124.423 117.646 124.369 117.409 124.558 117.495C127.754 118.91 135.175 119.7 139.438 119.278Z" fill="#263238"/>
<path d="M124.5 111.351C129.015 113.559 133.78 114.1 138.762 113.95C138.826 113.95 138.823 114.039 138.762 114.055C136.346 114.791 133.166 114.558 130.705 114.164C128.414 113.844 126.247 112.929 124.42 111.511C124.35 111.454 124.42 111.306 124.5 111.351Z" fill="#263238"/>
</svg>
