<svg width="16" height="17" viewBox="0 0 16 17" fill="none" xmlns="http://www.w3.org/2000/svg">
<path d="M7.954 1.87179C8.03656 1.76849 8.13879 1.68258 8.25477 1.61905C8.37076 1.55552 8.49819 1.51562 8.62969 1.50167C8.7612 1.48772 8.89416 1.49999 9.0209 1.53778C9.14763 1.57556 9.2656 1.63811 9.368 1.72179L12.63 4.38579C12.8094 4.53226 12.9324 4.73646 12.978 4.96352C13.0236 5.19058 12.9889 5.42642 12.88 5.63079C12.5948 5.54363 12.2982 5.49948 12 5.49979H11.7L11.998 5.15979L10.28 3.75679L8.863 5.50079H7.574L9.505 3.12479L8.735 2.49579L6.337 5.49979H5.057L7.954 1.87179ZM10.5 10.4998C10.3674 10.4998 10.2402 10.5525 10.1464 10.6462C10.0527 10.74 10 10.8672 10 10.9998C10 11.1324 10.0527 11.2596 10.1464 11.3533C10.2402 11.4471 10.3674 11.4998 10.5 11.4998H11.5C11.6326 11.4998 11.7598 11.4471 11.8536 11.3533C11.9473 11.2596 12 11.1324 12 10.9998C12 10.8672 11.9473 10.74 11.8536 10.6462C11.7598 10.5525 11.6326 10.4998 11.5 10.4998H10.5ZM3 5.99979C3 5.86718 3.05268 5.74001 3.14645 5.64624C3.24021 5.55247 3.36739 5.49979 3.5 5.49979H4.058L4.853 4.49979H3.5C3.10218 4.49979 2.72064 4.65783 2.43934 4.93913C2.15804 5.22044 2 5.60197 2 5.99979V11.9998C2 12.6628 2.26339 13.2987 2.73223 13.7676C3.20107 14.2364 3.83696 14.4998 4.5 14.4998H12C12.5304 14.4998 13.0391 14.2891 13.4142 13.914C13.7893 13.5389 14 13.0302 14 12.4998V8.49979C14 7.96936 13.7893 7.46065 13.4142 7.08558C13.0391 6.71051 12.5304 6.49979 12 6.49979H3.5C3.36739 6.49979 3.24021 6.44711 3.14645 6.35335C3.05268 6.25958 3 6.1324 3 5.99979ZM3 11.9998V7.41479C3.156 7.46979 3.325 7.49979 3.5 7.49979H12C12.2652 7.49979 12.5196 7.60515 12.7071 7.79269C12.8946 7.98022 13 8.23458 13 8.49979V12.4998C13 12.765 12.8946 13.0194 12.7071 13.2069C12.5196 13.3944 12.2652 13.4998 12 13.4998H4.5C4.10218 13.4998 3.72064 13.3418 3.43934 13.0605C3.15804 12.7791 3 12.3976 3 11.9998Z" fill="#FE4D3C"/>
</svg>
