<svg width="138" height="99" viewBox="0 0 138 99" fill="none" xmlns="http://www.w3.org/2000/svg">
<path d="M138 87H0V87.0664H138V87Z" fill="#FAFAFA"/>
<path d="M116.81 89.8906H109.957V89.9571H116.81V89.8906Z" fill="#E0E0E0"/>
<path d="M121.152 89.8555H118.836V89.9219H121.152V89.8555Z" fill="#E0E0E0"/>
<path d="M91.6383 90.3027H77.2891V90.3692H91.6383V90.3027Z" fill="#E0E0E0"/>
<path d="M73.9046 91.0234H71.7656V91.0899H73.9046V91.0234Z" fill="#E0E0E0"/>
<path d="M30.8983 88.9219H27.2109V88.9883H30.8983V88.9219Z" fill="#E0E0E0"/>
<path d="M51.1314 88.9219H32.4297V88.9883H51.1314V88.9219Z" fill="#E0E0E0"/>
<path d="M35.1903 90.5273H22.1797V90.5938H35.1903V90.5273Z" fill="#E0E0E0"/>
<path d="M65.4129 75.1485H12.1201C11.7026 75.1478 11.3024 74.9876 11.0075 74.7031C10.7125 74.4186 10.5469 74.0331 10.5469 73.6311V1.50403C10.5505 1.10438 10.7178 0.722249 11.0123 0.440639C11.3069 0.159028 11.705 0.000684624 12.1201 0H65.4129C65.8309 0 66.2317 0.15986 66.5273 0.444412C66.8228 0.728965 66.9889 1.1149 66.9889 1.51732V73.6311C66.9889 74.0336 66.8228 74.4195 66.5273 74.7041C66.2317 74.9886 65.8309 75.1485 65.4129 75.1485ZM12.1201 0.0531462C11.7209 0.0538501 11.3383 0.207021 11.0563 0.479039C10.7743 0.751056 10.6159 1.11969 10.6159 1.50403V73.6311C10.6159 74.0155 10.7743 74.3841 11.0563 74.6561C11.3383 74.9282 11.7209 75.0813 12.1201 75.082H65.4129C65.8124 75.0813 66.1952 74.9282 66.4777 74.6563C66.7601 74.3844 66.9191 74.0157 66.9199 73.6311V1.50403C66.9191 1.11945 66.7601 0.750818 66.4777 0.478877C66.1952 0.206935 65.8124 0.0538487 65.4129 0.0531462H12.1201Z" fill="#E0E0E0"/>
<path d="M125.114 75.1485H71.8181C71.4004 75.1478 71 74.9877 70.7046 74.7033C70.4092 74.4189 70.2429 74.0333 70.2422 73.6311V1.50403C70.2465 1.10414 70.4144 0.722009 70.7094 0.440472C71.0044 0.158935 71.4028 0.000677157 71.8181 0H125.114C125.528 0.00138299 125.926 0.160036 126.22 0.441571C126.514 0.723106 126.681 1.10484 126.684 1.50403V73.6311C126.684 74.0326 126.519 74.4178 126.225 74.7022C125.93 74.9866 125.531 75.1471 125.114 75.1485ZM71.8181 0.0531462C71.4187 0.0538487 71.0358 0.206935 70.7534 0.478877C70.4709 0.750818 70.3119 1.11945 70.3112 1.50403V73.6311C70.3119 74.0157 70.4709 74.3844 70.7534 74.6563C71.0358 74.9282 71.4187 75.0813 71.8181 75.082H125.114C125.513 75.0813 125.896 74.9282 126.179 74.6563C126.461 74.3844 126.62 74.0157 126.621 73.6311V1.50403C126.62 1.11945 126.461 0.750818 126.179 0.478877C125.896 0.206935 125.513 0.0538487 125.114 0.0531462H71.8181Z" fill="#E0E0E0"/>
<path d="M94.3231 87H104.074V69.9614H94.3231V87Z" fill="#E0E0E0"/>
<path d="M115.708 69.9609H104.074V86.9996H115.708V69.9609Z" fill="#EBEBEB"/>
<g style="mix-blend-mode:multiply" opacity="0.7">
<path d="M94.322 72.1738H115.809V71.4032H94.322V72.1738Z" fill="#E0E0E0"/>
</g>
<path d="M93.7849 71.7266H104.074V68.1764H93.7849V71.7266Z" fill="#E0E0E0"/>
<path d="M116.246 68.1797H104.074V71.7298H116.246V68.1797Z" fill="#EBEBEB"/>
<path d="M53.5591 5.04688H20.7344V42.754H53.5591V5.04688Z" fill="#E0E0E0"/>
<path d="M55.0626 5.04688H21.4375V42.754H55.0626V5.04688Z" fill="#EBEBEB"/>
<path d="M53.5591 42.7539H20.7344V45.4404H53.5591V42.7539Z" fill="#E0E0E0"/>
<path d="M57.5665 42.7539H23.9414V45.4404H57.5665V42.7539Z" fill="#EBEBEB"/>
<path d="M52.9609 40.7277V7.07031L23.5421 7.07031L23.5421 40.7277H52.9609Z" fill="#F5F5F5"/>
<path d="M27.1523 40.7277L39.4923 7.07031H45.3159L32.9787 40.7277H27.1523Z" fill="#FAFAFA"/>
<path d="M24.5123 29.3093C24.4725 29.3086 24.4346 29.2929 24.4068 29.2655C24.3789 29.2382 24.3633 29.2014 24.3633 29.1631V8.38568C24.3633 8.34762 24.379 8.31113 24.4069 8.28422C24.4349 8.25731 24.4728 8.24219 24.5123 8.24219C24.5521 8.24218 24.5903 8.25721 24.6187 8.28405C24.6471 8.31089 24.6634 8.34738 24.6641 8.38568V29.1631C24.6641 29.2019 24.6481 29.2391 24.6197 29.2665C24.5912 29.2939 24.5526 29.3093 24.5123 29.3093Z" fill="#EBEBEB"/>
<path d="M34.2305 40.7277L46.5704 7.07031H48.8419L36.5019 40.7277H34.2305Z" fill="#FAFAFA"/>
<path d="M52.957 40.7277V7.07031H52.6893V40.7277H52.957Z" fill="#E0E0E0"/>
<path d="M55.5581 9.65907H22.7362L22.543 7.85742H55.3649L55.5581 9.65907Z" fill="#E0E0E0"/>
<path d="M55.5581 10.9801H22.7362L22.543 9.17578H55.3649L55.5581 10.9801Z" fill="#E0E0E0"/>
<path d="M55.5581 12.5641H22.7362L22.543 10.7598H55.3649L55.5581 12.5641Z" fill="#E0E0E0"/>
<path d="M55.5581 14.3251H22.7362L22.543 12.5234H55.3649L55.5581 14.3251Z" fill="#E0E0E0"/>
<path d="M55.5581 16.4391H22.7362L22.543 14.6348H55.3649L55.5581 16.4391Z" fill="#E0E0E0"/>
<path d="M55.5581 18.8114H22.7362L22.543 17.0098H55.3649L55.5581 18.8114Z" fill="#E0E0E0"/>
<path d="M113.258 5.04688H80.4336V42.754H113.258V5.04688Z" fill="#E0E0E0"/>
<path d="M114.762 5.04688H81.1367V42.754H114.762V5.04688Z" fill="#EBEBEB"/>
<path d="M113.258 42.7539H80.4336V45.4404H113.258V42.7539Z" fill="#E0E0E0"/>
<path d="M117.266 42.7539H83.6406V45.4404H117.266V42.7539Z" fill="#EBEBEB"/>
<path d="M112.66 40.7277V7.07031L83.2413 7.07031V40.7277H112.66Z" fill="#F5F5F5"/>
<path d="M86.8516 40.7277L99.1915 7.07031H105.015L92.6752 40.7277H86.8516Z" fill="#FAFAFA"/>
<path d="M84.2115 29.3093C84.1718 29.3086 84.1339 29.2929 84.106 29.2655C84.0781 29.2382 84.0625 29.2014 84.0625 29.1631V8.38568C84.0625 8.34762 84.0782 8.31113 84.1062 8.28422C84.1341 8.25731 84.172 8.24219 84.2115 8.24219C84.2511 8.24219 84.289 8.25731 84.3169 8.28422C84.3449 8.31113 84.3606 8.34762 84.3606 8.38568V29.1631C84.3606 29.2014 84.345 29.2382 84.3171 29.2655C84.2892 29.2929 84.2513 29.3086 84.2115 29.3093Z" fill="#EBEBEB"/>
<path d="M93.9297 40.7277L106.27 7.07031H108.538L96.2012 40.7277H93.9297Z" fill="#FAFAFA"/>
<path d="M112.656 40.7277V7.07031H112.389V40.7277H112.656Z" fill="#E0E0E0"/>
<path d="M115.256 9.65907H82.4342L82.2383 7.85742H115.063L115.256 9.65907Z" fill="#E0E0E0"/>
<path d="M115.256 10.9801H82.4342L82.2383 9.17578H115.063L115.256 10.9801Z" fill="#E0E0E0"/>
<path d="M115.256 12.5641H82.4342L82.2383 10.7598H115.063L115.256 12.5641Z" fill="#E0E0E0"/>
<path d="M115.256 14.3251H82.4342L82.2383 12.5234H115.063L115.256 14.3251Z" fill="#E0E0E0"/>
<path d="M115.256 16.4391H82.4342L82.2383 14.6348H115.063L115.256 16.4391Z" fill="#E0E0E0"/>
<path d="M115.256 18.8114H82.4342L82.2383 17.0098H115.063L115.256 18.8114Z" fill="#E0E0E0"/>
<path d="M87.7777 63.1016H81.2227V87.0013H87.7777V63.1016Z" fill="#E0E0E0"/>
<path d="M86.532 87.0006H87.7768V84.0723H85.2266L86.532 87.0006Z" fill="#F5F5F5"/>
<path d="M24.1683 63.1016H17.6133V87.0013H24.1683V63.1016Z" fill="#E0E0E0"/>
<path d="M87.778 63.1016H23.0781V85.391H87.778V63.1016Z" fill="#F5F5F5"/>
<path d="M55.8477 64.2175V80.1348H86.8148V64.2175H55.8477Z" fill="#E0E0E0"/>
<path d="M24.0469 64.2175V80.1348H55.0141V64.2175H24.0469Z" fill="#E0E0E0"/>
<path d="M86.8086 83.497V81.7246H55.8414V83.497H86.8086Z" fill="#E0E0E0"/>
<path d="M55.0078 83.5009V81.7285H24.0406V83.5009H55.0078Z" fill="#E0E0E0"/>
<path d="M50.4308 65.1684H28.6268C28.1427 65.1687 27.6635 65.0747 27.2181 64.8921C26.7727 64.7094 26.3703 64.4418 26.0352 64.1055H53.0335C52.697 64.4431 52.2929 64.7114 51.8455 64.8941C51.3981 65.0769 50.9168 65.1702 50.4308 65.1684Z" fill="#F5F5F5"/>
<path d="M82.3527 65.1684H60.5487C60.0646 65.1687 59.5854 65.0747 59.14 64.8921C58.6946 64.7094 58.2922 64.4418 57.957 64.1055H84.9553C84.6195 64.4439 84.2154 64.7127 83.7679 64.8954C83.3204 65.0782 82.8388 65.1711 82.3527 65.1684Z" fill="#F5F5F5"/>
<path d="M24.3256 87.0006H23.0781V84.0723H25.6284L24.3256 87.0006Z" fill="#F5F5F5"/>
<g style="mix-blend-mode:multiply" opacity="0.4">
<path d="M70.5357 48.4277H63.2383V63.1013H70.5357V48.4277Z" fill="#E0E0E0"/>
</g>
<path d="M76.6653 63.1013H64.3143L63.1523 47.2559H75.5006L76.6653 63.1013Z" fill="#E0E0E0"/>
<path d="M78.0673 63.1013H64.662L63.5 47.2559H76.9026L78.0673 63.1013Z" fill="#F5F5F5"/>
<path d="M65.2846 62.4951L64.2109 47.8613H76.2859L77.3623 62.4951H65.2846Z" fill="#FAFAFA"/>
<path d="M68.2067 59.2176L67.6133 51.1367H73.3624L73.9558 59.2176H68.2067Z" fill="#F5F5F5"/>
<path d="M43.9806 60.4978C45.7518 60.4978 47.1877 59.1154 47.1877 57.41C47.1877 55.7047 45.7518 54.3223 43.9806 54.3223C42.2093 54.3223 40.7734 55.7047 40.7734 57.41C40.7734 59.1154 42.2093 60.4978 43.9806 60.4978Z" fill="#EBEBEB"/>
<path d="M49.4727 61.9705C51.244 61.9705 52.6799 60.588 52.6799 58.8827C52.6799 57.1774 51.244 55.7949 49.4727 55.7949C47.7015 55.7949 46.2656 57.1774 46.2656 58.8827C46.2656 60.588 47.7015 61.9705 49.4727 61.9705Z" fill="#EBEBEB"/>
<path d="M54.9315 59.4985C56.0238 59.0652 56.5445 57.8615 56.0945 56.8099C55.6445 55.7582 54.3942 55.2569 53.302 55.6902C52.2097 56.1234 51.689 57.3271 52.139 58.3788C52.589 59.4304 53.8392 59.9317 54.9315 59.4985Z" fill="#EBEBEB"/>
<path d="M49.3032 55.8737C49.4921 54.7509 48.6999 53.6933 47.5337 53.5115C46.3676 53.3296 45.2691 54.0924 45.0803 55.2151C44.8914 56.3379 45.6836 57.3955 46.8498 57.5773C48.0159 57.7592 49.1144 56.9964 49.3032 55.8737Z" fill="#EBEBEB"/>
<path d="M38.8516 58.3301C38.8516 58.3301 39.1027 63.0999 48.7268 63.0999C58.351 63.0999 58.6021 58.3301 58.6021 58.3301H38.8516Z" fill="#E0E0E0"/>
<path d="M29.9641 61.4668C29.9641 61.4668 26.8288 56.2638 31.1785 52.1211C31.1785 52.1211 32.3129 52.8332 32.2825 53.7925C32.2522 54.7518 31.0654 54.991 31.322 55.7908C31.5787 56.5907 32.702 57.3852 31.9706 58.0362C31.2392 58.6873 32.0893 59.2825 32.0396 60.093C31.99 60.9035 29.9641 61.4668 29.9641 61.4668Z" fill="#E0E0E0"/>
<path d="M30.2033 61.9409C30.2033 61.9409 31.4729 56.0523 25.9888 53.4375C25.9888 53.4375 25.1442 54.4606 25.4754 55.364C25.8066 56.2675 27.021 56.132 27.0403 56.9584C27.0597 57.7848 26.2399 58.8823 27.1618 59.2836C28.0836 59.6848 27.4571 60.5059 27.769 61.2579C28.0809 62.01 30.2033 61.9409 30.2033 61.9409Z" fill="#E0E0E0"/>
<path d="M25.3906 59.2188C25.3906 59.2188 25.4955 63.1011 29.492 63.1011C33.4885 63.1011 33.5933 59.2188 33.5933 59.2188H25.3906Z" fill="#EBEBEB"/>
<path d="M68.998 99.0005C98.5528 99.0005 122.512 97.6537 122.512 95.9924C122.512 94.3311 98.5528 92.9844 68.998 92.9844C39.4432 92.9844 15.4844 94.3311 15.4844 95.9924C15.4844 97.6537 39.4432 99.0005 68.998 99.0005Z" fill="#F5F5F5"/>
<path d="M49.8068 57.7811C49.6431 57.7708 49.4897 57.701 49.3776 57.5857C49.2655 57.4705 49.2031 57.3185 49.2031 57.1607C49.2031 57.0028 49.2655 56.8508 49.3776 56.7356C49.4897 56.6203 49.6431 56.5505 49.8068 56.5402C51.3855 56.5402 52.7158 54.3638 52.7158 51.7863C52.7265 51.6287 52.7991 51.481 52.9188 51.3731C53.0384 51.2651 53.1963 51.2051 53.3603 51.2051C53.5242 51.2051 53.6821 51.2651 53.8018 51.3731C53.9215 51.481 53.994 51.6287 54.0047 51.7863C54.0047 55.1477 52.1666 57.7811 49.8068 57.7811Z" fill="#667499"/>
<path d="M59.5451 57.7811C59.3814 57.7708 59.228 57.701 59.1159 57.5857C59.0038 57.4705 58.9414 57.3185 58.9414 57.1607C58.9414 57.0028 59.0038 56.8508 59.1159 56.7356C59.228 56.6203 59.3814 56.5505 59.5451 56.5402C61.1238 56.5402 62.4541 54.3638 62.4541 51.7863C62.4648 51.6287 62.5374 51.481 62.657 51.3731C62.7767 51.2651 62.9346 51.2051 63.0986 51.2051C63.2625 51.2051 63.4204 51.2651 63.5401 51.3731C63.6597 51.481 63.7323 51.6287 63.743 51.7863C63.7568 55.1477 61.8993 57.7811 59.5451 57.7811Z" fill="#667499"/>
<path d="M69.2794 57.78C69.1158 57.7697 68.9624 57.6999 68.8503 57.5846C68.7382 57.4694 68.6758 57.3174 68.6758 57.1596C68.6758 57.0017 68.7382 56.8497 68.8503 56.7345C68.9624 56.6193 69.1158 56.5494 69.2794 56.5391C70.8554 56.5391 72.1885 54.3627 72.1885 51.7852C72.1885 51.621 72.2562 51.4635 72.3768 51.3474C72.4974 51.2312 72.661 51.166 72.8315 51.166C73.0021 51.166 73.1657 51.2312 73.2863 51.3474C73.4069 51.4635 73.4746 51.621 73.4746 51.7852C73.4829 55.1467 71.642 57.78 69.2794 57.78Z" fill="#667499"/>
<path d="M79.0279 57.78C78.9397 57.7856 78.8513 57.7737 78.7681 57.745C78.6849 57.7163 78.6087 57.6715 78.5442 57.6134C78.4797 57.5552 78.4283 57.4849 78.3931 57.4069C78.358 57.3288 78.3398 57.2446 78.3398 57.1596C78.3398 57.0745 78.358 56.9903 78.3931 56.9122C78.4283 56.8342 78.4797 56.7639 78.5442 56.7057C78.6087 56.6476 78.6849 56.6028 78.7681 56.5741C78.8513 56.5454 78.9397 56.5335 79.0279 56.5391C80.6038 56.5391 81.9369 54.3627 81.9369 51.7852C81.9369 51.621 82.0047 51.4635 82.1253 51.3474C82.2459 51.2312 82.4094 51.166 82.58 51.166C82.7506 51.166 82.9141 51.2312 83.0347 51.3474C83.1553 51.4635 83.2231 51.621 83.2231 51.7852C83.2231 55.1467 81.3794 57.78 79.0279 57.78Z" fill="#667499"/>
<path d="M88.7638 57.7811C88.6002 57.7708 88.4467 57.701 88.3346 57.5857C88.2225 57.4705 88.1602 57.3185 88.1602 57.1607C88.1602 57.0028 88.2225 56.8508 88.3346 56.7356C88.4467 56.6203 88.6002 56.5505 88.7638 56.5402C90.3425 56.5402 91.6728 54.3638 91.6728 51.7863C91.6836 51.6287 91.7561 51.481 91.8758 51.3731C91.9955 51.2651 92.1533 51.2051 92.3173 51.2051C92.4813 51.2051 92.6391 51.2651 92.7588 51.3731C92.8785 51.481 92.951 51.6287 92.9618 51.7863C92.9618 55.1477 91.1181 57.7811 88.7638 57.7811Z" fill="#667499"/>
<path d="M98.5021 57.7811C98.3385 57.7708 98.185 57.701 98.0729 57.5857C97.9608 57.4705 97.8984 57.3185 97.8984 57.1607C97.8984 57.0028 97.9608 56.8508 98.0729 56.7356C98.185 56.6203 98.3385 56.5505 98.5021 56.5402C100.078 56.5402 101.411 54.3638 101.411 51.7863C101.422 51.6287 101.494 51.481 101.614 51.3731C101.734 51.2651 101.892 51.2051 102.056 51.2051C102.22 51.2051 102.377 51.2651 102.497 51.3731C102.617 51.481 102.689 51.6287 102.7 51.7863C102.7 55.1477 100.856 57.7811 98.5021 57.7811Z" fill="#667499"/>
<g opacity="0.3">
<path opacity="0.3" d="M49.8068 57.7792C49.6431 57.7689 49.4897 57.699 49.3776 57.5838C49.2655 57.4685 49.2031 57.3166 49.2031 57.1587C49.2031 57.0008 49.2655 56.8488 49.3776 56.7336C49.4897 56.6184 49.6431 56.5485 49.8068 56.5382C51.3855 56.5382 52.7158 54.3619 52.7158 51.7843C52.7265 51.6268 52.7991 51.479 52.9188 51.3711C53.0384 51.2632 53.1963 51.2031 53.3603 51.2031C53.5242 51.2031 53.6821 51.2632 53.8018 51.3711C53.9215 51.479 53.994 51.6268 54.0047 51.7843C54.0047 55.1458 52.1666 57.7792 49.8068 57.7792Z" fill="black"/>
<path opacity="0.3" d="M59.549 57.7792C59.3853 57.7689 59.2319 57.699 59.1198 57.5838C59.0077 57.4685 58.9453 57.3166 58.9453 57.1587C58.9453 57.0008 59.0077 56.8488 59.1198 56.7336C59.2319 56.6184 59.3853 56.5485 59.549 56.5382C61.1277 56.5382 62.458 54.3619 62.458 51.7843C62.4687 51.6268 62.5413 51.479 62.6609 51.3711C62.7806 51.2632 62.9385 51.2031 63.1025 51.2031C63.2664 51.2031 63.4243 51.2632 63.544 51.3711C63.6636 51.479 63.7362 51.6268 63.7469 51.7843C63.7607 55.1458 61.9032 57.7792 59.549 57.7792Z" fill="black"/>
<path opacity="0.3" d="M69.2794 57.78C69.1158 57.7697 68.9624 57.6999 68.8503 57.5846C68.7382 57.4694 68.6758 57.3174 68.6758 57.1596C68.6758 57.0017 68.7382 56.8497 68.8503 56.7345C68.9624 56.6193 69.1158 56.5494 69.2794 56.5391C70.8554 56.5391 72.1885 54.3627 72.1885 51.7852C72.1885 51.621 72.2562 51.4635 72.3768 51.3474C72.4974 51.2312 72.661 51.166 72.8315 51.166C73.0021 51.166 73.1657 51.2312 73.2863 51.3474C73.4069 51.4635 73.4746 51.621 73.4746 51.7852C73.4829 55.1467 71.642 57.78 69.2794 57.78Z" fill="black"/>
<path opacity="0.3" d="M79.0279 57.78C78.9397 57.7856 78.8513 57.7737 78.7681 57.745C78.6849 57.7163 78.6087 57.6715 78.5442 57.6134C78.4797 57.5552 78.4283 57.4849 78.3931 57.4069C78.358 57.3288 78.3398 57.2446 78.3398 57.1596C78.3398 57.0745 78.358 56.9903 78.3931 56.9122C78.4283 56.8342 78.4797 56.7639 78.5442 56.7057C78.6087 56.6476 78.6849 56.6028 78.7681 56.5741C78.8513 56.5454 78.9397 56.5335 79.0279 56.5391C80.6038 56.5391 81.9369 54.3627 81.9369 51.7852C81.9369 51.621 82.0047 51.4635 82.1253 51.3474C82.2459 51.2312 82.4094 51.166 82.58 51.166C82.7506 51.166 82.9141 51.2312 83.0347 51.3474C83.1553 51.4635 83.2231 51.621 83.2231 51.7852C83.2231 55.1467 81.3794 57.78 79.0279 57.78Z" fill="black"/>
<path opacity="0.3" d="M88.7638 57.7792C88.6002 57.7689 88.4467 57.699 88.3346 57.5838C88.2225 57.4685 88.1602 57.3166 88.1602 57.1587C88.1602 57.0008 88.2225 56.8488 88.3346 56.7336C88.4467 56.6184 88.6002 56.5485 88.7638 56.5382C90.3425 56.5382 91.6728 54.3619 91.6728 51.7843C91.6836 51.6268 91.7561 51.479 91.8758 51.3711C91.9955 51.2632 92.1533 51.2031 92.3173 51.2031C92.4813 51.2031 92.6391 51.2632 92.7588 51.3711C92.8785 51.479 92.951 51.6268 92.9618 51.7843C92.9618 55.1458 91.1181 57.7792 88.7638 57.7792Z" fill="black"/>
<path opacity="0.3" d="M98.5021 57.7792C98.3385 57.7689 98.185 57.699 98.0729 57.5838C97.9608 57.4685 97.8984 57.3166 97.8984 57.1587C97.8984 57.0008 97.9608 56.8488 98.0729 56.7336C98.185 56.6184 98.3385 56.5485 98.5021 56.5382C100.078 56.5382 101.411 54.3619 101.411 51.7843C101.422 51.6268 101.494 51.479 101.614 51.3711C101.734 51.2632 101.892 51.2031 102.056 51.2031C102.22 51.2031 102.377 51.2632 102.497 51.3711C102.617 51.479 102.689 51.6268 102.7 51.7843C102.7 55.1458 100.856 57.7792 98.5021 57.7792Z" fill="black"/>
</g>
<path d="M43.7026 52.4203H106.404C107.245 52.4365 108.051 52.7475 108.67 53.2949C109.29 53.8424 109.68 54.5887 109.769 55.3938L113.241 93.0823C113.283 93.4604 113.241 93.8429 113.119 94.2045C112.996 94.566 112.795 94.8983 112.529 95.1794C112.263 95.4604 111.937 95.6839 111.575 95.835C111.212 95.9861 110.821 96.0614 110.426 96.0558H47.7212C46.8808 96.0385 46.0758 95.7271 45.4566 95.1798C44.8374 94.6325 44.4464 93.8869 44.3567 93.0823L40.8874 55.3938C40.8447 55.0155 40.886 54.6329 41.0086 54.2711C41.1312 53.9094 41.3323 53.577 41.5985 53.2958C41.8648 53.0146 42.19 52.7911 42.5528 52.6402C42.9155 52.4892 43.3075 52.4143 43.7026 52.4203Z" fill="#667499"/>
<path opacity="0.4" d="M43.7026 52.4203H106.404C107.245 52.4365 108.051 52.7475 108.67 53.2949C109.29 53.8424 109.68 54.5887 109.769 55.3938L113.241 93.0823C113.283 93.4604 113.241 93.8429 113.119 94.2045C112.996 94.566 112.795 94.8983 112.529 95.1794C112.263 95.4604 111.937 95.6839 111.575 95.835C111.212 95.9861 110.821 96.0614 110.426 96.0558H47.7212C46.8808 96.0385 46.0758 95.7271 45.4566 95.1798C44.8374 94.6325 44.4464 93.8869 44.3567 93.0823L40.8874 55.3938C40.8447 55.0155 40.886 54.6329 41.0086 54.2711C41.1312 53.9094 41.3323 53.577 41.5985 53.2958C41.8648 53.0146 42.19 52.7911 42.5528 52.6402C42.9155 52.4892 43.3075 52.4143 43.7026 52.4203Z" fill="#FAFAFA"/>
<path d="M105.884 52.42H43.1794C42.35 52.4295 41.5553 52.7418 40.9558 53.2937C40.3564 53.8457 39.997 54.5962 39.9502 55.3935L38.1838 93.082C38.1627 93.4659 38.2233 93.85 38.3618 94.2106C38.5003 94.5712 38.7139 94.9008 38.9893 95.1792C39.2648 95.4576 39.5963 95.6789 39.9637 95.8296C40.3311 95.9802 40.7266 96.0571 41.1259 96.0555H103.836C104.665 96.046 105.46 95.7337 106.059 95.1818C106.659 94.6298 107.018 93.8793 107.065 93.082L108.834 55.3935C108.855 55.009 108.794 54.6244 108.655 54.2634C108.515 53.9025 108.301 53.5727 108.025 53.2942C107.749 53.0158 107.416 52.7947 107.048 52.6443C106.68 52.494 106.284 52.4176 105.884 52.42Z" fill="#667499"/>
<path opacity="0.2" d="M105.884 52.42H43.1794C42.35 52.4295 41.5553 52.7418 40.9558 53.2937C40.3564 53.8457 39.997 54.5962 39.9502 55.3935L38.1838 93.082C38.1627 93.4659 38.2233 93.85 38.3618 94.2106C38.5003 94.5712 38.7139 94.9008 38.9893 95.1792C39.2648 95.4576 39.5963 95.6789 39.9637 95.8296C40.3311 95.9802 40.7266 96.0571 41.1259 96.0555H103.836C104.665 96.046 105.46 95.7337 106.059 95.1818C106.659 94.6298 107.018 93.8793 107.065 93.082L108.834 55.3935C108.855 55.009 108.794 54.6244 108.655 54.2634C108.515 53.9025 108.301 53.5727 108.025 53.2942C107.749 53.0158 107.416 52.7947 107.048 52.6443C106.68 52.494 106.284 52.4176 105.884 52.42Z" fill="#FAFAFA"/>
<path d="M44.3296 86.0963L45.7897 54.9713C45.8072 54.666 45.9447 54.3786 46.1744 54.1673C46.404 53.9561 46.7086 53.8369 47.0261 53.834H101.903C102.056 53.8331 102.208 53.8623 102.349 53.9197C102.49 53.9772 102.617 54.0618 102.722 54.1683C102.828 54.2748 102.91 54.401 102.963 54.539C103.017 54.6771 103.04 54.8242 103.032 54.9713L101.569 86.0963C101.552 86.4016 101.414 86.6891 101.185 86.9003C100.955 87.1115 100.65 87.2307 100.333 87.2336H45.4585C45.3055 87.2345 45.1539 87.2054 45.013 87.1479C44.8722 87.0904 44.745 87.0058 44.6393 86.8993C44.5336 86.7928 44.4516 86.6667 44.3984 86.5286C44.3451 86.3905 44.3217 86.2434 44.3296 86.0963Z" fill="#667499"/>
<path opacity="0.1" d="M44.3296 86.0963L45.7897 54.9713C45.8072 54.666 45.9447 54.3786 46.1744 54.1673C46.404 53.9561 46.7086 53.8369 47.0261 53.834H101.903C102.056 53.8331 102.208 53.8623 102.349 53.9197C102.49 53.9772 102.617 54.0618 102.722 54.1683C102.828 54.2748 102.91 54.401 102.963 54.539C103.017 54.6771 103.04 54.8242 103.032 54.9713L101.569 86.0963C101.552 86.4016 101.414 86.6891 101.185 86.9003C100.955 87.1115 100.65 87.2307 100.333 87.2336H45.4585C45.3055 87.2345 45.1539 87.2054 45.013 87.1479C44.8722 87.0904 44.745 87.0058 44.6393 86.8993C44.5336 86.7928 44.4516 86.6667 44.3984 86.5286C44.3451 86.3905 44.3217 86.2434 44.3296 86.0963Z" fill="#FAFAFA"/>
<path opacity="0.1" d="M42.7833 88.6358L44.3151 55.951C44.3327 55.6304 44.4767 55.3284 44.7178 55.1066C44.9589 54.8849 45.2789 54.7601 45.6123 54.7579H103.241C103.402 54.7565 103.561 54.7869 103.709 54.8471C103.857 54.9073 103.99 54.996 104.101 55.1078C104.212 55.2196 104.298 55.3521 104.354 55.4971C104.41 55.6421 104.434 55.7966 104.425 55.951L102.891 88.6358C102.873 88.9562 102.729 89.2581 102.489 89.4802C102.249 89.7023 101.929 89.828 101.596 89.8316H43.9618C43.8013 89.8326 43.6423 89.8018 43.4947 89.7413C43.347 89.6808 43.2138 89.5917 43.1034 89.4796C42.9929 89.3675 42.9075 89.2348 42.8524 89.0896C42.7974 88.9445 42.7738 88.79 42.7833 88.6358Z" fill="black"/>
<path d="M41.3574 91.2731L42.9555 57.1799C42.9769 56.8465 43.128 56.5332 43.3786 56.3022C43.6292 56.0713 43.961 55.9397 44.3079 55.9336H104.423C104.591 55.9323 104.757 55.9641 104.912 56.027C105.066 56.0899 105.206 56.1825 105.322 56.2993C105.437 56.4161 105.527 56.5544 105.585 56.7059C105.644 56.8573 105.669 57.0187 105.66 57.1799L104.054 91.2731C104.032 91.6065 103.881 91.9198 103.63 92.1508C103.38 92.3817 103.048 92.5133 102.701 92.5194H42.5939C42.4261 92.5211 42.2597 92.4896 42.105 92.4268C41.9503 92.3641 41.8107 92.2714 41.6948 92.1545C41.5789 92.0377 41.4891 91.8992 41.4311 91.7475C41.373 91.5959 41.348 91.4344 41.3574 91.2731Z" fill="#FAFAFA"/>
<path d="M98.4975 57.9762C98.3844 57.9764 98.2725 57.9543 98.1687 57.9113C98.0649 57.8683 97.9713 57.8052 97.8937 57.7261C97.8161 57.6469 97.7562 57.5533 97.7176 57.451C97.6791 57.3486 97.6627 57.2398 97.6695 57.1312C97.68 56.918 97.7747 56.7167 97.9343 56.5685C98.0938 56.4204 98.3062 56.3365 98.5278 56.334C98.6409 56.3338 98.7528 56.3559 98.8566 56.3989C98.9604 56.4419 99.054 56.505 99.1316 56.5841C99.2092 56.6633 99.2691 56.7569 99.3076 56.8592C99.3462 56.9615 99.3626 57.0704 99.3558 57.179C99.3453 57.3922 99.2506 57.5935 99.091 57.7416C98.9315 57.8898 98.7191 57.9737 98.4975 57.9762Z" fill="#667499"/>
<path d="M88.7553 57.9762C88.6422 57.9764 88.5303 57.9543 88.4265 57.9113C88.3227 57.8683 88.2291 57.8052 88.1515 57.7261C88.0739 57.6469 88.014 57.5533 87.9754 57.451C87.9369 57.3486 87.9205 57.2398 87.9273 57.1312C87.9378 56.918 88.0325 56.7167 88.1921 56.5685C88.3516 56.4204 88.564 56.3365 88.7856 56.334C88.8987 56.3338 89.0106 56.3559 89.1144 56.3989C89.2182 56.4419 89.3118 56.505 89.3894 56.5841C89.467 56.6633 89.5269 56.7569 89.5655 56.8592C89.604 56.9615 89.6204 57.0704 89.6136 57.179C89.6037 57.3924 89.5092 57.5941 89.3495 57.7424C89.1898 57.8907 88.9771 57.9744 88.7553 57.9762Z" fill="#667499"/>
<path d="M79.017 57.9762C78.9039 57.9764 78.7921 57.9543 78.6882 57.9113C78.5844 57.8683 78.4908 57.8052 78.4132 57.7261C78.3356 57.6469 78.2757 57.5533 78.2372 57.451C78.1986 57.3486 78.1822 57.2398 78.189 57.1312C78.2002 56.9182 78.2951 56.7173 78.4545 56.5692C78.6139 56.4212 78.8259 56.3371 79.0474 56.334C79.1604 56.3338 79.2723 56.3559 79.3761 56.3989C79.48 56.4419 79.5735 56.505 79.6511 56.5841C79.7287 56.6633 79.7886 56.7569 79.8272 56.8592C79.8657 56.9615 79.8821 57.0704 79.8754 57.179C79.8655 57.3924 79.7709 57.5941 79.6112 57.7424C79.4516 57.8907 79.2389 57.9744 79.017 57.9762Z" fill="#667499"/>
<path d="M69.2787 57.9762C69.1657 57.9764 69.0538 57.9543 68.9499 57.9113C68.8461 57.8683 68.7525 57.8052 68.6749 57.7261C68.5974 57.6469 68.5374 57.5533 68.4989 57.451C68.4603 57.3486 68.4439 57.2398 68.4507 57.1312C68.4626 56.918 68.5581 56.7171 68.718 56.5691C68.8778 56.4211 69.0901 56.337 69.3118 56.334C69.4249 56.3338 69.5368 56.3559 69.6406 56.3989C69.7444 56.4419 69.838 56.505 69.9156 56.5841C69.9932 56.6633 70.0531 56.7569 70.0917 56.8592C70.1302 56.9615 70.1466 57.0704 70.1398 57.179C70.1299 57.3929 70.035 57.5949 69.8747 57.7433C69.7144 57.8917 69.5011 57.975 69.2787 57.9762Z" fill="#667499"/>
<path d="M59.5365 57.9762C59.4235 57.9764 59.3116 57.9543 59.2077 57.9113C59.1039 57.8683 59.0103 57.8052 58.9327 57.7261C58.8552 57.6469 58.7953 57.5533 58.7567 57.451C58.7181 57.3486 58.7017 57.2398 58.7085 57.1312C58.7191 56.918 58.8138 56.7167 58.9733 56.5685C59.1329 56.4204 59.3452 56.3365 59.5669 56.334C59.6799 56.3338 59.7918 56.3559 59.8957 56.3989C59.9995 56.4419 60.0931 56.505 60.1707 56.5841C60.2482 56.6633 60.3081 56.7569 60.3467 56.8592C60.3853 56.9615 60.4017 57.0704 60.3949 57.179C60.3843 57.3922 60.2896 57.5935 60.1301 57.7416C59.9705 57.8898 59.7582 57.9737 59.5365 57.9762Z" fill="#667499"/>
<path d="M49.7982 57.9762C49.6852 57.9764 49.5733 57.9543 49.4695 57.9113C49.3656 57.8683 49.272 57.8052 49.1945 57.7261C49.1169 57.6469 49.057 57.5533 49.0184 57.451C48.9799 57.3486 48.9635 57.2398 48.9702 57.1312C48.9808 56.918 49.0755 56.7167 49.2351 56.5685C49.3946 56.4204 49.6069 56.3365 49.8286 56.334C49.9416 56.3338 50.0535 56.3559 50.1574 56.3989C50.2612 56.4419 50.3548 56.505 50.4324 56.5841C50.51 56.6633 50.5699 56.7569 50.6084 56.8592C50.647 56.9615 50.6634 57.0704 50.6566 57.179C50.6467 57.3924 50.5522 57.5941 50.3925 57.7424C50.2328 57.8907 50.0201 57.9744 49.7982 57.9762Z" fill="#667499"/>
<g opacity="0.1">
<path opacity="0.1" d="M98.4975 57.9762C98.3844 57.9764 98.2725 57.9543 98.1687 57.9113C98.0649 57.8683 97.9713 57.8052 97.8937 57.7261C97.8161 57.6469 97.7562 57.5533 97.7176 57.451C97.6791 57.3486 97.6627 57.2398 97.6695 57.1312C97.68 56.918 97.7747 56.7167 97.9343 56.5685C98.0938 56.4204 98.3062 56.3365 98.5278 56.334C98.6409 56.3338 98.7528 56.3559 98.8566 56.3989C98.9604 56.4419 99.054 56.505 99.1316 56.5841C99.2092 56.6633 99.2691 56.7569 99.3076 56.8592C99.3462 56.9615 99.3626 57.0704 99.3558 57.179C99.3453 57.3922 99.2506 57.5935 99.091 57.7416C98.9315 57.8898 98.7191 57.9737 98.4975 57.9762Z" fill="#FAFAFA"/>
<path opacity="0.1" d="M88.7553 57.9762C88.6422 57.9764 88.5303 57.9543 88.4265 57.9113C88.3227 57.8683 88.2291 57.8052 88.1515 57.7261C88.0739 57.6469 88.014 57.5533 87.9754 57.451C87.9369 57.3486 87.9205 57.2398 87.9273 57.1312C87.9378 56.918 88.0325 56.7167 88.1921 56.5685C88.3516 56.4204 88.564 56.3365 88.7856 56.334C88.8987 56.3338 89.0106 56.3559 89.1144 56.3989C89.2182 56.4419 89.3118 56.505 89.3894 56.5841C89.467 56.6633 89.5269 56.7569 89.5655 56.8592C89.604 56.9615 89.6204 57.0704 89.6136 57.179C89.6037 57.3924 89.5092 57.5941 89.3495 57.7424C89.1898 57.8907 88.9771 57.9744 88.7553 57.9762Z" fill="#FAFAFA"/>
<path opacity="0.1" d="M79.017 57.9762C78.9039 57.9764 78.7921 57.9543 78.6882 57.9113C78.5844 57.8683 78.4908 57.8052 78.4132 57.7261C78.3356 57.6469 78.2757 57.5533 78.2372 57.451C78.1986 57.3486 78.1822 57.2398 78.189 57.1312C78.2002 56.9182 78.2951 56.7173 78.4545 56.5692C78.6139 56.4212 78.8259 56.3371 79.0474 56.334C79.1604 56.3338 79.2723 56.3559 79.3761 56.3989C79.48 56.4419 79.5735 56.505 79.6511 56.5841C79.7287 56.6633 79.7886 56.7569 79.8272 56.8592C79.8657 56.9615 79.8821 57.0704 79.8754 57.179C79.8655 57.3924 79.7709 57.5941 79.6112 57.7424C79.4516 57.8907 79.2389 57.9744 79.017 57.9762Z" fill="#FAFAFA"/>
<path opacity="0.1" d="M69.2787 57.9762C69.1657 57.9764 69.0538 57.9543 68.9499 57.9113C68.8461 57.8683 68.7525 57.8052 68.6749 57.7261C68.5974 57.6469 68.5374 57.5533 68.4989 57.451C68.4603 57.3486 68.4439 57.2398 68.4507 57.1312C68.4626 56.918 68.5581 56.7171 68.718 56.5691C68.8778 56.4211 69.0901 56.337 69.3118 56.334C69.4249 56.3338 69.5368 56.3559 69.6406 56.3989C69.7444 56.4419 69.838 56.505 69.9156 56.5841C69.9932 56.6633 70.0531 56.7569 70.0917 56.8592C70.1302 56.9615 70.1466 57.0704 70.1398 57.179C70.1299 57.3929 70.035 57.5949 69.8747 57.7433C69.7144 57.8917 69.5011 57.975 69.2787 57.9762Z" fill="#FAFAFA"/>
<path opacity="0.1" d="M59.5404 57.9762C59.4274 57.9764 59.3155 57.9543 59.2117 57.9113C59.1078 57.8683 59.0142 57.8052 58.9367 57.7261C58.8591 57.6469 58.7992 57.5533 58.7606 57.451C58.722 57.3486 58.7056 57.2398 58.7124 57.1312C58.723 56.918 58.8177 56.7167 58.9773 56.5685C59.1368 56.4204 59.3491 56.3365 59.5708 56.334C59.6838 56.3338 59.7957 56.3559 59.8996 56.3989C60.0034 56.4419 60.097 56.505 60.1746 56.5841C60.2521 56.6633 60.312 56.7569 60.3506 56.8592C60.3892 56.9615 60.4056 57.0704 60.3988 57.179C60.3882 57.3922 60.2935 57.5935 60.134 57.7416C59.9744 57.8898 59.7621 57.9737 59.5404 57.9762Z" fill="#FAFAFA"/>
<path opacity="0.1" d="M49.7982 57.9762C49.6852 57.9764 49.5733 57.9543 49.4695 57.9113C49.3656 57.8683 49.272 57.8052 49.1945 57.7261C49.1169 57.6469 49.057 57.5533 49.0184 57.451C48.9799 57.3486 48.9635 57.2398 48.9702 57.1312C48.9808 56.918 49.0755 56.7167 49.2351 56.5685C49.3946 56.4204 49.6069 56.3365 49.8286 56.334C49.9416 56.3338 50.0535 56.3559 50.1574 56.3989C50.2612 56.4419 50.3548 56.505 50.4324 56.5841C50.51 56.6633 50.5699 56.7569 50.6084 56.8592C50.647 56.9615 50.6634 57.0704 50.6566 57.179C50.6467 57.3924 50.5522 57.5941 50.3925 57.7424C50.2328 57.8907 50.0201 57.9744 49.7982 57.9762Z" fill="#FAFAFA"/>
</g>
<path d="M52.233 60.9477H47.334C47.263 60.9483 47.1926 60.9346 47.1273 60.9077C47.062 60.8807 47.0033 60.841 46.9548 60.791C46.9063 60.7411 46.8691 60.682 46.8455 60.6175C46.8219 60.553 46.8125 60.4844 46.8179 60.4162C46.8233 60.277 46.8832 60.1448 46.9856 60.0463C47.088 59.9477 47.2252 59.89 47.3699 59.8848H52.2689C52.3399 59.8842 52.4103 59.8979 52.4755 59.9248C52.5408 59.9518 52.5996 59.9915 52.6481 60.0415C52.6966 60.0914 52.7338 60.1505 52.7574 60.215C52.7809 60.2795 52.7903 60.3481 52.785 60.4162C52.7795 60.5555 52.7196 60.6877 52.6173 60.7862C52.5149 60.8848 52.3776 60.9424 52.233 60.9477Z" fill="#667499"/>
<path d="M61.9713 60.9477H57.0723C57.0012 60.9483 56.9309 60.9346 56.8656 60.9077C56.8003 60.8807 56.7416 60.841 56.6931 60.791C56.6446 60.7411 56.6073 60.682 56.5838 60.6175C56.5602 60.5529 56.5508 60.4844 56.5561 60.4162C56.5618 60.2747 56.6236 60.1407 56.7289 60.0418C56.8342 59.9429 56.9749 59.8867 57.1219 59.8848H62.0182C62.0893 59.8842 62.1598 59.8979 62.2252 59.9248C62.2906 59.9518 62.3495 59.9914 62.3983 60.0413C62.447 60.0912 62.4845 60.1503 62.5083 60.2148C62.5322 60.2793 62.542 60.3479 62.5371 60.4162C62.5314 60.5577 62.4696 60.6918 62.3643 60.7907C62.259 60.8896 62.1183 60.9458 61.9713 60.9477Z" fill="#667499"/>
<path d="M71.7121 60.9477H66.8131C66.742 60.9482 66.6715 60.9346 66.6061 60.9077C66.5407 60.8807 66.4818 60.8411 66.433 60.7912C66.3843 60.7412 66.3468 60.6822 66.3229 60.6177C66.299 60.5531 66.2893 60.4846 66.2942 60.4162C66.2999 60.2747 66.3617 60.1407 66.467 60.0418C66.5723 59.9429 66.7129 59.8867 66.86 59.8848H71.7618C71.8328 59.8842 71.9032 59.8979 71.9684 59.9248C72.0337 59.9518 72.0925 59.9915 72.141 60.0415C72.1895 60.0914 72.2267 60.1505 72.2503 60.215C72.2738 60.2795 72.2832 60.3481 72.2779 60.4162C72.2729 60.558 72.2113 60.6924 72.1059 60.7914C72.0004 60.8904 71.8594 60.9464 71.7121 60.9477Z" fill="#667499"/>
<path d="M81.4517 60.9477H76.5527C76.4817 60.9483 76.4113 60.9346 76.3461 60.9077C76.2808 60.8807 76.222 60.841 76.1735 60.791C76.125 60.7411 76.0878 60.682 76.0642 60.6175C76.0407 60.553 76.0313 60.4844 76.0366 60.4162C76.0421 60.277 76.102 60.1448 76.2043 60.0463C76.3067 59.9477 76.444 59.89 76.5886 59.8848H81.4876C81.5586 59.8842 81.629 59.8979 81.6943 59.9248C81.7596 59.9518 81.8183 59.9915 81.8668 60.0415C81.9153 60.0914 81.9525 60.1505 81.9761 60.215C81.9997 60.2795 82.0091 60.3481 82.0037 60.4162C81.9983 60.5555 81.9384 60.6877 81.836 60.7862C81.7336 60.8848 81.5964 60.9424 81.4517 60.9477Z" fill="#667499"/>
<path d="M91.19 60.9477H86.291C86.22 60.9483 86.1496 60.9346 86.0844 60.9077C86.0191 60.8807 85.9603 60.841 85.9118 60.791C85.8633 60.7411 85.8261 60.682 85.8025 60.6175C85.779 60.553 85.7695 60.4844 85.7749 60.4162C85.7805 60.2747 85.8424 60.1407 85.9477 60.0418C86.0529 59.9429 86.1936 59.8867 86.3407 59.8848H91.2397C91.3107 59.8842 91.3811 59.8979 91.4464 59.9248C91.5116 59.9518 91.5704 59.9915 91.6189 60.0415C91.6674 60.0914 91.7046 60.1505 91.7282 60.215C91.7518 60.2795 91.7612 60.3481 91.7558 60.4162C91.7502 60.5577 91.6883 60.6918 91.5831 60.7907C91.4778 60.8896 91.3371 60.9458 91.19 60.9477Z" fill="#667499"/>
<path d="M100.928 60.9477H96.0293C95.9583 60.9483 95.8879 60.9346 95.8226 60.9077C95.7574 60.8807 95.6986 60.841 95.6501 60.791C95.6016 60.7411 95.5644 60.682 95.5408 60.6175C95.5172 60.5529 95.5078 60.4844 95.5132 60.4162C95.5188 60.2747 95.5807 60.1407 95.6859 60.0418C95.7912 59.9429 95.9319 59.8867 96.079 59.8848H100.975C101.046 59.8842 101.117 59.8979 101.182 59.9248C101.248 59.9518 101.307 59.9914 101.355 60.0413C101.404 60.0912 101.441 60.1503 101.465 60.2148C101.489 60.2793 101.499 60.3479 101.494 60.4162C101.488 60.5577 101.427 60.6918 101.321 60.7907C101.216 60.8896 101.075 60.9458 100.928 60.9477Z" fill="#667499"/>
<g opacity="0.3">
<path opacity="0.3" d="M52.233 60.9457H47.334C47.263 60.9463 47.1926 60.9327 47.1273 60.9057C47.062 60.8787 47.0033 60.839 46.9548 60.7891C46.9063 60.7391 46.8691 60.68 46.8455 60.6155C46.8219 60.551 46.8125 60.4825 46.8179 60.4143C46.8233 60.275 46.8832 60.1429 46.9856 60.0443C47.088 59.9458 47.2252 59.8881 47.3699 59.8828H52.2689C52.3399 59.8823 52.4103 59.8959 52.4755 59.9229C52.5408 59.9498 52.5996 59.9896 52.6481 60.0395C52.6966 60.0895 52.7338 60.1486 52.7574 60.2131C52.7809 60.2776 52.7903 60.3461 52.785 60.4143C52.7795 60.5536 52.7196 60.6857 52.6173 60.7843C52.5149 60.8828 52.3776 60.9405 52.233 60.9457Z" fill="black"/>
<path opacity="0.3" d="M61.9752 60.9457H57.0762C57.0051 60.9463 56.9348 60.9327 56.8695 60.9057C56.8042 60.8787 56.7455 60.839 56.697 60.7891C56.6485 60.7391 56.6112 60.68 56.5877 60.6155C56.5641 60.551 56.5547 60.4825 56.5601 60.4143C56.5657 60.2728 56.6275 60.1388 56.7328 60.0399C56.8381 59.941 56.9788 59.8848 57.1259 59.8828H62.0221C62.0932 59.8823 62.1637 59.8959 62.2291 59.9229C62.2945 59.9498 62.3534 59.9895 62.4022 60.0394C62.4509 60.0893 62.4884 60.1484 62.5123 60.2129C62.5361 60.2774 62.5459 60.346 62.541 60.4143C62.5353 60.5558 62.4735 60.6898 62.3682 60.7887C62.2629 60.8876 62.1222 60.9438 61.9752 60.9457Z" fill="black"/>
<path opacity="0.3" d="M71.7121 60.9457H66.8131C66.742 60.9463 66.6715 60.9327 66.6061 60.9057C66.5407 60.8788 66.4818 60.8391 66.433 60.7892C66.3843 60.7393 66.3468 60.6802 66.3229 60.6157C66.299 60.5512 66.2893 60.4826 66.2942 60.4143C66.2999 60.2728 66.3617 60.1388 66.467 60.0399C66.5723 59.941 66.7129 59.8848 66.86 59.8828H71.7618C71.8328 59.8823 71.9032 59.8959 71.9684 59.9229C72.0337 59.9498 72.0925 59.9896 72.141 60.0395C72.1895 60.0895 72.2267 60.1486 72.2503 60.2131C72.2738 60.2776 72.2832 60.3461 72.2779 60.4143C72.2729 60.556 72.2113 60.6904 72.1059 60.7894C72.0004 60.8885 71.8594 60.9445 71.7121 60.9457Z" fill="black"/>
<path opacity="0.3" d="M81.4517 60.9457H76.5527C76.4817 60.9463 76.4113 60.9327 76.3461 60.9057C76.2808 60.8787 76.222 60.839 76.1735 60.7891C76.125 60.7391 76.0878 60.68 76.0642 60.6155C76.0407 60.551 76.0313 60.4825 76.0366 60.4143C76.0421 60.275 76.102 60.1429 76.2043 60.0443C76.3067 59.9458 76.444 59.8881 76.5886 59.8828H81.4876C81.5586 59.8823 81.629 59.8959 81.6943 59.9229C81.7596 59.9498 81.8183 59.9896 81.8668 60.0395C81.9153 60.0895 81.9525 60.1486 81.9761 60.2131C81.9997 60.2776 82.0091 60.3461 82.0037 60.4143C81.9983 60.5536 81.9384 60.6857 81.836 60.7843C81.7336 60.8828 81.5964 60.9405 81.4517 60.9457Z" fill="black"/>
<path opacity="0.3" d="M91.19 60.9457H86.291C86.22 60.9463 86.1496 60.9327 86.0844 60.9057C86.0191 60.8787 85.9603 60.839 85.9118 60.7891C85.8633 60.7391 85.8261 60.68 85.8025 60.6155C85.779 60.551 85.7695 60.4825 85.7749 60.4143C85.7805 60.2728 85.8424 60.1388 85.9477 60.0399C86.0529 59.941 86.1936 59.8848 86.3407 59.8828H91.2397C91.3107 59.8823 91.3811 59.8959 91.4464 59.9229C91.5116 59.9498 91.5704 59.9896 91.6189 60.0395C91.6674 60.0895 91.7046 60.1486 91.7282 60.2131C91.7518 60.2776 91.7612 60.3461 91.7558 60.4143C91.7502 60.5558 91.6883 60.6898 91.5831 60.7887C91.4778 60.8876 91.3371 60.9438 91.19 60.9457Z" fill="black"/>
<path opacity="0.3" d="M100.928 60.9457H96.0293C95.9583 60.9463 95.8879 60.9327 95.8226 60.9057C95.7574 60.8787 95.6986 60.839 95.6501 60.7891C95.6016 60.7391 95.5644 60.68 95.5408 60.6155C95.5172 60.551 95.5078 60.4825 95.5132 60.4143C95.5188 60.2728 95.5807 60.1388 95.6859 60.0399C95.7912 59.941 95.9319 59.8848 96.079 59.8828H100.975C101.046 59.8823 101.117 59.8959 101.182 59.9229C101.248 59.9498 101.307 59.9895 101.355 60.0394C101.404 60.0893 101.441 60.1484 101.465 60.2129C101.489 60.2774 101.499 60.346 101.494 60.4143C101.488 60.5558 101.427 60.6898 101.321 60.7887C101.216 60.8876 101.075 60.9438 100.928 60.9457Z" fill="black"/>
</g>
<path d="M52.5006 70.9848H46.1195C45.9796 70.9854 45.841 70.9584 45.7122 70.9056C45.5834 70.8529 45.4672 70.7754 45.3706 70.6779C45.274 70.5804 45.199 70.4649 45.1503 70.3386C45.1016 70.2123 45.0801 70.0777 45.0873 69.9432L45.3633 63.7995C45.38 63.5202 45.5061 63.2575 45.7161 63.0642C45.9261 62.8709 46.2044 62.7614 46.4949 62.7578H52.876C53.0159 62.7573 53.1545 62.7842 53.2833 62.837C53.4121 62.8898 53.5283 62.9673 53.6249 63.0648C53.7216 63.1623 53.7965 63.2777 53.8452 63.404C53.8939 63.5304 53.9154 63.6649 53.9082 63.7995L53.6322 69.9432C53.6149 70.2222 53.4886 70.4846 53.2787 70.6778C53.0689 70.871 52.7909 70.9806 52.5006 70.9848Z" fill="#667499"/>
<path d="M62.243 70.9848H55.8619C55.7218 70.9857 55.583 70.9591 55.454 70.9064C55.3251 70.8538 55.2087 70.7763 55.112 70.6787C55.0153 70.5811 54.9404 70.4655 54.8918 70.339C54.8432 70.2125 54.8221 70.0778 54.8296 69.9432L55.1056 63.7995C55.1223 63.5202 55.2484 63.2575 55.4584 63.0642C55.6684 62.8709 55.9467 62.7614 56.2372 62.7578H62.6266C62.7667 62.7573 62.9054 62.7842 63.0343 62.837C63.1632 62.8897 63.2796 62.9672 63.3765 63.0646C63.4733 63.1621 63.5485 63.2775 63.5975 63.4038C63.6466 63.5302 63.6684 63.6648 63.6616 63.7995L63.3718 69.9432C63.3558 70.2222 63.2303 70.4849 63.0207 70.6783C62.8112 70.8716 62.5332 70.9812 62.243 70.9848Z" fill="#667499"/>
<path d="M71.981 70.9848H65.6026C65.4625 70.9854 65.3238 70.9584 65.1949 70.9057C65.066 70.8529 64.9496 70.7755 64.8528 70.678C64.7559 70.5806 64.6807 70.4652 64.6317 70.3388C64.5827 70.2125 64.5609 70.0779 64.5676 69.9432L64.8436 63.7995C64.8603 63.5202 64.9864 63.2575 65.1964 63.0642C65.4064 62.8709 65.6847 62.7614 65.9752 62.7578H72.3536C72.4936 62.7569 72.6324 62.7836 72.7614 62.8362C72.8903 62.8889 73.0067 62.9664 73.1034 63.064C73.2001 63.1615 73.2751 63.2771 73.3236 63.4036C73.3722 63.5301 73.3933 63.6648 73.3858 63.7995L73.1098 69.9432C73.0931 70.222 72.9674 70.4844 72.758 70.6776C72.5486 70.8708 72.271 70.9806 71.981 70.9848Z" fill="#667499"/>
<path d="M81.7189 70.9848H75.3488C75.2087 70.9857 75.0698 70.959 74.9407 70.9064C74.8116 70.8538 74.695 70.7764 74.5981 70.6788C74.5012 70.5813 74.426 70.4657 74.3771 70.3392C74.3282 70.2127 74.3067 70.078 74.3138 69.9432L74.5898 63.7995C74.6059 63.5205 74.7314 63.2577 74.9409 63.0643C75.1505 62.871 75.4285 62.7614 75.7187 62.7578H82.0998C82.2397 62.7573 82.3784 62.7842 82.5071 62.837C82.6359 62.8898 82.7521 62.9673 82.8487 63.0648C82.9454 63.1623 83.0203 63.2777 83.069 63.404C83.1177 63.5304 83.1392 63.6649 83.132 63.7995L82.856 69.9432C82.8392 70.2233 82.7124 70.4868 82.5012 70.6803C82.2901 70.8737 82.0104 70.9826 81.7189 70.9848Z" fill="#667499"/>
<path d="M91.4616 70.9848H85.0804C84.9405 70.9854 84.8019 70.9584 84.6731 70.9056C84.5444 70.8529 84.4281 70.7754 84.3315 70.6779C84.2349 70.5804 84.1599 70.4649 84.1112 70.3386C84.0625 70.2123 84.0411 70.0777 84.0482 69.9432L84.3242 63.7995C84.3409 63.5202 84.467 63.2575 84.677 63.0642C84.887 62.8709 85.1653 62.7614 85.4558 62.7578H91.8342C91.9744 62.7569 92.1133 62.7836 92.2423 62.8362C92.3714 62.8888 92.488 62.9663 92.5849 63.0638C92.6818 63.1614 92.757 63.2769 92.8059 63.4034C92.8548 63.5299 92.8763 63.6647 92.8692 63.7995L92.5932 69.9432C92.5758 70.2222 92.4495 70.4846 92.2397 70.6778C92.0298 70.871 91.7519 70.9806 91.4616 70.9848Z" fill="#667499"/>
<path d="M101.197 70.9848H94.8189C94.6788 70.9857 94.54 70.9591 94.4111 70.9064C94.2821 70.8538 94.1657 70.7763 94.069 70.6787C93.9723 70.5811 93.8974 70.4655 93.8488 70.339C93.8003 70.2125 93.7791 70.0778 93.7866 69.9432L94.0626 63.7995C94.0794 63.5202 94.2055 63.2575 94.4155 63.0642C94.6254 62.8709 94.9037 62.7614 95.1942 62.7578H101.573C101.713 62.7573 101.851 62.7842 101.98 62.837C102.109 62.8897 102.226 62.9672 102.322 63.0646C102.419 63.1621 102.495 63.2775 102.544 63.4038C102.593 63.5302 102.614 63.6648 102.608 63.7995L102.318 69.9432C102.302 70.2208 102.178 70.4824 101.97 70.6756C101.762 70.8688 101.486 70.9792 101.197 70.9848Z" fill="#667499"/>
<g opacity="0.8">
<path opacity="0.8" d="M52.5006 70.9848H46.1195C45.9796 70.9854 45.841 70.9584 45.7122 70.9056C45.5834 70.8529 45.4672 70.7754 45.3706 70.6779C45.274 70.5804 45.199 70.4649 45.1503 70.3386C45.1016 70.2123 45.0801 70.0777 45.0873 69.9432L45.3633 63.7995C45.38 63.5202 45.5061 63.2575 45.7161 63.0642C45.9261 62.8709 46.2044 62.7614 46.4949 62.7578H52.876C53.0159 62.7573 53.1545 62.7842 53.2833 62.837C53.4121 62.8898 53.5283 62.9673 53.6249 63.0648C53.7216 63.1623 53.7965 63.2777 53.8452 63.404C53.8939 63.5304 53.9154 63.6649 53.9082 63.7995L53.6322 69.9432C53.6149 70.2222 53.4886 70.4846 53.2787 70.6778C53.0689 70.871 52.7909 70.9806 52.5006 70.9848Z" fill="#FAFAFA"/>
<path opacity="0.8" d="M62.2391 70.9848H55.8579C55.7179 70.9857 55.5791 70.9591 55.4501 70.9064C55.3212 70.8538 55.2048 70.7763 55.1081 70.6787C55.0114 70.5811 54.9365 70.4655 54.8879 70.339C54.8393 70.2125 54.8182 70.0778 54.8257 69.9432L55.1017 63.7995C55.1184 63.5202 55.2445 63.2575 55.4545 63.0642C55.6645 62.8709 55.9428 62.7614 56.2333 62.7578H62.6227C62.7628 62.7573 62.9015 62.7842 63.0304 62.837C63.1593 62.8897 63.2757 62.9672 63.3726 63.0646C63.4694 63.1621 63.5446 63.2775 63.5936 63.4038C63.6426 63.5302 63.6644 63.6648 63.6577 63.7995L63.3679 69.9432C63.3518 70.2222 63.2264 70.4849 63.0168 70.6783C62.8073 70.8716 62.5293 70.9812 62.2391 70.9848Z" fill="#FAFAFA"/>
<path opacity="0.8" d="M71.9771 70.9848H65.5987C65.4586 70.9854 65.3199 70.9584 65.191 70.9057C65.0621 70.8529 64.9457 70.7755 64.8488 70.678C64.752 70.5806 64.6768 70.4652 64.6278 70.3388C64.5788 70.2125 64.557 70.0779 64.5637 69.9432L64.8397 63.7995C64.8564 63.5202 64.9825 63.2575 65.1925 63.0642C65.4025 62.8709 65.6808 62.7614 65.9713 62.7578H72.3497C72.4897 62.7569 72.6285 62.7836 72.7575 62.8362C72.8864 62.8889 73.0028 62.9664 73.0995 63.064C73.1962 63.1615 73.2711 63.2771 73.3197 63.4036C73.3683 63.5301 73.3894 63.6648 73.3819 63.7995L73.1059 69.9432C73.0892 70.222 72.9635 70.4844 72.7541 70.6776C72.5447 70.8708 72.2671 70.9806 71.9771 70.9848Z" fill="#FAFAFA"/>
<path opacity="0.8" d="M81.7189 70.9848H75.3488C75.2087 70.9857 75.0698 70.959 74.9407 70.9064C74.8116 70.8538 74.695 70.7764 74.5981 70.6788C74.5012 70.5813 74.426 70.4657 74.3771 70.3392C74.3282 70.2127 74.3067 70.078 74.3138 69.9432L74.5898 63.7995C74.6059 63.5205 74.7314 63.2577 74.9409 63.0643C75.1505 62.871 75.4285 62.7614 75.7187 62.7578H82.0998C82.2397 62.7573 82.3784 62.7842 82.5071 62.837C82.6359 62.8898 82.7521 62.9673 82.8487 63.0648C82.9454 63.1623 83.0203 63.2777 83.069 63.404C83.1177 63.5304 83.1392 63.6649 83.132 63.7995L82.856 69.9432C82.8392 70.2233 82.7124 70.4868 82.5012 70.6803C82.2901 70.8737 82.0104 70.9826 81.7189 70.9848Z" fill="#FAFAFA"/>
<path opacity="0.8" d="M91.4577 70.9848H85.0765C84.9366 70.9854 84.798 70.9584 84.6692 70.9056C84.5404 70.8529 84.4242 70.7754 84.3276 70.6779C84.231 70.5804 84.156 70.4649 84.1073 70.3386C84.0586 70.2123 84.0372 70.0777 84.0443 69.9432L84.3203 63.7995C84.337 63.5202 84.4631 63.2575 84.6731 63.0642C84.8831 62.8709 85.1614 62.7614 85.4519 62.7578H91.8303C91.9704 62.7569 92.1093 62.7836 92.2384 62.8362C92.3675 62.8888 92.4841 62.9663 92.581 63.0638C92.6779 63.1614 92.7531 63.2769 92.802 63.4034C92.8509 63.5299 92.8724 63.6647 92.8653 63.7995L92.5893 69.9432C92.5719 70.2222 92.4456 70.4846 92.2358 70.6778C92.0259 70.871 91.748 70.9806 91.4577 70.9848Z" fill="#FAFAFA"/>
<path opacity="0.8" d="M101.193 70.9848H94.815C94.6749 70.9857 94.5361 70.9591 94.4072 70.9064C94.2782 70.8538 94.1618 70.7763 94.0651 70.6787C93.9684 70.5811 93.8935 70.4655 93.8449 70.339C93.7964 70.2125 93.7752 70.0778 93.7827 69.9432L94.0587 63.7995C94.0755 63.5202 94.2016 63.2575 94.4115 63.0642C94.6215 62.8709 94.8998 62.7614 95.1903 62.7578H101.569C101.709 62.7573 101.847 62.7842 101.976 62.837C102.105 62.8897 102.222 62.9672 102.319 63.0646C102.415 63.1621 102.491 63.2775 102.54 63.4038C102.589 63.5302 102.61 63.6648 102.604 63.7995L102.314 69.9432C102.298 70.2208 102.174 70.4824 101.966 70.6756C101.758 70.8688 101.482 70.9792 101.193 70.9848Z" fill="#FAFAFA"/>
</g>
<path d="M52.0553 80.5161H45.6742C45.5342 80.5166 45.3957 80.4897 45.2669 80.4369C45.1381 80.3841 45.0219 80.3066 44.9253 80.2091C44.8286 80.1116 44.7537 79.9962 44.705 79.8699C44.6563 79.7435 44.6348 79.609 44.642 79.4744L44.918 73.3307C44.9353 73.0517 45.0616 72.7893 45.2715 72.5961C45.4813 72.4029 45.7593 72.2933 46.0496 72.2891H52.4417C52.5817 72.2885 52.7203 72.3155 52.849 72.3683C52.9778 72.421 53.0941 72.4985 53.1907 72.596C53.2873 72.6935 53.3622 72.809 53.4109 72.9353C53.4596 73.0616 53.4811 73.1962 53.474 73.3307L53.198 79.4744C53.1804 79.7553 53.0526 80.0192 52.8404 80.2126C52.6282 80.4061 52.3475 80.5146 52.0553 80.5161Z" fill="#667499"/>
<path d="M61.7975 80.5161H55.4164C55.2764 80.5166 55.1378 80.4897 55.0091 80.4369C54.8803 80.3841 54.7641 80.3066 54.6674 80.2091C54.5708 80.1116 54.4959 79.9962 54.4472 79.8699C54.3985 79.7436 54.377 79.609 54.3841 79.4744L54.6601 73.3307C54.6769 73.0515 54.803 72.7887 55.013 72.5954C55.2229 72.4021 55.5012 72.2927 55.7918 72.2891H62.1701C62.3114 72.2881 62.4514 72.3151 62.5814 72.3683C62.7114 72.4216 62.8287 72.4999 62.926 72.5986C63.0233 72.6972 63.0985 72.8141 63.147 72.9418C63.1955 73.0696 63.2162 73.2056 63.2079 73.3414L62.9319 79.4744C62.9157 79.7544 62.7895 80.0179 62.5788 80.2114C62.368 80.4049 62.0887 80.5138 61.7975 80.5161Z" fill="#667499"/>
<path d="M71.5332 80.5161H65.1548C65.0147 80.517 64.876 80.4903 64.747 80.4377C64.6181 80.385 64.5016 80.3075 64.405 80.21C64.3083 80.1124 64.2333 79.9968 64.1848 79.8703C64.1362 79.7438 64.115 79.6091 64.1226 79.4744L64.3986 73.3307C64.4153 73.0515 64.5414 72.7887 64.7514 72.5954C64.9614 72.4021 65.2397 72.2927 65.5302 72.2891H71.9085C72.0486 72.2882 72.1874 72.3148 72.3163 72.3675C72.4453 72.4201 72.5617 72.4976 72.6584 72.5952C72.7551 72.6928 72.83 72.8084 72.8786 72.9349C72.9271 73.0614 72.9483 73.1961 72.9408 73.3307L72.6648 79.4744C72.648 79.7537 72.522 80.0164 72.312 80.2097C72.102 80.403 71.8237 80.5125 71.5332 80.5161Z" fill="#667499"/>
<path d="M81.2739 80.5162H74.8956C74.7555 80.5167 74.6168 80.4898 74.4879 80.4371C74.359 80.3843 74.2425 80.3069 74.1457 80.2094C74.0489 80.112 73.9737 79.9966 73.9247 79.8702C73.8756 79.7439 73.8538 79.6093 73.8606 79.4746L74.1366 73.3309C74.1526 73.0519 74.2781 72.7891 74.4877 72.5958C74.6972 72.4024 74.9752 72.2928 75.2654 72.2892H81.6465C81.7886 72.2868 81.9297 72.3126 82.0609 72.3653C82.1921 72.4179 82.3105 72.4961 82.4088 72.5949C82.5071 72.6938 82.583 72.8111 82.6318 72.9396C82.6807 73.0681 82.7014 73.2049 82.6926 73.3415L82.4166 79.4852C82.397 79.7644 82.2682 80.026 82.0561 80.2174C81.8441 80.4087 81.5646 80.5155 81.2739 80.5162Z" fill="#667499"/>
<path d="M91.0123 80.5169H84.6312C84.4913 80.5175 84.3527 80.4905 84.2239 80.4377C84.0951 80.385 83.9789 80.3075 83.8823 80.21C83.7857 80.1125 83.7107 79.9971 83.662 79.8707C83.6133 79.7444 83.5919 79.6098 83.599 79.4753L83.875 73.3316C83.8897 73.0502 84.0152 72.7848 84.2259 72.5893C84.4366 72.3939 84.7168 72.283 85.0093 72.2793H91.3905C91.5304 72.2788 91.669 72.3057 91.7978 72.3585C91.9266 72.4113 92.0428 72.4888 92.1394 72.5863C92.236 72.6838 92.311 72.7992 92.3597 72.9255C92.4084 73.0518 92.4298 73.1864 92.4227 73.321L92.1467 79.4646C92.132 79.746 92.0065 80.0114 91.7958 80.2069C91.5851 80.4024 91.3049 80.5132 91.0123 80.5169Z" fill="#667499"/>
<path d="M100.744 80.5161H94.3736C94.2335 80.517 94.0947 80.4903 93.9658 80.4377C93.8368 80.385 93.7204 80.3075 93.6237 80.2099C93.527 80.1124 93.4521 79.9968 93.4035 79.8703C93.355 79.7438 93.3338 79.6091 93.3413 79.4744L93.6173 73.3307C93.6341 73.0515 93.7601 72.7887 93.9701 72.5954C94.1801 72.4021 94.4584 72.2926 94.7489 72.2891H101.127C101.267 72.2886 101.406 72.3155 101.535 72.3682C101.664 72.421 101.78 72.4984 101.877 72.5959C101.974 72.6933 102.049 72.8087 102.098 72.9351C102.147 73.0614 102.169 73.196 102.162 73.3307L101.872 79.4744C101.856 79.7534 101.731 80.0162 101.521 80.2095C101.312 80.4029 101.034 80.5125 100.744 80.5161Z" fill="#667499"/>
<g opacity="0.8">
<path opacity="0.8" d="M52.0553 80.5161H45.6742C45.5342 80.5166 45.3957 80.4897 45.2669 80.4369C45.1381 80.3841 45.0219 80.3066 44.9253 80.2091C44.8286 80.1116 44.7537 79.9962 44.705 79.8699C44.6563 79.7435 44.6348 79.609 44.642 79.4744L44.918 73.3307C44.9353 73.0517 45.0616 72.7893 45.2715 72.5961C45.4813 72.4029 45.7593 72.2933 46.0496 72.2891H52.4417C52.5817 72.2885 52.7203 72.3155 52.849 72.3683C52.9778 72.421 53.0941 72.4985 53.1907 72.596C53.2873 72.6935 53.3622 72.809 53.4109 72.9353C53.4596 73.0616 53.4811 73.1962 53.474 73.3307L53.198 79.4744C53.1804 79.7553 53.0526 80.0192 52.8404 80.2126C52.6282 80.4061 52.3475 80.5146 52.0553 80.5161Z" fill="#FAFAFA"/>
<path opacity="0.8" d="M61.7975 80.5161H55.4164C55.2764 80.5166 55.1378 80.4897 55.0091 80.4369C54.8803 80.3841 54.7641 80.3066 54.6674 80.2091C54.5708 80.1116 54.4959 79.9962 54.4472 79.8699C54.3985 79.7436 54.377 79.609 54.3841 79.4744L54.6601 73.3307C54.6769 73.0515 54.803 72.7887 55.013 72.5954C55.2229 72.4021 55.5012 72.2927 55.7918 72.2891H62.1701C62.3114 72.2881 62.4514 72.3151 62.5814 72.3683C62.7114 72.4216 62.8287 72.4999 62.926 72.5986C63.0233 72.6972 63.0985 72.8141 63.147 72.9418C63.1955 73.0696 63.2162 73.2056 63.2079 73.3414L62.9319 79.4744C62.9157 79.7544 62.7895 80.0179 62.5788 80.2114C62.368 80.4049 62.0887 80.5138 61.7975 80.5161Z" fill="#FAFAFA"/>
<path opacity="0.8" d="M71.5332 80.5161H65.1548C65.0147 80.517 64.876 80.4903 64.747 80.4377C64.6181 80.385 64.5016 80.3075 64.405 80.21C64.3083 80.1124 64.2333 79.9968 64.1848 79.8703C64.1362 79.7438 64.115 79.6091 64.1226 79.4744L64.3986 73.3307C64.4153 73.0515 64.5414 72.7887 64.7514 72.5954C64.9614 72.4021 65.2397 72.2927 65.5302 72.2891H71.9085C72.0486 72.2882 72.1874 72.3148 72.3163 72.3675C72.4453 72.4201 72.5617 72.4976 72.6584 72.5952C72.7551 72.6928 72.83 72.8084 72.8786 72.9349C72.9271 73.0614 72.9483 73.1961 72.9408 73.3307L72.6648 79.4744C72.648 79.7537 72.522 80.0164 72.312 80.2097C72.102 80.403 71.8237 80.5125 71.5332 80.5161Z" fill="#FAFAFA"/>
<path opacity="0.8" d="M81.2739 80.5162H74.8956C74.7555 80.5167 74.6168 80.4898 74.4879 80.4371C74.359 80.3843 74.2425 80.3069 74.1457 80.2094C74.0489 80.112 73.9737 79.9966 73.9247 79.8702C73.8756 79.7439 73.8538 79.6093 73.8606 79.4746L74.1366 73.3309C74.1526 73.0519 74.2781 72.7891 74.4877 72.5958C74.6972 72.4024 74.9752 72.2928 75.2654 72.2892H81.6465C81.7886 72.2868 81.9297 72.3126 82.0609 72.3653C82.1921 72.4179 82.3105 72.4961 82.4088 72.5949C82.5071 72.6938 82.583 72.8111 82.6318 72.9396C82.6807 73.0681 82.7014 73.2049 82.6926 73.3415L82.4166 79.4852C82.397 79.7644 82.2682 80.026 82.0561 80.2174C81.8441 80.4087 81.5646 80.5155 81.2739 80.5162Z" fill="#FAFAFA"/>
<path opacity="0.8" d="M91.0123 80.5169H84.6312C84.4913 80.5175 84.3527 80.4905 84.2239 80.4377C84.0951 80.385 83.9789 80.3075 83.8823 80.21C83.7857 80.1125 83.7107 79.9971 83.662 79.8707C83.6133 79.7444 83.5919 79.6098 83.599 79.4753L83.875 73.3316C83.8897 73.0502 84.0152 72.7848 84.2259 72.5893C84.4366 72.3939 84.7168 72.283 85.0093 72.2793H91.3905C91.5304 72.2788 91.669 72.3057 91.7978 72.3585C91.9266 72.4113 92.0428 72.4888 92.1394 72.5863C92.236 72.6838 92.311 72.7992 92.3597 72.9255C92.4084 73.0518 92.4298 73.1864 92.4227 73.321L92.1467 79.4646C92.132 79.746 92.0065 80.0114 91.7958 80.2069C91.5851 80.4024 91.3049 80.5132 91.0123 80.5169Z" fill="#FAFAFA"/>
<path opacity="0.8" d="M100.74 80.5161H94.3697C94.2296 80.517 94.0908 80.4903 93.9619 80.4377C93.8329 80.385 93.7165 80.3075 93.6198 80.2099C93.5231 80.1124 93.4482 79.9968 93.3996 79.8703C93.3511 79.7438 93.3299 79.6091 93.3374 79.4744L93.6134 73.3307C93.6302 73.0515 93.7562 72.7887 93.9662 72.5954C94.1762 72.4021 94.4545 72.2926 94.745 72.2891H101.123C101.263 72.2886 101.402 72.3155 101.531 72.3682C101.66 72.421 101.776 72.4984 101.873 72.5959C101.97 72.6933 102.045 72.8087 102.094 72.9351C102.143 73.0614 102.165 73.196 102.158 73.3307L101.869 79.4744C101.853 79.7534 101.727 80.0162 101.517 80.2095C101.308 80.4029 101.03 80.5125 100.74 80.5161Z" fill="#FAFAFA"/>
</g>
<path d="M51.6157 90.0447H45.229C45.089 90.0456 44.9502 90.0189 44.8212 89.9663C44.6923 89.9136 44.5759 89.8361 44.4792 89.7386C44.3825 89.641 44.3076 89.5254 44.259 89.3989C44.2104 89.2724 44.1893 89.1377 44.1968 89.003L44.4728 82.862C44.4895 82.5827 44.6156 82.32 44.8256 82.1267C45.0356 81.9334 45.3139 81.8239 45.6044 81.8203H51.9855C52.1256 81.8194 52.2644 81.8461 52.3933 81.8987C52.5223 81.9514 52.6387 82.0289 52.7354 82.1265C52.8321 82.224 52.907 82.3396 52.9556 82.4661C53.0041 82.5926 53.0253 82.7273 53.0178 82.862L52.7418 89.003C52.7257 89.2816 52.6006 89.544 52.3917 89.7372C52.1827 89.9305 51.9054 90.0404 51.6157 90.0447Z" fill="#667499"/>
<path d="M61.3484 90.0447H54.9673C54.8272 90.0456 54.6885 90.0189 54.5595 89.9663C54.4306 89.9137 54.3141 89.8362 54.2175 89.7386C54.1208 89.641 54.0458 89.5254 53.9973 89.3989C53.9487 89.2724 53.9275 89.1377 53.9351 89.003L54.2111 82.862C54.2272 82.5825 54.353 82.3194 54.5632 82.126C54.7733 81.9326 55.052 81.8233 55.3427 81.8204H61.721C61.8613 81.8191 62.0004 81.8455 62.1297 81.898C62.259 81.9504 62.3757 82.0279 62.4727 82.1255C62.5697 82.2231 62.6449 82.3388 62.6936 82.4655C62.7423 82.5922 62.7636 82.7271 62.756 82.862L62.48 89.003C62.4646 89.2827 62.3389 89.5462 62.1286 89.7398C61.9184 89.9333 61.6393 90.0424 61.3484 90.0447Z" fill="#667499"/>
<path d="M71.0879 90.0447H64.7095C64.5694 90.0456 64.4307 90.0189 64.3017 89.9663C64.1727 89.9136 64.0563 89.8361 63.9596 89.7386C63.863 89.641 63.788 89.5254 63.7395 89.3989C63.6909 89.2724 63.6697 89.1377 63.6773 89.003L63.9533 82.862C63.9694 82.5825 64.0952 82.3194 64.3054 82.126C64.5155 81.9325 64.7942 81.8233 65.0849 81.8203H71.4881C71.6283 81.8194 71.7671 81.8461 71.8962 81.8987C72.0253 81.9513 72.1419 82.0288 72.2388 82.1263C72.3357 82.2239 72.4109 82.3394 72.4598 82.4659C72.5087 82.5924 72.5302 82.7272 72.5231 82.862L72.2333 89.003C72.217 89.2848 72.0892 89.5498 71.8761 89.7436C71.6631 89.9374 71.381 90.0451 71.0879 90.0447Z" fill="#667499"/>
<path d="M80.8248 90.0447H74.4465C74.3063 90.0456 74.1674 90.0189 74.0383 89.9663C73.9092 89.9137 73.7926 89.8362 73.6957 89.7387C73.5988 89.6412 73.5236 89.5256 73.4747 89.3991C73.4259 89.2726 73.4043 89.1378 73.4115 89.003L73.6875 82.862C73.7029 82.5828 73.8282 82.3196 74.0379 82.1262C74.2476 81.9327 74.5259 81.8233 74.8163 81.8203H81.1975C81.3375 81.8194 81.4763 81.8461 81.6053 81.8987C81.7342 81.9514 81.8506 82.0289 81.9473 82.1265C82.044 82.224 82.1189 82.3396 82.1675 82.4661C82.2161 82.5926 82.2372 82.7273 82.2297 82.862L81.9537 89.003C81.9376 89.282 81.8121 89.5448 81.6026 89.7381C81.3931 89.9315 81.1151 90.0411 80.8248 90.0447Z" fill="#667499"/>
<path d="M90.566 90.0447H84.1822C84.0421 90.0456 83.9033 90.0189 83.7744 89.9663C83.6454 89.9136 83.529 89.8361 83.4323 89.7386C83.3356 89.641 83.2607 89.5254 83.2121 89.3989C83.1636 89.2724 83.1424 89.1377 83.1499 89.003L83.4259 82.862C83.4427 82.5827 83.5687 82.32 83.7787 82.1267C83.9887 81.9334 84.267 81.8239 84.5575 81.8203H90.9386C91.0787 81.8194 91.2175 81.8461 91.3464 81.8987C91.4754 81.9514 91.5918 82.0289 91.6885 82.1265C91.7852 82.224 91.8601 82.3396 91.9087 82.4661C91.9572 82.5926 91.9784 82.7273 91.9709 82.862L91.6949 89.003C91.6782 89.2818 91.5525 89.5442 91.3431 89.7374C91.1337 89.9307 90.8561 90.0404 90.566 90.0447Z" fill="#667499"/>
<path d="M100.305 90.0447H93.9243C93.7843 90.0456 93.6455 90.0189 93.5165 89.9663C93.3876 89.9136 93.2712 89.8361 93.1745 89.7386C93.0778 89.641 93.0029 89.5254 92.9543 89.3989C92.9057 89.2724 92.8846 89.1377 92.8921 89.003L93.1681 82.862C93.1842 82.5825 93.3101 82.3194 93.5202 82.126C93.7303 81.9325 94.009 81.8233 94.2997 81.8203H100.678C100.818 81.8194 100.957 81.8461 101.086 81.8987C101.215 81.9513 101.332 82.0288 101.429 82.1263C101.526 82.2239 101.601 82.3394 101.65 82.4659C101.699 82.5924 101.72 82.7272 101.713 82.862L101.423 89.003C101.408 89.2805 101.284 89.542 101.077 89.7353C100.87 89.9285 100.594 90.039 100.305 90.0447Z" fill="#667499"/>
<g opacity="0.8">
<path opacity="0.8" d="M51.6157 90.0447H45.229C45.089 90.0456 44.9502 90.0189 44.8212 89.9663C44.6923 89.9136 44.5759 89.8361 44.4792 89.7386C44.3825 89.641 44.3076 89.5254 44.259 89.3989C44.2104 89.2724 44.1893 89.1377 44.1968 89.003L44.4728 82.862C44.4895 82.5827 44.6156 82.32 44.8256 82.1267C45.0356 81.9334 45.3139 81.8239 45.6044 81.8203H51.9855C52.1256 81.8194 52.2644 81.8461 52.3933 81.8987C52.5223 81.9514 52.6387 82.0289 52.7354 82.1265C52.8321 82.224 52.907 82.3396 52.9556 82.4661C53.0041 82.5926 53.0253 82.7273 53.0178 82.862L52.7418 89.003C52.7257 89.2816 52.6006 89.544 52.3917 89.7372C52.1827 89.9305 51.9054 90.0404 51.6157 90.0447Z" fill="#FAFAFA"/>
<path opacity="0.8" d="M61.3523 90.0447H54.9712C54.8312 90.0456 54.6924 90.0189 54.5634 89.9663C54.4345 89.9137 54.3181 89.8362 54.2214 89.7386C54.1247 89.641 54.0497 89.5254 54.0012 89.3989C53.9526 89.2724 53.9315 89.1377 53.939 89.003L54.215 82.862C54.2311 82.5825 54.357 82.3194 54.5671 82.126C54.7772 81.9326 55.0559 81.8233 55.3466 81.8204H61.7249C61.8652 81.8191 62.0043 81.8455 62.1336 81.898C62.2629 81.9504 62.3796 82.0279 62.4766 82.1255C62.5736 82.2231 62.6488 82.3388 62.6975 82.4655C62.7462 82.5922 62.7675 82.7271 62.7599 82.862L62.4839 89.003C62.4685 89.2827 62.3428 89.5462 62.1326 89.7398C61.9223 89.9333 61.6432 90.0424 61.3523 90.0447Z" fill="#FAFAFA"/>
<path opacity="0.8" d="M71.0879 90.0447H64.7095C64.5694 90.0456 64.4307 90.0189 64.3017 89.9663C64.1727 89.9136 64.0563 89.8361 63.9596 89.7386C63.863 89.641 63.788 89.5254 63.7395 89.3989C63.6909 89.2724 63.6697 89.1377 63.6773 89.003L63.9533 82.862C63.9694 82.5825 64.0952 82.3194 64.3054 82.126C64.5155 81.9325 64.7942 81.8233 65.0849 81.8203H71.4881C71.6283 81.8194 71.7671 81.8461 71.8962 81.8987C72.0253 81.9513 72.1419 82.0288 72.2388 82.1263C72.3357 82.2239 72.4109 82.3394 72.4598 82.4659C72.5087 82.5924 72.5302 82.7272 72.5231 82.862L72.2333 89.003C72.217 89.2848 72.0892 89.5498 71.8761 89.7436C71.6631 89.9374 71.381 90.0451 71.0879 90.0447Z" fill="#FAFAFA"/>
<path opacity="0.8" d="M80.8288 90.0447H74.4504C74.3102 90.0456 74.1713 90.0189 74.0422 89.9663C73.9131 89.9137 73.7965 89.8362 73.6996 89.7387C73.6027 89.6412 73.5275 89.5256 73.4787 89.3991C73.4298 89.2726 73.4083 89.1378 73.4154 89.003L73.6914 82.862C73.7068 82.5828 73.8321 82.3196 74.0418 82.1262C74.2515 81.9327 74.5298 81.8233 74.8202 81.8203H81.2014C81.3414 81.8194 81.4802 81.8461 81.6092 81.8987C81.7381 81.9514 81.8545 82.0289 81.9512 82.1265C82.0479 82.224 82.1228 82.3396 82.1714 82.4661C82.22 82.5926 82.2411 82.7273 82.2336 82.862L81.9576 89.003C81.9415 89.282 81.8161 89.5448 81.6065 89.7381C81.397 89.9315 81.119 90.0411 80.8288 90.0447Z" fill="#FAFAFA"/>
<path opacity="0.8" d="M90.566 90.0447H84.1822C84.0421 90.0456 83.9033 90.0189 83.7744 89.9663C83.6454 89.9136 83.529 89.8361 83.4323 89.7386C83.3356 89.641 83.2607 89.5254 83.2121 89.3989C83.1636 89.2724 83.1424 89.1377 83.1499 89.003L83.4259 82.862C83.4427 82.5827 83.5687 82.32 83.7787 82.1267C83.9887 81.9334 84.267 81.8239 84.5575 81.8203H90.9386C91.0787 81.8194 91.2175 81.8461 91.3464 81.8987C91.4754 81.9514 91.5918 82.0289 91.6885 82.1265C91.7852 82.224 91.8601 82.3396 91.9087 82.4661C91.9572 82.5926 91.9784 82.7273 91.9709 82.862L91.6949 89.003C91.6782 89.2818 91.5525 89.5442 91.3431 89.7374C91.1337 89.9307 90.8561 90.0404 90.566 90.0447Z" fill="#FAFAFA"/>
<path opacity="0.8" d="M100.305 90.0447H93.9243C93.7843 90.0456 93.6455 90.0189 93.5165 89.9663C93.3876 89.9136 93.2712 89.8361 93.1745 89.7386C93.0778 89.641 93.0029 89.5254 92.9543 89.3989C92.9057 89.2724 92.8846 89.1377 92.8921 89.003L93.1681 82.862C93.1842 82.5825 93.3101 82.3194 93.5202 82.126C93.7303 81.9325 94.009 81.8233 94.2997 81.8203H100.678C100.818 81.8194 100.957 81.8461 101.086 81.8987C101.215 81.9513 101.332 82.0288 101.429 82.1263C101.526 82.2239 101.601 82.3394 101.65 82.4659C101.699 82.5924 101.72 82.7272 101.713 82.862L101.423 89.003C101.408 89.2805 101.284 89.542 101.077 89.7353C100.87 89.9285 100.594 90.039 100.305 90.0447Z" fill="#FAFAFA"/>
</g>
<path d="M49.8046 57.7801C47.4531 57.7801 45.6094 55.1467 45.6094 51.7852C45.6094 48.4237 47.4531 45.793 49.8046 45.793C52.1561 45.793 54.0025 48.4264 54.0025 51.7852C53.9918 51.9427 53.9193 52.0904 53.7996 52.1984C53.6799 52.3063 53.5221 52.3664 53.3581 52.3664C53.1941 52.3664 53.0363 52.3063 52.9166 52.1984C52.7969 52.0904 52.7243 51.9427 52.7136 51.7852C52.7136 49.2103 51.3833 47.0313 49.8046 47.0313C48.2259 47.0313 46.8955 49.2103 46.8955 51.7852C46.8955 54.3601 48.2286 56.5391 49.8046 56.5391C49.8928 56.5335 49.9812 56.5455 50.0644 56.5741C50.1476 56.6028 50.2238 56.6476 50.2883 56.7057C50.3528 56.7639 50.4042 56.8342 50.4393 56.9123C50.4745 56.9903 50.4926 57.0745 50.4926 57.1596C50.4926 57.2447 50.4745 57.3288 50.4393 57.4069C50.4042 57.4849 50.3528 57.5552 50.2883 57.6134C50.2238 57.6716 50.1476 57.7164 50.0644 57.745C49.9812 57.7737 49.8928 57.7856 49.8046 57.7801Z" fill="#667499"/>
<path d="M59.5468 57.7801C57.1952 57.7801 55.3516 55.1467 55.3516 51.7852C55.3516 48.4237 57.1952 45.793 59.5468 45.793C61.8983 45.793 63.7585 48.4264 63.7585 51.7852C63.7478 51.9427 63.6753 52.0904 63.5556 52.1984C63.4359 52.3063 63.278 52.3664 63.1141 52.3664C62.9501 52.3664 62.7922 52.3063 62.6726 52.1984C62.5529 52.0904 62.4803 51.9427 62.4696 51.7852C62.4696 49.2103 61.1393 47.0313 59.5606 47.0313C57.9818 47.0313 56.6515 49.2103 56.6515 51.7852C56.6515 54.3601 57.9846 56.5391 59.5606 56.5391C59.7242 56.5494 59.8776 56.6193 59.9897 56.7345C60.1018 56.8497 60.1642 57.0017 60.1642 57.1596C60.1642 57.3175 60.1018 57.4694 59.9897 57.5846C59.8776 57.6999 59.7242 57.7697 59.5606 57.7801H59.5468Z" fill="#667499"/>
<path d="M69.2761 57.7801C66.9218 57.7801 65.0781 55.1467 65.0781 51.7852C65.0781 48.4237 66.9218 45.793 69.2761 45.793C71.6304 45.793 73.4713 48.4264 73.4713 51.7852C73.4713 51.9494 73.4035 52.1069 73.2829 52.223C73.1623 52.3391 72.9988 52.4043 72.8282 52.4043C72.6576 52.4043 72.4941 52.3391 72.3735 52.223C72.2529 52.1069 72.1851 51.9494 72.1851 51.7852C72.1851 49.2103 70.852 47.0313 69.2761 47.0313C67.7001 47.0313 66.367 49.2103 66.367 51.7852C66.367 54.3601 67.7001 56.5391 69.2761 56.5391C69.4397 56.5494 69.5932 56.6193 69.7053 56.7345C69.8174 56.8497 69.8797 57.0017 69.8797 57.1596C69.8797 57.3175 69.8174 57.4694 69.7053 57.5846C69.5932 57.6999 69.4397 57.7697 69.2761 57.7801Z" fill="#667499"/>
<path d="M79.0261 57.7801C76.6718 57.7801 74.8281 55.1467 74.8281 51.7852C74.8281 48.4237 76.6718 45.793 79.0261 45.793C81.3804 45.793 83.2213 48.4264 83.2213 51.7852C83.2213 51.9494 83.1535 52.1069 83.0329 52.223C82.9123 52.3391 82.7488 52.4043 82.5782 52.4043C82.4077 52.4043 82.2441 52.3391 82.1235 52.223C82.0029 52.1069 81.9351 51.9494 81.9351 51.7852C81.9351 49.2103 80.6021 47.0313 79.0261 47.0313C77.4501 47.0313 76.117 49.2103 76.117 51.7852C76.117 54.3601 77.4474 56.5391 79.0261 56.5391C79.1897 56.5494 79.3432 56.6193 79.4553 56.7345C79.5674 56.8497 79.6297 57.0017 79.6297 57.1596C79.6297 57.3175 79.5674 57.4694 79.4553 57.5846C79.3432 57.6999 79.1897 57.7697 79.0261 57.7801Z" fill="#667499"/>
<path d="M88.7616 57.7801C86.4101 57.7801 84.5664 55.1467 84.5664 51.7852C84.5664 48.4237 86.4101 45.793 88.7616 45.793C91.1131 45.793 92.9596 48.4264 92.9596 51.7852C92.9489 51.9427 92.8763 52.0904 92.7566 52.1984C92.6369 52.3063 92.4791 52.3664 92.3151 52.3664C92.1511 52.3664 91.9933 52.3063 91.8736 52.1984C91.7539 52.0904 91.6814 51.9427 91.6707 51.7852C91.6707 49.2103 90.3403 47.0313 88.7616 47.0313C87.1829 47.0313 85.8526 49.2103 85.8526 51.7852C85.8526 54.3601 87.1856 56.5391 88.7616 56.5391C88.8498 56.5335 88.9382 56.5455 89.0214 56.5741C89.1046 56.6028 89.1808 56.6476 89.2453 56.7057C89.3098 56.7639 89.3612 56.8342 89.3964 56.9123C89.4315 56.9903 89.4496 57.0745 89.4496 57.1596C89.4496 57.2447 89.4315 57.3288 89.3964 57.4069C89.3612 57.4849 89.3098 57.5552 89.2453 57.6134C89.1808 57.6716 89.1046 57.7164 89.0214 57.745C88.9382 57.7737 88.8498 57.7856 88.7616 57.7801Z" fill="#667499"/>
<path d="M98.5038 57.7801C96.1523 57.7801 94.3086 55.1467 94.3086 51.7852C94.3086 48.4237 96.1523 45.793 98.5038 45.793C100.855 45.793 102.702 48.4264 102.702 51.7852C102.691 51.9427 102.618 52.0904 102.499 52.1984C102.379 52.3063 102.221 52.3664 102.057 52.3664C101.893 52.3664 101.735 52.3063 101.616 52.1984C101.496 52.0904 101.424 51.9427 101.413 51.7852C101.413 49.2103 100.08 47.0313 98.5038 47.0313C96.9278 47.0313 95.5948 49.2103 95.5948 51.7852C95.5948 54.3601 96.9278 56.5391 98.5038 56.5391C98.6674 56.5494 98.8209 56.6193 98.933 56.7345C99.0451 56.8497 99.1074 57.0017 99.1074 57.1596C99.1074 57.3175 99.0451 57.4694 98.933 57.5846C98.8209 57.6999 98.6674 57.7697 98.5038 57.7801Z" fill="#667499"/>
<g opacity="0.3">
<path opacity="0.3" d="M49.8046 57.7801C47.4531 57.7801 45.6094 55.1467 45.6094 51.7852C45.6094 48.4237 47.4531 45.793 49.8046 45.793C52.1561 45.793 54.0025 48.4264 54.0025 51.7852C53.9918 51.9427 53.9193 52.0904 53.7996 52.1984C53.6799 52.3063 53.5221 52.3664 53.3581 52.3664C53.1941 52.3664 53.0363 52.3063 52.9166 52.1984C52.7969 52.0904 52.7243 51.9427 52.7136 51.7852C52.7136 49.2103 51.3833 47.0313 49.8046 47.0313C48.2259 47.0313 46.8955 49.2103 46.8955 51.7852C46.8955 54.3601 48.2286 56.5391 49.8046 56.5391C49.8928 56.5335 49.9812 56.5455 50.0644 56.5741C50.1476 56.6028 50.2238 56.6476 50.2883 56.7057C50.3528 56.7639 50.4042 56.8342 50.4393 56.9123C50.4745 56.9903 50.4926 57.0745 50.4926 57.1596C50.4926 57.2447 50.4745 57.3288 50.4393 57.4069C50.4042 57.4849 50.3528 57.5552 50.2883 57.6134C50.2238 57.6716 50.1476 57.7164 50.0644 57.745C49.9812 57.7737 49.8928 57.7856 49.8046 57.7801Z" fill="black"/>
<path opacity="0.3" d="M59.5468 57.7801C57.1952 57.7801 55.3516 55.1467 55.3516 51.7852C55.3516 48.4237 57.1952 45.793 59.5468 45.793C61.8983 45.793 63.7585 48.4264 63.7585 51.7852C63.7478 51.9427 63.6753 52.0904 63.5556 52.1984C63.4359 52.3063 63.278 52.3664 63.1141 52.3664C62.9501 52.3664 62.7922 52.3063 62.6726 52.1984C62.5529 52.0904 62.4803 51.9427 62.4696 51.7852C62.4696 49.2103 61.1393 47.0313 59.5606 47.0313C57.9818 47.0313 56.6515 49.2103 56.6515 51.7852C56.6515 54.3601 57.9846 56.5391 59.5606 56.5391C59.7242 56.5494 59.8776 56.6193 59.9897 56.7345C60.1018 56.8497 60.1642 57.0017 60.1642 57.1596C60.1642 57.3175 60.1018 57.4694 59.9897 57.5846C59.8776 57.6999 59.7242 57.7697 59.5606 57.7801H59.5468Z" fill="black"/>
<path opacity="0.3" d="M69.2761 57.7801C66.9218 57.7801 65.0781 55.1467 65.0781 51.7852C65.0781 48.4237 66.9218 45.793 69.2761 45.793C71.6304 45.793 73.4713 48.4264 73.4713 51.7852C73.4713 51.9494 73.4035 52.1069 73.2829 52.223C73.1623 52.3391 72.9988 52.4043 72.8282 52.4043C72.6576 52.4043 72.4941 52.3391 72.3735 52.223C72.2529 52.1069 72.1851 51.9494 72.1851 51.7852C72.1851 49.2103 70.852 47.0313 69.2761 47.0313C67.7001 47.0313 66.367 49.2103 66.367 51.7852C66.367 54.3601 67.7001 56.5391 69.2761 56.5391C69.4397 56.5494 69.5932 56.6193 69.7053 56.7345C69.8174 56.8497 69.8797 57.0017 69.8797 57.1596C69.8797 57.3175 69.8174 57.4694 69.7053 57.5846C69.5932 57.6999 69.4397 57.7697 69.2761 57.7801Z" fill="black"/>
<path opacity="0.3" d="M79.0261 57.7801C76.6718 57.7801 74.8281 55.1467 74.8281 51.7852C74.8281 48.4237 76.6718 45.793 79.0261 45.793C81.3804 45.793 83.2213 48.4264 83.2213 51.7852C83.2213 51.9494 83.1535 52.1069 83.0329 52.223C82.9123 52.3391 82.7488 52.4043 82.5782 52.4043C82.4077 52.4043 82.2441 52.3391 82.1235 52.223C82.0029 52.1069 81.9351 51.9494 81.9351 51.7852C81.9351 49.2103 80.6021 47.0313 79.0261 47.0313C77.4501 47.0313 76.117 49.2103 76.117 51.7852C76.117 54.3601 77.4474 56.5391 79.0261 56.5391C79.1897 56.5494 79.3432 56.6193 79.4553 56.7345C79.5674 56.8497 79.6297 57.0017 79.6297 57.1596C79.6297 57.3175 79.5674 57.4694 79.4553 57.5846C79.3432 57.6999 79.1897 57.7697 79.0261 57.7801Z" fill="black"/>
<path opacity="0.3" d="M88.7616 57.7801C86.4101 57.7801 84.5664 55.1467 84.5664 51.7852C84.5664 48.4237 86.4101 45.793 88.7616 45.793C91.1131 45.793 92.9596 48.4264 92.9596 51.7852C92.9489 51.9427 92.8763 52.0904 92.7566 52.1984C92.6369 52.3063 92.4791 52.3664 92.3151 52.3664C92.1511 52.3664 91.9933 52.3063 91.8736 52.1984C91.7539 52.0904 91.6814 51.9427 91.6707 51.7852C91.6707 49.2103 90.3403 47.0313 88.7616 47.0313C87.1829 47.0313 85.8526 49.2103 85.8526 51.7852C85.8526 54.3601 87.1856 56.5391 88.7616 56.5391C88.8498 56.5335 88.9382 56.5455 89.0214 56.5741C89.1046 56.6028 89.1808 56.6476 89.2453 56.7057C89.3098 56.7639 89.3612 56.8342 89.3964 56.9123C89.4315 56.9903 89.4496 57.0745 89.4496 57.1596C89.4496 57.2447 89.4315 57.3288 89.3964 57.4069C89.3612 57.4849 89.3098 57.5552 89.2453 57.6134C89.1808 57.6716 89.1046 57.7164 89.0214 57.745C88.9382 57.7737 88.8498 57.7856 88.7616 57.7801Z" fill="black"/>
<path opacity="0.3" d="M98.4999 57.7801C96.1484 57.7801 94.3047 55.1467 94.3047 51.7852C94.3047 48.4237 96.1484 45.793 98.4999 45.793C100.851 45.793 102.698 48.4264 102.698 51.7852C102.687 51.9427 102.615 52.0904 102.495 52.1984C102.375 52.3063 102.217 52.3664 102.053 52.3664C101.889 52.3664 101.732 52.3063 101.612 52.1984C101.492 52.0904 101.42 51.9427 101.409 51.7852C101.409 49.2103 100.076 47.0313 98.4999 47.0313C96.9239 47.0313 95.5908 49.2103 95.5908 51.7852C95.5908 54.3601 96.9239 56.5391 98.4999 56.5391C98.6635 56.5494 98.817 56.6193 98.9291 56.7345C99.0412 56.8497 99.1035 57.0017 99.1035 57.1596C99.1035 57.3175 99.0412 57.4694 98.9291 57.5846C98.817 57.6999 98.6635 57.7697 98.4999 57.7801Z" fill="black"/>
</g>
<path d="M79.678 71.3274C77.4258 70.8969 74.8977 71.3992 73.9951 73.6845C73.2693 75.5233 74.1994 77.5163 76.2031 78.0026C77.9695 78.4304 81.0166 77.9069 81.6459 75.9458C82.3662 73.7031 79.4379 72.975 77.7957 72.8421C77.3016 72.8022 77.3044 73.5463 77.7957 73.5861C78.5436 73.6473 79.3992 73.6871 80.0616 74.0831C81.4416 74.9148 80.8731 76.2487 79.6973 76.8865C78.5215 77.5243 76.7193 77.6837 75.5573 76.9768C74.2877 76.1983 74.2463 74.487 75.0053 73.3709C76.0017 71.8961 77.8205 71.7313 79.46 72.0422C79.9457 72.1352 80.1527 71.4178 79.6642 71.3248L79.678 71.3274Z" fill="#667499"/>
<path opacity="0.1" d="M79.678 71.3274C77.4258 70.8969 74.8977 71.3992 73.9951 73.6845C73.2693 75.5233 74.1994 77.5163 76.2031 78.0026C77.9695 78.4304 81.0166 77.9069 81.6459 75.9458C82.3662 73.7031 79.4379 72.975 77.7957 72.8421C77.3016 72.8022 77.3044 73.5463 77.7957 73.5861C78.5436 73.6473 79.3992 73.6871 80.0616 74.0831C81.4416 74.9148 80.8731 76.2487 79.6973 76.8865C78.5215 77.5243 76.7193 77.6837 75.5573 76.9768C74.2877 76.1983 74.2463 74.487 75.0053 73.3709C76.0017 71.8961 77.8205 71.7313 79.46 72.0422C79.9457 72.1352 80.1527 71.4178 79.6642 71.3248L79.678 71.3274Z" fill="#FAFAFA"/>
<path d="M54.8282 62.7688C56.982 65.5178 59.3833 68.0787 62.0042 70.4218C62.3685 70.7487 62.9178 70.2225 62.5562 69.8903C59.9802 67.5936 57.6187 65.0834 55.4989 62.3888C55.2036 62.0114 54.5329 62.3888 54.8337 62.7635L54.8282 62.7688Z" fill="#667499"/>
<path d="M55.6282 70.11C57.2566 67.3224 60.1077 64.9442 62.8042 63.1239C63.2072 62.8582 62.8235 62.2045 62.4151 62.4808C59.6109 64.3782 56.6632 66.8282 54.9631 69.7326C54.9164 69.8172 54.9055 69.9159 54.9325 70.0081C54.9595 70.1003 55.0225 70.1789 55.1082 70.2276C55.1939 70.2762 55.2959 70.2911 55.3927 70.2692C55.4896 70.2473 55.574 70.1903 55.6282 70.11Z" fill="#667499"/>
<g opacity="0.2">
<path opacity="0.2" d="M54.8282 62.7688C56.982 65.5178 59.3833 68.0787 62.0042 70.4218C62.3685 70.7487 62.9178 70.2225 62.5562 69.8903C59.9802 67.5936 57.6187 65.0834 55.4989 62.3888C55.2036 62.0114 54.5329 62.3888 54.8337 62.7635L54.8282 62.7688Z" fill="black"/>
<path opacity="0.2" d="M55.6243 70.11C57.2527 67.3224 60.1038 64.9442 62.8003 63.1239C63.2033 62.8582 62.8196 62.2045 62.4112 62.4808C59.607 64.3782 56.6593 66.8282 54.9592 69.7326C54.9125 69.8172 54.9016 69.9159 54.9286 70.0081C54.9556 70.1003 55.0186 70.1789 55.1043 70.2276C55.19 70.2762 55.292 70.2911 55.3888 70.2692C55.4857 70.2473 55.57 70.1903 55.6243 70.11Z" fill="black"/>
</g>
<path d="M85.5256 65.1457H90.5626C90.6591 65.1378 90.749 65.0953 90.8145 65.0267C90.8801 64.958 90.9164 64.8682 90.9164 64.775C90.9164 64.6818 90.8801 64.5919 90.8145 64.5233C90.749 64.4546 90.6591 64.4122 90.5626 64.4043H85.5256C85.4292 64.4122 85.3393 64.4546 85.2737 64.5233C85.2082 64.5919 85.1719 64.6818 85.1719 64.775C85.1719 64.8682 85.2082 64.958 85.2737 65.0267C85.3393 65.0953 85.4292 65.1378 85.5256 65.1457Z" fill="#667499"/>
<path d="M85.4684 66.5253H88.3885C88.491 66.5253 88.5893 66.4861 88.6617 66.4163C88.7342 66.3466 88.7749 66.2519 88.7749 66.1533C88.7749 66.0546 88.7342 65.96 88.6617 65.8902C88.5893 65.8204 88.491 65.7813 88.3885 65.7812H85.4684C85.3659 65.7812 85.2677 65.8204 85.1952 65.8902C85.1227 65.96 85.082 66.0546 85.082 66.1533C85.082 66.2519 85.1227 66.3466 85.1952 66.4163C85.2677 66.4861 85.3659 66.5253 85.4684 66.5253Z" fill="#667499"/>
<g opacity="0.1">
<path opacity="0.1" d="M85.5256 65.1457H90.5626C90.6591 65.1378 90.749 65.0953 90.8145 65.0267C90.8801 64.958 90.9164 64.8682 90.9164 64.775C90.9164 64.6818 90.8801 64.5919 90.8145 64.5233C90.749 64.4546 90.6591 64.4122 90.5626 64.4043H85.5256C85.4292 64.4122 85.3393 64.4546 85.2737 64.5233C85.2082 64.5919 85.1719 64.6818 85.1719 64.775C85.1719 64.8682 85.2082 64.958 85.2737 65.0267C85.3393 65.0953 85.4292 65.1378 85.5256 65.1457Z" fill="#FAFAFA"/>
<path opacity="0.1" d="M85.4684 66.5253H88.3885C88.491 66.5253 88.5893 66.4861 88.6617 66.4163C88.7342 66.3466 88.7749 66.2519 88.7749 66.1533C88.7749 66.0546 88.7342 65.96 88.6617 65.8902C88.5893 65.8204 88.491 65.7813 88.3885 65.7812H85.4684C85.3659 65.7812 85.2677 65.8204 85.1952 65.8902C85.1227 65.96 85.082 66.0546 85.082 66.1533C85.082 66.2519 85.1227 66.3466 85.1952 66.4163C85.2677 66.4861 85.3659 66.5253 85.4684 66.5253Z" fill="#FAFAFA"/>
</g>
<path d="M55.3551 84.1835H59.6746C59.777 84.1835 59.8753 84.1443 59.9478 84.0745C60.0202 84.0048 60.0609 83.9101 60.0609 83.8115C60.0609 83.7128 60.0202 83.6182 59.9478 83.5484C59.8753 83.4787 59.777 83.4395 59.6746 83.4395H55.3551C55.2527 83.4395 55.1544 83.4787 55.0819 83.5484C55.0095 83.6182 54.9688 83.7128 54.9688 83.8115C54.9688 83.9101 55.0095 84.0048 55.0819 84.0745C55.1544 84.1443 55.2527 84.1835 55.3551 84.1835Z" fill="#667499"/>
<path d="M55.2028 85.7792H60.8056C60.9081 85.7792 61.0064 85.74 61.0788 85.6702C61.1513 85.6005 61.192 85.5058 61.192 85.4072C61.192 85.3085 61.1513 85.2139 61.0788 85.1441C61.0064 85.0743 60.9081 85.0352 60.8056 85.0352H55.2028C55.1003 85.0352 55.002 85.0743 54.9296 85.1441C54.8571 85.2139 54.8164 85.3085 54.8164 85.4072C54.8164 85.5058 54.8571 85.6005 54.9296 85.6702C55.002 85.74 55.1003 85.7792 55.2028 85.7792Z" fill="#667499"/>
<path d="M55.2028 87.4257H58.0042C58.1067 87.4257 58.205 87.3865 58.2774 87.3167C58.3499 87.2469 58.3906 87.1523 58.3906 87.0537C58.3906 86.955 58.3499 86.8604 58.2774 86.7906C58.205 86.7208 58.1067 86.6816 58.0042 86.6816H55.2028C55.1003 86.6816 55.002 86.7208 54.9296 86.7906C54.8571 86.8604 54.8164 86.955 54.8164 87.0537C54.8164 87.1523 54.8571 87.2469 54.9296 87.3167C55.002 87.3865 55.1003 87.4257 55.2028 87.4257Z" fill="#667499"/>
<g opacity="0.1">
<path opacity="0.1" d="M55.3591 84.1835H59.6785C59.7809 84.1835 59.8792 84.1443 59.9517 84.0745C60.0241 84.0048 60.0649 83.9101 60.0649 83.8115C60.0649 83.7128 60.0241 83.6182 59.9517 83.5484C59.8792 83.4787 59.7809 83.4395 59.6785 83.4395H55.3591C55.2566 83.4395 55.1583 83.4787 55.0858 83.5484C55.0134 83.6182 54.9727 83.7128 54.9727 83.8115C54.9727 83.9101 55.0134 84.0048 55.0858 84.0745C55.1583 84.1443 55.2566 84.1835 55.3591 84.1835Z" fill="#FAFAFA"/>
<path opacity="0.1" d="M55.2028 85.7792H60.8056C60.9081 85.7792 61.0064 85.74 61.0788 85.6702C61.1513 85.6005 61.192 85.5058 61.192 85.4072C61.192 85.3085 61.1513 85.2139 61.0788 85.1441C61.0064 85.0743 60.9081 85.0352 60.8056 85.0352H55.2028C55.1003 85.0352 55.002 85.0743 54.9296 85.1441C54.8571 85.2139 54.8164 85.3085 54.8164 85.4072C54.8164 85.5058 54.8571 85.6005 54.9296 85.6702C55.002 85.74 55.1003 85.7792 55.2028 85.7792Z" fill="#FAFAFA"/>
<path opacity="0.1" d="M55.2028 87.4257H58.0042C58.1067 87.4257 58.205 87.3865 58.2774 87.3167C58.3499 87.2469 58.3906 87.1523 58.3906 87.0537C58.3906 86.955 58.3499 86.8604 58.2774 86.7906C58.205 86.7208 58.1067 86.6816 58.0042 86.6816H55.2028C55.1003 86.6816 55.002 86.7208 54.9296 86.7906C54.8571 86.8604 54.8164 86.955 54.8164 87.0537C54.8164 87.1523 54.8571 87.2469 54.9296 87.3167C55.002 87.3865 55.1003 87.4257 55.2028 87.4257Z" fill="#FAFAFA"/>
</g>
<path d="M24.8951 42.4601L26.2006 42.4043L25.61 44.7959C25.1441 44.4888 24.7195 44.1273 24.3459 43.7197C24.2381 43.5977 24.1847 43.4397 24.1971 43.2801C24.2095 43.1204 24.2867 42.9719 24.4121 42.8667L24.8951 42.4601Z" fill="#E4897B"/>
<path d="M27.7153 43.6931L27.1301 45.6382L25.6094 44.7906L26.2 42.4043L27.7153 43.6931Z" fill="#E4897B"/>
<path d="M27.4604 32.1466L24.7891 32.3848L30.9158 96.0921L33.5871 95.854L27.4604 32.1466Z" fill="#667499"/>
<path opacity="0.3" d="M27.4604 32.1466L24.7891 32.3848L30.9158 96.0921L33.5871 95.854L27.4604 32.1466Z" fill="black"/>
<path d="M32.8041 31.6681L30.1328 31.9062L36.2595 95.6136L38.9308 95.3755L32.8041 31.6681Z" fill="#667499"/>
<path opacity="0.3" d="M32.8041 31.6681L30.1328 31.9062L36.2595 95.6136L38.9308 95.3755L32.8041 31.6681Z" fill="black"/>
<path d="M30.1322 31.9064L27.4609 32.1445L33.5876 95.8519L36.2589 95.6137L30.1322 31.9064Z" fill="#667499"/>
<path opacity="0.1" d="M30.1322 31.9064L27.4609 32.1445L33.5876 95.8519L36.2589 95.6137L30.1322 31.9064Z" fill="black"/>
<path d="M29.5694 27.4531L27.1654 27.6684L24.7891 32.3851L32.8041 31.6703L29.5694 27.4531Z" fill="#667499"/>
<g opacity="0.8">
<path opacity="0.8" d="M29.5694 27.4531L27.1654 27.6684L24.7891 32.3851L32.8041 31.6703L29.5694 27.4531Z" fill="#FAFAFA"/>
</g>
<path d="M28.1825 25.6445L27.1641 27.6667L29.568 27.4515L28.1825 25.6445Z" fill="#263238"/>
<path d="M48.3808 29.2461C48.6568 29.5118 48.8859 29.7643 49.1233 30.0433C49.3606 30.3223 49.5869 30.5747 49.8132 30.8405C50.2687 31.3719 50.6937 31.9326 51.1077 32.5039C51.9611 33.6656 52.6811 34.913 53.255 36.2242C53.324 36.3942 53.3875 36.5723 53.4537 36.7556L53.5531 37.0214C53.6078 37.1804 53.6466 37.3441 53.669 37.5103C53.7289 38.0391 53.656 38.5741 53.4564 39.0701C53.1586 39.8024 52.7412 40.4842 52.22 41.0897C51.2985 42.1755 50.2375 43.1443 49.0625 43.9729L48.022 42.9099C48.8409 41.9243 49.5897 40.8865 50.2631 39.8035C50.5582 39.3409 50.7848 38.841 50.9366 38.3181C50.9785 38.1898 50.9833 38.0529 50.9504 37.9222L50.8565 37.7255C50.793 37.5953 50.7379 37.4598 50.6689 37.3323C50.0846 36.2408 49.4012 35.2013 48.6264 34.2259C48.24 33.7183 47.8316 33.2241 47.4176 32.7298C47.2106 32.4853 47.0008 32.2409 46.7855 32.0017L46.1562 31.3028L48.3808 29.2461Z" fill="#E4897B"/>
<path d="M46.3516 43.7197L47.5273 45.9598L48.6782 45.0058L47.7343 43.4141L46.3516 43.7197Z" fill="#E4897B"/>
<path d="M37.4954 30.5584C36.7796 31.8711 36.0363 33.1687 35.2653 34.4513C34.8872 35.097 34.4898 35.7321 34.1034 36.3726L33.51 37.3292L33.3609 37.5683C33.2864 37.6826 33.2036 37.8181 33.1291 37.9085C33.0546 37.9988 32.98 38.1078 32.9083 38.1901C32.8365 38.2725 32.7592 38.3655 32.6875 38.4426C32.1299 39.0273 31.5364 39.5793 30.91 40.0954C30.3056 40.5923 29.7012 41.076 29.0774 41.5357C27.8437 42.4631 26.5768 43.3267 25.2631 44.1505L24.3164 43.0025L27.587 39.9014C28.1224 39.37 28.6634 38.8704 29.174 38.3443C29.6757 37.8491 30.1484 37.3275 30.5899 36.7818C30.6432 36.718 30.6902 36.6569 30.7306 36.5984C30.7776 36.5346 30.8107 36.4815 30.8438 36.4284C30.8723 36.3856 30.8982 36.3412 30.9211 36.2955L31.048 36.0484L31.5586 35.0466C31.9092 34.3849 32.2514 33.7179 32.6074 33.0616C33.3122 31.7382 34.0482 30.4299 34.8154 29.1367L37.4954 30.5584Z" fill="#E4897B"/>
<path d="M45.2411 21.5817C45.2053 21.7358 45.2632 21.8819 45.3653 21.9085C45.4675 21.9351 45.5806 21.8288 45.6165 21.6747C45.6524 21.5206 45.5917 21.3744 45.4895 21.3478C45.3874 21.3213 45.266 21.4275 45.2411 21.5817Z" fill="#263238"/>
<path d="M45.2459 21.8809C45.3324 22.3992 45.4902 22.9041 45.7151 23.3822C45.5881 23.4306 45.4516 23.4517 45.3153 23.4439C45.1789 23.4361 45.046 23.3996 44.9258 23.3371L45.2459 21.8809Z" fill="#DE5753"/>
<path d="M45.6625 20.6465C45.6428 20.6465 45.6236 20.641 45.6073 20.6305C45.5053 20.5706 45.3897 20.5354 45.2705 20.5279C45.1512 20.5205 45.0319 20.5412 44.9228 20.588C44.899 20.597 44.8725 20.5967 44.8488 20.5873C44.8251 20.5779 44.8062 20.5601 44.7958 20.5375C44.7866 20.5146 44.7868 20.4891 44.7966 20.4663C44.8064 20.4435 44.8249 20.4253 44.8483 20.4153C44.9878 20.3576 45.1397 20.3333 45.2911 20.3444C45.4425 20.3555 45.5889 20.4017 45.7177 20.4791C45.7282 20.4858 45.7372 20.4944 45.7441 20.5045C45.7511 20.5146 45.7558 20.5259 45.7582 20.5378C45.7605 20.5497 45.7603 20.5619 45.7576 20.5737C45.7549 20.5856 45.7498 20.5968 45.7425 20.6066C45.7335 20.619 45.7216 20.6292 45.7076 20.6361C45.6937 20.643 45.6782 20.6466 45.6625 20.6465Z" fill="#263238"/>
<path d="M39.659 22.1699C40.0068 23.5995 40.4015 26.2143 39.4023 27.1683C39.4023 27.1683 39.866 28.6165 42.6233 28.6165C45.6593 28.6165 44.0033 27.1683 44.0033 27.1683C42.3335 26.7883 42.3279 25.6058 42.5708 24.4977L39.659 22.1699Z" fill="#E4897B"/>
<path d="M39.0256 27.6638C38.7883 27.2068 38.5288 26.6806 39.0256 26.5159C39.5611 26.3352 42.5336 26.1518 43.5741 26.4893C43.8513 26.5607 44.0888 26.7333 44.2362 26.9704C44.3835 27.2075 44.4292 27.4905 44.3635 27.7595L39.0256 27.6638Z" fill="#667499"/>
<path opacity="0.6" d="M39.0256 27.6638C38.7883 27.2068 38.5288 26.6806 39.0256 26.5159C39.5611 26.3352 42.5336 26.1518 43.5741 26.4893C43.8513 26.5607 44.0888 26.7333 44.2362 26.9704C44.3835 27.2075 44.4292 27.4905 44.3635 27.7595L39.0256 27.6638Z" fill="#FAFAFA"/>
<path d="M35.055 94.3336C34.8769 94.3327 34.6993 94.314 34.5251 94.2778C34.5162 94.2763 34.5079 94.2722 34.5015 94.266C34.4951 94.2598 34.4908 94.2519 34.4892 94.2433C34.4874 94.2344 34.4882 94.2251 34.4917 94.2167C34.4951 94.2082 34.5009 94.2008 34.5085 94.1955C34.5306 94.1795 35.0605 93.8128 35.3697 93.8766C35.4031 93.8822 35.4347 93.8949 35.4624 93.9137C35.4901 93.9326 35.5131 93.9571 35.5297 93.9855C35.5546 94.0173 35.568 94.056 35.568 94.0958C35.568 94.1356 35.5546 94.1743 35.5297 94.2061C35.4635 94.3097 35.262 94.3336 35.055 94.3336ZM34.6603 94.2114C34.9639 94.2592 35.3779 94.2592 35.4607 94.1503C35.4607 94.1503 35.4939 94.1078 35.4469 94.0307C35.4368 94.0138 35.4229 93.9993 35.4062 93.9882C35.3895 93.9772 35.3704 93.9699 35.3503 93.9669C35.0997 93.9825 34.8595 94.0694 34.6603 94.2167V94.2114Z" fill="#FAFAFA"/>
<path d="M34.5353 94.2864H34.5105C34.5033 94.2825 34.4974 94.2766 34.4935 94.2696C34.4896 94.2625 34.4878 94.2546 34.4884 94.2466C34.4884 94.2227 34.5132 93.6593 34.7423 93.4733C34.7698 93.4496 34.8023 93.4318 34.8375 93.4213C34.8728 93.4107 34.9099 93.4076 34.9466 93.4122C34.9838 93.4122 35.0198 93.4246 35.0485 93.4474C35.0772 93.4702 35.0968 93.5019 35.1039 93.5371C35.148 93.755 34.7616 94.1801 34.5519 94.2891L34.5353 94.2864ZM34.9134 93.4893C34.8737 93.4897 34.8356 93.5038 34.8058 93.5291C34.6704 93.7077 34.5953 93.9219 34.5905 94.1429C34.7892 93.9915 35.0349 93.6699 35.01 93.5424C35.01 93.5291 35.01 93.4972 34.9355 93.4893H34.9134Z" fill="#FAFAFA"/>
<path d="M47.2294 94.3337C47.0202 94.3337 46.8114 94.315 46.6057 94.2779C46.596 94.2764 46.5871 94.272 46.5802 94.2653C46.5732 94.2586 46.5686 94.25 46.567 94.2407C46.5655 94.2315 46.5668 94.2221 46.5707 94.2136C46.5746 94.2051 46.581 94.1979 46.5891 94.1929C46.6912 94.1371 47.591 93.6402 47.809 93.983C47.8309 94.0129 47.8426 94.0486 47.8426 94.0853C47.8426 94.1219 47.8309 94.1576 47.809 94.1876C47.7483 94.3045 47.4889 94.3337 47.2294 94.3337ZM46.7575 94.2088C47.1384 94.262 47.6517 94.254 47.74 94.1344C47.74 94.1344 47.7676 94.0972 47.7262 94.0308C47.6048 93.8421 47.0583 94.068 46.7575 94.2141V94.2088Z" fill="#FAFAFA"/>
<path d="M46.6137 94.2865C46.6047 94.2888 46.5951 94.2888 46.5861 94.2865C46.5792 94.2817 46.5737 94.2753 46.5703 94.2678C46.5669 94.2603 46.5657 94.252 46.5668 94.2439C46.5668 94.2227 46.5999 93.6965 46.8428 93.4919C46.8796 93.4595 46.9235 93.4355 46.9713 93.4217C47.0191 93.4078 47.0695 93.4046 47.1188 93.4122C47.254 93.4255 47.2927 93.4919 47.3009 93.5451C47.3396 93.7709 46.8787 94.1828 46.6358 94.2891L46.6137 94.2865ZM47.0774 93.4893C47.0161 93.4885 46.9569 93.5104 46.9118 93.5504C46.7667 93.7215 46.6825 93.933 46.6717 94.1536C46.9145 94.0101 47.2237 93.6833 47.2043 93.5477C47.2043 93.5344 47.2043 93.4999 47.105 93.4893H47.0774Z" fill="#FAFAFA"/>
<path d="M44.3867 94.2388H46.4153L46.4346 89.7188H44.4088L44.3867 94.2388Z" fill="#E4897B"/>
<path d="M32.2109 94.2388H34.2395L35.0786 89.7188H33.05L32.2109 94.2388Z" fill="#E4897B"/>
<path d="M34.3739 94.0117H32.0969C32.0566 94.0112 32.0175 94.0246 31.9866 94.0495C31.9557 94.0743 31.9351 94.109 31.9285 94.1473L31.5973 95.8825C31.5905 95.9255 31.5935 95.9695 31.6061 96.0113C31.6187 96.0531 31.6406 96.0918 31.6702 96.1247C31.6999 96.1575 31.7366 96.1838 31.7779 96.2016C31.8192 96.2194 31.864 96.2284 31.9092 96.2279C32.7041 96.2146 33.0877 96.1695 34.0896 96.1695C34.7051 96.1695 35.9774 96.2332 36.8303 96.2332C37.6831 96.2332 37.7576 95.436 37.4071 95.3484C35.8311 95.0189 35.2239 94.5644 34.7078 94.134C34.6157 94.0554 34.4969 94.0119 34.3739 94.0117Z" fill="#263238"/>
<path d="M46.3918 94.0117H44.1838C44.1435 94.0112 44.1044 94.0246 44.0735 94.0495C44.0426 94.0743 44.022 94.109 44.0154 94.1473L43.6842 95.8825C43.6765 95.9252 43.6787 95.9691 43.6906 96.0109C43.7025 96.0527 43.7238 96.0915 43.7531 96.1245C43.7823 96.1575 43.8188 96.1839 43.8598 96.2018C43.9009 96.2196 43.9455 96.2286 43.9906 96.2279C44.7882 96.2146 45.9391 96.1695 46.9438 96.1695C48.1195 96.1695 49.1352 96.2332 50.5125 96.2332C51.3405 96.2332 51.5419 95.436 51.1914 95.3484C49.5906 95.0135 48.2934 94.979 46.8913 94.1659C46.743 94.0706 46.57 94.0172 46.3918 94.0117Z" fill="#263238"/>
<path d="M35.5359 27.6083C33.6508 28.0281 31.6719 33.0159 31.6719 33.0159L35.5883 35.535C36.4875 34.2224 37.2757 32.8423 37.9454 31.4082C38.9804 29.1256 37.4596 27.1804 35.5359 27.6083Z" fill="#667499"/>
<path opacity="0.7" d="M35.5359 27.6083C33.6508 28.0281 31.6719 33.0159 31.6719 33.0159L35.5883 35.535C36.4875 34.2224 37.2757 32.8423 37.9454 31.4082C38.9804 29.1256 37.4596 27.1804 35.5359 27.6083Z" fill="black"/>
<path d="M37.0225 30.7891L35.4023 35.4154L35.5873 35.535C35.5873 35.535 36.3269 34.4721 37.1135 33.0557L37.0225 30.7891Z" fill="#667499"/>
<path opacity="0.8" d="M37.0225 30.7891L35.4023 35.4154L35.5873 35.535C35.5873 35.535 36.3269 34.4721 37.1135 33.0557L37.0225 30.7891Z" fill="black"/>
<path d="M48.1842 36.3297C48.1677 38.5087 48.0324 41.2191 47.6957 44.5833H36.8489C36.7082 42.9889 37.4423 35.1605 35.5352 27.6084C36.7282 27.3858 37.935 27.2384 39.148 27.1673C40.6831 27.0822 42.2221 27.0822 43.7572 27.1673C44.8159 27.2664 45.865 27.4441 46.8953 27.6988C46.8953 27.6988 47.8227 28.666 48.1042 33.2021C48.1594 34.1082 48.1898 35.1392 48.1842 36.3297Z" fill="#667499"/>
<path opacity="0.7" d="M48.1842 36.3297C48.1677 38.5087 48.0324 41.2191 47.6957 44.5833H36.8489C36.7082 42.9889 37.4423 35.1605 35.5352 27.6084C36.7282 27.3858 37.935 27.2384 39.148 27.1673C40.6831 27.0822 42.2221 27.0822 43.7572 27.1673C44.8159 27.2664 45.865 27.4441 46.8953 27.6988C46.8953 27.6988 47.8227 28.666 48.1042 33.2021C48.1594 34.1082 48.1898 35.1392 48.1842 36.3297Z" fill="black"/>
<path d="M48.1852 36.33C47.5283 35.1767 46.336 32.8622 46.5044 31.5469L48.1052 33.2157C48.1604 34.1085 48.1907 35.1395 48.1852 36.33Z" fill="#667499"/>
<path opacity="0.8" d="M48.1852 36.33C47.5283 35.1767 46.336 32.8622 46.5044 31.5469L48.1052 33.2157C48.1604 34.1085 48.1907 35.1395 48.1852 36.33Z" fill="black"/>
<path d="M44.7705 29.4745C44.5994 31.3346 48.9795 35.8095 48.9795 35.8095L52.4902 33.0566C51.5707 31.5626 50.469 30.1799 49.2086 28.9377C47.1552 27.0271 44.9637 27.3912 44.7705 29.4745Z" fill="#667499"/>
<path opacity="0.7" d="M44.7705 29.4745C44.5994 31.3346 48.9795 35.8095 48.9795 35.8095L52.4902 33.0566C51.5707 31.5626 50.469 30.1799 49.2086 28.9377C47.1552 27.0271 44.9637 27.3912 44.7705 29.4745Z" fill="black"/>
<path d="M46.4353 89.7207L46.4243 92.0485H44.3984L44.4067 89.7207H46.4353Z" fill="#CE6F64"/>
<path d="M33.0505 89.7207H35.0791L34.6458 92.0485H32.6172L33.0505 89.7207Z" fill="#CE6F64"/>
<path d="M40.0223 19.9692C39.7269 21.8931 39.4537 22.9986 40.221 24.2209C40.4649 24.6168 40.8167 24.9408 41.2382 25.1579C41.6597 25.375 42.1349 25.4769 42.6123 25.4526C43.0897 25.4282 43.5511 25.2785 43.9464 25.0197C44.3417 24.7609 44.6559 24.4029 44.855 23.9844C45.6471 22.39 46.0004 19.5095 44.2589 18.2925C43.8914 18.0193 43.4556 17.8441 42.9955 17.7845C42.5354 17.7248 42.067 17.7829 41.6376 17.9529C41.2082 18.1228 40.8328 18.3987 40.5493 18.7526C40.2657 19.1066 40.0839 19.5262 40.0223 19.9692Z" fill="#E4897B"/>
<path d="M46.0236 19.0577C45.4263 19.3718 44.7691 19.5661 44.0916 19.629C43.5865 21.8532 42.2424 24.4122 40.0675 23.6761C39.2395 23.4104 38.4115 21.4785 38.326 19.7645C38.1825 19.932 38.0859 20.1499 38.0113 20.2402C37.8872 19.4785 37.9768 18.6987 38.2708 17.9815C38.8725 16.3393 39.2727 17.4288 39.9268 16.4323C40.3491 15.7733 41.0998 15.4331 42.4108 15.3906C42.0437 15.574 41.9747 15.8689 42.5184 15.8264C43.0621 15.7839 45.3833 15.6617 46.7357 16.5412C45.8221 16.7405 46.3797 18.1356 47.5996 17.3916C47.1552 18.0851 46.6032 18.7441 46.0236 19.0577Z" fill="#263238"/>
<path d="M42.5313 21.1606C42.539 21.6499 42.7092 22.1239 43.017 22.5132C43.4283 23.0234 43.9002 22.7789 44.0134 22.2049C44.1127 21.6947 44.0134 20.8125 43.5 20.5043C42.9867 20.196 42.5285 20.576 42.5313 21.1606Z" fill="#E4897B"/>
<path d="M40.0607 16.639C39.7852 16.6222 39.5182 16.5407 39.283 16.4018C39.0478 16.2628 38.8514 16.0706 38.711 15.8418C38.711 15.8418 38.6751 17.399 40.0607 16.639Z" fill="#1E2A4C"/>
<path d="M43.8461 44.5848C43.8461 44.5848 42.1459 59.5029 41.1054 65.0912C39.9683 71.203 35.5854 91.6005 35.5854 91.6005H31.8594C31.8594 91.6005 34.5035 71.7053 35.0555 65.636C35.6489 59.0592 36.8605 44.5742 36.8605 44.5742L43.8461 44.5848Z" fill="#667499"/>
<path opacity="0.6" d="M43.8461 44.5848C43.8461 44.5848 42.1459 59.5029 41.1054 65.0912C39.9683 71.203 35.5854 91.6005 35.5854 91.6005H31.8594C31.8594 91.6005 34.5035 71.7053 35.0555 65.636C35.6489 59.0592 36.8605 44.5742 36.8605 44.5742L43.8461 44.5848Z" fill="#FAFAFA"/>
<path d="M36.1137 90.2812C36.1303 90.2812 35.7853 91.6551 35.7853 91.6551H31.6094L31.637 90.4301L36.1137 90.2812Z" fill="#667499"/>
<path opacity="0.1" d="M36.1137 90.2812C36.1303 90.2812 35.7853 91.6551 35.7853 91.6551H31.6094L31.637 90.4301L36.1137 90.2812Z" fill="#FAFAFA"/>
<path d="M42.6057 49.8976C39.9643 50.3998 40.6295 59.9528 41.1456 64.8662C41.7749 61.3931 42.6305 54.71 43.2073 49.9667C43.0206 49.8791 42.8086 49.8547 42.6057 49.8976Z" fill="#667499"/>
<path opacity="0.4" d="M42.6057 49.8976C39.9643 50.3998 40.6295 59.9528 41.1456 64.8662C41.7749 61.3931 42.6305 54.71 43.2073 49.9667C43.0206 49.8791 42.8086 49.8547 42.6057 49.8976Z" fill="#FAFAFA"/>
<path d="M47.6916 44.584C47.6916 44.584 48.5582 59.1779 48.5748 65.1329C48.5941 71.3244 47.1617 91.5996 47.1617 91.5996H43.7255C43.7255 91.5996 42.8009 71.6858 42.4034 65.6059C41.9729 58.9759 40.5625 44.584 40.5625 44.584H47.6916Z" fill="#667499"/>
<path opacity="0.6" d="M47.6916 44.584C47.6916 44.584 48.5582 59.1779 48.5748 65.1329C48.5941 71.3244 47.1617 91.5996 47.1617 91.5996H43.7255C43.7255 91.5996 42.8009 71.6858 42.4034 65.6059C41.9729 58.9759 40.5625 44.584 40.5625 44.584H47.6916Z" fill="#FAFAFA"/>
<path d="M48.5231 42.707L47.5598 42.7814C47.4814 42.7878 47.4054 42.8109 47.3373 42.849C47.2693 42.8872 47.2109 42.9395 47.1665 43.0021C47.1221 43.0647 47.0928 43.1361 47.0806 43.211C47.0684 43.2859 47.0737 43.3625 47.0962 43.4351L47.4936 44.7239C47.5271 44.8286 47.5865 44.924 47.6665 45.0019C47.7466 45.0798 47.845 45.1379 47.9534 45.1713C48.0618 45.2047 48.177 45.2124 48.2892 45.1937C48.4013 45.1751 48.5071 45.1306 48.5976 45.0641C49.0952 44.6182 49.452 44.0462 49.6271 43.4139L48.5231 42.707Z" fill="#E4897B"/>
<path d="M46.3495 89.2243C46.3403 89.223 46.3318 89.2186 46.3257 89.2117C46.3196 89.2049 46.3163 89.1961 46.3164 89.1871C46.6973 83.5776 47.5805 70.0014 47.5639 65.1332C47.5639 60.1508 46.9346 49.0061 46.7359 45.7084C46.7355 45.704 46.7361 45.6995 46.7376 45.6954C46.7391 45.6912 46.7415 45.6873 46.7446 45.6841C46.7477 45.6808 46.7515 45.6782 46.7557 45.6765C46.7599 45.6747 46.7645 45.6738 46.769 45.6738C46.7781 45.6738 46.7868 45.6771 46.7935 45.683C46.8001 45.6889 46.8042 45.697 46.8049 45.7057C46.9926 49.0034 47.6081 60.1481 47.6329 65.1332C47.6495 70.0041 46.7663 83.5802 46.3854 89.1924C46.3854 89.1969 46.3845 89.2012 46.3826 89.2053C46.3808 89.2093 46.3781 89.213 46.3748 89.216C46.3714 89.219 46.3674 89.2213 46.363 89.2227C46.3587 89.2242 46.3541 89.2247 46.3495 89.2243Z" fill="#667499"/>
<path opacity="0.3" d="M46.3495 89.2243C46.3403 89.223 46.3318 89.2186 46.3257 89.2117C46.3196 89.2049 46.3163 89.1961 46.3164 89.1871C46.6973 83.5776 47.5805 70.0014 47.5639 65.1332C47.5639 60.1508 46.9346 49.0061 46.7359 45.7084C46.7355 45.704 46.7361 45.6995 46.7376 45.6954C46.7391 45.6912 46.7415 45.6873 46.7446 45.6841C46.7477 45.6808 46.7515 45.6782 46.7557 45.6765C46.7599 45.6747 46.7645 45.6738 46.769 45.6738C46.7781 45.6738 46.7868 45.6771 46.7935 45.683C46.8001 45.6889 46.8042 45.697 46.8049 45.7057C46.9926 49.0034 47.6081 60.1481 47.6329 65.1332C47.6495 70.0041 46.7663 83.5802 46.3854 89.1924C46.3854 89.1969 46.3845 89.2012 46.3826 89.2053C46.3808 89.2093 46.3781 89.213 46.3748 89.216C46.3714 89.219 46.3674 89.2213 46.363 89.2227C46.3587 89.2242 46.3541 89.2247 46.3495 89.2243Z" fill="#FAFAFA"/>
<path d="M47.7725 90.2812C47.789 90.2812 47.6345 91.6551 47.6345 91.6551H43.4558L43.293 90.4301L47.7725 90.2812Z" fill="#667499"/>
<path opacity="0.1" d="M47.7725 90.2812C47.789 90.2812 47.6345 91.6551 47.6345 91.6551H43.4558L43.293 90.4301L47.7725 90.2812Z" fill="#FAFAFA"/>
</svg>
