<svg width="193" height="181" viewBox="0 0 193 181" fill="none" xmlns="http://www.w3.org/2000/svg">
<path d="M102.5 180.5C152.206 180.5 192.5 140.206 192.5 90.5C192.5 40.7944 152.206 0.5 102.5 0.5C52.7944 0.5 12.5 40.7944 12.5 90.5C12.5 140.206 52.7944 180.5 102.5 180.5Z" fill="#F0F4FE"/>
<path d="M94.4712 150.417C95.2168 150.66 116.58 150.462 117.386 149.937C117.706 149.745 117.85 146.628 117.927 142.862V142.743C117.946 141.966 117.959 141.166 117.962 140.356C117.962 140.244 116.986 128.938 116.986 128.938L103.022 129.031L104.068 140.446L104.145 142.718V142.951C104.145 142.951 96.004 146.686 95.1848 147.355C94.3656 148.023 93.7224 150.177 94.4712 150.417Z" fill="#EB9481"/>
<path d="M117.879 144.817C117.79 147.655 117.642 149.78 117.386 149.937C116.58 150.458 95.2167 150.66 94.4679 150.414C93.7191 150.167 94.3591 148.02 95.1815 147.354C95.5015 147.095 96.9095 146.394 98.5191 145.601C97.6807 146.51 97.2583 147.521 99.5015 147.521C103.489 147.518 110.446 146.862 117.879 144.817Z" fill="#263238"/>
<path d="M103.466 142.522H118.852C118.852 142.522 115.754 106.593 115.876 105.966C116.029 105.162 116.938 101.524 118.145 96.772C118.525 95.2872 118.932 93.6904 119.357 92.0392C120.506 87.5592 121.77 82.6824 122.877 78.4328C124.532 72.0616 125.821 67.1144 125.821 67.1144H112.778C112.778 67.1144 111.258 71.9336 109.341 78.1992C106.221 88.3848 102.052 102.404 101.642 105.812C100.98 111.3 103.466 142.522 103.466 142.522Z" fill="#37474F"/>
<path d="M104.148 139.898C106.5 139.85 105.825 139.831 108.174 139.809C109.322 139.809 116.881 139.732 117.953 139.908C117.958 139.91 117.962 139.913 117.965 139.917C117.968 139.922 117.969 139.927 117.969 139.932C117.969 139.937 117.968 139.942 117.965 139.947C117.962 139.951 117.958 139.954 117.953 139.956C116.881 140.135 109.313 140.068 108.174 140.058C105.825 140.036 106.5 140.017 104.148 139.969C104.106 139.966 104.106 139.898 104.148 139.898Z" fill="#263238"/>
<path d="M112.98 103.77C113.486 101.53 114.238 99.3673 114.9 97.1817C116.233 92.7465 117.575 88.3145 118.926 83.8857C119.598 81.667 120.274 79.4515 120.954 77.2393C121.3 76.1225 121.642 74.9993 121.991 73.8889C122.34 72.7785 122.724 71.7129 123.034 70.6121C123.159 70.1641 123.226 70.4105 123.066 70.9801C122.746 72.1257 122.426 73.2745 122.087 74.4201C121.426 76.6857 120.759 78.9513 120.087 81.2169C118.752 85.7246 117.407 90.2281 116.052 94.7273C115.374 96.9865 114.694 99.2435 114.014 101.498C113.671 102.572 113.393 103.665 113.182 104.772C113.001 105.931 112.956 107.107 113.047 108.276C113.194 110.631 113.466 112.98 113.687 115.316L114.327 122.375C114.754 127.069 115.181 131.752 115.607 136.426C115.661 137.02 115.711 137.614 115.758 138.209C115.758 138.407 115.633 138.43 115.614 138.238C115.105 133.607 114.558 128.922 114.122 124.286C113.687 119.649 113.255 115.057 112.826 110.439C112.718 109.281 112.593 108.119 112.593 106.954C112.602 105.882 112.732 104.814 112.98 103.77Z" fill="#263238"/>
<path d="M114.257 67.1144C115.162 74.1192 116.887 87.2488 118.145 96.772C121.085 85.2328 125.825 67.1144 125.825 67.1144H114.257Z" fill="#263238"/>
<path d="M111.053 150.417C111.802 150.66 133.165 150.462 133.972 149.937C134.292 149.745 134.436 146.628 134.513 142.862V142.743C134.532 141.966 134.545 141.166 134.548 140.356C134.548 140.244 134.548 140.132 134.548 140.02C134.596 134.58 134.205 128.938 134.205 128.938L120.241 129.031L120.631 140.01L120.647 140.446L120.724 142.718V142.951C120.724 142.951 112.583 146.686 111.764 147.355C110.945 148.023 110.305 150.177 111.053 150.417Z" fill="#EB9481"/>
<path d="M134.465 144.817C134.375 147.655 134.228 149.78 133.972 149.937C133.166 150.458 111.802 150.66 111.054 150.414C110.305 150.167 110.945 148.02 111.767 147.354C112.087 147.095 113.495 146.394 115.105 145.601C114.266 146.51 113.844 147.521 116.087 147.521C120.074 147.518 127.031 146.862 134.465 144.817Z" fill="#263238"/>
<path d="M113.198 67.1144C113.198 67.1144 113.498 73.3544 114.929 78.2952C115.041 78.7016 115.166 79.1048 115.3 79.4888C116.608 80.0134 117.865 80.6561 119.057 81.4088C119.057 81.4088 119.207 86.4264 119.358 92.0264C119.524 98.2824 119.697 105.262 119.662 106.746C119.53 112.286 120.356 142.74 120.356 142.74L135.735 142.801C135.735 142.801 132.954 108.801 132.98 106.772C133.012 103.511 132.237 89.0984 131.639 78.5864C131.426 74.7338 130.945 70.9006 130.202 67.1144H113.198Z" fill="#37474F"/>
<path d="M120.881 140.014C123.233 139.975 122.557 139.953 124.906 139.94C126.055 139.94 133.613 139.898 134.685 140.081C134.69 140.083 134.695 140.086 134.698 140.09C134.701 140.094 134.702 140.1 134.702 140.105C134.702 140.11 134.701 140.115 134.698 140.119C134.695 140.124 134.69 140.127 134.685 140.129C133.61 140.305 126.045 140.206 124.906 140.19C122.554 140.158 123.229 140.142 120.881 140.081C120.874 140.079 120.867 140.074 120.863 140.068C120.858 140.062 120.856 140.055 120.856 140.047C120.856 140.04 120.858 140.032 120.863 140.026C120.867 140.02 120.874 140.016 120.881 140.014Z" fill="#263238"/>
<path d="M129.671 69.3448C129.956 77.9272 130.257 86.5064 130.631 95.0856C131.006 103.665 133.034 134.5 133.553 139.284C133.553 139.316 133.508 139.329 133.505 139.284C132.385 130.772 131.761 118.164 131.207 109.607C130.654 101.05 130.286 92.4616 129.991 83.8824C129.828 79.0312 129.7 74.18 129.556 69.3256C129.562 69.2712 129.671 69.2776 129.671 69.3448Z" fill="#263238"/>
<path d="M114.66 79.1176C116.19 79.7561 117.661 80.527 119.057 81.4216C119.066 81.4289 119.072 81.4392 119.075 81.4506C119.077 81.4621 119.076 81.4741 119.071 81.4846C119.065 81.4951 119.057 81.5035 119.046 81.5083C119.035 81.5132 119.023 81.5142 119.012 81.5112C117.527 80.7912 116.013 80.0968 114.57 79.2968C114.547 79.285 114.528 79.2641 114.52 79.2389C114.512 79.2137 114.514 79.1862 114.525 79.1624C114.537 79.1387 114.558 79.1206 114.583 79.1122C114.609 79.1038 114.636 79.1057 114.66 79.1176Z" fill="#263238"/>
<path d="M114.573 73.8248C114.676 74.372 114.807 74.9128 114.925 75.4568C115.044 76.0008 115.117 76.4872 115.245 76.9928C115.357 77.4794 115.606 77.9236 115.962 78.2728C116.161 78.4584 116.381 78.6248 116.602 78.7944C116.717 78.8872 116.842 78.9736 116.961 79.0664C116.945 78.996 116.932 78.9224 116.919 78.8488L116.813 78.2248C116.737 77.764 116.663 77.3032 116.593 76.8424C116.452 75.9368 116.324 75.0184 116.135 74.1192C116.135 74.1116 116.138 74.1043 116.144 74.0989C116.149 74.0935 116.156 74.0904 116.164 74.0904C116.172 74.0904 116.179 74.0935 116.184 74.0989C116.19 74.1043 116.193 74.1116 116.193 74.1192C116.417 75.0088 116.666 75.8888 116.865 76.788C116.961 77.2264 117.306 79.3992 117.322 79.5528C117.338 79.7064 117.351 79.8728 117.354 80.0328C117.377 80.1942 117.377 80.3579 117.354 80.5192C117.354 80.5608 117.3 80.5544 117.281 80.5192C117.215 80.3677 117.167 80.2087 117.14 80.0456C117.101 79.892 117.066 79.7256 117.037 79.5752C117.037 79.5176 117.021 79.46 117.012 79.4024C116.797 79.2712 116.599 79.1016 116.401 78.9544C116.202 78.8072 115.962 78.6344 115.761 78.4744C115.383 78.1567 115.11 77.7315 114.98 77.2552C114.848 76.7433 114.763 76.2207 114.724 75.6936C114.653 75.076 114.602 74.4552 114.519 73.8408C114.513 73.8024 114.567 73.7896 114.573 73.8248Z" fill="#263238"/>
<path d="M123.098 33.5721C125.367 35.1209 126.5 38.1577 126.5 38.1577C126.5 38.1577 128.926 40.9769 128.74 42.7849C128.692 43.2969 128.522 43.7899 128.244 44.2221C127.965 44.6544 127.587 45.0132 127.14 45.2681V44.2857C127.14 44.2857 126.753 45.6201 124.785 46.4937C122.817 47.3673 119.985 47.2393 118.43 46.7849C117.511 46.5201 116.677 46.0231 116.007 45.3417L116.794 46.6217C116.11 46.6716 115.425 46.5516 114.798 46.2725C114.172 45.9933 113.624 45.5636 113.204 45.0217C111.623 43.1017 114.465 39.4281 114.631 38.7177C114.798 38.0073 114.273 33.1433 119.473 33.0345C119.47 33.0313 121.534 32.5033 123.098 33.5721Z" fill="#A6A6A6"/>
<path d="M127.837 45.0088C128.356 44.5837 128.731 44.0095 128.913 43.364C129.12 42.7291 129.109 42.043 128.881 41.4152C128.552 40.6897 128.097 40.0287 127.537 39.4632C126.999 38.852 126.413 38.276 125.885 37.652C125.857 37.6168 125.908 37.5752 125.94 37.6008C126.486 38.0428 127.007 38.5161 127.498 39.0184C127.996 39.4688 128.439 39.9757 128.82 40.5288C129.167 41.0375 129.361 41.6349 129.38 42.2504C129.371 42.7555 129.239 43.2508 128.996 43.6936C128.679 44.1974 128.297 44.6568 127.86 45.06C127.86 45.06 127.809 45.0312 127.837 45.0088Z" fill="#A6A6A6"/>
<path d="M112.369 42.9096C112.647 41.0312 114.026 39.6168 114.705 37.8984C115.073 36.9704 115.306 35.9784 115.854 35.1208C115.854 35.0984 115.908 35.1208 115.892 35.1464C115.457 35.9016 115.278 36.7464 115.012 37.5656C114.721 38.3925 114.348 39.1879 113.898 39.94C113.121 41.3224 112.186 42.964 112.73 44.5992C112.98 45.3544 113.594 46.1256 114.433 46.2216C114.437 46.2201 114.441 46.2196 114.445 46.2202C114.449 46.2207 114.453 46.2222 114.456 46.2245C114.46 46.2269 114.462 46.23 114.464 46.2337C114.466 46.2374 114.467 46.2414 114.467 46.2456C114.467 46.2497 114.466 46.2538 114.464 46.2574C114.462 46.2611 114.46 46.2642 114.456 46.2666C114.453 46.2689 114.449 46.2704 114.445 46.271C114.441 46.2715 114.437 46.271 114.433 46.2696C114.096 46.2028 113.777 46.0679 113.495 45.8731C113.212 45.6783 112.973 45.4277 112.791 45.1368C112.385 44.4699 112.235 43.6786 112.369 42.9096Z" fill="#A6A6A6"/>
<path d="M112.385 43.3992C112.206 42.7407 112.237 42.043 112.471 41.4024C112.75 40.7904 113.155 40.2449 113.662 39.8024C114.215 39.2648 114.807 38.7432 115.082 38.004C115.082 37.972 115.14 38.004 115.13 38.0264C114.698 39.2392 113.585 39.9784 112.938 41.0504C112.199 42.2792 112.484 43.8184 113.351 44.8904C113.896 45.5496 114.589 46.0704 115.374 46.4104C115.374 46.4104 115.374 46.436 115.374 46.4296C114.026 45.8696 112.756 44.8648 112.385 43.3992Z" fill="#A6A6A6"/>
<path d="M118.359 53.0089C116.9 56.6281 111.108 68.3241 107.306 69.1497C104.82 69.7001 94.7208 68.7145 92.98 66.3273C92.2248 65.2873 93.5048 58.0393 94.8488 58.3273C96.1928 58.6153 104.282 59.6841 105.274 59.3929C106.266 59.1017 113.713 50.5353 116.494 48.4073C121.29 44.7401 119.143 51.0601 118.359 53.0089Z" fill="#EB9481"/>
<path d="M97.9046 57.8025L97.6902 68.6985C97.6902 68.6985 105.69 70.1577 109.101 68.8361C113.261 67.2361 118.935 53.9944 119.7 51.8248C120.957 48.2632 120.497 46.148 118.557 46.74C117.802 46.964 116.823 47.5976 115.636 48.724C114.391 49.8952 107.281 57.4664 105.002 58.932C103.729 59.7513 97.9046 57.8025 97.9046 57.8025Z" fill="#EBEBEB"/>
<path d="M99.7159 68.2376C99.7959 66.6377 99.8823 60.0329 99.8024 58.6057C99.8024 58.5065 99.7351 58.4873 99.7255 58.5897C99.3703 63.4057 99.6488 66.6505 99.652 68.2313C99.652 68.2729 99.6999 68.2792 99.7159 68.2376Z" fill="#263238"/>
<path d="M101.076 69.1656C103.674 69.4376 107.156 69.5944 109.105 68.8456C113.265 67.2456 118.935 54.004 119.7 51.8344C120.958 48.2728 120.497 46.1608 118.558 46.7496C118.497 46.7496 118.436 46.788 118.375 46.8104L101.076 69.1656Z" fill="#A6A6A6"/>
<path d="M112.285 62.1672L110.762 72.6248C110.762 72.6248 127.805 72.8776 132.039 72.58C132.039 72.58 128.586 53.028 124.039 48.0872C121.761 45.6168 119.092 45.8024 117.389 47.5304C116.957 47.9656 111.815 54.7624 111.274 57.3576C110.804 59.6456 112.285 62.1672 112.285 62.1672Z" fill="#C2C7D6"/>
<path d="M122.151 46.6409C122.151 46.6409 120.673 102.801 122.081 105.217C122.938 106.689 137.137 103.162 137.137 103.162C137.137 103.162 133.466 69.8825 129.252 58.0425C125.341 47.0601 122.151 46.6409 122.151 46.6409Z" fill="#EBEBEB"/>
<path d="M132.737 80.1609C131.299 80.3595 129.851 80.4728 128.401 80.5001C126.372 80.5001 124.356 80.3017 123.777 80.2921C123.722 80.2921 123.697 80.4649 123.732 80.4681C125.269 80.6531 126.814 80.7599 128.362 80.7881C129.779 80.7782 131.193 80.6443 132.586 80.3881C132.586 80.8169 132.586 81.1529 132.586 81.5817C131.156 81.8601 128.394 82.3369 123.946 81.7641C123.93 81.5849 123.946 80.6281 123.917 80.3657C123.917 80.3241 123.748 80.3177 123.738 80.3657C123.703 80.6249 123.597 82.9257 123.594 83.3897C123.594 84.5417 123.665 87.7961 123.949 88.4265C124.589 89.8537 127.377 89.8569 128.148 89.8633C128.919 89.8697 131.396 89.9465 132.308 89.0377C132.804 88.5545 132.913 85.9177 132.839 83.5977C132.804 82.5001 132.804 80.1801 132.737 80.1609ZM128.353 89.5913C125.895 89.5913 124.833 89.0793 124.449 88.5673C124.007 87.9689 123.969 86.9289 123.937 85.7801C123.911 84.8777 123.937 82.0489 123.937 81.9913C125.37 82.2825 129.146 82.6761 132.577 81.8761C132.577 83.2169 132.577 84.2889 132.577 85.6297C132.577 86.5897 132.516 88.2281 132.026 88.7945C131.626 89.2681 130.129 89.5913 128.353 89.5913Z" fill="#A6A6A6"/>
<path d="M111.015 104.167C110.193 104.57 102.209 99.86 102.209 99.86L112.18 61.9752C111.342 60.6067 111.015 58.9855 111.258 57.3992C111.7 54.8392 117.044 47.4472 117.905 47.0664C117.013 50.8854 116.394 54.7629 116.052 58.6696C114.583 74.6568 111.831 103.761 111.015 104.167Z" fill="#EBEBEB"/>
<path d="M112.954 53.9465C113.428 53.1881 113.914 52.4361 114.385 51.6745C114.385 51.6521 114.366 51.6265 114.35 51.6457C113.874 52.2729 113.406 52.9054 112.945 53.5433C113.098 53.2041 113.246 52.8585 113.383 52.5129C113.399 52.4713 113.345 52.4393 113.326 52.4809C113.114 52.9289 112.922 53.3833 112.734 53.8409C112.323 54.4111 111.959 55.0136 111.646 55.6425C110.959 56.9481 110.755 58.454 111.07 59.8953C111.165 60.2974 111.307 60.6872 111.492 61.0569C111.62 61.3097 112.03 61.8569 112.026 61.8729C111.761 63.3641 111.559 64.8713 111.348 66.3721C111.137 67.8729 111.166 69.8057 111.287 69.0569C111.527 67.5465 111.745 66.0329 111.962 64.5193C112.087 63.6617 112.222 62.8041 112.321 61.9593C112.178 61.635 112.013 61.3207 111.828 61.0185C111.674 60.7018 111.549 60.3719 111.454 60.0329C111.257 59.3462 111.196 58.6277 111.274 57.9177C111.441 56.4521 112.18 55.1593 112.954 53.9465Z" fill="#263238"/>
<path d="M117.879 47.2328C117.377 47.9944 116.868 48.7464 116.35 49.4952C115.831 50.244 115.316 50.996 114.785 51.7352V51.5592L116.065 52.8968L116.17 53.0088L116.058 53.1176C115.521 53.6392 114.974 54.148 114.426 54.6632L114.474 54.5288C114.67 55.9144 114.884 57.3 115.06 58.6888C115.236 60.0776 115.422 61.4664 115.575 62.8488C115.313 61.4728 115.07 60.0904 114.839 58.7112C114.609 57.332 114.391 55.9432 114.17 54.5512V54.4744L114.228 54.4168C114.766 53.8984 115.306 53.38 115.854 52.868V53.0888L114.599 51.7256L114.522 51.6424L114.59 51.5496C115.124 50.8168 115.684 50.0968 116.231 49.3704C116.778 48.644 117.3 47.94 117.879 47.2328Z" fill="#A6A6A6"/>
<path d="M126.775 49.9976C133.495 56.2888 141.37 67.1912 138.586 69.8632C136.74 71.6392 127.469 59.7864 127.633 59.8184C127.981 59.8824 125.972 55.9432 123.508 51.1785C120.759 45.8505 122.941 46.4009 126.775 49.9976Z" fill="#EB9481"/>
<path d="M123.505 47.2521C128.174 49.5657 141.022 64.5321 139.342 69.1497C137.662 73.7673 127.054 59.8857 127.162 59.6841C127.271 59.4825 124.577 54.2153 123.482 52.0713C122.388 49.9273 121.018 46.0201 123.505 47.2521Z" fill="#EBEBEB"/>
<path d="M124.138 54.5737C124.398 54.8457 124.65 55.1209 124.894 55.4057C124.938 55.4569 124.98 55.5145 125.022 55.5657C124.951 55.4153 124.878 55.2649 124.804 55.1145C124.526 54.5951 124.276 54.061 124.055 53.5145C124.055 53.4889 124.084 53.4729 124.1 53.4953C124.431 54.0119 124.733 54.546 125.006 55.0953C125.29 55.6233 125.582 56.1513 125.857 56.6953C126.132 57.2393 126.414 57.7641 126.679 58.2953C126.96 58.8192 127.202 59.3624 127.406 59.9209C127.406 59.9529 127.37 59.9689 127.351 59.9433C127.003 59.4334 126.693 58.8986 126.423 58.3433C126.142 57.8089 125.873 57.2713 125.601 56.7433C125.486 56.5193 125.374 56.2921 125.265 56.0649L125.134 55.9177C125.012 55.7801 124.897 55.6393 124.785 55.4953C124.554 55.2009 124.337 54.8969 124.122 54.5897C124.116 54.5769 124.132 54.5641 124.138 54.5737Z" fill="#263238"/>
<path d="M122.177 47.2809C122.525 48.1001 122.883 48.9129 123.252 49.7193C123.62 50.5257 123.978 51.3385 124.359 52.1385L124.394 51.9657L123.041 53.1241L122.929 53.2201L123.015 53.3417C123.431 53.9273 123.86 54.5033 124.295 55.0825L124.273 54.9449C123.898 56.2921 123.508 57.6361 123.153 58.9897C122.798 60.3433 122.42 61.7001 122.081 63.0505C122.516 61.7225 122.929 60.3881 123.335 59.0505C123.742 57.7129 124.132 56.3689 124.529 55.0281L124.551 54.9545L124.506 54.8905C124.087 54.3081 123.671 53.7225 123.242 53.1465L123.22 53.3641L124.551 52.1801L124.634 52.1065L124.586 52.0073C124.202 51.2105 123.796 50.4265 123.399 49.6329C123.002 48.8393 122.593 48.0617 122.177 47.2809Z" fill="#A6A6A6"/>
<path d="M122.868 48.5801C122.977 46.9065 121.61 46.3113 120.356 46.1417C118.868 45.9401 117.879 46.0649 117.156 47.5081C116.404 49.0281 116.014 50.7913 115.719 52.4553C115.709 52.5193 115.674 52.5767 115.621 52.6148C115.569 52.653 115.503 52.6686 115.439 52.6585C115.375 52.6483 115.318 52.6131 115.28 52.5605C115.241 52.508 115.226 52.4425 115.236 52.3785C115.572 50.4585 116.055 46.8841 117.962 45.8409C119.719 44.8809 123.527 45.8217 123.338 48.6601C123.316 48.9801 122.833 48.8937 122.855 48.5801H122.868Z" fill="#455A64"/>
<path d="M114.231 53.1464C114.196 53.3668 114.226 53.5928 114.32 53.7958C114.413 53.9987 114.564 54.1693 114.754 54.286C114.945 54.4028 115.165 54.4603 115.389 54.4513C115.612 54.4423 115.827 54.3672 116.007 54.2356C116.188 54.1039 116.325 53.9217 116.401 53.7119C116.478 53.5022 116.49 53.2744 116.437 53.0576C116.384 52.8407 116.268 52.6446 116.103 52.494C115.938 52.3435 115.732 52.2453 115.511 52.212C115.218 52.1686 114.919 52.2423 114.68 52.4171C114.44 52.5919 114.279 52.8538 114.231 53.1464Z" fill="#263238"/>
<path d="M114.676 53.2168C114.655 53.3494 114.673 53.4853 114.73 53.6073C114.786 53.7293 114.877 53.8319 114.991 53.9021C115.106 53.9724 115.238 54.007 115.373 54.0018C115.507 53.9965 115.636 53.9515 115.745 53.8725C115.854 53.7936 115.936 53.6841 115.983 53.5581C116.029 53.432 116.037 53.2951 116.005 53.1646C115.974 53.034 115.904 52.9158 115.805 52.8248C115.707 52.7339 115.583 52.6743 115.45 52.6536C115.363 52.6395 115.273 52.6428 115.186 52.6635C115.1 52.6842 115.018 52.7218 114.946 52.7742C114.874 52.8265 114.813 52.8926 114.767 52.9685C114.721 53.0445 114.69 53.1288 114.676 53.2168Z" fill="#EBEBEB"/>
<path d="M121.172 53.8217C119.943 58.5321 120.135 59.6809 120.532 60.2217C120.827 60.5984 121.205 60.9027 121.636 61.1113L121.78 60.7913L121.709 60.9449L121.78 60.7913C121.406 60.6055 121.078 60.3388 120.82 60.0105C120.538 59.6201 120.301 58.5609 121.521 53.8985L121.172 53.8217Z" fill="#C7C7C7"/>
<path d="M121.254 60.6939L121.244 60.7108C121.15 60.8826 121.212 61.0986 121.384 61.1933L121.799 61.4219C121.971 61.5166 122.187 61.4541 122.281 61.2822L122.291 61.2654C122.385 61.0936 122.323 60.8776 122.151 60.7829L121.736 60.5543C121.564 60.4596 121.348 60.5221 121.254 60.6939Z" fill="#263238"/>
<path d="M124.247 53.9336C125.185 57.4792 125.415 59.4216 124.967 60.0424C124.71 60.3722 124.382 60.6401 124.007 60.8264L124.151 61.1464C124.582 60.9373 124.958 60.6318 125.252 60.2536C125.786 59.5112 125.594 57.6584 124.586 53.8536L124.247 53.9336Z" fill="#C7C7C7"/>
<path d="M123.488 61.2868C123.466 61.2461 123.451 61.2012 123.446 61.1549C123.441 61.1086 123.445 61.0616 123.457 61.0168C123.47 60.9719 123.492 60.93 123.521 60.8935C123.55 60.8569 123.586 60.8265 123.626 60.8038L124.037 60.5753C124.121 60.5291 124.219 60.5178 124.31 60.5439C124.401 60.57 124.479 60.6313 124.525 60.7144C124.548 60.7551 124.562 60.8 124.567 60.8463C124.573 60.8926 124.569 60.9396 124.556 60.9844C124.543 61.0293 124.522 61.0712 124.493 61.1077C124.464 61.1443 124.428 61.1747 124.387 61.1974L123.97 61.4291C123.929 61.4514 123.884 61.4654 123.838 61.4703C123.792 61.4752 123.745 61.471 123.7 61.4577C123.655 61.4445 123.613 61.4226 123.577 61.3933C123.541 61.364 123.511 61.3278 123.488 61.2868Z" fill="#263238"/>
<path d="M124.692 53.7C124.537 52.9143 124.332 52.1394 124.077 51.38C123.929 51.0439 123.692 50.7542 123.393 50.5416C123.325 50.5416 123.354 49.9368 123.393 49.4504C123.425 49.0184 123.469 48.5192 123.364 48.3784C123.304 48.3155 123.222 48.278 123.135 48.2738C123.048 48.2697 122.962 48.2991 122.897 48.356C122.778 48.484 122.772 48.996 122.759 49.4184C122.743 49.908 122.711 50.5032 122.644 50.5032C122.342 50.7005 122.092 50.9671 121.914 51.2808C121.585 52.0311 121.314 52.8057 121.105 53.5976C120.996 54.1032 121.162 54.164 121.306 54.212C121.511 54.2824 121.626 54.1416 121.799 53.572C122.052 52.6856 122.372 51.1976 122.986 51.2008C123.597 51.2616 123.847 52.836 124.045 53.716C124.17 54.2664 124.285 54.3176 124.497 54.2696C124.637 54.2504 124.791 54.1864 124.692 53.7Z" fill="#263238"/>
<path d="M118.881 54.2793C118.881 54.2793 120.065 52.5065 118.788 51.7961C117.511 51.0857 116.631 53.0313 116.631 53.0313L118.881 54.2793Z" fill="#455A64"/>
<path d="M109.383 66.0648L109.329 68.1512L109.306 68.8424L109.886 68.4648L111.633 67.316L118.922 54.196L116.682 52.9448L109.393 66.0648H109.383Z" fill="#455A64"/>
<path d="M109.329 68.1544L109.31 68.8424L109.889 68.4648L109.329 68.1544Z" fill="#37474F"/>
<path d="M116.239 53.2968L118.865 54.7572L119.155 54.237L116.529 52.7766L116.239 53.2968Z" fill="#263238"/>
<path d="M115.916 53.877L118.542 55.3374L118.831 54.8172L116.205 53.3568L115.916 53.877Z" fill="#263238"/>
<path d="M118.538 55.3384L117.694 54.868L115.521 59.8696L115.844 60.0264L118.538 55.3384Z" fill="#263238"/>
<path d="M138.586 69.8632C136.062 72.3208 125.988 71.0024 119.566 69.0792C118.343 68.7112 122.292 57.8408 123.55 58.3656C124.88 58.9332 126.243 59.4184 127.633 59.8184C127.982 59.8824 141.354 67.1752 138.586 69.8632Z" fill="#EB9481"/>
<path d="M108.362 58.8201C108.458 60.0393 111.441 59.5561 111.441 59.5561C111.025 59.8801 110.738 60.3401 110.628 60.8553C110.474 61.7705 111.844 62.4105 111.844 62.4105C111.485 62.8376 111.262 63.3626 111.204 63.9177C111.146 64.8105 112.436 65.6553 112.436 65.6553C112.322 66.2298 112.419 66.8259 112.708 67.3353C113.533 68.6633 115.937 68.4969 117.447 68.6889C119.133 68.9375 120.796 69.3216 122.42 69.8377L124.282 58.6729C124.282 58.6729 117.54 55.3801 115.748 55.6137C114.253 55.8089 108.221 56.9577 108.362 58.8201Z" fill="#EB9481"/>
<path d="M111.463 59.5176C113.018 58.9256 114.708 58.7048 116.346 58.5096C116.354 58.5096 116.361 58.5127 116.367 58.5181C116.372 58.5235 116.375 58.5308 116.375 58.5384C116.375 58.5461 116.372 58.5534 116.367 58.5588C116.361 58.5642 116.354 58.5672 116.346 58.5672C114.718 58.7432 113.098 59.3544 111.479 59.5944C111.471 59.5933 111.463 59.5895 111.456 59.5837C111.45 59.5778 111.446 59.5701 111.444 59.5617C111.442 59.5533 111.443 59.5445 111.447 59.5366C111.45 59.5287 111.456 59.5221 111.463 59.5176Z" fill="#263238"/>
<path d="M111.876 62.2856C112.242 62.1839 112.619 62.1311 112.999 62.1288C113.399 62.1032 113.802 62.0808 114.202 62.068C115.005 62.0392 115.802 62.0296 116.615 62.0424C116.65 62.0424 116.66 62.0968 116.615 62.1C115.815 62.1288 115.015 62.1704 114.215 62.2344L113.015 62.34C112.641 62.3996 112.261 62.4179 111.882 62.3944C111.871 62.3912 111.86 62.3845 111.853 62.3751C111.845 62.3658 111.841 62.3543 111.84 62.3423C111.839 62.3303 111.843 62.3184 111.849 62.3083C111.855 62.2981 111.865 62.2902 111.876 62.2856Z" fill="#263238"/>
<path d="M112.468 65.6521C112.8 65.5665 113.144 65.5384 113.486 65.5689L114.583 65.5465C115.316 65.5273 116.049 65.5081 116.782 65.4633C116.817 65.4633 116.823 65.5177 116.782 65.5209C116.039 65.5689 115.297 65.6265 114.542 65.6713L113.447 65.7257C113.115 65.7733 112.777 65.7614 112.449 65.6905C112.449 65.6841 112.452 65.6585 112.468 65.6521Z" fill="#263238"/>
<path d="M139.341 69.1496C137.661 73.7576 122.967 70.2216 122.967 70.2216L123.114 58.1288C123.114 58.1288 127.053 59.8856 127.162 59.684C127.271 59.4824 141.021 64.5448 139.341 69.1496Z" fill="#EBEBEB"/>
<path d="M125.105 69.6681C125.21 68.0681 125.393 61.5433 125.335 60.1289C125.335 60.0297 125.268 60.0105 125.258 60.1129C124.836 64.8777 125.063 68.0937 125.044 69.6617C125.044 69.7001 125.105 69.7001 125.105 69.6681Z" fill="#263238"/>
<path d="M123.201 58.1289C123.63 58.2453 124.05 58.3929 124.458 58.5705C124.826 58.7145 125.194 58.8585 125.559 59.0089C126.356 59.3289 127.159 59.6745 127.93 60.0233C128.701 60.3721 129.498 60.7241 130.273 61.0921C131.047 61.4601 131.802 61.8729 132.577 62.2409C132.612 62.2569 132.577 62.3081 132.548 62.2921C131.761 61.9369 130.948 61.6521 130.157 61.3001L127.825 60.3145L125.489 59.3321C125.108 59.1721 124.73 59.0121 124.349 58.8425C123.934 58.685 123.53 58.499 123.14 58.2857C123.124 58.2747 123.112 58.2585 123.106 58.2399C123.1 58.2214 123.101 58.2014 123.108 58.1832C123.115 58.1651 123.128 58.1498 123.145 58.14C123.162 58.1301 123.181 58.1262 123.201 58.1289Z" fill="#263238"/>
<path d="M122.916 69.9625C122.916 69.8825 122.957 69.8601 122.977 69.9625C122.996 70.0649 123.002 70.0937 123.015 70.1385C123.514 70.2249 125.335 70.6025 125.78 70.6889C126.714 70.8745 127.636 71.1017 128.58 71.2201C129.891 71.3865 131.21 71.4816 132.532 71.5049C132.539 71.5049 132.547 71.5079 132.552 71.5133C132.558 71.5187 132.561 71.526 132.561 71.5337C132.561 71.5413 132.558 71.5486 132.552 71.554C132.547 71.5594 132.539 71.5625 132.532 71.5625C131.209 71.6017 129.885 71.5654 128.567 71.4537C127.607 71.3417 126.647 71.1881 125.706 70.9929C125.233 70.8969 124.762 70.7849 124.292 70.6729C123.837 70.5834 123.392 70.4495 122.964 70.2729C122.948 70.2643 122.935 70.2518 122.926 70.2366C122.917 70.2214 122.913 70.2041 122.913 70.1865L122.916 69.9625Z" fill="#263238"/>
<path d="M99.527 69.8121L112.196 70.0809L106.628 53.7032L93.959 53.4344L99.527 69.8121Z" fill="white"/>
<path d="M98.6598 69.7929L111.325 70.0617L105.761 53.6873L93.0918 53.4153L98.6598 69.7929Z" fill="#37474F"/>
<path d="M104.414 53.6584C104.494 53.9434 104.684 54.185 104.942 54.3304C105.063 54.3976 105.098 54.2408 104.98 54.1768C104.815 54.0821 104.688 53.9327 104.622 53.7544C104.622 53.7224 104.599 53.6904 104.593 53.6616C104.564 53.5569 104.564 53.4464 104.593 53.3416C104.605 53.2985 104.631 53.2605 104.666 53.2328H104.682H104.705C104.734 53.2233 104.765 53.2233 104.794 53.2328C104.849 53.2529 104.899 53.2858 104.938 53.3288C104.987 53.38 105.028 53.4382 105.06 53.5016C105.08 53.5314 105.098 53.5624 105.114 53.5944V53.6168C105.121 53.6268 105.126 53.6375 105.13 53.6488C105.132 53.6562 105.132 53.6638 105.13 53.6712H105.31C105.27 53.5575 105.215 53.4498 105.146 53.3512C105.094 53.2669 105.024 53.1947 104.941 53.1395C104.858 53.0844 104.764 53.0474 104.666 53.0312C104.595 53.0285 104.526 53.0531 104.472 53.1002C104.418 53.1472 104.385 53.213 104.378 53.284C104.357 53.4097 104.369 53.5389 104.414 53.6584Z" fill="#C7C7C7"/>
<path d="M103.422 53.6361C103.502 53.9219 103.692 54.1646 103.95 54.3112C104.071 54.3784 104.106 54.2216 103.988 54.1576C103.824 54.0599 103.698 53.9101 103.63 53.7321C103.63 53.7033 103.607 53.6713 103.601 53.6425C103.572 53.5377 103.572 53.4272 103.601 53.3225C103.61 53.2789 103.635 53.2403 103.671 53.2137H103.694C103.723 53.2041 103.754 53.2041 103.783 53.2137C103.838 53.2338 103.888 53.2667 103.927 53.3097C103.975 53.3614 104.016 53.4196 104.049 53.4825C104.069 53.5123 104.087 53.5432 104.103 53.5753V53.5977C104.11 53.6073 104.116 53.6181 104.119 53.6297C104.119 53.6297 104.119 53.6457 104.119 53.6521H104.298C104.259 53.5385 104.204 53.4309 104.135 53.3321C104.083 53.2469 104.014 53.1741 103.931 53.1188C103.848 53.0635 103.754 53.0271 103.655 53.0121C103.584 53.0085 103.514 53.0329 103.46 53.0801C103.406 53.1273 103.373 53.1936 103.367 53.2649C103.353 53.3912 103.372 53.519 103.422 53.6361Z" fill="#C7C7C7"/>
<path d="M102.429 53.6168C102.512 53.9017 102.703 54.1429 102.961 54.2888C103.079 54.356 103.114 54.1992 102.996 54.1352C102.831 54.0382 102.705 53.8881 102.637 53.7096C102.637 53.6808 102.618 53.6488 102.612 53.62C102.582 53.5154 102.582 53.4045 102.612 53.3C102.623 53.2563 102.649 53.2179 102.685 53.1912H102.702H102.727C102.755 53.1834 102.785 53.1834 102.814 53.1912C102.869 53.2117 102.919 53.2458 102.958 53.2904C103.007 53.3402 103.048 53.3974 103.079 53.46C103.1 53.4901 103.119 53.5223 103.134 53.556V53.5784C103.135 53.589 103.135 53.5998 103.134 53.6104C103.134 53.6104 103.134 53.6104 103.134 53.6328H103.316C103.274 53.5195 103.218 53.412 103.15 53.3128C103.097 53.228 103.027 53.1555 102.944 53.1003C102.862 53.0451 102.768 53.0084 102.669 52.9928C102.598 52.9892 102.528 53.0136 102.474 53.0608C102.421 53.108 102.387 53.1743 102.381 53.2456C102.366 53.3714 102.383 53.499 102.429 53.6168Z" fill="#C7C7C7"/>
<path d="M101.441 53.5944C101.521 53.8804 101.71 54.1232 101.969 54.2696C102.087 54.3368 102.122 54.1768 102.004 54.116C101.841 54.0173 101.715 53.8678 101.646 53.6904C101.646 53.6616 101.626 53.6264 101.62 53.5976C101.589 53.4932 101.589 53.382 101.62 53.2776C101.63 53.2326 101.656 53.1929 101.694 53.1656H101.71H101.735C101.763 53.1563 101.794 53.1563 101.822 53.1656C101.878 53.1837 101.927 53.217 101.966 53.2616C102.016 53.3127 102.058 53.3709 102.09 53.4344C102.109 53.4642 102.126 53.4952 102.142 53.5272V53.5496C102.143 53.5602 102.143 53.571 102.142 53.5816C102.142 53.5816 102.142 53.5816 102.142 53.604H102.321C102.28 53.4902 102.224 53.3825 102.154 53.284C102.102 53.1994 102.032 53.127 101.949 53.0718C101.866 53.0166 101.773 52.9798 101.674 52.964C101.603 52.962 101.534 52.9869 101.481 53.0338C101.427 53.0807 101.394 53.1461 101.386 53.2168C101.37 53.3452 101.389 53.4757 101.441 53.5944Z" fill="#C7C7C7"/>
<path d="M100.449 53.5752C100.529 53.8603 100.719 54.1021 100.977 54.2472C101.095 54.3144 101.13 54.1576 101.015 54.0936C100.853 53.995 100.728 53.8453 100.66 53.668C100.66 53.6392 100.641 53.6072 100.634 53.5784C100.606 53.4736 100.606 53.3631 100.634 53.2584C100.644 53.214 100.67 53.175 100.708 53.1496H100.734C100.763 53.142 100.794 53.142 100.823 53.1496C100.877 53.1701 100.925 53.203 100.964 53.2456C101.012 53.2979 101.054 53.3559 101.089 53.4184C101.108 53.4472 101.124 53.4792 101.143 53.5144V53.5336C101.144 53.5453 101.144 53.5571 101.143 53.5688C101.143 53.5688 101.143 53.5688 101.143 53.588H101.322C101.282 53.4742 101.226 53.3665 101.156 53.268C101.105 53.1826 101.036 53.1096 100.954 53.0542C100.871 52.9989 100.777 52.9626 100.679 52.948C100.607 52.9444 100.537 52.9687 100.483 53.0158C100.428 53.0629 100.394 53.1292 100.388 53.2008C100.375 53.3288 100.396 53.458 100.449 53.5752Z" fill="#C7C7C7"/>
<path d="M99.4568 53.5528C99.5371 53.8378 99.7269 54.0794 99.9848 54.2248C100.103 54.292 100.142 54.1352 100.023 54.0712C99.8579 53.9753 99.7312 53.8248 99.6648 53.6456C99.6648 53.6168 99.6424 53.5848 99.636 53.556C99.6074 53.4513 99.6074 53.3408 99.636 53.236C99.6486 53.193 99.6743 53.1549 99.7096 53.1272H99.7256H99.748C99.7772 53.1179 99.8085 53.1179 99.8376 53.1272C99.8935 53.1454 99.9433 53.1786 99.9816 53.2232C100.03 53.2739 100.071 53.3309 100.103 53.3928L100.158 53.4888V53.5112L100.174 53.5432C100.174 53.5432 100.174 53.5432 100.174 53.5656H100.353C100.314 53.4519 100.259 53.3442 100.19 53.2456C100.137 53.1613 100.067 53.0891 99.9841 53.034C99.9013 52.9788 99.8078 52.9419 99.7096 52.9256C99.638 52.9228 99.5681 52.9474 99.514 52.9944C99.4599 53.0413 99.4257 53.1072 99.4184 53.1784C99.3997 53.3045 99.4129 53.4332 99.4568 53.5528Z" fill="#C7C7C7"/>
<path d="M98.4647 53.5304C98.5448 53.8162 98.7346 54.0589 98.9927 54.2056C99.1143 54.2728 99.1495 54.116 99.0311 54.052C98.8665 53.9552 98.74 53.805 98.6727 53.6264C98.6727 53.5976 98.6503 53.5656 98.6439 53.5368C98.6153 53.432 98.6153 53.3215 98.6439 53.2168C98.6556 53.1724 98.6814 53.1331 98.7175 53.1048H98.7335H98.7399C98.769 53.0952 98.8004 53.0952 98.8295 53.1048C98.8844 53.1249 98.9338 53.1578 98.9735 53.2008C99.0225 53.2519 99.0635 53.3102 99.0951 53.3736C99.1151 53.4034 99.1333 53.4344 99.1495 53.4664V53.4888C99.1555 53.4991 99.1608 53.5098 99.1655 53.5208C99.1665 53.5282 99.1665 53.5357 99.1655 53.5432H99.3799C99.3399 53.4297 99.285 53.3221 99.2167 53.2232C99.1646 53.1383 99.0947 53.0657 99.0119 53.0104C98.929 52.9552 98.8351 52.9186 98.7367 52.9032C98.6652 52.8996 98.5952 52.924 98.5415 52.9712C98.4877 53.0184 98.4544 53.0847 98.4487 53.156C98.4204 53.28 98.4259 53.4093 98.4647 53.5304Z" fill="#C7C7C7"/>
<path d="M97.46 53.5112C97.5413 53.7966 97.7323 54.0381 97.9912 54.1832C98.1096 54.2504 98.1448 54.0936 98.0264 54.0296C97.8619 53.9326 97.7355 53.7825 97.668 53.604C97.668 53.5752 97.6456 53.5432 97.6392 53.5144C97.6105 53.4096 97.6105 53.2991 97.6392 53.1944C97.6505 53.1515 97.6751 53.1134 97.7096 53.0856C97.7096 53.0856 97.7096 53.0856 97.7256 53.0856H97.748C97.7773 53.0777 97.8082 53.0777 97.8376 53.0856C97.8927 53.1069 97.942 53.1409 97.9816 53.1848C98.0298 53.2354 98.0707 53.2925 98.1032 53.3544C98.1232 53.3853 98.1414 53.4173 98.1576 53.4504V53.4728C98.166 53.4816 98.1716 53.4928 98.1736 53.5048C98.1736 53.5048 98.1736 53.5048 98.1736 53.5272H98.3528C98.3135 53.4135 98.2586 53.3058 98.1896 53.2072C98.1378 53.122 98.068 53.0492 97.9851 52.9939C97.9022 52.9386 97.8081 52.9022 97.7096 52.8872C97.6381 52.8836 97.5681 52.908 97.5144 52.9552C97.4606 53.0024 97.4273 53.0687 97.4216 53.14C97.4033 53.265 97.4165 53.3926 97.46 53.5112Z" fill="#C7C7C7"/>
<path d="M96.4807 53.4888C96.5624 53.774 96.7533 54.0155 97.0119 54.1608C97.1303 54.2312 97.1655 54.0712 97.0471 54.0072C96.8829 53.9114 96.7564 53.7624 96.6887 53.5848C96.6887 53.556 96.6695 53.5208 96.6631 53.492C96.6322 53.3875 96.6322 53.2764 96.6631 53.172C96.6734 53.127 96.6995 53.0872 96.7367 53.06H96.7623C96.7904 53.0507 96.8207 53.0507 96.8487 53.06C96.9041 53.0792 96.9536 53.1123 96.9927 53.156C97.0425 53.2064 97.0836 53.2648 97.1143 53.3288C97.1355 53.3578 97.1537 53.3889 97.1687 53.4216V53.444C97.17 53.4546 97.17 53.4653 97.1687 53.476C97.1687 53.476 97.1687 53.492 97.1687 53.4984H97.3511C97.3093 53.3851 97.2534 53.2776 97.1847 53.1784C97.132 53.094 97.0619 53.0219 96.9792 52.9667C96.8964 52.9115 96.8029 52.8746 96.7047 52.8584C96.6335 52.8556 96.5639 52.8803 96.5103 52.9273C96.4567 52.9744 96.4232 53.0402 96.4167 53.1112C96.4054 53.2404 96.4274 53.3704 96.4807 53.4888Z" fill="#C7C7C7"/>
<path d="M95.4918 53.4664C95.5308 53.6082 95.5976 53.7409 95.6882 53.8568C95.7788 53.9727 95.8915 54.0695 96.0198 54.1416C96.1382 54.2088 96.1734 54.052 96.055 53.988C95.892 53.8893 95.7661 53.7398 95.6966 53.5624C95.6966 53.5336 95.6774 53.5016 95.671 53.4728C95.6408 53.3683 95.6408 53.2573 95.671 53.1528C95.6806 53.1084 95.7069 53.0694 95.7446 53.044H95.7606H95.7862C95.8142 53.0347 95.8445 53.0347 95.8726 53.044C95.9285 53.0621 95.9783 53.0954 96.0166 53.14C96.0658 53.1917 96.1078 53.2498 96.1414 53.3128C96.161 53.3433 96.1781 53.3755 96.1926 53.4088V53.428C96.1939 53.4397 96.1939 53.4515 96.1926 53.4632C96.1926 53.4632 96.1926 53.4632 96.1926 53.4824H96.3718C96.3313 53.3686 96.2753 53.2609 96.2054 53.1624C96.154 53.0769 96.0843 53.0039 96.0013 52.9485C95.9183 52.8932 95.8241 52.857 95.7254 52.8424C95.6539 52.8388 95.5839 52.8632 95.5302 52.9104C95.4764 52.9576 95.4431 53.0239 95.4374 53.0952C95.4219 53.2216 95.4407 53.3498 95.4918 53.4664Z" fill="#C7C7C7"/>
<path d="M94.5 53.4472C94.5799 53.7324 94.7698 53.9741 95.028 54.1192C95.1464 54.1864 95.1816 54.0296 95.0664 53.9656C94.9011 53.8689 94.7736 53.7188 94.7048 53.54C94.7048 53.5112 94.6856 53.4792 94.6792 53.4504C94.6506 53.3457 94.6506 53.2352 94.6792 53.1304C94.6904 53.0867 94.7164 53.0483 94.7528 53.0216H94.7784C94.8077 53.0138 94.8386 53.0138 94.868 53.0216C94.9225 53.0423 94.971 53.0764 95.0088 53.1208C95.0579 53.1714 95.0999 53.2285 95.1336 53.2904C95.1528 53.3192 95.1688 53.3544 95.188 53.3864V53.4088C95.1892 53.4195 95.1892 53.4302 95.188 53.4408C95.1897 53.4482 95.1897 53.4559 95.188 53.4632H95.3672C95.3267 53.3494 95.2707 53.2417 95.2008 53.1432C95.1495 53.0583 95.0803 52.9856 94.9979 52.9303C94.9155 52.875 94.822 52.8385 94.724 52.8232C94.6522 52.8196 94.5818 52.8439 94.5275 52.891C94.4732 52.9382 94.4393 53.0045 94.4328 53.076C94.4219 53.2035 94.4451 53.3316 94.5 53.4472Z" fill="#C7C7C7"/>
<path d="M93.5078 53.4248C93.5879 53.7107 93.7777 53.9533 94.0358 54.1C94.1542 54.1672 94.1926 54.0072 94.0742 53.9464C93.9096 53.8497 93.7831 53.6995 93.7158 53.5208C93.7158 53.492 93.6934 53.4568 93.687 53.428C93.6578 53.3234 93.6578 53.2127 93.687 53.108C93.6987 53.0637 93.7245 53.0244 93.7606 52.996H93.7766H93.799C93.8281 52.9867 93.8594 52.9867 93.8886 52.996C93.9435 53.0161 93.9929 53.049 94.0326 53.092C94.0816 53.1432 94.1226 53.2014 94.1542 53.2648C94.1734 53.2936 94.1894 53.3256 94.2086 53.3576V53.38V53.412C94.2086 53.412 94.2086 53.412 94.2086 53.4344H94.3878C94.3485 53.3207 94.2936 53.213 94.2246 53.1144C94.1725 53.0295 94.1026 52.9569 94.0198 52.9017C93.9369 52.8464 93.843 52.8098 93.7446 52.7944C93.6728 52.7908 93.6024 52.8151 93.5481 52.8622C93.4939 52.9094 93.4599 52.9756 93.4534 53.0472C93.4386 53.1757 93.4574 53.3058 93.5078 53.4248Z" fill="#C7C7C7"/>
<path d="M93.9047 57.1208C93.3063 58.5192 91.7319 60.2921 91.6391 61.4216C91.6072 61.6987 91.6653 61.9786 91.8047 62.22C91.9442 62.4615 92.1576 62.6516 92.4135 62.7625C92.4135 62.7625 91.3159 63.3672 91.4023 64.404C91.4471 64.9384 92.3399 65.3352 92.3399 65.3352C92.3399 65.3352 91.4791 65.8568 91.6135 66.7752C91.7223 67.5048 92.5991 67.7928 92.5991 67.7928C92.5991 67.7928 92.0071 68.6792 92.3559 69.3928C93.0599 70.8328 99.3959 70.58 100.286 68.2088C100.698 67.1016 99.1559 67.2488 99.1559 67.2488C99.1559 67.2488 101.326 66.5032 101.306 65.1976C101.287 63.892 99.2935 64.1992 99.2935 64.1992C99.2935 64.1992 101.393 63.4568 101.236 62.1032C101.073 60.6952 99.1303 61.3448 99.1303 61.3448C99.1303 61.3448 100.503 60.3336 100.145 59.3256C99.5559 57.6584 96.9703 59.8856 95.5655 59.6104L94.7079 57.3448L93.9047 57.1208Z" fill="#EB9481"/>
<path d="M92.7112 59.1656C93.1624 57.7928 91.4312 56.1832 91.6616 54.8072C91.9816 52.9448 94.1384 54.6728 94.708 57.3384L94.7848 59.4824L92.7112 59.1656Z" fill="#EB9481"/>
<path d="M92.7304 67.86C92.7261 67.86 92.722 67.8617 92.719 67.8647C92.716 67.8677 92.7144 67.8718 92.7144 67.876C92.7144 67.8803 92.716 67.8844 92.719 67.8874C92.722 67.8904 92.7261 67.892 92.7304 67.892C94.9157 68.3447 97.187 68.1215 99.2423 67.252C99.3095 67.2232 99.2871 67.1048 99.2103 67.124C97.0974 67.6822 94.9146 67.9302 92.7304 67.86Z" fill="#263238"/>
<path d="M92.3078 65.348C92.2854 65.348 92.2822 65.3896 92.3078 65.3928C94.4806 65.8216 97.2262 65.5464 99.3702 64.2472C99.4438 64.2024 99.4662 64.0872 99.3702 64.132C97.8854 64.9 94.359 65.444 92.3078 65.348Z" fill="#263238"/>
<path d="M99.2583 61.1944C97.1527 62.3624 94.887 62.7336 92.503 62.7944C92.471 62.7944 92.4742 62.8392 92.503 62.8456C93.6742 63.14 95.1911 62.948 96.3431 62.7016C97.4313 62.4934 98.4456 62.0022 99.2839 61.2776C99.3319 61.2392 99.3031 61.172 99.2583 61.1944Z" fill="#263238"/>
<path d="M121.553 47.1048C121.428 47.4248 120.202 49.572 118.673 49.572C117.713 49.572 117.943 46.2664 117.943 46.2664L117.927 46.0616L117.703 43.1816L121.287 41.5496L121.802 41.3384C121.802 41.3384 121.802 42.1288 121.802 43.1176V43.2584C121.802 43.3128 121.802 43.3672 121.802 43.4184C121.802 43.5656 121.802 43.716 121.802 43.8664C121.802 44.0168 121.802 44.0936 121.802 44.212C121.802 44.3304 121.802 44.4488 121.802 44.5704C121.777 45.4199 121.693 46.2666 121.553 47.1048Z" fill="#EB9481"/>
<path d="M121.809 43.1144C121.415 43.8562 120.866 44.5039 120.198 45.0127C119.53 45.5215 118.759 45.8794 117.94 46.0616L117.716 43.1816L121.3 41.5496L121.815 41.3384C121.815 41.3384 121.805 42.1256 121.809 43.1144Z" fill="#263238"/>
<path d="M113.796 39.0472C113.495 44.1128 116.494 44.8648 117.588 44.9288C118.58 44.9864 121.962 45.0568 122.788 40.052C123.614 35.0472 121.351 33.3032 119.089 33.0504C116.826 32.7976 114.1 33.9816 113.796 39.0472Z" fill="#EB9481"/>
<path d="M114.583 37.8728C114.699 37.8558 114.813 37.8323 114.926 37.8024C115.05 37.7945 115.169 37.7449 115.262 37.6616C115.286 37.6301 115.3 37.5912 115.3 37.5512C115.3 37.5112 115.286 37.4723 115.262 37.4408C115.204 37.3857 115.133 37.347 115.055 37.3284C114.977 37.3099 114.896 37.3122 114.82 37.3352C114.659 37.3586 114.512 37.4406 114.407 37.5656C114.384 37.5956 114.371 37.6318 114.368 37.6695C114.366 37.7073 114.374 37.7449 114.393 37.7777C114.412 37.8105 114.44 37.837 114.474 37.854C114.508 37.8709 114.546 37.8774 114.583 37.8728Z" fill="#A6A6A6"/>
<path d="M117.898 37.8984C117.78 37.8824 117.671 37.8504 117.556 37.8248C117.431 37.8135 117.314 37.7631 117.22 37.6808C117.196 37.6491 117.183 37.6103 117.183 37.5704C117.183 37.5306 117.196 37.4918 117.22 37.46C117.278 37.4052 117.349 37.3669 117.427 37.3489C117.504 37.3309 117.585 37.3339 117.661 37.3576C117.823 37.383 117.969 37.466 118.074 37.5912C118.096 37.6216 118.108 37.6575 118.11 37.6946C118.112 37.7318 118.103 37.7687 118.084 37.801C118.066 37.8333 118.038 37.8596 118.005 37.8768C117.972 37.8941 117.935 37.9016 117.898 37.8984Z" fill="#A6A6A6"/>
<path d="M117.169 39.1752C117.169 39.1752 117.194 39.1944 117.194 39.2072C117.175 39.5528 117.194 39.9528 117.514 40.0744C117.514 40.0744 117.514 40.0968 117.514 40.0936C117.133 40.0296 117.095 39.5016 117.169 39.1752Z" fill="#263238"/>
<path d="M117.486 38.8232C118.042 38.7976 118.055 39.9112 117.54 39.9368C117.025 39.9624 117.022 38.8456 117.486 38.8232Z" fill="#263238"/>
<path d="M117.706 38.8808C117.805 38.9416 117.901 39.0536 118.026 39.0632C118.151 39.0728 118.263 38.9576 118.346 38.8424H118.365C118.365 39.0568 118.292 39.2776 118.065 39.3128C117.837 39.348 117.703 39.156 117.645 38.9416C117.62 38.916 117.668 38.8552 117.706 38.8808Z" fill="#263238"/>
<path d="M115.249 39.14C115.249 39.14 115.22 39.14 115.22 39.172C115.239 39.5176 115.201 39.9144 114.9 40.036V40.0552C115.274 39.9944 115.319 39.4632 115.249 39.14Z" fill="#263238"/>
<path d="M114.932 38.7849C114.375 38.7529 114.353 39.8697 114.868 39.8985C115.383 39.9273 115.399 38.8105 114.932 38.7849Z" fill="#263238"/>
<path d="M114.698 38.8553C114.609 38.9129 114.519 39.0185 114.414 39.0217C114.308 39.0249 114.206 38.9065 114.129 38.7881C114.129 38.7881 114.129 38.7881 114.11 38.7881C114.11 38.9993 114.167 39.2233 114.372 39.2681C114.577 39.3129 114.692 39.1305 114.753 38.9193C114.762 38.8905 114.74 38.8297 114.698 38.8553Z" fill="#263238"/>
<path d="M115.7 40.6792C115.7 40.6792 115.629 41.1944 115.629 41.4376C115.629 41.46 115.69 41.4696 115.77 41.476C115.98 41.5144 116.195 41.4944 116.394 41.4182C116.593 41.342 116.767 41.2125 116.897 41.044C116.913 41.0216 116.897 40.996 116.858 41.012C116.548 41.2227 116.177 41.3282 115.802 41.3128C115.786 41.2456 115.953 40.4328 115.914 40.4296C115.726 40.4478 115.541 40.4898 115.364 40.5544C115.479 39.476 115.77 38.4264 115.869 37.3544C115.869 37.3473 115.866 37.3405 115.861 37.3351C115.856 37.3297 115.85 37.3259 115.843 37.3242C115.836 37.3224 115.829 37.3229 115.822 37.3254C115.815 37.3279 115.81 37.3325 115.805 37.3384C115.461 38.4558 115.229 39.605 115.114 40.7688C115.101 40.9 115.604 40.7208 115.7 40.6792Z" fill="#263238"/>
<path d="M122.765 39.86C121.933 39.9816 121.623 38.26 121.623 38.26C121.623 38.26 119.93 38.3784 119.204 35.9816C119.303 36.7082 119.612 37.39 120.094 37.9432C120.094 37.9432 117.082 37.8312 115.655 35.4152C115.655 35.4152 116.244 36.6536 116.743 37.076C115.97 36.8946 115.281 36.457 114.788 35.8344C114.788 35.8344 114.362 37.3128 113.985 37.7544C113.985 37.7544 113.294 35.2136 114.305 33.8312C116.43 30.9224 120.221 33.2104 120.221 33.2104C120.221 33.2104 122.295 33.4312 123.101 34.9416C124.34 37.252 122.765 39.86 122.765 39.86Z" fill="#A6A6A6"/>
<path d="M121.937 39.7832C121.937 39.7832 123.002 38.1832 123.732 38.5448C124.462 38.9064 123.69 41.2392 122.855 41.5752C122.751 41.6263 122.638 41.6557 122.522 41.6617C122.407 41.6676 122.291 41.65 122.182 41.6099C122.074 41.5698 121.974 41.5081 121.89 41.4284C121.806 41.3487 121.739 41.2527 121.694 41.1464L121.937 39.7832Z" fill="#EB9481"/>
<path d="M123.495 39.204V39.2264C122.913 39.4824 122.615 40.0392 122.414 40.6152C122.446 40.555 122.491 40.5027 122.546 40.4617C122.601 40.4207 122.664 40.3921 122.731 40.3778C122.798 40.3635 122.867 40.3639 122.934 40.3789C123.001 40.3939 123.063 40.4232 123.118 40.4648C123.134 40.4648 123.118 40.5 123.102 40.4968C122.996 40.4671 122.885 40.4705 122.782 40.5066C122.679 40.5427 122.589 40.6096 122.526 40.6984C122.421 40.8478 122.332 41.0076 122.26 41.1752C122.234 41.2296 122.138 41.204 122.158 41.14C122.129 40.3752 122.686 39.3 123.495 39.204Z" fill="#263238"/>
<path d="M71.5562 150.51H39.8442V147.351L42.5866 144.151H71.5562V150.51Z" fill="#263238"/>
<path d="M84.0074 150.51H71.5562V144.151H80.8074L84.0074 147.332V150.51Z" fill="#37474F"/>
<path d="M51.553 110.218H46.657V144.151H51.553V110.218Z" fill="#263238"/>
<path d="M62.545 110.218H51.5498V144.151H62.545V110.218Z" fill="#37474F"/>
<path d="M71.3834 134.625H57.1306V136.839H71.3834V134.625Z" fill="#263238"/>
<path d="M76.9801 134.625H71.3833V136.839H76.9801V134.625Z" fill="#37474F"/>
<path d="M85.5497 100.465H83.377L86.0073 94.8232H88.1801L85.5497 100.465Z" fill="#A6A6A6"/>
<path d="M92.2922 92.1H85.9722C85.9722 92.1 86.1002 95.892 83.281 95.892C82.903 95.9102 82.5278 95.8191 82.2004 95.6295C81.8729 95.4399 81.607 95.16 81.4346 94.8232C81.4346 94.8232 82.4714 97.028 84.385 97.028H88.5642C89.7002 97.0408 92.0682 96.26 92.2922 92.1Z" fill="#A6A6A6"/>
<path d="M80.7849 92.1H87.1081C87.1081 92.1 86.9769 95.892 89.7961 95.892C90.1745 95.9104 90.5502 95.8194 90.8782 95.6299C91.2063 95.4403 91.4727 95.1602 91.6457 94.8232C91.6457 94.8232 90.6089 97.028 88.6953 97.028H84.5129C83.3801 97.0408 81.0121 96.26 80.7849 92.1Z" fill="#C7C7C7"/>
<path d="M77.3737 109.265C77.3743 109.4 77.3349 109.532 77.2604 109.644C77.1859 109.757 77.0796 109.845 76.9552 109.897C76.8307 109.949 76.6935 109.963 76.5611 109.937C76.4287 109.911 76.3069 109.846 76.2113 109.751C76.1156 109.656 76.0504 109.534 76.0238 109.402C75.9973 109.27 76.0106 109.133 76.0621 109.008C76.1136 108.883 76.2009 108.777 76.3131 108.702C76.4252 108.626 76.5571 108.586 76.6921 108.586C76.8723 108.586 77.0452 108.658 77.1729 108.785C77.3007 108.912 77.3728 109.085 77.3737 109.265Z" fill="#C7C7C7"/>
<path d="M76.9418 109.418L76.4426 109.111L82.753 98.8904H84.5674V99.476H83.0794L76.9418 109.418Z" fill="#A6A6A6"/>
<path d="M56.0649 86.6952C56.0649 87.0344 55.9643 87.366 55.7759 87.6481C55.5874 87.9302 55.3195 88.15 55.0061 88.2798C54.6927 88.4096 54.3478 88.4436 54.0151 88.3774C53.6824 88.3112 53.3768 88.1479 53.1369 87.908C52.897 87.6681 52.7337 87.3625 52.6675 87.0298C52.6013 86.6971 52.6353 86.3522 52.7651 86.0388C52.8949 85.7254 53.1147 85.4575 53.3968 85.269C53.6789 85.0806 54.0105 84.98 54.3497 84.98C54.575 84.98 54.798 85.0243 55.0061 85.1105C55.2142 85.1967 55.4033 85.3231 55.5626 85.4823C55.7218 85.6416 55.8482 85.8307 55.9344 86.0388C56.0206 86.2469 56.0649 86.4699 56.0649 86.6952Z" fill="#37474F"/>
<path d="M54.3498 87.5816C54.8393 87.5816 55.2362 87.1848 55.2362 86.6952C55.2362 86.2057 54.8393 85.8088 54.3498 85.8088C53.8602 85.8088 53.4634 86.2057 53.4634 86.6952C53.4634 87.1848 53.8602 87.5816 54.3498 87.5816Z" fill="#455A64"/>
<path d="M78.4553 105.751C78.4553 106.091 78.3546 106.422 78.166 106.704C77.9774 106.987 77.7093 107.206 77.3957 107.336C77.0821 107.466 76.7371 107.5 76.4043 107.433C76.0715 107.367 75.7659 107.203 75.5261 106.963C75.2864 106.723 75.1233 106.417 75.0575 106.084C74.9917 105.751 75.0261 105.406 75.1564 105.093C75.2867 104.779 75.507 104.512 75.7895 104.324C76.072 104.135 76.4039 104.035 76.7433 104.036C77.1976 104.037 77.6331 104.218 77.9541 104.54C78.275 104.861 78.4553 105.297 78.4553 105.751Z" fill="#37474F"/>
<path d="M76.7433 106.638C77.2329 106.638 77.6297 106.241 77.6297 105.751C77.6297 105.262 77.2329 104.865 76.7433 104.865C76.2538 104.865 75.8569 105.262 75.8569 105.751C75.8569 106.241 76.2538 106.638 76.7433 106.638Z" fill="#455A64"/>
<path d="M76.1448 105.994L68.4616 87.3416H54.3496V86.0488H69.3288L77.3384 105.505L76.1448 105.994Z" fill="#455A64"/>
<path d="M77.2168 97.3864H36.6472V103.489H77.2168V97.3864Z" fill="#37474F"/>
<path d="M65.0058 97.3864H36.6474L22.897 63.4408H51.2554L65.0058 97.3864Z" fill="#37474F"/>
<path d="M65.0057 97.3864H43.5209L29.7705 63.4408H51.2553L65.0057 97.3864Z" fill="#455A64"/>
<path d="M54.9576 103.486H77.2136V97.3832H54.9576V103.486Z" fill="#455A64"/>
<path d="M51.2552 50.3784H24.7368V63.4408H51.2552V50.3784Z" fill="#37474F"/>
<path d="M51.2553 50.3784H29.7705V63.4408H51.2553V50.3784Z" fill="#37474F"/>
<path d="M53.94 57.1463C53.94 60.6887 50.5128 63.0983 50.5128 63.0983H30.6729V51.1943H50.5128C50.5128 51.1943 53.94 53.6039 53.94 57.1463Z" fill="#455A64"/>
<path d="M30.6953 63.0951V51.1943C30.6953 51.1943 34.1225 53.6039 34.1225 57.1463C34.1225 60.6887 30.6953 63.0951 30.6953 63.0951Z" fill="#37474F"/>
<path d="M33.4761 67.1624C35.0089 67.0984 36.5449 67.0664 38.0777 67.0408C39.6105 67.0152 41.1465 67.0184 42.6793 67.0056C44.2121 66.9928 45.7481 67.0056 47.2841 67.0408L49.5849 67.0856C50.3497 67.1112 51.1177 67.1272 51.8857 67.1624C51.1177 67.2008 50.3497 67.2168 49.5849 67.2424L47.2841 67.2872C45.7481 67.3128 44.2153 67.3128 42.6793 67.3224C41.1433 67.332 39.6137 67.3224 38.0777 67.2872C36.5417 67.252 35.0089 67.2296 33.4761 67.1624Z" fill="#37474F"/>
<path d="M36.6602 75.332C38.193 75.2648 39.7258 75.2328 41.2618 75.2072C42.7978 75.1816 44.3306 75.1848 45.8634 75.172C47.3962 75.1592 48.9322 75.172 50.465 75.2072L52.7658 75.252C53.5338 75.2808 54.3018 75.2936 55.0698 75.332C54.3018 75.3672 53.5338 75.3832 52.7658 75.4088L50.465 75.4536C48.9322 75.4792 47.3994 75.4792 45.8634 75.492C44.3274 75.5048 42.7946 75.492 41.2618 75.4536C39.729 75.4152 38.1802 75.396 36.6602 75.332Z" fill="#37474F"/>
<path d="M39.8154 83.4984C41.3514 83.4312 42.8842 83.4024 44.4202 83.3768C45.9562 83.3512 47.4858 83.3512 49.0218 83.3384C50.5578 83.3256 52.0906 83.3384 53.6234 83.3768L55.9242 83.4184C56.6922 83.4472 57.4602 83.4632 58.225 83.4984C57.4602 83.5336 56.6922 83.5496 55.9242 83.5784L53.6234 83.62C52.0906 83.6456 50.5546 83.6456 49.0218 83.6584C47.489 83.6712 45.953 83.6584 44.4202 83.62C42.8874 83.5816 41.3514 83.5656 39.8154 83.4984Z" fill="#37474F"/>
<path d="M42.9866 91.6648C44.5226 91.6008 46.0554 91.5688 47.5882 91.5432C49.121 91.5176 50.657 91.5176 52.193 91.5048C53.729 91.492 55.2586 91.5048 56.7946 91.5432L59.0954 91.588C59.8634 91.6136 60.6282 91.6296 61.3962 91.6648C60.6282 91.7032 59.8634 91.716 59.0954 91.7448L56.7946 91.7896C55.2586 91.8152 53.7258 91.812 52.193 91.8248C50.6602 91.8376 49.1242 91.8248 47.5882 91.7896C46.0522 91.7544 44.5226 91.732 42.9866 91.6648Z" fill="#37474F"/>
<path d="M78.6024 103.486H36.6472V108.471H78.6024V103.486Z" fill="#263238"/>
<path d="M18.8137 63.4408H24.7433L42.5769 108.471H36.6473L18.8137 63.4408Z" fill="#263238"/>
<path d="M24.7369 50.3784L18.8137 52.7048V63.4408H24.7369V50.3784Z" fill="#263238"/>
<path d="M65.0057 108.471H41.1721V110.218H65.0057V108.471Z" fill="#A6A6A6"/>
<path d="M70.6056 109.345H51.5432V112.625H70.6056V109.345Z" fill="#C7C7C7"/>
<path d="M58.5161 50.6088C61.2233 53.2456 60.1993 56.7752 61.2713 58.7944C61.9273 60.0296 64.2281 61.4344 64.6153 62.8328C65.2553 65.1304 63.2937 65.8184 63.6553 67.0664C64.1481 68.836 66.4745 68.8488 66.7113 71.7096C66.9481 74.5704 63.6297 77.38 56.1801 77.7288C48.7305 78.0776 44.8393 75.108 44.7273 72.6888C44.6153 70.2696 47.1273 69.6232 47.4089 67.8408C47.5881 66.6984 46.1289 65.8056 46.1769 63.6808C46.2249 61.556 48.3337 61.012 48.7369 59.236C49.1401 57.46 48.4745 53.0472 51.2489 50.9896C54.0233 48.932 57.1785 49.3064 58.5161 50.6088Z" fill="#263238"/>
<path d="M58.1802 50.6504C58.9446 51.2699 59.5484 52.0647 59.9402 52.9672C60.3475 53.9203 60.6407 54.9181 60.8138 55.94C60.9004 56.5488 61.056 57.1457 61.2778 57.7192C61.5043 58.1969 61.8143 58.6304 62.193 58.9992C62.9482 59.7736 63.8666 60.3816 64.5322 61.2392C65.1722 62.052 65.6298 63.1176 65.2906 64.148C65.1082 64.7112 64.7018 65.1528 64.433 65.6712C64.1642 66.1896 64.049 66.7816 64.4554 67.2296C64.8042 67.6104 65.329 67.8088 65.7354 68.1288C66.13 68.4447 66.4714 68.8217 66.7466 69.2456C67.025 69.6648 67.2131 70.1373 67.299 70.6331C67.385 71.1289 67.3668 71.6372 67.2458 72.1256C66.6666 74.3976 64.4234 75.5688 62.3786 76.2664L61.5178 76.5512C61.4762 76.5512 61.441 76.5 61.489 76.484C63.5434 75.716 65.9338 74.8136 66.8426 72.6248C67.0485 72.1484 67.1417 71.6308 67.1151 71.1125C67.0885 70.5941 66.9427 70.0889 66.689 69.636C66.4334 69.1859 66.0984 68.7859 65.7002 68.4552C65.3194 68.1352 64.865 67.9208 64.4746 67.6136C64.28 67.4711 64.1263 67.2798 64.0292 67.0591C63.932 66.8383 63.8947 66.5958 63.921 66.356C64.0178 65.8342 64.2372 65.3429 64.561 64.9224C64.8999 64.4848 65.0985 63.955 65.1306 63.4024C65.1053 62.8613 64.9339 62.3371 64.6346 61.8856C64.0682 60.964 63.1818 60.3272 62.3946 59.6072C61.5871 58.9332 61.0127 58.0217 60.753 57.0024C60.6314 56.4648 60.5706 55.9176 60.4746 55.3736C60.3838 54.872 60.2673 54.3754 60.1258 53.8856C59.8602 52.901 59.3817 51.9867 58.7242 51.2072C58.5502 51.0076 58.3561 50.8264 58.145 50.6664C58.129 50.6696 58.1578 50.6312 58.1802 50.6504Z" fill="#263238"/>
<path d="M44.5097 70.9032C44.6247 70.5175 44.8223 70.1615 45.0889 69.86C45.3673 69.54 45.6969 69.2936 46.0009 69.012C46.3094 68.761 46.5412 68.4283 46.6697 68.052C46.7513 67.5866 46.6664 67.1073 46.4297 66.6984C46.203 66.2697 46.0083 65.8247 45.8473 65.3672C45.7131 64.9134 45.6483 64.4419 45.6553 63.9688C45.6768 62.9946 45.9974 62.0505 46.5737 61.2648C46.8521 60.868 47.1625 60.4936 47.4441 60.1C47.7528 59.6697 48.0035 59.2006 48.1897 58.7048C48.5929 57.6104 48.7401 56.4424 49.0857 55.3288C49.4441 54.1911 49.918 53.0931 50.5001 52.052C50.5001 52.0264 50.5513 52.052 50.5385 52.0776C50.0209 53.019 49.6037 54.0122 49.2937 55.0408C48.9961 56.0168 48.8425 57.0216 48.6025 58.0104C48.4948 58.4974 48.3383 58.9723 48.1353 59.428C47.932 59.8469 47.691 60.2464 47.4153 60.6216C46.8617 61.4056 46.2953 62.1768 46.0969 63.1336C45.8968 64.0752 46.0022 65.056 46.3977 65.9336C46.7401 66.6952 47.2329 67.5336 46.8361 68.3784C46.5161 69.0888 45.7801 69.4824 45.2809 70.0584C45.018 70.3757 44.825 70.7449 44.7147 71.142C44.6044 71.539 44.5793 71.9549 44.6409 72.3624C44.9065 74.4616 46.9161 75.62 48.8553 75.8472C48.8656 75.8499 48.8746 75.8559 48.8811 75.8643C48.8875 75.8727 48.891 75.883 48.891 75.8936C48.891 75.9042 48.8875 75.9145 48.8811 75.9229C48.8746 75.9313 48.8656 75.9373 48.8553 75.94C47.1657 75.812 45.3769 74.9544 44.6953 73.3224C44.3551 72.5618 44.2895 71.7067 44.5097 70.9032Z" fill="#263238"/>
<path d="M55.5882 66.9384C58.4682 71.7384 62.6826 76.4808 64.6986 76.7016C66.321 76.8776 76.8266 72.4424 77.6362 71.6584C78.3306 70.9832 74.6122 64.468 73.6106 64.7368C71.9306 65.1912 65.6426 69.364 65.1754 69.2168C64.7082 69.0696 61.2106 66.468 57.553 64.0648C54.049 61.7736 53.5818 63.62 55.5882 66.9384Z" fill="#EB9481"/>
<path d="M76.5194 72.3112C77.4218 71.9592 81.7674 69.9816 82.7562 69.1816C83.745 68.3816 86.4202 65.876 85.8858 65.0568C85.3514 64.2376 84.5066 64.9096 84.5066 64.9096C84.5066 64.9096 85.4666 63.6744 84.8554 62.8968C84.2442 62.1192 82.9674 63.2168 82.9674 63.2168C82.9674 63.2168 83.8634 61.8728 83.1946 61.1432C82.5258 60.4136 81.4282 61.7224 81.4282 61.7224C81.4282 61.7224 82.305 60.532 81.5018 60.164C80.5418 59.7192 79.1658 62.084 78.0106 62.8936C77.7482 63.076 72.4202 66.1992 72.4202 66.1992L76.5194 72.3112Z" fill="#EB9481"/>
<path d="M81.5242 61.6072C80.513 63.3512 79.7706 63.9368 78.0042 64.8584C77.9722 64.8776 78.0042 64.932 78.0266 64.916C79.8314 64.1704 80.8714 63.5688 81.6042 61.6488C81.6458 61.556 81.5722 61.524 81.5242 61.6072Z" fill="#263238"/>
<path d="M83.0601 63.0695C81.8537 64.7879 81.0505 65.4343 79.2809 66.5352C79.2553 66.5352 79.2809 66.596 79.3065 66.58C81.1337 65.6455 82.1577 65.0215 83.1465 63.1431C83.1657 63.0599 83.0985 62.9799 83.0601 63.0695Z" fill="#263238"/>
<path d="M84.4137 64.964C83.1337 66.5448 82.2793 67.2904 80.4233 68.1384C80.4189 68.1401 80.4149 68.1427 80.4114 68.1459C80.408 68.1491 80.4052 68.153 80.4033 68.1573C80.4014 68.1616 80.4003 68.1663 80.4002 68.171C80.4 68.1757 80.4008 68.1804 80.4025 68.1848C80.4042 68.1893 80.4067 68.1933 80.41 68.1967C80.4132 68.2002 80.4171 68.2029 80.4214 68.2049C80.4257 68.2068 80.4303 68.2079 80.4351 68.208C80.4398 68.2081 80.4445 68.2073 80.4489 68.2057C82.4265 67.5272 83.4889 66.6056 84.4585 65.0056C84.5257 64.9 84.4969 64.8648 84.4137 64.964Z" fill="#263238"/>
<path d="M70.5256 66.2792C70.5256 66.2792 71.9784 63.7192 72.6984 62.8264C73.4184 61.9336 77.3064 59.6584 77.8472 60.4712C78.548 61.5176 76.5672 63.2808 75.4792 64.02C75.4792 64.02 77.0984 66.4424 75.9496 68.0168C74.8008 69.5912 70.5256 66.2792 70.5256 66.2792Z" fill="#EB9481"/>
<path d="M77.9402 60.82C77.889 62.2376 76.401 63.1112 75.4026 63.9048C75.3868 63.9153 75.3738 63.9296 75.3648 63.9463C75.3558 63.9631 75.3511 63.9818 75.3511 64.0008C75.3511 64.0198 75.3558 64.0385 75.3648 64.0553C75.3738 64.0721 75.3868 64.0863 75.4026 64.0968C76.0138 65.1592 76.5674 66.8328 76.0202 68.004C76.0164 68.0108 76.0154 68.0188 76.0175 68.0263C76.0196 68.0338 76.0246 68.0402 76.0314 68.044C76.0382 68.0478 76.0462 68.0488 76.0537 68.0467C76.0612 68.0446 76.0676 68.0396 76.0714 68.0328C76.8298 66.8584 76.4202 65.1688 75.6746 64.0488C76.7114 63.252 78.1642 62.308 77.9498 60.82C77.9594 60.8136 77.9402 60.8104 77.9402 60.82Z" fill="#263238"/>
<path d="M70.2217 66.2056L75.0601 73.6712C75.0601 73.6712 66.5225 77.6488 64.0873 76.7048C61.6521 75.7608 56.7465 69.2872 54.8713 65.9048C52.9961 62.5224 55.1913 62.18 58.4905 64.4296C61.7897 66.6792 65.0985 69.1272 65.1913 69.1208C65.2841 69.1144 70.2217 66.2056 70.2217 66.2056Z" fill="#DBDBDB"/>
<path d="M72.8681 74.1543C72.2281 73.0471 69.4986 68.6087 68.8426 67.6935C68.7946 67.6295 68.7434 67.6455 68.7818 67.7191C70.5802 71.0887 72.1514 73.1271 72.8201 74.1799C72.8393 74.2055 72.8841 74.1799 72.8681 74.1543Z" fill="#263238"/>
<path d="M54.1129 65.0632C54.7817 66.8392 56.9929 70.0424 56.9929 70.0424L63.6841 67.684C63.6841 67.684 58.9097 63.8024 55.7225 62.708C54.4393 62.2696 53.4345 63.2648 54.1129 65.0632Z" fill="#C2C7D6"/>
<path d="M56.7146 69.1207C57.6746 68.7047 58.657 68.3047 59.6522 67.9463C60.1482 67.7671 60.6442 67.5975 61.1466 67.4343C61.649 67.2711 62.1642 67.1559 62.6602 66.9863C62.689 66.9863 62.7018 67.0215 62.6602 67.0311C62.1578 67.1751 61.6682 67.3895 61.169 67.5591C60.6698 67.7287 60.1738 67.9047 59.6778 68.0839C58.689 68.4359 57.697 68.7879 56.7146 69.1655C56.6986 69.1751 56.6858 69.1335 56.7146 69.1207Z" fill="#263238"/>
<path opacity="0.1" d="M60.5001 68.8008L56.9801 70.0424C56.9801 70.0424 54.7753 66.8424 54.1001 65.0632C53.8931 64.5836 53.8362 64.0526 53.9369 63.54L60.5001 68.8008Z" fill="black"/>
<path d="M103.095 141.255C102.324 141.514 80.2601 141.556 79.4153 141.025C79.0953 140.826 78.9033 137.614 78.7753 133.726C78.7465 132.884 78.7241 132.017 78.7081 131.137C78.5791 127.19 78.2351 123.254 77.6777 119.345L92.4361 119.274L93.0601 131.066L92.9993 133.655C92.9993 133.655 101.454 137.418 102.315 138.1C103.175 138.782 103.86 140.996 103.095 141.255Z" fill="#EB9481"/>
<path d="M78.8457 135.473C78.9673 138.535 79.1465 140.858 79.4185 141.025C80.2601 141.556 102.327 141.514 103.098 141.255C103.87 140.996 103.182 138.782 102.327 138.1C101.946 137.799 100.106 136.906 98.1673 135.998C98.1673 135.998 100.087 137.55 99.3801 137.77C95.6425 138.932 82.9001 136.343 78.8457 135.473Z" fill="#C2C7D6"/>
<path d="M50.1768 79.7415H58.2024L60.4712 84.4199C60.4712 84.4199 80.6536 84.3047 86.0712 90.3207C92.6664 97.6807 93.0312 129.969 93.0312 129.969H78.6792C78.6792 129.969 76.516 103.799 74.8392 101.617C73.1624 99.4343 53.8568 100.068 48.6184 95.4311C43.7512 91.1207 46.116 78.5639 45.7384 79.7511L50.1768 79.7415Z" fill="#EB9481"/>
<path d="M83.8602 148.238C83.0506 148.327 61.4762 143.706 60.7658 143.009C60.4938 142.746 60.9834 139.566 61.6842 135.738C61.8378 134.913 62.0042 134.058 62.1674 133.194C63.2554 127.578 64.5418 121.646 64.5418 121.646L78.9834 124.695L76.209 136.161L75.6042 138.679C75.6042 138.679 83.073 144.142 83.7706 144.99C84.4682 145.838 84.6602 148.148 83.8602 148.238Z" fill="#EB9481"/>
<path d="M64.5418 121.646C64.5418 121.646 63.2618 127.578 62.1674 133.194C61.9978 134.062 61.8474 134.913 61.6874 135.738C61.5754 136.33 61.4762 136.903 61.3674 137.46C60.8394 140.481 60.5226 142.788 60.753 143.009C61.4634 143.706 83.0378 148.327 83.8474 148.238C84.657 148.148 84.4522 145.838 83.7578 144.993C83.4378 144.618 81.8378 143.354 80.1322 142.058C77.9466 140.401 75.5978 138.682 75.5978 138.682L76.2058 136.164L78.977 124.698L64.5418 121.646Z" fill="#EB9481"/>
<path d="M61.3801 137.46C60.8521 140.481 60.5353 142.788 60.7657 143.009C61.4761 143.706 83.0505 148.327 83.8601 148.238C84.6697 148.148 84.4649 145.838 83.7705 144.993C83.4505 144.618 81.8505 143.354 80.1449 142.058C80.1449 142.058 81.6969 143.978 80.9545 144.049C77.0633 144.394 65.1593 139.169 61.3801 137.46Z" fill="#C2C7D6"/>
<path d="M77.0058 132.874L62.7722 130.135C62.7722 130.135 68.5578 103.169 67.505 101.815C65.7738 99.5752 51.0218 99.9144 44.5162 95.4152C39.233 91.748 43.5786 79.7352 43.5786 79.7352H57.6362C57.6362 79.7352 59.0218 82.5608 59.3642 83.8792C59.3642 83.8792 76.0202 87.2392 81.553 92.6632C87.2586 98.26 77.0058 132.874 77.0058 132.874Z" fill="#EB9481"/>
<path d="M82.7401 94.2535C82.2491 93.1551 81.4871 92.1993 80.5257 91.4759C79.549 90.7645 78.4868 90.1786 77.3641 89.7319C77.0921 89.6135 76.8137 89.4983 76.5385 89.3831C76.4713 89.3543 76.4169 89.4503 76.4841 89.4823C78.5737 90.5447 80.8329 91.6871 81.9945 93.8215C83.1561 95.9559 83.0601 98.5895 82.9161 100.964C82.7433 103.844 82.4041 106.705 81.9561 109.553C81.5081 112.401 80.9961 115.21 80.3913 118.023C79.7865 120.836 79.1753 123.671 78.5673 126.497C78.4905 126.849 78.4297 127.204 78.3529 127.556C78.3529 127.588 78.3945 127.601 78.4009 127.556C79.1625 124.714 79.9401 121.882 80.5993 119.018C81.2585 116.154 81.8441 113.306 82.3369 110.426C82.8297 107.546 83.1913 104.628 83.3929 101.706C83.5785 99.2519 83.7641 96.5799 82.7401 94.2535Z" fill="#263238"/>
<path d="M65.3897 100.913C66.0297 100.977 65.7737 87.5048 77.3737 90.0328C77.3737 90.0328 78.0777 88.6024 79.0569 88.212C81.2169 87.3512 82.6889 88.1096 82.6889 87.9816C82.6889 87.8536 80.6665 85.3544 69.2489 84.1128C65.3385 83.6872 62.3465 83.4984 61.3865 82.9672C60.7177 82.596 58.4329 79.7416 58.4329 79.7416H43.5689C43.5689 79.7416 41.0537 85.86 41.8889 91.2328C42.7241 96.6056 50.6249 99.428 65.3897 100.913Z" fill="#C2C7D6"/>
<path d="M74.7402 87.94C71.547 87.3706 68.3006 87.156 65.0602 87.3C64.129 87.348 63.2042 87.4376 62.2794 87.524C62.2474 87.524 62.2474 87.5752 62.2794 87.5752C63.8794 87.4888 65.5018 87.4952 67.1082 87.5144C68.7146 87.5336 70.3274 87.604 71.9306 87.732C72.865 87.8056 73.7962 87.8792 74.7306 87.9816C74.7333 87.9822 74.7361 87.9823 74.7389 87.9819C74.7417 87.9814 74.7443 87.9804 74.7467 87.9789C74.7491 87.9774 74.7511 87.9755 74.7528 87.9732C74.7544 87.9709 74.7555 87.9683 74.7562 87.9656C74.7568 87.9629 74.7569 87.9601 74.7564 87.9573C74.756 87.9545 74.755 87.9519 74.7535 87.9495C74.752 87.9471 74.75 87.9451 74.7478 87.9434C74.7455 87.9418 74.7429 87.9406 74.7402 87.94Z" fill="#263238"/>
<path d="M73.7801 86.756C72.8969 86.756 72.0169 86.756 71.1369 86.804C70.2569 86.852 69.3801 86.964 68.5033 87.0696C68.4994 87.0681 68.4952 87.0677 68.4911 87.0682C68.487 87.0687 68.4831 87.0702 68.4797 87.0726C68.4763 87.0749 68.4736 87.0781 68.4717 87.0817C68.4697 87.0854 68.4688 87.0895 68.4688 87.0936C68.4688 87.0977 68.4697 87.1018 68.4717 87.1054C68.4736 87.1091 68.4763 87.1122 68.4797 87.1146C68.4831 87.117 68.487 87.1185 68.4911 87.119C68.4952 87.1195 68.4994 87.119 68.5033 87.1176C69.3769 87.0312 70.2601 86.9896 71.1369 86.9384C72.0137 86.8872 72.8969 86.8328 73.7769 86.7976C73.8153 86.7944 73.8153 86.756 73.7801 86.756Z" fill="#263238"/>
<path d="M58.4426 79.7416L43.4954 79.812C43.4954 79.812 46.2282 68.196 50.1002 63.94C51.8602 61.9976 53.6202 62.2632 55.1177 63.4728C55.4921 63.7736 59.8601 69.1976 60.2377 71.9016C60.4969 73.7096 58.7689 75.3256 58.7689 75.3256L58.4426 79.7416Z" fill="#C2C7D6"/>
<path d="M57.5752 75.2424C56.8221 75.408 56.1019 75.6978 55.444 76.1C55.124 76.292 54.7784 76.4904 54.4552 76.6984C54.132 76.9064 53.7768 77.1528 53.4184 77.3384C53.3896 77.3384 53.4184 77.396 53.4472 77.3832C53.7896 77.2104 54.1384 77.0632 54.4776 76.8648C54.8168 76.6664 55.1432 76.4744 55.4792 76.2856C56.1454 75.881 56.8522 75.5475 57.588 75.2904C57.6104 75.2712 57.5976 75.2392 57.5752 75.2424Z" fill="#263238"/>
<path d="M58.1864 75.8856C57.2264 75.9144 56.3752 76.3048 55.5176 76.6696C55.4888 76.6696 55.5016 76.7304 55.5176 76.7176C56.3605 76.3338 57.2537 76.072 58.1704 75.94C58.2216 75.9336 58.2216 75.8856 58.1864 75.8856Z" fill="#263238"/>
<path d="M52.6409 63.5784C52.7081 63.9176 54.2409 66.1384 55.7865 66.1384C56.2857 66.1384 56.3593 63.3896 56.3593 63.3896L56.4105 63.188L57.1305 60.3784L53.8697 58.1384L53.3993 57.8408C53.3993 57.8408 53.2521 58.6216 53.0793 59.5976C53.0793 59.6456 53.0633 59.6904 53.0537 59.7384C53.0441 59.7864 53.0313 59.844 53.0249 59.8952C52.9961 60.0424 52.9705 60.1896 52.9449 60.34C52.9193 60.4904 52.9065 60.5608 52.8905 60.6824C52.8745 60.804 52.8553 60.916 52.8393 61.0376C52.7143 61.8789 52.648 62.7279 52.6409 63.5784Z" fill="#EB9481"/>
<path d="M53.0793 59.588C53.3408 60.392 53.7742 61.1293 54.3495 61.7488C54.9248 62.3683 55.6281 62.8551 56.4106 63.1752L57.1306 60.3656L53.8697 58.1256L53.3993 57.828C53.3993 57.828 53.2521 58.612 53.0793 59.588Z" fill="#263238"/>
<path d="M61.0153 55.3704C62.1481 60.3368 59.3001 61.5752 58.2281 61.8184C57.2681 62.0392 53.9145 62.6664 52.2761 57.8408C50.6377 53.0152 52.5961 50.9192 54.7881 50.2984C56.9801 49.6776 59.8825 50.4008 61.0153 55.3704Z" fill="#EB9481"/>
<path d="M60.34 54.6216C60.2228 54.628 60.1053 54.628 59.988 54.6216C59.8641 54.6379 59.7382 54.6131 59.6296 54.5512C59.5983 54.5256 59.5767 54.49 59.5686 54.4503C59.5604 54.4107 59.5661 54.3695 59.5848 54.3336C59.63 54.2674 59.6921 54.2146 59.7648 54.1808C59.8375 54.147 59.9179 54.1334 59.9976 54.1416C60.1611 54.1326 60.3221 54.1851 60.4488 54.2888C60.4762 54.3137 60.4957 54.346 60.5051 54.3817C60.5146 54.4175 60.5135 54.4552 60.502 54.4903C60.4905 54.5255 60.4691 54.5566 60.4404 54.5799C60.4116 54.6031 60.3768 54.6176 60.34 54.6216Z" fill="#263238"/>
<path d="M57.06 55.4023C57.1752 55.3639 57.2744 55.3095 57.38 55.2615C57.5001 55.2282 57.6058 55.1562 57.6808 55.0567C57.6984 55.0206 57.7035 54.9797 57.6954 54.9403C57.6873 54.901 57.6664 54.8654 57.636 54.8391C57.5673 54.7983 57.4888 54.7767 57.4088 54.7767C57.3289 54.7767 57.2504 54.7983 57.1816 54.8391C57.0252 54.8952 56.8966 55.01 56.8232 55.1591C56.8125 55.1924 56.8111 55.2279 56.819 55.2619C56.827 55.2959 56.844 55.327 56.8684 55.352C56.8928 55.3771 56.9235 55.395 56.9572 55.4038C56.991 55.4127 57.0265 55.4122 57.06 55.4023Z" fill="#263238"/>
<path d="M58.017 56.3496C58.017 56.3496 57.9946 56.372 57.9978 56.388C58.0874 56.708 58.1322 57.1208 57.8506 57.3032C57.8506 57.3032 57.8506 57.3256 57.8506 57.3224C58.2186 57.1848 58.1546 56.6536 58.017 56.3496Z" fill="#263238"/>
<path d="M57.6329 56.068C57.0793 56.1512 57.2873 57.252 57.7993 57.172C58.3113 57.092 58.1001 55.9976 57.6329 56.068Z" fill="#263238"/>
<path d="M57.428 56.164C57.3448 56.2472 57.2712 56.372 57.156 56.4072C57.0408 56.4424 56.9032 56.3496 56.7944 56.2536C56.7944 56.2536 56.7752 56.2536 56.7944 56.2696C56.8296 56.484 56.9512 56.6824 57.1848 56.6728C57.4184 56.6632 57.5048 56.4488 57.5048 56.2248C57.508 56.1832 57.46 56.132 57.428 56.164Z" fill="#263238"/>
<path d="M59.8249 55.9399C59.8249 55.9399 59.8537 55.9399 59.8569 55.9655C59.9049 56.3079 60.0233 56.6951 60.3529 56.7527V56.7719C59.9657 56.7911 59.8185 56.2791 59.8249 55.9399Z" fill="#263238"/>
<path d="M60.0648 55.5368C60.6056 55.396 60.8489 56.4968 60.3464 56.6184C59.844 56.74 59.6104 55.652 60.0648 55.5368Z" fill="#263238"/>
<path d="M60.3081 55.556C60.4073 55.5944 60.5161 55.6808 60.6281 55.6648C60.7401 55.6488 60.8105 55.5112 60.8617 55.38C60.8617 55.38 60.8617 55.38 60.8809 55.38C60.9353 55.588 60.9129 55.8216 60.7209 55.908C60.5289 55.9944 60.3721 55.8344 60.2761 55.636C60.2505 55.62 60.2697 55.54 60.3081 55.556Z" fill="#263238"/>
<path d="M58.4458 59.1656C58.5418 59.2328 58.6378 59.332 58.7658 59.3256C58.8925 59.3051 59.0135 59.2583 59.121 59.188H59.1402C59.1053 59.2659 59.0494 59.3327 58.9787 59.3807C58.9081 59.4287 58.8255 59.4562 58.7402 59.46C58.6664 59.4527 58.5965 59.4235 58.5395 59.3762C58.4825 59.3289 58.4409 59.2655 58.4202 59.1944C58.4202 59.1656 58.4202 59.156 58.4458 59.1656Z" fill="#263238"/>
<path d="M59.6234 57.6488C59.6234 57.6488 59.7962 58.1448 59.8442 58.3848C59.8442 58.4072 59.793 58.4296 59.7098 58.4488C59.5117 58.5274 59.2958 58.5499 59.0858 58.5138C58.8758 58.4777 58.6798 58.3843 58.5194 58.244C58.497 58.2248 58.5194 58.1928 58.5482 58.2056C58.8963 58.3515 59.2818 58.3828 59.649 58.2952C59.649 58.2248 59.329 57.4568 59.3642 57.4472C59.5521 57.4219 59.7426 57.4219 59.9306 57.4472C59.6106 56.4104 59.1114 55.4312 58.7978 54.3912C58.7967 54.3837 58.798 54.3761 58.8016 54.3695C58.8052 54.3629 58.8107 54.3576 58.8175 54.3543C58.8243 54.3511 58.832 54.3502 58.8394 54.3516C58.8468 54.3531 58.8535 54.3568 58.8586 54.3624C59.4184 55.3951 59.8739 56.481 60.2186 57.604C60.257 57.7512 59.7258 57.6712 59.6234 57.6488Z" fill="#263238"/>
<path d="M59.5145 58.404C59.418 58.5953 59.2749 58.7592 59.0986 58.8808C59.0027 58.9405 58.8914 58.9706 58.7786 58.9672C58.5226 58.9512 58.4586 58.7304 58.481 58.532C58.486 58.4238 58.5031 58.3164 58.5322 58.212C58.8307 58.3795 59.175 58.4468 59.5145 58.404Z" fill="#263238"/>
<path d="M59.0985 58.8808C59.0027 58.9405 58.8914 58.9706 58.7786 58.9672C58.5226 58.9512 58.4586 58.7304 58.481 58.532C58.6081 58.5123 58.7382 58.536 58.8502 58.5993C58.9623 58.6626 59.0497 58.7617 59.0985 58.8808Z" fill="#FF9CBD"/>
<path d="M52.5514 58.1448C52.8475 57.9441 53.0864 57.6698 53.2446 57.349C53.4028 57.0281 53.4749 56.6716 53.4538 56.3144C54.265 55.8069 54.9275 55.0937 55.3738 54.2472C55.3546 54.356 55.2202 55.1272 55.1402 55.5272C58.2026 54.484 58.8298 51.9336 58.8298 51.9336C59.5122 52.3998 60.0801 53.0147 60.4906 53.732C60.4906 53.732 60.2346 51.796 59.0538 50.6472C57.6106 49.2392 53.4442 49.4056 51.8442 51.7448C50.1258 54.26 52.5514 58.1448 52.5514 58.1448Z" fill="#263238"/>
<path d="M57.46 54.66C56.9941 55.0099 56.4786 55.2881 55.9304 55.4856C56.7799 55.1147 57.5099 54.5154 58.0392 53.7544C58.2632 53.43 58.445 53.0784 58.58 52.708C58.7439 52.3079 58.8276 51.8796 58.8264 51.4472C58.825 51.4434 58.8245 51.4392 58.825 51.4351C58.8255 51.431 58.827 51.4271 58.8294 51.4237C58.8317 51.4203 58.8349 51.4175 58.8385 51.4156C58.8422 51.4137 58.8463 51.4127 58.8504 51.4127C58.8545 51.4127 58.8586 51.4137 58.8623 51.4156C58.8659 51.4175 58.8691 51.4203 58.8714 51.4237C58.8738 51.4271 58.8753 51.431 58.8758 51.4351C58.8763 51.4392 58.8758 51.4434 58.8744 51.4472C58.9218 51.8749 58.898 52.3074 58.804 52.7272C58.6915 53.1377 58.5062 53.5247 58.2568 53.8696C58.0294 54.169 57.7612 54.435 57.46 54.66Z" fill="#263238"/>
<path d="M52.6824 59.6744C52.762 59.6941 52.8437 59.7038 52.9256 59.7032C53.0064 59.7067 53.0873 59.6981 53.1656 59.6776C53.2657 59.6525 53.3595 59.6068 53.4408 59.5432C53.5061 59.4939 53.5643 59.4358 53.6136 59.3704C53.6836 59.2743 53.7346 59.1657 53.764 59.0504L53.3 57.7384C53.3 57.7384 51.9784 56.3176 51.3192 56.8072C50.66 57.2968 51.7992 59.4792 52.6824 59.6744Z" fill="#EB9481"/>
<path d="M51.6616 57.4312C51.6616 57.4312 51.6616 57.4504 51.6616 57.4536C52.2824 57.6104 52.6664 58.1128 52.9608 58.6504C52.9187 58.5958 52.8652 58.5511 52.8041 58.5193C52.7429 58.4875 52.6755 58.4695 52.6066 58.4664C52.5378 58.4634 52.4691 58.4754 52.4053 58.5017C52.3416 58.5279 52.2844 58.5678 52.2376 58.6184C52.2376 58.6184 52.2376 58.6536 52.26 58.6472C52.3589 58.6003 52.4699 58.5853 52.5776 58.6042C52.6854 58.6231 52.7846 58.6751 52.8616 58.7528C52.9912 58.8827 53.106 59.0265 53.204 59.1816C53.2392 59.2296 53.3288 59.1816 53.3 59.1304C53.2072 58.3656 52.4776 57.396 51.6616 57.4312Z" fill="#263238"/>
<path d="M52.7241 59.46C52.7451 59.5188 52.7885 59.5669 52.8448 59.5939C52.9012 59.6209 52.9659 59.6245 53.0249 59.604C53.0568 59.5959 53.0867 59.5813 53.1126 59.561C53.1386 59.5407 53.16 59.5153 53.1755 59.4863C53.1911 59.4572 53.2004 59.4253 53.2029 59.3925C53.2055 59.3597 53.2011 59.3267 53.1902 59.2956C53.1792 59.2646 53.1619 59.2362 53.1394 59.2122C53.1168 59.1882 53.0895 59.1692 53.0592 59.1563C53.0289 59.1435 52.9963 59.1371 52.9634 59.1376C52.9305 59.1381 52.898 59.1454 52.8681 59.1591C52.8093 59.1802 52.7611 59.2236 52.7342 59.2799C52.7072 59.3362 52.7036 59.401 52.7241 59.46Z" fill="white"/>
<path d="M52.196 59.1656C52.2028 59.1864 52.2138 59.2056 52.2282 59.2221C52.2426 59.2386 52.2602 59.252 52.2799 59.2616C52.2996 59.2711 52.321 59.2766 52.3429 59.2777C52.3648 59.2788 52.3866 59.2755 52.4072 59.268C52.4497 59.2535 52.4846 59.2228 52.5044 59.1826C52.5242 59.1424 52.5272 59.096 52.5128 59.0536C52.4984 59.0111 52.4677 58.9762 52.4275 58.9564C52.3873 58.9366 52.3408 58.9335 52.2984 58.948C52.2768 58.9547 52.2569 58.9658 52.2398 58.9807C52.2228 58.9956 52.209 59.0138 52.1994 59.0343C52.1897 59.0547 52.1845 59.0769 52.1839 59.0995C52.1833 59.1222 52.1874 59.1446 52.196 59.1656Z" fill="white"/>
<path d="M49.076 65.4056C46.3208 70.3944 42.9448 77.476 43.7576 79.9112C44.3528 81.6936 52.6856 87.2136 55.3416 88.8712C56.3016 89.4664 61.3576 83.2712 60.4072 82.5384C59.172 81.5784 50.4328 76.7144 50.4456 75.9784C50.4456 75.5624 51.6712 69.2584 52.068 66.4744C52.8104 61.268 50.0424 63.6584 49.076 65.4056Z" fill="#EB9481"/>
<path d="M58.244 81.3864C58.244 81.3864 61.444 81.5655 63.5368 81.7831C64.7016 81.9047 66.6792 82.2887 67.4952 82.7687C68.7144 83.4887 73.3576 87.2712 72.4648 88.4168C71.6552 89.4536 68.0808 85.6968 68.0808 85.6968C68.0808 85.6968 72.0232 89.1687 70.82 90.2375C69.6168 91.3063 66.1416 86.5256 66.1416 86.5256C66.1416 86.5256 70.1128 90.1832 68.7016 91.092C67.6296 91.78 64.2376 87.62 64.2376 87.62C64.2376 87.62 67.6296 90.788 66.5608 91.54C65.3768 92.3688 62.0072 88.7304 62.0072 88.7304C58.9672 90.1864 56.0424 89.4632 55.3416 88.8712C55.06 88.6376 58.244 81.3864 58.244 81.3864Z" fill="#EB9481"/>
<path d="M66.7945 84.4199C67.2713 84.8135 67.7545 85.2039 68.1993 85.6359C68.6441 86.0679 69.0665 86.5191 69.4793 86.9895C70.013 87.5951 70.4758 88.2596 70.8585 88.9704C70.0873 87.7575 68.5321 86.1863 68.0905 85.7543C67.6489 85.3223 67.2297 84.8679 66.7881 84.4391C66.7657 84.4199 66.7817 84.4007 66.7945 84.4199Z" fill="#263238"/>
<path d="M65.2042 85.9752C65.793 86.5 66.3946 87.0024 66.961 87.5528C67.5274 88.1032 68.0106 88.6728 68.5354 89.2584C68.5738 89.3032 68.5354 89.3128 68.4938 89.2584C67.9466 88.692 67.3994 88.212 66.8458 87.6584C66.2922 87.1048 65.761 86.516 65.1914 85.9816L65.2042 85.9752Z" fill="#263238"/>
<path d="M63.5977 87.0728C64.5196 87.8582 65.3582 88.7364 66.1001 89.6936C66.1385 89.7384 66.1001 89.7416 66.0489 89.6936C65.2329 88.8072 64.5993 88.0936 63.5721 87.1016C63.5561 87.092 63.5785 87.0568 63.5977 87.0728Z" fill="#263238"/>
<path d="M58.6441 81.22L53.2329 87.94C53.2329 87.94 43.8377 82.3368 43.2873 79.3288C42.6249 75.7352 47.0345 68.308 49.2201 65.0408C51.4057 61.7736 52.9993 62.9832 52.2825 67.0184C51.5657 71.0536 50.5513 75.8728 50.8297 76.1128C51.1081 76.3528 58.6441 81.22 58.6441 81.22Z" fill="#DBDBDB"/>
<path d="M51.9946 86.4072C52.8586 85.4696 56.2538 81.5112 56.929 80.6056C56.9738 80.5448 56.929 80.5 56.8874 80.5576C55.1343 82.4002 53.4878 84.3415 51.9562 86.372C51.937 86.3944 51.9722 86.4296 51.9946 86.4072Z" fill="#263238"/>
<path d="M45.0249 71.7704L52.2089 70.8712C52.2089 70.8712 52.6313 67.2552 52.5833 65.2232C52.5225 62.532 51.5081 61.9272 49.3833 64.4584C47.9817 66.1544 45.0249 71.7704 45.0249 71.7704Z" fill="#C2C7D6"/>
<path d="M51.4985 70.98C51.7289 70.9294 51.9618 70.891 52.1962 70.8648C52.2378 70.4392 52.2697 70.0104 52.3146 69.5848C52.337 69.3736 52.3626 69.1592 52.3914 68.9448C52.4202 68.7304 52.4458 68.4424 52.4746 68.2376C52.4746 68.2056 52.5194 68.2056 52.5194 68.2376C52.5194 68.5096 52.4938 68.7112 52.4842 68.948C52.4842 69.1144 52.465 69.268 52.4522 69.4472C52.4522 69.4056 52.481 69.364 52.4938 69.3224C52.5642 69.0984 52.6538 68.884 52.7146 68.6568C52.7132 68.6534 52.7127 68.6497 52.7131 68.6461C52.7135 68.6425 52.7148 68.639 52.7168 68.636C52.7189 68.6329 52.7216 68.6304 52.7249 68.6287C52.7281 68.627 52.7317 68.6261 52.7354 68.6261C52.739 68.6261 52.7426 68.627 52.7459 68.6287C52.7491 68.6304 52.7519 68.6329 52.7539 68.636C52.756 68.639 52.7572 68.6425 52.7576 68.6461C52.758 68.6497 52.7575 68.6534 52.7562 68.6568C52.689 68.8808 52.6474 69.1112 52.5834 69.3384C52.543 69.5122 52.4884 69.6824 52.4202 69.8472C52.3946 70.2056 52.4042 70.612 52.3562 70.964C52.0722 70.9917 51.7867 70.9992 51.5017 70.9864L51.4985 70.98Z" fill="#263238"/>
<path d="M45.6681 70.996C46.7049 70.7944 47.7417 70.6056 48.7881 70.4648C49.3097 70.3944 51.4121 70.2184 51.9337 70.1448C51.9625 70.1448 51.9657 70.1832 51.9337 70.1896C51.2937 70.3272 49.2265 70.5896 48.7049 70.66C47.6617 70.7976 46.7081 70.868 45.6681 71.028C45.6425 71.0472 45.6425 71.0024 45.6681 70.996Z" fill="#263238"/>
<path d="M31.0921 88.4072C32.0376 88.4072 32.8041 87.6407 32.8041 86.6952C32.8041 85.7496 32.0376 84.9832 31.0921 84.9832C30.1466 84.9832 29.3801 85.7496 29.3801 86.6952C29.3801 87.6407 30.1466 88.4072 31.0921 88.4072Z" fill="#37474F"/>
<path d="M31.0922 87.5816C31.5818 87.5816 31.9786 87.1848 31.9786 86.6952C31.9786 86.2057 31.5818 85.8088 31.0922 85.8088C30.6027 85.8088 30.2058 86.2057 30.2058 86.6952C30.2058 87.1848 30.6027 87.5816 31.0922 87.5816Z" fill="#455A64"/>
<path d="M55.1977 105.751C55.1977 106.09 55.0971 106.422 54.9087 106.704C54.7202 106.986 54.4523 107.206 54.1389 107.336C53.8255 107.466 53.4806 107.5 53.1479 107.433C52.8152 107.367 52.5096 107.204 52.2697 106.964C52.0298 106.724 51.8665 106.419 51.8003 106.086C51.7341 105.753 51.7681 105.408 51.8979 105.095C52.0277 104.781 52.2476 104.514 52.5296 104.325C52.8117 104.137 53.1433 104.036 53.4825 104.036C53.9374 104.036 54.3737 104.217 54.6954 104.538C55.017 104.86 55.1977 105.296 55.1977 105.751Z" fill="#37474F"/>
<path d="M53.4826 106.638C53.9721 106.638 54.369 106.241 54.369 105.751C54.369 105.262 53.9721 104.865 53.4826 104.865C52.9931 104.865 52.5962 105.262 52.5962 105.751C52.5962 106.241 52.9931 106.638 53.4826 106.638Z" fill="#455A64"/>
<path d="M52.8872 105.994L45.204 87.3416H31.092V86.0488H46.0712L54.0808 105.505L52.8872 105.994Z" fill="#455A64"/>
<path d="M59.6906 100.465H57.5178L60.1482 94.8232H62.321L59.6906 100.465Z" fill="#A6A6A6"/>
<path d="M66.42 92.1H60.1128C60.1128 92.1 60.2408 95.892 57.4216 95.892C57.0432 95.9104 56.6675 95.8194 56.3395 95.6299C56.0115 95.4403 55.745 95.1602 55.572 94.8232C55.572 94.8232 56.612 97.028 58.5224 97.028H62.7048C63.8408 97.0408 66.2056 96.26 66.42 92.1Z" fill="#A6A6A6"/>
<path d="M54.9258 92.1H61.2458C61.2458 92.1 61.1178 95.892 63.937 95.892C64.3154 95.9104 64.6911 95.8194 65.0191 95.6299C65.3471 95.4403 65.6136 95.1602 65.7866 94.8232C65.7866 94.8232 64.7466 97.028 62.8362 97.028H58.6538C57.5178 97.0408 55.153 96.26 54.9258 92.1Z" fill="#C7C7C7"/>
<path d="M50.833 109.946C51.2094 109.946 51.5146 109.641 51.5146 109.265C51.5146 108.888 51.2094 108.583 50.833 108.583C50.4565 108.583 50.1514 108.888 50.1514 109.265C50.1514 109.641 50.4565 109.946 50.833 109.946Z" fill="#C7C7C7"/>
<path d="M51.0793 109.418L50.5833 109.111L56.8937 98.8904H58.7081V99.476H57.2201L51.0793 109.418Z" fill="#A6A6A6"/>
<path d="M76.3401 50.9801C76.2244 52.0362 75.8189 53.0397 75.1684 53.8797C74.5179 54.7197 73.6477 55.3634 72.6541 55.7396C71.6606 56.1159 70.5823 56.21 69.5385 56.0115C68.4948 55.8131 67.5263 55.3299 66.7401 54.6153L63.8601 55.0377L65.2969 52.5513C64.9595 51.7396 64.8124 50.8614 64.8668 49.984C64.9212 49.1067 65.1756 48.2534 65.6107 47.4896C66.0458 46.7258 66.6499 46.0717 67.3768 45.5774C68.1037 45.0831 68.9341 44.7617 69.8044 44.6379C70.6747 44.5141 71.5617 44.5911 72.3977 44.863C73.2336 45.1349 73.9962 45.5946 74.627 46.2068C75.2578 46.8189 75.7402 47.5674 76.0372 48.3947C76.3341 49.2221 76.4377 50.1065 76.3401 50.9801Z" fill="white"/>
<path d="M76.34 50.98C76.2304 52.0391 75.8294 53.0471 75.1816 53.892C75.0208 54.1035 74.8465 54.3044 74.66 54.4936C74.4689 54.6763 74.2669 54.8473 74.0552 55.0056C73.6311 55.3272 73.1635 55.5868 72.6664 55.7768C72.1711 55.9724 71.6508 56.0974 71.1208 56.148C70.8545 56.1672 70.5871 56.1672 70.3208 56.148C70.0545 56.1437 69.789 56.117 69.5272 56.068C68.4672 55.8719 67.4825 55.3856 66.6824 54.6632L66.7528 54.6824L63.8728 55.124L63.6648 55.156L63.7704 54.9736L65.2008 52.484V52.58C64.8631 51.7567 64.7192 50.8668 64.7802 49.979C64.8413 49.0912 65.1056 48.2294 65.5528 47.46C66.0019 46.6931 66.6176 46.0369 67.3544 45.54C68.0898 45.052 68.9263 44.7372 69.8009 44.6191C70.6755 44.501 71.5655 44.5829 72.404 44.8584C73.2352 45.1411 73.9928 45.6058 74.6216 46.2184C75.2508 46.8295 75.7325 47.5759 76.0302 48.4009C76.328 49.226 76.4339 50.108 76.34 50.98ZM76.34 50.98C76.4332 50.1145 76.3262 49.2391 76.0271 48.4216C75.728 47.604 75.2448 46.8662 74.6151 46.2652C73.9853 45.6642 73.2257 45.2161 72.3951 44.9555C71.5645 44.6949 70.685 44.6288 69.8248 44.7624C68.9718 44.8884 68.1593 45.2093 67.4504 45.7C66.7475 46.1921 66.161 46.8322 65.732 47.5752C65.3073 48.32 65.0578 49.1517 65.0024 50.0072C64.9493 50.8609 65.0871 51.7158 65.4056 52.5096L65.428 52.5608L65.3992 52.6088L63.9528 55.0888L63.8504 54.9352L66.7304 54.532H66.772L66.7976 54.5576C67.5658 55.2761 68.5186 55.7669 69.5496 55.9752C69.807 56.0268 70.0681 56.0578 70.3304 56.068C70.5924 56.0872 70.8555 56.0872 71.1176 56.068C71.6407 56.0319 72.1565 55.9242 72.6504 55.748C73.1473 55.5672 73.6151 55.315 74.0392 54.9992C74.2501 54.8421 74.452 54.6733 74.644 54.4936C74.8305 54.3066 75.0047 54.1078 75.1656 53.8984C75.8223 53.0546 76.2292 52.0435 76.34 50.98Z" fill="#263238"/>
<path d="M68.66 50.388C68.66 50.4956 68.6281 50.6008 68.5683 50.6902C68.5086 50.7797 68.4236 50.8494 68.3242 50.8906C68.2248 50.9318 68.1154 50.9425 68.0099 50.9215C67.9044 50.9006 67.8074 50.8487 67.7314 50.7727C67.6553 50.6966 67.6035 50.5997 67.5825 50.4941C67.5615 50.3886 67.5723 50.2792 67.6134 50.1798C67.6546 50.0804 67.7243 49.9955 67.8138 49.9357C67.9033 49.8759 68.0084 49.844 68.116 49.844C68.2603 49.844 68.3987 49.9013 68.5007 50.0033C68.6027 50.1054 68.66 50.2437 68.66 50.388Z" fill="#263238"/>
<path d="M71.1752 50.388C71.1752 50.4956 71.1433 50.6008 71.0835 50.6902C71.0237 50.7797 70.9387 50.8494 70.8393 50.8906C70.7399 50.9318 70.6306 50.9425 70.525 50.9215C70.4195 50.9006 70.3226 50.8487 70.2465 50.7727C70.1704 50.6966 70.1186 50.5997 70.0976 50.4941C70.0766 50.3886 70.0874 50.2792 70.1286 50.1798C70.1697 50.0804 70.2395 49.9955 70.3289 49.9357C70.4184 49.8759 70.5236 49.844 70.6312 49.844C70.7754 49.844 70.9138 49.9013 71.0158 50.0033C71.1178 50.1054 71.1752 50.2437 71.1752 50.388Z" fill="#263238"/>
<path d="M73.6969 50.388C73.7 50.4957 73.6711 50.6019 73.6139 50.6931C73.5566 50.7843 73.4735 50.8565 73.3752 50.9005C73.2769 50.9444 73.1677 50.9582 73.0615 50.9401C72.9554 50.922 72.857 50.8727 72.7788 50.7986C72.7007 50.7245 72.6463 50.6288 72.6225 50.5238C72.5988 50.4187 72.6068 50.309 72.6454 50.2084C72.6841 50.1079 72.7518 50.0211 72.8399 49.9591C72.9279 49.8971 73.0324 49.8626 73.1401 49.86C73.2839 49.8566 73.4231 49.9102 73.5275 50.0091C73.6318 50.1081 73.6927 50.2443 73.6969 50.388Z" fill="#263238"/>
</svg>
